ply
format ascii 1.0
comment Feeney's Flatenator generated
comment TextureFile SpaceInteriors_Texture.png
element vertex 84
property float x
property float y
property float z
element face 28
property list uchar int vertex_indices
end_header
0 5 0 
-5 5 0 
-5 5 -5 
0 5 0 
-5 5 -5 
0 5 -5 
-5 5 -5 
-12.117 5 -9.11768 
-8.88596 5 -12.3488 
0 5 -5 
-5 5 -5 
-8.88596 5 -12.3488 
0 5 -5 
-8.88596 5 -12.3488 
-4.82703 5 -14.2992 
-5 5 0 
-15 5 0 
-14.2907 5 -4.83413 
-5 5 -5 
-5 5 0 
-14.2907 5 -4.83413 
-5 5 -5 
-14.2907 5 -4.83413 
-12.117 5 -9.11768 
0 5 -5 
-4.82703 5 -14.2992 
0 5 -15 
-14.2907 5 -4.83413 
-15 5 0 
-15 0 0 
-14.2907 5 -4.83413 
-15 0 0 
-14.2907 0 -4.83413 
-12.117 5 -9.11768 
-14.2907 5 -4.83413 
-14.2907 0 -4.83413 
-12.117 5 -9.11768 
-14.2907 0 -4.83413 
-12.117 0 -9.11768 
-8.88596 5 -12.3488 
-12.117 5 -9.11768 
-12.117 0 -9.11768 
-8.88596 5 -12.3488 
-12.117 0 -9.11768 
-8.88596 0 -12.3488 
-4.82703 5 -14.2992 
-8.88596 5 -12.3488 
-8.88596 0 -12.3488 
-4.82703 5 -14.2992 
-8.88596 0 -12.3488 
-4.82703 0 -14.2992 
0 5 -15 
-4.82703 5 -14.2992 
-4.82703 0 -14.2992 
0 5 -15 
-4.82703 0 -14.2992 
0 0 -15 
0 0 0 
0 0 -5 
-5 0 -5 
0 0 0 
-5 0 -5 
-5 0 0 
-5 0 -5 
-8.88596 0 -12.3488 
-12.117 0 -9.11768 
0 0 -5 
-4.82703 0 -14.2992 
-8.88596 0 -12.3488 
0 0 -5 
-8.88596 0 -12.3488 
-5 0 -5 
-5 0 0 
-14.2907 0 -4.83413 
-15 0 0 
-5 0 -5 
-12.117 0 -9.11768 
-14.2907 0 -4.83413 
-5 0 -5 
-14.2907 0 -4.83413 
-5 0 0 
0 0 -5 
0 0 -15 
-4.82703 0 -14.2992 
3 0 1 2
3 3 4 5
3 6 7 8
3 9 10 11
3 12 13 14
3 15 16 17
3 18 19 20
3 21 22 23
3 24 25 26
3 27 28 29
3 30 31 32
3 33 34 35
3 36 37 38
3 39 40 41
3 42 43 44
3 45 46 47
3 48 49 50
3 51 52 53
3 54 55 56
3 57 58 59
3 60 61 62
3 63 64 65
3 66 67 68
3 69 70 71
3 72 73 74
3 75 76 77
3 78 79 80
3 81 82 83
