ply
format ascii 1.0
comment Feeney's Flatenator generated
comment TextureFile WorldMap.png
element vertex 660
property float x
property float y
property float z
property float nx
property float ny
property float nz
element face 220
property list uchar int vertex_indices
end_header
-5.11683 5.36878 -1.27907 -3.44751 0 9.09784 
-5.11683 2.60252 -1.27907 -3.44751 0 9.09784 
-1.82797 2.60252 -0.032799 -3.44751 0 9.09784 
-5.11683 5.36878 -1.27907 -3.44751 0 9.09784 
-1.82797 2.60252 -0.032799 -3.44751 0 9.09784 
-1.82797 5.36878 -0.032799 -3.44751 0 9.09784 
-16.3351 1.5201 -2.62373 0 0 1.52728 
-8.66534 1.5201 -2.62373 0 0 1.52728 
-8.79044 1.71923 -2.62373 0 0 1.52728 
-16.3351 1.5201 -2.62373 0 0 1.47746 
-8.79044 1.71923 -2.62373 0 0 1.47746 
-16.21 1.71923 -2.62373 0 0 1.47746 
-8.66534 2.60252 -2.62373 0 -0 0.358403 
-8.66534 5.46747 -2.62373 0 -0 0.358403 
-8.79044 5.36392 -2.62373 0 -0 0.358403 
-8.66534 2.60252 -2.62373 0 0 0.227975 
-8.79044 5.36392 -2.62373 0 0 0.227975 
-8.79044 3.54157 -2.62373 0 0 0.227975 
-8.66534 5.46747 -2.62373 0 0 0.794203 
-16.3351 5.46747 -2.62373 0 0 0.794203 
-16.21 5.36392 -2.62373 0 0 0.794203 
-8.66534 5.46747 -2.62373 0 0 0.768295 
-16.21 5.36392 -2.62373 0 0 0.768295 
-8.79044 5.36392 -2.62373 0 0 0.768295 
-16.3351 5.46747 -2.62373 0 0 0.246911 
-16.3351 3.49378 -2.62373 0 0 0.246911 
-16.21 3.54157 -2.62373 0 0 0.246911 
-16.3351 5.46747 -2.62373 0 0 0.227978 
-16.21 3.54157 -2.62373 0 0 0.227978 
-16.21 5.36392 -2.62373 0 0 0.227978 
-8.66534 1.5201 -2.62373 0 0 11.6588 
-16.3351 1.5201 -2.62373 0 0 11.6588 
-16.3351 0 -2.62373 0 0 11.6588 
-8.66534 1.5201 -2.62373 0 0 11.6588 
-16.3351 0 -2.62373 0 0 11.6588 
-8.66534 0 -2.62373 0 0 11.6588 
-1.74142 1.5201 0 -1.99416 0 5.26251 
-5.20337 1.5201 -1.31186 -1.99416 0 5.26251 
-5.20337 0 -1.31186 -1.99416 0 5.26251 
-1.74142 1.5201 0 -1.99416 0 5.26251 
-5.20337 0 -1.31186 -1.99416 0 5.26251 
-1.74142 0 0 -1.99416 0 5.26251 
-8.57879 5.36878 -2.59093 -3.44751 0 9.09784 
-8.57879 2.60252 -2.59093 -3.44751 0 9.09784 
-5.28993 2.60252 -1.34466 -3.44751 0 9.09784 
-8.57879 5.36878 -2.59093 -3.44751 0 9.09784 
-5.28993 2.60252 -1.34466 -3.44751 0 9.09784 
-5.28993 5.36878 -1.34466 -3.44751 0 9.09784 
-5.20337 0 -1.31186 -1.99417 0 5.26254 
-5.20337 1.5201 -1.31186 -1.99417 0 5.26254 
-8.66534 1.5201 -2.62373 -1.99417 0 5.26254 
-5.20337 0 -1.31186 -1.99417 0 5.26254 
-8.66534 1.5201 -2.62373 -1.99417 0 5.26254 
-8.66534 0 -2.62373 -1.99417 0 5.26254 
-5.20337 5.46747 -1.31186 -0.0939416 0 0.247933 
-5.20337 2.60252 -1.31186 -0.0939416 0 0.247933 
-5.11683 2.60252 -1.27907 -0.0939416 0 0.247933 
-5.20337 5.46747 -1.31186 -0.0907055 0 0.239393 
-5.11683 2.60252 -1.27907 -0.0907055 0 0.239393 
-5.11683 5.36878 -1.27907 -0.0907055 0 0.239393 
-5.20337 1.5201 -1.31186 -0.129454 7.15256e-06 0.341625 
-1.74142 1.5201 0 -0.129454 7.15256e-06 0.341625 
-1.82797 1.61878 -0.032799 -0.129454 7.15256e-06 0.341625 
-5.20337 1.5201 -1.31186 -0.122982 1.10343e-05 0.324545 
-1.82797 1.61878 -0.032799 -0.122982 1.10343e-05 0.324545 
-5.11683 1.61878 -1.27907 -0.122982 1.10343e-05 0.324545 
-1.74142 2.60252 0 -0.0939675 0 0.247961 
-1.74142 5.46747 0 -0.0939675 0 0.247961 
-1.82797 5.36878 -0.032799 -0.0939675 0 0.247961 
-1.74142 2.60252 0 -0.0907306 0 0.23942 
-1.82797 5.36878 -0.032799 -0.0907306 0 0.23942 
-1.82797 2.60252 -0.032799 -0.0907306 0 0.23942 
-1.74142 5.46747 0 -0.129468 -1.19209e-05 0.34166 
-5.20337 5.46747 -1.31186 -0.129468 -1.19209e-05 0.34166 
-5.11683 5.36878 -1.27907 -0.129468 -1.19209e-05 0.34166 
-1.74142 5.46747 0 -0.122995 -6.57141e-06 0.324578 
-5.11683 5.36878 -1.27907 -0.122995 -6.57141e-06 0.324578 
-1.82797 5.36878 -0.032799 -0.122995 -6.57141e-06 0.324578 
-8.66534 5.46747 -2.62373 -0.0939702 0 0.247963 
-8.66534 2.60252 -2.62373 -0.0939702 0 0.247963 
-8.57879 2.60252 -2.59093 -0.0939702 0 0.247963 
-8.66534 5.46747 -2.62373 -0.0907332 0 0.239422 
-8.57879 2.60252 -2.59093 -0.0907332 0 0.239422 
-8.57879 5.36878 -2.59093 -0.0907332 0 0.239422 
-8.66534 1.5201 -2.62373 -0.129455 -2.38419e-06 0.341627 
-5.20337 1.5201 -1.31186 -0.129455 -2.38419e-06 0.341627 
-5.28993 1.61878 -1.34466 -0.129455 -2.38419e-06 0.341627 
-8.66534 1.5201 -2.62373 -0.122982 -8.91089e-06 0.324545 
-5.28993 1.61878 -1.34466 -0.122982 -8.91089e-06 0.324545 
-8.57879 1.61878 -2.59093 -0.122982 -8.91089e-06 0.324545 
-5.20337 2.60252 -1.31186 -0.0939706 0 0.247989 
-5.20337 5.46747 -1.31186 -0.0939706 0 0.247989 
-5.28993 5.36878 -1.34466 -0.0939706 0 0.247989 
-5.20337 2.60252 -1.31186 -0.0907336 0 0.239447 
-5.28993 5.36878 -1.34466 -0.0907336 0 0.239447 
-5.28993 2.60252 -1.34466 -0.0907336 0 0.239447 
-5.20337 5.46747 -1.31186 -0.129468 9.05991e-06 0.341662 
-8.66534 5.46747 -2.62373 -0.129468 9.05991e-06 0.341662 
-8.57879 5.36878 -2.59093 -0.129468 9.05991e-06 0.341662 
-5.20337 5.46747 -1.31186 -0.122994 1.98185e-06 0.324578 
-8.57879 5.36878 -2.59093 -0.122994 1.98185e-06 0.324578 
-5.28993 5.36878 -1.34466 -0.122994 1.98185e-06 0.324578 
-16.21 3.54157 -2.62373 0 0 0.24691 
-16.3351 3.49378 -2.62373 0 0 0.24691 
-16.3351 1.5201 -2.62373 0 0 0.24691 
-16.21 3.54157 -2.62373 0 0 0.227977 
-16.3351 1.5201 -2.62373 0 0 0.227977 
-16.21 1.71923 -2.62373 0 0 0.227977 
-8.66534 1.5201 -2.62373 0 -0 0.13541 
-8.66534 2.60252 -2.62373 0 -0 0.13541 
-8.79044 3.54157 -2.62373 0 -0 0.13541 
-8.66534 1.5201 -2.62373 0 0 0.227973 
-8.79044 3.54157 -2.62373 0 0 0.227973 
-8.79044 1.71923 -2.62373 0 0 0.227973 
-8.57879 2.60252 -2.59093 -0.0355033 0 0.0936842 
-8.66534 2.60252 -2.62373 -0.0355033 0 0.0936842 
-8.66534 1.5201 -2.62373 -0.0355033 0 0.0936842 
-8.57879 2.60252 -2.59093 -0.0322666 0 0.0851434 
-8.66534 1.5201 -2.62373 -0.0322666 0 0.0851434 
-8.57879 1.61878 -2.59093 -0.0322666 0 0.0851434 
-5.28993 2.60252 -1.34466 -1.22601 0 3.23538 
-8.57879 2.60252 -2.59093 -1.22601 0 3.23538 
-8.57879 1.61878 -2.59093 -1.22601 0 3.23538 
-5.28993 2.60252 -1.34466 -1.22601 0 3.23538 
-8.57879 1.61878 -2.59093 -1.22601 0 3.23538 
-5.28993 1.61878 -1.34466 -1.22601 0 3.23538 
-5.20337 1.5201 -1.31186 -0.0355035 0 0.093694 
-5.20337 2.60252 -1.31186 -0.0355035 0 0.093694 
-5.28993 2.60252 -1.34466 -0.0355035 0 0.093694 
-5.20337 1.5201 -1.31186 -0.0322668 0 0.0851523 
-5.28993 2.60252 -1.34466 -0.0322668 0 0.0851523 
-5.28993 1.61878 -1.34466 -0.0322668 0 0.0851523 
-5.11683 2.60252 -1.27907 -0.0354925 0 0.0936729 
-5.20337 2.60252 -1.31186 -0.0354925 0 0.0936729 
-5.20337 1.5201 -1.31186 -0.0354925 0 0.0936729 
-5.11683 2.60252 -1.27907 -0.0322568 0 0.0851331 
-5.20337 1.5201 -1.31186 -0.0322568 0 0.0851331 
-5.11683 1.61878 -1.27907 -0.0322568 0 0.0851331 
-1.82797 2.60252 -0.032799 -1.22601 0 3.23538 
-5.11683 2.60252 -1.27907 -1.22601 0 3.23538 
-5.11683 1.61878 -1.27907 -1.22601 0 3.23538 
-1.82797 2.60252 -0.032799 -1.22601 0 3.23538 
-5.11683 1.61878 -1.27907 -1.22601 0 3.23538 
-1.82797 1.61878 -0.032799 -1.22601 0 3.23538 
-1.74142 1.5201 0 -0.0355023 0 0.0936834 
-1.74142 2.60252 0 -0.0355023 0 0.0936834 
-1.82797 2.60252 -0.032799 -0.0355023 0 0.0936834 
-1.74142 1.5201 0 -0.0322657 0 0.0851427 
-1.82797 2.60252 -0.032799 -0.0322657 0 0.0851427 
-1.82797 1.61878 -0.032799 -0.0322657 0 0.0851427 
-19.8836 5.36878 -1.27907 3.44751 0 9.09767 
-23.1724 5.36878 -0.032799 3.44751 0 9.09767 
-23.1724 2.60252 -0.032799 3.44751 0 9.09767 
-19.8836 5.36878 -1.27907 3.44751 0 9.09767 
-23.1724 2.60252 -0.032799 3.44751 0 9.09767 
-19.8836 2.60252 -1.27907 3.44751 0 9.09767 
-23.259 1.5201 0 1.99416 0 5.26259 
-23.259 0 0 1.99416 0 5.26259 
-19.797 0 -1.31186 1.99416 0 5.26259 
-23.259 1.5201 0 1.99416 0 5.26259 
-19.797 0 -1.31186 1.99416 0 5.26259 
-19.797 1.5201 -1.31186 1.99416 0 5.26259 
-16.4216 5.36878 -2.59093 3.44751 0 9.09795 
-19.7105 5.36878 -1.34466 3.44751 0 9.09795 
-19.7105 2.60252 -1.34466 3.44751 0 9.09795 
-16.4216 5.36878 -2.59093 3.44751 0 9.09795 
-19.7105 2.60252 -1.34466 3.44751 0 9.09795 
-16.4216 2.60252 -2.59093 3.44751 0 9.09795 
-19.797 0 -1.31186 1.99417 0 5.26244 
-16.3351 0 -2.62373 1.99417 0 5.26244 
-16.3351 1.5201 -2.62373 1.99417 0 5.26244 
-19.797 0 -1.31186 1.99417 -0 5.26244 
-16.3351 1.5201 -2.62373 1.99417 -0 5.26244 
-19.797 1.5201 -1.31186 1.99417 -0 5.26244 
-19.797 5.46747 -1.31186 0.0907055 0 0.239556 
-19.8836 5.36878 -1.27907 0.0907055 0 0.239556 
-19.8836 2.60252 -1.27907 0.0907055 0 0.239556 
-19.797 5.46747 -1.31186 0.0939416 0 0.248103 
-19.8836 2.60252 -1.27907 0.0939416 0 0.248103 
-19.797 2.60252 -1.31186 0.0939416 0 0.248103 
-19.797 1.5201 -1.31186 0.122982 8.67099e-05 0.324539 
-19.8836 1.61878 -1.27907 0.122982 8.67099e-05 0.324539 
-23.1724 1.61878 -0.032799 0.122982 8.67099e-05 0.324539 
-19.797 1.5201 -1.31186 0.129454 -5.81741e-05 0.34163 
-23.1724 1.61878 -0.032799 0.129454 -5.81741e-05 0.34163 
-23.259 1.5201 0 0.129454 -5.81741e-05 0.34163 
-23.259 2.60252 0 0.0907306 0 0.239562 
-23.1724 2.60252 -0.032799 0.0907306 0 0.239562 
-23.1724 5.36878 -0.032799 0.0907306 0 0.239562 
-23.259 2.60252 0 0.0939675 -0 0.248108 
-23.1724 5.36878 -0.032799 0.0939675 -0 0.248108 
-23.259 5.46747 0 0.0939675 -0 0.248108 
-23.259 5.46747 0 0.122995 5.92992e-05 0.324572 
-23.1724 5.36878 -0.032799 0.122995 5.92992e-05 0.324572 
-19.8836 5.36878 -1.27907 0.122995 5.92992e-05 0.324572 
-23.259 5.46747 0 0.129468 -8.72612e-05 0.341665 
-19.8836 5.36878 -1.27907 0.129468 -8.72612e-05 0.341665 
-19.797 5.46747 -1.31186 0.129468 -8.72612e-05 0.341665 
-16.3351 5.46747 -2.62373 0.0907332 0 0.239282 
-16.4216 5.36878 -2.59093 0.0907332 0 0.239282 
-16.4216 2.60252 -2.59093 0.0907332 0 0.239282 
-16.3351 5.46747 -2.62373 0.0939702 0 0.247819 
-16.4216 2.60252 -2.59093 0.0939702 0 0.247819 
-16.3351 2.60252 -2.62373 0.0939702 0 0.247819 
-16.3351 1.5201 -2.62373 0.122982 -7.32392e-05 0.324549 
-16.4216 1.61878 -2.59093 0.122982 -7.32392e-05 0.324549 
-19.7105 1.61878 -1.34466 0.122982 -7.32392e-05 0.324549 
-16.3351 1.5201 -2.62373 0.129455 7.39098e-05 0.34162 
-19.7105 1.61878 -1.34466 0.129455 7.39098e-05 0.34162 
-19.797 1.5201 -1.31186 0.129455 7.39098e-05 0.34162 
-19.797 2.60252 -1.31186 0.0907336 0 0.239282 
-19.7105 2.60252 -1.34466 0.0907336 0 0.239282 
-19.7105 5.36878 -1.34466 0.0907336 0 0.239282 
-19.797 2.60252 -1.31186 0.0939706 -0 0.247819 
-19.7105 5.36878 -1.34466 0.0939706 -0 0.247819 
-19.797 5.46747 -1.31186 0.0939706 -0 0.247819 
-19.797 5.46747 -1.31186 0.122994 -7.36266e-05 0.324582 
-19.7105 5.36878 -1.34466 0.122994 -7.36266e-05 0.324582 
-16.4216 5.36878 -2.59093 0.122994 -7.36266e-05 0.324582 
-19.797 5.46747 -1.31186 0.129468 7.34329e-05 0.341655 
-16.4216 5.36878 -2.59093 0.129468 7.34329e-05 0.341655 
-16.3351 5.46747 -2.62373 0.129468 7.34329e-05 0.341655 
-16.4216 2.60252 -2.59093 0.0322666 0 0.0850937 
-16.4216 1.61878 -2.59093 0.0322666 0 0.0850937 
-16.3351 1.5201 -2.62373 0.0322666 0 0.0850937 
-16.4216 2.60252 -2.59093 0.0355033 0 0.0936295 
-16.3351 1.5201 -2.62373 0.0355033 0 0.0936295 
-16.3351 2.60252 -2.62373 0.0355033 0 0.0936295 
-19.7105 2.60252 -1.34466 1.22601 0 3.23542 
-19.7105 1.61878 -1.34466 1.22601 0 3.23542 
-16.4216 1.61878 -2.59093 1.22601 0 3.23542 
-19.7105 2.60252 -1.34466 1.22601 0 3.23542 
-16.4216 1.61878 -2.59093 1.22601 0 3.23542 
-16.4216 2.60252 -2.59093 1.22601 0 3.23542 
-19.797 1.5201 -1.31186 0.0322668 0 0.0850937 
-19.7105 1.61878 -1.34466 0.0322668 0 0.0850937 
-19.7105 2.60252 -1.34466 0.0322668 0 0.0850937 
-19.797 1.5201 -1.31186 0.0355035 -0 0.0936295 
-19.7105 2.60252 -1.34466 0.0355035 -0 0.0936295 
-19.797 2.60252 -1.31186 0.0355035 -0 0.0936295 
-19.8836 2.60252 -1.27907 0.0322568 0 0.0851912 
-19.8836 1.61878 -1.27907 0.0322568 0 0.0851912 
-19.797 1.5201 -1.31186 0.0322568 0 0.0851912 
-19.8836 2.60252 -1.27907 0.0354925 0 0.0937369 
-19.797 1.5201 -1.31186 0.0354925 0 0.0937369 
-19.797 2.60252 -1.31186 0.0354925 0 0.0937369 
-23.1724 2.60252 -0.032799 1.22601 0 3.23532 
-23.1724 1.61878 -0.032799 1.22601 0 3.23532 
-19.8836 1.61878 -1.27907 1.22601 0 3.23532 
-23.1724 2.60252 -0.032799 1.22601 0 3.23532 
-19.8836 1.61878 -1.27907 1.22601 0 3.23532 
-19.8836 2.60252 -1.27907 1.22601 0 3.23532 
-23.259 1.5201 0 0.0322657 0 0.0851931 
-23.1724 1.61878 -0.032799 0.0322657 0 0.0851931 
-23.1724 2.60252 -0.032799 0.0322657 0 0.0851931 
-23.259 1.5201 0 0.0355023 -0 0.0937389 
-23.1724 2.60252 -0.032799 0.0355023 -0 0.0937389 
-23.259 2.60252 0 0.0355023 -0 0.0937389 
-11.0688 6.43715 -2.62373 0 0 2.03679 
-11.0688 5.56064 -2.62373 0 0 2.03679 
-8.74505 5.56064 -2.62373 0 0 2.03679 
-11.0688 6.43715 -2.62373 -0 0 2.03679 
-8.74505 5.56064 -2.62373 -0 0 2.03679 
-8.74505 6.43715 -2.62373 -0 0 2.03679 
-18.5019 6.43715 -1.80262 0.695835 0 1.83629 
-18.5019 5.56064 -1.80262 0.695835 0 1.83629 
-16.4069 5.56064 -2.59649 0.695835 0 1.83629 
-18.5019 6.43715 -1.80262 0.695835 0 1.83629 
-16.4069 5.56064 -2.59649 0.695835 0 1.83629 
-16.4069 6.43715 -2.59649 0.695835 0 1.83629 
-3.90828 6.43715 -0.821106 -0.695834 0 1.83628 
-3.90828 5.56064 -0.821106 -0.695834 0 1.83628 
-1.81329 5.56064 -0.027237 -0.695834 0 1.83628 
-3.90828 6.43715 -0.821106 -0.695834 0 1.83628 
-1.81329 5.56064 -0.027237 -0.695834 0 1.83628 
-1.81329 6.43715 -0.027237 -0.695834 0 1.83628 
-6.21848 6.43715 -1.69652 -0.674313 0 1.7795 
-6.21848 5.56064 -1.69652 -0.674313 0 1.7795 
-4.18827 5.56064 -0.927204 -0.674313 0 1.7795 
-6.21848 6.43715 -1.69652 -0.674313 0 1.7795 
-4.18827 5.56064 -0.927204 -0.674313 0 1.7795 
-4.18827 6.43715 -0.927204 -0.674313 0 1.7795 
-8.59346 5.56064 -2.59649 -0.695835 0 1.83628 
-6.49847 5.56064 -1.80262 -0.695835 0 1.83628 
-6.49847 6.43715 -1.80262 -0.695835 0 1.83628 
-8.59346 5.56064 -2.59649 -0.695835 0 1.83628 
-6.49847 6.43715 -1.80262 -0.695835 0 1.83628 
-8.59346 6.43715 -2.59649 -0.695835 0 1.83628 
-13.6277 6.43715 -2.62373 0 0 1.97653 
-13.6277 5.56064 -2.62373 0 0 1.97653 
-11.3727 5.56064 -2.62373 0 0 1.97653 
-13.6277 6.43715 -2.62373 -0 0 1.97653 
-11.3727 5.56064 -2.62373 -0 0 1.97653 
-11.3727 6.43715 -2.62373 -0 0 1.97653 
-16.2553 5.56064 -2.62373 0 0 2.03666 
-13.9317 5.56064 -2.62373 0 0 2.03666 
-13.9317 6.43715 -2.62373 0 0 2.03666 
-16.2553 5.56064 -2.62373 0 0 2.03666 
-13.9317 6.43715 -2.62373 0 0 2.03666 
-16.2553 6.43715 -2.62373 0 0 2.03666 
-23.1871 5.56064 -0.027237 0.695834 0 1.83629 
-21.0921 5.56064 -0.821106 0.695834 0 1.83629 
-21.0921 6.43715 -0.821106 0.695834 0 1.83629 
-23.1871 5.56064 -0.027237 0.695834 -0 1.83629 
-21.0921 6.43715 -0.821106 0.695834 -0 1.83629 
-23.1871 6.43715 -0.027237 0.695834 -0 1.83629 
-20.8121 6.43715 -0.927204 0.674313 0 1.77949 
-20.8121 5.56064 -0.927204 0.674313 0 1.77949 
-18.7819 5.56064 -1.69652 0.674313 0 1.77949 
-20.8121 6.43715 -0.927204 0.674313 0 1.77949 
-18.7819 5.56064 -1.69652 0.674313 0 1.77949 
-18.7819 6.43715 -1.69652 0.674313 0 1.77949 
-3.98016 6.53032 -0.848343 -0.0557645 0 0.147162 
-4.11862 6.53032 -0.90081 -0.0557645 0 0.147162 
-4.11862 5.46747 -0.90081 -0.0557645 0 0.147162 
-3.98016 6.53032 -0.848343 -0.0557645 0 0.147162 
-4.11862 5.46747 -0.90081 -0.0557645 0 0.147162 
-3.98016 5.46747 -0.848343 -0.0557645 0 0.147162 
-6.28813 6.53032 -1.72292 -0.0557678 0 0.147173 
-6.4266 6.53032 -1.77539 -0.0557678 0 0.147173 
-6.4266 5.46747 -1.77539 -0.0557678 0 0.147173 
-6.28813 6.53032 -1.72292 -0.0557678 0 0.147173 
-6.4266 5.46747 -1.77539 -0.0557678 0 0.147173 
-6.28813 5.46747 -1.72292 -0.0557678 0 0.147173 
-11.1485 6.53032 -2.62373 0 0 0.156132 
-11.2954 6.53032 -2.62373 0 0 0.156132 
-11.2954 5.46747 -2.62373 0 0 0.156132 
-11.1485 6.53032 -2.62373 0 0 0.156132 
-11.2954 5.46747 -2.62373 0 0 0.156132 
-11.1485 5.46747 -2.62373 0 0 0.156132 
-13.705 6.53032 -2.62373 0 0 0.156133 
-13.8519 6.53032 -2.62373 0 0 0.156133 
-13.8519 5.46747 -2.62373 0 0 0.156133 
-13.705 6.53032 -2.62373 0 0 0.156133 
-13.8519 5.46747 -2.62373 0 0 0.156133 
-13.705 5.46747 -2.62373 0 0 0.156133 
-20.8818 6.53032 -0.90081 0.0557645 0 0.1471 
-21.0202 6.53032 -0.848343 0.0557645 0 0.1471 
-21.0202 5.46747 -0.848343 0.0557645 0 0.1471 
-20.8818 6.53032 -0.90081 0.0557645 0 0.1471 
-21.0202 5.46747 -0.848343 0.0557645 0 0.1471 
-20.8818 5.46747 -0.90081 0.0557645 0 0.1471 
-18.5738 6.53032 -1.77539 0.0557678 0 0.147205 
-18.7123 6.53032 -1.72292 0.0557678 0 0.147205 
-18.7123 5.46747 -1.72292 0.0557678 0 0.147205 
-18.5738 6.53032 -1.77539 0.0557678 0 0.147205 
-18.7123 5.46747 -1.72292 0.0557678 0 0.147205 
-18.5738 5.46747 -1.77539 0.0557678 0 0.147205 
-11.1485 6.53032 -2.62373 0 0 0.0847096 
-11.1485 5.46747 -2.62373 0 0 0.0847096 
-11.0688 5.56064 -2.62373 0 0 0.0847096 
-11.1485 6.53032 -2.62373 0 0 0.0698583 
-11.0688 5.56064 -2.62373 0 0 0.0698583 
-11.0688 6.43715 -2.62373 0 0 0.0698583 
-11.1485 5.46747 -2.62373 0 0 0.231355 
-8.66534 5.46747 -2.62373 0 0 0.231355 
-8.74505 5.56064 -2.62373 0 0 0.231355 
-11.1485 5.46747 -2.62373 0 0 0.216503 
-8.74505 5.56064 -2.62373 0 0 0.216503 
-11.0688 5.56064 -2.62373 0 0 0.216503 
-8.66534 5.46747 -2.62373 0 -0 0.0847198 
-8.66534 6.53032 -2.62373 0 -0 0.0847198 
-8.74505 6.43715 -2.62373 0 -0 0.0847198 
-8.66534 5.46747 -2.62373 0 0 0.0698666 
-8.74505 6.43715 -2.62373 0 0 0.0698666 
-8.74505 5.56064 -2.62373 0 0 0.0698666 
-8.66534 6.53032 -2.62373 0 0 0.231356 
-11.1485 6.53032 -2.62373 0 0 0.231356 
-11.0688 6.43715 -2.62373 0 0 0.231356 
-8.66534 6.53032 -2.62373 0 0 0.216504 
-11.0688 6.43715 -2.62373 0 0 0.216504 
-8.74505 6.43715 -2.62373 0 0 0.216504 
-18.5738 6.53032 -1.77539 0.0289414 0 0.0764183 
-18.5738 5.46747 -1.77539 0.0289414 0 0.0764183 
-18.5019 5.56064 -1.80262 0.0289414 0 0.0764183 
-18.5738 6.53032 -1.77539 0.0238674 0 0.0630206 
-18.5019 5.56064 -1.80262 0.0238674 0 0.0630206 
-18.5019 6.43715 -1.80262 0.0238674 0 0.0630206 
-18.5738 5.46747 -1.77539 0.0790396 -7.12872e-05 0.208579 
-16.3351 5.46747 -2.62373 0.0790396 -7.12872e-05 0.208579 
-16.4069 5.56064 -2.59649 0.0790396 -7.12872e-05 0.208579 
-18.5738 5.46747 -1.77539 0.0739646 -3.18959e-05 0.19519 
-16.4069 5.56064 -2.59649 0.0739646 -3.18959e-05 0.19519 
-18.5019 5.56064 -1.80262 0.0739646 -3.18959e-05 0.19519 
-16.3351 5.46747 -2.62373 0.0289521 -0 0.0763129 
-16.3351 6.53032 -2.62373 0.0289521 -0 0.0763129 
-16.4069 6.43715 -2.59649 0.0289521 -0 0.0763129 
-16.3351 5.46747 -2.62373 0.0238762 0 0.0629336 
-16.4069 6.43715 -2.59649 0.0238762 0 0.0629336 
-16.4069 5.56064 -2.59649 0.0238762 0 0.0629336 
-16.3351 6.53032 -2.62373 0.07904 3.52859e-05 0.20858 
-18.5738 6.53032 -1.77539 0.07904 3.52859e-05 0.20858 
-18.5019 6.43715 -1.80262 0.07904 3.52859e-05 0.20858 
-16.3351 6.53032 -2.62373 0.073965 6.78189e-05 0.195191 
-18.5019 6.43715 -1.80262 0.073965 6.78189e-05 0.195191 
-16.4069 6.43715 -2.59649 0.073965 6.78189e-05 0.195191 
-3.98016 6.53032 -0.848343 -0.0289488 0 0.0763978 
-3.98016 5.46747 -0.848343 -0.0289488 0 0.0763978 
-3.90828 5.56064 -0.821106 -0.0289488 0 0.0763978 
-3.98016 6.53032 -0.848343 -0.0238735 0 0.0630036 
-3.90828 5.56064 -0.821106 -0.0238735 0 0.0630036 
-3.90828 6.43715 -0.821106 -0.0238735 0 0.0630036 
-3.98016 5.46747 -0.848343 -0.0790399 6.19888e-06 0.208583 
-1.74142 5.46747 0 -0.0790399 6.19888e-06 0.208583 
-1.81329 5.56064 -0.027237 -0.0790399 6.19888e-06 0.208583 
-3.98016 5.46747 -0.848343 -0.0739645 2.14949e-06 0.19519 
-1.81329 5.56064 -0.027237 -0.0739645 2.14949e-06 0.19519 
-3.90828 5.56064 -0.821106 -0.0739645 2.14949e-06 0.19519 
-1.74142 5.46747 0 -0.0289488 0 0.076387 
-1.74142 6.53032 0 -0.0289488 0 0.076387 
-1.81329 6.43715 -0.027237 -0.0289488 0 0.076387 
-1.74142 5.46747 0 -0.0238735 0 0.0629948 
-1.81329 6.43715 -0.027237 -0.0238735 0 0.0629948 
-1.81329 5.56064 -0.027237 -0.0238735 0 0.0629948 
-1.74142 6.53032 0 -0.0790403 -2.5034e-06 0.208584 
-3.98016 6.53032 -0.848343 -0.0790403 -2.5034e-06 0.208584 
-3.90828 6.43715 -0.821106 -0.0790403 -2.5034e-06 0.208584 
-1.74142 6.53032 0 -0.0739649 -5.89713e-06 0.195191 
-3.90828 6.43715 -0.821106 -0.0739649 -5.89713e-06 0.195191 
-1.81329 6.43715 -0.027237 -0.0739649 -5.89713e-06 0.195191 
-6.28813 6.53032 -1.72292 -0.0280592 0 0.0740272 
-6.28813 5.46747 -1.72292 -0.0280592 0 0.0740272 
-6.21848 5.56064 -1.69652 -0.0280592 0 0.0740272 
-6.28813 6.53032 -1.72292 -0.0231398 0 0.0610487 
-6.21848 5.56064 -1.69652 -0.0231398 0 0.0610487 
-6.21848 6.43715 -1.69652 -0.0231398 0 0.0610487 
-6.28813 5.46747 -1.72292 -0.0765957 1.90735e-06 0.202133 
-4.11862 5.46747 -0.90081 -0.0765957 1.90735e-06 0.202133 
-4.18827 5.56064 -0.927204 -0.0765957 1.90735e-06 0.202133 
-6.28813 5.46747 -1.72292 -0.0716769 -1.48639e-05 0.189154 
-4.18827 5.56064 -0.927204 -0.0716769 -1.48639e-05 0.189154 
-6.21848 5.56064 -1.69652 -0.0716769 -1.48639e-05 0.189154 
-4.11862 5.46747 -0.90081 -0.0280529 0 0.0740277 
-4.11862 6.53032 -0.90081 -0.0280529 0 0.0740277 
-4.18827 6.43715 -0.927204 -0.0280529 0 0.0740277 
-4.11862 5.46747 -0.90081 -0.0231346 0 0.0610491 
-4.18827 6.43715 -0.927204 -0.0231346 0 0.0610491 
-4.18827 5.56064 -0.927204 -0.0231346 0 0.0610491 
-4.11862 6.53032 -0.90081 -0.0765961 1.5378e-05 0.202134 
-6.28813 6.53032 -1.72292 -0.0765961 1.5378e-05 0.202134 
-6.21848 6.43715 -1.69652 -0.0765961 1.5378e-05 0.202134 
-4.11862 6.53032 -0.90081 -0.0716773 -2.39164e-06 0.189155 
-6.21848 6.43715 -1.69652 -0.0716773 -2.39164e-06 0.189155 
-4.18827 6.43715 -0.927204 -0.0716773 -2.39164e-06 0.189155 
-8.66534 5.46747 -2.62373 -0.0790396 -9.17912e-06 0.208583 
-6.4266 5.46747 -1.77539 -0.0790396 -9.17912e-06 0.208583 
-6.49847 5.56064 -1.80262 -0.0790396 -9.17912e-06 0.208583 
-8.66534 5.46747 -2.62373 -0.0739646 -3.97861e-06 0.19519 
-6.49847 5.56064 -1.80262 -0.0739646 -3.97861e-06 0.19519 
-8.59346 5.56064 -2.59649 -0.0739646 -3.97861e-06 0.19519 
-6.4266 5.46747 -1.77539 -0.0289414 0 0.0763869 
-6.4266 6.53032 -1.77539 -0.0289414 0 0.0763869 
-6.49847 6.43715 -1.80262 -0.0289414 0 0.0763869 
-6.4266 5.46747 -1.77539 -0.0238674 0 0.0629947 
-6.49847 6.43715 -1.80262 -0.0238674 0 0.0629947 
-6.49847 5.56064 -1.80262 -0.0238674 0 0.0629947 
-6.4266 6.53032 -1.77539 -0.07904 4.41074e-06 0.208584 
-8.66534 6.53032 -2.62373 -0.07904 4.41074e-06 0.208584 
-8.59346 6.43715 -2.59649 -0.07904 4.41074e-06 0.208584 
-6.4266 6.53032 -1.77539 -0.073965 8.66875e-06 0.195191 
-8.59346 6.43715 -2.59649 -0.073965 8.66875e-06 0.195191 
-6.49847 6.43715 -1.80262 -0.073965 8.66875e-06 0.195191 
-8.66534 6.53032 -2.62373 -0.0289521 0 0.076398 
-8.66534 5.46747 -2.62373 -0.0289521 0 0.076398 
-8.59346 5.56064 -2.59649 -0.0289521 0 0.076398 
-8.66534 6.53032 -2.62373 -0.0238762 0 0.0630038 
-8.59346 5.56064 -2.59649 -0.0238762 0 0.0630038 
-8.59346 6.43715 -2.59649 -0.0238762 0 0.0630038 
-13.705 6.53032 -2.62373 0 0 0.0821584 
-13.705 5.46747 -2.62373 0 0 0.0821584 
-13.6277 5.56064 -2.62373 0 0 0.0821584 
-13.705 6.53032 -2.62373 0 0 0.0677543 
-13.6277 5.56064 -2.62373 0 0 0.0677543 
-13.6277 6.43715 -2.62373 0 0 0.0677543 
-13.705 5.46747 -2.62373 0 0 0.224502 
-11.2954 5.46747 -2.62373 0 0 0.224502 
-11.3727 5.56064 -2.62373 0 0 0.224502 
-13.705 5.46747 -2.62373 0 0 0.210098 
-11.3727 5.56064 -2.62373 0 0 0.210098 
-13.6277 5.56064 -2.62373 0 0 0.210098 
-11.2954 5.46747 -2.62373 0 -0 0.0821584 
-11.2954 6.53032 -2.62373 0 -0 0.0821584 
-11.3727 6.43715 -2.62373 0 -0 0.0821584 
-11.2954 5.46747 -2.62373 0 0 0.0677543 
-11.3727 6.43715 -2.62373 0 0 0.0677543 
-11.3727 5.56064 -2.62373 0 0 0.0677543 
-11.2954 6.53032 -2.62373 0 0 0.224503 
-13.705 6.53032 -2.62373 0 0 0.224503 
-13.6277 6.43715 -2.62373 0 0 0.224503 
-11.2954 6.53032 -2.62373 0 0 0.210099 
-13.6277 6.43715 -2.62373 0 0 0.210099 
-11.3727 6.43715 -2.62373 0 0 0.210099 
-16.3351 5.46747 -2.62373 0 0 0.231359 
-13.8519 5.46747 -2.62373 0 0 0.231359 
-13.9317 5.56064 -2.62373 0 0 0.231359 
-16.3351 5.46747 -2.62373 0 0 0.216489 
-13.9317 5.56064 -2.62373 0 0 0.216489 
-16.2553 5.56064 -2.62373 0 0 0.216489 
-13.8519 5.46747 -2.62373 0 -0 0.0848151 
-13.8519 6.53032 -2.62373 0 -0 0.0848151 
-13.9317 6.43715 -2.62373 0 -0 0.0848151 
-13.8519 5.46747 -2.62373 0 0 0.0699452 
-13.9317 6.43715 -2.62373 0 0 0.0699452 
-13.9317 5.56064 -2.62373 0 0 0.0699452 
-13.8519 6.53032 -2.62373 0 0 0.23136 
-16.3351 6.53032 -2.62373 0 0 0.23136 
-16.2553 6.43715 -2.62373 0 0 0.23136 
-13.8519 6.53032 -2.62373 0 0 0.21649 
-16.2553 6.43715 -2.62373 0 0 0.21649 
-13.9317 6.43715 -2.62373 0 0 0.21649 
-16.3351 6.53032 -2.62373 0 0 0.0848151 
-16.3351 5.46747 -2.62373 0 0 0.0848151 
-16.2553 5.56064 -2.62373 0 0 0.0848151 
-16.3351 6.53032 -2.62373 0 0 0.0699452 
-16.2553 5.56064 -2.62373 0 0 0.0699452 
-16.2553 6.43715 -2.62373 0 0 0.0699452 
-23.259 5.46747 0 0.0790399 1.71661e-05 0.208588 
-21.0202 5.46747 -0.848343 0.0790399 1.71661e-05 0.208588 
-21.0921 5.56064 -0.821106 0.0790399 1.71661e-05 0.208588 
-23.259 5.46747 0 0.0739645 -1.87382e-05 0.19519 
-21.0921 5.56064 -0.821106 0.0739645 -1.87382e-05 0.19519 
-23.1871 5.56064 -0.027237 0.0739645 -1.87382e-05 0.19519 
-21.0202 5.46747 -0.848343 0.0289488 -0 0.0764183 
-21.0202 6.53032 -0.848343 0.0289488 -0 0.0764183 
-21.0921 6.43715 -0.821106 0.0289488 -0 0.0764183 
-21.0202 5.46747 -0.848343 0.0238735 0 0.0630206 
-21.0921 6.43715 -0.821106 0.0238735 0 0.0630206 
-21.0921 5.56064 -0.821106 0.0238735 0 0.0630206 
-21.0202 6.53032 -0.848343 0.0790403 1.88351e-05 0.208589 
-23.259 6.53032 0 0.0790403 1.88351e-05 0.208589 
-23.1871 6.43715 -0.027237 0.0790403 1.88351e-05 0.208589 
-21.0202 6.53032 -0.848343 0.0739649 -1.72257e-05 0.195191 
-23.1871 6.43715 -0.027237 0.0739649 -1.72257e-05 0.195191 
-21.0921 6.43715 -0.821106 0.0739649 -1.72257e-05 0.195191 
-23.259 6.53032 0 0.0289488 0 0.0764203 
-23.259 5.46747 0 0.0289488 0 0.0764203 
-23.1871 5.56064 -0.027237 0.0289488 0 0.0764203 
-23.259 6.53032 0 0.0238735 0 0.0630222 
-23.1871 5.56064 -0.027237 0.0238735 0 0.0630222 
-23.1871 6.43715 -0.027237 0.0238735 0 0.0630222 
-20.8818 6.53032 -0.90081 0.0280529 0 0.0740809 
-20.8818 5.46747 -0.90081 0.0280529 0 0.0740809 
-20.8121 5.56064 -0.927204 0.0280529 0 0.0740809 
-20.8818 6.53032 -0.90081 0.0231346 0 0.061093 
-20.8121 5.56064 -0.927204 0.0231346 0 0.061093 
-20.8121 6.43715 -0.927204 0.0231346 0 0.061093 
-20.8818 5.46747 -0.90081 0.0765957 -5.49555e-05 0.202132 
-18.7123 5.46747 -1.72292 0.0765957 -5.49555e-05 0.202132 
-18.7819 5.56064 -1.69652 0.0765957 -5.49555e-05 0.202132 
-20.8818 5.46747 -0.90081 0.0716769 -3.64147e-05 0.189153 
-18.7819 5.56064 -1.69652 0.0716769 -3.64147e-05 0.189153 
-20.8121 5.56064 -0.927204 0.0716769 -3.64147e-05 0.189153 
-18.7123 5.46747 -1.72292 0.0280592 -0 0.0739755 
-18.7123 6.53032 -1.72292 0.0280592 -0 0.0739755 
-18.7819 6.43715 -1.69652 0.0280592 -0 0.0739755 
-18.7123 5.46747 -1.72292 0.0231398 0 0.061006 
-18.7819 6.43715 -1.69652 0.0231398 0 0.061006 
-18.7819 5.56064 -1.69652 0.0231398 0 0.061006 
-18.7123 6.53032 -1.72292 0.0765961 3.94583e-05 0.202133 
-20.8818 6.53032 -0.90081 0.0765961 3.94583e-05 0.202133 
-20.8121 6.43715 -0.927204 0.0765961 3.94583e-05 0.202133 
-18.7123 6.53032 -1.72292 0.0716773 5.19864e-05 0.189154 
-20.8121 6.43715 -0.927204 0.0716773 5.19864e-05 0.189154 
-18.7819 6.43715 -1.69652 0.0716773 5.19864e-05 0.189154 
-1.74142 5.46747 0 0 0 4.98908 
-1.74142 2.60252 0 0 0 4.98908 
0 2.60252 0 0 0 4.98908 
-1.74142 5.46747 0 -0 0 4.98908 
0 2.60252 0 -0 0 4.98908 
0 5.46747 0 -0 0 4.98908 
-1.74142 1.5201 0 0 0 2.64713 
-1.74142 0 0 0 0 2.64713 
0 0 0 0 0 2.64713 
-1.74142 1.5201 0 -0 0 2.64713 
0 0 0 -0 0 2.64713 
0 1.5201 0 -0 0 2.64713 
-1.74142 2.60252 0 0 0 1.88495 
-1.74142 1.5201 0 0 0 1.88495 
0 1.5201 0 0 0 1.88495 
-1.74142 2.60252 0 -0 0 1.88495 
0 1.5201 0 -0 0 1.88495 
0 2.60252 0 -0 0 1.88495 
-23.259 2.60252 0 0 -0 4.98902 
-23.259 5.46747 0 0 -0 4.98902 
-25.0004 5.46747 0 0 -0 4.98902 
-23.259 2.60252 0 0 0 4.98902 
-25.0004 5.46747 0 0 0 4.98902 
-25.0004 2.60252 0 0 0 4.98902 
-23.259 0 0 0 -0 2.6471 
-23.259 1.5201 0 0 -0 2.6471 
-25.0004 1.5201 0 0 -0 2.6471 
-23.259 0 0 0 0 2.6471 
-25.0004 1.5201 0 0 0 2.6471 
-25.0004 0 0 0 0 2.6471 
-23.259 1.5201 0 0 -0 1.88493 
-23.259 2.60252 0 0 -0 1.88493 
-25.0004 2.60252 0 0 -0 1.88493 
-23.259 1.5201 0 0 0 1.88493 
-25.0004 2.60252 0 0 0 1.88493 
-25.0004 1.5201 0 0 0 1.88493 
-23.259 5.46747 0 0 -0 1.85085 
-23.259 6.53032 0 0 -0 1.85085 
-25.0004 6.53032 0 0 -0 1.85085 
-23.259 5.46747 0 0 0 1.85085 
-25.0004 6.53032 0 0 0 1.85085 
-25.0004 5.46747 0 0 0 1.85085 
-1.74142 6.53032 0 0 0 1.85087 
-1.74142 5.46747 0 0 0 1.85087 
0 5.46747 0 0 0 1.85087 
-1.74142 6.53032 0 -0 0 1.85087 
0 5.46747 0 -0 0 1.85087 
0 6.53032 0 -0 0 1.85087 
-8.79044 3.54157 -2.62373 -0.38488 0 0 
-8.79044 5.36392 -2.62373 -0.38488 0 0 
-8.79044 5.36392 -2.83493 -0.38488 0 0 
-8.79044 3.54157 -2.62373 -0.38488 0 0 
-8.79044 5.36392 -2.83493 -0.38488 0 0 
-8.79044 3.54157 -2.83493 -0.38488 0 0 
-8.79044 5.36392 -2.62373 -0 -1.56701 0 
-16.21 5.36392 -2.62373 -0 -1.56701 0 
-16.21 5.36392 -2.83493 -0 -1.56701 0 
-8.79044 5.36392 -2.62373 0 -1.56701 -0 
-16.21 5.36392 -2.83493 0 -1.56701 -0 
-8.79044 5.36392 -2.83493 0 -1.56701 -0 
-16.21 5.36392 -2.62373 0.38488 0 0 
-16.21 3.54157 -2.62373 0.38488 0 0 
-16.21 3.54157 -2.83493 0.38488 0 0 
-16.21 5.36392 -2.62373 0.38488 0 0 
-16.21 3.54157 -2.83493 0.38488 0 0 
-16.21 5.36392 -2.83493 0.38488 0 0 
-16.21 1.71923 -2.62373 -0 1.56701 0 
-8.79044 1.71923 -2.62373 -0 1.56701 0 
-8.79044 1.71923 -2.83493 -0 1.56701 0 
-16.21 1.71923 -2.62373 0 1.56701 0 
-8.79044 1.71923 -2.83493 0 1.56701 0 
-16.21 1.71923 -2.83493 0 1.56701 0 
-8.79044 1.71923 -2.62373 -0.384878 0 0 
-8.79044 3.54157 -2.62373 -0.384878 0 0 
-8.79044 3.54157 -2.83493 -0.384878 0 0 
-8.79044 1.71923 -2.62373 -0.384878 0 0 
-8.79044 3.54157 -2.83493 -0.384878 0 0 
-8.79044 1.71923 -2.83493 -0.384878 0 0 
-16.21 3.54157 -2.62373 0.384878 0 0 
-16.21 1.71923 -2.62373 0.384878 0 0 
-16.21 1.71923 -2.83493 0.384878 0 0 
-16.21 3.54157 -2.62373 0.384878 0 0 
-16.21 1.71923 -2.83493 0.384878 0 0 
-16.21 3.54157 -2.83493 0.384878 0 0 
-16.21 3.54157 -2.83493 0 0 13.521 
-8.79044 3.54157 -2.83493 0 0 13.521 
-8.79044 5.36392 -2.83493 0 0 13.521 
-16.21 3.54157 -2.83493 0 0 13.521 
-8.79044 5.36392 -2.83493 0 0 13.521 
-16.21 5.36392 -2.83493 0 0 13.521 
-16.21 1.71923 -2.83493 0 0 13.521 
-8.79044 1.71923 -2.83493 0 0 13.521 
-8.79044 3.54157 -2.83493 0 0 13.521 
-16.21 1.71923 -2.83493 0 0 13.521 
-8.79044 3.54157 -2.83493 0 0 13.521 
-16.21 3.54157 -2.83493 0 0 13.521 
3 0 1 2
3 3 4 5
3 6 7 8
3 9 10 11
3 12 13 14
3 15 16 17
3 18 19 20
3 21 22 23
3 24 25 26
3 27 28 29
3 30 31 32
3 33 34 35
3 36 37 38
3 39 40 41
3 42 43 44
3 45 46 47
3 48 49 50
3 51 52 53
3 54 55 56
3 57 58 59
3 60 61 62
3 63 64 65
3 66 67 68
3 69 70 71
3 72 73 74
3 75 76 77
3 78 79 80
3 81 82 83
3 84 85 86
3 87 88 89
3 90 91 92
3 93 94 95
3 96 97 98
3 99 100 101
3 102 103 104
3 105 106 107
3 108 109 110
3 111 112 113
3 114 115 116
3 117 118 119
3 120 121 122
3 123 124 125
3 126 127 128
3 129 130 131
3 132 133 134
3 135 136 137
3 138 139 140
3 141 142 143
3 144 145 146
3 147 148 149
3 150 151 152
3 153 154 155
3 156 157 158
3 159 160 161
3 162 163 164
3 165 166 167
3 168 169 170
3 171 172 173
3 174 175 176
3 177 178 179
3 180 181 182
3 183 184 185
3 186 187 188
3 189 190 191
3 192 193 194
3 195 196 197
3 198 199 200
3 201 202 203
3 204 205 206
3 207 208 209
3 210 211 212
3 213 214 215
3 216 217 218
3 219 220 221
3 222 223 224
3 225 226 227
3 228 229 230
3 231 232 233
3 234 235 236
3 237 238 239
3 240 241 242
3 243 244 245
3 246 247 248
3 249 250 251
3 252 253 254
3 255 256 257
3 258 259 260
3 261 262 263
3 264 265 266
3 267 268 269
3 270 271 272
3 273 274 275
3 276 277 278
3 279 280 281
3 282 283 284
3 285 286 287
3 288 289 290
3 291 292 293
3 294 295 296
3 297 298 299
3 300 301 302
3 303 304 305
3 306 307 308
3 309 310 311
3 312 313 314
3 315 316 317
3 318 319 320
3 321 322 323
3 324 325 326
3 327 328 329
3 330 331 332
3 333 334 335
3 336 337 338
3 339 340 341
3 342 343 344
3 345 346 347
3 348 349 350
3 351 352 353
3 354 355 356
3 357 358 359
3 360 361 362
3 363 364 365
3 366 367 368
3 369 370 371
3 372 373 374
3 375 376 377
3 378 379 380
3 381 382 383
3 384 385 386
3 387 388 389
3 390 391 392
3 393 394 395
3 396 397 398
3 399 400 401
3 402 403 404
3 405 406 407
3 408 409 410
3 411 412 413
3 414 415 416
3 417 418 419
3 420 421 422
3 423 424 425
3 426 427 428
3 429 430 431
3 432 433 434
3 435 436 437
3 438 439 440
3 441 442 443
3 444 445 446
3 447 448 449
3 450 451 452
3 453 454 455
3 456 457 458
3 459 460 461
3 462 463 464
3 465 466 467
3 468 469 470
3 471 472 473
3 474 475 476
3 477 478 479
3 480 481 482
3 483 484 485
3 486 487 488
3 489 490 491
3 492 493 494
3 495 496 497
3 498 499 500
3 501 502 503
3 504 505 506
3 507 508 509
3 510 511 512
3 513 514 515
3 516 517 518
3 519 520 521
3 522 523 524
3 525 526 527
3 528 529 530
3 531 532 533
3 534 535 536
3 537 538 539
3 540 541 542
3 543 544 545
3 546 547 548
3 549 550 551
3 552 553 554
3 555 556 557
3 558 559 560
3 561 562 563
3 564 565 566
3 567 568 569
3 570 571 572
3 573 574 575
3 576 577 578
3 579 580 581
3 582 583 584
3 585 586 587
3 588 589 590
3 591 592 593
3 594 595 596
3 597 598 599
3 600 601 602
3 603 604 605
3 606 607 608
3 609 610 611
3 612 613 614
3 615 616 617
3 618 619 620
3 621 622 623
3 624 625 626
3 627 628 629
3 630 631 632
3 633 634 635
3 636 637 638
3 639 640 641
3 642 643 644
3 645 646 647
3 648 649 650
3 651 652 653
3 654 655 656
3 657 658 659
