ply
format ascii 1.0
comment Feeney's Flatenator generated
comment TextureFile SpaceInteriors_Texture.png
element vertex 6
property float x
property float y
property float z
property float nx
property float ny
property float nz
property float texture_u
property float texture_v
element face 2
property list uchar int vertex_indices
end_header
-1e-06 5 0 0 0 25 0.490784 0.997993 
-5 5 0 0 0 25 0.00602 0.997993 
-5 0 0 0 0 25 0.00602 0.505568 
-1e-06 5 0 0 0 25 0.490784 0.997993 
-5 0 0 0 0 25 0.00602 0.505568 
-1e-06 0 0 0 0 25 0.490784 0.505568 
3 0 1 2
3 3 4 5
