ply
format ascii 1.0
comment Feeney's Flatenator generated
comment TextureFile SpaceInteriors_Texture.png
element vertex 414
property float x
property float y
property float z
property float nx
property float ny
property float nz
element face 138
property list uchar int vertex_indices
end_header
-3.57573 3.40082 0 0 0 0.19029 
-3.42427 3.40082 0 0 0 0.19029 
-3.42427 4.65719 0 0 0 0.19029 
-3.57573 3.40082 0 0 0 0.19029 
-3.42427 4.65719 0 0 0 0.19029 
-3.57573 4.65719 0 0 0 0.19029 
-3.57573 4.65719 -0.151466 0 0 -0.19029 
-3.42427 4.65719 -0.151466 0 0 -0.19029 
-3.42427 3.40082 -0.151466 0 0 -0.19029 
-3.57573 4.65719 -0.151466 0 0 -0.19029 
-3.42427 3.40082 -0.151466 0 0 -0.19029 
-3.57573 3.40082 -0.151466 0 0 -0.19029 
-3.42427 3.40082 0 0.190297 0 0 
-3.42427 3.40082 -0.151466 0.190297 0 0 
-3.42427 4.65719 -0.151466 0.190297 0 0 
-3.42427 3.40082 0 0.190297 -0 0 
-3.42427 4.65719 -0.151466 0.190297 -0 0 
-3.42427 4.65719 0 0.190297 -0 0 
-3.57573 3.40082 -0.151466 -0.190297 0 0 
-3.57573 3.40082 0 -0.190297 0 0 
-3.57573 4.65719 0 -0.190297 0 0 
-3.57573 3.40082 -0.151466 -0.190297 0 0 
-3.57573 4.65719 0 -0.190297 0 0 
-3.57573 4.65719 -0.151466 -0.190297 0 0 
-1.57573 2.59758 0 0 0 0.311948 
-1.42427 2.59758 0 0 0 0.311948 
-1.42427 4.65719 0 0 0 0.311948 
-1.57573 2.59758 0 0 0 0.311948 
-1.42427 4.65719 0 0 0 0.311948 
-1.57573 4.65719 0 0 0 0.311948 
-1.57573 4.65719 -0.151466 0 0 -0.311948 
-1.42427 4.65719 -0.151466 0 0 -0.311948 
-1.42427 2.59758 -0.151466 0 0 -0.311948 
-1.57573 4.65719 -0.151466 0 0 -0.311948 
-1.42427 2.59758 -0.151466 0 0 -0.311948 
-1.57573 2.59758 -0.151466 0 0 -0.311948 
-1.42427 2.59758 0 0.311961 0 0 
-1.42427 2.59758 -0.151466 0.311961 0 0 
-1.42427 4.65719 -0.151466 0.311961 0 0 
-1.42427 2.59758 0 0.311961 -0 0 
-1.42427 4.65719 -0.151466 0.311961 -0 0 
-1.42427 4.65719 0 0.311961 -0 0 
-1.57573 2.59758 -0.151466 -0.311961 0 0 
-1.57573 2.59758 0 -0.311961 0 0 
-1.57573 4.65719 0 -0.311961 0 0 
-1.57573 2.59758 -0.151466 -0.311961 0 0 
-1.57573 4.65719 0 -0.311961 0 0 
-1.57573 4.65719 -0.151466 -0.311961 0 0 
-2.57573 1.71892 0 0 0 0.445031 
-2.42427 1.71892 0 0 0 0.445031 
-2.42427 4.65719 0 0 0 0.445031 
-2.57573 1.71892 0 0 0 0.445031 
-2.42427 4.65719 0 0 0 0.445031 
-2.57573 4.65719 0 0 0 0.445031 
-2.57573 4.65719 -0.151466 0 0 -0.445031 
-2.42427 4.65719 -0.151466 0 0 -0.445031 
-2.42427 1.71892 -0.151466 0 0 -0.445031 
-2.57573 4.65719 -0.151466 0 0 -0.445031 
-2.42427 1.71892 -0.151466 0 0 -0.445031 
-2.57573 1.71892 -0.151466 0 0 -0.445031 
-2.42427 1.71892 0 0.445048 0 0 
-2.42427 1.71892 -0.151466 0.445048 0 0 
-2.42427 4.65719 -0.151466 0.445048 0 0 
-2.42427 1.71892 0 0.445048 -0 0 
-2.42427 4.65719 -0.151466 0.445048 -0 0 
-2.42427 4.65719 0 0.445048 -0 0 
-2.57573 1.71892 -0.151466 -0.445048 0 0 
-2.57573 1.71892 0 -0.445048 0 0 
-2.57573 4.65719 0 -0.445048 0 0 
-2.57573 1.71892 -0.151466 -0.445048 0 0 
-2.57573 4.65719 0 -0.445048 0 0 
-2.57573 4.65719 -0.151466 -0.445048 0 0 
-2.62983 1.57472 -0.205563 -0.037443 0 0 
-2.62983 1.57472 0.054097 -0.037443 0 0 
-2.62983 1.71892 0.054097 -0.037443 0 0 
-2.62983 1.57472 -0.205563 -0.037443 0 0 
-2.62983 1.71892 0.054097 -0.037443 0 0 
-2.62983 1.71892 -0.205563 -0.037443 0 0 
-2.62983 1.57472 0.054097 0 0 0.0374429 
-2.37017 1.57472 0.054097 0 0 0.0374429 
-2.37017 1.71892 0.054097 0 0 0.0374429 
-2.62983 1.57472 0.054097 0 0 0.0374429 
-2.37017 1.71892 0.054097 0 0 0.0374429 
-2.62983 1.71892 0.054097 0 0 0.0374429 
-2.37017 1.57472 0.054097 0.037443 0 0 
-2.37017 1.57472 -0.205563 0.037443 0 0 
-2.37017 1.71892 -0.205563 0.037443 0 0 
-2.37017 1.57472 0.054097 0.037443 -0 0 
-2.37017 1.71892 -0.205563 0.037443 -0 0 
-2.37017 1.71892 0.054097 0.037443 -0 0 
-2.62983 1.71892 -0.205563 0 0 -0.0374429 
-2.37017 1.71892 -0.205563 0 0 -0.0374429 
-2.37017 1.57472 -0.205563 0 0 -0.0374429 
-2.62983 1.71892 -0.205563 0 0 -0.0374429 
-2.37017 1.57472 -0.205563 0 0 -0.0374429 
-2.62983 1.57472 -0.205563 0 0 -0.0374429 
-3.62983 3.25662 0.054097 0 0 0.037443 
-3.37017 3.25662 0.054097 0 0 0.037443 
-3.37017 3.40082 0.054097 0 0 0.037443 
-3.62983 3.25662 0.054097 0 0 0.037443 
-3.37017 3.40082 0.054097 0 0 0.037443 
-3.62983 3.40082 0.054097 0 0 0.037443 
-3.37017 3.25662 0.054097 0.037443 0 0 
-3.37017 3.25662 -0.205563 0.037443 0 0 
-3.37017 3.40082 -0.205563 0.037443 0 0 
-3.37017 3.25662 0.054097 0.037443 -0 0 
-3.37017 3.40082 -0.205563 0.037443 -0 0 
-3.37017 3.40082 0.054097 0.037443 -0 0 
-3.62983 3.40082 -0.205563 0 0 -0.037443 
-3.37017 3.40082 -0.205563 0 0 -0.037443 
-3.37017 3.25662 -0.205563 0 0 -0.037443 
-3.62983 3.40082 -0.205563 0 0 -0.037443 
-3.37017 3.25662 -0.205563 0 0 -0.037443 
-3.62983 3.25662 -0.205563 0 0 -0.037443 
-3.62983 3.25662 -0.205563 -0.037443 0 0 
-3.62983 3.25662 0.054097 -0.037443 0 0 
-3.62983 3.40082 0.054097 -0.037443 0 0 
-3.62983 3.25662 -0.205563 -0.037443 0 0 
-3.62983 3.40082 0.054097 -0.037443 0 0 
-3.62983 3.40082 -0.205563 -0.037443 0 0 
-1.62983 2.45339 -0.205563 -0.0374404 0 0 
-1.62983 2.45339 0.054097 -0.0374404 0 0 
-1.62983 2.59758 0.054097 -0.0374404 0 0 
-1.62983 2.45339 -0.205563 -0.0374404 0 0 
-1.62983 2.59758 0.054097 -0.0374404 0 0 
-1.62983 2.59758 -0.205563 -0.0374404 0 0 
-1.62983 2.45339 0.054097 0 0 0.0374404 
-1.37017 2.45339 0.054097 0 0 0.0374404 
-1.37017 2.59758 0.054097 0 0 0.0374404 
-1.62983 2.45339 0.054097 0 0 0.0374404 
-1.37017 2.59758 0.054097 0 0 0.0374404 
-1.62983 2.59758 0.054097 0 0 0.0374404 
-1.37017 2.45339 0.054097 0.0374404 0 0 
-1.37017 2.45339 -0.205563 0.0374404 0 0 
-1.37017 2.59758 -0.205563 0.0374404 0 0 
-1.37017 2.45339 0.054097 0.0374404 -0 0 
-1.37017 2.59758 -0.205563 0.0374404 -0 0 
-1.37017 2.59758 0.054097 0.0374404 -0 0 
-1.62983 2.59758 -0.205563 0 0 -0.0374404 
-1.37017 2.59758 -0.205563 0 0 -0.0374404 
-1.37017 2.45339 -0.205563 0 0 -0.0374404 
-1.62983 2.59758 -0.205563 0 0 -0.0374404 
-1.37017 2.45339 -0.205563 0 0 -0.0374404 
-1.62983 2.45339 -0.205563 0 0 -0.0374404 
-2.57573 0.342811 0 0 0 0.186585 
-2.42427 0.342811 0 0 0 0.186585 
-2.42427 1.57472 0 0 0 0.186585 
-2.57573 0.342811 0 0 0 0.186585 
-2.42427 1.57472 0 0 0 0.186585 
-2.57573 1.57472 0 0 0 0.186585 
-2.42427 0.342811 0 0.186592 0 0 
-2.42427 0.342811 -0.151466 0.186592 0 0 
-2.42427 1.57472 -0.151466 0.186592 0 0 
-2.42427 0.342811 0 0.186592 -0 0 
-2.42427 1.57472 -0.151466 0.186592 -0 0 
-2.42427 1.57472 0 0.186592 -0 0 
-2.57573 1.57472 -0.151466 0 0 -0.186585 
-2.42427 1.57472 -0.151466 0 0 -0.186585 
-2.42427 0.342811 -0.151466 0 0 -0.186585 
-2.57573 1.57472 -0.151466 0 0 -0.186585 
-2.42427 0.342811 -0.151466 0 0 -0.186585 
-2.57573 0.342811 -0.151466 0 0 -0.186585 
-2.57573 0.342811 -0.151466 -0.186592 0 0 
-2.57573 0.342811 0 -0.186592 0 0 
-2.57573 1.57472 0 -0.186592 0 0 
-2.57573 0.342811 -0.151466 -0.186592 0 0 
-2.57573 1.57472 0 -0.186592 0 0 
-2.57573 1.57472 -0.151466 -0.186592 0 0 
-3.57573 0.342811 0 0 0 0.441326 
-3.42427 0.342811 0 0 0 0.441326 
-3.42427 3.25662 0 0 0 0.441326 
-3.57573 0.342811 0 0 0 0.441326 
-3.42427 3.25662 0 0 0 0.441326 
-3.57573 3.25662 0 0 0 0.441326 
-3.42427 0.342811 0 0.441343 0 0 
-3.42427 0.342811 -0.151466 0.441343 0 0 
-3.42427 3.25662 -0.151466 0.441343 0 0 
-3.42427 0.342811 0 0.441343 -0 0 
-3.42427 3.25662 -0.151466 0.441343 -0 0 
-3.42427 3.25662 0 0.441343 -0 0 
-3.57573 3.25662 -0.151466 0 0 -0.441326 
-3.42427 3.25662 -0.151466 0 0 -0.441326 
-3.42427 0.342811 -0.151466 0 0 -0.441326 
-3.57573 3.25662 -0.151466 0 0 -0.441326 
-3.42427 0.342811 -0.151466 0 0 -0.441326 
-3.57573 0.342811 -0.151466 0 0 -0.441326 
-3.57573 0.342811 -0.151466 -0.441343 0 0 
-3.57573 0.342811 0 -0.441343 0 0 
-3.57573 3.25662 0 -0.441343 0 0 
-3.57573 0.342811 -0.151466 -0.441343 0 0 
-3.57573 3.25662 0 -0.441343 0 0 
-3.57573 3.25662 -0.151466 -0.441343 0 0 
-1.57573 0.342811 -0.151466 -0.319681 0 0 
-1.57573 0.342811 0 -0.319681 0 0 
-1.57573 2.45339 0 -0.319681 0 0 
-1.57573 0.342811 -0.151466 -0.319681 0 0 
-1.57573 2.45339 0 -0.319681 0 0 
-1.57573 2.45339 -0.151466 -0.319681 0 0 
-1.57573 0.342811 0 0 0 0.319668 
-1.42427 0.342811 0 0 0 0.319668 
-1.42427 2.45339 0 0 0 0.319668 
-1.57573 0.342811 0 0 0 0.319668 
-1.42427 2.45339 0 0 0 0.319668 
-1.57573 2.45339 0 0 0 0.319668 
-1.42427 0.342811 0 0.319681 0 0 
-1.42427 0.342811 -0.151466 0.319681 0 0 
-1.42427 2.45339 -0.151466 0.319681 0 0 
-1.42427 0.342811 0 0.319681 -0 0 
-1.42427 2.45339 -0.151466 0.319681 -0 0 
-1.42427 2.45339 0 0.319681 -0 0 
-1.57573 2.45339 -0.151466 0 0 -0.319668 
-1.42427 2.45339 -0.151466 0 0 -0.319668 
-1.42427 0.342811 -0.151466 0 0 -0.319668 
-1.57573 2.45339 -0.151466 0 0 -0.319668 
-1.42427 0.342811 -0.151466 0 0 -0.319668 
-1.57573 0.342811 -0.151466 0 0 -0.319668 
-2.57573 1.57472 -0.151466 0 -0.00819428 0 
-2.57573 1.57472 0 0 -0.00819428 0 
-2.62983 1.57472 0.054097 0 -0.00819428 0 
-2.57573 1.57472 -0.151466 -0 -0.0140476 0 
-2.62983 1.57472 0.054097 -0 -0.0140476 0 
-2.62983 1.57472 -0.205563 -0 -0.0140476 0 
-2.57573 1.71892 0 0 0.00819428 0 
-2.57573 1.71892 -0.151466 0 0.00819428 0 
-2.62983 1.71892 -0.205563 0 0.00819428 0 
-2.57573 1.71892 0 0 0.0140476 0 
-2.62983 1.71892 -0.205563 0 0.0140476 0 
-2.62983 1.71892 0.054097 0 0.0140476 0 
-2.57573 1.57472 0 0 -0.00819354 0 
-2.42427 1.57472 0 0 -0.00819354 0 
-2.37017 1.57472 0.054097 0 -0.00819354 0 
-2.57573 1.57472 0 0 -0.0140468 0 
-2.37017 1.57472 0.054097 0 -0.0140468 0 
-2.62983 1.57472 0.054097 0 -0.0140468 0 
-2.42427 1.71892 0 0 0.00819354 0 
-2.57573 1.71892 0 0 0.00819354 0 
-2.62983 1.71892 0.054097 0 0.00819354 0 
-2.42427 1.71892 0 0 0.0140468 -0 
-2.62983 1.71892 0.054097 0 0.0140468 -0 
-2.37017 1.71892 0.054097 0 0.0140468 -0 
-2.42427 1.57472 0 0 -0.00819428 0 
-2.42427 1.57472 -0.151466 0 -0.00819428 0 
-2.37017 1.57472 -0.205563 0 -0.00819428 0 
-2.42427 1.57472 0 0 -0.0140476 0 
-2.37017 1.57472 -0.205563 0 -0.0140476 0 
-2.37017 1.57472 0.054097 0 -0.0140476 0 
-2.42427 1.71892 -0.151466 0 0.00819428 0 
-2.42427 1.71892 0 0 0.00819428 0 
-2.37017 1.71892 0.054097 0 0.00819428 0 
-2.42427 1.71892 -0.151466 -0 0.0140476 0 
-2.37017 1.71892 0.054097 -0 0.0140476 0 
-2.37017 1.71892 -0.205563 -0 0.0140476 0 
-2.57573 1.71892 -0.151466 -0 0.00819354 0 
-2.42427 1.71892 -0.151466 -0 0.00819354 0 
-2.37017 1.71892 -0.205563 -0 0.00819354 0 
-2.57573 1.71892 -0.151466 0 0.0140468 0 
-2.37017 1.71892 -0.205563 0 0.0140468 0 
-2.62983 1.71892 -0.205563 0 0.0140468 0 
-2.42427 1.57472 -0.151466 -0 -0.00819354 0 
-2.57573 1.57472 -0.151466 -0 -0.00819354 0 
-2.62983 1.57472 -0.205563 -0 -0.00819354 0 
-2.42427 1.57472 -0.151466 0 -0.0140468 -0 
-2.62983 1.57472 -0.205563 0 -0.0140468 -0 
-2.37017 1.57472 -0.205563 0 -0.0140468 -0 
-3.57573 3.25662 0 0 -0.00819354 0 
-3.42427 3.25662 0 0 -0.00819354 0 
-3.37017 3.25662 0.054097 0 -0.00819354 0 
-3.57573 3.25662 0 0 -0.0140468 0 
-3.37017 3.25662 0.054097 0 -0.0140468 0 
-3.62983 3.25662 0.054097 0 -0.0140468 0 
-3.42427 3.40082 0 0 0.00819354 0 
-3.57573 3.40082 0 0 0.00819354 0 
-3.62983 3.40082 0.054097 0 0.00819354 0 
-3.42427 3.40082 0 0 0.0140468 -0 
-3.62983 3.40082 0.054097 0 0.0140468 -0 
-3.37017 3.40082 0.054097 0 0.0140468 -0 
-3.42427 3.25662 0 0 -0.00819428 0 
-3.42427 3.25662 -0.151466 0 -0.00819428 0 
-3.37017 3.25662 -0.205563 0 -0.00819428 0 
-3.42427 3.25662 0 0 -0.0140476 0 
-3.37017 3.25662 -0.205563 0 -0.0140476 0 
-3.37017 3.25662 0.054097 0 -0.0140476 0 
-3.42427 3.40082 -0.151466 0 0.00819428 0 
-3.42427 3.40082 0 0 0.00819428 0 
-3.37017 3.40082 0.054097 0 0.00819428 0 
-3.42427 3.40082 -0.151466 -0 0.0140476 0 
-3.37017 3.40082 0.054097 -0 0.0140476 0 
-3.37017 3.40082 -0.205563 -0 0.0140476 0 
-3.57573 3.40082 -0.151466 -0 0.00819354 0 
-3.42427 3.40082 -0.151466 -0 0.00819354 0 
-3.37017 3.40082 -0.205563 -0 0.00819354 0 
-3.57573 3.40082 -0.151466 0 0.0140468 0 
-3.37017 3.40082 -0.205563 0 0.0140468 0 
-3.62983 3.40082 -0.205563 0 0.0140468 0 
-3.42427 3.25662 -0.151466 -0 -0.00819354 0 
-3.57573 3.25662 -0.151466 -0 -0.00819354 0 
-3.62983 3.25662 -0.205563 -0 -0.00819354 0 
-3.42427 3.25662 -0.151466 0 -0.0140468 -0 
-3.62983 3.25662 -0.205563 0 -0.0140468 -0 
-3.37017 3.25662 -0.205563 0 -0.0140468 -0 
-3.57573 3.25662 -0.151466 0 -0.00819428 0 
-3.57573 3.25662 0 0 -0.00819428 0 
-3.62983 3.25662 0.054097 0 -0.00819428 0 
-3.57573 3.25662 -0.151466 -0 -0.0140476 0 
-3.62983 3.25662 0.054097 -0 -0.0140476 0 
-3.62983 3.25662 -0.205563 -0 -0.0140476 0 
-3.57573 3.40082 0 0 0.00819428 0 
-3.57573 3.40082 -0.151466 0 0.00819428 0 
-3.62983 3.40082 -0.205563 0 0.00819428 0 
-3.57573 3.40082 0 0 0.0140476 0 
-3.62983 3.40082 -0.205563 0 0.0140476 0 
-3.62983 3.40082 0.054097 0 0.0140476 0 
-1.57573 2.45339 -0.151466 0 -0.00819432 0 
-1.57573 2.45339 0 0 -0.00819432 0 
-1.62983 2.45339 0.054097 0 -0.00819432 0 
-1.57573 2.45339 -0.151466 -0 -0.0140476 0 
-1.62983 2.45339 0.054097 -0 -0.0140476 0 
-1.62983 2.45339 -0.205563 -0 -0.0140476 0 
-1.57573 2.59758 0 0 0.00819432 0 
-1.57573 2.59758 -0.151466 0 0.00819432 0 
-1.62983 2.59758 -0.205563 0 0.00819432 0 
-1.57573 2.59758 0 0 0.0140476 0 
-1.62983 2.59758 -0.205563 0 0.0140476 0 
-1.62983 2.59758 0.054097 0 0.0140476 0 
-1.57573 2.45339 0 0 -0.00819353 0 
-1.42427 2.45339 0 0 -0.00819353 0 
-1.37017 2.45339 0.054097 0 -0.00819353 0 
-1.57573 2.45339 0 0 -0.0140468 0 
-1.37017 2.45339 0.054097 0 -0.0140468 0 
-1.62983 2.45339 0.054097 0 -0.0140468 0 
-1.42427 2.59758 0 0 0.00819353 0 
-1.57573 2.59758 0 0 0.00819353 0 
-1.62983 2.59758 0.054097 0 0.00819353 0 
-1.42427 2.59758 0 0 0.0140468 -0 
-1.62983 2.59758 0.054097 0 0.0140468 -0 
-1.37017 2.59758 0.054097 0 0.0140468 -0 
-1.42427 2.45339 0 0 -0.00819432 0 
-1.42427 2.45339 -0.151466 0 -0.00819432 0 
-1.37017 2.45339 -0.205563 0 -0.00819432 0 
-1.42427 2.45339 0 0 -0.0140476 0 
-1.37017 2.45339 -0.205563 0 -0.0140476 0 
-1.37017 2.45339 0.054097 0 -0.0140476 0 
-1.42427 2.59758 -0.151466 0 0.00819432 0 
-1.42427 2.59758 0 0 0.00819432 0 
-1.37017 2.59758 0.054097 0 0.00819432 0 
-1.42427 2.59758 -0.151466 -0 0.0140476 0 
-1.37017 2.59758 0.054097 -0 0.0140476 0 
-1.37017 2.59758 -0.205563 -0 0.0140476 0 
-1.57573 2.59758 -0.151466 -0 0.00819353 0 
-1.42427 2.59758 -0.151466 -0 0.00819353 0 
-1.37017 2.59758 -0.205563 -0 0.00819353 0 
-1.57573 2.59758 -0.151466 0 0.0140468 0 
-1.37017 2.59758 -0.205563 0 0.0140468 0 
-1.62983 2.59758 -0.205563 0 0.0140468 0 
-1.42427 2.45339 -0.151466 -0 -0.00819353 0 
-1.57573 2.45339 -0.151466 -0 -0.00819353 0 
-1.62983 2.45339 -0.205563 -0 -0.00819353 0 
-1.42427 2.45339 -0.151466 0 -0.0140468 -0 
-1.62983 2.45339 -0.205563 0 -0.0140468 -0 
-1.37017 2.45339 -0.205563 0 -0.0140468 -0 
-4.44964 0.550359 -0.287082 0 0 15.2044 
-0.550359 0.550359 -0.287082 0 0 15.2044 
-0.550359 4.44964 -0.287082 0 0 15.2044 
-4.44964 0.550359 -0.287082 0 0 15.2044 
-0.550359 4.44964 -0.287082 0 0 15.2044 
-4.44964 4.44964 -0.287082 0 0 15.2044 
-5 0 0 0 0 1.71405 
0 0 0 0 0 1.71405 
-0.342811 0.342811 0 0 0 1.71405 
-5 0 0 0 0 1.47902 
-0.342811 0.342811 0 0 0 1.47902 
-4.65719 0.342811 0 0 0 1.47902 
0 0 0 0 -0 1.71405 
0 5 0 0 -0 1.71405 
-0.342811 4.65719 0 0 -0 1.71405 
0 0 0 0 0 1.47902 
-0.342811 4.65719 0 0 0 1.47902 
-0.342811 0.342811 0 0 0 1.47902 
0 5 0 0 0 1.71405 
-5 5 0 0 0 1.71405 
-4.65719 4.65719 0 0 0 1.71405 
0 5 0 0 0 1.47901 
-4.65719 4.65719 0 0 0 1.47901 
-0.342811 4.65719 0 0 0 1.47901 
-5 5 0 0 0 1.71405 
-5 0 0 0 0 1.71405 
-4.65719 0.342811 0 0 0 1.71405 
-5 5 0 0 0 1.47901 
-4.65719 0.342811 0 0 0 1.47901 
-4.65719 4.65719 0 0 0 1.47901 
-4.65719 0.342811 0 -0 1.23858 0.895441 
-0.342811 0.342811 0 -0 1.23858 0.895441 
-0.550359 0.550359 -0.287082 -0 1.23858 0.895441 
-4.65719 0.342811 0 0 1.11941 0.809288 
-0.550359 0.550359 -0.287082 0 1.11941 0.809288 
-4.44964 0.550359 -0.287082 0 1.11941 0.809288 
-0.342811 0.342811 0 -1.23858 0 0.895441 
-0.342811 4.65719 0 -1.23858 0 0.895441 
-0.550359 4.44964 -0.287082 -1.23858 0 0.895441 
-0.342811 0.342811 0 -1.11941 0 0.809288 
-0.550359 4.44964 -0.287082 -1.11941 0 0.809288 
-0.550359 0.550359 -0.287082 -1.11941 0 0.809288 
-0.342811 4.65719 0 0 -1.23858 0.89545 
-4.65719 4.65719 0 0 -1.23858 0.89545 
-4.44964 4.44964 -0.287082 0 -1.23858 0.89545 
-0.342811 4.65719 0 0 -1.11941 0.809296 
-4.44964 4.44964 -0.287082 0 -1.11941 0.809296 
-0.550359 4.44964 -0.287082 0 -1.11941 0.809296 
-4.65719 4.65719 0 1.23858 0 0.89545 
-4.65719 0.342811 0 1.23858 0 0.89545 
-4.44964 0.550359 -0.287082 1.23858 0 0.89545 
-4.65719 4.65719 0 1.11941 0 0.809296 
-4.44964 0.550359 -0.287082 1.11941 0 0.809296 
-4.44964 4.44964 -0.287082 1.11941 0 0.809296 
3 0 1 2
3 3 4 5
3 6 7 8
3 9 10 11
3 12 13 14
3 15 16 17
3 18 19 20
3 21 22 23
3 24 25 26
3 27 28 29
3 30 31 32
3 33 34 35
3 36 37 38
3 39 40 41
3 42 43 44
3 45 46 47
3 48 49 50
3 51 52 53
3 54 55 56
3 57 58 59
3 60 61 62
3 63 64 65
3 66 67 68
3 69 70 71
3 72 73 74
3 75 76 77
3 78 79 80
3 81 82 83
3 84 85 86
3 87 88 89
3 90 91 92
3 93 94 95
3 96 97 98
3 99 100 101
3 102 103 104
3 105 106 107
3 108 109 110
3 111 112 113
3 114 115 116
3 117 118 119
3 120 121 122
3 123 124 125
3 126 127 128
3 129 130 131
3 132 133 134
3 135 136 137
3 138 139 140
3 141 142 143
3 144 145 146
3 147 148 149
3 150 151 152
3 153 154 155
3 156 157 158
3 159 160 161
3 162 163 164
3 165 166 167
3 168 169 170
3 171 172 173
3 174 175 176
3 177 178 179
3 180 181 182
3 183 184 185
3 186 187 188
3 189 190 191
3 192 193 194
3 195 196 197
3 198 199 200
3 201 202 203
3 204 205 206
3 207 208 209
3 210 211 212
3 213 214 215
3 216 217 218
3 219 220 221
3 222 223 224
3 225 226 227
3 228 229 230
3 231 232 233
3 234 235 236
3 237 238 239
3 240 241 242
3 243 244 245
3 246 247 248
3 249 250 251
3 252 253 254
3 255 256 257
3 258 259 260
3 261 262 263
3 264 265 266
3 267 268 269
3 270 271 272
3 273 274 275
3 276 277 278
3 279 280 281
3 282 283 284
3 285 286 287
3 288 289 290
3 291 292 293
3 294 295 296
3 297 298 299
3 300 301 302
3 303 304 305
3 306 307 308
3 309 310 311
3 312 313 314
3 315 316 317
3 318 319 320
3 321 322 323
3 324 325 326
3 327 328 329
3 330 331 332
3 333 334 335
3 336 337 338
3 339 340 341
3 342 343 344
3 345 346 347
3 348 349 350
3 351 352 353
3 354 355 356
3 357 358 359
3 360 361 362
3 363 364 365
3 366 367 368
3 369 370 371
3 372 373 374
3 375 376 377
3 378 379 380
3 381 382 383
3 384 385 386
3 387 388 389
3 390 391 392
3 393 394 395
3 396 397 398
3 399 400 401
3 402 403 404
3 405 406 407
3 408 409 410
3 411 412 413
