ply
format ascii 1.0
comment Feeney's Flatenator generated
comment TextureFile SpaceInteriors_Texture.png
element vertex 330
property float x
property float y
property float z
property float nx
property float ny
property float nz
property float texture_u
property float texture_v
element face 110
property list uchar int vertex_indices
end_header
-2.44185 0.148714 0.128586 0.104838 0 0 0.325339 0.061667 
-2.44185 0.148714 0.012291 0.104838 0 0 0.325339 0.061667 
-2.44185 1.0502 0.012291 0.104838 0 0 0.325339 0.061667 
-2.44185 0.148714 0.128586 0.104838 -0 0 0.325339 0.061667 
-2.44185 1.0502 0.012291 0.104838 -0 0 0.325339 0.061667 
-2.44185 1.0502 0.128586 0.104838 -0 0 0.325339 0.061667 
-2.44185 1.0502 0.012291 0 -0 -0.104852 0.357377 0.061667 
-2.44185 0.148714 0.012291 0 -0 -0.104852 0.357377 0.061667 
-2.55816 0.148714 0.012291 0 -0 -0.104852 0.357377 0.061667 
-2.44185 1.0502 0.012291 -0 0 -0.104852 0.357377 0.061667 
-2.55816 0.148714 0.012291 -0 0 -0.104852 0.357377 0.061667 
-2.55816 1.0502 0.012291 -0 0 -0.104852 0.357377 0.061667 
-2.44185 0.148714 0.128586 0 -0 0.104852 0.357377 0.061667 
-2.44185 1.0502 0.128586 0 -0 0.104852 0.357377 0.061667 
-2.55816 1.0502 0.128586 0 -0 0.104852 0.357377 0.061667 
-2.44185 0.148714 0.128586 0 0 0.104852 0.357377 0.061667 
-2.55816 1.0502 0.128586 0 0 0.104852 0.357377 0.061667 
-2.55816 0.148714 0.128586 0 0 0.104852 0.357377 0.061667 
-2.55816 1.0502 0.012291 -0.104838 0 0 0.32255 0.061667 
-2.55816 0.148714 0.012291 -0.104838 0 0 0.32255 0.061667 
-2.55816 0.148714 0.128586 -0.104838 0 0 0.32255 0.061667 
-2.55816 1.0502 0.012291 -0.104838 0 0 0.32255 0.061667 
-2.55816 0.148714 0.128586 -0.104838 0 0 0.32255 0.061667 
-2.55816 1.0502 0.128586 -0.104838 0 0 0.32255 0.061667 
0 1.19891 0 0 0.704385 0 0.392243 0.061667 
-5 1.19891 0 0 0.704385 0 0.392243 0.061667 
-5 1.19891 0.140877 0 0.704385 0 0.392243 0.061667 
0 1.19891 0 0 0.704385 -0 0.392243 0.061667 
-5 1.19891 0.140877 0 0.704385 -0 0.392243 0.061667 
0 1.19891 0.140877 0 0.704385 -0 0.392243 0.061667 
0 0 0.140877 -0 -0.704385 0 0.292358 0.061667 
-5 0 0.140877 -0 -0.704385 0 0.292358 0.061667 
-5 0 0 -0 -0.704385 0 0.292358 0.061667 
0 0 0.140877 0 -0.704385 -0 0.292358 0.061667 
-5 0 0 0 -0.704385 -0 0.292358 0.061667 
0 0 0 0 -0.704385 -0 0.292358 0.061667 
-5 0 0 -0.168899 0 0 0.326363 0.061667 
-5 0 0.140877 -0.168899 0 0 0.326363 0.061667 
-5 1.19891 0.140877 -0.168899 0 0 0.326363 0.061667 
-5 0 0 -0.168899 0 0 0.326363 0.061667 
-5 1.19891 0.140877 -0.168899 0 0 0.326363 0.061667 
-5 1.19891 0 -0.168899 0 0 0.326363 0.061667 
0 0 0.140877 0.168899 0 0 0.356247 0.05771 
0 0 0 0.168899 0 0 0.356247 0.05771 
0 1.19891 0 0.168899 0 0 0.356247 0.05771 
0 0 0.140877 0.168899 -0 0 0.356247 0.05771 
0 1.19891 0 0.168899 -0 0 0.356247 0.05771 
0 1.19891 0.140877 0.168899 -0 0 0.356247 0.05771 
0 0 0 0 0 -0.74357 0.357377 0.061667 
-5 0 0 0 0 -0.74357 0.357377 0.061667 
-4.85912 0.148714 0 0 0 -0.74357 0.357377 0.061667 
0 0 0 0 0 -0.350834 0.357377 0.061667 
-4.85912 0.148714 0 0 0 -0.350834 0.357377 0.061667 
-2.5 0.148714 0 0 0 -0.350834 0.357377 0.061667 
0 0 0 0 0 -0.350832 0.357377 0.061667 
-2.5 0.148714 0 0 0 -0.350832 0.357377 0.061667 
-0.140892 0.148714 0 0 0 -0.350832 0.357377 0.061667 
-5 0 0 0 0 -0.168903 0.357377 0.061667 
-5 1.19891 0 0 0 -0.168903 0.357377 0.061667 
-4.85912 1.0502 0 0 0 -0.168903 0.357377 0.061667 
-5 0 0 0 0 -0.127001 0.357377 0.061667 
-4.85912 1.0502 0 0 0 -0.127001 0.357377 0.061667 
-4.85912 0.148714 0 0 0 -0.127001 0.357377 0.061667 
-5 1.19891 0 0 0 -0.74355 0.357377 0.061667 
0 1.19891 0 0 0 -0.74355 0.357377 0.061667 
-0.140892 1.0502 0 0 0 -0.74355 0.357377 0.061667 
-5 1.19891 0 0 0 -0.701648 0.357377 0.061667 
-0.140892 1.0502 0 0 0 -0.701648 0.357377 0.061667 
-4.85912 1.0502 0 0 0 -0.701648 0.357377 0.061667 
0 1.19891 0 0 -0 -0.168917 0.357377 0.061667 
0 0 0 0 -0 -0.168917 0.357377 0.061667 
-0.140892 0.148714 0 0 -0 -0.168917 0.357377 0.061667 
0 1.19891 0 0 0 -0.127012 0.357377 0.061667 
-0.140892 0.148714 0 0 0 -0.127012 0.357377 0.061667 
-0.140892 1.0502 0 0 0 -0.127012 0.357377 0.061667 
0 1.19891 0.140877 0 0 0.74355 0.357377 0.061667 
-5 1.19891 0.140877 0 0 0.74355 0.357377 0.061667 
-4.85912 1.0502 0.140877 0 0 0.74355 0.357377 0.061667 
0 1.19891 0.140877 0 0 0.701648 0.357377 0.061667 
-4.85912 1.0502 0.140877 0 0 0.701648 0.357377 0.061667 
-0.140892 1.0502 0.140877 0 0 0.701648 0.357377 0.061667 
-5 1.19891 0.140877 0 0 0.168903 0.357377 0.061667 
-5 0 0.140877 0 0 0.168903 0.357377 0.061667 
-4.85912 0.148714 0.140877 0 0 0.168903 0.357377 0.061667 
-5 1.19891 0.140877 0 0 0.127001 0.357377 0.061667 
-4.85912 0.148714 0.140877 0 0 0.127001 0.357377 0.061667 
-4.85912 1.0502 0.140877 0 0 0.127001 0.357377 0.061667 
-5 0 0.140877 0 0 0.74357 0.357377 0.061667 
0 0 0.140877 0 0 0.74357 0.357377 0.061667 
-0.140892 0.148714 0.140877 0 0 0.74357 0.357377 0.061667 
-5 0 0.140877 0 0 0.701667 0.357377 0.061667 
-0.140892 0.148714 0.140877 0 0 0.701667 0.357377 0.061667 
-4.85912 0.148714 0.140877 0 0 0.701667 0.357377 0.061667 
0 0 0.140877 0 -0 0.168917 0.325348 0.061667 
0 1.19891 0.140877 0 -0 0.168917 0.325348 0.061667 
-0.140892 1.0502 0.140877 0 -0 0.168917 0.325348 0.061667 
0 0 0.140877 0 0 0.127012 0.325348 0.061667 
-0.140892 1.0502 0.140877 0 0 0.127012 0.325348 0.061667 
-0.140892 0.148714 0.140877 0 0 0.127012 0.325348 0.061667 
-4.85912 1.0502 0 0 -0.66469 0 0.296835 0.061667 
-0.140892 1.0502 0 0 -0.66469 0 0.296835 0.061667 
-0.140892 1.0502 0.140877 0 -0.66469 0 0.296835 0.061667 
-4.85912 1.0502 0 0 -0.66469 0 0.296835 0.061667 
-0.140892 1.0502 0.140877 0 -0.66469 0 0.296835 0.061667 
-4.85912 1.0502 0.140877 0 -0.66469 0 0.296835 0.061667 
-0.140892 1.0502 0 -0.126999 0 0 0.32255 0.061667 
-0.140892 0.148714 0 -0.126999 0 0 0.32255 0.061667 
-0.140892 0.148714 0.140877 -0.126999 0 0 0.32255 0.061667 
-0.140892 1.0502 0 -0.126999 0 0 0.32255 0.061667 
-0.140892 0.148714 0.140877 -0.126999 0 0 0.32255 0.061667 
-0.140892 1.0502 0.140877 -0.126999 0 0 0.32255 0.061667 
-4.85912 1.0502 0 0.126999 0 -0 0.32255 0.061667 
-4.85912 1.0502 0.140877 0.126999 0 -0 0.32255 0.061667 
-4.85912 0.148714 0.140877 0.126999 0 -0 0.32255 0.061667 
-4.85912 1.0502 0 0.126999 0 0 0.32255 0.061667 
-4.85912 0.148714 0.140877 0.126999 0 0 0.32255 0.061667 
-4.85912 0.148714 0 0.126999 0 0 0.32255 0.061667 
-4.85912 0.148714 0 0 0.66469 0 0.388108 0.061667 
-4.85912 0.148714 0.140877 0 0.66469 0 0.388108 0.061667 
-0.140892 0.148714 0.140877 0 0.66469 0 0.388108 0.061667 
-4.85912 0.148714 0 0 0.66469 0 0.388108 0.061667 
-0.140892 0.148714 0.140877 0 0.66469 0 0.388108 0.061667 
-0.140892 0.148714 0 0 0.66469 0 0.388108 0.061667 
-4.85912 0.148714 0 0 0 0 0.388108 0.061667 
-0.140892 0.148714 0 0 0 0 0.388108 0.061667 
-2.5 0.148714 0 0 0 0 0.388108 0.061667 
-0.122044 0.148714 2.5516 0 0 0.0930225 0.325339 0.061667 
-0.018856 0.148714 2.5516 0 0 0.0930225 0.325339 0.061667 
-0.018856 1.0502 2.5516 0 0 0.0930225 0.325339 0.061667 
-0.122044 0.148714 2.5516 0 0 0.0930225 0.325339 0.061667 
-0.018856 1.0502 2.5516 0 0 0.0930225 0.325339 0.061667 
-0.122044 1.0502 2.5516 0 0 0.0930225 0.325339 0.061667 
-0.018856 1.0502 2.5516 0.0930333 0 0 0.357377 0.061667 
-0.018856 0.148714 2.5516 0.0930333 0 0 0.357377 0.061667 
-0.018856 0.148714 2.4484 0.0930333 0 0 0.357377 0.061667 
-0.018856 1.0502 2.5516 0.0930333 0 0 0.357377 0.061667 
-0.018856 0.148714 2.4484 0.0930333 0 0 0.357377 0.061667 
-0.018856 1.0502 2.4484 0.0930333 0 0 0.357377 0.061667 
-0.122044 0.148714 2.5516 -0.0930333 0 0 0.357377 0.061667 
-0.122044 1.0502 2.5516 -0.0930333 0 0 0.357377 0.061667 
-0.122044 1.0502 2.4484 -0.0930333 0 0 0.357377 0.061667 
-0.122044 0.148714 2.5516 -0.0930333 0 0 0.357377 0.061667 
-0.122044 1.0502 2.4484 -0.0930333 0 0 0.357377 0.061667 
-0.122044 0.148714 2.4484 -0.0930333 0 0 0.357377 0.061667 
-0.018856 1.0502 2.4484 0 -0 -0.0930225 0.32255 0.061667 
-0.018856 0.148714 2.4484 0 -0 -0.0930225 0.32255 0.061667 
-0.122044 0.148714 2.4484 0 -0 -0.0930225 0.32255 0.061667 
-0.018856 1.0502 2.4484 -0 0 -0.0930225 0.32255 0.061667 
-0.122044 0.148714 2.4484 -0 0 -0.0930225 0.32255 0.061667 
-0.122044 1.0502 2.4484 -0 0 -0.0930225 0.32255 0.061667 
-1.1e-05 1.19891 5.00001 0 0.68454 0 0.392243 0.061667 
-1.1e-05 1.19891 0.140877 0 0.68454 0 0.392243 0.061667 
-0.140888 1.19891 0.140877 0 0.68454 0 0.392243 0.061667 
-1.1e-05 1.19891 5.00001 0 0.68454 0 0.392243 0.061667 
-0.140888 1.19891 0.140877 0 0.68454 0 0.392243 0.061667 
-0.140888 1.19891 5.00001 0 0.68454 0 0.392243 0.061667 
-0.140888 0 5.00001 0 -0.68454 0 0.292358 0.061667 
-0.140888 0 0.140877 0 -0.68454 0 0.292358 0.061667 
-1.1e-05 0 0.140877 0 -0.68454 0 0.292358 0.061667 
-0.140888 0 5.00001 0 -0.68454 0 0.292358 0.061667 
-1.1e-05 0 0.140877 0 -0.68454 0 0.292358 0.061667 
-1.1e-05 0 5.00001 0 -0.68454 0 0.292358 0.061667 
-0.140888 0 5.00001 0 0 0.168899 0.362689 0.061667 
-1.1e-05 0 5.00001 0 0 0.168899 0.362689 0.061667 
-1.1e-05 1.19891 5.00001 0 0 0.168899 0.362689 0.061667 
-0.140888 0 5.00001 0 0 0.168899 0.362689 0.061667 
-1.1e-05 1.19891 5.00001 0 0 0.168899 0.362689 0.061667 
-0.140888 1.19891 5.00001 0 0 0.168899 0.362689 0.061667 
-1.1e-05 0 5.00001 0.722621 0 0 0.357377 0.061667 
-1.1e-05 0 0.140877 0.722621 0 0 0.357377 0.061667 
-1.1e-05 0.148714 0.140884 0.722621 0 0 0.357377 0.061667 
-1.1e-05 0 5.00001 0.350834 0 0 0.357377 0.061667 
-1.1e-05 0.148714 0.140884 0.350834 0 0 0.357377 0.061667 
-1.1e-05 0.148714 2.5 0.350834 0 0 0.357377 0.061667 
-1.1e-05 0 5.00001 0.350833 0 0 0.357377 0.061667 
-1.1e-05 0.148714 2.5 0.350833 0 0 0.357377 0.061667 
-1.1e-05 0.148714 4.85911 0.350833 0 0 0.357377 0.061667 
-1.1e-05 1.19891 0.140877 0.722602 0 -0 0.357377 0.061667 
-1.1e-05 1.19891 5.00001 0.722602 0 -0 0.357377 0.061667 
-1.1e-05 1.0502 4.85911 0.722602 0 -0 0.357377 0.061667 
-1.1e-05 1.19891 0.140877 0.701648 0 0 0.357377 0.061667 
-1.1e-05 1.0502 4.85911 0.701648 0 0 0.357377 0.061667 
-1.1e-05 1.0502 0.140884 0.701648 0 0 0.357377 0.061667 
-1.1e-05 1.19891 5.00001 0.168927 0 0 0.357377 0.061667 
-1.1e-05 0 5.00001 0.168927 0 0 0.357377 0.061667 
-1.1e-05 0.148714 4.85911 0.168927 0 0 0.357377 0.061667 
-1.1e-05 1.19891 5.00001 0.127019 0 0 0.357377 0.061667 
-1.1e-05 0.148714 4.85911 0.127019 0 0 0.357377 0.061667 
-1.1e-05 1.0502 4.85911 0.127019 0 0 0.357377 0.061667 
-0.140888 1.19891 5.00001 -0.722602 0 -0 0.357377 0.061667 
-0.140888 1.19891 0.140877 -0.722602 0 -0 0.357377 0.061667 
-0.140888 1.0502 0.140884 -0.722602 0 -0 0.357377 0.061667 
-0.140888 1.19891 5.00001 -0.701647 0 0 0.357377 0.061667 
-0.140888 1.0502 0.140884 -0.701647 0 0 0.357377 0.061667 
-0.140888 1.0502 4.85911 -0.701647 0 0 0.357377 0.061667 
-0.140888 0 0.140877 -0.722621 0 0 0.357377 0.061667 
-0.140888 0 5.00001 -0.722621 0 0 0.357377 0.061667 
-0.140888 0.148714 4.85911 -0.722621 0 0 0.357377 0.061667 
-0.140888 0 0.140877 -0.701666 0 0 0.357377 0.061667 
-0.140888 0.148714 4.85911 -0.701666 0 0 0.357377 0.061667 
-0.140888 0.148714 0.140884 -0.701666 0 0 0.357377 0.061667 
-0.140888 0 5.00001 -0.168927 0 0 0.324684 0.061667 
-0.140888 1.19891 5.00001 -0.168927 0 0 0.324684 0.061667 
-0.140888 1.0502 4.85911 -0.168927 0 0 0.324684 0.061667 
-0.140888 0 5.00001 -0.127019 0 0 0.324684 0.061667 
-0.140888 1.0502 4.85911 -0.127019 0 0 0.324684 0.061667 
-0.140888 0.148714 4.85911 -0.127019 0 0 0.324684 0.061667 
-1.1e-05 1.0502 0.140884 0 -0.66469 0 0.357377 0.061667 
-1.1e-05 1.0502 4.85911 0 -0.66469 0 0.357377 0.061667 
-0.140888 1.0502 4.85911 0 -0.66469 0 0.357377 0.061667 
-1.1e-05 1.0502 0.140884 0 -0.66469 0 0.357377 0.061667 
-0.140888 1.0502 4.85911 0 -0.66469 0 0.357377 0.061667 
-0.140888 1.0502 0.140884 0 -0.66469 0 0.357377 0.061667 
-1.1e-05 1.0502 4.85911 0 -0 -0.126999 0.32255 0.061667 
-1.1e-05 0.148714 4.85911 0 -0 -0.126999 0.32255 0.061667 
-0.140888 0.148714 4.85911 0 -0 -0.126999 0.32255 0.061667 
-1.1e-05 1.0502 4.85911 -0 0 -0.126999 0.32255 0.061667 
-0.140888 0.148714 4.85911 -0 0 -0.126999 0.32255 0.061667 
-0.140888 1.0502 4.85911 -0 0 -0.126999 0.32255 0.061667 
-1.1e-05 0.148714 0.140884 0 0.66469 0 0.388108 0.061667 
-0.140888 0.148714 0.140884 0 0.66469 0 0.388108 0.061667 
-0.140888 0.148714 4.85911 0 0.66469 0 0.388108 0.061667 
-1.1e-05 0.148714 0.140884 0 0.66469 -0 0.388108 0.061667 
-0.140888 0.148714 4.85911 0 0.66469 -0 0.388108 0.061667 
-1.1e-05 0.148714 4.85911 0 0.66469 -0 0.388108 0.061667 
-1.1e-05 0.148714 0.140884 0 0 0 0.388108 0.061667 
-1.1e-05 0.148714 4.85911 0 0 0 0.388108 0.061667 
-1.1e-05 0.148714 2.5 0 0 0 0.388108 0.061667 
-2.55668 0.148714 4.87289 -0.102156 0 0 0.325339 0.061667 
-2.55668 0.148714 4.98621 -0.102156 0 0 0.325339 0.061667 
-2.55668 1.0502 4.98621 -0.102156 0 0 0.325339 0.061667 
-2.55668 0.148714 4.87289 -0.102156 0 0 0.325339 0.061667 
-2.55668 1.0502 4.98621 -0.102156 0 0 0.325339 0.061667 
-2.55668 1.0502 4.87289 -0.102156 0 0 0.325339 0.061667 
-2.55668 1.0502 4.98621 0 0 0.102165 0.357377 0.061667 
-2.55668 0.148714 4.98621 0 0 0.102165 0.357377 0.061667 
-2.44335 0.148714 4.98621 0 0 0.102165 0.357377 0.061667 
-2.55668 1.0502 4.98621 -0 0 0.102165 0.357377 0.061667 
-2.44335 0.148714 4.98621 -0 0 0.102165 0.357377 0.061667 
-2.44335 1.0502 4.98621 -0 0 0.102165 0.357377 0.061667 
-2.55668 0.148714 4.87289 0 0 -0.102165 0.357377 0.061667 
-2.55668 1.0502 4.87289 0 0 -0.102165 0.357377 0.061667 
-2.44335 1.0502 4.87289 0 0 -0.102165 0.357377 0.061667 
-2.55668 0.148714 4.87289 0 0 -0.102165 0.357377 0.061667 
-2.44335 1.0502 4.87289 0 0 -0.102165 0.357377 0.061667 
-2.44335 0.148714 4.87289 0 0 -0.102165 0.357377 0.061667 
-2.44335 1.0502 4.98621 0.102156 0 0 0.32255 0.061667 
-2.44335 0.148714 4.98621 0.102156 0 0 0.32255 0.061667 
-2.44335 0.148714 4.87289 0.102156 0 0 0.32255 0.061667 
-2.44335 1.0502 4.98621 0.102156 0 0 0.32255 0.061667 
-2.44335 0.148714 4.87289 0.102156 0 0 0.32255 0.061667 
-2.44335 1.0502 4.87289 0.102156 0 0 0.32255 0.061667 
-5.00002 1.19891 4.99999 -0 0.70435 0 0.392243 0.061667 
-2.3e-05 1.19891 4.99999 -0 0.70435 0 0.392243 0.061667 
-2.3e-05 1.19891 4.85912 -0 0.70435 0 0.392243 0.061667 
-5.00002 1.19891 4.99999 0 0.70435 0 0.392243 0.061667 
-2.3e-05 1.19891 4.85912 0 0.70435 0 0.392243 0.061667 
-5.00002 1.19891 4.85912 0 0.70435 0 0.392243 0.061667 
-5.00002 0 4.85912 0 -0.70435 0 0.292358 0.061667 
-2.3e-05 0 4.85912 0 -0.70435 0 0.292358 0.061667 
-2.3e-05 0 4.99999 0 -0.70435 0 0.292358 0.061667 
-5.00002 0 4.85912 0 -0.70435 0 0.292358 0.061667 
-2.3e-05 0 4.99999 0 -0.70435 0 0.292358 0.061667 
-5.00002 0 4.99999 0 -0.70435 0 0.292358 0.061667 
-5.00002 0 4.85912 -0.168891 0 0 0.326363 0.061667 
-5.00002 0 4.99999 -0.168891 0 0 0.326363 0.061667 
-5.00002 1.19891 4.99999 -0.168891 0 0 0.326363 0.061667 
-5.00002 0 4.85912 -0.168891 0 0 0.326363 0.061667 
-5.00002 1.19891 4.99999 -0.168891 0 0 0.326363 0.061667 
-5.00002 1.19891 4.85912 -0.168891 0 0 0.326363 0.061667 
-5.00002 0 4.99999 0 0 0.74357 0.357377 0.061667 
-2.3e-05 0 4.99999 0 0 0.74357 0.357377 0.061667 
-0.1409 0.148714 4.99999 0 0 0.74357 0.357377 0.061667 
-5.00002 0 4.99999 0 0 0.350834 0.357377 0.061667 
-0.1409 0.148714 4.99999 0 0 0.350834 0.357377 0.061667 
-2.50002 0.148714 4.99999 0 0 0.350834 0.357377 0.061667 
-5.00002 0 4.99999 0 0 0.350831 0.357377 0.061667 
-2.50002 0.148714 4.99999 0 0 0.350831 0.357377 0.061667 
-4.85912 0.148714 4.99999 0 0 0.350831 0.357377 0.061667 
-2.3e-05 1.19891 4.99999 0 0 0.74355 0.357377 0.061667 
-5.00002 1.19891 4.99999 0 0 0.74355 0.357377 0.061667 
-4.85912 1.0502 4.99999 0 0 0.74355 0.357377 0.061667 
-2.3e-05 1.19891 4.99999 0 0 0.701647 0.357377 0.061667 
-4.85912 1.0502 4.99999 0 0 0.701647 0.357377 0.061667 
-0.1409 1.0502 4.99999 0 0 0.701647 0.357377 0.061667 
-5.00002 1.19891 4.99999 0 0 0.168927 0.357377 0.061667 
-5.00002 0 4.99999 0 0 0.168927 0.357377 0.061667 
-4.85912 0.148714 4.99999 0 0 0.168927 0.357377 0.061667 
-5.00002 1.19891 4.99999 0 0 0.127019 0.357377 0.061667 
-4.85912 0.148714 4.99999 0 0 0.127019 0.357377 0.061667 
-4.85912 1.0502 4.99999 0 0 0.127019 0.357377 0.061667 
-5.00002 1.19891 4.85912 0 0 -0.74355 0.357377 0.061667 
-2.3e-05 1.19891 4.85912 0 0 -0.74355 0.357377 0.061667 
-0.1409 1.0502 4.85912 0 0 -0.74355 0.357377 0.061667 
-5.00002 1.19891 4.85912 0 0 -0.701647 0.357377 0.061667 
-0.1409 1.0502 4.85912 0 0 -0.701647 0.357377 0.061667 
-4.85912 1.0502 4.85912 0 0 -0.701647 0.357377 0.061667 
-2.3e-05 0 4.85912 0 0 -0.74357 0.357377 0.061667 
-5.00002 0 4.85912 0 0 -0.74357 0.357377 0.061667 
-4.85912 0.148714 4.85912 0 0 -0.74357 0.357377 0.061667 
-2.3e-05 0 4.85912 0 0 -0.701665 0.357377 0.061667 
-4.85912 0.148714 4.85912 0 0 -0.701665 0.357377 0.061667 
-0.1409 0.148714 4.85912 0 0 -0.701665 0.357377 0.061667 
-5.00002 0 4.85912 0 0 -0.168927 0.357377 0.061667 
-5.00002 1.19891 4.85912 0 0 -0.168927 0.357377 0.061667 
-4.85912 1.0502 4.85912 0 0 -0.168927 0.357377 0.061667 
-5.00002 0 4.85912 0 0 -0.127019 0.357377 0.061667 
-4.85912 1.0502 4.85912 0 0 -0.127019 0.357377 0.061667 
-4.85912 0.148714 4.85912 0 0 -0.127019 0.357377 0.061667 
-0.1409 1.0502 4.99999 -0 -0.664656 0 0.357377 0.061667 
-4.85912 1.0502 4.99999 -0 -0.664656 0 0.357377 0.061667 
-4.85912 1.0502 4.85912 -0 -0.664656 0 0.357377 0.061667 
-0.1409 1.0502 4.99999 0 -0.664656 -0 0.357377 0.061667 
-4.85912 1.0502 4.85912 0 -0.664656 -0 0.357377 0.061667 
-0.1409 1.0502 4.85912 0 -0.664656 -0 0.357377 0.061667 
-4.85912 1.0502 4.99999 0.126992 0 0 0.32255 0.061667 
-4.85912 0.148714 4.99999 0.126992 0 0 0.32255 0.061667 
-4.85912 0.148714 4.85912 0.126992 0 0 0.32255 0.061667 
-4.85912 1.0502 4.99999 0.126992 0 0 0.32255 0.061667 
-4.85912 0.148714 4.85912 0.126992 0 0 0.32255 0.061667 
-4.85912 1.0502 4.85912 0.126992 0 0 0.32255 0.061667 
-0.1409 0.148714 4.99999 0 0.664656 0 0.388108 0.061667 
-0.1409 0.148714 4.85912 0 0.664656 0 0.388108 0.061667 
-4.85912 0.148714 4.85912 0 0.664656 0 0.388108 0.061667 
-0.1409 0.148714 4.99999 0 0.664656 0 0.388108 0.061667 
-4.85912 0.148714 4.85912 0 0.664656 0 0.388108 0.061667 
-4.85912 0.148714 4.99999 0 0.664656 0 0.388108 0.061667 
-0.1409 0.148714 4.99999 0 0 0 0.388108 0.061667 
-4.85912 0.148714 4.99999 0 0 0 0.388108 0.061667 
-2.50002 0.148714 4.99999 0 0 0 0.388108 0.061667 
3 0 1 2
3 3 4 5
3 6 7 8
3 9 10 11
3 12 13 14
3 15 16 17
3 18 19 20
3 21 22 23
3 24 25 26
3 27 28 29
3 30 31 32
3 33 34 35
3 36 37 38
3 39 40 41
3 42 43 44
3 45 46 47
3 48 49 50
3 51 52 53
3 54 55 56
3 57 58 59
3 60 61 62
3 63 64 65
3 66 67 68
3 69 70 71
3 72 73 74
3 75 76 77
3 78 79 80
3 81 82 83
3 84 85 86
3 87 88 89
3 90 91 92
3 93 94 95
3 96 97 98
3 99 100 101
3 102 103 104
3 105 106 107
3 108 109 110
3 111 112 113
3 114 115 116
3 117 118 119
3 120 121 122
3 123 124 125
3 126 127 128
3 129 130 131
3 132 133 134
3 135 136 137
3 138 139 140
3 141 142 143
3 144 145 146
3 147 148 149
3 150 151 152
3 153 154 155
3 156 157 158
3 159 160 161
3 162 163 164
3 165 166 167
3 168 169 170
3 171 172 173
3 174 175 176
3 177 178 179
3 180 181 182
3 183 184 185
3 186 187 188
3 189 190 191
3 192 193 194
3 195 196 197
3 198 199 200
3 201 202 203
3 204 205 206
3 207 208 209
3 210 211 212
3 213 214 215
3 216 217 218
3 219 220 221
3 222 223 224
3 225 226 227
3 228 229 230
3 231 232 233
3 234 235 236
3 237 238 239
3 240 241 242
3 243 244 245
3 246 247 248
3 249 250 251
3 252 253 254
3 255 256 257
3 258 259 260
3 261 262 263
3 264 265 266
3 267 268 269
3 270 271 272
3 273 274 275
3 276 277 278
3 279 280 281
3 282 283 284
3 285 286 287
3 288 289 290
3 291 292 293
3 294 295 296
3 297 298 299
3 300 301 302
3 303 304 305
3 306 307 308
3 309 310 311
3 312 313 314
3 315 316 317
3 318 319 320
3 321 322 323
3 324 325 326
3 327 328 329
