ply
format ascii 1.0
comment Feeney's Flatenator generated
comment TextureFile SpaceInteriors_Texture.png
element vertex 96
property float x
property float y
property float z
property float nx
property float ny
property float nz
property float texture_u
property float texture_v
element face 32
property list uchar int vertex_indices
end_header
-5 0 -5 -0 10.691 0 0.275592 0.060173 
0 0 -5 -0 10.691 0 0.275592 0.060173 
-0.58429 0 -7.1382 -0 10.691 0 0.275592 0.060173 
-5 0 -5 0 0.595726 0 0.275592 0.060173 
-0.58429 0 -7.1382 0 0.595726 0 0.275592 0.060173 
-0.862901 0 -7.1382 0 0.595726 0 0.275592 0.060173 
-5 0 -5 0 10.691 0 0.275592 0.060173 
-5 0 -10 0 10.691 0 0.275592 0.060173 
-7.13821 0 -9.41571 0 10.691 0 0.275592 0.060173 
-5 0 -5 0 0.595727 0 0.275592 0.060173 
-7.13821 0 -9.41571 0 0.595727 0 0.275592 0.060173 
-7.13821 0 -9.1371 0 0.595727 0 0.275592 0.060173 
-9.1371 0 -2.8618 0 0.634538 0 0.267077 0.218675 
-9.41571 0 -2.8618 0 0.634538 0 0.267077 0.218675 
-9.41571 0 -0.58429 0 0.634538 0 0.267077 0.218675 
-9.1371 0 -2.8618 0 0.556913 -0 0.267077 0.218675 
-9.41571 0 -0.58429 0 0.556913 -0 0.267077 0.218675 
-9.1371 0 -0.862904 0 0.556913 -0 0.267077 0.218675 
-2.8618 0 -0.862904 0 0.634546 0 0.267077 0.218675 
-2.8618 0 -0.58429 0 0.634546 0 0.267077 0.218675 
-0.58429 0 -0.58429 0 0.634546 0 0.267077 0.218675 
-2.8618 0 -0.862904 0 0.556921 0 0.267077 0.218675 
-0.58429 0 -0.58429 0 0.556921 0 0.267077 0.218675 
-0.862901 0 -0.862904 0 0.556921 0 0.267077 0.218675 
-7.13821 0 -0.862904 0 0.595735 0 0.275592 0.060173 
-7.13821 0 -0.58429 0 0.595735 0 0.275592 0.060173 
-5 0 0 0 0.595735 0 0.275592 0.060173 
-7.13821 0 -0.862904 -0 10.691 0 0.275592 0.060173 
-5 0 0 -0 10.691 0 0.275592 0.060173 
-5 0 -5 -0 10.691 0 0.275592 0.060173 
-0.58429 0 -9.41571 0 0.634538 0 0.267077 0.218675 
-2.8618 0 -9.41571 0 0.634538 0 0.267077 0.218675 
-2.8618 0 -9.1371 0 0.634538 0 0.267077 0.218675 
-0.58429 0 -9.41571 0 0.556914 0 0.267077 0.218675 
-2.8618 0 -9.1371 0 0.556914 0 0.267077 0.218675 
-0.862901 0 -9.1371 0 0.556914 0 0.267077 0.218675 
-9.1371 0 -7.1382 0 0.595724 0 0.275592 0.060173 
-9.41571 0 -7.1382 0 0.595724 0 0.275592 0.060173 
-10 0 -5 0 0.595724 0 0.275592 0.060173 
-9.1371 0 -7.1382 0 10.691 -0 0.275592 0.060173 
-10 0 -5 0 10.691 -0 0.275592 0.060173 
-5 0 -5 0 10.691 -0 0.275592 0.060173 
-0.58429 0 -0.58429 0 0.634539 0 0.267077 0.218675 
-0.58429 0 -2.8618 0 0.634539 0 0.267077 0.218675 
-0.862901 0 -2.8618 0 0.634539 0 0.267077 0.218675 
-0.58429 0 -0.58429 0 0.556914 0 0.267077 0.218675 
-0.862901 0 -2.8618 0 0.556914 0 0.267077 0.218675 
-0.862901 0 -0.862904 0 0.556914 0 0.267077 0.218675 
-5 0 -5 0 10.691 0 0.275592 0.060173 
-5 0 0 0 10.691 0 0.275592 0.060173 
-2.8618 0 -0.58429 0 10.691 0 0.275592 0.060173 
-5 0 -5 0 0.595733 0 0.275592 0.060173 
-2.8618 0 -0.58429 0 0.595733 0 0.275592 0.060173 
-2.8618 0 -0.862904 0 0.595733 0 0.275592 0.060173 
-9.41571 0 -0.58429 -0 0.634544 0 0.267077 0.218675 
-7.13821 0 -0.58429 -0 0.634544 0 0.267077 0.218675 
-7.13821 0 -0.862904 -0 0.634544 0 0.267077 0.218675 
-9.41571 0 -0.58429 0 0.556919 0 0.267077 0.218675 
-7.13821 0 -0.862904 0 0.556919 0 0.267077 0.218675 
-9.1371 0 -0.862904 0 0.556919 0 0.267077 0.218675 
-5 0 -5 0 10.691 0 0.275592 0.060173 
-10 0 -5 0 10.691 0 0.275592 0.060173 
-9.41571 0 -2.8618 0 10.691 0 0.275592 0.060173 
-5 0 -5 0 0.595724 0 0.275592 0.060173 
-9.41571 0 -2.8618 0 0.595724 0 0.275592 0.060173 
-9.1371 0 -2.8618 0 0.595724 0 0.275592 0.060173 
-9.41571 0 -9.41571 0 0.634538 0 0.267077 0.218675 
-9.41571 0 -7.1382 0 0.634538 0 0.267077 0.218675 
-9.1371 0 -7.1382 0 0.634538 0 0.267077 0.218675 
-9.41571 0 -9.41571 0 0.556914 0 0.267077 0.218675 
-9.1371 0 -7.1382 0 0.556914 0 0.267077 0.218675 
-9.1371 0 -9.1371 0 0.556914 0 0.267077 0.218675 
-7.13821 0 -9.1371 0 0.634535 0 0.267077 0.218675 
-7.13821 0 -9.41571 0 0.634535 0 0.267077 0.218675 
-9.41571 0 -9.41571 0 0.634535 0 0.267077 0.218675 
-7.13821 0 -9.1371 0 0.556911 0 0.267077 0.218675 
-9.41571 0 -9.41571 0 0.556911 0 0.267077 0.218675 
-9.1371 0 -9.1371 0 0.556911 0 0.267077 0.218675 
-2.8618 0 -9.1371 0 0.595724 0 0.275592 0.060173 
-2.8618 0 -9.41571 0 0.595724 0 0.275592 0.060173 
-5 0 -10 0 0.595724 0 0.275592 0.060173 
-2.8618 0 -9.1371 0 10.691 0 0.275592 0.060173 
-5 0 -10 0 10.691 0 0.275592 0.060173 
-5 0 -5 0 10.691 0 0.275592 0.060173 
-0.862901 0 -7.1382 -0 0.634539 0 0.267077 0.218675 
-0.58429 0 -7.1382 -0 0.634539 0 0.267077 0.218675 
-0.58429 0 -9.41571 -0 0.634539 0 0.267077 0.218675 
-0.862901 0 -7.1382 0 0.556916 0 0.267077 0.218675 
-0.58429 0 -9.41571 0 0.556916 0 0.267077 0.218675 
-0.862901 0 -9.1371 0 0.556916 0 0.267077 0.218675 
-0.862901 0 -2.8618 -0 0.595726 0 0.275592 0.060173 
-0.58429 0 -2.8618 -0 0.595726 0 0.275592 0.060173 
0 0 -5 -0 0.595726 0 0.275592 0.060173 
-0.862901 0 -2.8618 0 10.691 0 0.275592 0.060173 
0 0 -5 0 10.691 0 0.275592 0.060173 
-5 0 -5 0 10.691 0 0.275592 0.060173 
3 0 1 2
3 3 4 5
3 6 7 8
3 9 10 11
3 12 13 14
3 15 16 17
3 18 19 20
3 21 22 23
3 24 25 26
3 27 28 29
3 30 31 32
3 33 34 35
3 36 37 38
3 39 40 41
3 42 43 44
3 45 46 47
3 48 49 50
3 51 52 53
3 54 55 56
3 57 58 59
3 60 61 62
3 63 64 65
3 66 67 68
3 69 70 71
3 72 73 74
3 75 76 77
3 78 79 80
3 81 82 83
3 84 85 86
3 87 88 89
3 90 91 92
3 93 94 95
