ply
format ascii 1.0
comment Feeney's Flatenator generated
comment TextureFile SpaceInteriors_Texture.png
element vertex 84
property float x
property float y
property float z
element face 28
property list uchar int vertex_indices
end_header
-4.39213 4.55606 -0.191959 
-4.39213 0.445569 -0.183472 
-2.50023 0.445724 -0.183472 
-4.39213 4.55606 -0.191959 
-2.50023 0.445724 -0.183472 
-2.50023 4.55621 -0.183472 
-2.50023 4.55621 -0.183472 
-2.50023 0.445724 -0.183472 
-0.608336 0.44588 -0.183468 
-2.50023 4.55621 -0.183472 
-0.608336 0.44588 -0.183468 
-0.608336 4.55637 -0.17498 
-0.608624 4.55621 0 
-0.608624 0.445724 0 
-2e-06 0 0 
-0.608624 4.55621 0 
-2e-06 0 0 
-2e-06 5 0 
-2.50052 0.445724 0 
-4.39242 0.445724 0 
-5 0 0 
-2.50052 0.445724 0 
-5 0 0 
-2.50055 0 0 
-4.39242 4.55621 0 
-2.50052 4.55621 0 
-2.50055 5 0 
-4.39242 4.55621 0 
-2.50055 5 0 
-5 5 0 
-4.39242 0.445724 0 
-4.39242 4.55621 0 
-5 5 0 
-4.39242 0.445724 0 
-5 5 0 
-5 0 0 
-0.608624 0.445724 0 
-2.50052 0.445724 0 
-2.50055 0 0 
-0.608624 0.445724 0 
-2.50055 0 0 
-2e-06 0 0 
-2.50052 4.55621 0 
-0.608624 4.55621 0 
-2e-06 5 0 
-2.50052 4.55621 0 
-2e-06 5 0 
-2.50055 5 0 
-4.39242 4.55621 0 
-4.39242 0.445724 0 
-4.39213 0.445569 -0.183472 
-4.39242 4.55621 0 
-4.39213 0.445569 -0.183472 
-4.39213 4.55606 -0.191959 
-4.39242 0.445724 0 
-2.50052 0.445724 0 
-2.50023 0.445724 -0.183472 
-4.39242 0.445724 0 
-2.50023 0.445724 -0.183472 
-4.39213 0.445569 -0.183472 
-2.50052 4.55621 0 
-4.39242 4.55621 0 
-4.39213 4.55606 -0.191959 
-2.50052 4.55621 0 
-4.39213 4.55606 -0.191959 
-2.50023 4.55621 -0.183472 
-2.50052 0.445724 0 
-0.608624 0.445724 0 
-0.608336 0.44588 -0.183468 
-2.50052 0.445724 0 
-0.608336 0.44588 -0.183468 
-2.50023 0.445724 -0.183472 
-0.608624 0.445724 0 
-0.608624 4.55621 0 
-0.608336 4.55637 -0.17498 
-0.608624 0.445724 0 
-0.608336 4.55637 -0.17498 
-0.608336 0.44588 -0.183468 
-0.608624 4.55621 0 
-2.50052 4.55621 0 
-2.50023 4.55621 -0.183472 
-0.608624 4.55621 0 
-2.50023 4.55621 -0.183472 
-0.608336 4.55637 -0.17498 
3 0 1 2
3 3 4 5
3 6 7 8
3 9 10 11
3 12 13 14
3 15 16 17
3 18 19 20
3 21 22 23
3 24 25 26
3 27 28 29
3 30 31 32
3 33 34 35
3 36 37 38
3 39 40 41
3 42 43 44
3 45 46 47
3 48 49 50
3 51 52 53
3 54 55 56
3 57 58 59
3 60 61 62
3 63 64 65
3 66 67 68
3 69 70 71
3 72 73 74
3 75 76 77
3 78 79 80
3 81 82 83
