ply
format ascii 1.0
comment Feeney's Flatenator generated
comment TextureFile SpaceInteriors_Texture.png
element vertex 384
property float x
property float y
property float z
property float nx
property float ny
property float nz
property float texture_u
property float texture_v
element face 128
property list uchar int vertex_indices
end_header
-3.79311 2.24611 0.283115 0 0 0.154021 0.267261 0.061667 
-3.70689 2.24611 0.283115 0 0 0.154021 0.267261 0.061667 
-3.70689 4.03249 0.283115 0 0 0.154021 0.267261 0.061667 
-3.79311 2.24611 0.283115 0 0 0.154021 0.267261 0.061667 
-3.70689 4.03249 0.283115 0 0 0.154021 0.267261 0.061667 
-3.79311 4.03249 0.283115 0 0 0.154021 0.267261 0.061667 
-3.79311 3.94408 0.196896 0 0 -0.138776 0.267261 0.061667 
-3.70689 3.94408 0.196896 0 0 -0.138776 0.267261 0.061667 
-3.70689 2.33452 0.196896 0 0 -0.138776 0.267261 0.061667 
-3.79311 3.94408 0.196896 0 0 -0.138776 0.267261 0.061667 
-3.70689 2.33452 0.196896 0 0 -0.138776 0.267261 0.061667 
-3.79311 2.33452 0.196896 0 0 -0.138776 0.267261 0.061667 
-3.70689 2.24611 0.283115 0.138775 0 0 0.233148 0.061667 
-3.70689 2.33452 0.196896 0.138775 0 0 0.233148 0.061667 
-3.70689 3.94408 0.196896 0.138775 0 0 0.233148 0.061667 
-3.70689 2.24611 0.283115 0.15402 -0 0 0.233148 0.061667 
-3.70689 3.94408 0.196896 0.15402 -0 0 0.233148 0.061667 
-3.70689 4.03249 0.283115 0.15402 -0 0 0.233148 0.061667 
-3.79311 2.33452 0.196896 -0.15402 0 0 0.233148 0.061667 
-3.79311 2.24611 0.283115 -0.15402 0 0 0.233148 0.061667 
-3.79311 4.03249 0.283115 -0.15402 0 0 0.233148 0.061667 
-3.79311 2.33452 0.196896 -0.138775 0 0 0.233148 0.061667 
-3.79311 4.03249 0.283115 -0.138775 0 0 0.233148 0.061667 
-3.79311 3.94408 0.196896 -0.138775 0 0 0.233148 0.061667 
-3.79311 4.03249 0.283115 -0 0.0193427 0 0.300052 0.061667 
-3.70689 4.03249 0.283115 -0 0.0193427 0 0.300052 0.061667 
-3.70689 4.03249 0.058773 -0 0.0193427 0 0.300052 0.061667 
-3.79311 4.03249 0.283115 0 0.0193427 0 0.300052 0.061667 
-3.70689 4.03249 0.058773 0 0.0193427 0 0.300052 0.061667 
-3.79311 4.03249 0.058773 0 0.0193427 0 0.300052 0.061667 
-3.70689 4.03249 0.283115 0.0122114 0 0 0.240032 0.061667 
-3.70689 3.94408 0.196896 0.0122114 0 0 0.240032 0.061667 
-3.70689 3.94408 0.058773 0.0122114 0 0 0.240032 0.061667 
-3.70689 4.03249 0.283115 0.019834 0 0 0.240032 0.061667 
-3.70689 3.94408 0.058773 0.019834 0 0 0.240032 0.061667 
-3.70689 4.03249 0.058773 0.019834 0 0 0.240032 0.061667 
-3.70689 3.94408 0.196896 -0 -0.0119089 0 0.198113 0.061667 
-3.79311 3.94408 0.196896 -0 -0.0119089 0 0.198113 0.061667 
-3.79311 3.94408 0.058773 -0 -0.0119089 0 0.198113 0.061667 
-3.70689 3.94408 0.196896 0 -0.0119089 -0 0.198113 0.061667 
-3.79311 3.94408 0.058773 0 -0.0119089 -0 0.198113 0.061667 
-3.70689 3.94408 0.058773 0 -0.0119089 -0 0.198113 0.061667 
-3.79311 3.94408 0.196896 -0.019834 0 0 0.240032 0.061667 
-3.79311 4.03249 0.283115 -0.019834 0 0 0.240032 0.061667 
-3.79311 4.03249 0.058773 -0.019834 0 0 0.240032 0.061667 
-3.79311 3.94408 0.196896 -0.0122114 0 0 0.240032 0.061667 
-3.79311 4.03249 0.058773 -0.0122114 0 0 0.240032 0.061667 
-3.79311 3.94408 0.058773 -0.0122114 0 0 0.240032 0.061667 
-3.79311 2.33452 0.196896 -0 0.0119089 0 0.29711 0.061667 
-3.70689 2.33452 0.196896 -0 0.0119089 0 0.29711 0.061667 
-3.70689 2.33452 0.058773 -0 0.0119089 0 0.29711 0.061667 
-3.79311 2.33452 0.196896 0 0.0119089 0 0.29711 0.061667 
-3.70689 2.33452 0.058773 0 0.0119089 0 0.29711 0.061667 
-3.79311 2.33452 0.058773 0 0.0119089 0 0.29711 0.061667 
-3.70689 2.33452 0.196896 0.0198341 0 0 0.244197 0.061667 
-3.70689 2.24611 0.283115 0.0198341 0 0 0.244197 0.061667 
-3.70689 2.24611 0.058773 0.0198341 0 0 0.244197 0.061667 
-3.70689 2.33452 0.196896 0.0122115 0 0 0.244197 0.061667 
-3.70689 2.24611 0.058773 0.0122115 0 0 0.244197 0.061667 
-3.70689 2.33452 0.058773 0.0122115 0 0 0.244197 0.061667 
-3.70689 2.24611 0.283115 -0 -0.0193427 0 0.200168 0.061667 
-3.79311 2.24611 0.283115 -0 -0.0193427 0 0.200168 0.061667 
-3.79311 2.24611 0.058773 -0 -0.0193427 0 0.200168 0.061667 
-3.70689 2.24611 0.283115 0 -0.0193427 -0 0.200168 0.061667 
-3.79311 2.24611 0.058773 0 -0.0193427 -0 0.200168 0.061667 
-3.70689 2.24611 0.058773 0 -0.0193427 -0 0.200168 0.061667 
-3.79311 2.24611 0.283115 -0.0122115 0 0 0.244197 0.061667 
-3.79311 2.33452 0.196896 -0.0122115 0 0 0.244197 0.061667 
-3.79311 2.33452 0.058773 -0.0122115 0 0 0.244197 0.061667 
-3.79311 2.24611 0.283115 -0.0198341 0 0 0.244197 0.061667 
-3.79311 2.33452 0.058773 -0.0198341 0 0 0.244197 0.061667 
-3.79311 2.24611 0.058773 -0.0198341 0 0 0.244197 0.061667 
-3.79311 4.03249 0.058773 0 0 0.00246159 0.26373 0.062198 
-3.70689 4.03249 0.058773 0 0 0.00246159 0.26373 0.062198 
-3.67905 4.06104 0.058773 0 0 0.00246159 0.26373 0.062198 
-3.79311 4.03249 0.058773 0 -0 0.00405155 0.26373 0.062198 
-3.67905 4.06104 0.058773 0 -0 0.00405155 0.26373 0.062198 
-3.82096 4.06104 0.058773 0 -0 0.00405155 0.26373 0.062198 
-3.70689 4.03249 0.058773 0 0 0.00246134 0.26373 0.062198 
-3.70689 3.94408 0.058773 0 0 0.00246134 0.26373 0.062198 
-3.67905 3.91553 0.058773 0 0 0.00246134 0.26373 0.062198 
-3.70689 4.03249 0.058773 -0 0 0.00405102 0.26373 0.062198 
-3.67905 3.91553 0.058773 -0 0 0.00405102 0.26373 0.062198 
-3.67905 4.06104 0.058773 -0 0 0.00405102 0.26373 0.062198 
-3.70689 3.94408 0.058773 0 0 0.00246159 0.26373 0.062198 
-3.79311 3.94408 0.058773 0 0 0.00246159 0.26373 0.062198 
-3.82096 3.91553 0.058773 0 0 0.00246159 0.26373 0.062198 
-3.70689 3.94408 0.058773 0 0 0.00405155 0.26373 0.062198 
-3.82096 3.91553 0.058773 0 0 0.00405155 0.26373 0.062198 
-3.67905 3.91553 0.058773 0 0 0.00405155 0.26373 0.062198 
-3.79311 3.94408 0.058773 0 -0 0.00246222 0.26373 0.062198 
-3.79311 4.03249 0.058773 0 -0 0.00246222 0.26373 0.062198 
-3.82096 4.06104 0.058773 0 -0 0.00246222 0.26373 0.062198 
-3.79311 3.94408 0.058773 0 0 0.00405247 0.26373 0.062198 
-3.82096 4.06104 0.058773 0 0 0.00405247 0.26373 0.062198 
-3.82096 3.91553 0.058773 0 0 0.00405247 0.26373 0.062198 
-3.79311 2.33452 0.058773 0 0 0.00246243 0.26373 0.062198 
-3.70689 2.33452 0.058773 0 0 0.00246243 0.26373 0.062198 
-3.67904 2.36308 0.058773 0 0 0.00246243 0.26373 0.062198 
-3.79311 2.33452 0.058773 0 -0 0.00405323 0.26373 0.062198 
-3.67904 2.36308 0.058773 0 -0 0.00405323 0.26373 0.062198 
-3.82096 2.36308 0.058773 0 -0 0.00405323 0.26373 0.062198 
-3.70689 2.33452 0.058773 0 0 0.00246224 0.26373 0.062198 
-3.70689 2.24611 0.058773 0 0 0.00246224 0.26373 0.062198 
-3.67904 2.21756 0.058773 0 0 0.00246224 0.26373 0.062198 
-3.70689 2.33452 0.058773 -0 0 0.00405275 0.26373 0.062198 
-3.67904 2.21756 0.058773 -0 0 0.00405275 0.26373 0.062198 
-3.67904 2.36308 0.058773 -0 0 0.00405275 0.26373 0.062198 
-3.70689 2.24611 0.058773 0 0 0.00246157 0.26373 0.062198 
-3.79311 2.24611 0.058773 0 0 0.00246157 0.26373 0.062198 
-3.82096 2.21756 0.058773 0 0 0.00246157 0.26373 0.062198 
-3.70689 2.24611 0.058773 0 0 0.00405181 0.26373 0.062198 
-3.82096 2.21756 0.058773 0 0 0.00405181 0.26373 0.062198 
-3.67904 2.21756 0.058773 0 0 0.00405181 0.26373 0.062198 
-3.79311 2.24611 0.058773 0 -0 0.00246224 0.26373 0.062198 
-3.79311 2.33452 0.058773 0 -0 0.00246224 0.26373 0.062198 
-3.82096 2.36308 0.058773 0 -0 0.00246224 0.26373 0.062198 
-3.79311 2.24611 0.058773 0 0 0.00405275 0.26373 0.062198 
-3.82096 2.36308 0.058773 0 0 0.00405275 0.26373 0.062198 
-3.82096 2.21756 0.058773 0 0 0.00405275 0.26373 0.062198 
-3.82096 4.06104 0.058773 -0 0.00833991 0 0.297952 0.062198 
-3.67905 4.06104 0.058773 -0 0.00833991 0 0.297952 0.062198 
-3.67905 4.06104 4e-06 -0 0.00833991 0 0.297952 0.062198 
-3.82096 4.06104 0.058773 0 0.00833991 0 0.297952 0.062198 
-3.67905 4.06104 4e-06 0 0.00833991 0 0.297952 0.062198 
-3.82096 4.06104 4e-06 0 0.00833991 0 0.297952 0.062198 
-3.67905 4.06104 0.058773 0.00855147 0 0 0.235124 0.062198 
-3.67905 3.91553 0.058773 0.00855147 0 0 0.235124 0.062198 
-3.67905 3.91553 4e-06 0.00855147 0 0 0.235124 0.062198 
-3.67905 4.06104 0.058773 0.00855147 0 0 0.235124 0.062198 
-3.67905 3.91553 4e-06 0.00855147 0 0 0.235124 0.062198 
-3.67905 4.06104 4e-06 0.00855147 0 0 0.235124 0.062198 
-3.67905 3.91553 0.058773 -0 -0.00833991 0 0.209288 0.062198 
-3.82096 3.91553 0.058773 -0 -0.00833991 0 0.209288 0.062198 
-3.82096 3.91553 4e-06 -0 -0.00833991 0 0.209288 0.062198 
-3.67905 3.91553 0.058773 0 -0.00833991 -0 0.209288 0.062198 
-3.82096 3.91553 4e-06 0 -0.00833991 -0 0.209288 0.062198 
-3.67905 3.91553 4e-06 0 -0.00833991 -0 0.209288 0.062198 
-3.82096 3.91553 0.058773 -0.00855147 0 0 0.235124 0.062198 
-3.82096 4.06104 0.058773 -0.00855147 0 0 0.235124 0.062198 
-3.82096 4.06104 4e-06 -0.00855147 0 0 0.235124 0.062198 
-3.82096 3.91553 0.058773 -0.00855147 0 0 0.235124 0.062198 
-3.82096 4.06104 4e-06 -0.00855147 0 0 0.235124 0.062198 
-3.82096 3.91553 4e-06 -0.00855147 0 0 0.235124 0.062198 
-3.82096 2.36308 0.058773 -0 0.0083405 0 0.297952 0.062198 
-3.67904 2.36308 0.058773 -0 0.0083405 0 0.297952 0.062198 
-3.67904 2.36308 4e-06 -0 0.0083405 0 0.297952 0.062198 
-3.82096 2.36308 0.058773 0 0.0083405 0 0.297952 0.062198 
-3.67904 2.36308 4e-06 0 0.0083405 0 0.297952 0.062198 
-3.82096 2.36308 4e-06 0 0.0083405 0 0.297952 0.062198 
-3.67904 2.36308 0.058773 0.00855206 0 0 0.235124 0.062198 
-3.67904 2.21756 0.058773 0.00855206 0 0 0.235124 0.062198 
-3.67904 2.21756 4e-06 0.00855206 0 0 0.235124 0.062198 
-3.67904 2.36308 0.058773 0.00855206 0 0 0.235124 0.062198 
-3.67904 2.21756 4e-06 0.00855206 0 0 0.235124 0.062198 
-3.67904 2.36308 4e-06 0.00855206 0 0 0.235124 0.062198 
-3.67904 2.21756 0.058773 -0 -0.0083405 0 0.209288 0.062198 
-3.82096 2.21756 0.058773 -0 -0.0083405 0 0.209288 0.062198 
-3.82096 2.21756 4e-06 -0 -0.0083405 0 0.209288 0.062198 
-3.67904 2.21756 0.058773 0 -0.0083405 -0 0.209288 0.062198 
-3.82096 2.21756 4e-06 0 -0.0083405 -0 0.209288 0.062198 
-3.67904 2.21756 4e-06 0 -0.0083405 -0 0.209288 0.062198 
-3.82096 2.21756 0.058773 -0.00855206 0 0 0.235124 0.062198 
-3.82096 2.36308 0.058773 -0.00855206 0 0 0.235124 0.062198 
-3.82096 2.36308 4e-06 -0.00855206 0 0 0.235124 0.062198 
-3.82096 2.21756 0.058773 -0.00855206 0 0 0.235124 0.062198 
-3.82096 2.36308 4e-06 -0.00855206 0 0 0.235124 0.062198 
-3.82096 2.21756 4e-06 -0.00855206 0 0 0.235124 0.062198 
-1.29311 2.24611 0.283115 0 0 0.154022 0.267261 0.061667 
-1.20689 2.24611 0.283115 0 0 0.154022 0.267261 0.061667 
-1.20689 4.03249 0.283115 0 0 0.154022 0.267261 0.061667 
-1.29311 2.24611 0.283115 0 0 0.154022 0.267261 0.061667 
-1.20689 4.03249 0.283115 0 0 0.154022 0.267261 0.061667 
-1.29311 4.03249 0.283115 0 0 0.154022 0.267261 0.061667 
-1.29311 3.94408 0.196896 0 0 -0.138776 0.267261 0.061667 
-1.20689 3.94408 0.196896 0 0 -0.138776 0.267261 0.061667 
-1.20689 2.33452 0.196896 0 0 -0.138776 0.267261 0.061667 
-1.29311 3.94408 0.196896 0 0 -0.138776 0.267261 0.061667 
-1.20689 2.33452 0.196896 0 0 -0.138776 0.267261 0.061667 
-1.29311 2.33452 0.196896 0 0 -0.138776 0.267261 0.061667 
-1.20689 2.24611 0.283115 0.138775 0 0 0.233148 0.061667 
-1.20689 2.33452 0.196896 0.138775 0 0 0.233148 0.061667 
-1.20689 3.94408 0.196896 0.138775 0 0 0.233148 0.061667 
-1.20689 2.24611 0.283115 0.15402 -0 0 0.233148 0.061667 
-1.20689 3.94408 0.196896 0.15402 -0 0 0.233148 0.061667 
-1.20689 4.03249 0.283115 0.15402 -0 0 0.233148 0.061667 
-1.29311 2.33452 0.196896 -0.15402 0 0 0.233148 0.061667 
-1.29311 2.24611 0.283115 -0.15402 0 0 0.233148 0.061667 
-1.29311 4.03249 0.283115 -0.15402 0 0 0.233148 0.061667 
-1.29311 2.33452 0.196896 -0.138775 0 0 0.233148 0.061667 
-1.29311 4.03249 0.283115 -0.138775 0 0 0.233148 0.061667 
-1.29311 3.94408 0.196896 -0.138775 0 0 0.233148 0.061667 
-1.29311 4.03249 0.283115 -0 0.0193428 0 0.300052 0.061667 
-1.20689 4.03249 0.283115 -0 0.0193428 0 0.300052 0.061667 
-1.20689 4.03249 0.058773 -0 0.0193428 0 0.300052 0.061667 
-1.29311 4.03249 0.283115 0 0.0193428 0 0.300052 0.061667 
-1.20689 4.03249 0.058773 0 0.0193428 0 0.300052 0.061667 
-1.29311 4.03249 0.058773 0 0.0193428 0 0.300052 0.061667 
-1.20689 4.03249 0.283115 0.0122114 0 0 0.240032 0.061667 
-1.20689 3.94408 0.196896 0.0122114 0 0 0.240032 0.061667 
-1.20689 3.94408 0.058773 0.0122114 0 0 0.240032 0.061667 
-1.20689 4.03249 0.283115 0.019834 0 0 0.240032 0.061667 
-1.20689 3.94408 0.058773 0.019834 0 0 0.240032 0.061667 
-1.20689 4.03249 0.058773 0.019834 0 0 0.240032 0.061667 
-1.20689 3.94408 0.196896 -0 -0.011909 0 0.198113 0.061667 
-1.29311 3.94408 0.196896 -0 -0.011909 0 0.198113 0.061667 
-1.29311 3.94408 0.058773 -0 -0.011909 0 0.198113 0.061667 
-1.20689 3.94408 0.196896 0 -0.011909 -0 0.198113 0.061667 
-1.29311 3.94408 0.058773 0 -0.011909 -0 0.198113 0.061667 
-1.20689 3.94408 0.058773 0 -0.011909 -0 0.198113 0.061667 
-1.29311 3.94408 0.196896 -0.019834 0 0 0.240032 0.061667 
-1.29311 4.03249 0.283115 -0.019834 0 0 0.240032 0.061667 
-1.29311 4.03249 0.058773 -0.019834 0 0 0.240032 0.061667 
-1.29311 3.94408 0.196896 -0.0122114 0 0 0.240032 0.061667 
-1.29311 4.03249 0.058773 -0.0122114 0 0 0.240032 0.061667 
-1.29311 3.94408 0.058773 -0.0122114 0 0 0.240032 0.061667 
-1.29311 2.33452 0.196896 -0 0.011909 0 0.29711 0.061667 
-1.20689 2.33452 0.196896 -0 0.011909 0 0.29711 0.061667 
-1.20689 2.33452 0.058773 -0 0.011909 0 0.29711 0.061667 
-1.29311 2.33452 0.196896 0 0.011909 0 0.29711 0.061667 
-1.20689 2.33452 0.058773 0 0.011909 0 0.29711 0.061667 
-1.29311 2.33452 0.058773 0 0.011909 0 0.29711 0.061667 
-1.20689 2.33452 0.196896 0.0198341 0 0 0.244197 0.061667 
-1.20689 2.24611 0.283115 0.0198341 0 0 0.244197 0.061667 
-1.20689 2.24611 0.058773 0.0198341 0 0 0.244197 0.061667 
-1.20689 2.33452 0.196896 0.0122115 0 0 0.244197 0.061667 
-1.20689 2.24611 0.058773 0.0122115 0 0 0.244197 0.061667 
-1.20689 2.33452 0.058773 0.0122115 0 0 0.244197 0.061667 
-1.20689 2.24611 0.283115 -0 -0.0193428 0 0.200168 0.061667 
-1.29311 2.24611 0.283115 -0 -0.0193428 0 0.200168 0.061667 
-1.29311 2.24611 0.058773 -0 -0.0193428 0 0.200168 0.061667 
-1.20689 2.24611 0.283115 0 -0.0193428 -0 0.200168 0.061667 
-1.29311 2.24611 0.058773 0 -0.0193428 -0 0.200168 0.061667 
-1.20689 2.24611 0.058773 0 -0.0193428 -0 0.200168 0.061667 
-1.29311 2.24611 0.283115 -0.0122115 0 0 0.244197 0.061667 
-1.29311 2.33452 0.196896 -0.0122115 0 0 0.244197 0.061667 
-1.29311 2.33452 0.058773 -0.0122115 0 0 0.244197 0.061667 
-1.29311 2.24611 0.283115 -0.0198341 0 0 0.244197 0.061667 
-1.29311 2.33452 0.058773 -0.0198341 0 0 0.244197 0.061667 
-1.29311 2.24611 0.058773 -0.0198341 0 0 0.244197 0.061667 
-1.29311 4.03249 0.058773 0 0 0.00246159 0.26373 0.062198 
-1.20689 4.03249 0.058773 0 0 0.00246159 0.26373 0.062198 
-1.17905 4.06104 0.058773 0 0 0.00246159 0.26373 0.062198 
-1.29311 4.03249 0.058773 0 -0 0.00405155 0.26373 0.062198 
-1.17905 4.06104 0.058773 0 -0 0.00405155 0.26373 0.062198 
-1.32096 4.06104 0.058773 0 -0 0.00405155 0.26373 0.062198 
-1.20689 4.03249 0.058773 0 0 0.00246133 0.26373 0.062198 
-1.20689 3.94408 0.058773 0 0 0.00246133 0.26373 0.062198 
-1.17905 3.91553 0.058773 0 0 0.00246133 0.26373 0.062198 
-1.20689 4.03249 0.058773 -0 0 0.004051 0.26373 0.062198 
-1.17905 3.91553 0.058773 -0 0 0.004051 0.26373 0.062198 
-1.17905 4.06104 0.058773 -0 0 0.004051 0.26373 0.062198 
-1.20689 3.94408 0.058773 0 0 0.00246159 0.26373 0.062198 
-1.29311 3.94408 0.058773 0 0 0.00246159 0.26373 0.062198 
-1.32096 3.91553 0.058773 0 0 0.00246159 0.26373 0.062198 
-1.20689 3.94408 0.058773 0 0 0.00405155 0.26373 0.062198 
-1.32096 3.91553 0.058773 0 0 0.00405155 0.26373 0.062198 
-1.17905 3.91553 0.058773 0 0 0.00405155 0.26373 0.062198 
-1.29311 3.94408 0.058773 0 -0 0.00246221 0.26373 0.062198 
-1.29311 4.03249 0.058773 0 -0 0.00246221 0.26373 0.062198 
-1.32096 4.06104 0.058773 0 -0 0.00246221 0.26373 0.062198 
-1.29311 3.94408 0.058773 0 0 0.00405246 0.26373 0.062198 
-1.32096 4.06104 0.058773 0 0 0.00405246 0.26373 0.062198 
-1.32096 3.91553 0.058773 0 0 0.00405246 0.26373 0.062198 
-1.29311 2.33452 0.058773 0 0 0.00246244 0.26373 0.062198 
-1.20689 2.33452 0.058773 0 0 0.00246244 0.26373 0.062198 
-1.17904 2.36308 0.058773 0 0 0.00246244 0.26373 0.062198 
-1.29311 2.33452 0.058773 0 -0 0.00405323 0.26373 0.062198 
-1.17904 2.36308 0.058773 0 -0 0.00405323 0.26373 0.062198 
-1.32096 2.36308 0.058773 0 -0 0.00405323 0.26373 0.062198 
-1.20689 2.33452 0.058773 0 0 0.00246223 0.26373 0.062198 
-1.20689 2.24611 0.058773 0 0 0.00246223 0.26373 0.062198 
-1.17904 2.21756 0.058773 0 0 0.00246223 0.26373 0.062198 
-1.20689 2.33452 0.058773 -0 0 0.00405274 0.26373 0.062198 
-1.17904 2.21756 0.058773 -0 0 0.00405274 0.26373 0.062198 
-1.17904 2.36308 0.058773 -0 0 0.00405274 0.26373 0.062198 
-1.20689 2.24611 0.058773 0 0 0.00246157 0.26373 0.062198 
-1.29311 2.24611 0.058773 0 0 0.00246157 0.26373 0.062198 
-1.32096 2.21756 0.058773 0 0 0.00246157 0.26373 0.062198 
-1.20689 2.24611 0.058773 0 0 0.00405181 0.26373 0.062198 
-1.32096 2.21756 0.058773 0 0 0.00405181 0.26373 0.062198 
-1.17904 2.21756 0.058773 0 0 0.00405181 0.26373 0.062198 
-1.29311 2.24611 0.058773 0 -0 0.00246223 0.26373 0.062198 
-1.29311 2.33452 0.058773 0 -0 0.00246223 0.26373 0.062198 
-1.32096 2.36308 0.058773 0 -0 0.00246223 0.26373 0.062198 
-1.29311 2.24611 0.058773 0 0 0.00405274 0.26373 0.062198 
-1.32096 2.36308 0.058773 0 0 0.00405274 0.26373 0.062198 
-1.32096 2.21756 0.058773 0 0 0.00405274 0.26373 0.062198 
-1.32096 4.06104 0.058773 -0 0.00833991 0 0.297952 0.062198 
-1.17905 4.06104 0.058773 -0 0.00833991 0 0.297952 0.062198 
-1.17905 4.06104 4e-06 -0 0.00833991 0 0.297952 0.062198 
-1.32096 4.06104 0.058773 0 0.00833991 0 0.297952 0.062198 
-1.17905 4.06104 4e-06 0 0.00833991 0 0.297952 0.062198 
-1.32096 4.06104 4e-06 0 0.00833991 0 0.297952 0.062198 
-1.17905 4.06104 0.058773 0.00855147 0 0 0.235124 0.062198 
-1.17905 3.91553 0.058773 0.00855147 0 0 0.235124 0.062198 
-1.17905 3.91553 4e-06 0.00855147 0 0 0.235124 0.062198 
-1.17905 4.06104 0.058773 0.00855147 0 0 0.235124 0.062198 
-1.17905 3.91553 4e-06 0.00855147 0 0 0.235124 0.062198 
-1.17905 4.06104 4e-06 0.00855147 0 0 0.235124 0.062198 
-1.17905 3.91553 0.058773 -0 -0.00833991 0 0.209288 0.062198 
-1.32096 3.91553 0.058773 -0 -0.00833991 0 0.209288 0.062198 
-1.32096 3.91553 4e-06 -0 -0.00833991 0 0.209288 0.062198 
-1.17905 3.91553 0.058773 0 -0.00833991 -0 0.209288 0.062198 
-1.32096 3.91553 4e-06 0 -0.00833991 -0 0.209288 0.062198 
-1.17905 3.91553 4e-06 0 -0.00833991 -0 0.209288 0.062198 
-1.32096 3.91553 0.058773 -0.00855147 0 0 0.235124 0.062198 
-1.32096 4.06104 0.058773 -0.00855147 0 0 0.235124 0.062198 
-1.32096 4.06104 4e-06 -0.00855147 0 0 0.235124 0.062198 
-1.32096 3.91553 0.058773 -0.00855147 0 0 0.235124 0.062198 
-1.32096 4.06104 4e-06 -0.00855147 0 0 0.235124 0.062198 
-1.32096 3.91553 4e-06 -0.00855147 0 0 0.235124 0.062198 
-1.32096 2.36308 0.058773 -0 0.0083405 0 0.297952 0.062198 
-1.17904 2.36308 0.058773 -0 0.0083405 0 0.297952 0.062198 
-1.17904 2.36308 4e-06 -0 0.0083405 0 0.297952 0.062198 
-1.32096 2.36308 0.058773 0 0.0083405 0 0.297952 0.062198 
-1.17904 2.36308 4e-06 0 0.0083405 0 0.297952 0.062198 
-1.32096 2.36308 4e-06 0 0.0083405 0 0.297952 0.062198 
-1.17904 2.36308 0.058773 0.00855206 0 0 0.235124 0.062198 
-1.17904 2.21756 0.058773 0.00855206 0 0 0.235124 0.062198 
-1.17904 2.21756 4e-06 0.00855206 0 0 0.235124 0.062198 
-1.17904 2.36308 0.058773 0.00855206 0 0 0.235124 0.062198 
-1.17904 2.21756 4e-06 0.00855206 0 0 0.235124 0.062198 
-1.17904 2.36308 4e-06 0.00855206 0 0 0.235124 0.062198 
-1.17904 2.21756 0.058773 -0 -0.0083405 0 0.209288 0.062198 
-1.32096 2.21756 0.058773 -0 -0.0083405 0 0.209288 0.062198 
-1.32096 2.21756 4e-06 -0 -0.0083405 0 0.209288 0.062198 
-1.17904 2.21756 0.058773 0 -0.0083405 -0 0.209288 0.062198 
-1.32096 2.21756 4e-06 0 -0.0083405 -0 0.209288 0.062198 
-1.17904 2.21756 4e-06 0 -0.0083405 -0 0.209288 0.062198 
-1.32096 2.21756 0.058773 -0.00855206 0 0 0.235124 0.062198 
-1.32096 2.36308 0.058773 -0.00855206 0 0 0.235124 0.062198 
-1.32096 2.36308 4e-06 -0.00855206 0 0 0.235124 0.062198 
-1.32096 2.21756 0.058773 -0.00855206 0 0 0.235124 0.062198 
-1.32096 2.36308 4e-06 -0.00855206 0 0 0.235124 0.062198 
-1.32096 2.21756 4e-06 -0.00855206 0 0 0.235124 0.062198 
-5 4 0 0 0 1.25 0.750427 0.789687 
-3.75 4 0 0 0 1.25 0.8862 0.789687 
-3.75 5 0 0 0 1.25 0.8862 0.873158 
-5 4 0 0 0 1.25 0.750427 0.789687 
-3.75 5 0 0 0 1.25 0.8862 0.873158 
-5 5 0 0 0 1.25 0.750427 0.873158 
-2.5 4 0 0 0 1.25 0.750426 0.789687 
-1.25 4 0 0 0 1.25 0.8862 0.789687 
-1.25 5 0 0 0 1.25 0.8862 0.873158 
-2.5 4 0 0 0 1.25 0.750426 0.789687 
-1.25 5 0 0 0 1.25 0.8862 0.873158 
-2.5 5 0 0 0 1.25 0.750426 0.873158 
-3.75 4 0 0 0 1.25 0.750427 0.789687 
-2.5 4 0 0 0 1.25 0.8862 0.789687 
-2.5 5 0 0 0 1.25 0.8862 0.873158 
-3.75 4 0 0 0 1.25 0.750427 0.789687 
-2.5 5 0 0 0 1.25 0.8862 0.873158 
-3.75 5 0 0 0 1.25 0.750427 0.873158 
0 5 0 0 0 1.25 0.8862 0.873158 
-1.25 5 0 0 0 1.25 0.750427 0.873158 
-1.25 4 0 0 0 1.25 0.750427 0.789687 
0 5 0 0 0 1.25 0.8862 0.873158 
-1.25 4 0 0 0 1.25 0.750427 0.789687 
0 4 0 0 0 1.25 0.8862 0.789687 
-3.75 0 0 0 -0 5 0.990896 0.640965 
-3.75 4 0 0 -0 5 0.990896 0.701964 
-5 4 0 0 -0 5 0.919392 0.701964 
-3.75 0 0 0 0 5 0.990896 0.640965 
-5 4 0 0 0 5 0.919392 0.701964 
-5 0 0 0 0 5 0.919392 0.640965 
-2.5 0 0 0 -0 5 0.990895 0.640965 
-2.5 4 0 0 -0 5 0.990895 0.701964 
-3.75 4 0 0 -0 5 0.919392 0.701964 
-2.5 0 0 0 0 5 0.990895 0.640965 
-3.75 4 0 0 0 5 0.919392 0.701964 
-3.75 0 0 0 0 5 0.919392 0.640965 
-1.25 0 0 0 -0 5 0.990895 0.640965 
-1.25 4 0 0 -0 5 0.990895 0.701964 
-2.5 4 0 0 -0 5 0.919392 0.701964 
-1.25 0 0 0 0 5 0.990895 0.640965 
-2.5 4 0 0 0 5 0.919392 0.701964 
-2.5 0 0 0 0 5 0.919392 0.640965 
0 4 0 0 0 5 0.990896 0.701964 
-1.25 4 0 0 0 5 0.919392 0.701964 
-1.25 0 0 0 0 5 0.919392 0.640965 
0 4 0 0 0 5 0.990896 0.701964 
-1.25 0 0 0 0 5 0.919392 0.640965 
0 0 0 0 0 5 0.990896 0.640965 
3 0 1 2
3 3 4 5
3 6 7 8
3 9 10 11
3 12 13 14
3 15 16 17
3 18 19 20
3 21 22 23
3 24 25 26
3 27 28 29
3 30 31 32
3 33 34 35
3 36 37 38
3 39 40 41
3 42 43 44
3 45 46 47
3 48 49 50
3 51 52 53
3 54 55 56
3 57 58 59
3 60 61 62
3 63 64 65
3 66 67 68
3 69 70 71
3 72 73 74
3 75 76 77
3 78 79 80
3 81 82 83
3 84 85 86
3 87 88 89
3 90 91 92
3 93 94 95
3 96 97 98
3 99 100 101
3 102 103 104
3 105 106 107
3 108 109 110
3 111 112 113
3 114 115 116
3 117 118 119
3 120 121 122
3 123 124 125
3 126 127 128
3 129 130 131
3 132 133 134
3 135 136 137
3 138 139 140
3 141 142 143
3 144 145 146
3 147 148 149
3 150 151 152
3 153 154 155
3 156 157 158
3 159 160 161
3 162 163 164
3 165 166 167
3 168 169 170
3 171 172 173
3 174 175 176
3 177 178 179
3 180 181 182
3 183 184 185
3 186 187 188
3 189 190 191
3 192 193 194
3 195 196 197
3 198 199 200
3 201 202 203
3 204 205 206
3 207 208 209
3 210 211 212
3 213 214 215
3 216 217 218
3 219 220 221
3 222 223 224
3 225 226 227
3 228 229 230
3 231 232 233
3 234 235 236
3 237 238 239
3 240 241 242
3 243 244 245
3 246 247 248
3 249 250 251
3 252 253 254
3 255 256 257
3 258 259 260
3 261 262 263
3 264 265 266
3 267 268 269
3 270 271 272
3 273 274 275
3 276 277 278
3 279 280 281
3 282 283 284
3 285 286 287
3 288 289 290
3 291 292 293
3 294 295 296
3 297 298 299
3 300 301 302
3 303 304 305
3 306 307 308
3 309 310 311
3 312 313 314
3 315 316 317
3 318 319 320
3 321 322 323
3 324 325 326
3 327 328 329
3 330 331 332
3 333 334 335
3 336 337 338
3 339 340 341
3 342 343 344
3 345 346 347
3 348 349 350
3 351 352 353
3 354 355 356
3 357 358 359
3 360 361 362
3 363 364 365
3 366 367 368
3 369 370 371
3 372 373 374
3 375 376 377
3 378 379 380
3 381 382 383
