ply
format ascii 1.0
comment Feeney's Flatenator generated
comment TextureFile SpaceInteriors_Texture.png
element vertex 12
property float x
property float y
property float z
property float nx
property float ny
property float nz
element face 4
property list uchar int vertex_indices
end_header
-4.66568 0.196164 -0.33432 -0 18.7608 0 
-0.334309 0.196164 -0.33432 -0 18.7608 0 
-0.334309 0.196164 -4.6657 -0 18.7608 0 
-4.66568 0.196164 -0.33432 0 18.7608 0 
-0.334309 0.196164 -4.6657 0 18.7608 0 
-4.66568 0.196164 -4.6657 0 18.7608 0 
-4.66568 -3e-06 -4.6657 0 -18.7608 0 
-0.334309 -3e-06 -4.6657 0 -18.7608 0 
-0.334309 -3e-06 -0.33432 0 -18.7608 0 
-4.66568 -3e-06 -4.6657 0 -18.7608 0 
-0.334309 -3e-06 -0.33432 0 -18.7608 0 
-4.66568 -3e-06 -0.33432 0 -18.7608 0 
3 0 1 2
3 3 4 5
3 6 7 8
3 9 10 11
