ply
format ascii 1.0
comment Feeney's Flatenator generated
comment TextureFile SpaceInteriors_Texture.png
element vertex 30
property float x
property float y
property float z
property float nx
property float ny
property float nz
property float texture_u
property float texture_v
element face 10
property list uchar int vertex_indices
end_header
-10 0 -9.34991 -0 6.5009 0 0.275592 0.060173 
0 0 -9.34991 -0 6.5009 0 0.275592 0.060173 
0 0 -10 -0 6.5009 0 0.275592 0.060173 
-10 0 -9.34991 0 6.5009 0 0.275592 0.060173 
0 0 -10 0 6.5009 0 0.275592 0.060173 
-10 0 -10 0 6.5009 0 0.275592 0.060173 
-10 0 -9.05 -0 2.9991 0 0.202744 0.170573 
0 0 -9.05 -0 2.9991 0 0.202744 0.170573 
0 0 -9.34991 -0 2.9991 0 0.202744 0.170573 
-10 0 -9.05 0 2.9991 0 0.202744 0.170573 
0 0 -9.34991 0 2.9991 0 0.202744 0.170573 
-10 0 -9.34991 0 2.9991 0 0.202744 0.170573 
0 0 0 0 6.50089 0 0.275592 0.060173 
0 0 -0.650089 0 6.50089 0 0.275592 0.060173 
-10 0 -0.650089 0 6.50089 0 0.275592 0.060173 
0 0 0 0 6.50089 0 0.275592 0.060173 
-10 0 -0.650089 0 6.50089 0 0.275592 0.060173 
-10 0 0 0 6.50089 0 0.275592 0.060173 
-10 0 -0.650089 -0 2.99912 0 0.202744 0.170573 
0 0 -0.650089 -0 2.99912 0 0.202744 0.170573 
0 0 -0.950001 -0 2.99912 0 0.202744 0.170573 
-10 0 -0.650089 0 2.99912 0 0.202744 0.170573 
0 0 -0.950001 0 2.99912 0 0.202744 0.170573 
-10 0 -0.950001 0 2.99912 0 0.202744 0.170573 
0 0 -0.950001 0 81 0 0.275592 0.060173 
0 0 -9.05 0 81 0 0.275592 0.060173 
-10 0 -9.05 0 81 0 0.275592 0.060173 
0 0 -0.950001 0 81 0 0.275592 0.060173 
-10 0 -9.05 0 81 0 0.275592 0.060173 
-10 0 -0.950001 0 81 0 0.275592 0.060173 
3 0 1 2
3 3 4 5
3 6 7 8
3 9 10 11
3 12 13 14
3 15 16 17
3 18 19 20
3 21 22 23
3 24 25 26
3 27 28 29
