ply
format ascii 1.0
comment Feeney's Flatenator generated
comment TextureFile SpaceInteriors_Texture.png
element vertex 6
property float x
property float y
property float z
property float nx
property float ny
property float nz
property float texture_u
property float texture_v
element face 2
property list uchar int vertex_indices
end_header
-2e-06 5 0 0 0 25 0.988669 0.701531 
-5 5 0 0 0 25 0.921255 0.701531 
-5 0 0 0 0 25 0.921255 0.641378 
-2e-06 5 0 0 0 25 0.988669 0.701531 
-5 0 0 0 0 25 0.921255 0.641378 
-2e-06 0 0 0 0 25 0.988669 0.641378 
3 0 1 2
3 3 4 5
