ply
format ascii 1.0
comment Feeney's Flatenator generated
comment TextureFile SpaceInteriors_Texture.png
element vertex 426
property float x
property float y
property float z
property float nx
property float ny
property float nz
property uchar red
property uchar green
property uchar blue
property uchar alpha
element face 142
property list uchar int vertex_indices
end_header
-3.79311 2.24611 0.283115 0 0 0.154021 108 105 102 255 
-3.70689 2.24611 0.283115 0 0 0.154021 108 105 102 255 
-3.70689 4.03249 0.283115 0 0 0.154021 108 105 102 255 
-3.79311 2.24611 0.283115 0 0 0.154021 108 105 102 255 
-3.70689 4.03249 0.283115 0 0 0.154021 108 105 102 255 
-3.79311 4.03249 0.283115 0 0 0.154021 108 105 102 255 
-3.79311 3.94408 0.196896 0 0 -0.138776 108 105 102 255 
-3.70689 3.94408 0.196896 0 0 -0.138776 108 105 102 255 
-3.70689 2.33452 0.196896 0 0 -0.138776 108 105 102 255 
-3.79311 3.94408 0.196896 0 0 -0.138776 108 105 102 255 
-3.70689 2.33452 0.196896 0 0 -0.138776 108 105 102 255 
-3.79311 2.33452 0.196896 0 0 -0.138776 108 105 102 255 
-3.70689 2.24611 0.283115 0.138775 0 0 91 88 86 255 
-3.70689 2.33452 0.196896 0.138775 0 0 91 88 86 255 
-3.70689 3.94408 0.196896 0.138775 0 0 91 88 86 255 
-3.70689 2.24611 0.283115 0.15402 -0 0 91 88 86 255 
-3.70689 3.94408 0.196896 0.15402 -0 0 91 88 86 255 
-3.70689 4.03249 0.283115 0.15402 -0 0 91 88 86 255 
-3.79311 2.33452 0.196896 -0.15402 0 0 91 88 86 255 
-3.79311 2.24611 0.283115 -0.15402 0 0 91 88 86 255 
-3.79311 4.03249 0.283115 -0.15402 0 0 91 88 86 255 
-3.79311 2.33452 0.196896 -0.138775 0 0 91 88 86 255 
-3.79311 4.03249 0.283115 -0.138775 0 0 91 88 86 255 
-3.79311 3.94408 0.196896 -0.138775 0 0 91 88 86 255 
-3.79311 4.03249 0.283115 -0 0.0193427 0 125 121 118 255 
-3.70689 4.03249 0.283115 -0 0.0193427 0 125 121 118 255 
-3.70689 4.03249 0.058773 -0 0.0193427 0 125 121 118 255 
-3.79311 4.03249 0.283115 0 0.0193427 0 125 121 118 255 
-3.70689 4.03249 0.058773 0 0.0193427 0 125 121 118 255 
-3.79311 4.03249 0.058773 0 0.0193427 0 125 121 118 255 
-3.70689 4.03249 0.283115 0.0122114 0 0 91 88 86 255 
-3.70689 3.94408 0.196896 0.0122114 0 0 91 88 86 255 
-3.70689 3.94408 0.058773 0.0122114 0 0 91 88 86 255 
-3.70689 4.03249 0.283115 0.019834 0 0 91 88 86 255 
-3.70689 3.94408 0.058773 0.019834 0 0 91 88 86 255 
-3.70689 4.03249 0.058773 0.019834 0 0 91 88 86 255 
-3.70689 3.94408 0.196896 -0 -0.0119089 0 75 72 70 255 
-3.79311 3.94408 0.196896 -0 -0.0119089 0 75 72 70 255 
-3.79311 3.94408 0.058773 -0 -0.0119089 0 75 72 70 255 
-3.70689 3.94408 0.196896 0 -0.0119089 -0 75 72 70 255 
-3.79311 3.94408 0.058773 0 -0.0119089 -0 75 72 70 255 
-3.70689 3.94408 0.058773 0 -0.0119089 -0 75 72 70 255 
-3.79311 3.94408 0.196896 -0.019834 0 0 91 88 86 255 
-3.79311 4.03249 0.283115 -0.019834 0 0 91 88 86 255 
-3.79311 4.03249 0.058773 -0.019834 0 0 91 88 86 255 
-3.79311 3.94408 0.196896 -0.0122114 0 0 91 88 86 255 
-3.79311 4.03249 0.058773 -0.0122114 0 0 91 88 86 255 
-3.79311 3.94408 0.058773 -0.0122114 0 0 91 88 86 255 
-3.79311 2.33452 0.196896 -0 0.0119089 0 125 121 118 255 
-3.70689 2.33452 0.196896 -0 0.0119089 0 125 121 118 255 
-3.70689 2.33452 0.058773 -0 0.0119089 0 125 121 118 255 
-3.79311 2.33452 0.196896 0 0.0119089 0 125 121 118 255 
-3.70689 2.33452 0.058773 0 0.0119089 0 125 121 118 255 
-3.79311 2.33452 0.058773 0 0.0119089 0 125 121 118 255 
-3.70689 2.33452 0.196896 0.0198341 0 0 91 88 86 255 
-3.70689 2.24611 0.283115 0.0198341 0 0 91 88 86 255 
-3.70689 2.24611 0.058773 0.0198341 0 0 91 88 86 255 
-3.70689 2.33452 0.196896 0.0122115 0 0 91 88 86 255 
-3.70689 2.24611 0.058773 0.0122115 0 0 91 88 86 255 
-3.70689 2.33452 0.058773 0.0122115 0 0 91 88 86 255 
-3.70689 2.24611 0.283115 -0 -0.0193427 0 75 72 70 255 
-3.79311 2.24611 0.283115 -0 -0.0193427 0 75 72 70 255 
-3.79311 2.24611 0.058773 -0 -0.0193427 0 75 72 70 255 
-3.70689 2.24611 0.283115 0 -0.0193427 -0 75 72 70 255 
-3.79311 2.24611 0.058773 0 -0.0193427 -0 75 72 70 255 
-3.70689 2.24611 0.058773 0 -0.0193427 -0 75 72 70 255 
-3.79311 2.24611 0.283115 -0.0122115 0 0 91 88 86 255 
-3.79311 2.33452 0.196896 -0.0122115 0 0 91 88 86 255 
-3.79311 2.33452 0.058773 -0.0122115 0 0 91 88 86 255 
-3.79311 2.24611 0.283115 -0.0198341 0 0 91 88 86 255 
-3.79311 2.33452 0.058773 -0.0198341 0 0 91 88 86 255 
-3.79311 2.24611 0.058773 -0.0198341 0 0 91 88 86 255 
-3.79311 4.03249 0.058773 0 0 0.00246159 108 105 102 255 
-3.70689 4.03249 0.058773 0 0 0.00246159 108 105 102 255 
-3.67905 4.06104 0.058773 0 0 0.00246159 108 105 102 255 
-3.79311 4.03249 0.058773 0 -0 0.00405155 108 105 102 255 
-3.67905 4.06104 0.058773 0 -0 0.00405155 108 105 102 255 
-3.82096 4.06104 0.058773 0 -0 0.00405155 108 105 102 255 
-3.70689 4.03249 0.058773 0 0 0.00246134 108 105 102 255 
-3.70689 3.94408 0.058773 0 0 0.00246134 108 105 102 255 
-3.67905 3.91553 0.058773 0 0 0.00246134 108 105 102 255 
-3.70689 4.03249 0.058773 -0 0 0.00405102 108 105 102 255 
-3.67905 3.91553 0.058773 -0 0 0.00405102 108 105 102 255 
-3.67905 4.06104 0.058773 -0 0 0.00405102 108 105 102 255 
-3.70689 3.94408 0.058773 0 0 0.00246159 108 105 102 255 
-3.79311 3.94408 0.058773 0 0 0.00246159 108 105 102 255 
-3.82096 3.91553 0.058773 0 0 0.00246159 108 105 102 255 
-3.70689 3.94408 0.058773 0 0 0.00405155 108 105 102 255 
-3.82096 3.91553 0.058773 0 0 0.00405155 108 105 102 255 
-3.67905 3.91553 0.058773 0 0 0.00405155 108 105 102 255 
-3.79311 3.94408 0.058773 0 -0 0.00246222 108 105 102 255 
-3.79311 4.03249 0.058773 0 -0 0.00246222 108 105 102 255 
-3.82096 4.06104 0.058773 0 -0 0.00246222 108 105 102 255 
-3.79311 3.94408 0.058773 0 0 0.00405247 108 105 102 255 
-3.82096 4.06104 0.058773 0 0 0.00405247 108 105 102 255 
-3.82096 3.91553 0.058773 0 0 0.00405247 108 105 102 255 
-3.79311 2.33452 0.058773 0 0 0.00246243 108 105 102 255 
-3.70689 2.33452 0.058773 0 0 0.00246243 108 105 102 255 
-3.67904 2.36308 0.058773 0 0 0.00246243 108 105 102 255 
-3.79311 2.33452 0.058773 0 -0 0.00405323 108 105 102 255 
-3.67904 2.36308 0.058773 0 -0 0.00405323 108 105 102 255 
-3.82096 2.36308 0.058773 0 -0 0.00405323 108 105 102 255 
-3.70689 2.33452 0.058773 0 0 0.00246224 108 105 102 255 
-3.70689 2.24611 0.058773 0 0 0.00246224 108 105 102 255 
-3.67904 2.21756 0.058773 0 0 0.00246224 108 105 102 255 
-3.70689 2.33452 0.058773 -0 0 0.00405275 108 105 102 255 
-3.67904 2.21756 0.058773 -0 0 0.00405275 108 105 102 255 
-3.67904 2.36308 0.058773 -0 0 0.00405275 108 105 102 255 
-3.70689 2.24611 0.058773 0 0 0.00246157 108 105 102 255 
-3.79311 2.24611 0.058773 0 0 0.00246157 108 105 102 255 
-3.82096 2.21756 0.058773 0 0 0.00246157 108 105 102 255 
-3.70689 2.24611 0.058773 0 0 0.00405181 108 105 102 255 
-3.82096 2.21756 0.058773 0 0 0.00405181 108 105 102 255 
-3.67904 2.21756 0.058773 0 0 0.00405181 108 105 102 255 
-3.79311 2.24611 0.058773 0 -0 0.00246224 108 105 102 255 
-3.79311 2.33452 0.058773 0 -0 0.00246224 108 105 102 255 
-3.82096 2.36308 0.058773 0 -0 0.00246224 108 105 102 255 
-3.79311 2.24611 0.058773 0 0 0.00405275 108 105 102 255 
-3.82096 2.36308 0.058773 0 0 0.00405275 108 105 102 255 
-3.82096 2.21756 0.058773 0 0 0.00405275 108 105 102 255 
-3.82096 4.06104 0.058773 -0 0.00833991 0 125 121 118 255 
-3.67905 4.06104 0.058773 -0 0.00833991 0 125 121 118 255 
-3.67905 4.06104 4e-06 -0 0.00833991 0 125 121 118 255 
-3.82096 4.06104 0.058773 0 0.00833991 0 125 121 118 255 
-3.67905 4.06104 4e-06 0 0.00833991 0 125 121 118 255 
-3.82096 4.06104 4e-06 0 0.00833991 0 125 121 118 255 
-3.67905 4.06104 0.058773 0.00855147 0 0 91 88 86 255 
-3.67905 3.91553 0.058773 0.00855147 0 0 91 88 86 255 
-3.67905 3.91553 4e-06 0.00855147 0 0 91 88 86 255 
-3.67905 4.06104 0.058773 0.00855147 0 0 91 88 86 255 
-3.67905 3.91553 4e-06 0.00855147 0 0 91 88 86 255 
-3.67905 4.06104 4e-06 0.00855147 0 0 91 88 86 255 
-3.67905 3.91553 0.058773 -0 -0.00833991 0 75 72 70 255 
-3.82096 3.91553 0.058773 -0 -0.00833991 0 75 72 70 255 
-3.82096 3.91553 4e-06 -0 -0.00833991 0 75 72 70 255 
-3.67905 3.91553 0.058773 0 -0.00833991 -0 75 72 70 255 
-3.82096 3.91553 4e-06 0 -0.00833991 -0 75 72 70 255 
-3.67905 3.91553 4e-06 0 -0.00833991 -0 75 72 70 255 
-3.82096 3.91553 0.058773 -0.00855147 0 0 91 88 86 255 
-3.82096 4.06104 0.058773 -0.00855147 0 0 91 88 86 255 
-3.82096 4.06104 4e-06 -0.00855147 0 0 91 88 86 255 
-3.82096 3.91553 0.058773 -0.00855147 0 0 91 88 86 255 
-3.82096 4.06104 4e-06 -0.00855147 0 0 91 88 86 255 
-3.82096 3.91553 4e-06 -0.00855147 0 0 91 88 86 255 
-3.82096 2.36308 0.058773 -0 0.0083405 0 125 121 118 255 
-3.67904 2.36308 0.058773 -0 0.0083405 0 125 121 118 255 
-3.67904 2.36308 4e-06 -0 0.0083405 0 125 121 118 255 
-3.82096 2.36308 0.058773 0 0.0083405 0 125 121 118 255 
-3.67904 2.36308 4e-06 0 0.0083405 0 125 121 118 255 
-3.82096 2.36308 4e-06 0 0.0083405 0 125 121 118 255 
-3.67904 2.36308 0.058773 0.00855206 0 0 91 88 86 255 
-3.67904 2.21756 0.058773 0.00855206 0 0 91 88 86 255 
-3.67904 2.21756 4e-06 0.00855206 0 0 91 88 86 255 
-3.67904 2.36308 0.058773 0.00855206 0 0 91 88 86 255 
-3.67904 2.21756 4e-06 0.00855206 0 0 91 88 86 255 
-3.67904 2.36308 4e-06 0.00855206 0 0 91 88 86 255 
-3.67904 2.21756 0.058773 -0 -0.0083405 0 75 72 70 255 
-3.82096 2.21756 0.058773 -0 -0.0083405 0 75 72 70 255 
-3.82096 2.21756 4e-06 -0 -0.0083405 0 75 72 70 255 
-3.67904 2.21756 0.058773 0 -0.0083405 -0 75 72 70 255 
-3.82096 2.21756 4e-06 0 -0.0083405 -0 75 72 70 255 
-3.67904 2.21756 4e-06 0 -0.0083405 -0 75 72 70 255 
-3.82096 2.21756 0.058773 -0.00855206 0 0 91 88 86 255 
-3.82096 2.36308 0.058773 -0.00855206 0 0 91 88 86 255 
-3.82096 2.36308 4e-06 -0.00855206 0 0 91 88 86 255 
-3.82096 2.21756 0.058773 -0.00855206 0 0 91 88 86 255 
-3.82096 2.36308 4e-06 -0.00855206 0 0 91 88 86 255 
-3.82096 2.21756 4e-06 -0.00855206 0 0 91 88 86 255 
-1.29311 2.24611 0.283115 0 0 0.154022 108 105 102 255 
-1.20689 2.24611 0.283115 0 0 0.154022 108 105 102 255 
-1.20689 4.03249 0.283115 0 0 0.154022 108 105 102 255 
-1.29311 2.24611 0.283115 0 0 0.154022 108 105 102 255 
-1.20689 4.03249 0.283115 0 0 0.154022 108 105 102 255 
-1.29311 4.03249 0.283115 0 0 0.154022 108 105 102 255 
-1.29311 3.94408 0.196896 0 0 -0.138776 108 105 102 255 
-1.20689 3.94408 0.196896 0 0 -0.138776 108 105 102 255 
-1.20689 2.33452 0.196896 0 0 -0.138776 108 105 102 255 
-1.29311 3.94408 0.196896 0 0 -0.138776 108 105 102 255 
-1.20689 2.33452 0.196896 0 0 -0.138776 108 105 102 255 
-1.29311 2.33452 0.196896 0 0 -0.138776 108 105 102 255 
-1.20689 2.24611 0.283115 0.138775 0 0 91 88 86 255 
-1.20689 2.33452 0.196896 0.138775 0 0 91 88 86 255 
-1.20689 3.94408 0.196896 0.138775 0 0 91 88 86 255 
-1.20689 2.24611 0.283115 0.15402 -0 0 91 88 86 255 
-1.20689 3.94408 0.196896 0.15402 -0 0 91 88 86 255 
-1.20689 4.03249 0.283115 0.15402 -0 0 91 88 86 255 
-1.29311 2.33452 0.196896 -0.15402 0 0 91 88 86 255 
-1.29311 2.24611 0.283115 -0.15402 0 0 91 88 86 255 
-1.29311 4.03249 0.283115 -0.15402 0 0 91 88 86 255 
-1.29311 2.33452 0.196896 -0.138775 0 0 91 88 86 255 
-1.29311 4.03249 0.283115 -0.138775 0 0 91 88 86 255 
-1.29311 3.94408 0.196896 -0.138775 0 0 91 88 86 255 
-1.29311 4.03249 0.283115 -0 0.0193428 0 125 121 118 255 
-1.20689 4.03249 0.283115 -0 0.0193428 0 125 121 118 255 
-1.20689 4.03249 0.058773 -0 0.0193428 0 125 121 118 255 
-1.29311 4.03249 0.283115 0 0.0193428 0 125 121 118 255 
-1.20689 4.03249 0.058773 0 0.0193428 0 125 121 118 255 
-1.29311 4.03249 0.058773 0 0.0193428 0 125 121 118 255 
-1.20689 4.03249 0.283115 0.0122114 0 0 91 88 86 255 
-1.20689 3.94408 0.196896 0.0122114 0 0 91 88 86 255 
-1.20689 3.94408 0.058773 0.0122114 0 0 91 88 86 255 
-1.20689 4.03249 0.283115 0.019834 0 0 91 88 86 255 
-1.20689 3.94408 0.058773 0.019834 0 0 91 88 86 255 
-1.20689 4.03249 0.058773 0.019834 0 0 91 88 86 255 
-1.20689 3.94408 0.196896 -0 -0.011909 0 75 72 70 255 
-1.29311 3.94408 0.196896 -0 -0.011909 0 75 72 70 255 
-1.29311 3.94408 0.058773 -0 -0.011909 0 75 72 70 255 
-1.20689 3.94408 0.196896 0 -0.011909 -0 75 72 70 255 
-1.29311 3.94408 0.058773 0 -0.011909 -0 75 72 70 255 
-1.20689 3.94408 0.058773 0 -0.011909 -0 75 72 70 255 
-1.29311 3.94408 0.196896 -0.019834 0 0 91 88 86 255 
-1.29311 4.03249 0.283115 -0.019834 0 0 91 88 86 255 
-1.29311 4.03249 0.058773 -0.019834 0 0 91 88 86 255 
-1.29311 3.94408 0.196896 -0.0122114 0 0 91 88 86 255 
-1.29311 4.03249 0.058773 -0.0122114 0 0 91 88 86 255 
-1.29311 3.94408 0.058773 -0.0122114 0 0 91 88 86 255 
-1.29311 2.33452 0.196896 -0 0.011909 0 125 121 118 255 
-1.20689 2.33452 0.196896 -0 0.011909 0 125 121 118 255 
-1.20689 2.33452 0.058773 -0 0.011909 0 125 121 118 255 
-1.29311 2.33452 0.196896 0 0.011909 0 125 121 118 255 
-1.20689 2.33452 0.058773 0 0.011909 0 125 121 118 255 
-1.29311 2.33452 0.058773 0 0.011909 0 125 121 118 255 
-1.20689 2.33452 0.196896 0.0198341 0 0 91 88 86 255 
-1.20689 2.24611 0.283115 0.0198341 0 0 91 88 86 255 
-1.20689 2.24611 0.058773 0.0198341 0 0 91 88 86 255 
-1.20689 2.33452 0.196896 0.0122115 0 0 91 88 86 255 
-1.20689 2.24611 0.058773 0.0122115 0 0 91 88 86 255 
-1.20689 2.33452 0.058773 0.0122115 0 0 91 88 86 255 
-1.20689 2.24611 0.283115 -0 -0.0193428 0 75 72 70 255 
-1.29311 2.24611 0.283115 -0 -0.0193428 0 75 72 70 255 
-1.29311 2.24611 0.058773 -0 -0.0193428 0 75 72 70 255 
-1.20689 2.24611 0.283115 0 -0.0193428 -0 75 72 70 255 
-1.29311 2.24611 0.058773 0 -0.0193428 -0 75 72 70 255 
-1.20689 2.24611 0.058773 0 -0.0193428 -0 75 72 70 255 
-1.29311 2.24611 0.283115 -0.0122115 0 0 91 88 86 255 
-1.29311 2.33452 0.196896 -0.0122115 0 0 91 88 86 255 
-1.29311 2.33452 0.058773 -0.0122115 0 0 91 88 86 255 
-1.29311 2.24611 0.283115 -0.0198341 0 0 91 88 86 255 
-1.29311 2.33452 0.058773 -0.0198341 0 0 91 88 86 255 
-1.29311 2.24611 0.058773 -0.0198341 0 0 91 88 86 255 
-1.29311 4.03249 0.058773 0 0 0.00246159 108 105 102 255 
-1.20689 4.03249 0.058773 0 0 0.00246159 108 105 102 255 
-1.17905 4.06104 0.058773 0 0 0.00246159 108 105 102 255 
-1.29311 4.03249 0.058773 0 -0 0.00405155 108 105 102 255 
-1.17905 4.06104 0.058773 0 -0 0.00405155 108 105 102 255 
-1.32096 4.06104 0.058773 0 -0 0.00405155 108 105 102 255 
-1.20689 4.03249 0.058773 0 0 0.00246133 108 105 102 255 
-1.20689 3.94408 0.058773 0 0 0.00246133 108 105 102 255 
-1.17905 3.91553 0.058773 0 0 0.00246133 108 105 102 255 
-1.20689 4.03249 0.058773 -0 0 0.004051 108 105 102 255 
-1.17905 3.91553 0.058773 -0 0 0.004051 108 105 102 255 
-1.17905 4.06104 0.058773 -0 0 0.004051 108 105 102 255 
-1.20689 3.94408 0.058773 0 0 0.00246159 108 105 102 255 
-1.29311 3.94408 0.058773 0 0 0.00246159 108 105 102 255 
-1.32096 3.91553 0.058773 0 0 0.00246159 108 105 102 255 
-1.20689 3.94408 0.058773 0 0 0.00405155 108 105 102 255 
-1.32096 3.91553 0.058773 0 0 0.00405155 108 105 102 255 
-1.17905 3.91553 0.058773 0 0 0.00405155 108 105 102 255 
-1.29311 3.94408 0.058773 0 -0 0.00246221 108 105 102 255 
-1.29311 4.03249 0.058773 0 -0 0.00246221 108 105 102 255 
-1.32096 4.06104 0.058773 0 -0 0.00246221 108 105 102 255 
-1.29311 3.94408 0.058773 0 0 0.00405246 108 105 102 255 
-1.32096 4.06104 0.058773 0 0 0.00405246 108 105 102 255 
-1.32096 3.91553 0.058773 0 0 0.00405246 108 105 102 255 
-1.29311 2.33452 0.058773 0 0 0.00246244 108 105 102 255 
-1.20689 2.33452 0.058773 0 0 0.00246244 108 105 102 255 
-1.17904 2.36308 0.058773 0 0 0.00246244 108 105 102 255 
-1.29311 2.33452 0.058773 0 -0 0.00405323 108 105 102 255 
-1.17904 2.36308 0.058773 0 -0 0.00405323 108 105 102 255 
-1.32096 2.36308 0.058773 0 -0 0.00405323 108 105 102 255 
-1.20689 2.33452 0.058773 0 0 0.00246223 108 105 102 255 
-1.20689 2.24611 0.058773 0 0 0.00246223 108 105 102 255 
-1.17904 2.21756 0.058773 0 0 0.00246223 108 105 102 255 
-1.20689 2.33452 0.058773 -0 0 0.00405274 108 105 102 255 
-1.17904 2.21756 0.058773 -0 0 0.00405274 108 105 102 255 
-1.17904 2.36308 0.058773 -0 0 0.00405274 108 105 102 255 
-1.20689 2.24611 0.058773 0 0 0.00246157 108 105 102 255 
-1.29311 2.24611 0.058773 0 0 0.00246157 108 105 102 255 
-1.32096 2.21756 0.058773 0 0 0.00246157 108 105 102 255 
-1.20689 2.24611 0.058773 0 0 0.00405181 108 105 102 255 
-1.32096 2.21756 0.058773 0 0 0.00405181 108 105 102 255 
-1.17904 2.21756 0.058773 0 0 0.00405181 108 105 102 255 
-1.29311 2.24611 0.058773 0 -0 0.00246223 108 105 102 255 
-1.29311 2.33452 0.058773 0 -0 0.00246223 108 105 102 255 
-1.32096 2.36308 0.058773 0 -0 0.00246223 108 105 102 255 
-1.29311 2.24611 0.058773 0 0 0.00405274 108 105 102 255 
-1.32096 2.36308 0.058773 0 0 0.00405274 108 105 102 255 
-1.32096 2.21756 0.058773 0 0 0.00405274 108 105 102 255 
-1.32096 4.06104 0.058773 -0 0.00833991 0 125 121 118 255 
-1.17905 4.06104 0.058773 -0 0.00833991 0 125 121 118 255 
-1.17905 4.06104 4e-06 -0 0.00833991 0 125 121 118 255 
-1.32096 4.06104 0.058773 0 0.00833991 0 125 121 118 255 
-1.17905 4.06104 4e-06 0 0.00833991 0 125 121 118 255 
-1.32096 4.06104 4e-06 0 0.00833991 0 125 121 118 255 
-1.17905 4.06104 0.058773 0.00855147 0 0 91 88 86 255 
-1.17905 3.91553 0.058773 0.00855147 0 0 91 88 86 255 
-1.17905 3.91553 4e-06 0.00855147 0 0 91 88 86 255 
-1.17905 4.06104 0.058773 0.00855147 0 0 91 88 86 255 
-1.17905 3.91553 4e-06 0.00855147 0 0 91 88 86 255 
-1.17905 4.06104 4e-06 0.00855147 0 0 91 88 86 255 
-1.17905 3.91553 0.058773 -0 -0.00833991 0 75 72 70 255 
-1.32096 3.91553 0.058773 -0 -0.00833991 0 75 72 70 255 
-1.32096 3.91553 4e-06 -0 -0.00833991 0 75 72 70 255 
-1.17905 3.91553 0.058773 0 -0.00833991 -0 75 72 70 255 
-1.32096 3.91553 4e-06 0 -0.00833991 -0 75 72 70 255 
-1.17905 3.91553 4e-06 0 -0.00833991 -0 75 72 70 255 
-1.32096 3.91553 0.058773 -0.00855147 0 0 91 88 86 255 
-1.32096 4.06104 0.058773 -0.00855147 0 0 91 88 86 255 
-1.32096 4.06104 4e-06 -0.00855147 0 0 91 88 86 255 
-1.32096 3.91553 0.058773 -0.00855147 0 0 91 88 86 255 
-1.32096 4.06104 4e-06 -0.00855147 0 0 91 88 86 255 
-1.32096 3.91553 4e-06 -0.00855147 0 0 91 88 86 255 
-1.32096 2.36308 0.058773 -0 0.0083405 0 125 121 118 255 
-1.17904 2.36308 0.058773 -0 0.0083405 0 125 121 118 255 
-1.17904 2.36308 4e-06 -0 0.0083405 0 125 121 118 255 
-1.32096 2.36308 0.058773 0 0.0083405 0 125 121 118 255 
-1.17904 2.36308 4e-06 0 0.0083405 0 125 121 118 255 
-1.32096 2.36308 4e-06 0 0.0083405 0 125 121 118 255 
-1.17904 2.36308 0.058773 0.00855206 0 0 91 88 86 255 
-1.17904 2.21756 0.058773 0.00855206 0 0 91 88 86 255 
-1.17904 2.21756 4e-06 0.00855206 0 0 91 88 86 255 
-1.17904 2.36308 0.058773 0.00855206 0 0 91 88 86 255 
-1.17904 2.21756 4e-06 0.00855206 0 0 91 88 86 255 
-1.17904 2.36308 4e-06 0.00855206 0 0 91 88 86 255 
-1.17904 2.21756 0.058773 -0 -0.0083405 0 75 72 70 255 
-1.32096 2.21756 0.058773 -0 -0.0083405 0 75 72 70 255 
-1.32096 2.21756 4e-06 -0 -0.0083405 0 75 72 70 255 
-1.17904 2.21756 0.058773 0 -0.0083405 -0 75 72 70 255 
-1.32096 2.21756 4e-06 0 -0.0083405 -0 75 72 70 255 
-1.17904 2.21756 4e-06 0 -0.0083405 -0 75 72 70 255 
-1.32096 2.21756 0.058773 -0.00855206 0 0 91 88 86 255 
-1.32096 2.36308 0.058773 -0.00855206 0 0 91 88 86 255 
-1.32096 2.36308 4e-06 -0.00855206 0 0 91 88 86 255 
-1.32096 2.21756 0.058773 -0.00855206 0 0 91 88 86 255 
-1.32096 2.36308 4e-06 -0.00855206 0 0 91 88 86 255 
-1.32096 2.21756 4e-06 -0.00855206 0 0 91 88 86 255 
-5 4 0 0 0 1.25 108 105 102 255 
-3.75 4 0 0 0 1.25 108 105 102 255 
-3.75 5 0 0 0 1.25 108 105 102 255 
-5 4 0 0 0 1.25 108 105 102 255 
-3.75 5 0 0 0 1.25 108 105 102 255 
-5 5 0 0 0 1.25 108 105 102 255 
-2.5 4 0 0 0 1.25 108 105 102 255 
-1.25 4 0 0 0 1.25 108 105 102 255 
-1.25 5 0 0 0 1.25 108 105 102 255 
-2.5 4 0 0 0 1.25 108 105 102 255 
-1.25 5 0 0 0 1.25 108 105 102 255 
-2.5 5 0 0 0 1.25 108 105 102 255 
-3.75 4 0 0 0 1.25 108 105 102 255 
-2.5 4 0 0 0 1.25 108 105 102 255 
-2.5 5 0 0 0 1.25 108 105 102 255 
-3.75 4 0 0 0 1.25 108 105 102 255 
-2.5 5 0 0 0 1.25 108 105 102 255 
-3.75 5 0 0 0 1.25 108 105 102 255 
0 5 0 0 0 1.25 108 105 102 255 
-1.25 5 0 0 0 1.25 108 105 102 255 
-1.25 4 0 0 0 1.25 108 105 102 255 
0 5 0 0 0 1.25 108 105 102 255 
-1.25 4 0 0 0 1.25 108 105 102 255 
0 4 0 0 0 1.25 108 105 102 255 
-3.75 0 0 0 -0 2.10121 108 105 102 255 
-3.75 1.68097 0 0 -0 2.10121 108 105 102 255 
-5 1.68097 0 0 -0 2.10121 108 105 102 255 
-3.75 0 0 0 0 2.10121 108 105 102 255 
-5 1.68097 0 0 0 2.10121 108 105 102 255 
-5 0 0 0 0 2.10121 108 105 102 255 
-3.75 4 0 0 0 1 108 105 102 255 
-3.75 3.2 0 0 0 1 108 105 102 255 
-2.5 0 0 0 0 1 108 105 102 255 
-3.75 4 0 0 0 0.73735 108 105 102 255 
-2.5 0 0 0 0 0.73735 108 105 102 255 
-2.5 0.58988 0 0 0 0.73735 108 105 102 255 
-3.75 4 0 -1.36405e-05 -5e-06 1.26265 108 105 102 255 
-2.5 0.58988 0 -1.36405e-05 -5e-06 1.26265 108 105 102 255 
-2.5 1.6 4e-06 -1.36405e-05 -5e-06 1.26265 108 105 102 255 
-3.75 4 0 -0 5e-06 3 108 105 102 255 
-2.5 1.6 4e-06 -0 5e-06 3 108 105 102 255 
-2.5 4 0 -0 5e-06 3 108 105 102 255 
-3.75 1.68097 0 0 0 2.10121 108 105 102 255 
-3.75 0 0 0 0 2.10121 108 105 102 255 
-2.5 0 0 0 0 2.10121 108 105 102 255 
-3.75 1.68097 0 -0 0 1.89879 108 105 102 255 
-2.5 0 0 -0 0 1.89879 108 105 102 255 
-3.75 3.2 0 -0 0 1.89879 108 105 102 255 
-2.5 1.6 4e-06 -0 5e-06 3 108 105 102 255 
-1.25 1.6 4e-06 -0 5e-06 3 108 105 102 255 
-1.25 4 0 -0 5e-06 3 108 105 102 255 
-2.5 1.6 4e-06 0 5e-06 3 108 105 102 255 
-1.25 4 0 0 5e-06 3 108 105 102 255 
-2.5 4 0 0 5e-06 3 108 105 102 255 
0 4 0 0 5e-06 3 108 105 102 255 
-1.25 4 0 0 5e-06 3 108 105 102 255 
-1.25 1.6 4e-06 0 5e-06 3 108 105 102 255 
0 4 0 1.36405e-05 -5e-06 1.26265 108 105 102 255 
-1.25 1.6 4e-06 1.36405e-05 -5e-06 1.26265 108 105 102 255 
-1.25 0.58988 0 1.36405e-05 -5e-06 1.26265 108 105 102 255 
0 4 0 0 0 0.73735 108 105 102 255 
-1.25 0.58988 0 0 0 0.73735 108 105 102 255 
-1.25 0 0 0 0 0.73735 108 105 102 255 
0 4 0 0 0 5 108 105 102 255 
-1.25 0 0 0 0 5 108 105 102 255 
0 0 0 0 0 5 108 105 102 255 
-2.5 0.58988 0 0 -5e-06 1.26265 108 105 102 255 
-1.25 0.58988 0 0 -5e-06 1.26265 108 105 102 255 
-1.25 1.6 4e-06 0 -5e-06 1.26265 108 105 102 255 
-2.5 0.58988 0 0 -5e-06 1.26265 108 105 102 255 
-1.25 1.6 4e-06 0 -5e-06 1.26265 108 105 102 255 
-2.5 1.6 4e-06 0 -5e-06 1.26265 108 105 102 255 
-1.25 0 0 0 -0 0.73735 108 105 102 255 
-1.25 0.58988 0 0 -0 0.73735 108 105 102 255 
-2.5 0.58988 0 0 -0 0.73735 108 105 102 255 
-1.25 0 0 0 0 0.73735 108 105 102 255 
-2.5 0.58988 0 0 0 0.73735 108 105 102 255 
-2.5 0 0 0 0 0.73735 108 105 102 255 
-5 3.2 0 0 0 1 108 105 102 255 
-3.75 3.2 0 0 0 1 108 105 102 255 
-3.75 4 0 0 0 1 108 105 102 255 
-5 3.2 0 0 0 1 108 105 102 255 
-3.75 4 0 0 0 1 108 105 102 255 
-5 4 0 0 0 1 108 105 102 255 
-5 1.68097 0 0 0 1.89879 108 105 102 255 
-3.75 1.68097 0 0 0 1.89879 108 105 102 255 
-3.75 3.2 0 0 0 1.89879 108 105 102 255 
-5 1.68097 0 0 0 1.89879 108 105 102 255 
-3.75 3.2 0 0 0 1.89879 108 105 102 255 
-5 3.2 0 0 0 1.89879 108 105 102 255 
3 0 1 2
3 3 4 5
3 6 7 8
3 9 10 11
3 12 13 14
3 15 16 17
3 18 19 20
3 21 22 23
3 24 25 26
3 27 28 29
3 30 31 32
3 33 34 35
3 36 37 38
3 39 40 41
3 42 43 44
3 45 46 47
3 48 49 50
3 51 52 53
3 54 55 56
3 57 58 59
3 60 61 62
3 63 64 65
3 66 67 68
3 69 70 71
3 72 73 74
3 75 76 77
3 78 79 80
3 81 82 83
3 84 85 86
3 87 88 89
3 90 91 92
3 93 94 95
3 96 97 98
3 99 100 101
3 102 103 104
3 105 106 107
3 108 109 110
3 111 112 113
3 114 115 116
3 117 118 119
3 120 121 122
3 123 124 125
3 126 127 128
3 129 130 131
3 132 133 134
3 135 136 137
3 138 139 140
3 141 142 143
3 144 145 146
3 147 148 149
3 150 151 152
3 153 154 155
3 156 157 158
3 159 160 161
3 162 163 164
3 165 166 167
3 168 169 170
3 171 172 173
3 174 175 176
3 177 178 179
3 180 181 182
3 183 184 185
3 186 187 188
3 189 190 191
3 192 193 194
3 195 196 197
3 198 199 200
3 201 202 203
3 204 205 206
3 207 208 209
3 210 211 212
3 213 214 215
3 216 217 218
3 219 220 221
3 222 223 224
3 225 226 227
3 228 229 230
3 231 232 233
3 234 235 236
3 237 238 239
3 240 241 242
3 243 244 245
3 246 247 248
3 249 250 251
3 252 253 254
3 255 256 257
3 258 259 260
3 261 262 263
3 264 265 266
3 267 268 269
3 270 271 272
3 273 274 275
3 276 277 278
3 279 280 281
3 282 283 284
3 285 286 287
3 288 289 290
3 291 292 293
3 294 295 296
3 297 298 299
3 300 301 302
3 303 304 305
3 306 307 308
3 309 310 311
3 312 313 314
3 315 316 317
3 318 319 320
3 321 322 323
3 324 325 326
3 327 328 329
3 330 331 332
3 333 334 335
3 336 337 338
3 339 340 341
3 342 343 344
3 345 346 347
3 348 349 350
3 351 352 353
3 354 355 356
3 357 358 359
3 360 361 362
3 363 364 365
3 366 367 368
3 369 370 371
3 372 373 374
3 375 376 377
3 378 379 380
3 381 382 383
3 384 385 386
3 387 388 389
3 390 391 392
3 393 394 395
3 396 397 398
3 399 400 401
3 402 403 404
3 405 406 407
3 408 409 410
3 411 412 413
3 414 415 416
3 417 418 419
3 420 421 422
3 423 424 425
