ply
format ascii 1.0
comment Feeney's Flatenator generated
comment TextureFile SpaceInteriors_Texture.png
element vertex 228
property float x
property float y
property float z
property float nx
property float ny
property float nz
property uchar red
property uchar green
property uchar blue
property uchar alpha
element face 76
property list uchar int vertex_indices
end_header
-1.41684 -0.369694 -0.277649 0 -0.0328792 0 75 72 70 255 
-1.35763 -0.369694 -0.277649 0 -0.0328792 0 75 72 70 255 
-1.35763 -0.369694 0.277649 0 -0.0328792 0 75 72 70 255 
-1.41684 -0.369694 -0.277649 0 -0.0328792 0 75 72 70 255 
-1.35763 -0.369694 0.277649 0 -0.0328792 0 75 72 70 255 
-1.41684 -0.369694 0.277649 0 -0.0328792 0 75 72 70 255 
-1.41684 0 -0.098654 0 0.0116826 0 91 88 86 255 
-1.41684 0 0.098654 0 0.0116826 0 91 88 86 255 
-1.35763 0 0.098654 0 0.0116826 0 91 88 86 255 
-1.41684 0 -0.098654 0 0.0116826 0 91 88 86 255 
-1.35763 0 0.098654 0 0.0116826 0 91 88 86 255 
-1.35763 0 -0.098654 0 0.0116826 0 91 88 86 255 
-1.41684 -0.272564 -0.277649 0 0 -0.00575106 75 72 70 255 
-1.35763 -0.272564 -0.277649 0 0 -0.00575106 75 72 70 255 
-1.35763 -0.369694 -0.277649 0 0 -0.00575106 75 72 70 255 
-1.41684 -0.272564 -0.277649 0 0 -0.00575106 75 72 70 255 
-1.35763 -0.369694 -0.277649 0 0 -0.00575106 75 72 70 255 
-1.41684 -0.369694 -0.277649 0 0 -0.00575106 75 72 70 255 
1.41684 -0.272564 -0.277649 0.0539361 0 -0 58 57 55 255 
1.41684 -0.272564 0.277649 0.0539361 0 -0 58 57 55 255 
1.41684 -0.369694 0.277649 0.0539361 0 -0 58 57 55 255 
1.41684 -0.272564 -0.277649 0.0539361 0 0 58 57 55 255 
1.41684 -0.369694 0.277649 0.0539361 0 0 58 57 55 255 
1.41684 -0.369694 -0.277649 0.0539361 0 0 58 57 55 255 
-1.35763 -0.272564 0.277649 0 0 0.00575106 75 72 70 255 
-1.41684 -0.272564 0.277649 0 0 0.00575106 75 72 70 255 
-1.41684 -0.369694 0.277649 0 0 0.00575106 75 72 70 255 
-1.35763 -0.272564 0.277649 0 0 0.00575106 75 72 70 255 
-1.41684 -0.369694 0.277649 0 0 0.00575106 75 72 70 255 
-1.35763 -0.369694 0.277649 0 0 0.00575106 75 72 70 255 
-1.41684 -0.272564 0.277649 -0.0539361 0 -0 58 57 55 255 
-1.41684 -0.272564 -0.277649 -0.0539361 0 -0 58 57 55 255 
-1.41684 -0.369694 -0.277649 -0.0539361 0 -0 58 57 55 255 
-1.41684 -0.272564 0.277649 -0.0539361 -0 0 58 57 55 255 
-1.41684 -0.369694 -0.277649 -0.0539361 -0 0 58 57 55 255 
-1.41684 -0.369694 0.277649 -0.0539361 -0 0 58 57 55 255 
-1.41684 -0.192508 -0.277649 -0.0364459 0 0 58 57 55 255 
-1.41684 -0.192508 0.277649 -0.0364459 0 0 58 57 55 255 
-1.41684 -0.126875 0.098654 -0.0364459 0 0 58 57 55 255 
-1.41684 -0.192508 -0.277649 -0.0129499 0 0 58 57 55 255 
-1.41684 -0.126875 0.098654 -0.0129499 0 0 58 57 55 255 
-1.41684 -0.126875 -0.098654 -0.0129499 0 0 58 57 55 255 
-1.41684 -0.192508 0.277649 -0 0.0105983 0.00388613 91 88 86 255 
-1.35763 -0.192508 0.277649 -0 0.0105983 0.00388613 91 88 86 255 
-1.35763 -0.126875 0.098654 -0 0.0105983 0.00388613 91 88 86 255 
-1.41684 -0.192508 0.277649 0 0.0105983 0.00388613 91 88 86 255 
-1.35763 -0.126875 0.098654 0 0.0105983 0.00388613 91 88 86 255 
-1.41684 -0.126875 0.098654 0 0.0105983 0.00388613 91 88 86 255 
1.41684 -0.192508 0.277649 0.0364459 0 0 58 57 55 255 
1.41684 -0.192508 -0.277649 0.0364459 0 0 58 57 55 255 
1.41684 -0.126875 -0.098654 0.0364459 0 0 58 57 55 255 
1.41684 -0.192508 0.277649 0.0129499 0 0 58 57 55 255 
1.41684 -0.126875 -0.098654 0.0129499 0 0 58 57 55 255 
1.41684 -0.126875 0.098654 0.0129499 0 0 58 57 55 255 
-1.35763 -0.192508 -0.277649 0 0.0105983 -0.00388613 91 88 86 255 
-1.41684 -0.192508 -0.277649 0 0.0105983 -0.00388613 91 88 86 255 
-1.41684 -0.126875 -0.098654 0 0.0105983 -0.00388613 91 88 86 255 
-1.35763 -0.192508 -0.277649 0 0.0105983 -0.00388613 91 88 86 255 
-1.41684 -0.126875 -0.098654 0 0.0105983 -0.00388613 91 88 86 255 
-1.35763 -0.126875 -0.098654 0 0.0105983 -0.00388613 91 88 86 255 
-1.41684 -0.126875 -0.098654 -0.0250335 0 0 58 57 55 255 
-1.41684 -0.126875 0.098654 -0.0250335 0 0 58 57 55 255 
-1.41684 0 0.098654 -0.0250335 0 0 58 57 55 255 
-1.41684 -0.126875 -0.098654 -0.0250335 0 0 58 57 55 255 
-1.41684 0 0.098654 -0.0250335 0 0 58 57 55 255 
-1.41684 0 -0.098654 -0.0250335 0 0 58 57 55 255 
-1.41684 -0.126875 0.098654 0 0 0.00751226 75 72 70 255 
-1.35763 -0.126875 0.098654 0 0 0.00751226 75 72 70 255 
-1.35763 0 0.098654 0 0 0.00751226 75 72 70 255 
-1.41684 -0.126875 0.098654 0 0 0.00751226 75 72 70 255 
-1.35763 0 0.098654 0 0 0.00751226 75 72 70 255 
-1.41684 0 0.098654 0 0 0.00751226 75 72 70 255 
1.41684 -0.126875 0.098654 0.0250335 0 0 58 57 55 255 
1.41684 -0.126875 -0.098654 0.0250335 0 0 58 57 55 255 
1.41684 0 -0.098654 0.0250335 0 0 58 57 55 255 
1.41684 -0.126875 0.098654 0.0250335 -0 0 58 57 55 255 
1.41684 0 -0.098654 0.0250335 -0 0 58 57 55 255 
1.41684 0 0.098654 0.0250335 -0 0 58 57 55 255 
-1.35763 -0.126875 -0.098654 0 0 -0.00751226 75 72 70 255 
-1.41684 -0.126875 -0.098654 0 0 -0.00751226 75 72 70 255 
-1.41684 0 -0.098654 0 0 -0.00751226 75 72 70 255 
-1.35763 -0.126875 -0.098654 0 0 -0.00751226 75 72 70 255 
-1.41684 0 -0.098654 0 0 -0.00751226 75 72 70 255 
-1.35763 0 -0.098654 0 0 -0.00751226 75 72 70 255 
1.35763 -0.369694 -0.277649 0 -0.0328792 0 75 72 70 255 
1.41684 -0.369694 -0.277649 0 -0.0328792 0 75 72 70 255 
1.41684 -0.369694 0.277649 0 -0.0328792 0 75 72 70 255 
1.35763 -0.369694 -0.277649 0 -0.0328792 0 75 72 70 255 
1.41684 -0.369694 0.277649 0 -0.0328792 0 75 72 70 255 
1.35763 -0.369694 0.277649 0 -0.0328792 0 75 72 70 255 
1.41684 -0.272564 0.277649 0 0 0.00575106 75 72 70 255 
1.35763 -0.272564 0.277649 0 0 0.00575106 75 72 70 255 
1.35763 -0.369694 0.277649 0 0 0.00575106 75 72 70 255 
1.41684 -0.272564 0.277649 0 0 0.00575106 75 72 70 255 
1.35763 -0.369694 0.277649 0 0 0.00575106 75 72 70 255 
1.41684 -0.369694 0.277649 0 0 0.00575106 75 72 70 255 
1.35763 -0.126875 0.098654 0 0.0105983 0.00388613 91 88 86 255 
1.35763 -0.192508 0.277649 0 0.0105983 0.00388613 91 88 86 255 
1.41684 -0.192508 0.277649 0 0.0105983 0.00388613 91 88 86 255 
1.35763 -0.126875 0.098654 -0 0.0105983 0.00388613 91 88 86 255 
1.41684 -0.192508 0.277649 -0 0.0105983 0.00388613 91 88 86 255 
1.41684 -0.126875 0.098654 -0 0.0105983 0.00388613 91 88 86 255 
1.35763 0 0.098654 0 0 0.00751226 75 72 70 255 
1.35763 -0.126875 0.098654 0 0 0.00751226 75 72 70 255 
1.41684 -0.126875 0.098654 0 0 0.00751226 75 72 70 255 
1.35763 0 0.098654 -0 0 0.00751226 75 72 70 255 
1.41684 -0.126875 0.098654 -0 0 0.00751226 75 72 70 255 
1.41684 0 0.098654 -0 0 0.00751226 75 72 70 255 
1.35763 0 -0.098654 0 0.0116826 0 91 88 86 255 
1.35763 0 0.098654 0 0.0116826 0 91 88 86 255 
1.41684 0 0.098654 0 0.0116826 0 91 88 86 255 
1.35763 0 -0.098654 0 0.0116826 0 91 88 86 255 
1.41684 0 0.098654 0 0.0116826 0 91 88 86 255 
1.41684 0 -0.098654 0 0.0116826 0 91 88 86 255 
1.41684 -0.126875 -0.098654 0 0 -0.00751226 75 72 70 255 
1.35763 -0.126875 -0.098654 0 0 -0.00751226 75 72 70 255 
1.35763 0 -0.098654 0 0 -0.00751226 75 72 70 255 
1.41684 -0.126875 -0.098654 0 0 -0.00751226 75 72 70 255 
1.35763 0 -0.098654 0 0 -0.00751226 75 72 70 255 
1.41684 0 -0.098654 0 0 -0.00751226 75 72 70 255 
1.41684 -0.192508 -0.277649 0 0.0105983 -0.00388613 91 88 86 255 
1.35763 -0.192508 -0.277649 0 0.0105983 -0.00388613 91 88 86 255 
1.35763 -0.126875 -0.098654 0 0.0105983 -0.00388613 91 88 86 255 
1.41684 -0.192508 -0.277649 0 0.0105983 -0.00388613 91 88 86 255 
1.35763 -0.126875 -0.098654 0 0.0105983 -0.00388613 91 88 86 255 
1.41684 -0.126875 -0.098654 0 0.0105983 -0.00388613 91 88 86 255 
1.35763 -0.369694 -0.277649 0 0 -0.00575106 75 72 70 255 
1.35763 -0.272564 -0.277649 0 0 -0.00575106 75 72 70 255 
1.41684 -0.272564 -0.277649 0 0 -0.00575106 75 72 70 255 
1.35763 -0.369694 -0.277649 0 0 -0.00575106 75 72 70 255 
1.41684 -0.272564 -0.277649 0 0 -0.00575106 75 72 70 255 
1.41684 -0.369694 -0.277649 0 0 -0.00575106 75 72 70 255 
-1.35763 -0.369694 -0.277649 0 -1.50778 0 224 221 194 255 
1.35763 -0.369694 -0.277649 0 -1.50778 0 224 221 194 255 
1.35763 -0.369694 0.277649 0 -1.50778 0 224 221 194 255 
-1.35763 -0.369694 -0.277649 0 -1.50778 0 224 221 194 255 
1.35763 -0.369694 0.277649 0 -1.50778 0 224 221 194 255 
-1.35763 -0.369694 0.277649 0 -1.50778 0 224 221 194 255 
1.35763 -0.272564 0.277649 0 0 0.263733 224 221 194 255 
-1.35763 -0.272564 0.277649 0 0 0.263733 224 221 194 255 
-1.35763 -0.369694 0.277649 0 0 0.263733 224 221 194 255 
1.35763 -0.272564 0.277649 0 0 0.263733 224 221 194 255 
-1.35763 -0.369694 0.277649 0 0 0.263733 224 221 194 255 
1.35763 -0.369694 0.277649 0 0 0.263733 224 221 194 255 
-1.35763 -0.126875 0.098654 0 0.486018 0.178211 125 121 118 255 
-1.35763 -0.192508 0.277649 0 0.486018 0.178211 125 121 118 255 
1.35763 -0.192508 0.277649 0 0.486018 0.178211 125 121 118 255 
-1.35763 -0.126875 0.098654 -0 0.486018 0.178211 125 121 118 255 
1.35763 -0.192508 0.277649 -0 0.486018 0.178211 125 121 118 255 
1.35763 -0.126875 0.098654 -0 0.486018 0.178211 125 121 118 255 
-1.35763 0 0.098654 0 0 0.344499 108 105 102 255 
-1.35763 -0.126875 0.098654 0 0 0.344499 108 105 102 255 
1.35763 -0.126875 0.098654 0 0 0.344499 108 105 102 255 
-1.35763 0 0.098654 -0 0 0.344499 108 105 102 255 
1.35763 -0.126875 0.098654 -0 0 0.344499 108 105 102 255 
1.35763 0 0.098654 -0 0 0.344499 108 105 102 255 
-1.35763 0 -0.098654 0 0.535743 0 125 121 118 255 
-1.35763 0 0.098654 0 0.535743 0 125 121 118 255 
1.35763 0 0.098654 0 0.535743 0 125 121 118 255 
-1.35763 0 -0.098654 0 0.535743 0 125 121 118 255 
1.35763 0 0.098654 0 0.535743 0 125 121 118 255 
1.35763 0 -0.098654 0 0.535743 0 125 121 118 255 
1.35763 -0.126875 -0.098654 0 0 -0.344499 108 105 102 255 
-1.35763 -0.126875 -0.098654 0 0 -0.344499 108 105 102 255 
-1.35763 0 -0.098654 0 0 -0.344499 108 105 102 255 
1.35763 -0.126875 -0.098654 0 0 -0.344499 108 105 102 255 
-1.35763 0 -0.098654 0 0 -0.344499 108 105 102 255 
1.35763 0 -0.098654 0 0 -0.344499 108 105 102 255 
1.35763 -0.192508 -0.277649 0 0.486018 -0.178211 125 121 118 255 
-1.35763 -0.192508 -0.277649 0 0.486018 -0.178211 125 121 118 255 
-1.35763 -0.126875 -0.098654 0 0.486018 -0.178211 125 121 118 255 
1.35763 -0.192508 -0.277649 0 0.486018 -0.178211 125 121 118 255 
-1.35763 -0.126875 -0.098654 0 0.486018 -0.178211 125 121 118 255 
1.35763 -0.126875 -0.098654 0 0.486018 -0.178211 125 121 118 255 
-1.35763 -0.369694 -0.277649 0 0 -0.263733 224 221 194 255 
-1.35763 -0.272564 -0.277649 0 0 -0.263733 224 221 194 255 
1.35763 -0.272564 -0.277649 0 0 -0.263733 224 221 194 255 
-1.35763 -0.369694 -0.277649 0 0 -0.263733 224 221 194 255 
1.35763 -0.272564 -0.277649 0 0 -0.263733 224 221 194 255 
1.35763 -0.369694 -0.277649 0 0 -0.263733 224 221 194 255 
-1.41684 -0.272564 0.277649 0 0 0.00474011 75 72 70 255 
-1.35763 -0.272564 0.277649 0 0 0.00474011 75 72 70 255 
-1.35763 -0.192508 0.277649 0 0 0.00474011 75 72 70 255 
-1.41684 -0.272564 0.277649 0 0 0.00474011 75 72 70 255 
-1.35763 -0.192508 0.277649 0 0 0.00474011 75 72 70 255 
-1.41684 -0.192508 0.277649 0 0 0.00474011 75 72 70 255 
-1.41684 -0.272564 -0.277649 -0.0444549 0 0 58 57 55 255 
-1.41684 -0.272564 0.277649 -0.0444549 0 0 58 57 55 255 
-1.41684 -0.192508 0.277649 -0.0444549 0 0 58 57 55 255 
-1.41684 -0.272564 -0.277649 -0.0444549 0 0 58 57 55 255 
-1.41684 -0.192508 0.277649 -0.0444549 0 0 58 57 55 255 
-1.41684 -0.192508 -0.277649 -0.0444549 0 0 58 57 55 255 
-1.35763 -0.272564 -0.277649 0 0 -0.00474011 75 72 70 255 
-1.41684 -0.272564 -0.277649 0 0 -0.00474011 75 72 70 255 
-1.41684 -0.192508 -0.277649 0 0 -0.00474011 75 72 70 255 
-1.35763 -0.272564 -0.277649 0 0 -0.00474011 75 72 70 255 
-1.41684 -0.192508 -0.277649 0 0 -0.00474011 75 72 70 255 
-1.35763 -0.192508 -0.277649 0 0 -0.00474011 75 72 70 255 
1.35763 -0.272564 -0.277649 0 0 -0.217373 108 105 102 255 
-1.35763 -0.272564 -0.277649 0 0 -0.217373 108 105 102 255 
-1.35763 -0.192508 -0.277649 0 0 -0.217373 108 105 102 255 
1.35763 -0.272564 -0.277649 0 0 -0.217373 108 105 102 255 
-1.35763 -0.192508 -0.277649 0 0 -0.217373 108 105 102 255 
1.35763 -0.192508 -0.277649 0 0 -0.217373 108 105 102 255 
1.41684 -0.272564 -0.277649 0 0 -0.00474011 75 72 70 255 
1.35763 -0.272564 -0.277649 0 0 -0.00474011 75 72 70 255 
1.35763 -0.192508 -0.277649 0 0 -0.00474011 75 72 70 255 
1.41684 -0.272564 -0.277649 0 0 -0.00474011 75 72 70 255 
1.35763 -0.192508 -0.277649 0 0 -0.00474011 75 72 70 255 
1.41684 -0.192508 -0.277649 0 0 -0.00474011 75 72 70 255 
1.41684 -0.272564 0.277649 0.0444549 0 0 58 57 55 255 
1.41684 -0.272564 -0.277649 0.0444549 0 0 58 57 55 255 
1.41684 -0.192508 -0.277649 0.0444549 0 0 58 57 55 255 
1.41684 -0.272564 0.277649 0.0444549 -0 0 58 57 55 255 
1.41684 -0.192508 -0.277649 0.0444549 -0 0 58 57 55 255 
1.41684 -0.192508 0.277649 0.0444549 -0 0 58 57 55 255 
1.35763 -0.192508 0.277649 0 0 0.00474011 75 72 70 255 
1.35763 -0.272564 0.277649 0 0 0.00474011 75 72 70 255 
1.41684 -0.272564 0.277649 0 0 0.00474011 75 72 70 255 
1.35763 -0.192508 0.277649 -0 0 0.00474011 75 72 70 255 
1.41684 -0.272564 0.277649 -0 0 0.00474011 75 72 70 255 
1.41684 -0.192508 0.277649 -0 0 0.00474011 75 72 70 255 
-1.35763 -0.192508 0.277649 0 0 0.217373 108 105 102 255 
-1.35763 -0.272564 0.277649 0 0 0.217373 108 105 102 255 
1.35763 -0.272564 0.277649 0 0 0.217373 108 105 102 255 
-1.35763 -0.192508 0.277649 -0 0 0.217373 108 105 102 255 
1.35763 -0.272564 0.277649 -0 0 0.217373 108 105 102 255 
1.35763 -0.192508 0.277649 -0 0 0.217373 108 105 102 255 
3 0 1 2
3 3 4 5
3 6 7 8
3 9 10 11
3 12 13 14
3 15 16 17
3 18 19 20
3 21 22 23
3 24 25 26
3 27 28 29
3 30 31 32
3 33 34 35
3 36 37 38
3 39 40 41
3 42 43 44
3 45 46 47
3 48 49 50
3 51 52 53
3 54 55 56
3 57 58 59
3 60 61 62
3 63 64 65
3 66 67 68
3 69 70 71
3 72 73 74
3 75 76 77
3 78 79 80
3 81 82 83
3 84 85 86
3 87 88 89
3 90 91 92
3 93 94 95
3 96 97 98
3 99 100 101
3 102 103 104
3 105 106 107
3 108 109 110
3 111 112 113
3 114 115 116
3 117 118 119
3 120 121 122
3 123 124 125
3 126 127 128
3 129 130 131
3 132 133 134
3 135 136 137
3 138 139 140
3 141 142 143
3 144 145 146
3 147 148 149
3 150 151 152
3 153 154 155
3 156 157 158
3 159 160 161
3 162 163 164
3 165 166 167
3 168 169 170
3 171 172 173
3 174 175 176
3 177 178 179
3 180 181 182
3 183 184 185
3 186 187 188
3 189 190 191
3 192 193 194
3 195 196 197
3 198 199 200
3 201 202 203
3 204 205 206
3 207 208 209
3 210 211 212
3 213 214 215
3 216 217 218
3 219 220 221
3 222 223 224
3 225 226 227
