ply
format ascii 1.0
comment Feeney's Flatenator generated
comment TextureFile SpaceInteriors_Texture.png
element vertex 96
property float x
property float y
property float z
element face 32
property list uchar int vertex_indices
end_header
-5 0 -5 
0 0 -5 
-0.58429 0 -7.1382 
-5 0 -5 
-0.58429 0 -7.1382 
-0.862901 0 -7.1382 
-5 0 -5 
-5 0 -10 
-7.13821 0 -9.41571 
-5 0 -5 
-7.13821 0 -9.41571 
-7.13821 0 -9.1371 
-9.1371 0 -2.8618 
-9.41571 0 -2.8618 
-9.41571 0 -0.58429 
-9.1371 0 -2.8618 
-9.41571 0 -0.58429 
-9.1371 0 -0.862904 
-2.8618 0 -0.862904 
-2.8618 0 -0.58429 
-0.58429 0 -0.58429 
-2.8618 0 -0.862904 
-0.58429 0 -0.58429 
-0.862901 0 -0.862904 
-7.13821 0 -0.862904 
-7.13821 0 -0.58429 
-5 0 0 
-7.13821 0 -0.862904 
-5 0 0 
-5 0 -5 
-0.58429 0 -9.41571 
-2.8618 0 -9.41571 
-2.8618 0 -9.1371 
-0.58429 0 -9.41571 
-2.8618 0 -9.1371 
-0.862901 0 -9.1371 
-9.1371 0 -7.1382 
-9.41571 0 -7.1382 
-10 0 -5 
-9.1371 0 -7.1382 
-10 0 -5 
-5 0 -5 
-0.58429 0 -0.58429 
-0.58429 0 -2.8618 
-0.862901 0 -2.8618 
-0.58429 0 -0.58429 
-0.862901 0 -2.8618 
-0.862901 0 -0.862904 
-5 0 -5 
-5 0 0 
-2.8618 0 -0.58429 
-5 0 -5 
-2.8618 0 -0.58429 
-2.8618 0 -0.862904 
-9.41571 0 -0.58429 
-7.13821 0 -0.58429 
-7.13821 0 -0.862904 
-9.41571 0 -0.58429 
-7.13821 0 -0.862904 
-9.1371 0 -0.862904 
-5 0 -5 
-10 0 -5 
-9.41571 0 -2.8618 
-5 0 -5 
-9.41571 0 -2.8618 
-9.1371 0 -2.8618 
-9.41571 0 -9.41571 
-9.41571 0 -7.1382 
-9.1371 0 -7.1382 
-9.41571 0 -9.41571 
-9.1371 0 -7.1382 
-9.1371 0 -9.1371 
-7.13821 0 -9.1371 
-7.13821 0 -9.41571 
-9.41571 0 -9.41571 
-7.13821 0 -9.1371 
-9.41571 0 -9.41571 
-9.1371 0 -9.1371 
-2.8618 0 -9.1371 
-2.8618 0 -9.41571 
-5 0 -10 
-2.8618 0 -9.1371 
-5 0 -10 
-5 0 -5 
-0.862901 0 -7.1382 
-0.58429 0 -7.1382 
-0.58429 0 -9.41571 
-0.862901 0 -7.1382 
-0.58429 0 -9.41571 
-0.862901 0 -9.1371 
-0.862901 0 -2.8618 
-0.58429 0 -2.8618 
0 0 -5 
-0.862901 0 -2.8618 
0 0 -5 
-5 0 -5 
3 0 1 2
3 3 4 5
3 6 7 8
3 9 10 11
3 12 13 14
3 15 16 17
3 18 19 20
3 21 22 23
3 24 25 26
3 27 28 29
3 30 31 32
3 33 34 35
3 36 37 38
3 39 40 41
3 42 43 44
3 45 46 47
3 48 49 50
3 51 52 53
3 54 55 56
3 57 58 59
3 60 61 62
3 63 64 65
3 66 67 68
3 69 70 71
3 72 73 74
3 75 76 77
3 78 79 80
3 81 82 83
3 84 85 86
3 87 88 89
3 90 91 92
3 93 94 95
