ply
format ascii 1.0
comment Feeney's Flatenator generated
comment TextureFile SpaceInteriors_Texture.png
element vertex 54
property float x
property float y
property float z
property float nx
property float ny
property float nz
element face 18
property list uchar int vertex_indices
end_header
0 5 0 0 0 12.5 
-5 5 0 0 0 12.5 
-5 2.5 0 0 0 12.5 
0 5 0 0 0 12.5 
-5 2.5 0 0 0 12.5 
0 2.5 0 0 0 12.5 
0 2.5 -1.8832 0 0 4.34225 
-5 2.5 -1.8832 0 0 4.34225 
-5 1.63155 -1.8832 0 0 4.34225 
0 2.5 -1.8832 0 0 4.34225 
-5 1.63155 -1.8832 0 0 4.34225 
0 1.63155 -1.8832 0 0 4.34225 
0 0.75 0 0 0 3.75 
-5 0.75 0 0 0 3.75 
-5 0 0 0 0 3.75 
0 0.75 0 0 0 3.75 
-5 0 0 0 0 3.75 
0 0 0 0 0 3.75 
0 2.5 0 -0 -9.416 0 
-5 2.5 0 -0 -9.416 0 
-5 2.5 -1.8832 -0 -9.416 0 
0 2.5 0 0 -9.416 -0 
-5 2.5 -1.8832 0 -9.416 -0 
0 2.5 -1.8832 0 -9.416 -0 
-5 2.5 0 0 0 0 
-5 0.75 0 0 0 0 
-5 0.75 0 0 0 0 
-5 2.5 0 3.2956 0 0 
-5 0.75 0 3.2956 0 0 
-5 1.63155 -1.8832 3.2956 0 0 
-5 0.75 0 0 0 0 
0 0.75 0 0 0 0 
0 0.75 0 0 0 0 
-5 0.75 0 0 0 0 
0 0.75 0 0 0 0 
-5 0.75 0 0 0 0 
0 1.63155 -1.8832 -1.63547 0 0 
0 2.5 0 -1.63547 0 0 
0 2.5 -1.8832 -1.63547 0 0 
0 1.63155 -1.8832 0 9.416 4.40775 
-5 1.63155 -1.8832 0 9.416 4.40775 
-5 0.75 0 0 9.416 4.40775 
0 1.63155 -1.8832 0 9.416 4.40775 
-5 0.75 0 0 9.416 4.40775 
0 0.75 0 0 9.416 4.40775 
-5 2.5 0 1.63547 0 0 
-5 1.63155 -1.8832 1.63547 0 0 
-5 2.5 -1.8832 1.63547 0 0 
0 0.75 0 -3.2956 0 0 
0 2.5 0 -3.2956 0 0 
0 1.63155 -1.8832 -3.2956 0 0 
0 0.75 0 0 -0 0 
0 1.63155 -1.8832 0 -0 0 
0 0.75 0 0 -0 0 
3 0 1 2
3 3 4 5
3 6 7 8
3 9 10 11
3 12 13 14
3 15 16 17
3 18 19 20
3 21 22 23
3 24 25 26
3 27 28 29
3 30 31 32
3 33 34 35
3 36 37 38
3 39 40 41
3 42 43 44
3 45 46 47
3 48 49 50
3 51 52 53
