ply
format ascii 1.0
comment Feeney's Flatenator generated
comment TextureFile SpaceInteriors_Texture.png
element vertex 348
property float x
property float y
property float z
property float nx
property float ny
property float nz
property uchar red
property uchar green
property uchar blue
property uchar alpha
property float texture_u
property float texture_v
element face 116
property list uchar int vertex_indices
end_header
5.5 -0.120786 5 0.60393 0 0 63 68 68 255 0.139815 0.266803 
5.5 -0.120786 2.5 0.60393 0 0 63 68 68 255 0.139815 0.266803 
5.5 0.120786 2.5 0.60393 0 0 63 68 68 255 0.139815 0.266803 
5.5 -0.120786 5 0.60393 -0 0 63 68 68 255 0.139815 0.266803 
5.5 0.120786 2.5 0.60393 -0 0 63 68 68 255 0.139815 0.266803 
5.5 0.120786 5 0.60393 -0 0 63 68 68 255 0.139815 0.266803 
5.5 0.120786 5 0 2.5 0 85 94 97 255 0.228524 0.266803 
5.5 0.120786 2.5 0 2.5 0 85 94 97 255 0.228524 0.266803 
4.5 0.120786 2.5 0 2.5 0 85 94 97 255 0.228524 0.266803 
5.5 0.120786 5 0 2.5 0 85 94 97 255 0.228524 0.266803 
4.5 0.120786 2.5 0 2.5 0 85 94 97 255 0.228524 0.266803 
4.5 0.120786 5 0 2.5 0 85 94 97 255 0.228524 0.266803 
4.5 0.120786 5 -0.60393 0 -0 63 68 68 255 0.139815 0.266803 
4.5 0.120786 2.5 -0.60393 0 -0 63 68 68 255 0.139815 0.266803 
4.5 -0.120786 2.5 -0.60393 0 -0 63 68 68 255 0.139815 0.266803 
4.5 0.120786 5 -0.60393 -0 0 63 68 68 255 0.139815 0.266803 
4.5 -0.120786 2.5 -0.60393 -0 0 63 68 68 255 0.139815 0.266803 
4.5 -0.120786 5 -0.60393 -0 0 63 68 68 255 0.139815 0.266803 
4.5 -0.120786 5 0 -2.5 0 78 85 87 255 0.997951 0.36957 
4.5 -0.120786 2.5 0 -2.5 0 78 85 87 255 0.997951 0.169445 
5.5 -0.120786 2.5 0 -2.5 0 78 85 87 255 0.933887 0.169445 
4.5 -0.120786 5 0 -2.5 0 78 85 87 255 0.997951 0.36957 
5.5 -0.120786 2.5 0 -2.5 0 78 85 87 255 0.933887 0.169445 
5.5 -0.120786 5 0 -2.5 0 78 85 87 255 0.933887 0.369569 
4.5 -0.120786 5 0 0 0.241572 56 60 60 255 0.112643 0.264406 
5.5 -0.120786 5 0 0 0.241572 56 60 60 255 0.112643 0.264406 
5.5 0.120786 5 0 0 0.241572 56 60 60 255 0.112643 0.264406 
4.5 -0.120786 5 0 0 0.241572 56 60 60 255 0.112643 0.264406 
5.5 0.120786 5 0 0 0.241572 56 60 60 255 0.112643 0.264406 
4.5 0.120786 5 0 0 0.241572 56 60 60 255 0.112643 0.264406 
5.5 -0.120786 2.5 0.483144 0 0 63 68 68 255 0.139815 0.266803 
5.5 -0.120786 0.5 0.483144 0 0 63 68 68 255 0.139815 0.266803 
5.5 0.120786 0.5 0.483144 0 0 63 68 68 255 0.139815 0.266803 
5.5 -0.120786 2.5 0.483144 -0 0 63 68 68 255 0.139815 0.266803 
5.5 0.120786 0.5 0.483144 -0 0 63 68 68 255 0.139815 0.266803 
5.5 0.120786 2.5 0.483144 -0 0 63 68 68 255 0.139815 0.266803 
4.5 0.120786 2.5 -0 2 0 85 94 97 255 0.228524 0.266803 
5.5 0.120786 2.5 -0 2 0 85 94 97 255 0.228524 0.266803 
5.5 0.120786 0.5 -0 2 0 85 94 97 255 0.228524 0.266803 
4.5 0.120786 2.5 0 1.99564 0 85 94 97 255 0.228524 0.266803 
5.5 0.120786 0.5 0 1.99564 0 85 94 97 255 0.228524 0.266803 
4.50154 0.120786 0.501282 0 1.99564 0 85 94 97 255 0.228524 0.266803 
4.5 -0.120786 2.5 -0.482834 0 -0.000372065 63 68 68 255 0.139815 0.266803 
4.5 0.120786 2.5 -0.482834 0 -0.000372065 63 68 68 255 0.139815 0.266803 
4.50154 0.120786 0.501282 -0.482834 0 -0.000372065 63 68 68 255 0.139815 0.266803 
4.5 -0.120786 2.5 -0.482834 0 -0.000372065 63 68 68 255 0.139815 0.266803 
4.50154 0.120786 0.501282 -0.482834 0 -0.000372065 63 68 68 255 0.139815 0.266803 
4.50154 -0.120786 0.501282 -0.482834 0 -0.000372065 63 68 68 255 0.139815 0.266803 
5.5 -0.120786 2.5 -0 -1.99872 0 78 85 87 255 0.933887 0.169445 
4.5 -0.120786 2.5 -0 -1.99872 0 78 85 87 255 0.997951 0.169445 
4.50154 -0.120786 0.501282 -0 -1.99872 0 78 85 87 255 0.997951 0.302934 
5.5 -0.120786 2.5 0 -1.99692 -0 78 85 87 255 0.933887 0.169445 
4.50154 -0.120786 0.501282 0 -1.99692 -0 78 85 87 255 0.997951 0.302934 
5.5 -0.120786 0.5 0 -1.99692 -0 78 85 87 255 0.933887 0.302934 
5.5 -0.120786 0.5 -0 -0.99846 0 78 85 87 255 0.933887 0.302934 
4.50154 -0.120786 0.501282 -0 -0.99846 0 78 85 87 255 0.997951 0.302934 
4.50154 -0.120786 -0.498718 -0 -0.99846 0 78 85 87 255 0.997951 0.369569 
5.5 -0.120786 0.5 0 -0.99846 -0 78 85 87 255 0.933887 0.302934 
4.50154 -0.120786 -0.498718 0 -0.99846 -0 78 85 87 255 0.997951 0.369569 
5.5 -0.120786 -0.5 0 -0.99846 -0 78 85 87 255 0.933887 0.369569 
5.5 0.120786 0.5 0.241572 0 0 63 68 68 255 0.139815 0.266803 
5.5 -0.120786 0.5 0.241572 0 0 63 68 68 255 0.139815 0.266803 
5.5 -0.120786 -0.5 0.241572 0 0 63 68 68 255 0.139815 0.266803 
5.5 0.120786 0.5 0.241572 0 0 63 68 68 255 0.139815 0.266803 
5.5 -0.120786 -0.5 0.241572 0 0 63 68 68 255 0.139815 0.266803 
5.5 0.120786 -0.5 0.241572 0 0 63 68 68 255 0.139815 0.266803 
4.50154 0.120786 0.501282 0 0.99846 0 85 94 97 255 0.228524 0.266803 
5.5 0.120786 0.5 0 0.99846 0 85 94 97 255 0.228524 0.266803 
5.5 0.120786 -0.5 0 0.99846 0 85 94 97 255 0.228524 0.266803 
4.50154 0.120786 0.501282 0 0.99846 0 85 94 97 255 0.228524 0.266803 
5.5 0.120786 -0.5 0 0.99846 0 85 94 97 255 0.228524 0.266803 
4.50154 0.120786 -0.498718 0 0.99846 0 85 94 97 255 0.228524 0.266803 
0 -0.120786 0.5 0 0 0.60393 56 60 60 255 0.112643 0.264406 
2.5 -0.120786 0.5 0 0 0.60393 56 60 60 255 0.112643 0.264406 
2.5 0.120786 0.5 0 0 0.60393 56 60 60 255 0.112643 0.264406 
0 -0.120786 0.5 0 0 0.60393 56 60 60 255 0.112643 0.264406 
2.5 0.120786 0.5 0 0 0.60393 56 60 60 255 0.112643 0.264406 
0 0.120786 0.5 0 0 0.60393 56 60 60 255 0.112643 0.264406 
0 0.120786 0.5 -0 2.5 0 85 94 97 255 0.228524 0.266803 
2.5 0.120786 0.5 -0 2.5 0 85 94 97 255 0.228524 0.266803 
2.5 0.120786 -0.5 -0 2.5 0 85 94 97 255 0.228524 0.266803 
0 0.120786 0.5 0 2.5 0 85 94 97 255 0.228524 0.266803 
2.5 0.120786 -0.5 0 2.5 0 85 94 97 255 0.228524 0.266803 
0 0.120786 -0.5 0 2.5 0 85 94 97 255 0.228524 0.266803 
0 0.120786 -0.5 0 0 -0.60393 56 60 60 255 0.112643 0.264406 
2.5 0.120786 -0.5 0 0 -0.60393 56 60 60 255 0.112643 0.264406 
2.5 -0.120786 -0.5 0 0 -0.60393 56 60 60 255 0.112643 0.264406 
0 0.120786 -0.5 0 0 -0.60393 56 60 60 255 0.112643 0.264406 
2.5 -0.120786 -0.5 0 0 -0.60393 56 60 60 255 0.112643 0.264406 
0 -0.120786 -0.5 0 0 -0.60393 56 60 60 255 0.112643 0.264406 
0 -0.120786 -0.5 0 -2.5 0 78 85 87 255 0.997951 0.36957 
2.5 -0.120786 -0.5 0 -2.5 0 78 85 87 255 0.997951 0.169445 
2.5 -0.120786 0.5 0 -2.5 0 78 85 87 255 0.933887 0.169445 
0 -0.120786 -0.5 0 -2.5 0 78 85 87 255 0.997951 0.36957 
2.5 -0.120786 0.5 0 -2.5 0 78 85 87 255 0.933887 0.169445 
0 -0.120786 0.5 0 -2.5 0 78 85 87 255 0.933887 0.369569 
0 -0.120786 -0.5 -0.241572 0 0 63 68 68 255 0.139815 0.266803 
0 -0.120786 0.5 -0.241572 0 0 63 68 68 255 0.139815 0.266803 
0 0.120786 0.5 -0.241572 0 0 63 68 68 255 0.139815 0.266803 
0 -0.120786 -0.5 -0.241572 0 0 63 68 68 255 0.139815 0.266803 
0 0.120786 0.5 -0.241572 0 0 63 68 68 255 0.139815 0.266803 
0 0.120786 -0.5 -0.241572 0 0 63 68 68 255 0.139815 0.266803 
2.5 -0.120786 0.5 -0.00030969 0 0.483516 56 60 60 255 0.112643 0.264406 
4.50154 -0.120786 0.501282 -0.00030969 0 0.483516 56 60 60 255 0.112643 0.264406 
4.50154 0.120786 0.501282 -0.00030969 0 0.483516 56 60 60 255 0.112643 0.264406 
2.5 -0.120786 0.5 -0.00030969 0 0.483516 56 60 60 255 0.112643 0.264406 
4.50154 0.120786 0.501282 -0.00030969 0 0.483516 56 60 60 255 0.112643 0.264406 
2.5 0.120786 0.5 -0.00030969 0 0.483516 56 60 60 255 0.112643 0.264406 
2.5 0.120786 -0.5 0 2.00154 0 85 94 97 255 0.228524 0.266803 
2.5 0.120786 0.5 0 2.00154 0 85 94 97 255 0.228524 0.266803 
4.50154 0.120786 0.501282 0 2.00154 0 85 94 97 255 0.228524 0.266803 
2.5 0.120786 -0.5 0 2.00154 0 85 94 97 255 0.228524 0.266803 
4.50154 0.120786 0.501282 0 2.00154 0 85 94 97 255 0.228524 0.266803 
4.50154 0.120786 -0.498718 0 2.00154 0 85 94 97 255 0.228524 0.266803 
2.5 -0.120786 -0.5 0.000309697 0 -0.483516 56 60 60 255 0.112643 0.264406 
2.5 0.120786 -0.5 0.000309697 0 -0.483516 56 60 60 255 0.112643 0.264406 
4.50154 0.120786 -0.498718 0.000309697 0 -0.483516 56 60 60 255 0.112643 0.264406 
2.5 -0.120786 -0.5 0.000309697 0 -0.483516 56 60 60 255 0.112643 0.264406 
4.50154 0.120786 -0.498718 0.000309697 0 -0.483516 56 60 60 255 0.112643 0.264406 
4.50154 -0.120786 -0.498718 0.000309697 0 -0.483516 56 60 60 255 0.112643 0.264406 
2.5 -0.120786 0.5 0 -2.00154 0 78 85 87 255 0.933887 0.169445 
2.5 -0.120786 -0.5 0 -2.00154 0 78 85 87 255 0.997951 0.169445 
4.50154 -0.120786 -0.498718 0 -2.00154 0 78 85 87 255 0.997951 0.30499 
2.5 -0.120786 0.5 0 -2.00154 0 78 85 87 255 0.933887 0.169445 
4.50154 -0.120786 -0.498718 0 -2.00154 0 78 85 87 255 0.997951 0.30499 
4.50154 -0.120786 0.501282 0 -2.00154 0 78 85 87 255 0.933887 0.30499 
4.50154 0.120786 -0.498718 -0.000309697 0 -0.2412 56 60 60 255 0.11413 0.266005 
5.5 0.120786 -0.5 -0.000309697 0 -0.2412 56 60 60 255 0.11413 0.266005 
5.5 -0.120786 -0.5 -0.000309697 0 -0.2412 56 60 60 255 0.11413 0.266005 
4.50154 0.120786 -0.498718 -0.000309697 -0 -0.2412 56 60 60 255 0.11413 0.266005 
5.5 -0.120786 -0.5 -0.000309697 -0 -0.2412 56 60 60 255 0.11413 0.266005 
4.50154 -0.120786 -0.498718 -0.000309697 -0 -0.2412 56 60 60 255 0.11413 0.266005 
4.62246 0.120786 4.94339 0.150108 0 0 85 94 97 255 0.236436 0.263411 
4.62246 0.120786 4.86271 0.150108 0 0 85 94 97 255 0.236436 0.263411 
4.62246 1.98132 4.86271 0.150108 0 0 85 94 97 255 0.236436 0.263411 
4.62246 0.120786 4.94339 0.150108 -0 0 85 94 97 255 0.236436 0.263411 
4.62246 1.98132 4.86271 0.150108 -0 0 85 94 97 255 0.236436 0.263411 
4.62246 1.98132 4.94339 0.150108 -0 0 85 94 97 255 0.236436 0.263411 
4.62246 1.98132 4.94339 0 0.00650925 0 85 94 97 255 0.236436 0.263411 
4.62246 1.98132 4.86271 0 0.00650925 0 85 94 97 255 0.236436 0.263411 
4.54178 1.98132 4.86271 0 0.00650925 0 85 94 97 255 0.236436 0.263412 
4.62246 1.98132 4.94339 0 0.00650925 0 85 94 97 255 0.236436 0.263411 
4.54178 1.98132 4.86271 0 0.00650925 0 85 94 97 255 0.236436 0.263412 
4.54178 1.98132 4.94339 0 0.00650925 0 85 94 97 255 0.236436 0.263412 
4.54178 1.98132 4.94339 -0.150108 0 -0 85 94 97 255 0.236436 0.263412 
4.54178 1.98132 4.86271 -0.150108 0 -0 85 94 97 255 0.236436 0.263412 
4.54178 0.120786 4.86271 -0.150108 0 -0 85 94 97 255 0.236436 0.263411 
4.54178 1.98132 4.94339 -0.150108 -0 0 85 94 97 255 0.236436 0.263412 
4.54178 0.120786 4.86271 -0.150108 -0 0 85 94 97 255 0.236436 0.263411 
4.54178 0.120786 4.94339 -0.150108 -0 0 85 94 97 255 0.236436 0.263411 
4.54178 0.120786 4.94339 0 -0.00650925 0 85 94 97 255 0.236436 0.263411 
4.54178 0.120786 4.86271 0 -0.00650925 0 85 94 97 255 0.236436 0.263411 
4.62246 0.120786 4.86271 0 -0.00650925 0 85 94 97 255 0.236436 0.263411 
4.54178 0.120786 4.94339 0 -0.00650925 0 85 94 97 255 0.236436 0.263411 
4.62246 0.120786 4.86271 0 -0.00650925 0 85 94 97 255 0.236436 0.263411 
4.62246 0.120786 4.94339 0 -0.00650925 0 85 94 97 255 0.236436 0.263411 
4.62246 0.120786 4.86271 0 0 -0.150108 78 85 87 255 0.196477 0.265809 
4.54178 0.120786 4.86271 0 0 -0.150108 78 85 87 255 0.196477 0.265809 
4.54178 1.98132 4.86271 0 0 -0.150108 78 85 87 255 0.196477 0.265809 
4.62246 0.120786 4.86271 0 0 -0.150108 78 85 87 255 0.196477 0.265809 
4.54178 1.98132 4.86271 0 0 -0.150108 78 85 87 255 0.196477 0.265809 
4.62246 1.98132 4.86271 0 0 -0.150108 78 85 87 255 0.196477 0.265809 
4.54178 0.120786 4.94339 0 0 0.150108 78 85 87 255 0.196477 0.265809 
4.62246 0.120786 4.94339 0 0 0.150108 78 85 87 255 0.196478 0.265809 
4.62246 1.98132 4.94339 0 0 0.150108 78 85 87 255 0.196478 0.265809 
4.54178 0.120786 4.94339 0 0 0.150108 78 85 87 255 0.196477 0.265809 
4.62246 1.98132 4.94339 0 0 0.150108 78 85 87 255 0.196478 0.265809 
4.54178 1.98132 4.94339 0 0 0.150108 78 85 87 255 0.196477 0.265809 
5.45888 0.120786 4.94339 0.150108 0 0 85 94 97 255 0.236436 0.263411 
5.45888 0.120786 4.86271 0.150108 0 0 85 94 97 255 0.236436 0.263411 
5.45888 1.98132 4.86271 0.150108 0 0 85 94 97 255 0.236436 0.263411 
5.45888 0.120786 4.94339 0.150108 -0 0 85 94 97 255 0.236436 0.263411 
5.45888 1.98132 4.86271 0.150108 -0 0 85 94 97 255 0.236436 0.263411 
5.45888 1.98132 4.94339 0.150108 -0 0 85 94 97 255 0.236436 0.263411 
5.45888 1.98132 4.94339 0 0.00650925 0 85 94 97 255 0.236436 0.263411 
5.45888 1.98132 4.86271 0 0.00650925 0 85 94 97 255 0.236436 0.263411 
5.3782 1.98132 4.86271 0 0.00650925 0 85 94 97 255 0.236436 0.263412 
5.45888 1.98132 4.94339 0 0.00650925 0 85 94 97 255 0.236436 0.263411 
5.3782 1.98132 4.86271 0 0.00650925 0 85 94 97 255 0.236436 0.263412 
5.3782 1.98132 4.94339 0 0.00650925 0 85 94 97 255 0.236436 0.263412 
5.3782 1.98132 4.94339 -0.150108 0 -0 85 94 97 255 0.236436 0.263412 
5.3782 1.98132 4.86271 -0.150108 0 -0 85 94 97 255 0.236436 0.263412 
5.3782 0.120786 4.86271 -0.150108 0 -0 85 94 97 255 0.236436 0.263411 
5.3782 1.98132 4.94339 -0.150108 -0 0 85 94 97 255 0.236436 0.263412 
5.3782 0.120786 4.86271 -0.150108 -0 0 85 94 97 255 0.236436 0.263411 
5.3782 0.120786 4.94339 -0.150108 -0 0 85 94 97 255 0.236436 0.263411 
5.3782 0.120786 4.94339 0 -0.00650925 0 85 94 97 255 0.236436 0.263411 
5.3782 0.120786 4.86271 0 -0.00650925 0 85 94 97 255 0.236436 0.263411 
5.45888 0.120786 4.86271 0 -0.00650925 0 85 94 97 255 0.236436 0.263411 
5.3782 0.120786 4.94339 0 -0.00650925 0 85 94 97 255 0.236436 0.263411 
5.45888 0.120786 4.86271 0 -0.00650925 0 85 94 97 255 0.236436 0.263411 
5.45888 0.120786 4.94339 0 -0.00650925 0 85 94 97 255 0.236436 0.263411 
5.45888 0.120786 4.86271 0 0 -0.150108 78 85 87 255 0.196477 0.265809 
5.3782 0.120786 4.86271 0 0 -0.150108 78 85 87 255 0.196477 0.265809 
5.3782 1.98132 4.86271 0 0 -0.150108 78 85 87 255 0.196477 0.265809 
5.45888 0.120786 4.86271 0 0 -0.150108 78 85 87 255 0.196477 0.265809 
5.3782 1.98132 4.86271 0 0 -0.150108 78 85 87 255 0.196477 0.265809 
5.45888 1.98132 4.86271 0 0 -0.150108 78 85 87 255 0.196477 0.265809 
5.3782 0.120786 4.94339 0 0 0.150108 78 85 87 255 0.196477 0.265809 
5.45888 0.120786 4.94339 0 0 0.150108 78 85 87 255 0.196478 0.265809 
5.45888 1.98132 4.94339 0 0 0.150108 78 85 87 255 0.196478 0.265809 
5.3782 0.120786 4.94339 0 0 0.150108 78 85 87 255 0.196477 0.265809 
5.45888 1.98132 4.94339 0 0 0.150108 78 85 87 255 0.196478 0.265809 
5.3782 1.98132 4.94339 0 0 0.150108 78 85 87 255 0.196477 0.265809 
0.05661 0.120786 -0.377533 0 0 0.15011 78 85 87 255 0.196478 0.265809 
0.137291 0.120786 -0.377533 0 0 0.15011 78 85 87 255 0.196477 0.265809 
0.137291 1.98132 -0.377533 0 0 0.15011 78 85 87 255 0.196477 0.265809 
0.05661 0.120786 -0.377533 0 0 0.15011 78 85 87 255 0.196478 0.265809 
0.137291 1.98132 -0.377533 0 0 0.15011 78 85 87 255 0.196477 0.265809 
0.05661 1.98132 -0.377533 0 0 0.15011 78 85 87 255 0.196478 0.265809 
0.05661 1.98132 -0.377533 -0 0.00650999 0 85 94 97 255 0.236436 0.263411 
0.137291 1.98132 -0.377533 -0 0.00650999 0 85 94 97 255 0.236436 0.263411 
0.137291 1.98132 -0.458221 -0 0.00650999 0 85 94 97 255 0.236436 0.263412 
0.05661 1.98132 -0.377533 0 0.00650999 0 85 94 97 255 0.236436 0.263411 
0.137291 1.98132 -0.458221 0 0.00650999 0 85 94 97 255 0.236436 0.263412 
0.05661 1.98132 -0.458221 0 0.00650999 0 85 94 97 255 0.236436 0.263412 
0.05661 1.98132 -0.458221 0 0 -0.15011 78 85 87 255 0.196478 0.265809 
0.137291 1.98132 -0.458221 0 0 -0.15011 78 85 87 255 0.196477 0.265809 
0.137291 0.120786 -0.458221 0 0 -0.15011 78 85 87 255 0.196477 0.265809 
0.05661 1.98132 -0.458221 0 0 -0.15011 78 85 87 255 0.196478 0.265809 
0.137291 0.120786 -0.458221 0 0 -0.15011 78 85 87 255 0.196477 0.265809 
0.05661 0.120786 -0.458221 0 0 -0.15011 78 85 87 255 0.196478 0.265809 
0.05661 0.120786 -0.458221 0 -0.00650999 0 85 94 97 255 0.236436 0.263411 
0.137291 0.120786 -0.458221 0 -0.00650999 0 85 94 97 255 0.236436 0.263411 
0.137291 0.120786 -0.377533 0 -0.00650999 0 85 94 97 255 0.236436 0.263411 
0.05661 0.120786 -0.458221 0 -0.00650999 0 85 94 97 255 0.236436 0.263411 
0.137291 0.120786 -0.377533 0 -0.00650999 0 85 94 97 255 0.236436 0.263411 
0.05661 0.120786 -0.377533 0 -0.00650999 0 85 94 97 255 0.236436 0.263411 
0.137291 0.120786 -0.377533 0.150123 0 0 85 94 97 255 0.236436 0.263411 
0.137291 0.120786 -0.458221 0.150123 0 0 85 94 97 255 0.236436 0.263411 
0.137291 1.98132 -0.458221 0.150123 0 0 85 94 97 255 0.236436 0.263411 
0.137291 0.120786 -0.377533 0.150123 -0 0 85 94 97 255 0.236436 0.263411 
0.137291 1.98132 -0.458221 0.150123 -0 0 85 94 97 255 0.236436 0.263411 
0.137291 1.98132 -0.377533 0.150123 -0 0 85 94 97 255 0.236436 0.263411 
0.05661 0.120786 -0.458221 -0.150123 0 0 85 94 97 255 0.236436 0.263411 
0.05661 0.120786 -0.377533 -0.150123 0 0 85 94 97 255 0.236436 0.263411 
0.05661 1.98132 -0.377533 -0.150123 0 0 85 94 97 255 0.236436 0.263411 
0.05661 0.120786 -0.458221 -0.150123 0 0 85 94 97 255 0.236436 0.263411 
0.05661 1.98132 -0.377533 -0.150123 0 0 85 94 97 255 0.236436 0.263411 
0.05661 1.98132 -0.458221 -0.150123 0 0 85 94 97 255 0.236436 0.263411 
0.05661 0.120786 0.458878 0 0 0.15011 78 85 87 255 0.196478 0.265809 
0.137291 0.120786 0.458878 0 0 0.15011 78 85 87 255 0.196477 0.265809 
0.137291 1.98132 0.458878 0 0 0.15011 78 85 87 255 0.196477 0.265809 
0.05661 0.120786 0.458878 0 0 0.15011 78 85 87 255 0.196478 0.265809 
0.137291 1.98132 0.458878 0 0 0.15011 78 85 87 255 0.196477 0.265809 
0.05661 1.98132 0.458878 0 0 0.15011 78 85 87 255 0.196478 0.265809 
0.05661 1.98132 0.458878 -0 0.00650942 0 85 94 97 255 0.236436 0.263411 
0.137291 1.98132 0.458878 -0 0.00650942 0 85 94 97 255 0.236436 0.263411 
0.137291 1.98132 0.378197 -0 0.00650942 0 85 94 97 255 0.236436 0.263412 
0.05661 1.98132 0.458878 0 0.00650942 0 85 94 97 255 0.236436 0.263411 
0.137291 1.98132 0.378197 0 0.00650942 0 85 94 97 255 0.236436 0.263412 
0.05661 1.98132 0.378197 0 0.00650942 0 85 94 97 255 0.236436 0.263412 
0.05661 1.98132 0.378197 0 0 -0.15011 78 85 87 255 0.196478 0.265809 
0.137291 1.98132 0.378197 0 0 -0.15011 78 85 87 255 0.196477 0.265809 
0.137291 0.120786 0.378197 0 0 -0.15011 78 85 87 255 0.196477 0.265809 
0.05661 1.98132 0.378197 0 0 -0.15011 78 85 87 255 0.196478 0.265809 
0.137291 0.120786 0.378197 0 0 -0.15011 78 85 87 255 0.196477 0.265809 
0.05661 0.120786 0.378197 0 0 -0.15011 78 85 87 255 0.196478 0.265809 
0.05661 0.120786 0.378197 0 -0.00650942 0 85 94 97 255 0.236436 0.263411 
0.137291 0.120786 0.378197 0 -0.00650942 0 85 94 97 255 0.236436 0.263411 
0.137291 0.120786 0.458878 0 -0.00650942 0 85 94 97 255 0.236436 0.263411 
0.05661 0.120786 0.378197 0 -0.00650942 0 85 94 97 255 0.236436 0.263411 
0.137291 0.120786 0.458878 0 -0.00650942 0 85 94 97 255 0.236436 0.263411 
0.05661 0.120786 0.458878 0 -0.00650942 0 85 94 97 255 0.236436 0.263411 
0.137291 0.120786 0.458878 0.15011 0 0 85 94 97 255 0.236436 0.263411 
0.137291 0.120786 0.378197 0.15011 0 0 85 94 97 255 0.236436 0.263411 
0.137291 1.98132 0.378197 0.15011 0 0 85 94 97 255 0.236436 0.263411 
0.137291 0.120786 0.458878 0.15011 -0 0 85 94 97 255 0.236436 0.263411 
0.137291 1.98132 0.378197 0.15011 -0 0 85 94 97 255 0.236436 0.263411 
0.137291 1.98132 0.458878 0.15011 -0 0 85 94 97 255 0.236436 0.263411 
0.05661 0.120786 0.378197 -0.15011 0 0 85 94 97 255 0.236436 0.263411 
0.05661 0.120786 0.458878 -0.15011 0 0 85 94 97 255 0.236436 0.263411 
0.05661 1.98132 0.458878 -0.15011 0 0 85 94 97 255 0.236436 0.263411 
0.05661 0.120786 0.378197 -0.15011 0 0 85 94 97 255 0.236436 0.263411 
0.05661 1.98132 0.458878 -0.15011 0 0 85 94 97 255 0.236436 0.263411 
0.05661 1.98132 0.378197 -0.15011 0 0 85 94 97 255 0.236436 0.263411 
5.31448 0.120786 -0.31485 0 0 0.150109 85 94 97 255 0.236436 0.263411 
5.39516 0.120786 -0.31485 0 0 0.150109 85 94 97 255 0.236436 0.263411 
5.39516 1.98132 -0.31485 0 0 0.150109 85 94 97 255 0.236436 0.263411 
5.31448 0.120786 -0.31485 0 0 0.150109 85 94 97 255 0.236436 0.263411 
5.39516 1.98132 -0.31485 0 0 0.150109 85 94 97 255 0.236436 0.263411 
5.31448 1.98132 -0.31485 0 0 0.150109 85 94 97 255 0.236436 0.263411 
5.31448 1.98132 -0.31485 -0 0.00650994 0 85 94 97 255 0.236436 0.263411 
5.39516 1.98132 -0.31485 -0 0.00650994 0 85 94 97 255 0.236436 0.263411 
5.39516 1.98132 -0.395538 -0 0.00650994 0 85 94 97 255 0.236436 0.263412 
5.31448 1.98132 -0.31485 0 0.00650994 0 85 94 97 255 0.236436 0.263411 
5.39516 1.98132 -0.395538 0 0.00650994 0 85 94 97 255 0.236436 0.263412 
5.31448 1.98132 -0.395538 0 0.00650994 0 85 94 97 255 0.236436 0.263412 
5.31448 1.98132 -0.395538 0 0 -0.150109 78 85 87 255 0.196478 0.265809 
5.39516 1.98132 -0.395538 0 0 -0.150109 78 85 87 255 0.196477 0.265809 
5.39516 0.120786 -0.395538 0 0 -0.150109 78 85 87 255 0.196477 0.265809 
5.31448 1.98132 -0.395538 0 0 -0.150109 78 85 87 255 0.196478 0.265809 
5.39516 0.120786 -0.395538 0 0 -0.150109 78 85 87 255 0.196477 0.265809 
5.31448 0.120786 -0.395538 0 0 -0.150109 78 85 87 255 0.196478 0.265809 
5.31448 0.120786 -0.395538 0 -0.00650994 0 85 94 97 255 0.236436 0.263411 
5.39516 0.120786 -0.395538 0 -0.00650994 0 85 94 97 255 0.236436 0.263411 
5.39516 0.120786 -0.31485 0 -0.00650994 0 85 94 97 255 0.236436 0.263411 
5.31448 0.120786 -0.395538 0 -0.00650994 0 85 94 97 255 0.236436 0.263411 
5.39516 0.120786 -0.31485 0 -0.00650994 0 85 94 97 255 0.236436 0.263411 
5.31448 0.120786 -0.31485 0 -0.00650994 0 85 94 97 255 0.236436 0.263411 
5.39516 0.120786 -0.31485 0.150123 0 0 85 94 97 255 0.236436 0.263411 
5.39516 0.120786 -0.395538 0.150123 0 0 85 94 97 255 0.236436 0.263411 
5.39516 1.98132 -0.395538 0.150123 0 0 85 94 97 255 0.236436 0.263411 
5.39516 0.120786 -0.31485 0.150123 -0 0 85 94 97 255 0.236436 0.263411 
5.39516 1.98132 -0.395538 0.150123 -0 0 85 94 97 255 0.236436 0.263411 
5.39516 1.98132 -0.31485 0.150123 -0 0 85 94 97 255 0.236436 0.263411 
5.31448 0.120786 -0.395538 -0.150123 0 0 85 94 97 255 0.236436 0.263411 
5.31448 0.120786 -0.31485 -0.150123 0 0 85 94 97 255 0.236436 0.263411 
5.31448 1.98132 -0.31485 -0.150123 0 0 85 94 97 255 0.236436 0.263411 
5.31448 0.120786 -0.395538 -0.150123 0 0 85 94 97 255 0.236436 0.263411 
5.31448 1.98132 -0.31485 -0.150123 0 0 85 94 97 255 0.236436 0.263411 
5.31448 1.98132 -0.395538 -0.150123 0 0 85 94 97 255 0.236436 0.263411 
4.55579 0.120786 0.438301 0 0 0.150126 78 85 87 255 0.196478 0.265809 
4.63648 0.120786 0.438301 0 0 0.150126 78 85 87 255 0.196477 0.265809 
4.63648 1.98132 0.438301 0 0 0.150126 78 85 87 255 0.196477 0.265809 
4.55579 0.120786 0.438301 0 0 0.150126 78 85 87 255 0.196478 0.265809 
4.63648 1.98132 0.438301 0 0 0.150126 78 85 87 255 0.196477 0.265809 
4.55579 1.98132 0.438301 0 0 0.150126 78 85 87 255 0.196478 0.265809 
4.55579 1.98132 0.438301 -0 0.00651014 0 85 94 97 255 0.236436 0.263411 
4.63648 1.98132 0.438301 -0 0.00651014 0 85 94 97 255 0.236436 0.263411 
4.63648 1.98132 0.35762 -0 0.00651014 0 85 94 97 255 0.236436 0.263412 
4.55579 1.98132 0.438301 0 0.00651014 0 85 94 97 255 0.236436 0.263411 
4.63648 1.98132 0.35762 0 0.00651014 0 85 94 97 255 0.236436 0.263412 
4.55579 1.98132 0.35762 0 0.00651014 0 85 94 97 255 0.236436 0.263412 
4.55579 1.98132 0.35762 0 0 -0.150126 78 85 87 255 0.196478 0.265809 
4.63648 1.98132 0.35762 0 0 -0.150126 78 85 87 255 0.196477 0.265809 
4.63648 0.120786 0.35762 0 0 -0.150126 78 85 87 255 0.196477 0.265809 
4.55579 1.98132 0.35762 0 0 -0.150126 78 85 87 255 0.196478 0.265809 
4.63648 0.120786 0.35762 0 0 -0.150126 78 85 87 255 0.196477 0.265809 
4.55579 0.120786 0.35762 0 0 -0.150126 78 85 87 255 0.196478 0.265809 
4.55579 0.120786 0.35762 0 -0.00651014 0 85 94 97 255 0.236436 0.263411 
4.63648 0.120786 0.35762 0 -0.00651014 0 85 94 97 255 0.236436 0.263411 
4.63648 0.120786 0.438301 0 -0.00651014 0 85 94 97 255 0.236436 0.263411 
4.55579 0.120786 0.35762 0 -0.00651014 0 85 94 97 255 0.236436 0.263411 
4.63648 0.120786 0.438301 0 -0.00651014 0 85 94 97 255 0.236436 0.263411 
4.55579 0.120786 0.438301 0 -0.00651014 0 85 94 97 255 0.236436 0.263411 
4.63648 0.120786 0.438301 0.15011 0 0 85 94 97 255 0.236436 0.263411 
4.63648 0.120786 0.35762 0.15011 0 0 85 94 97 255 0.236436 0.263411 
4.63648 1.98132 0.35762 0.15011 0 0 85 94 97 255 0.236436 0.263411 
4.63648 0.120786 0.438301 0.15011 -0 0 85 94 97 255 0.236436 0.263411 
4.63648 1.98132 0.35762 0.15011 -0 0 85 94 97 255 0.236436 0.263411 
4.63648 1.98132 0.438301 0.15011 -0 0 85 94 97 255 0.236436 0.263411 
4.55579 0.120786 0.35762 -0.15011 0 0 85 94 97 255 0.236436 0.263411 
4.55579 0.120786 0.438301 -0.15011 0 0 85 94 97 255 0.236436 0.263411 
4.55579 1.98132 0.438301 -0.15011 0 0 85 94 97 255 0.236436 0.263411 
4.55579 0.120786 0.35762 -0.15011 0 0 85 94 97 255 0.236436 0.263411 
4.55579 1.98132 0.438301 -0.15011 0 0 85 94 97 255 0.236436 0.263411 
4.55579 1.98132 0.35762 -0.15011 0 0 85 94 97 255 0.236436 0.263411 
3 0 1 2
3 3 4 5
3 6 7 8
3 9 10 11
3 12 13 14
3 15 16 17
3 18 19 20
3 21 22 23
3 24 25 26
3 27 28 29
3 30 31 32
3 33 34 35
3 36 37 38
3 39 40 41
3 42 43 44
3 45 46 47
3 48 49 50
3 51 52 53
3 54 55 56
3 57 58 59
3 60 61 62
3 63 64 65
3 66 67 68
3 69 70 71
3 72 73 74
3 75 76 77
3 78 79 80
3 81 82 83
3 84 85 86
3 87 88 89
3 90 91 92
3 93 94 95
3 96 97 98
3 99 100 101
3 102 103 104
3 105 106 107
3 108 109 110
3 111 112 113
3 114 115 116
3 117 118 119
3 120 121 122
3 123 124 125
3 126 127 128
3 129 130 131
3 132 133 134
3 135 136 137
3 138 139 140
3 141 142 143
3 144 145 146
3 147 148 149
3 150 151 152
3 153 154 155
3 156 157 158
3 159 160 161
3 162 163 164
3 165 166 167
3 168 169 170
3 171 172 173
3 174 175 176
3 177 178 179
3 180 181 182
3 183 184 185
3 186 187 188
3 189 190 191
3 192 193 194
3 195 196 197
3 198 199 200
3 201 202 203
3 204 205 206
3 207 208 209
3 210 211 212
3 213 214 215
3 216 217 218
3 219 220 221
3 222 223 224
3 225 226 227
3 228 229 230
3 231 232 233
3 234 235 236
3 237 238 239
3 240 241 242
3 243 244 245
3 246 247 248
3 249 250 251
3 252 253 254
3 255 256 257
3 258 259 260
3 261 262 263
3 264 265 266
3 267 268 269
3 270 271 272
3 273 274 275
3 276 277 278
3 279 280 281
3 282 283 284
3 285 286 287
3 288 289 290
3 291 292 293
3 294 295 296
3 297 298 299
3 300 301 302
3 303 304 305
3 306 307 308
3 309 310 311
3 312 313 314
3 315 316 317
3 318 319 320
3 321 322 323
3 324 325 326
3 327 328 329
3 330 331 332
3 333 334 335
3 336 337 338
3 339 340 341
3 342 343 344
3 345 346 347
