ply
format ascii 1.0
comment Feeney's Flatenator generated
comment TextureFile SpaceInteriors_Texture.png
element vertex 174
property float x
property float y
property float z
property float nx
property float ny
property float nz
property uchar red
property uchar green
property uchar blue
property uchar alpha
element face 58
property list uchar int vertex_indices
end_header
0.184953 -0.267869 0.184956 -0 -0.136835 0 122 128 138 255 
-0.184959 -0.267869 0.184956 -0 -0.136835 0 122 128 138 255 
-0.184959 -0.267869 -0.184956 -0 -0.136835 0 122 128 138 255 
0.184953 -0.267869 0.184956 0 -0.136835 -0 122 128 138 255 
-0.184959 -0.267869 -0.184956 0 -0.136835 -0 122 128 138 255 
0.184953 -0.267869 -0.184956 0 -0.136835 -0 122 128 138 255 
0.534904 0 0.534902 0 0 0.13758 89 93 100 255 
-0.534905 0 0.534902 0 0 0.13758 89 93 100 255 
-0.534905 -0.128602 0.534902 0 0 0.13758 89 93 100 255 
0.534904 0 0.534902 0 0 0.13758 89 93 100 255 
-0.534905 -0.128602 0.534902 0 0 0.13758 89 93 100 255 
0.534904 -0.128602 0.534902 0 0 0.13758 89 93 100 255 
-0.534905 0 0.534902 -0.13758 0 -0 105 111 119 255 
-0.534905 0 -0.534907 -0.13758 0 -0 105 111 119 255 
-0.534905 -0.128602 -0.534907 -0.13758 0 -0 105 111 119 255 
-0.534905 0 0.534902 -0.13758 -0 0 105 111 119 255 
-0.534905 -0.128602 -0.534907 -0.13758 -0 0 105 111 119 255 
-0.534905 -0.128602 0.534902 -0.13758 -0 0 105 111 119 255 
-0.534905 0 -0.534907 0 0 -0.13758 89 93 100 255 
0.534904 0 -0.534907 0 0 -0.13758 89 93 100 255 
0.534904 -0.128602 -0.534907 0 0 -0.13758 89 93 100 255 
-0.534905 0 -0.534907 0 0 -0.13758 89 93 100 255 
0.534904 -0.128602 -0.534907 0 0 -0.13758 89 93 100 255 
-0.534905 -0.128602 -0.534907 0 0 -0.13758 89 93 100 255 
0.534904 0 -0.534907 0.13758 0 -0 105 111 119 255 
0.534904 0 0.534902 0.13758 0 -0 105 111 119 255 
0.534904 -0.128602 0.534902 0.13758 0 -0 105 111 119 255 
0.534904 0 -0.534907 0.13758 0 0 105 111 119 255 
0.534904 -0.128602 0.534902 0.13758 0 0 105 111 119 255 
0.534904 -0.128602 -0.534907 0.13758 0 0 105 111 119 255 
0.534904 -0.128602 0.534902 -0 -0.0729652 0 122 128 138 255 
-0.534905 -0.128602 0.534902 -0 -0.0729652 0 122 128 138 255 
-0.466698 -0.128602 0.466698 -0 -0.0729652 0 122 128 138 255 
0.534904 -0.128602 0.534902 0 -0.0636613 0 122 128 138 255 
-0.466698 -0.128602 0.466698 0 -0.0636613 0 122 128 138 255 
0.466698 -0.128602 0.466698 0 -0.0636613 0 122 128 138 255 
-0.534905 -0.128602 0.534902 0 -0.0729685 0 122 128 138 255 
-0.534905 -0.128602 -0.534907 0 -0.0729685 0 122 128 138 255 
-0.466698 -0.128602 -0.466698 0 -0.0729685 0 122 128 138 255 
-0.534905 -0.128602 0.534902 0 -0.0636642 0 122 128 138 255 
-0.466698 -0.128602 -0.466698 0 -0.0636642 0 122 128 138 255 
-0.466698 -0.128602 0.466698 0 -0.0636642 0 122 128 138 255 
-0.534905 -0.128602 -0.534907 0 -0.0729706 0 122 128 138 255 
0.534904 -0.128602 -0.534907 0 -0.0729706 0 122 128 138 255 
0.466698 -0.128602 -0.466698 0 -0.0729706 0 122 128 138 255 
-0.534905 -0.128602 -0.534907 0 -0.063666 0 122 128 138 255 
0.466698 -0.128602 -0.466698 0 -0.063666 0 122 128 138 255 
-0.466698 -0.128602 -0.466698 0 -0.063666 0 122 128 138 255 
0.534904 -0.128602 -0.534907 0 -0.0729674 0 122 128 138 255 
0.534904 -0.128602 0.534902 0 -0.0729674 0 122 128 138 255 
0.466698 -0.128602 0.466698 0 -0.0729674 0 122 128 138 255 
0.534904 -0.128602 -0.534907 0 -0.0636632 0 122 128 138 255 
0.466698 -0.128602 0.466698 0 -0.0636632 0 122 128 138 255 
0.466698 -0.128602 -0.466698 0 -0.0636632 0 122 128 138 255 
0.466698 -0.128602 0.466698 0 -0.030369 0.0332728 89 93 100 255 
-0.466698 -0.128602 0.466698 0 -0.030369 0.0332728 89 93 100 255 
-0.434162 -0.164249 0.434162 0 -0.030369 0.0332728 89 93 100 255 
0.466698 -0.128602 0.466698 0 -0.0282518 0.0309531 89 93 100 255 
-0.434162 -0.164249 0.434162 0 -0.0282518 0.0309531 89 93 100 255 
0.434162 -0.164249 0.434162 0 -0.0282518 0.0309531 89 93 100 255 
-0.466698 -0.128602 0.466698 -0.0332728 -0.030369 -0 105 111 119 255 
-0.466698 -0.128602 -0.466698 -0.0332728 -0.030369 -0 105 111 119 255 
-0.434162 -0.164249 -0.434162 -0.0332728 -0.030369 -0 105 111 119 255 
-0.466698 -0.128602 0.466698 -0.0309531 -0.0282518 0 105 111 119 255 
-0.434162 -0.164249 -0.434162 -0.0309531 -0.0282518 0 105 111 119 255 
-0.434162 -0.164249 0.434162 -0.0309531 -0.0282518 0 105 111 119 255 
-0.466698 -0.128602 -0.466698 0 -0.030369 -0.0332728 89 93 100 255 
0.466698 -0.128602 -0.466698 0 -0.030369 -0.0332728 89 93 100 255 
0.434162 -0.164249 -0.434162 0 -0.030369 -0.0332728 89 93 100 255 
-0.466698 -0.128602 -0.466698 0 -0.0282518 -0.0309531 89 93 100 255 
0.434162 -0.164249 -0.434162 0 -0.0282518 -0.0309531 89 93 100 255 
-0.434162 -0.164249 -0.434162 0 -0.0282518 -0.0309531 89 93 100 255 
0.466698 -0.128602 -0.466698 0.0332728 -0.030369 0 105 111 119 255 
0.466698 -0.128602 0.466698 0.0332728 -0.030369 0 105 111 119 255 
0.434162 -0.164249 0.434162 0.0332728 -0.030369 0 105 111 119 255 
0.466698 -0.128602 -0.466698 0.0309531 -0.0282518 0 105 111 119 255 
0.434162 -0.164249 0.434162 0.0309531 -0.0282518 0 105 111 119 255 
0.434162 -0.164249 -0.434162 0.0309531 -0.0282518 0 105 111 119 255 
0.434162 -0.164249 0.434162 -0 -0.0872665 0 122 128 138 255 
-0.434162 -0.164249 0.434162 -0 -0.0872665 0 122 128 138 255 
-0.333665 -0.164249 0.333662 -0 -0.0872665 0 122 128 138 255 
0.434162 -0.164249 0.434162 0 -0.0670661 0 122 128 138 255 
-0.333665 -0.164249 0.333662 0 -0.0670661 0 122 128 138 255 
0.333659 -0.164249 0.333662 0 -0.0670661 0 122 128 138 255 
0.434162 -0.164249 -0.434162 0 -0.0872692 0 122 128 138 255 
0.434162 -0.164249 0.434162 0 -0.0872692 0 122 128 138 255 
0.333659 -0.164249 0.333662 0 -0.0872692 0 122 128 138 255 
0.434162 -0.164249 -0.434162 0 -0.0670681 0 122 128 138 255 
0.333659 -0.164249 0.333662 0 -0.0670681 0 122 128 138 255 
0.333659 -0.164249 -0.333662 0 -0.0670681 0 122 128 138 255 
-0.434162 -0.164249 -0.434162 0 -0.0872665 0 122 128 138 255 
0.434162 -0.164249 -0.434162 0 -0.0872665 0 122 128 138 255 
0.333659 -0.164249 -0.333662 0 -0.0872665 0 122 128 138 255 
-0.434162 -0.164249 -0.434162 0 -0.0670661 0 122 128 138 255 
0.333659 -0.164249 -0.333662 0 -0.0670661 0 122 128 138 255 
-0.333665 -0.164249 -0.333662 0 -0.0670661 0 122 128 138 255 
-0.434162 -0.164249 0.434162 0 -0.0872639 0 122 128 138 255 
-0.434162 -0.164249 -0.434162 0 -0.0872639 0 122 128 138 255 
-0.333665 -0.164249 -0.333662 0 -0.0872639 0 122 128 138 255 
-0.434162 -0.164249 0.434162 0 -0.067064 0 122 128 138 255 
-0.333665 -0.164249 -0.333662 0 -0.067064 0 122 128 138 255 
-0.333665 -0.164249 0.333662 0 -0.067064 0 122 128 138 255 
0.333659 -0.164249 0.333662 0 -0.0130188 0.0342004 89 93 100 255 
-0.333665 -0.164249 0.333662 0 -0.0130188 0.0342004 89 93 100 255 
-0.314153 -0.215499 0.314153 0 -0.0130188 0.0342004 89 93 100 255 
0.333659 -0.164249 0.333662 0 -0.0122576 0.0322006 89 93 100 255 
-0.314153 -0.215499 0.314153 0 -0.0122576 0.0322006 89 93 100 255 
0.314151 -0.215499 0.314153 0 -0.0122576 0.0322006 89 93 100 255 
-0.333665 -0.164249 0.333662 -0.0342004 -0.0130208 -0 105 111 119 255 
-0.333665 -0.164249 -0.333662 -0.0342004 -0.0130208 -0 105 111 119 255 
-0.314153 -0.215499 -0.314153 -0.0342004 -0.0130208 -0 105 111 119 255 
-0.333665 -0.164249 0.333662 -0.0322007 -0.0122595 0 105 111 119 255 
-0.314153 -0.215499 -0.314153 -0.0322007 -0.0122595 0 105 111 119 255 
-0.314153 -0.215499 0.314153 -0.0322007 -0.0122595 0 105 111 119 255 
-0.333665 -0.164249 -0.333662 0 -0.0130188 -0.0342004 89 93 100 255 
0.333659 -0.164249 -0.333662 0 -0.0130188 -0.0342004 89 93 100 255 
0.314151 -0.215499 -0.314153 0 -0.0130188 -0.0342004 89 93 100 255 
-0.333665 -0.164249 -0.333662 0 -0.0122576 -0.0322006 89 93 100 255 
0.314151 -0.215499 -0.314153 0 -0.0122576 -0.0322006 89 93 100 255 
-0.314153 -0.215499 -0.314153 0 -0.0122576 -0.0322006 89 93 100 255 
0.333659 -0.164249 -0.333662 0.0342004 -0.0130182 0 105 111 119 255 
0.333659 -0.164249 0.333662 0.0342004 -0.0130182 0 105 111 119 255 
0.314151 -0.215499 0.314153 0.0342004 -0.0130182 0 105 111 119 255 
0.333659 -0.164249 -0.333662 0.0322007 -0.012257 0 105 111 119 255 
0.314151 -0.215499 0.314153 0.0322007 -0.012257 0 105 111 119 255 
0.314151 -0.215499 -0.314153 0.0322007 -0.012257 0 105 111 119 255 
0.314151 -0.215499 0.314153 -0 -0.0637006 0 122 128 138 255 
-0.314153 -0.215499 0.314153 -0 -0.0637006 0 122 128 138 255 
-0.212771 -0.215499 0.212768 -0 -0.0637006 0 122 128 138 255 
0.314151 -0.215499 0.314153 0 -0.043143 0 122 128 138 255 
-0.212771 -0.215499 0.212768 0 -0.043143 0 122 128 138 255 
0.212765 -0.215499 0.212768 0 -0.043143 0 122 128 138 255 
-0.314153 -0.215499 0.314153 0 -0.0636989 0 122 128 138 255 
-0.314153 -0.215499 -0.314153 0 -0.0636989 0 122 128 138 255 
-0.212771 -0.215499 -0.212768 0 -0.0636989 0 122 128 138 255 
-0.314153 -0.215499 0.314153 0 -0.0431417 0 122 128 138 255 
-0.212771 -0.215499 -0.212768 0 -0.0431417 0 122 128 138 255 
-0.212771 -0.215499 0.212768 0 -0.0431417 0 122 128 138 255 
-0.314153 -0.215499 -0.314153 0 -0.0637006 0 122 128 138 255 
0.314151 -0.215499 -0.314153 0 -0.0637006 0 122 128 138 255 
0.212765 -0.215499 -0.212768 0 -0.0637006 0 122 128 138 255 
-0.314153 -0.215499 -0.314153 0 -0.043143 0 122 128 138 255 
0.212765 -0.215499 -0.212768 0 -0.043143 0 122 128 138 255 
-0.212771 -0.215499 -0.212768 0 -0.043143 0 122 128 138 255 
0.314151 -0.215499 -0.314153 0 -0.0637014 0 122 128 138 255 
0.314151 -0.215499 0.314153 0 -0.0637014 0 122 128 138 255 
0.212765 -0.215499 0.212768 0 -0.0637014 0 122 128 138 255 
0.314151 -0.215499 -0.314153 0 -0.0431434 0 122 128 138 255 
0.212765 -0.215499 0.212768 0 -0.0431434 0 122 128 138 255 
0.212765 -0.215499 -0.212768 0 -0.0431434 0 122 128 138 255 
0.212765 -0.215499 0.212768 0 -0.011835 0.0222853 89 93 100 255 
-0.212771 -0.215499 0.212768 0 -0.011835 0.0222853 89 93 100 255 
-0.184959 -0.267869 0.184956 0 -0.011835 0.0222853 89 93 100 255 
0.212765 -0.215499 0.212768 0 -0.010288 0.0193723 89 93 100 255 
-0.184959 -0.267869 0.184956 0 -0.010288 0.0193723 89 93 100 255 
0.184953 -0.267869 0.184956 0 -0.010288 0.0193723 89 93 100 255 
-0.212771 -0.215499 0.212768 -0.0222853 -0.011835 -0 105 111 119 255 
-0.212771 -0.215499 -0.212768 -0.0222853 -0.011835 -0 105 111 119 255 
-0.184959 -0.267869 -0.184956 -0.0222853 -0.011835 -0 105 111 119 255 
-0.212771 -0.215499 0.212768 -0.0193723 -0.010288 0 105 111 119 255 
-0.184959 -0.267869 -0.184956 -0.0193723 -0.010288 0 105 111 119 255 
-0.184959 -0.267869 0.184956 -0.0193723 -0.010288 0 105 111 119 255 
-0.212771 -0.215499 -0.212768 0 -0.011835 -0.0222853 89 93 100 255 
0.212765 -0.215499 -0.212768 0 -0.011835 -0.0222853 89 93 100 255 
0.184953 -0.267869 -0.184956 0 -0.011835 -0.0222853 89 93 100 255 
-0.212771 -0.215499 -0.212768 0 -0.010288 -0.0193723 89 93 100 255 
0.184953 -0.267869 -0.184956 0 -0.010288 -0.0193723 89 93 100 255 
-0.184959 -0.267869 -0.184956 0 -0.010288 -0.0193723 89 93 100 255 
0.212765 -0.215499 -0.212768 0.0222853 -0.011835 0 105 111 119 255 
0.212765 -0.215499 0.212768 0.0222853 -0.011835 0 105 111 119 255 
0.184953 -0.267869 0.184956 0.0222853 -0.011835 0 105 111 119 255 
0.212765 -0.215499 -0.212768 0.0193723 -0.010288 0 105 111 119 255 
0.184953 -0.267869 0.184956 0.0193723 -0.010288 0 105 111 119 255 
0.184953 -0.267869 -0.184956 0.0193723 -0.010288 0 105 111 119 255 
3 0 1 2
3 3 4 5
3 6 7 8
3 9 10 11
3 12 13 14
3 15 16 17
3 18 19 20
3 21 22 23
3 24 25 26
3 27 28 29
3 30 31 32
3 33 34 35
3 36 37 38
3 39 40 41
3 42 43 44
3 45 46 47
3 48 49 50
3 51 52 53
3 54 55 56
3 57 58 59
3 60 61 62
3 63 64 65
3 66 67 68
3 69 70 71
3 72 73 74
3 75 76 77
3 78 79 80
3 81 82 83
3 84 85 86
3 87 88 89
3 90 91 92
3 93 94 95
3 96 97 98
3 99 100 101
3 102 103 104
3 105 106 107
3 108 109 110
3 111 112 113
3 114 115 116
3 117 118 119
3 120 121 122
3 123 124 125
3 126 127 128
3 129 130 131
3 132 133 134
3 135 136 137
3 138 139 140
3 141 142 143
3 144 145 146
3 147 148 149
3 150 151 152
3 153 154 155
3 156 157 158
3 159 160 161
3 162 163 164
3 165 166 167
3 168 169 170
3 171 172 173
