ply
format ascii 1.0
comment Feeney's Flatenator generated
comment TextureFile SpaceInteriors_Texture.png
element vertex 6
property float x
property float y
property float z
property float nx
property float ny
property float nz
property float texture_u
property float texture_v
element face 2
property list uchar int vertex_indices
end_header
-3e-06 0 5 0 25 0 0.325991 0.062464 
-3e-06 0 0 0 25 0 0.325991 0.062464 
-5 0 0 0 25 0 0.325991 0.062464 
-3e-06 0 5 0 25 0 0.325991 0.062464 
-5 0 0 0 25 0 0.325991 0.062464 
-5 0 5 0 25 0 0.325991 0.062464 
3 0 1 2
3 3 4 5
