ply
format ascii 1.0
comment Feeney's Flatenator generated
comment TextureFile SpaceInteriors_Texture.png
element vertex 480
property float x
property float y
property float z
property float nx
property float ny
property float nz
element face 160
property list uchar int vertex_indices
end_header
1.54263 4.41473 0.088497 2.3087 -2.30866 2.03717 
4e-06 5 2.5 2.3087 -2.30866 2.03717 
0.585276 3.45736 0.088498 2.3087 -2.30866 2.03717 
2e-06 3.75 2.5 6.02875 0 1.46318 
2e-06 1.25 2.5 6.02875 0 1.46318 
0.585276 1.54263 0.0885 6.02875 0 1.46318 
2e-06 3.75 2.5 4.61738 1.19209e-06 1.12064 
0.585276 1.54263 0.0885 4.61738 1.19209e-06 1.12064 
0.585276 3.45736 0.088498 4.61738 1.19209e-06 1.12064 
1.54263 0.585271 0.088497 0 3.01438 0.731589 
0 0 2.5 0 3.01438 0.731589 
1.25 0 2.5 0 3.01438 0.731589 
1.25 0 2.5 -0 6.02876 1.46318 
3.75 0 2.5 -0 6.02876 1.46318 
3.45737 0.585271 0.088497 -0 6.02876 1.46318 
1.25 0 2.5 0 4.6174 1.12064 
3.45737 0.585271 0.088497 0 4.6174 1.12064 
1.54263 0.585271 0.088497 0 4.6174 1.12064 
3.45737 0.585271 0.088497 -2.30868 2.30867 2.03717 
5 0 2.5 -2.30868 2.30867 2.03717 
4.41473 1.54263 0.0885 -2.30868 2.30867 2.03717 
5 1.25 2.5 -6.02875 0 1.46317 
5 3.75 2.5 -6.02875 0 1.46317 
4.41473 3.45736 0.088498 -6.02875 0 1.46317 
5 1.25 2.5 -4.61737 1.19209e-06 1.12063 
4.41473 3.45736 0.088498 -4.61737 1.19209e-06 1.12063 
4.41473 1.54263 0.0885 -4.61737 1.19209e-06 1.12063 
4.41473 3.45736 0.088498 -2.3087 -2.30868 2.03718 
5 5 2.5 -2.3087 -2.30868 2.03718 
3.45737 4.41473 0.088497 -2.3087 -2.30868 2.03718 
3.75 5 2.5 0 -6.02876 1.46317 
1.25 5 2.5 0 -6.02876 1.46317 
1.54263 4.41473 0.088497 0 -6.02876 1.46317 
3.75 5 2.5 0 -4.6174 1.12064 
1.54263 4.41473 0.088497 0 -4.6174 1.12064 
3.45737 4.41473 0.088497 0 -4.6174 1.12064 
1.54263 4.41473 0.088497 -0.126779 0.126777 0 
0.585276 3.45736 0.088498 -0.126779 0.126777 0 
0.585276 3.45736 0.220922 -0.126779 0.126777 0 
1.54263 4.41473 0.088497 -0.126779 0.126777 0 
0.585276 3.45736 0.220922 -0.126779 0.126777 0 
1.54263 4.41473 0.220921 -0.126779 0.126777 0 
0.585276 3.45736 0.088498 -0.253554 0 0 
0.585276 1.54263 0.0885 -0.253554 0 0 
0.585276 1.54263 0.220923 -0.253554 0 0 
0.585276 3.45736 0.088498 -0.253556 0 0 
0.585276 1.54263 0.220923 -0.253556 0 0 
0.585276 3.45736 0.220922 -0.253556 0 0 
0.585276 1.54263 0.0885 -0.126777 -0.126777 0 
1.54263 0.585271 0.088497 -0.126777 -0.126777 0 
1.54263 0.585271 0.220921 -0.126777 -0.126777 0 
0.585276 1.54263 0.0885 -0.126776 -0.126776 0 
1.54263 0.585271 0.220921 -0.126776 -0.126776 0 
0.585276 1.54263 0.220923 -0.126776 -0.126776 0 
1.54263 0.585271 0.088497 0 -0.253558 0 
3.45737 0.585271 0.088497 0 -0.253558 0 
3.45737 0.585271 0.220921 0 -0.253558 0 
1.54263 0.585271 0.088497 0 -0.253558 0 
3.45737 0.585271 0.220921 0 -0.253558 0 
1.54263 0.585271 0.220921 0 -0.253558 0 
3.45737 0.585271 0.088497 0.126776 -0.126776 0 
4.41473 1.54263 0.0885 0.126776 -0.126776 0 
4.41473 1.54263 0.220923 0.126776 -0.126776 0 
3.45737 0.585271 0.088497 0.126777 -0.126777 0 
4.41473 1.54263 0.220923 0.126777 -0.126777 0 
3.45737 0.585271 0.220921 0.126777 -0.126777 0 
4.41473 1.54263 0.0885 0.253556 -0 0 
4.41473 3.45736 0.088498 0.253556 -0 0 
4.41473 3.45736 0.220922 0.253556 -0 0 
4.41473 1.54263 0.0885 0.253554 0 0 
4.41473 3.45736 0.220922 0.253554 0 0 
4.41473 1.54263 0.220923 0.253554 0 0 
4.41473 3.45736 0.088498 0.126779 0.126777 0 
3.45737 4.41473 0.088497 0.126779 0.126777 0 
3.45737 4.41473 0.220921 0.126779 0.126777 0 
4.41473 3.45736 0.088498 0.126779 0.126777 -0 
3.45737 4.41473 0.220921 0.126779 0.126777 -0 
4.41473 3.45736 0.220922 0.126779 0.126777 -0 
3.45737 4.41473 0.088497 0 0.253558 0 
1.54263 4.41473 0.088497 0 0.253558 0 
1.54263 4.41473 0.220921 0 0.253558 0 
3.45737 4.41473 0.088497 0 0.253558 -0 
1.54263 4.41473 0.220921 0 0.253558 -0 
3.45737 4.41473 0.220921 0 0.253558 -0 
1.54263 4.41473 0.220921 7.92213e-08 1.58453e-07 0.22791 
0.585276 3.45736 0.220922 7.92213e-08 1.58453e-07 0.22791 
0.743986 3.37801 0.220922 7.92213e-08 1.58453e-07 0.22791 
1.54263 4.41473 0.220921 -1.92706e-06 1.68583e-06 0.209035 
0.743986 3.37801 0.220922 -1.92706e-06 1.68583e-06 0.209035 
1.62199 4.25601 0.220923 -1.92706e-06 1.68583e-06 0.209035 
0.585276 3.45736 0.220922 -8.04139e-08 1.60818e-07 0.303887 
0.585276 1.54263 0.220923 -8.04139e-08 1.60818e-07 0.303887 
0.743986 1.62199 0.220923 -8.04139e-08 1.60818e-07 0.303887 
0.585276 3.45736 0.220922 8.04037e-08 1.60818e-07 0.278698 
0.743986 1.62199 0.220923 8.04037e-08 1.60818e-07 0.278698 
0.743986 3.37801 0.220922 8.04037e-08 1.60818e-07 0.278698 
0.585276 1.54263 0.220923 3.1928e-07 -1.59645e-07 0.227922 
1.54263 0.585271 0.220921 3.1928e-07 -1.59645e-07 0.227922 
1.62199 0.743986 0.220921 3.1928e-07 -1.59645e-07 0.227922 
0.585276 1.54263 0.220923 1.59645e-07 -3.1927e-07 0.209026 
1.62199 0.743986 0.220921 1.59645e-07 -3.1927e-07 0.209026 
0.743986 1.62199 0.220923 1.59645e-07 -3.1927e-07 0.209026 
1.54263 0.585271 0.220921 0 0 0.303898 
3.45737 0.585271 0.220921 0 0 0.303898 
3.37801 0.743986 0.220921 0 0 0.303898 
1.54263 0.585271 0.220921 0 0 0.278707 
3.37801 0.743986 0.220921 0 0 0.278707 
1.62199 0.743986 0.220921 0 0 0.278707 
3.45737 0.585271 0.220921 -1.59645e-07 -3.1927e-07 0.227919 
4.41473 1.54263 0.220923 -1.59645e-07 -3.1927e-07 0.227919 
4.25602 1.62199 0.220923 -1.59645e-07 -3.1927e-07 0.227919 
3.45737 0.585271 0.220921 -3.1928e-07 -1.59645e-07 0.209032 
4.25602 1.62199 0.220923 -3.1928e-07 -1.59645e-07 0.209032 
3.37801 0.743986 0.220921 -3.1928e-07 -1.59645e-07 0.209032 
4.41473 1.54263 0.220923 -8.04037e-08 1.60818e-07 0.303887 
4.41473 3.45736 0.220922 -8.04037e-08 1.60818e-07 0.303887 
4.25602 3.37801 0.220922 -8.04037e-08 1.60818e-07 0.303887 
4.41473 1.54263 0.220923 8.04138e-08 1.60818e-07 0.278698 
4.25602 3.37801 0.220922 8.04138e-08 1.60818e-07 0.278698 
4.25602 1.62199 0.220923 8.04138e-08 1.60818e-07 0.278698 
4.41473 3.45736 0.220922 1.76744e-06 2.00511e-06 0.227929 
3.45737 4.41473 0.220921 1.76744e-06 2.00511e-06 0.227929 
3.37801 4.25601 0.220923 1.76744e-06 2.00511e-06 0.227929 
4.41473 3.45736 0.220922 8.04037e-08 -1.60818e-07 0.209017 
3.37801 4.25601 0.220923 8.04037e-08 -1.60818e-07 0.209017 
4.25602 3.37801 0.220922 8.04037e-08 -1.60818e-07 0.209017 
3.45737 4.41473 0.220921 0 3.8518e-06 0.303908 
1.54263 4.41473 0.220921 0 3.8518e-06 0.303908 
1.62199 4.25601 0.220923 0 3.8518e-06 0.303908 
3.45737 4.41473 0.220921 0 3.53251e-06 0.278716 
1.62199 4.25601 0.220923 0 3.53251e-06 0.278716 
3.37801 4.25601 0.220923 0 3.53251e-06 0.278716 
1.62199 4.25601 0.220923 0.116268 -0.116269 0 
0.743986 3.37801 0.220922 0.116268 -0.116269 0 
0.743986 3.37801 0.088498 0.116268 -0.116269 0 
1.62199 4.25601 0.220923 0.116267 -0.116268 0 
0.743986 3.37801 0.088498 0.116267 -0.116268 0 
1.62199 4.25601 0.0885 0.116267 -0.116268 0 
0.743986 3.37801 0.220922 0.232537 0 0 
0.743986 1.62199 0.220923 0.232537 0 0 
0.743986 1.62199 0.0885 0.232537 0 0 
0.743986 3.37801 0.220922 0.232539 0 0 
0.743986 1.62199 0.0885 0.232539 0 0 
0.743986 3.37801 0.088498 0.232539 0 0 
0.743986 1.62199 0.220923 0.116269 0.116269 0 
1.62199 0.743986 0.220921 0.116269 0.116269 0 
1.62199 0.743986 0.088497 0.116269 0.116269 0 
0.743986 1.62199 0.220923 0.116268 0.116268 0 
1.62199 0.743986 0.088497 0.116268 0.116268 0 
0.743986 1.62199 0.0885 0.116268 0.116268 0 
1.62199 0.743986 0.220921 -0 0.232539 0 
3.37801 0.743986 0.220921 -0 0.232539 0 
3.37801 0.743986 0.088497 -0 0.232539 0 
1.62199 0.743986 0.220921 0 0.232539 0 
3.37801 0.743986 0.088497 0 0.232539 0 
1.62199 0.743986 0.088497 0 0.232539 0 
3.37801 0.743986 0.220921 -0.116268 0.116269 0 
4.25602 1.62199 0.220923 -0.116268 0.116269 0 
4.25602 1.62199 0.0885 -0.116268 0.116269 0 
3.37801 0.743986 0.220921 -0.116269 0.11627 0 
4.25602 1.62199 0.0885 -0.116269 0.11627 0 
3.37801 0.743986 0.088497 -0.116269 0.11627 0 
4.25602 1.62199 0.220923 -0.232539 0 0 
4.25602 3.37801 0.220922 -0.232539 0 0 
4.25602 3.37801 0.088498 -0.232539 0 0 
4.25602 1.62199 0.220923 -0.232537 0 0 
4.25602 3.37801 0.088498 -0.232537 0 0 
4.25602 1.62199 0.0885 -0.232537 0 0 
4.25602 3.37801 0.220922 -0.116267 -0.116269 0 
3.37801 4.25601 0.220923 -0.116267 -0.116269 0 
3.37801 4.25601 0.0885 -0.116267 -0.116269 0 
4.25602 3.37801 0.220922 -0.116268 -0.11627 -0 
3.37801 4.25601 0.0885 -0.116268 -0.11627 -0 
4.25602 3.37801 0.088498 -0.116268 -0.11627 -0 
3.37801 4.25601 0.220923 -0 -0.232537 0 
1.62199 4.25601 0.220923 -0 -0.232537 0 
1.62199 4.25601 0.0885 -0 -0.232537 0 
3.37801 4.25601 0.220923 0 -0.232537 -0 
1.62199 4.25601 0.0885 0 -0.232537 -0 
3.37801 4.25601 0.0885 0 -0.232537 -0 
2e-06 1.25 2.5 3.01437 -4.823e-06 0.731592 
0 0 2.5 3.01437 -4.823e-06 0.731592 
0.585276 1.54263 0.0885 3.01437 -4.823e-06 0.731592 
0.585276 1.54263 0.0885 2.30868 2.30866 2.03716 
0 0 2.5 2.30868 2.30866 2.03716 
1.54263 0.585271 0.088497 2.30868 2.30866 2.03716 
3.75 0 2.5 -0 3.01438 0.731589 
5 0 2.5 -0 3.01438 0.731589 
3.45737 0.585271 0.088497 -0 3.01438 0.731589 
4.41473 1.54263 0.0885 -3.01437 0 0.731587 
5 0 2.5 -3.01437 0 0.731587 
5 1.25 2.5 -3.01437 0 0.731587 
5 3.75 2.5 -3.01438 0 0.731587 
5 5 2.5 -3.01438 0 0.731587 
4.41473 3.45736 0.088498 -3.01438 0 0.731587 
3.45737 4.41473 0.088497 0 -3.01438 0.731587 
5 5 2.5 0 -3.01438 0.731587 
3.75 5 2.5 0 -3.01438 0.731587 
1.25 5 2.5 0 -3.01437 0.731585 
4e-06 5 2.5 0 -3.01437 0.731585 
1.54263 4.41473 0.088497 0 -3.01437 0.731585 
0.585276 3.45736 0.088498 3.01438 -4.76837e-06 0.731593 
4e-06 5 2.5 3.01438 -4.76837e-06 0.731593 
2e-06 3.75 2.5 3.01438 -4.76837e-06 0.731593 
3.37801 4.25601 0.0885 0.0153926 0.0153927 0.0496794 
3.5332 4.04424 0.106031 0.0153926 0.0153927 0.0496794 
4.25602 3.37801 0.088498 0.0153926 0.0153927 0.0496794 
4.25602 3.37801 0.088498 0.0127485 -7.21775e-07 0.525599 
3.5332 4.04424 0.106031 0.0127485 -7.21775e-07 0.525599 
3.5332 3.31709 0.10603 0.0127485 -7.21775e-07 0.525599 
4.25602 1.62199 0.0885 0.0153933 -0.0153937 0.0825102 
3.5332 0.993149 0.10603 0.0153933 -0.0153937 0.0825102 
3.37801 0.743986 0.088497 0.0153933 -0.0153937 0.0825102 
3.37801 0.743986 0.088497 0 -0.0362302 0.51487 
3.5332 0.993149 0.10603 0 -0.0362302 0.51487 
1.4668 0.993149 0.10603 0 -0.0362302 0.51487 
3.37801 0.743986 0.088497 0 -0.0307883 0.437535 
1.4668 0.993149 0.10603 0 -0.0307883 0.437535 
1.62199 0.743986 0.088497 0 -0.0307883 0.437535 
1.62199 0.743986 0.088497 -0.0153933 -0.0153936 0.0825087 
1.4668 0.993149 0.10603 -0.0153933 -0.0153936 0.0825087 
0.743986 1.62199 0.0885 -0.0153933 -0.0153936 0.0825087 
0.743986 1.62199 0.0885 -0.0326394 -7.20844e-07 1.34579 
1.4668 0.993149 0.10603 -0.0326394 -7.20844e-07 1.34579 
1.4668 2.85503 0.106031 -0.0326394 -7.20844e-07 1.34579 
0.743986 3.37801 0.088498 -0.0153926 0.0153926 0.0496781 
1.4668 4.04424 0.106031 -0.0153926 0.0153926 0.0496781 
1.62199 4.25601 0.0885 -0.0153926 0.0153926 0.0496781 
1.62199 4.25601 0.0885 0 0.0362261 0.437602 
1.4668 4.04424 0.106031 0 0.0362261 0.437602 
3.5332 4.04424 0.106031 0 0.0362261 0.437602 
1.62199 4.25601 0.0885 -0 0.0307848 0.371872 
3.5332 4.04424 0.106031 -0 0.0307848 0.371872 
3.37801 4.25601 0.0885 -0 0.0307848 0.371872 
1.4668 3.31709 0.10603 -0.0127485 -7.21641e-07 0.525594 
1.4668 4.04424 0.106031 -0.0127485 -7.21641e-07 0.525594 
0.743986 3.37801 0.088498 -0.0127485 -7.21641e-07 0.525594 
0.743986 1.62199 0.0885 -0.0081016 7.20844e-07 0.333983 
1.4668 2.85503 0.106031 -0.0081016 7.20844e-07 0.333983 
1.4668 3.31709 0.10603 -0.0081016 7.20844e-07 0.333983 
0.743986 1.62199 0.0885 -0.0307864 1.44867e-06 1.26928 
1.4668 3.31709 0.10603 -0.0307864 1.44867e-06 1.26928 
0.743986 3.37801 0.088498 -0.0307864 1.44867e-06 1.26928 
3.5332 2.85503 0.106031 0.0326394 -7.21647e-07 1.3458 
3.5332 0.993149 0.10603 0.0326394 -7.21647e-07 1.3458 
4.25602 1.62199 0.0885 0.0326394 -7.21647e-07 1.3458 
4.25602 3.37801 0.088498 0.00810078 7.21775e-07 0.333986 
3.5332 3.31709 0.10603 0.00810078 7.21775e-07 0.333986 
3.5332 2.85503 0.106031 0.00810078 7.21775e-07 0.333986 
4.25602 3.37801 0.088498 0.0307873 1.44868e-06 1.26929 
3.5332 2.85503 0.106031 0.0307873 1.44868e-06 1.26929 
4.25602 1.62199 0.0885 0.0307873 1.44868e-06 1.26929 
1.4668 2.85503 0.106031 -0 2.00804e-07 0.0929341 
1.66793 2.85503 0.106031 -0 2.00804e-07 0.0929341 
1.66793 3.31709 0.10603 -0 2.00804e-07 0.0929341 
1.4668 2.85503 0.106031 0 2.00804e-07 0.0929341 
1.66793 3.31709 0.10603 0 2.00804e-07 0.0929341 
1.4668 3.31709 0.10603 0 2.00804e-07 0.0929341 
3.5332 3.31709 0.10603 0 2.00794e-07 0.0929296 
3.33208 3.31709 0.10603 0 2.00794e-07 0.0929296 
3.33208 2.85503 0.106031 0 2.00794e-07 0.0929296 
3.5332 3.31709 0.10603 0 2.00794e-07 0.0929296 
3.33208 2.85503 0.106031 0 2.00794e-07 0.0929296 
3.5332 2.85503 0.106031 0 2.00794e-07 0.0929296 
3.44476 1.08159 0 0 0.264889 0 
1.55525 1.08159 0 0 0.264889 0 
1.55525 1.08159 0.140189 0 0.264889 0 
3.44476 1.08159 0 0 0.264889 -0 
1.55525 1.08159 0.140189 0 0.264889 -0 
3.44476 1.08159 0.140189 0 0.264889 -0 
1.55525 3.40553 -3e-06 0.0771432 0 0 
1.55525 3.95579 -3e-06 0.0771432 0 0 
1.55525 3.95579 0.140191 0.0771432 0 0 
1.55525 3.40553 -3e-06 0.0771426 0 0 
1.55525 3.95579 0.140191 0.0771426 0 0 
1.55525 3.40553 0.14019 0.0771426 0 0 
1.55525 1.08159 0 0.236224 -0 0 
1.55525 2.76659 -1e-06 0.236224 -0 0 
1.55525 2.76659 0.140191 0.236224 -0 0 
1.55525 1.08159 0 0.236218 0 0 
1.55525 2.76659 0.140191 0.236218 0 0 
1.55525 1.08159 0.140189 0.236218 0 0 
1.75637 3.40553 -3e-06 0 0.0281956 0 
1.55525 3.40553 -3e-06 0 0.0281956 0 
1.55525 3.40553 0.14019 0 0.0281956 0 
1.75637 3.40553 -3e-06 0 0.0281956 -0 
1.55525 3.40553 0.14019 0 0.0281956 -0 
1.75637 3.40553 0.14019 0 0.0281956 -0 
1.75637 2.76659 -1e-06 0.0895749 -0 0 
1.75637 3.40553 -3e-06 0.0895749 -0 0 
1.75637 3.40553 0.14019 0.0895749 -0 0 
1.75637 2.76659 -1e-06 0.0895743 0 0 
1.75637 3.40553 0.14019 0.0895743 0 0 
1.75637 2.76659 0.140191 0.0895743 0 0 
3.24363 2.76659 -1e-06 0 -0.0281968 0 
3.44476 2.76659 -1e-06 0 -0.0281968 0 
3.44476 2.76659 0.140191 0 -0.0281968 0 
3.24363 2.76659 -1e-06 0 -0.0281968 0 
3.44476 2.76659 0.140191 0 -0.0281968 0 
3.24363 2.76659 0.140191 0 -0.0281968 0 
3.5332 3.31709 0.14019 8.83065e-08 -8.82965e-08 0.0643091 
3.5332 4.04424 0.140191 8.83065e-08 -8.82965e-08 0.0643091 
3.44476 3.95579 0.140191 8.83065e-08 -8.82965e-08 0.0643091 
3.5332 3.31709 0.14019 -8.82965e-08 -8.82965e-08 0.048665 
3.44476 3.95579 0.140191 -8.82965e-08 -8.82965e-08 0.048665 
3.44476 3.40553 0.14019 -8.82965e-08 -8.82965e-08 0.048665 
1.4668 0.993149 0.140189 0 0 0.182755 
3.5332 0.993149 0.140189 0 0 0.182755 
3.44476 1.08159 0.140189 0 0 0.182755 
1.4668 0.993149 0.140189 0 0 0.16711 
3.44476 1.08159 0.140189 0 0 0.16711 
1.55525 1.08159 0.140189 0 0 0.16711 
1.4668 4.04424 0.140191 8.82965e-08 -8.83066e-08 0.0643165 
1.4668 3.31709 0.14019 8.82965e-08 -8.83066e-08 0.0643165 
1.55525 3.40553 0.14019 8.82965e-08 -8.83066e-08 0.0643165 
1.4668 4.04424 0.140191 -8.83065e-08 -8.83066e-08 0.0486705 
1.55525 3.40553 0.14019 -8.83065e-08 -8.83066e-08 0.0486705 
1.55525 3.95579 0.140191 -8.83065e-08 -8.83066e-08 0.0486705 
3.5332 4.04424 0.140191 0 0 0.182773 
1.4668 4.04424 0.140191 0 0 0.182773 
1.55525 3.95579 0.140191 0 0 0.182773 
3.5332 4.04424 0.140191 0 0 0.167127 
1.55525 3.95579 0.140191 0 0 0.167127 
3.44476 3.95579 0.140191 0 0 0.167127 
1.4668 2.85503 0.140191 1.76595e-07 -1.76613e-07 0.164684 
1.4668 0.993149 0.140189 1.76595e-07 -1.76613e-07 0.164684 
1.55525 1.08159 0.140189 1.76595e-07 -1.76613e-07 0.164684 
1.4668 2.85503 0.140191 -1.76593e-07 -1.76613e-07 0.149038 
1.55525 1.08159 0.140189 -1.76593e-07 -1.76613e-07 0.149038 
1.55525 2.76659 0.140191 -1.76593e-07 -1.76613e-07 0.149038 
3.5332 0.993149 0.140189 1.76593e-07 -1.76593e-07 0.164665 
3.5332 2.85503 0.140191 1.76593e-07 -1.76593e-07 0.164665 
3.44476 2.76659 0.140191 1.76593e-07 -1.76593e-07 0.164665 
3.5332 0.993149 0.140189 -1.76595e-07 -1.76593e-07 0.149021 
3.44476 2.76659 0.140191 -1.76595e-07 -1.76593e-07 0.149021 
3.44476 1.08159 0.140189 -1.76595e-07 -1.76593e-07 0.149021 
1.4668 3.31709 0.14019 0 0 0.0177879 
1.66793 3.31709 0.14019 0 0 0.0177879 
1.75637 3.40553 0.14019 0 0 0.0177879 
1.4668 3.31709 0.14019 0 0 0.017787 
1.75637 3.40553 0.14019 0 0 0.017787 
1.55525 3.40553 0.14019 0 0 0.017787 
1.66793 2.85503 0.140191 0 0 0.0177879 
1.4668 2.85503 0.140191 0 0 0.0177879 
1.55525 2.76659 0.140191 0 0 0.0177879 
1.66793 2.85503 0.140191 0 0 0.017787 
1.55525 2.76659 0.140191 0 0 0.017787 
1.75637 2.76659 0.140191 0 0 0.017787 
1.66793 3.31709 0.14019 8.82965e-08 8.82965e-08 0.0408646 
1.66793 2.85503 0.140191 8.82965e-08 8.82965e-08 0.0408646 
1.75637 2.76659 0.140191 8.82965e-08 8.82965e-08 0.0408646 
1.66793 3.31709 0.14019 -8.82965e-08 8.82965e-08 0.0565078 
1.75637 2.76659 0.140191 -8.82965e-08 8.82965e-08 0.0565078 
1.75637 3.40553 0.14019 -8.82965e-08 8.82965e-08 0.0565078 
3.33208 3.31709 0.14019 0 0 0.0177871 
3.5332 3.31709 0.14019 0 0 0.0177871 
3.44476 3.40553 0.14019 0 0 0.0177871 
3.33208 3.31709 0.14019 0 -0 0.0177879 
3.44476 3.40553 0.14019 0 -0 0.0177879 
3.24363 3.40553 0.14019 0 -0 0.0177879 
3.5332 2.85503 0.140191 0 0 0.0177871 
3.33208 2.85503 0.140191 0 0 0.0177871 
3.24363 2.76659 0.140191 0 0 0.0177871 
3.5332 2.85503 0.140191 0 0 0.0177879 
3.24363 2.76659 0.140191 0 0 0.0177879 
3.44476 2.76659 0.140191 0 0 0.0177879 
3.33208 2.85503 0.140191 8.82965e-08 8.83065e-08 0.0408692 
3.33208 3.31709 0.14019 8.82965e-08 8.83065e-08 0.0408692 
3.24363 3.40553 0.14019 8.82965e-08 8.83065e-08 0.0408692 
3.33208 2.85503 0.140191 -8.82965e-08 8.83065e-08 0.0565142 
3.24363 3.40553 0.14019 -8.82965e-08 8.83065e-08 0.0565142 
3.24363 2.76659 0.140191 -8.82965e-08 8.83065e-08 0.0565142 
3.5332 3.31709 0.10603 0.0248394 0 0 
3.5332 4.04424 0.106031 0.0248394 0 0 
3.5332 4.04424 0.140191 0.0248394 0 0 
3.5332 3.31709 0.10603 0.0248394 0 0 
3.5332 4.04424 0.140191 0.0248394 0 0 
3.5332 3.31709 0.14019 0.0248394 0 0 
3.44476 3.40553 -3e-06 -0.0771426 0 0 
3.44476 3.40553 0.14019 -0.0771426 0 0 
3.44476 3.95579 0.140191 -0.0771426 0 0 
3.44476 3.40553 -3e-06 -0.0771432 0 0 
3.44476 3.95579 0.140191 -0.0771432 0 0 
3.44476 3.95579 -3e-06 -0.0771432 0 0 
1.4668 0.993149 0.10603 0 -0.0705862 0 
3.5332 0.993149 0.10603 0 -0.0705862 0 
3.5332 0.993149 0.140189 0 -0.0705862 0 
1.4668 0.993149 0.10603 0 -0.0705862 0 
3.5332 0.993149 0.140189 0 -0.0705862 0 
1.4668 0.993149 0.140189 0 -0.0705862 0 
1.4668 4.04424 0.106031 -0.0248394 -0 0 
1.4668 3.31709 0.10603 -0.0248394 -0 0 
1.4668 3.31709 0.14019 -0.0248394 -0 0 
1.4668 4.04424 0.106031 -0.0248394 0 0 
1.4668 3.31709 0.14019 -0.0248394 0 0 
1.4668 4.04424 0.140191 -0.0248394 0 0 
3.5332 4.04424 0.106031 0 0.0705882 0 
1.4668 4.04424 0.106031 0 0.0705882 0 
1.4668 4.04424 0.140191 0 0.0705882 0 
3.5332 4.04424 0.106031 0 0.0705882 -0 
1.4668 4.04424 0.140191 0 0.0705882 -0 
3.5332 4.04424 0.140191 0 0.0705882 -0 
3.44476 3.95579 -3e-06 0 -0.264898 0 
3.44476 3.95579 0.140191 0 -0.264898 0 
1.55525 3.95579 0.140191 0 -0.264898 0 
3.44476 3.95579 -3e-06 0 -0.264898 0 
1.55525 3.95579 0.140191 0 -0.264898 0 
1.55525 3.95579 -3e-06 0 -0.264898 0 
1.4668 2.85503 0.106031 -0.0636 -0 0 
1.4668 0.993149 0.10603 -0.0636 -0 0 
1.4668 0.993149 0.140189 -0.0636 -0 0 
1.4668 2.85503 0.106031 -0.0636019 0 0 
1.4668 0.993149 0.140189 -0.0636019 0 0 
1.4668 2.85503 0.140191 -0.0636019 0 0 
3.5332 0.993149 0.10603 0.0636019 0 0 
3.5332 2.85503 0.106031 0.0636019 0 0 
3.5332 2.85503 0.140191 0.0636019 0 0 
3.5332 0.993149 0.10603 0.0636 0 0 
3.5332 2.85503 0.140191 0.0636 0 0 
3.5332 0.993149 0.140189 0.0636 0 0 
3.44476 1.08159 0 -0.236218 0 0 
3.44476 1.08159 0.140189 -0.236218 0 0 
3.44476 2.76659 0.140191 -0.236218 0 0 
3.44476 1.08159 0 -0.236224 0 0 
3.44476 2.76659 0.140191 -0.236224 0 0 
3.44476 2.76659 -1e-06 -0.236224 0 0 
1.4668 3.31709 0.10603 0 -0.0068706 0 
1.66793 3.31709 0.10603 0 -0.0068706 0 
1.66793 3.31709 0.14019 0 -0.0068706 0 
1.4668 3.31709 0.10603 0 -0.0068706 0 
1.66793 3.31709 0.14019 0 -0.0068706 0 
1.4668 3.31709 0.14019 0 -0.0068706 0 
1.66793 2.85503 0.106031 0 0.0068706 0 
1.4668 2.85503 0.106031 0 0.0068706 0 
1.4668 2.85503 0.140191 0 0.0068706 0 
1.66793 2.85503 0.106031 0 0.0068706 -0 
1.4668 2.85503 0.140191 0 0.0068706 -0 
1.66793 2.85503 0.140191 0 0.0068706 -0 
1.75637 2.76659 -1e-06 0 -0.0281954 0 
1.75637 2.76659 0.140191 0 -0.0281954 0 
1.55525 2.76659 0.140191 0 -0.0281954 0 
1.75637 2.76659 -1e-06 0 -0.0281954 0 
1.55525 2.76659 0.140191 0 -0.0281954 0 
1.55525 2.76659 -1e-06 0 -0.0281954 0 
1.66793 3.31709 0.10603 -0.015784 0 0 
1.66793 2.85503 0.106031 -0.015784 0 0 
1.66793 2.85503 0.140191 -0.015784 0 0 
1.66793 3.31709 0.10603 -0.015784 0 0 
1.66793 2.85503 0.140191 -0.015784 0 0 
1.66793 3.31709 0.14019 -0.015784 0 0 
3.33208 3.31709 0.10603 0 -0.00687026 0 
3.5332 3.31709 0.10603 0 -0.00687026 0 
3.5332 3.31709 0.14019 0 -0.00687026 0 
3.33208 3.31709 0.10603 0 -0.00687026 0 
3.5332 3.31709 0.14019 0 -0.00687026 0 
3.33208 3.31709 0.14019 0 -0.00687026 0 
3.24363 3.40553 -3e-06 0 0.028197 0 
3.24363 3.40553 0.14019 0 0.028197 0 
3.44476 3.40553 0.14019 0 0.028197 0 
3.24363 3.40553 -3e-06 0 0.028197 0 
3.44476 3.40553 0.14019 0 0.028197 0 
3.44476 3.40553 -3e-06 0 0.028197 0 
3.5332 2.85503 0.106031 0 0.00687026 0 
3.33208 2.85503 0.106031 0 0.00687026 0 
3.33208 2.85503 0.140191 0 0.00687026 0 
3.5332 2.85503 0.106031 0 0.00687026 -0 
3.33208 2.85503 0.140191 0 0.00687026 -0 
3.5332 2.85503 0.140191 0 0.00687026 -0 
3.33208 2.85503 0.106031 0.015784 -0 0 
3.33208 3.31709 0.10603 0.015784 -0 0 
3.33208 3.31709 0.14019 0.015784 -0 0 
3.33208 2.85503 0.106031 0.015784 0 0 
3.33208 3.31709 0.14019 0.015784 0 0 
3.33208 2.85503 0.140191 0.015784 0 0 
3.24363 2.76659 -1e-06 -0.0895743 0 0 
3.24363 2.76659 0.140191 -0.0895743 0 0 
3.24363 3.40553 0.14019 -0.0895743 0 0 
3.24363 2.76659 -1e-06 -0.0895749 0 0 
3.24363 3.40553 0.14019 -0.0895749 0 0 
3.24363 3.40553 -3e-06 -0.0895749 0 0 
3 0 1 2
3 3 4 5
3 6 7 8
3 9 10 11
3 12 13 14
3 15 16 17
3 18 19 20
3 21 22 23
3 24 25 26
3 27 28 29
3 30 31 32
3 33 34 35
3 36 37 38
3 39 40 41
3 42 43 44
3 45 46 47
3 48 49 50
3 51 52 53
3 54 55 56
3 57 58 59
3 60 61 62
3 63 64 65
3 66 67 68
3 69 70 71
3 72 73 74
3 75 76 77
3 78 79 80
3 81 82 83
3 84 85 86
3 87 88 89
3 90 91 92
3 93 94 95
3 96 97 98
3 99 100 101
3 102 103 104
3 105 106 107
3 108 109 110
3 111 112 113
3 114 115 116
3 117 118 119
3 120 121 122
3 123 124 125
3 126 127 128
3 129 130 131
3 132 133 134
3 135 136 137
3 138 139 140
3 141 142 143
3 144 145 146
3 147 148 149
3 150 151 152
3 153 154 155
3 156 157 158
3 159 160 161
3 162 163 164
3 165 166 167
3 168 169 170
3 171 172 173
3 174 175 176
3 177 178 179
3 180 181 182
3 183 184 185
3 186 187 188
3 189 190 191
3 192 193 194
3 195 196 197
3 198 199 200
3 201 202 203
3 204 205 206
3 207 208 209
3 210 211 212
3 213 214 215
3 216 217 218
3 219 220 221
3 222 223 224
3 225 226 227
3 228 229 230
3 231 232 233
3 234 235 236
3 237 238 239
3 240 241 242
3 243 244 245
3 246 247 248
3 249 250 251
3 252 253 254
3 255 256 257
3 258 259 260
3 261 262 263
3 264 265 266
3 267 268 269
3 270 271 272
3 273 274 275
3 276 277 278
3 279 280 281
3 282 283 284
3 285 286 287
3 288 289 290
3 291 292 293
3 294 295 296
3 297 298 299
3 300 301 302
3 303 304 305
3 306 307 308
3 309 310 311
3 312 313 314
3 315 316 317
3 318 319 320
3 321 322 323
3 324 325 326
3 327 328 329
3 330 331 332
3 333 334 335
3 336 337 338
3 339 340 341
3 342 343 344
3 345 346 347
3 348 349 350
3 351 352 353
3 354 355 356
3 357 358 359
3 360 361 362
3 363 364 365
3 366 367 368
3 369 370 371
3 372 373 374
3 375 376 377
3 378 379 380
3 381 382 383
3 384 385 386
3 387 388 389
3 390 391 392
3 393 394 395
3 396 397 398
3 399 400 401
3 402 403 404
3 405 406 407
3 408 409 410
3 411 412 413
3 414 415 416
3 417 418 419
3 420 421 422
3 423 424 425
3 426 427 428
3 429 430 431
3 432 433 434
3 435 436 437
3 438 439 440
3 441 442 443
3 444 445 446
3 447 448 449
3 450 451 452
3 453 454 455
3 456 457 458
3 459 460 461
3 462 463 464
3 465 466 467
3 468 469 470
3 471 472 473
3 474 475 476
3 477 478 479
