ply
format ascii 1.0
comment Feeney's Flatenator generated
comment TextureFile SpaceInteriors_Texture.png
element vertex 144
property float x
property float y
property float z
property float nx
property float ny
property float nz
property uchar red
property uchar green
property uchar blue
property uchar alpha
property float texture_u
property float texture_v
element face 48
property list uchar int vertex_indices
end_header
0 5 0 0 0 7.5 141 137 133 255 0.325286 0.058656 
-5 5 0 0 0 7.5 141 137 133 255 0.325286 0.058656 
-3.75 3.5 0 0 0 7.5 141 137 133 255 0.325286 0.058656 
0 5 0 0 0 3.75 141 137 133 255 0.325286 0.058656 
-3.75 3.5 0 0 0 3.75 141 137 133 255 0.325286 0.058656 
-1.25 3.5 0 0 0 3.75 141 137 133 255 0.325286 0.058656 
-3.75 0 0 0 -0 4.375 141 137 133 255 0.325286 0.058656 
-3.75 3.5 0 0 -0 4.375 141 137 133 255 0.325286 0.058656 
-5 5 0 0 -0 4.375 141 137 133 255 0.325286 0.058656 
-3.75 0 0 0 0 6.25 141 137 133 255 0.325286 0.058656 
-5 5 0 0 0 6.25 141 137 133 255 0.325286 0.058656 
-5 0 0 0 0 6.25 141 137 133 255 0.325286 0.058656 
-3.41735 3.16867 -0.495464 0 0 1.32291 108 105 102 255 0.509448 0.747805 
-3.41735 2.44762 -0.495464 0 0 1.32291 108 105 102 255 0.509448 0.674097 
-1.58265 2.44762 -0.495464 0 0 1.32291 108 105 102 255 0.749074 0.674097 
-3.41735 3.16867 -0.495464 -0 0 1.32291 108 105 102 255 0.509448 0.747805 
-1.58265 2.44762 -0.495464 -0 0 1.32291 108 105 102 255 0.749074 0.674097 
-1.58265 3.16867 -0.495464 -0 0 1.32291 108 105 102 255 0.749074 0.747805 
0 5 0 0 0 4.375 141 137 133 255 0.325286 0.058656 
-1.25 3.5 0 0 0 4.375 141 137 133 255 0.325286 0.058656 
-1.25 0 0 0 0 4.375 141 137 133 255 0.325286 0.058656 
0 5 0 0 0 6.25 141 137 133 255 0.325286 0.058656 
-1.25 0 0 0 0 6.25 141 137 133 255 0.325286 0.058656 
0 0 0 0 0 6.25 141 137 133 255 0.325286 0.058656 
-3.75 3.5 0 1.16156 0 0 91 88 86 255 0.234896 0.058656 
-3.75 0 0 1.16156 0 0 91 88 86 255 0.234896 0.058656 
-3.75 0 -0.331874 1.16156 0 0 91 88 86 255 0.234896 0.058656 
-3.75 3.5 0 1.16156 0 0 91 88 86 255 0.234896 0.058656 
-3.75 0 -0.331874 1.16156 0 0 91 88 86 255 0.234896 0.058656 
-3.75 3.5 -0.331874 1.16156 0 0 91 88 86 255 0.234896 0.058656 
-3.75 0 0 -0 0.829685 0 141 137 133 255 0.32705 0.058656 
-1.25 0 0 -0 0.829685 0 141 137 133 255 0.32705 0.058656 
-1.25 0 -0.331874 -0 0.829685 0 141 137 133 255 0.32705 0.058656 
-3.75 0 0 0 0.829685 0 141 137 133 255 0.32705 0.058656 
-1.25 0 -0.331874 0 0.829685 0 141 137 133 255 0.32705 0.058656 
-3.75 0 -0.331874 0 0.829685 0 141 137 133 255 0.32705 0.058656 
-1.25 0 0 -1.16156 0 0 91 88 86 255 0.234896 0.058656 
-1.25 3.5 0 -1.16156 0 0 91 88 86 255 0.234896 0.058656 
-1.25 3.5 -0.331874 -1.16156 0 0 91 88 86 255 0.234896 0.058656 
-1.25 0 0 -1.16156 0 0 91 88 86 255 0.234896 0.058656 
-1.25 3.5 -0.331874 -1.16156 0 0 91 88 86 255 0.234896 0.058656 
-1.25 0 -0.331874 -1.16156 0 0 91 88 86 255 0.234896 0.058656 
-1.25 3.5 0 -0 -0.829685 0 141 137 133 255 0.326099 0.058656 
-3.75 3.5 0 -0 -0.829685 0 141 137 133 255 0.326099 0.058656 
-3.75 3.5 -0.331874 -0 -0.829685 0 141 137 133 255 0.326099 0.058656 
-1.25 3.5 0 0 -0.829685 -0 141 137 133 255 0.326099 0.058656 
-3.75 3.5 -0.331874 0 -0.829685 -0 141 137 133 255 0.326099 0.058656 
-1.25 3.5 -0.331874 0 -0.829685 -0 141 137 133 255 0.326099 0.058656 
-3.75 3.5 -0.331874 0 0 1.16427 125 121 118 255 0.292366 0.058656 
-3.75 0 -0.331874 0 0 1.16427 125 121 118 255 0.292366 0.058656 
-3.41735 0.331333 -0.331874 0 0 1.16427 125 121 118 255 0.292366 0.058656 
-3.75 3.5 -0.331874 0 0 0.52855 125 121 118 255 0.292366 0.058656 
-3.41735 0.331333 -0.331874 0 0 0.52855 125 121 118 255 0.292366 0.058656 
-3.41735 1.92024 -0.331874 0 0 0.52855 125 121 118 255 0.292366 0.058656 
-3.75 3.5 -0.331874 0 0 0.175433 125 121 118 255 0.292366 0.058656 
-3.41735 1.92024 -0.331874 0 0 0.175433 125 121 118 255 0.292366 0.058656 
-3.41735 2.44762 -0.331874 0 0 0.175433 125 121 118 255 0.292366 0.058656 
-3.75 3.5 -0.331874 0 0 0.239857 125 121 118 255 0.292366 0.058656 
-3.41735 2.44762 -0.331874 0 0 0.239857 125 121 118 255 0.292366 0.058656 
-3.41735 3.16867 -0.331874 0 0 0.239857 125 121 118 255 0.292366 0.058656 
-3.75 0 -0.331874 0 0 0.828333 125 121 118 255 0.292366 0.058656 
-1.25 0 -0.331874 0 0 0.828333 125 121 118 255 0.292366 0.058656 
-1.58265 0.331333 -0.331874 0 0 0.828333 125 121 118 255 0.292366 0.058656 
-3.75 0 -0.331874 0 0 0.607897 125 121 118 255 0.292366 0.058656 
-1.58265 0.331333 -0.331874 0 0 0.607897 125 121 118 255 0.292366 0.058656 
-3.41735 0.331333 -0.331874 0 0 0.607897 125 121 118 255 0.292366 0.058656 
-1.25 0 -0.331874 0 -0 1.16427 125 121 118 255 0.292366 0.058656 
-1.25 3.5 -0.331874 0 -0 1.16427 125 121 118 255 0.292366 0.058656 
-1.58265 3.16867 -0.331874 0 -0 1.16427 125 121 118 255 0.292366 0.058656 
-1.25 0 -0.331874 0 0 0.239857 125 121 118 255 0.292366 0.058656 
-1.58265 3.16867 -0.331874 0 0 0.239857 125 121 118 255 0.292366 0.058656 
-1.58265 2.44762 -0.331874 0 0 0.239857 125 121 118 255 0.292366 0.058656 
-1.25 0 -0.331874 0 0 0.175433 125 121 118 255 0.292366 0.058656 
-1.58265 2.44762 -0.331874 0 0 0.175433 125 121 118 255 0.292366 0.058656 
-1.58265 1.92024 -0.331874 0 0 0.175433 125 121 118 255 0.292366 0.058656 
-1.25 0 -0.331874 0 0 0.52855 125 121 118 255 0.292366 0.058656 
-1.58265 1.92024 -0.331874 0 0 0.52855 125 121 118 255 0.292366 0.058656 
-1.58265 0.331333 -0.331874 0 0 0.52855 125 121 118 255 0.292366 0.058656 
-1.25 3.5 -0.331874 0 0 0.828325 125 121 118 255 0.292366 0.058656 
-3.75 3.5 -0.331874 0 0 0.828325 125 121 118 255 0.292366 0.058656 
-3.41735 3.16867 -0.331874 0 0 0.828325 125 121 118 255 0.292366 0.058656 
-1.25 3.5 -0.331874 0 0 0.607891 125 121 118 255 0.292366 0.058656 
-3.41735 3.16867 -0.331874 0 0 0.607891 125 121 118 255 0.292366 0.058656 
-1.58265 3.16867 -0.331874 0 0 0.607891 125 121 118 255 0.292366 0.058656 
-1.58265 2.44762 -0.331874 0 0 0.967584 125 121 118 255 0.292366 0.058656 
-3.41735 2.44762 -0.331874 0 0 0.967584 125 121 118 255 0.292366 0.058656 
-3.41735 1.92024 -0.331874 0 0 0.967584 125 121 118 255 0.292366 0.058656 
-1.58265 2.44762 -0.331874 0 0 0.967584 125 121 118 255 0.292366 0.058656 
-3.41735 1.92024 -0.331874 0 0 0.967584 125 121 118 255 0.292366 0.058656 
-1.58265 1.92024 -0.331874 0 0 0.967584 125 121 118 255 0.292366 0.058656 
-1.58265 1.92024 -0.495464 0 0 2.91517 108 105 102 255 0.992068 0.874849 
-3.41735 1.92024 -0.495464 0 0 2.91517 108 105 102 255 0.74985 0.874849 
-3.41735 0.331333 -0.495464 0 0 2.91517 108 105 102 255 0.74985 0.703934 
-1.58265 1.92024 -0.495464 0 0 2.91517 108 105 102 255 0.992068 0.874849 
-3.41735 0.331333 -0.495464 0 0 2.91517 108 105 102 255 0.74985 0.703934 
-1.58265 0.331333 -0.495464 0 0 2.91517 108 105 102 255 0.992068 0.703934 
-3.41735 3.16867 -0.331874 0.117957 0 0 91 88 86 255 0.232993 0.058656 
-3.41735 2.44762 -0.331874 0.117957 0 0 91 88 86 255 0.232993 0.058656 
-3.41735 2.44762 -0.495464 0.117957 0 0 91 88 86 255 0.232993 0.058656 
-3.41735 3.16867 -0.331874 0.117957 0 0 91 88 86 255 0.232993 0.058656 
-3.41735 2.44762 -0.495464 0.117957 0 0 91 88 86 255 0.232993 0.058656 
-3.41735 3.16867 -0.495464 0.117957 0 0 91 88 86 255 0.232993 0.058656 
-3.41735 2.44762 -0.331874 -0 0.300139 0 141 137 133 255 0.328813 0.058656 
-1.58265 2.44762 -0.331874 -0 0.300139 0 141 137 133 255 0.328813 0.058656 
-1.58265 2.44762 -0.495464 -0 0.300139 0 141 137 133 255 0.328813 0.058656 
-3.41735 2.44762 -0.331874 0 0.300139 0 141 137 133 255 0.328813 0.058656 
-1.58265 2.44762 -0.495464 0 0.300139 0 141 137 133 255 0.328813 0.058656 
-3.41735 2.44762 -0.495464 0 0.300139 0 141 137 133 255 0.328813 0.058656 
-1.58265 2.44762 -0.331874 -0.117957 0 0 91 88 86 255 0.232993 0.058656 
-1.58265 3.16867 -0.331874 -0.117957 0 0 91 88 86 255 0.232993 0.058656 
-1.58265 3.16867 -0.495464 -0.117957 0 0 91 88 86 255 0.232993 0.058656 
-1.58265 2.44762 -0.331874 -0.117957 0 0 91 88 86 255 0.232993 0.058656 
-1.58265 3.16867 -0.495464 -0.117957 0 0 91 88 86 255 0.232993 0.058656 
-1.58265 2.44762 -0.495464 -0.117957 0 0 91 88 86 255 0.232993 0.058656 
-1.58265 3.16867 -0.331874 -0 -0.300139 0 75 72 70 255 0.201837 0.058656 
-3.41735 3.16867 -0.331874 -0 -0.300139 0 75 72 70 255 0.201837 0.058656 
-3.41735 3.16867 -0.495464 -0 -0.300139 0 75 72 70 255 0.201837 0.058656 
-1.58265 3.16867 -0.331874 0 -0.300139 -0 75 72 70 255 0.201837 0.058656 
-3.41735 3.16867 -0.495464 0 -0.300139 -0 75 72 70 255 0.201837 0.058656 
-1.58265 3.16867 -0.495464 0 -0.300139 -0 75 72 70 255 0.201837 0.058656 
-1.58265 1.92024 -0.331874 -0 -0.300139 0 75 72 70 255 0.201837 0.058656 
-3.41735 1.92024 -0.331874 -0 -0.300139 0 75 72 70 255 0.201837 0.058656 
-3.41735 1.92024 -0.495464 -0 -0.300139 0 75 72 70 255 0.201837 0.058656 
-1.58265 1.92024 -0.331874 0 -0.300139 -0 75 72 70 255 0.201837 0.058656 
-3.41735 1.92024 -0.495464 0 -0.300139 -0 75 72 70 255 0.201837 0.058656 
-1.58265 1.92024 -0.495464 0 -0.300139 -0 75 72 70 255 0.201837 0.058656 
-3.41735 1.92024 -0.331874 0.259929 0 0 91 88 86 255 0.232993 0.058656 
-3.41735 0.331333 -0.331874 0.259929 0 0 91 88 86 255 0.232993 0.058656 
-3.41735 0.331333 -0.495464 0.259929 0 0 91 88 86 255 0.232993 0.058656 
-3.41735 1.92024 -0.331874 0.259929 0 0 91 88 86 255 0.232993 0.058656 
-3.41735 0.331333 -0.495464 0.259929 0 0 91 88 86 255 0.232993 0.058656 
-3.41735 1.92024 -0.495464 0.259929 0 0 91 88 86 255 0.232993 0.058656 
-3.41735 0.331333 -0.331874 -0 0.300139 0 141 137 133 255 0.328813 0.058656 
-1.58265 0.331333 -0.331874 -0 0.300139 0 141 137 133 255 0.328813 0.058656 
-1.58265 0.331333 -0.495464 -0 0.300139 0 141 137 133 255 0.328813 0.058656 
-3.41735 0.331333 -0.331874 0 0.300139 0 141 137 133 255 0.328813 0.058656 
-1.58265 0.331333 -0.495464 0 0.300139 0 141 137 133 255 0.328813 0.058656 
-3.41735 0.331333 -0.495464 0 0.300139 0 141 137 133 255 0.328813 0.058656 
-1.58265 0.331333 -0.331874 -0.259929 0 0 91 88 86 255 0.232993 0.058656 
-1.58265 1.92024 -0.331874 -0.259929 0 0 91 88 86 255 0.232993 0.058656 
-1.58265 1.92024 -0.495464 -0.259929 0 0 91 88 86 255 0.232993 0.058656 
-1.58265 0.331333 -0.331874 -0.259929 0 0 91 88 86 255 0.232993 0.058656 
-1.58265 1.92024 -0.495464 -0.259929 0 0 91 88 86 255 0.232993 0.058656 
-1.58265 0.331333 -0.495464 -0.259929 0 0 91 88 86 255 0.232993 0.058656 
3 0 1 2
3 3 4 5
3 6 7 8
3 9 10 11
3 12 13 14
3 15 16 17
3 18 19 20
3 21 22 23
3 24 25 26
3 27 28 29
3 30 31 32
3 33 34 35
3 36 37 38
3 39 40 41
3 42 43 44
3 45 46 47
3 48 49 50
3 51 52 53
3 54 55 56
3 57 58 59
3 60 61 62
3 63 64 65
3 66 67 68
3 69 70 71
3 72 73 74
3 75 76 77
3 78 79 80
3 81 82 83
3 84 85 86
3 87 88 89
3 90 91 92
3 93 94 95
3 96 97 98
3 99 100 101
3 102 103 104
3 105 106 107
3 108 109 110
3 111 112 113
3 114 115 116
3 117 118 119
3 120 121 122
3 123 124 125
3 126 127 128
3 129 130 131
3 132 133 134
3 135 136 137
3 138 139 140
3 141 142 143
