ply
format ascii 1.0
comment Feeney's Flatenator generated
comment TextureFile SpaceInteriors_Texture.png
element vertex 78
property float x
property float y
property float z
property float nx
property float ny
property float nz
property uchar red
property uchar green
property uchar blue
property uchar alpha
element face 26
property list uchar int vertex_indices
end_header
0.120189 -0.076766 0.120189 -0 -0.0577816 0 138 145 155 255 
-0.120189 -0.076766 0.120189 -0 -0.0577816 0 138 145 155 255 
-0.120189 -0.076766 -0.120189 -0 -0.0577816 0 138 145 155 255 
0.120189 -0.076766 0.120189 0 -0.0577816 -0 138 145 155 255 
-0.120189 -0.076766 -0.120189 0 -0.0577816 -0 138 145 155 255 
0.120189 -0.076766 -0.120189 0 -0.0577816 -0 138 145 155 255 
0.534904 0 0.534904 0 0 0.137579 122 128 138 255 
-0.534904 0 0.534904 0 0 0.137579 122 128 138 255 
-0.534904 -0.128602 0.534904 0 0 0.137579 122 128 138 255 
0.534904 0 0.534904 0 0 0.137579 122 128 138 255 
-0.534904 -0.128602 0.534904 0 0 0.137579 122 128 138 255 
0.534904 -0.128602 0.534904 0 0 0.137579 122 128 138 255 
-0.534904 0 0.534904 -0.137579 0 -0 105 111 119 255 
-0.534904 0 -0.534904 -0.137579 0 -0 105 111 119 255 
-0.534904 -0.128602 -0.534904 -0.137579 0 -0 105 111 119 255 
-0.534904 0 0.534904 -0.137579 -0 0 105 111 119 255 
-0.534904 -0.128602 -0.534904 -0.137579 -0 0 105 111 119 255 
-0.534904 -0.128602 0.534904 -0.137579 -0 0 105 111 119 255 
-0.534904 0 -0.534904 0 0 -0.137579 122 128 138 255 
0.534904 0 -0.534904 0 0 -0.137579 122 128 138 255 
0.534904 -0.128602 -0.534904 0 0 -0.137579 122 128 138 255 
-0.534904 0 -0.534904 0 0 -0.137579 122 128 138 255 
0.534904 -0.128602 -0.534904 0 0 -0.137579 122 128 138 255 
-0.534904 -0.128602 -0.534904 0 0 -0.137579 122 128 138 255 
0.534904 0 -0.534904 0.137579 0 -0 105 111 119 255 
0.534904 0 0.534904 0.137579 0 -0 105 111 119 255 
0.534904 -0.128602 0.534904 0.137579 0 -0 105 111 119 255 
0.534904 0 -0.534904 0.137579 0 0 105 111 119 255 
0.534904 -0.128602 0.534904 0.137579 0 0 105 111 119 255 
0.534904 -0.128602 -0.534904 0.137579 0 0 105 111 119 255 
0.534904 -0.128602 0.534904 -0 -0.0729673 0 138 145 155 255 
-0.534904 -0.128602 0.534904 -0 -0.0729673 0 138 145 155 255 
-0.466699 -0.128602 0.466698 -0 -0.0729673 0 138 145 155 255 
0.534904 -0.128602 0.534904 0 -0.0636634 0 138 145 155 255 
-0.466699 -0.128602 0.466698 0 -0.0636634 0 138 145 155 255 
0.466699 -0.128602 0.466698 0 -0.0636634 0 138 145 155 255 
-0.534904 -0.128602 0.534904 0 -0.0729663 0 138 145 155 255 
-0.534904 -0.128602 -0.534904 0 -0.0729663 0 138 145 155 255 
-0.466699 -0.128602 -0.466698 0 -0.0729663 0 138 145 155 255 
-0.534904 -0.128602 0.534904 0 -0.0636623 0 138 145 155 255 
-0.466699 -0.128602 -0.466698 0 -0.0636623 0 138 145 155 255 
-0.466699 -0.128602 0.466698 0 -0.0636623 0 138 145 155 255 
-0.534904 -0.128602 -0.534904 0 -0.0729673 0 138 145 155 255 
0.534904 -0.128602 -0.534904 0 -0.0729673 0 138 145 155 255 
0.466699 -0.128602 -0.466698 0 -0.0729673 0 138 145 155 255 
-0.534904 -0.128602 -0.534904 0 -0.0636634 0 138 145 155 255 
0.466699 -0.128602 -0.466698 0 -0.0636634 0 138 145 155 255 
-0.466699 -0.128602 -0.466698 0 -0.0636634 0 138 145 155 255 
0.534904 -0.128602 -0.534904 0 -0.0729663 0 138 145 155 255 
0.534904 -0.128602 0.534904 0 -0.0729663 0 138 145 155 255 
0.466699 -0.128602 0.466698 0 -0.0729663 0 138 145 155 255 
0.534904 -0.128602 -0.534904 0 -0.0636623 0 138 145 155 255 
0.466699 -0.128602 0.466698 0 -0.0636623 0 138 145 155 255 
0.466699 -0.128602 -0.466698 0 -0.0636623 0 138 145 155 255 
0.466699 -0.128602 0.466698 -0 -0.323431 -0.0483836 122 128 138 255 
-0.466699 -0.128602 0.466698 -0 -0.323431 -0.0483836 122 128 138 255 
-0.120189 -0.076766 0.120189 -0 -0.323431 -0.0483836 122 128 138 255 
0.466699 -0.128602 0.466698 0 -0.0832931 -0.0124602 122 128 138 255 
-0.120189 -0.076766 0.120189 0 -0.0832931 -0.0124602 122 128 138 255 
0.120189 -0.076766 0.120189 0 -0.0832931 -0.0124602 122 128 138 255 
-0.466699 -0.128602 0.466698 0.0483835 -0.323431 0 105 111 119 255 
-0.466699 -0.128602 -0.466698 0.0483835 -0.323431 0 105 111 119 255 
-0.120189 -0.076766 -0.120189 0.0483835 -0.323431 0 105 111 119 255 
-0.466699 -0.128602 0.466698 0.0124602 -0.0832934 0 105 111 119 255 
-0.120189 -0.076766 -0.120189 0.0124602 -0.0832934 0 105 111 119 255 
-0.120189 -0.076766 0.120189 0.0124602 -0.0832934 0 105 111 119 255 
-0.466699 -0.128602 -0.466698 0 -0.323431 0.0483836 122 128 138 255 
0.466699 -0.128602 -0.466698 0 -0.323431 0.0483836 122 128 138 255 
0.120189 -0.076766 -0.120189 0 -0.323431 0.0483836 122 128 138 255 
-0.466699 -0.128602 -0.466698 0 -0.0832931 0.0124602 122 128 138 255 
0.120189 -0.076766 -0.120189 0 -0.0832931 0.0124602 122 128 138 255 
-0.120189 -0.076766 -0.120189 0 -0.0832931 0.0124602 122 128 138 255 
0.466699 -0.128602 -0.466698 -0.0483835 -0.323431 0 105 111 119 255 
0.466699 -0.128602 0.466698 -0.0483835 -0.323431 0 105 111 119 255 
0.120189 -0.076766 0.120189 -0.0483835 -0.323431 0 105 111 119 255 
0.466699 -0.128602 -0.466698 -0.0124602 -0.0832934 0 105 111 119 255 
0.120189 -0.076766 0.120189 -0.0124602 -0.0832934 0 105 111 119 255 
0.120189 -0.076766 -0.120189 -0.0124602 -0.0832934 0 105 111 119 255 
3 0 1 2
3 3 4 5
3 6 7 8
3 9 10 11
3 12 13 14
3 15 16 17
3 18 19 20
3 21 22 23
3 24 25 26
3 27 28 29
3 30 31 32
3 33 34 35
3 36 37 38
3 39 40 41
3 42 43 44
3 45 46 47
3 48 49 50
3 51 52 53
3 54 55 56
3 57 58 59
3 60 61 62
3 63 64 65
3 66 67 68
3 69 70 71
3 72 73 74
3 75 76 77
