ply
format ascii 1.0
comment Feeney's Flatenator generated
comment TextureFile SpaceInteriors_Texture.png
element vertex 144
property float x
property float y
property float z
property float nx
property float ny
property float nz
property uchar red
property uchar green
property uchar blue
property uchar alpha
property float texture_u
property float texture_v
element face 48
property list uchar int vertex_indices
end_header
-2.84323 2.5 -0.188693 0 -0 3.91139 108 105 102 255 0.749592 0.873787 
-2.84323 4.65677 -0.188693 0 -0 3.91139 108 105 102 255 0.99181 0.873787 
-4.65677 4.65677 -0.188693 0 -0 3.91139 108 105 102 255 0.99181 0.993355 
-2.84323 2.5 -0.188693 0 0 3.91139 108 105 102 255 0.749592 0.873787 
-4.65677 4.65677 -0.188693 0 0 3.91139 108 105 102 255 0.99181 0.993355 
-4.65677 2.5 -0.188693 0 0 3.91139 108 105 102 255 0.749592 0.993355 
-2.84323 0.343232 -0.188693 0 -0 3.91139 108 105 102 255 0.749982 0.7047 
-2.84323 2.5 -0.188693 0 -0 3.91139 108 105 102 255 0.989996 0.7047 
-4.65677 2.5 -0.188693 0 -0 3.91139 108 105 102 255 0.989996 0.874551 
-2.84323 0.343232 -0.188693 0 0 3.91139 108 105 102 255 0.749982 0.7047 
-4.65677 2.5 -0.188693 0 0 3.91139 108 105 102 255 0.989996 0.874551 
-4.65677 0.343232 -0.188693 0 0 3.91139 108 105 102 255 0.749982 0.874551 
-0.402554 2.14319 -0.188693 0 0 3.02772 108 105 102 255 0.750039 0.992904 
-2.09745 2.14319 -0.188693 0 0 3.02772 108 105 102 255 0.645299 0.992904 
-2.09745 0.356813 -0.188693 0 0 3.02772 108 105 102 255 0.645299 0.880034 
-0.402554 2.14319 -0.188693 0 0 3.02772 108 105 102 255 0.750039 0.992904 
-2.09745 0.356813 -0.188693 0 0 3.02772 108 105 102 255 0.645299 0.880034 
-0.402554 0.356813 -0.188693 0 0 3.02772 108 105 102 255 0.750039 0.880034 
0 5 0 0 0 6.25 141 137 133 255 0.32932 0.061786 
-2.5 5 0 0 0 6.25 141 137 133 255 0.32932 0.061786 
-2.5 2.5 0 0 0 6.25 141 137 133 255 0.32932 0.061786 
0 5 0 0 0 6.25 141 137 133 255 0.32932 0.061786 
-2.5 2.5 0 0 0 6.25 141 137 133 255 0.32932 0.061786 
0 2.5 0 0 0 6.25 141 137 133 255 0.32932 0.061786 
0 2.5 0 0 0 0.892025 141 137 133 255 0.32932 0.061786 
-2.5 2.5 0 0 0 0.892025 141 137 133 255 0.32932 0.061786 
-2.09745 2.14319 0 0 0 0.892025 141 137 133 255 0.32932 0.061786 
0 2.5 0 0 0 0.604756 141 137 133 255 0.32932 0.061786 
-2.09745 2.14319 0 0 0 0.604756 141 137 133 255 0.32932 0.061786 
-0.402554 2.14319 0 0 0 0.604756 141 137 133 255 0.32932 0.061786 
-2.5 2.5 0 0 0 1.00637 141 137 133 255 0.32932 0.061786 
-2.5 0 0 0 0 1.00637 141 137 133 255 0.32932 0.061786 
-2.09745 0.356813 0 0 0 1.00637 141 137 133 255 0.32932 0.061786 
-2.5 2.5 0 0 0 0.719106 141 137 133 255 0.32932 0.061786 
-2.09745 0.356813 0 0 0 0.719106 141 137 133 255 0.32932 0.061786 
-2.09745 2.14319 0 0 0 0.719106 141 137 133 255 0.32932 0.061786 
-2.5 0 0 0 0 0.892033 141 137 133 255 0.32932 0.061786 
0 0 0 0 0 0.892033 141 137 133 255 0.32932 0.061786 
-0.402554 0.356813 0 0 0 0.892033 141 137 133 255 0.32932 0.061786 
-2.5 0 0 0 0 0.604761 141 137 133 255 0.32932 0.061786 
-0.402554 0.356813 0 0 0 0.604761 141 137 133 255 0.32932 0.061786 
-2.09745 0.356813 0 0 0 0.604761 141 137 133 255 0.32932 0.061786 
0 0 0 0 -0 1.00638 141 137 133 255 0.32932 0.061786 
0 2.5 0 0 -0 1.00638 141 137 133 255 0.32932 0.061786 
-0.402554 2.14319 0 0 -0 1.00638 141 137 133 255 0.32932 0.061786 
0 0 0 0 0 0.719113 141 137 133 255 0.32932 0.061786 
-0.402554 2.14319 0 0 0 0.719113 141 137 133 255 0.32932 0.061786 
-0.402554 0.356813 0 0 0 0.719113 141 137 133 255 0.32932 0.061786 
-0.402554 2.14319 0 -0 -0.319815 0 91 88 86 255 0.235434 0.061786 
-2.09745 2.14319 0 -0 -0.319815 0 91 88 86 255 0.235434 0.061786 
-2.09745 2.14319 -0.188693 -0 -0.319815 0 91 88 86 255 0.235434 0.061786 
-0.402554 2.14319 0 0 -0.319815 -0 91 88 86 255 0.235434 0.061786 
-2.09745 2.14319 -0.188693 0 -0.319815 -0 91 88 86 255 0.235434 0.061786 
-0.402554 2.14319 -0.188693 0 -0.319815 -0 91 88 86 255 0.235434 0.061786 
-2.09745 2.14319 0 0.337077 0 0 108 105 102 255 0.262818 0.061786 
-2.09745 0.356813 0 0.337077 0 0 108 105 102 255 0.262818 0.061786 
-2.09745 0.356813 -0.188693 0.337077 0 0 108 105 102 255 0.262818 0.061786 
-2.09745 2.14319 0 0.337077 0 0 108 105 102 255 0.262818 0.061786 
-2.09745 0.356813 -0.188693 0.337077 0 0 108 105 102 255 0.262818 0.061786 
-2.09745 2.14319 -0.188693 0.337077 0 0 108 105 102 255 0.262818 0.061786 
-2.09745 0.356813 0 -0 0.319815 0 157 152 148 255 0.3554 0.061786 
-0.402554 0.356813 0 -0 0.319815 0 157 152 148 255 0.3554 0.061786 
-0.402554 0.356813 -0.188693 -0 0.319815 0 157 152 148 255 0.3554 0.061786 
-2.09745 0.356813 0 0 0.319815 0 157 152 148 255 0.3554 0.061786 
-0.402554 0.356813 -0.188693 0 0.319815 0 157 152 148 255 0.3554 0.061786 
-2.09745 0.356813 -0.188693 0 0.319815 0 157 152 148 255 0.3554 0.061786 
-0.402554 0.356813 0 -0.337077 0 0 108 105 102 255 0.262818 0.061786 
-0.402554 2.14319 0 -0.337077 0 0 108 105 102 255 0.262818 0.061786 
-0.402554 2.14319 -0.188693 -0.337077 0 0 108 105 102 255 0.262818 0.061786 
-0.402554 0.356813 0 -0.337077 0 0 108 105 102 255 0.262818 0.061786 
-0.402554 2.14319 -0.188693 -0.337077 0 0 108 105 102 255 0.262818 0.061786 
-0.402554 0.356813 -0.188693 -0.337077 0 0 108 105 102 255 0.262818 0.061786 
-2.5 2.5 0 0 -0 0.858075 141 137 133 255 0.32932 0.061786 
-2.5 5 0 0 -0 0.858075 141 137 133 255 0.32932 0.061786 
-2.84323 4.65677 0 0 -0 0.858075 141 137 133 255 0.32932 0.061786 
-2.5 2.5 0 0 0 0.740268 141 137 133 255 0.32932 0.061786 
-2.84323 4.65677 0 0 0 0.740268 141 137 133 255 0.32932 0.061786 
-2.84323 2.5 0 0 0 0.740268 141 137 133 255 0.32932 0.061786 
-2.5 5 0 0 0 0.858074 141 137 133 255 0.32932 0.061786 
-5 5 0 0 0 0.858074 141 137 133 255 0.32932 0.061786 
-4.65677 4.65677 0 0 0 0.858074 141 137 133 255 0.32932 0.061786 
-2.5 5 0 0 0 0.622461 141 137 133 255 0.32932 0.061786 
-4.65677 4.65677 0 0 0 0.622461 141 137 133 255 0.32932 0.061786 
-2.84323 4.65677 0 0 0 0.622461 141 137 133 255 0.32932 0.061786 
-5 5 0 0 0 0.858074 141 137 133 255 0.32932 0.061786 
-5 2.5 0 0 0 0.858074 141 137 133 255 0.32932 0.061786 
-4.65677 2.5 0 0 0 0.858074 141 137 133 255 0.32932 0.061786 
-5 5 0 0 0 0.740268 141 137 133 255 0.32932 0.061786 
-4.65677 2.5 0 0 0 0.740268 141 137 133 255 0.32932 0.061786 
-4.65677 4.65677 0 0 0 0.740268 141 137 133 255 0.32932 0.061786 
-2.5 0 0 0 -0 0.858075 141 137 133 255 0.32932 0.061786 
-2.5 2.5 0 0 -0 0.858075 141 137 133 255 0.32932 0.061786 
-2.84323 2.5 0 0 -0 0.858075 141 137 133 255 0.32932 0.061786 
-2.5 0 0 0 0 0.740268 141 137 133 255 0.32932 0.061786 
-2.84323 2.5 0 0 0 0.740268 141 137 133 255 0.32932 0.061786 
-2.84323 0.343232 0 0 0 0.740268 141 137 133 255 0.32932 0.061786 
-5 2.5 0 0 0 0.858074 141 137 133 255 0.32932 0.061786 
-5 0 0 0 0 0.858074 141 137 133 255 0.32932 0.061786 
-4.65677 0.343232 0 0 0 0.858074 141 137 133 255 0.32932 0.061786 
-5 2.5 0 -0 0 0.740267 141 137 133 255 0.32932 0.061786 
-4.65677 0.343232 0 -0 0 0.740267 141 137 133 255 0.32932 0.061786 
-4.65677 2.5 0 -0 0 0.740267 141 137 133 255 0.32932 0.061786 
-5 0 0 0 0 0.85808 141 137 133 255 0.32932 0.061786 
-2.5 0 0 0 0 0.85808 141 137 133 255 0.32932 0.061786 
-2.84323 0.343232 0 0 0 0.85808 141 137 133 255 0.32932 0.061786 
-5 0 0 0 0 0.622465 141 137 133 255 0.32932 0.061786 
-2.84323 0.343232 0 0 0 0.622465 141 137 133 255 0.32932 0.061786 
-4.65677 0.343232 0 0 0 0.622465 141 137 133 255 0.32932 0.061786 
-2.84323 2.5 0 -0.406967 0 0 108 105 102 255 0.264169 0.061786 
-2.84323 4.65677 0 -0.406967 0 0 108 105 102 255 0.264169 0.061786 
-2.84323 4.65677 -0.188693 -0.406967 0 0 108 105 102 255 0.264169 0.061786 
-2.84323 2.5 0 -0.406967 0 0 108 105 102 255 0.264169 0.061786 
-2.84323 4.65677 -0.188693 -0.406967 0 0 108 105 102 255 0.264169 0.061786 
-2.84323 2.5 -0.188693 -0.406967 0 0 108 105 102 255 0.264169 0.061786 
-2.84323 4.65677 0 -0 -0.342202 0 91 88 86 255 0.235969 0.061786 
-4.65677 4.65677 0 -0 -0.342202 0 91 88 86 255 0.235969 0.061786 
-4.65677 4.65677 -0.188693 -0 -0.342202 0 91 88 86 255 0.235969 0.061786 
-2.84323 4.65677 0 0 -0.342202 -0 91 88 86 255 0.235969 0.061786 
-4.65677 4.65677 -0.188693 0 -0.342202 -0 91 88 86 255 0.235969 0.061786 
-2.84323 4.65677 -0.188693 0 -0.342202 -0 91 88 86 255 0.235969 0.061786 
-4.65677 4.65677 0 0.406967 0 0 108 105 102 255 0.264169 0.061786 
-4.65677 2.5 0 0.406967 0 0 108 105 102 255 0.264169 0.061786 
-4.65677 2.5 -0.188693 0.406967 0 0 108 105 102 255 0.264169 0.061786 
-4.65677 4.65677 0 0.406967 0 0 108 105 102 255 0.264169 0.061786 
-4.65677 2.5 -0.188693 0.406967 0 0 108 105 102 255 0.264169 0.061786 
-4.65677 4.65677 -0.188693 0.406967 0 0 108 105 102 255 0.264169 0.061786 
-2.84323 0.343232 0 -0.406967 0 0 108 105 102 255 0.264169 0.061786 
-2.84323 2.5 0 -0.406967 0 0 108 105 102 255 0.264169 0.061786 
-2.84323 2.5 -0.188693 -0.406967 0 0 108 105 102 255 0.264169 0.061786 
-2.84323 0.343232 0 -0.406967 0 0 108 105 102 255 0.264169 0.061786 
-2.84323 2.5 -0.188693 -0.406967 0 0 108 105 102 255 0.264169 0.061786 
-2.84323 0.343232 -0.188693 -0.406967 0 0 108 105 102 255 0.264169 0.061786 
-4.65677 2.5 0 0.406967 0 0 108 105 102 255 0.264169 0.061786 
-4.65677 0.343232 0 0.406967 0 0 108 105 102 255 0.264169 0.061786 
-4.65677 0.343232 -0.188693 0.406967 0 0 108 105 102 255 0.264169 0.061786 
-4.65677 2.5 0 0.406967 0 0 108 105 102 255 0.264169 0.061786 
-4.65677 0.343232 -0.188693 0.406967 0 0 108 105 102 255 0.264169 0.061786 
-4.65677 2.5 -0.188693 0.406967 0 0 108 105 102 255 0.264169 0.061786 
-4.65677 0.343232 0 -0 0.342202 0 157 152 148 255 0.356548 0.061786 
-2.84323 0.343232 0 -0 0.342202 0 157 152 148 255 0.356548 0.061786 
-2.84323 0.343232 -0.188693 -0 0.342202 0 157 152 148 255 0.356548 0.061786 
-4.65677 0.343232 0 0 0.342202 0 157 152 148 255 0.356548 0.061786 
-2.84323 0.343232 -0.188693 0 0.342202 0 157 152 148 255 0.356548 0.061786 
-4.65677 0.343232 -0.188693 0 0.342202 0 157 152 148 255 0.356548 0.061786 
3 0 1 2
3 3 4 5
3 6 7 8
3 9 10 11
3 12 13 14
3 15 16 17
3 18 19 20
3 21 22 23
3 24 25 26
3 27 28 29
3 30 31 32
3 33 34 35
3 36 37 38
3 39 40 41
3 42 43 44
3 45 46 47
3 48 49 50
3 51 52 53
3 54 55 56
3 57 58 59
3 60 61 62
3 63 64 65
3 66 67 68
3 69 70 71
3 72 73 74
3 75 76 77
3 78 79 80
3 81 82 83
3 84 85 86
3 87 88 89
3 90 91 92
3 93 94 95
3 96 97 98
3 99 100 101
3 102 103 104
3 105 106 107
3 108 109 110
3 111 112 113
3 114 115 116
3 117 118 119
3 120 121 122
3 123 124 125
3 126 127 128
3 129 130 131
3 132 133 134
3 135 136 137
3 138 139 140
3 141 142 143
