ply
format ascii 1.0
comment Feeney's Flatenator generated
comment TextureFile SpaceInteriors_Texture.png
element vertex 744
property float x
property float y
property float z
property float nx
property float ny
property float nz
element face 248
property list uchar int vertex_indices
end_header
-5 3.29839 4e-06 -0 3.08365 0 
0 3.29839 4e-06 -0 3.08365 0 
4e-06 3.29839 -0.616726 -0 3.08365 0 
-5 3.29839 4e-06 0 3.0779 0 
4e-06 3.29839 -0.616726 0 3.0779 0 
-4.99068 3.29839 -0.616726 0 3.0779 0 
-4.99068 1.63483 -0.616726 0 -3.0779 0 
4e-06 1.63483 -0.616726 0 -3.0779 0 
4e-06 1.63483 4e-06 0 -3.0779 0 
-4.99068 1.63483 -0.616726 0.00352771 -3.08365 -0.0285468 
4e-06 1.63483 4e-06 0.00352771 -3.08365 -0.0285468 
-5 1.62911 4e-06 0.00352771 -3.08365 -0.0285468 
4e-06 1.63483 4e-06 1.02597 0 0 
4e-06 1.63483 -0.616726 1.02597 0 0 
4e-06 3.29839 -0.616726 1.02597 0 0 
4e-06 1.63483 4e-06 1.02597 2.46692e-06 6.65424e-06 
4e-06 3.29839 -0.616726 1.02597 2.46692e-06 6.65424e-06 
0 3.29839 4e-06 1.02597 2.46692e-06 6.65424e-06 
-4.99068 1.63483 -0.616726 -1.0295 0 -0.0155573 
-5 1.62911 4e-06 -1.0295 0 -0.0155573 
-5 3.29839 4e-06 -1.0295 0 -0.0155573 
-4.99068 1.63483 -0.616726 -1.02597 0 -0.015504 
-5 3.29839 4e-06 -1.02597 0 -0.015504 
-4.99068 3.29839 -0.616726 -1.02597 0 -0.015504 
-5 1.62911 4e-06 0 0 0.748656 
4e-06 1.63483 4e-06 0 0 0.748656 
-0.149555 1.78439 4e-06 0 0 0.748656 
-5 1.62911 4e-06 0 0 0.728508 
-0.149555 1.78439 4e-06 0 0 0.728508 
-4.84113 1.78439 4e-06 0 0 0.728508 
4e-06 1.63483 4e-06 0 0 0.248794 
0 3.29839 4e-06 0 0 0.248794 
-0.149555 3.14883 4e-06 0 0 0.248794 
4e-06 1.63483 4e-06 0 0 0.204064 
-0.149555 3.14883 4e-06 0 0 0.204064 
-0.149555 1.78439 4e-06 0 0 0.204064 
0 3.29839 4e-06 0 0 0.7478 
-5 3.29839 4e-06 0 0 0.7478 
-4.84113 3.14883 4e-06 0 0 0.7478 
0 3.29839 4e-06 0 0 0.701672 
-4.84113 3.14883 4e-06 0 0 0.701672 
-0.149555 3.14883 4e-06 0 0 0.701672 
-5 3.29839 4e-06 0 0 0.265199 
-5 1.62911 4e-06 0 0 0.265199 
-4.84113 1.78439 4e-06 0 0 0.265199 
-5 3.29839 4e-06 0 0 0.216769 
-4.84113 1.78439 4e-06 0 0 0.216769 
-4.84113 3.14883 4e-06 0 0 0.216769 
-4.99068 3.29839 -0.616726 0 0 -0.746407 
4e-06 3.29839 -0.616726 0 0 -0.746407 
-0.149555 3.14883 -0.616726 0 0 -0.746407 
-4.99068 3.29839 -0.616726 0 0 -0.701672 
-0.149555 3.14883 -0.616726 0 0 -0.701672 
-4.84113 3.14883 -0.616726 0 0 -0.701672 
4e-06 3.29839 -0.616726 0 -0 -0.2488 
4e-06 1.63483 -0.616726 0 -0 -0.2488 
-0.149555 1.78439 -0.616726 0 -0 -0.2488 
4e-06 3.29839 -0.616726 0 0 -0.204064 
-0.149555 1.78439 -0.616726 0 0 -0.204064 
-0.149555 3.14883 -0.616726 0 0 -0.204064 
4e-06 1.63483 -0.616726 0 0 -0.746407 
-4.99068 1.63483 -0.616726 0 0 -0.746407 
-4.84113 1.78439 -0.616726 0 0 -0.746407 
4e-06 1.63483 -0.616726 0 0 -0.701672 
-4.84113 1.78439 -0.616726 0 0 -0.701672 
-0.149555 1.78439 -0.616726 0 0 -0.701672 
-4.99068 1.63483 -0.616726 0 0 -0.248786 
-4.99068 3.29839 -0.616726 0 0 -0.248786 
-4.84113 3.14883 -0.616726 0 0 -0.248786 
-4.99068 1.63483 -0.616726 0 0 -0.204053 
-4.84113 3.14883 -0.616726 0 0 -0.204053 
-4.84113 1.78439 -0.616726 0 0 -0.204053 
-4.84113 1.78439 4e-06 -0 1.42338 0 
-0.149555 1.78439 4e-06 -0 1.42338 0 
-0.149555 1.78439 -0.303387 -0 1.42338 0 
-4.84113 1.78439 4e-06 0 1.42338 0 
-0.149555 1.78439 -0.303387 0 1.42338 0 
-4.84113 1.78439 -0.303387 0 1.42338 0 
-0.149555 1.78439 4e-06 -0.413959 0 0 
-0.149555 3.14883 4e-06 -0.413959 0 0 
-0.149555 3.14883 -0.303387 -0.413959 0 0 
-0.149555 1.78439 4e-06 -0.413959 0 0 
-0.149555 3.14883 -0.303387 -0.413959 0 0 
-0.149555 1.78439 -0.303387 -0.413959 0 0 
-0.149555 3.14883 4e-06 -0 -1.42338 0 
-4.84113 3.14883 4e-06 -0 -1.42338 0 
-4.84113 3.14883 -0.303387 -0 -1.42338 0 
-0.149555 3.14883 4e-06 0 -1.42338 -0 
-4.84113 3.14883 -0.303387 0 -1.42338 -0 
-0.149555 3.14883 -0.303387 0 -1.42338 -0 
-4.84113 3.14883 4e-06 0.413959 0 0 
-4.84113 1.78439 4e-06 0.413959 0 0 
-4.84113 1.78439 -0.303387 0.413959 0 0 
-4.84113 3.14883 4e-06 0.413959 0 0 
-4.84113 1.78439 -0.303387 0.413959 0 0 
-4.84113 3.14883 -0.303387 0.413959 0 0 
-4.84113 3.14883 -0.616726 0 -1.08033 0 
-0.149555 3.14883 -0.616726 0 -1.08033 0 
-0.149555 3.14883 -0.386456 0 -1.08033 0 
-4.84113 3.14883 -0.616726 0 -1.08035 0 
-0.149555 3.14883 -0.386456 0 -1.08035 0 
-4.84113 3.14883 -0.386452 0 -1.08035 0 
-0.149555 3.14883 -0.616726 -0.31419 0 0 
-0.149555 1.78439 -0.616726 -0.31419 0 0 
-0.149555 1.78439 -0.386456 -0.31419 0 0 
-0.149555 3.14883 -0.616726 -0.31419 0 0 
-0.149555 1.78439 -0.386456 -0.31419 0 0 
-0.149555 3.14883 -0.386456 -0.31419 0 0 
-0.149555 1.78439 -0.616726 0 1.08035 0 
-4.84113 1.78439 -0.616726 0 1.08035 0 
-4.84113 1.78439 -0.386452 0 1.08035 0 
-0.149555 1.78439 -0.616726 0 1.08033 -0 
-4.84113 1.78439 -0.386452 0 1.08033 -0 
-0.149555 1.78439 -0.386456 0 1.08033 -0 
-4.84113 1.78439 -0.616726 0.314195 0 0 
-4.84113 3.14883 -0.616726 0.314195 0 0 
-4.84113 3.14883 -0.386452 0.314195 0 0 
-4.84113 1.78439 -0.616726 0.314195 0 0 
-4.84113 3.14883 -0.386452 0.314195 0 0 
-4.84113 1.78439 -0.386452 0.314195 0 0 
-4.84113 1.78439 -0.303387 0 0 0.797755 
-0.149555 1.78439 -0.303387 0 0 0.797755 
-0.267147 1.95443 -0.303387 0 0 0.797755 
-4.84113 1.78439 -0.303387 0 0 0.757763 
-0.267147 1.95443 -0.303387 0 0 0.757763 
-4.72353 1.95443 -0.303387 0 0 0.757763 
-0.149555 1.78439 -0.303387 0 -0 0.160447 
-0.149555 3.14883 -0.303387 0 -0 0.160447 
-0.267147 2.97879 -0.303387 0 -0 0.160447 
-0.149555 1.78439 -0.303387 0 0 0.120457 
-0.267147 2.97879 -0.303387 0 0 0.120457 
-0.267147 1.95443 -0.303387 0 0 0.120457 
-0.149555 3.14883 -0.303387 0 0 0.797755 
-4.84113 3.14883 -0.303387 0 0 0.797755 
-4.72353 2.97879 -0.303387 0 0 0.797755 
-0.149555 3.14883 -0.303387 0 0 0.757763 
-4.72353 2.97879 -0.303387 0 0 0.757763 
-0.267147 2.97879 -0.303387 0 0 0.757763 
-4.84113 3.14883 -0.303387 0 0 0.160458 
-4.84113 1.78439 -0.303387 0 0 0.160458 
-4.72353 1.95443 -0.303387 0 0 0.160458 
-4.84113 3.14883 -0.303387 0 0 0.120465 
-4.72353 1.95443 -0.303387 0 0 0.120465 
-4.72353 2.97879 -0.303387 0 0 0.120465 
-4.84113 3.14883 -0.386452 -6.84124e-07 4.73108e-07 -0.797755 
-0.149555 3.14883 -0.386456 -6.84124e-07 4.73108e-07 -0.797755 
-0.267147 2.97879 -0.386456 -6.84124e-07 4.73108e-07 -0.797755 
-4.84113 3.14883 -0.386452 -6.84124e-07 -4.73142e-07 -0.757763 
-0.267147 2.97879 -0.386456 -6.84124e-07 -4.73142e-07 -0.757763 
-4.72353 2.97879 -0.386452 -6.84124e-07 -4.73142e-07 -0.757763 
-0.149555 3.14883 -0.386456 0 -0 -0.160447 
-0.149555 1.78439 -0.386456 0 -0 -0.160447 
-0.267147 1.95443 -0.386456 0 -0 -0.160447 
-0.149555 3.14883 -0.386456 0 0 -0.120457 
-0.267147 1.95443 -0.386456 0 0 -0.120457 
-0.267147 2.97879 -0.386456 0 0 -0.120457 
-0.149555 1.78439 -0.386456 -6.84124e-07 4.73141e-07 -0.797755 
-4.84113 1.78439 -0.386452 -6.84124e-07 4.73141e-07 -0.797755 
-4.72353 1.95443 -0.386452 -6.84124e-07 4.73141e-07 -0.797755 
-0.149555 1.78439 -0.386456 -6.84124e-07 -4.7311e-07 -0.757763 
-4.72353 1.95443 -0.386452 -6.84124e-07 -4.7311e-07 -0.757763 
-0.267147 1.95443 -0.386456 -6.84124e-07 -4.7311e-07 -0.757763 
-4.84113 1.78439 -0.386452 0 0 -0.160458 
-4.84113 3.14883 -0.386452 0 0 -0.160458 
-4.72353 2.97879 -0.386452 0 0 -0.160458 
-4.84113 1.78439 -0.386452 0 0 -0.120465 
-4.72353 2.97879 -0.386452 0 0 -0.120465 
-4.72353 1.95443 -0.386452 0 0 -0.120465 
-0.267147 2.97879 -0.303387 -0 -0.370169 0 
-4.72353 2.97879 -0.303387 -0 -0.370169 0 
-4.72353 2.97879 -0.386452 -0 -0.370169 0 
-0.267147 2.97879 -0.303387 0 -0.370187 -0 
-4.72353 2.97879 -0.386452 0 -0.370187 -0 
-0.267147 2.97879 -0.386456 0 -0.370187 -0 
-4.72353 2.97879 -0.303387 0.0850885 0 0 
-4.72353 1.95443 -0.303387 0.0850885 0 0 
-4.72353 1.95443 -0.386452 0.0850885 0 0 
-4.72353 2.97879 -0.303387 0.0850885 0 0 
-4.72353 1.95443 -0.386452 0.0850885 0 0 
-4.72353 2.97879 -0.386452 0.0850885 0 0 
-0.267147 2.97879 -0.303387 -0.0850926 0 -0 
-0.267147 2.97879 -0.386456 -0.0850926 0 -0 
-0.267147 1.95443 -0.386456 -0.0850926 0 -0 
-0.267147 2.97879 -0.303387 -0.0850926 -0 0 
-0.267147 1.95443 -0.386456 -0.0850926 -0 0 
-0.267147 1.95443 -0.303387 -0.0850926 -0 0 
-0.267147 1.95443 -0.303387 0 0.370187 0 
-0.267147 1.95443 -0.386456 0 0.370187 0 
-4.72353 1.95443 -0.386452 0 0.370187 0 
-0.267147 1.95443 -0.303387 0 0.370169 0 
-4.72353 1.95443 -0.386452 0 0.370169 0 
-4.72353 1.95443 -0.303387 0 0.370169 0 
-2.15402 3.0218 -0.263187 0 0 0.00648025 
-2.07352 3.0218 -0.263187 0 0 0.00648025 
-2.07352 3.1023 -0.263187 0 0 0.00648025 
-2.15402 3.0218 -0.263187 0 0 0.00648025 
-2.07352 3.1023 -0.263187 0 0 0.00648025 
-2.15402 3.1023 -0.263187 0 0 0.00648025 
-2.15402 3.1023 -0.263187 -0 0.0032361 0 
-2.07352 3.1023 -0.263187 -0 0.0032361 0 
-2.07352 3.1023 -0.303387 -0 0.0032361 0 
-2.15402 3.1023 -0.263187 0 0.0032361 0 
-2.07352 3.1023 -0.303387 0 0.0032361 0 
-2.15402 3.1023 -0.303387 0 0.0032361 0 
-2.15402 3.0218 -0.303387 0 -0.0032361 0 
-2.07352 3.0218 -0.303387 0 -0.0032361 0 
-2.07352 3.0218 -0.263187 0 -0.0032361 0 
-2.15402 3.0218 -0.303387 0 -0.0032361 0 
-2.07352 3.0218 -0.263187 0 -0.0032361 0 
-2.15402 3.0218 -0.263187 0 -0.0032361 0 
-2.07352 3.0218 -0.263187 0.0032361 0 0 
-2.07352 3.0218 -0.303387 0.0032361 0 0 
-2.07352 3.1023 -0.303387 0.0032361 0 0 
-2.07352 3.0218 -0.263187 0.0032361 -0 0 
-2.07352 3.1023 -0.303387 0.0032361 -0 0 
-2.07352 3.1023 -0.263187 0.0032361 -0 0 
-2.15402 3.0218 -0.303387 -0.0032361 0 0 
-2.15402 3.0218 -0.263187 -0.0032361 0 0 
-2.15402 3.1023 -0.263187 -0.0032361 0 0 
-2.15402 3.0218 -0.303387 -0.0032361 0 0 
-2.15402 3.1023 -0.263187 -0.0032361 0 0 
-2.15402 3.1023 -0.303387 -0.0032361 0 0 
-2.91716 3.0218 -0.263187 0 0 0.00647944 
-2.83667 3.0218 -0.263187 0 0 0.00647944 
-2.83667 3.1023 -0.263187 0 0 0.00647944 
-2.91716 3.0218 -0.263187 0 0 0.00647944 
-2.83667 3.1023 -0.263187 0 0 0.00647944 
-2.91716 3.1023 -0.263187 0 0 0.00647944 
-2.91716 3.1023 -0.263187 -0 0.0032357 0 
-2.83667 3.1023 -0.263187 -0 0.0032357 0 
-2.83667 3.1023 -0.303387 -0 0.0032357 0 
-2.91716 3.1023 -0.263187 0 0.0032357 0 
-2.83667 3.1023 -0.303387 0 0.0032357 0 
-2.91716 3.1023 -0.303387 0 0.0032357 0 
-2.91716 3.0218 -0.303387 0 -0.0032357 0 
-2.83667 3.0218 -0.303387 0 -0.0032357 0 
-2.83667 3.0218 -0.263187 0 -0.0032357 0 
-2.91716 3.0218 -0.303387 0 -0.0032357 0 
-2.83667 3.0218 -0.263187 0 -0.0032357 0 
-2.91716 3.0218 -0.263187 0 -0.0032357 0 
-2.83667 3.0218 -0.263187 0.0032361 0 0 
-2.83667 3.0218 -0.303387 0.0032361 0 0 
-2.83667 3.1023 -0.303387 0.0032361 0 0 
-2.83667 3.0218 -0.263187 0.0032361 -0 0 
-2.83667 3.1023 -0.303387 0.0032361 -0 0 
-2.83667 3.1023 -0.263187 0.0032361 -0 0 
-2.91716 3.0218 -0.303387 -0.0032361 0 0 
-2.91716 3.0218 -0.263187 -0.0032361 0 0 
-2.91716 3.1023 -0.263187 -0.0032361 0 0 
-2.91716 3.0218 -0.303387 -0.0032361 0 0 
-2.91716 3.1023 -0.263187 -0.0032361 0 0 
-2.91716 3.1023 -0.303387 -0.0032361 0 0 
-2.15402 1.83092 -0.263187 0 0 0.00648026 
-2.07352 1.83092 -0.263187 0 0 0.00648026 
-2.07352 1.91142 -0.263187 0 0 0.00648026 
-2.15402 1.83092 -0.263187 0 0 0.00648026 
-2.07352 1.91142 -0.263187 0 0 0.00648026 
-2.15402 1.91142 -0.263187 0 0 0.00648026 
-2.15402 1.91142 -0.263187 -0 0.0032361 0 
-2.07352 1.91142 -0.263187 -0 0.0032361 0 
-2.07352 1.91142 -0.303387 -0 0.0032361 0 
-2.15402 1.91142 -0.263187 0 0.0032361 0 
-2.07352 1.91142 -0.303387 0 0.0032361 0 
-2.15402 1.91142 -0.303387 0 0.0032361 0 
-2.15402 1.83092 -0.303387 0 -0.0032361 0 
-2.07352 1.83092 -0.303387 0 -0.0032361 0 
-2.07352 1.83092 -0.263187 0 -0.0032361 0 
-2.15402 1.83092 -0.303387 0 -0.0032361 0 
-2.07352 1.83092 -0.263187 0 -0.0032361 0 
-2.15402 1.83092 -0.263187 0 -0.0032361 0 
-2.07352 1.83092 -0.263187 0.0032361 0 0 
-2.07352 1.83092 -0.303387 0.0032361 0 0 
-2.07352 1.91142 -0.303387 0.0032361 0 0 
-2.07352 1.83092 -0.263187 0.0032361 -0 0 
-2.07352 1.91142 -0.303387 0.0032361 -0 0 
-2.07352 1.91142 -0.263187 0.0032361 -0 0 
-2.15402 1.83092 -0.303387 -0.0032361 0 0 
-2.15402 1.83092 -0.263187 -0.0032361 0 0 
-2.15402 1.91142 -0.263187 -0.0032361 0 0 
-2.15402 1.83092 -0.303387 -0.0032361 0 0 
-2.15402 1.91142 -0.263187 -0.0032361 0 0 
-2.15402 1.91142 -0.303387 -0.0032361 0 0 
-2.91716 1.83092 -0.263187 0 0 0.00647945 
-2.83667 1.83092 -0.263187 0 0 0.00647945 
-2.83667 1.91142 -0.263187 0 0 0.00647945 
-2.91716 1.83092 -0.263187 0 0 0.00647945 
-2.83667 1.91142 -0.263187 0 0 0.00647945 
-2.91716 1.91142 -0.263187 0 0 0.00647945 
-2.91716 1.91142 -0.263187 -0 0.0032357 0 
-2.83667 1.91142 -0.263187 -0 0.0032357 0 
-2.83667 1.91142 -0.303387 -0 0.0032357 0 
-2.91716 1.91142 -0.263187 0 0.0032357 0 
-2.83667 1.91142 -0.303387 0 0.0032357 0 
-2.91716 1.91142 -0.303387 0 0.0032357 0 
-2.91716 1.83092 -0.303387 0 -0.0032357 0 
-2.83667 1.83092 -0.303387 0 -0.0032357 0 
-2.83667 1.83092 -0.263187 0 -0.0032357 0 
-2.91716 1.83092 -0.303387 0 -0.0032357 0 
-2.83667 1.83092 -0.263187 0 -0.0032357 0 
-2.91716 1.83092 -0.263187 0 -0.0032357 0 
-2.83667 1.83092 -0.263187 0.0032361 0 0 
-2.83667 1.83092 -0.303387 0.0032361 0 0 
-2.83667 1.91142 -0.303387 0.0032361 0 0 
-2.83667 1.83092 -0.263187 0.0032361 -0 0 
-2.83667 1.91142 -0.303387 0.0032361 -0 0 
-2.83667 1.91142 -0.263187 0.0032361 -0 0 
-2.91716 1.83092 -0.303387 -0.0032361 0 0 
-2.91716 1.83092 -0.263187 -0.0032361 0 0 
-2.91716 1.91142 -0.263187 -0.0032361 0 0 
-2.91716 1.83092 -0.303387 -0.0032361 0 0 
-2.91716 1.91142 -0.263187 -0.0032361 0 0 
-2.91716 1.91142 -0.303387 -0.0032361 0 0 
-3.76149 3.0218 -0.263187 0 0 0.00648025 
-3.68099 3.0218 -0.263187 0 0 0.00648025 
-3.68099 3.1023 -0.263187 0 0 0.00648025 
-3.76149 3.0218 -0.263187 0 0 0.00648025 
-3.68099 3.1023 -0.263187 0 0 0.00648025 
-3.76149 3.1023 -0.263187 0 0 0.00648025 
-3.76149 3.1023 -0.263187 -0 0.0032361 0 
-3.68099 3.1023 -0.263187 -0 0.0032361 0 
-3.68099 3.1023 -0.303387 -0 0.0032361 0 
-3.76149 3.1023 -0.263187 0 0.0032361 0 
-3.68099 3.1023 -0.303387 0 0.0032361 0 
-3.76149 3.1023 -0.303387 0 0.0032361 0 
-3.76149 3.0218 -0.303387 0 -0.0032361 0 
-3.68099 3.0218 -0.303387 0 -0.0032361 0 
-3.68099 3.0218 -0.263187 0 -0.0032361 0 
-3.76149 3.0218 -0.303387 0 -0.0032361 0 
-3.68099 3.0218 -0.263187 0 -0.0032361 0 
-3.76149 3.0218 -0.263187 0 -0.0032361 0 
-3.68099 3.0218 -0.263187 0.0032361 0 0 
-3.68099 3.0218 -0.303387 0.0032361 0 0 
-3.68099 3.1023 -0.303387 0.0032361 0 0 
-3.68099 3.0218 -0.263187 0.0032361 -0 0 
-3.68099 3.1023 -0.303387 0.0032361 -0 0 
-3.68099 3.1023 -0.263187 0.0032361 -0 0 
-3.76149 3.0218 -0.303387 -0.0032361 0 0 
-3.76149 3.0218 -0.263187 -0.0032361 0 0 
-3.76149 3.1023 -0.263187 -0.0032361 0 0 
-3.76149 3.0218 -0.303387 -0.0032361 0 0 
-3.76149 3.1023 -0.263187 -0.0032361 0 0 
-3.76149 3.1023 -0.303387 -0.0032361 0 0 
-4.52464 3.0218 -0.263187 0 0 0.00648025 
-4.44414 3.0218 -0.263187 0 0 0.00648025 
-4.44414 3.1023 -0.263187 0 0 0.00648025 
-4.52464 3.0218 -0.263187 0 0 0.00648025 
-4.44414 3.1023 -0.263187 0 0 0.00648025 
-4.52464 3.1023 -0.263187 0 0 0.00648025 
-4.52464 3.1023 -0.263187 -0 0.0032361 0 
-4.44414 3.1023 -0.263187 -0 0.0032361 0 
-4.44414 3.1023 -0.303387 -0 0.0032361 0 
-4.52464 3.1023 -0.263187 0 0.0032361 0 
-4.44414 3.1023 -0.303387 0 0.0032361 0 
-4.52464 3.1023 -0.303387 0 0.0032361 0 
-4.52464 3.0218 -0.303387 0 -0.0032361 0 
-4.44414 3.0218 -0.303387 0 -0.0032361 0 
-4.44414 3.0218 -0.263187 0 -0.0032361 0 
-4.52464 3.0218 -0.303387 0 -0.0032361 0 
-4.44414 3.0218 -0.263187 0 -0.0032361 0 
-4.52464 3.0218 -0.263187 0 -0.0032361 0 
-4.44414 3.0218 -0.263187 0.0032361 0 0 
-4.44414 3.0218 -0.303387 0.0032361 0 0 
-4.44414 3.1023 -0.303387 0.0032361 0 0 
-4.44414 3.0218 -0.263187 0.0032361 -0 0 
-4.44414 3.1023 -0.303387 0.0032361 -0 0 
-4.44414 3.1023 -0.263187 0.0032361 -0 0 
-4.52464 3.0218 -0.303387 -0.0032361 0 0 
-4.52464 3.0218 -0.263187 -0.0032361 0 0 
-4.52464 3.1023 -0.263187 -0.0032361 0 0 
-4.52464 3.0218 -0.303387 -0.0032361 0 0 
-4.52464 3.1023 -0.263187 -0.0032361 0 0 
-4.52464 3.1023 -0.303387 -0.0032361 0 0 
-4.14307 3.0218 -0.263187 0 0 0.00648025 
-4.06257 3.0218 -0.263187 0 0 0.00648025 
-4.06257 3.1023 -0.263187 0 0 0.00648025 
-4.14307 3.0218 -0.263187 0 0 0.00648025 
-4.06257 3.1023 -0.263187 0 0 0.00648025 
-4.14307 3.1023 -0.263187 0 0 0.00648025 
-4.14307 3.1023 -0.263187 -0 0.0032361 0 
-4.06257 3.1023 -0.263187 -0 0.0032361 0 
-4.06257 3.1023 -0.303387 -0 0.0032361 0 
-4.14307 3.1023 -0.263187 0 0.0032361 0 
-4.06257 3.1023 -0.303387 0 0.0032361 0 
-4.14307 3.1023 -0.303387 0 0.0032361 0 
-4.14307 3.0218 -0.303387 0 -0.0032361 0 
-4.06257 3.0218 -0.303387 0 -0.0032361 0 
-4.06257 3.0218 -0.263187 0 -0.0032361 0 
-4.14307 3.0218 -0.303387 0 -0.0032361 0 
-4.06257 3.0218 -0.263187 0 -0.0032361 0 
-4.14307 3.0218 -0.263187 0 -0.0032361 0 
-4.06257 3.0218 -0.263187 0.0032361 0 0 
-4.06257 3.0218 -0.303387 0.0032361 0 0 
-4.06257 3.1023 -0.303387 0.0032361 0 0 
-4.06257 3.0218 -0.263187 0.0032361 -0 0 
-4.06257 3.1023 -0.303387 0.0032361 -0 0 
-4.06257 3.1023 -0.263187 0.0032361 -0 0 
-4.14307 3.0218 -0.303387 -0.0032361 0 0 
-4.14307 3.0218 -0.263187 -0.0032361 0 0 
-4.14307 3.1023 -0.263187 -0.0032361 0 0 
-4.14307 3.0218 -0.303387 -0.0032361 0 0 
-4.14307 3.1023 -0.263187 -0.0032361 0 0 
-4.14307 3.1023 -0.303387 -0.0032361 0 0 
-3.76149 1.83092 -0.263187 0 0 0.00648026 
-3.68099 1.83092 -0.263187 0 0 0.00648026 
-3.68099 1.91142 -0.263187 0 0 0.00648026 
-3.76149 1.83092 -0.263187 0 0 0.00648026 
-3.68099 1.91142 -0.263187 0 0 0.00648026 
-3.76149 1.91142 -0.263187 0 0 0.00648026 
-3.76149 1.91142 -0.263187 -0 0.0032361 0 
-3.68099 1.91142 -0.263187 -0 0.0032361 0 
-3.68099 1.91142 -0.303387 -0 0.0032361 0 
-3.76149 1.91142 -0.263187 0 0.0032361 0 
-3.68099 1.91142 -0.303387 0 0.0032361 0 
-3.76149 1.91142 -0.303387 0 0.0032361 0 
-3.76149 1.83092 -0.303387 0 -0.0032361 0 
-3.68099 1.83092 -0.303387 0 -0.0032361 0 
-3.68099 1.83092 -0.263187 0 -0.0032361 0 
-3.76149 1.83092 -0.303387 0 -0.0032361 0 
-3.68099 1.83092 -0.263187 0 -0.0032361 0 
-3.76149 1.83092 -0.263187 0 -0.0032361 0 
-3.68099 1.83092 -0.263187 0.0032361 0 0 
-3.68099 1.83092 -0.303387 0.0032361 0 0 
-3.68099 1.91142 -0.303387 0.0032361 0 0 
-3.68099 1.83092 -0.263187 0.0032361 -0 0 
-3.68099 1.91142 -0.303387 0.0032361 -0 0 
-3.68099 1.91142 -0.263187 0.0032361 -0 0 
-3.76149 1.83092 -0.303387 -0.0032361 0 0 
-3.76149 1.83092 -0.263187 -0.0032361 0 0 
-3.76149 1.91142 -0.263187 -0.0032361 0 0 
-3.76149 1.83092 -0.303387 -0.0032361 0 0 
-3.76149 1.91142 -0.263187 -0.0032361 0 0 
-3.76149 1.91142 -0.303387 -0.0032361 0 0 
-4.52464 1.83092 -0.263187 0 0 0.00648026 
-4.44414 1.83092 -0.263187 0 0 0.00648026 
-4.44414 1.91142 -0.263187 0 0 0.00648026 
-4.52464 1.83092 -0.263187 0 0 0.00648026 
-4.44414 1.91142 -0.263187 0 0 0.00648026 
-4.52464 1.91142 -0.263187 0 0 0.00648026 
-4.52464 1.91142 -0.263187 -0 0.0032361 0 
-4.44414 1.91142 -0.263187 -0 0.0032361 0 
-4.44414 1.91142 -0.303387 -0 0.0032361 0 
-4.52464 1.91142 -0.263187 0 0.0032361 0 
-4.44414 1.91142 -0.303387 0 0.0032361 0 
-4.52464 1.91142 -0.303387 0 0.0032361 0 
-4.52464 1.83092 -0.303387 0 -0.0032361 0 
-4.44414 1.83092 -0.303387 0 -0.0032361 0 
-4.44414 1.83092 -0.263187 0 -0.0032361 0 
-4.52464 1.83092 -0.303387 0 -0.0032361 0 
-4.44414 1.83092 -0.263187 0 -0.0032361 0 
-4.52464 1.83092 -0.263187 0 -0.0032361 0 
-4.44414 1.83092 -0.263187 0.0032361 0 0 
-4.44414 1.83092 -0.303387 0.0032361 0 0 
-4.44414 1.91142 -0.303387 0.0032361 0 0 
-4.44414 1.83092 -0.263187 0.0032361 -0 0 
-4.44414 1.91142 -0.303387 0.0032361 -0 0 
-4.44414 1.91142 -0.263187 0.0032361 -0 0 
-4.52464 1.83092 -0.303387 -0.0032361 0 0 
-4.52464 1.83092 -0.263187 -0.0032361 0 0 
-4.52464 1.91142 -0.263187 -0.0032361 0 0 
-4.52464 1.83092 -0.303387 -0.0032361 0 0 
-4.52464 1.91142 -0.263187 -0.0032361 0 0 
-4.52464 1.91142 -0.303387 -0.0032361 0 0 
-4.14307 1.83092 -0.263187 0 0 0.00648026 
-4.06257 1.83092 -0.263187 0 0 0.00648026 
-4.06257 1.91142 -0.263187 0 0 0.00648026 
-4.14307 1.83092 -0.263187 0 0 0.00648026 
-4.06257 1.91142 -0.263187 0 0 0.00648026 
-4.14307 1.91142 -0.263187 0 0 0.00648026 
-4.14307 1.91142 -0.263187 -0 0.0032361 0 
-4.06257 1.91142 -0.263187 -0 0.0032361 0 
-4.06257 1.91142 -0.303387 -0 0.0032361 0 
-4.14307 1.91142 -0.263187 0 0.0032361 0 
-4.06257 1.91142 -0.303387 0 0.0032361 0 
-4.14307 1.91142 -0.303387 0 0.0032361 0 
-4.14307 1.83092 -0.303387 0 -0.0032361 0 
-4.06257 1.83092 -0.303387 0 -0.0032361 0 
-4.06257 1.83092 -0.263187 0 -0.0032361 0 
-4.14307 1.83092 -0.303387 0 -0.0032361 0 
-4.06257 1.83092 -0.263187 0 -0.0032361 0 
-4.14307 1.83092 -0.263187 0 -0.0032361 0 
-4.06257 1.83092 -0.263187 0.0032361 0 0 
-4.06257 1.83092 -0.303387 0.0032361 0 0 
-4.06257 1.91142 -0.303387 0.0032361 0 0 
-4.06257 1.83092 -0.263187 0.0032361 -0 0 
-4.06257 1.91142 -0.303387 0.0032361 -0 0 
-4.06257 1.91142 -0.263187 0.0032361 -0 0 
-4.14307 1.83092 -0.303387 -0.0032361 0 0 
-4.14307 1.83092 -0.263187 -0.0032361 0 0 
-4.14307 1.91142 -0.263187 -0.0032361 0 0 
-4.14307 1.83092 -0.303387 -0.0032361 0 0 
-4.14307 1.91142 -0.263187 -0.0032361 0 0 
-4.14307 1.91142 -0.303387 -0.0032361 0 0 
-0.490456 3.0218 -0.263187 0 0 0.0064804 
-0.409954 3.0218 -0.263187 0 0 0.0064804 
-0.409954 3.1023 -0.263187 0 0 0.0064804 
-0.490456 3.0218 -0.263187 0 0 0.0064804 
-0.409954 3.1023 -0.263187 0 0 0.0064804 
-0.490456 3.1023 -0.263187 0 0 0.0064804 
-0.490456 3.1023 -0.263187 -0 0.00323618 0 
-0.409954 3.1023 -0.263187 -0 0.00323618 0 
-0.409954 3.1023 -0.303387 -0 0.00323618 0 
-0.490456 3.1023 -0.263187 0 0.00323618 0 
-0.409954 3.1023 -0.303387 0 0.00323618 0 
-0.490456 3.1023 -0.303387 0 0.00323618 0 
-0.490456 3.0218 -0.303387 0 -0.00323618 0 
-0.409954 3.0218 -0.303387 0 -0.00323618 0 
-0.409954 3.0218 -0.263187 0 -0.00323618 0 
-0.490456 3.0218 -0.303387 0 -0.00323618 0 
-0.409954 3.0218 -0.263187 0 -0.00323618 0 
-0.490456 3.0218 -0.263187 0 -0.00323618 0 
-0.409954 3.0218 -0.263187 0.0032361 0 0 
-0.409954 3.0218 -0.303387 0.0032361 0 0 
-0.409954 3.1023 -0.303387 0.0032361 0 0 
-0.409954 3.0218 -0.263187 0.0032361 -0 0 
-0.409954 3.1023 -0.303387 0.0032361 -0 0 
-0.409954 3.1023 -0.263187 0.0032361 -0 0 
-0.490456 3.0218 -0.303387 -0.0032361 0 0 
-0.490456 3.0218 -0.263187 -0.0032361 0 0 
-0.490456 3.1023 -0.263187 -0.0032361 0 0 
-0.490456 3.0218 -0.303387 -0.0032361 0 0 
-0.490456 3.1023 -0.263187 -0.0032361 0 0 
-0.490456 3.1023 -0.303387 -0.0032361 0 0 
-1.2536 3.0218 -0.263187 0 0 0.00648024 
-1.1731 3.0218 -0.263187 0 0 0.00648024 
-1.1731 3.1023 -0.263187 0 0 0.00648024 
-1.2536 3.0218 -0.263187 0 0 0.00648024 
-1.1731 3.1023 -0.263187 0 0 0.00648024 
-1.2536 3.1023 -0.263187 0 0 0.00648024 
-1.2536 3.1023 -0.263187 -0 0.0032361 0 
-1.1731 3.1023 -0.263187 -0 0.0032361 0 
-1.1731 3.1023 -0.303387 -0 0.0032361 0 
-1.2536 3.1023 -0.263187 0 0.0032361 0 
-1.1731 3.1023 -0.303387 0 0.0032361 0 
-1.2536 3.1023 -0.303387 0 0.0032361 0 
-1.2536 3.0218 -0.303387 0 -0.0032361 0 
-1.1731 3.0218 -0.303387 0 -0.0032361 0 
-1.1731 3.0218 -0.263187 0 -0.0032361 0 
-1.2536 3.0218 -0.303387 0 -0.0032361 0 
-1.1731 3.0218 -0.263187 0 -0.0032361 0 
-1.2536 3.0218 -0.263187 0 -0.0032361 0 
-1.1731 3.0218 -0.263187 0.0032361 0 0 
-1.1731 3.0218 -0.303387 0.0032361 0 0 
-1.1731 3.1023 -0.303387 0.0032361 0 0 
-1.1731 3.0218 -0.263187 0.0032361 -0 0 
-1.1731 3.1023 -0.303387 0.0032361 -0 0 
-1.1731 3.1023 -0.263187 0.0032361 -0 0 
-1.2536 3.0218 -0.303387 -0.0032361 0 0 
-1.2536 3.0218 -0.263187 -0.0032361 0 0 
-1.2536 3.1023 -0.263187 -0.0032361 0 0 
-1.2536 3.0218 -0.303387 -0.0032361 0 0 
-1.2536 3.1023 -0.263187 -0.0032361 0 0 
-1.2536 3.1023 -0.303387 -0.0032361 0 0 
-0.872028 3.0218 -0.263187 0 0 0.00648 
-0.791531 3.0218 -0.263187 0 0 0.00648 
-0.791531 3.1023 -0.263187 0 0 0.00648 
-0.872028 3.0218 -0.263187 0 0 0.00648 
-0.791531 3.1023 -0.263187 0 0 0.00648 
-0.872028 3.1023 -0.263187 0 0 0.00648 
-0.872028 3.1023 -0.263187 -0 0.00323598 0 
-0.791531 3.1023 -0.263187 -0 0.00323598 0 
-0.791531 3.1023 -0.303387 -0 0.00323598 0 
-0.872028 3.1023 -0.263187 0 0.00323598 0 
-0.791531 3.1023 -0.303387 0 0.00323598 0 
-0.872028 3.1023 -0.303387 0 0.00323598 0 
-0.872028 3.0218 -0.303387 0 -0.00323598 0 
-0.791531 3.0218 -0.303387 0 -0.00323598 0 
-0.791531 3.0218 -0.263187 0 -0.00323598 0 
-0.872028 3.0218 -0.303387 0 -0.00323598 0 
-0.791531 3.0218 -0.263187 0 -0.00323598 0 
-0.872028 3.0218 -0.263187 0 -0.00323598 0 
-0.791531 3.0218 -0.263187 0.0032361 0 0 
-0.791531 3.0218 -0.303387 0.0032361 0 0 
-0.791531 3.1023 -0.303387 0.0032361 0 0 
-0.791531 3.0218 -0.263187 0.0032361 -0 0 
-0.791531 3.1023 -0.303387 0.0032361 -0 0 
-0.791531 3.1023 -0.263187 0.0032361 -0 0 
-0.872028 3.0218 -0.303387 -0.0032361 0 0 
-0.872028 3.0218 -0.263187 -0.0032361 0 0 
-0.872028 3.1023 -0.263187 -0.0032361 0 0 
-0.872028 3.0218 -0.303387 -0.0032361 0 0 
-0.872028 3.1023 -0.263187 -0.0032361 0 0 
-0.872028 3.1023 -0.303387 -0.0032361 0 0 
-0.490456 1.83092 -0.263187 0 0 0.00648041 
-0.409954 1.83092 -0.263187 0 0 0.00648041 
-0.409954 1.91142 -0.263187 0 0 0.00648041 
-0.490456 1.83092 -0.263187 0 0 0.00648041 
-0.409954 1.91142 -0.263187 0 0 0.00648041 
-0.490456 1.91142 -0.263187 0 0 0.00648041 
-0.490456 1.91142 -0.263187 -0 0.00323618 0 
-0.409954 1.91142 -0.263187 -0 0.00323618 0 
-0.409954 1.91142 -0.303387 -0 0.00323618 0 
-0.490456 1.91142 -0.263187 0 0.00323618 0 
-0.409954 1.91142 -0.303387 0 0.00323618 0 
-0.490456 1.91142 -0.303387 0 0.00323618 0 
-0.490456 1.83092 -0.303387 0 -0.00323618 0 
-0.409954 1.83092 -0.303387 0 -0.00323618 0 
-0.409954 1.83092 -0.263187 0 -0.00323618 0 
-0.490456 1.83092 -0.303387 0 -0.00323618 0 
-0.409954 1.83092 -0.263187 0 -0.00323618 0 
-0.490456 1.83092 -0.263187 0 -0.00323618 0 
-0.409954 1.83092 -0.263187 0.0032361 0 0 
-0.409954 1.83092 -0.303387 0.0032361 0 0 
-0.409954 1.91142 -0.303387 0.0032361 0 0 
-0.409954 1.83092 -0.263187 0.0032361 -0 0 
-0.409954 1.91142 -0.303387 0.0032361 -0 0 
-0.409954 1.91142 -0.263187 0.0032361 -0 0 
-0.490456 1.83092 -0.303387 -0.0032361 0 0 
-0.490456 1.83092 -0.263187 -0.0032361 0 0 
-0.490456 1.91142 -0.263187 -0.0032361 0 0 
-0.490456 1.83092 -0.303387 -0.0032361 0 0 
-0.490456 1.91142 -0.263187 -0.0032361 0 0 
-0.490456 1.91142 -0.303387 -0.0032361 0 0 
-1.2536 1.83092 -0.263187 0 0 0.00648025 
-1.1731 1.83092 -0.263187 0 0 0.00648025 
-1.1731 1.91142 -0.263187 0 0 0.00648025 
-1.2536 1.83092 -0.263187 0 0 0.00648025 
-1.1731 1.91142 -0.263187 0 0 0.00648025 
-1.2536 1.91142 -0.263187 0 0 0.00648025 
-1.2536 1.91142 -0.263187 -0 0.0032361 0 
-1.1731 1.91142 -0.263187 -0 0.0032361 0 
-1.1731 1.91142 -0.303387 -0 0.0032361 0 
-1.2536 1.91142 -0.263187 0 0.0032361 0 
-1.1731 1.91142 -0.303387 0 0.0032361 0 
-1.2536 1.91142 -0.303387 0 0.0032361 0 
-1.2536 1.83092 -0.303387 0 -0.0032361 0 
-1.1731 1.83092 -0.303387 0 -0.0032361 0 
-1.1731 1.83092 -0.263187 0 -0.0032361 0 
-1.2536 1.83092 -0.303387 0 -0.0032361 0 
-1.1731 1.83092 -0.263187 0 -0.0032361 0 
-1.2536 1.83092 -0.263187 0 -0.0032361 0 
-1.1731 1.83092 -0.263187 0.0032361 0 0 
-1.1731 1.83092 -0.303387 0.0032361 0 0 
-1.1731 1.91142 -0.303387 0.0032361 0 0 
-1.1731 1.83092 -0.263187 0.0032361 -0 0 
-1.1731 1.91142 -0.303387 0.0032361 -0 0 
-1.1731 1.91142 -0.263187 0.0032361 -0 0 
-1.2536 1.83092 -0.303387 -0.0032361 0 0 
-1.2536 1.83092 -0.263187 -0.0032361 0 0 
-1.2536 1.91142 -0.263187 -0.0032361 0 0 
-1.2536 1.83092 -0.303387 -0.0032361 0 0 
-1.2536 1.91142 -0.263187 -0.0032361 0 0 
-1.2536 1.91142 -0.303387 -0.0032361 0 0 
-0.872028 1.83092 -0.263187 0 0 0.00648001 
-0.791531 1.83092 -0.263187 0 0 0.00648001 
-0.791531 1.91142 -0.263187 0 0 0.00648001 
-0.872028 1.83092 -0.263187 0 0 0.00648001 
-0.791531 1.91142 -0.263187 0 0 0.00648001 
-0.872028 1.91142 -0.263187 0 0 0.00648001 
-0.872028 1.91142 -0.263187 -0 0.00323598 0 
-0.791531 1.91142 -0.263187 -0 0.00323598 0 
-0.791531 1.91142 -0.303387 -0 0.00323598 0 
-0.872028 1.91142 -0.263187 0 0.00323598 0 
-0.791531 1.91142 -0.303387 0 0.00323598 0 
-0.872028 1.91142 -0.303387 0 0.00323598 0 
-0.872028 1.83092 -0.303387 0 -0.00323598 0 
-0.791531 1.83092 -0.303387 0 -0.00323598 0 
-0.791531 1.83092 -0.263187 0 -0.00323598 0 
-0.872028 1.83092 -0.303387 0 -0.00323598 0 
-0.791531 1.83092 -0.263187 0 -0.00323598 0 
-0.872028 1.83092 -0.263187 0 -0.00323598 0 
-0.791531 1.83092 -0.263187 0.0032361 0 0 
-0.791531 1.83092 -0.303387 0.0032361 0 0 
-0.791531 1.91142 -0.303387 0.0032361 0 0 
-0.791531 1.83092 -0.263187 0.0032361 -0 0 
-0.791531 1.91142 -0.303387 0.0032361 -0 0 
-0.791531 1.91142 -0.263187 0.0032361 -0 0 
-0.872028 1.83092 -0.303387 -0.0032361 0 0 
-0.872028 1.83092 -0.263187 -0.0032361 0 0 
-0.872028 1.91142 -0.263187 -0.0032361 0 0 
-0.872028 1.83092 -0.303387 -0.0032361 0 0 
-0.872028 1.91142 -0.263187 -0.0032361 0 0 
-0.872028 1.91142 -0.303387 -0.0032361 0 0 
-5 4 0 0 0 1.25 
-3.75 4 0 0 0 1.25 
-3.75 5 0 0 0 1.25 
-5 4 0 0 0 1.25 
-3.75 5 0 0 0 1.25 
-5 5 0 0 0 1.25 
-2.5 4 0 0 0 1.25 
-1.25 4 0 0 0 1.25 
-1.25 5 0 0 0 1.25 
-2.5 4 0 0 0 1.25 
-1.25 5 0 0 0 1.25 
-2.5 5 0 0 0 1.25 
-3.75 4 0 0 0 1.25 
-2.5 4 0 0 0 1.25 
-2.5 5 0 0 0 1.25 
-3.75 4 0 0 0 1.25 
-2.5 5 0 0 0 1.25 
-3.75 5 0 0 0 1.25 
0 5 0 0 0 1.25 
-1.25 5 0 0 0 1.25 
-1.25 4 0 0 0 1.25 
0 5 0 0 0 1.25 
-1.25 4 0 0 0 1.25 
0 4 0 0 0 1.25 
-5 3.29839 4e-06 -0 5e-06 0.877013 
-3.75 3.29839 4e-06 -0 5e-06 0.877013 
-3.75 4 0 -0 5e-06 0.877013 
-5 3.29839 4e-06 0 5e-06 0.877013 
-3.75 4 0 0 5e-06 0.877013 
-5 4 0 0 5e-06 0.877013 
-3.75 3.29839 4e-06 -0 5e-06 0.877013 
-2.5 3.29839 4e-06 -0 5e-06 0.877013 
-2.5 4 0 -0 5e-06 0.877013 
-3.75 3.29839 4e-06 0 5e-06 0.877013 
-2.5 4 0 0 5e-06 0.877013 
-3.75 4 0 0 5e-06 0.877013 
-2.5 3.29839 4e-06 -0 5e-06 0.877013 
-1.25 3.29839 4e-06 -0 5e-06 0.877013 
-1.25 4 0 -0 5e-06 0.877013 
-2.5 3.29839 4e-06 0 5e-06 0.877013 
-1.25 4 0 0 5e-06 0.877013 
-2.5 4 0 0 5e-06 0.877013 
0 4 0 0 5e-06 0.877013 
-1.25 4 0 0 5e-06 0.877013 
-1.25 3.29839 4e-06 0 5e-06 0.877013 
0 4 0 0 5e-06 0.877013 
-1.25 3.29839 4e-06 0 5e-06 0.877013 
0 3.29839 4e-06 0 5e-06 0.877013 
-3.75 0 0 0 -5e-06 2.03639 
-3.75 1.62911 4e-06 0 -5e-06 2.03639 
-5 1.62911 4e-06 0 -5e-06 2.03639 
-3.75 0 0 0 -5e-06 2.03639 
-5 1.62911 4e-06 0 -5e-06 2.03639 
-5 0 0 0 -5e-06 2.03639 
-2.5 0 0 0 -5e-06 2.03639 
-2.5 1.62911 4e-06 0 -5e-06 2.03639 
-3.75 1.62911 4e-06 0 -5e-06 2.03639 
-2.5 0 0 0 -5e-06 2.03639 
-3.75 1.62911 4e-06 0 -5e-06 2.03639 
-3.75 0 0 0 -5e-06 2.03639 
-1.25 0 0 0 -5e-06 2.03639 
-1.25 1.62911 4e-06 0 -5e-06 2.03639 
-2.5 1.62911 4e-06 0 -5e-06 2.03639 
-1.25 0 0 0 -5e-06 2.03639 
-2.5 1.62911 4e-06 0 -5e-06 2.03639 
-2.5 0 0 0 -5e-06 2.03639 
0 1.62911 4e-06 0 -5e-06 2.03639 
-1.25 1.62911 4e-06 0 -5e-06 2.03639 
-1.25 0 0 0 -5e-06 2.03639 
0 1.62911 4e-06 0 -5e-06 2.03639 
-1.25 0 0 0 -5e-06 2.03639 
0 0 0 0 -5e-06 2.03639 
3 0 1 2
3 3 4 5
3 6 7 8
3 9 10 11
3 12 13 14
3 15 16 17
3 18 19 20
3 21 22 23
3 24 25 26
3 27 28 29
3 30 31 32
3 33 34 35
3 36 37 38
3 39 40 41
3 42 43 44
3 45 46 47
3 48 49 50
3 51 52 53
3 54 55 56
3 57 58 59
3 60 61 62
3 63 64 65
3 66 67 68
3 69 70 71
3 72 73 74
3 75 76 77
3 78 79 80
3 81 82 83
3 84 85 86
3 87 88 89
3 90 91 92
3 93 94 95
3 96 97 98
3 99 100 101
3 102 103 104
3 105 106 107
3 108 109 110
3 111 112 113
3 114 115 116
3 117 118 119
3 120 121 122
3 123 124 125
3 126 127 128
3 129 130 131
3 132 133 134
3 135 136 137
3 138 139 140
3 141 142 143
3 144 145 146
3 147 148 149
3 150 151 152
3 153 154 155
3 156 157 158
3 159 160 161
3 162 163 164
3 165 166 167
3 168 169 170
3 171 172 173
3 174 175 176
3 177 178 179
3 180 181 182
3 183 184 185
3 186 187 188
3 189 190 191
3 192 193 194
3 195 196 197
3 198 199 200
3 201 202 203
3 204 205 206
3 207 208 209
3 210 211 212
3 213 214 215
3 216 217 218
3 219 220 221
3 222 223 224
3 225 226 227
3 228 229 230
3 231 232 233
3 234 235 236
3 237 238 239
3 240 241 242
3 243 244 245
3 246 247 248
3 249 250 251
3 252 253 254
3 255 256 257
3 258 259 260
3 261 262 263
3 264 265 266
3 267 268 269
3 270 271 272
3 273 274 275
3 276 277 278
3 279 280 281
3 282 283 284
3 285 286 287
3 288 289 290
3 291 292 293
3 294 295 296
3 297 298 299
3 300 301 302
3 303 304 305
3 306 307 308
3 309 310 311
3 312 313 314
3 315 316 317
3 318 319 320
3 321 322 323
3 324 325 326
3 327 328 329
3 330 331 332
3 333 334 335
3 336 337 338
3 339 340 341
3 342 343 344
3 345 346 347
3 348 349 350
3 351 352 353
3 354 355 356
3 357 358 359
3 360 361 362
3 363 364 365
3 366 367 368
3 369 370 371
3 372 373 374
3 375 376 377
3 378 379 380
3 381 382 383
3 384 385 386
3 387 388 389
3 390 391 392
3 393 394 395
3 396 397 398
3 399 400 401
3 402 403 404
3 405 406 407
3 408 409 410
3 411 412 413
3 414 415 416
3 417 418 419
3 420 421 422
3 423 424 425
3 426 427 428
3 429 430 431
3 432 433 434
3 435 436 437
3 438 439 440
3 441 442 443
3 444 445 446
3 447 448 449
3 450 451 452
3 453 454 455
3 456 457 458
3 459 460 461
3 462 463 464
3 465 466 467
3 468 469 470
3 471 472 473
3 474 475 476
3 477 478 479
3 480 481 482
3 483 484 485
3 486 487 488
3 489 490 491
3 492 493 494
3 495 496 497
3 498 499 500
3 501 502 503
3 504 505 506
3 507 508 509
3 510 511 512
3 513 514 515
3 516 517 518
3 519 520 521
3 522 523 524
3 525 526 527
3 528 529 530
3 531 532 533
3 534 535 536
3 537 538 539
3 540 541 542
3 543 544 545
3 546 547 548
3 549 550 551
3 552 553 554
3 555 556 557
3 558 559 560
3 561 562 563
3 564 565 566
3 567 568 569
3 570 571 572
3 573 574 575
3 576 577 578
3 579 580 581
3 582 583 584
3 585 586 587
3 588 589 590
3 591 592 593
3 594 595 596
3 597 598 599
3 600 601 602
3 603 604 605
3 606 607 608
3 609 610 611
3 612 613 614
3 615 616 617
3 618 619 620
3 621 622 623
3 624 625 626
3 627 628 629
3 630 631 632
3 633 634 635
3 636 637 638
3 639 640 641
3 642 643 644
3 645 646 647
3 648 649 650
3 651 652 653
3 654 655 656
3 657 658 659
3 660 661 662
3 663 664 665
3 666 667 668
3 669 670 671
3 672 673 674
3 675 676 677
3 678 679 680
3 681 682 683
3 684 685 686
3 687 688 689
3 690 691 692
3 693 694 695
3 696 697 698
3 699 700 701
3 702 703 704
3 705 706 707
3 708 709 710
3 711 712 713
3 714 715 716
3 717 718 719
3 720 721 722
3 723 724 725
3 726 727 728
3 729 730 731
3 732 733 734
3 735 736 737
3 738 739 740
3 741 742 743
