ply
format ascii 1.0
comment Feeney's Flatenator generated
comment TextureFile SpaceInteriors_Texture.png
element vertex 312
property float x
property float y
property float z
element face 104
property list uchar int vertex_indices
end_header
-2 1 1.99151 
-1e-06 1 2e-06 
1e-06 1 -0.370729 
-2 1 1.99151 
1e-06 1 -0.370729 
-2.37073 1 1.99151 
-2.37073 0 1.99151 
1e-06 0 -0.370729 
-1e-06 0 2e-06 
-2.37073 0 1.99151 
-1e-06 0 2e-06 
-2 0 1.99151 
-1e-06 0 2e-06 
1e-06 0 -0.370729 
1e-06 1 -0.370729 
-1e-06 0 2e-06 
1e-06 1 -0.370729 
-1e-06 1 2e-06 
-2.37073 0 1.99151 
-2 0 1.99151 
-2 1 1.99151 
-2.37073 0 1.99151 
-2 1 1.99151 
-2.37073 1 1.99151 
-2 0 1.99151 
-1e-06 0 2e-06 
-0.063571 0.089901 0.063572 
-2 0 1.99151 
-0.063571 0.089901 0.063572 
-1.93643 0.089902 1.92794 
-1e-06 0 2e-06 
-1e-06 1 2e-06 
-0.063571 0.910098 0.063572 
-1e-06 0 2e-06 
-0.063571 0.910098 0.063572 
-0.063571 0.089901 0.063572 
-1e-06 1 2e-06 
-2 1 1.99151 
-1.93643 0.910099 1.92794 
-1e-06 1 2e-06 
-1.93643 0.910099 1.92794 
-0.063571 0.910098 0.063572 
-2 1 1.99151 
-2 0 1.99151 
-1.93643 0.089902 1.92794 
-2 1 1.99151 
-1.93643 0.089902 1.92794 
-1.93643 0.910099 1.92794 
-2.37073 1 1.99151 
1e-06 1 -0.370729 
-0.325717 0.910098 -0.198574 
-2.37073 1 1.99151 
-0.325717 0.910098 -0.198574 
-2.19425 0.910098 1.66996 
1e-06 1 -0.370729 
1e-06 0 -0.370729 
-0.325717 0.089901 -0.198574 
1e-06 1 -0.370729 
-0.325717 0.089901 -0.198574 
-0.325717 0.910098 -0.198574 
1e-06 0 -0.370729 
-2.37073 0 1.99151 
-2.19425 0.089901 1.66996 
1e-06 0 -0.370729 
-2.19425 0.089901 1.66996 
-0.325717 0.089901 -0.198574 
-2.37073 0 1.99151 
-2.37073 1 1.99151 
-2.19425 0.910098 1.66996 
-2.37073 0 1.99151 
-2.19425 0.910098 1.66996 
-2.19425 0.089901 1.66996 
-1.93643 0.089902 1.92794 
-0.063571 0.089901 0.063572 
-0.19253 0.089901 -0.065386 
-1.93643 0.089902 1.92794 
-0.19253 0.089901 -0.065386 
-2.06106 0.089901 1.80315 
-0.063571 0.089901 0.063572 
-0.063571 0.910098 0.063572 
-0.19253 0.910098 -0.065386 
-0.063571 0.089901 0.063572 
-0.19253 0.910098 -0.065386 
-0.19253 0.089901 -0.065386 
-0.063571 0.910098 0.063572 
-1.93643 0.910099 1.92794 
-2.06106 0.910098 1.80315 
-0.063571 0.910098 0.063572 
-2.06106 0.910098 1.80315 
-0.19253 0.910098 -0.065386 
-1.93643 0.910099 1.92794 
-1.93643 0.089902 1.92794 
-2.06106 0.089901 1.80315 
-1.93643 0.910099 1.92794 
-2.06106 0.089901 1.80315 
-2.06106 0.910098 1.80315 
-2.19425 0.910098 1.66996 
-0.325717 0.910098 -0.198574 
-0.227837 0.910098 -0.100694 
-2.19425 0.910098 1.66996 
-0.227837 0.910098 -0.100694 
-2.09637 0.910098 1.76784 
-0.325717 0.910098 -0.198574 
-0.325717 0.089901 -0.198574 
-0.227837 0.089901 -0.100694 
-0.325717 0.910098 -0.198574 
-0.227837 0.089901 -0.100694 
-0.227837 0.910098 -0.100694 
-0.325717 0.089901 -0.198574 
-2.19425 0.089901 1.66996 
-2.09637 0.089901 1.76784 
-0.325717 0.089901 -0.198574 
-2.09637 0.089901 1.76784 
-0.227837 0.089901 -0.100694 
-2.19425 0.089901 1.66996 
-2.19425 0.910098 1.66996 
-2.09637 0.910098 1.76784 
-2.19425 0.089901 1.66996 
-2.09637 0.910098 1.76784 
-2.09637 0.089901 1.76784 
-2.06106 0.089901 1.80315 
-0.19253 0.089901 -0.065386 
-0.242512 0.192121 -0.015402 
-2.06106 0.089901 1.80315 
-0.242512 0.192121 -0.015402 
-2.01108 0.192121 1.75316 
-0.19253 0.089901 -0.065386 
-0.19253 0.910098 -0.065386 
-0.242512 0.807879 -0.015402 
-0.19253 0.089901 -0.065386 
-0.242512 0.807879 -0.015402 
-0.242512 0.192121 -0.015402 
-0.19253 0.910098 -0.065386 
-2.06106 0.910098 1.80315 
-2.01108 0.807879 1.75316 
-0.19253 0.910098 -0.065386 
-2.01108 0.807879 1.75316 
-0.242512 0.807879 -0.015402 
-2.06106 0.910098 1.80315 
-2.06106 0.089901 1.80315 
-2.01108 0.192121 1.75316 
-2.06106 0.910098 1.80315 
-2.01108 0.192121 1.75316 
-2.01108 0.807879 1.75316 
-2.09637 0.910098 1.76784 
-0.227837 0.910098 -0.100694 
-0.277821 0.807879 -0.050711 
-2.09637 0.910098 1.76784 
-0.277821 0.807879 -0.050711 
-2.04639 0.807879 1.71786 
-0.227837 0.910098 -0.100694 
-0.227837 0.089901 -0.100694 
-0.277821 0.192121 -0.050711 
-0.227837 0.910098 -0.100694 
-0.277821 0.192121 -0.050711 
-0.277821 0.807879 -0.050711 
-0.227837 0.089901 -0.100694 
-2.09637 0.089901 1.76784 
-2.04639 0.192121 1.71786 
-0.227837 0.089901 -0.100694 
-2.04639 0.192121 1.71786 
-0.277821 0.192121 -0.050711 
-2.09637 0.089901 1.76784 
-2.09637 0.910098 1.76784 
-2.04639 0.807879 1.71786 
-2.09637 0.089901 1.76784 
-2.04639 0.807879 1.71786 
-2.04639 0.192121 1.71786 
-0.242512 0.807879 -0.015402 
-2.01108 0.807879 1.75316 
-2.04639 0.807879 1.71786 
-0.242512 0.807879 -0.015402 
-2.04639 0.807879 1.71786 
-0.277821 0.807879 -0.050711 
-2.01108 0.807879 1.75316 
-2.01108 0.192121 1.75316 
-2.04639 0.192121 1.71786 
-2.01108 0.807879 1.75316 
-2.04639 0.192121 1.71786 
-2.04639 0.807879 1.71786 
-0.242512 0.807879 -0.015402 
-0.277821 0.807879 -0.050711 
-0.277821 0.192121 -0.050711 
-0.242512 0.807879 -0.015402 
-0.277821 0.192121 -0.050711 
-0.242512 0.192121 -0.015402 
-0.242512 0.192121 -0.015402 
-0.277821 0.192121 -0.050711 
-2.04639 0.192121 1.71786 
-0.242512 0.192121 -0.015402 
-2.04639 0.192121 1.71786 
-2.01108 0.192121 1.75316 
-0.320343 0.833737 0.096603 
-0.286128 0.833737 0.062387 
-0.286128 0.882126 0.062387 
-0.320343 0.833737 0.096603 
-0.286128 0.882126 0.062387 
-0.320343 0.882126 0.096603 
-0.320343 0.882126 0.096603 
-0.286128 0.882126 0.062387 
-0.303214 0.882126 0.0453 
-0.320343 0.882126 0.096603 
-0.303214 0.882126 0.0453 
-0.33743 0.882126 0.079515 
-0.33743 0.833737 0.079515 
-0.303214 0.833737 0.0453 
-0.286128 0.833737 0.062387 
-0.33743 0.833737 0.079515 
-0.286128 0.833737 0.062387 
-0.320343 0.833737 0.096603 
-0.286128 0.833737 0.062387 
-0.303214 0.833737 0.0453 
-0.303214 0.882126 0.0453 
-0.286128 0.833737 0.062387 
-0.303214 0.882126 0.0453 
-0.286128 0.882126 0.062387 
-0.33743 0.833737 0.079515 
-0.320343 0.833737 0.096603 
-0.320343 0.882126 0.096603 
-0.33743 0.833737 0.079515 
-0.320343 0.882126 0.096603 
-0.33743 0.882126 0.079515 
-1.90584 0.833737 1.6821 
-1.87162 0.833737 1.64788 
-1.87162 0.882126 1.64788 
-1.90584 0.833737 1.6821 
-1.87162 0.882126 1.64788 
-1.90584 0.882126 1.6821 
-1.90584 0.882126 1.6821 
-1.87162 0.882126 1.64788 
-1.88871 0.882126 1.6308 
-1.90584 0.882126 1.6821 
-1.88871 0.882126 1.6308 
-1.92293 0.882126 1.66501 
-1.92293 0.833737 1.66501 
-1.88871 0.833737 1.6308 
-1.87162 0.833737 1.64788 
-1.92293 0.833737 1.66501 
-1.87162 0.833737 1.64788 
-1.90584 0.833737 1.6821 
-1.87162 0.833737 1.64788 
-1.88871 0.833737 1.6308 
-1.88871 0.882126 1.6308 
-1.87162 0.833737 1.64788 
-1.88871 0.882126 1.6308 
-1.87162 0.882126 1.64788 
-1.92293 0.833737 1.66501 
-1.90584 0.833737 1.6821 
-1.90584 0.882126 1.6821 
-1.92293 0.833737 1.66501 
-1.90584 0.882126 1.6821 
-1.92293 0.882126 1.66501 
-0.320343 0.117873 0.096603 
-0.286128 0.117873 0.062387 
-0.286128 0.166263 0.062387 
-0.320343 0.117873 0.096603 
-0.286128 0.166263 0.062387 
-0.320343 0.166263 0.096603 
-0.320343 0.166263 0.096603 
-0.286128 0.166263 0.062387 
-0.303214 0.166263 0.0453 
-0.320343 0.166263 0.096603 
-0.303214 0.166263 0.0453 
-0.33743 0.166263 0.079515 
-0.33743 0.117873 0.079515 
-0.303214 0.117873 0.0453 
-0.286128 0.117873 0.062387 
-0.33743 0.117873 0.079515 
-0.286128 0.117873 0.062387 
-0.320343 0.117873 0.096603 
-0.286128 0.117873 0.062387 
-0.303214 0.117873 0.0453 
-0.303214 0.166263 0.0453 
-0.286128 0.117873 0.062387 
-0.303214 0.166263 0.0453 
-0.286128 0.166263 0.062387 
-0.33743 0.117873 0.079515 
-0.320343 0.117873 0.096603 
-0.320343 0.166263 0.096603 
-0.33743 0.117873 0.079515 
-0.320343 0.166263 0.096603 
-0.33743 0.166263 0.079515 
-1.90584 0.117873 1.6821 
-1.87162 0.117873 1.64788 
-1.87162 0.166263 1.64788 
-1.90584 0.117873 1.6821 
-1.87162 0.166263 1.64788 
-1.90584 0.166263 1.6821 
-1.90584 0.166263 1.6821 
-1.87162 0.166263 1.64788 
-1.88871 0.166263 1.6308 
-1.90584 0.166263 1.6821 
-1.88871 0.166263 1.6308 
-1.92293 0.166263 1.66501 
-1.92293 0.117873 1.66501 
-1.88871 0.117873 1.6308 
-1.87162 0.117873 1.64788 
-1.92293 0.117873 1.66501 
-1.87162 0.117873 1.64788 
-1.90584 0.117873 1.6821 
-1.87162 0.117873 1.64788 
-1.88871 0.117873 1.6308 
-1.88871 0.166263 1.6308 
-1.87162 0.117873 1.64788 
-1.88871 0.166263 1.6308 
-1.87162 0.166263 1.64788 
-1.92293 0.117873 1.66501 
-1.90584 0.117873 1.6821 
-1.90584 0.166263 1.6821 
-1.92293 0.117873 1.66501 
-1.90584 0.166263 1.6821 
-1.92293 0.166263 1.66501 
3 0 1 2
3 3 4 5
3 6 7 8
3 9 10 11
3 12 13 14
3 15 16 17
3 18 19 20
3 21 22 23
3 24 25 26
3 27 28 29
3 30 31 32
3 33 34 35
3 36 37 38
3 39 40 41
3 42 43 44
3 45 46 47
3 48 49 50
3 51 52 53
3 54 55 56
3 57 58 59
3 60 61 62
3 63 64 65
3 66 67 68
3 69 70 71
3 72 73 74
3 75 76 77
3 78 79 80
3 81 82 83
3 84 85 86
3 87 88 89
3 90 91 92
3 93 94 95
3 96 97 98
3 99 100 101
3 102 103 104
3 105 106 107
3 108 109 110
3 111 112 113
3 114 115 116
3 117 118 119
3 120 121 122
3 123 124 125
3 126 127 128
3 129 130 131
3 132 133 134
3 135 136 137
3 138 139 140
3 141 142 143
3 144 145 146
3 147 148 149
3 150 151 152
3 153 154 155
3 156 157 158
3 159 160 161
3 162 163 164
3 165 166 167
3 168 169 170
3 171 172 173
3 174 175 176
3 177 178 179
3 180 181 182
3 183 184 185
3 186 187 188
3 189 190 191
3 192 193 194
3 195 196 197
3 198 199 200
3 201 202 203
3 204 205 206
3 207 208 209
3 210 211 212
3 213 214 215
3 216 217 218
3 219 220 221
3 222 223 224
3 225 226 227
3 228 229 230
3 231 232 233
3 234 235 236
3 237 238 239
3 240 241 242
3 243 244 245
3 246 247 248
3 249 250 251
3 252 253 254
3 255 256 257
3 258 259 260
3 261 262 263
3 264 265 266
3 267 268 269
3 270 271 272
3 273 274 275
3 276 277 278
3 279 280 281
3 282 283 284
3 285 286 287
3 288 289 290
3 291 292 293
3 294 295 296
3 297 298 299
3 300 301 302
3 303 304 305
3 306 307 308
3 309 310 311
