ply
format ascii 1.0
comment Feeney's Flatenator generated
comment TextureFile SpaceInteriors_Texture.png
element vertex 480
property float x
property float y
property float z
property float nx
property float ny
property float nz
property float texture_u
property float texture_v
element face 160
property list uchar int vertex_indices
end_header
-1.25 5 0 0 -0.201188 0.198824 0.263069 0.063091 
-3.75 5 0 0 -0.201188 0.198824 0.263069 0.063091 
-3.54188 4.92047 -0.080475 0 -0.201188 0.198824 0.263069 0.063091 
-1.25 5 0 0 -0.167691 0.165722 0.263069 0.063091 
-3.54188 4.92047 -0.080475 0 -0.167691 0.165722 0.263069 0.063091 
-1.45811 4.92047 -0.080475 0 -0.167691 0.165722 0.263069 0.063091 
-3.75 5 0 8.9407e-06 -0.19268 0.190431 0.263069 0.063091 
-3.18442 3.86884 -1.14455 8.9407e-06 -0.19268 0.190431 0.263069 0.063091 
-3.07047 3.97764 -1.03447 8.9407e-06 -0.19268 0.190431 0.263069 0.063091 
-3.75 5 0 3.27826e-06 -0.160609 0.158731 0.263069 0.063091 
-3.07047 3.97764 -1.03447 3.27826e-06 -0.160609 0.158731 0.263069 0.063091 
-3.54188 4.92047 -0.080475 3.27826e-06 -0.160609 0.158731 0.263069 0.063091 
-3.18442 3.86884 -1.14455 0 -0.150682 0.14893 0.263069 0.063091 
-1.81558 3.86884 -1.14455 0 -0.150682 0.14893 0.263069 0.063091 
-1.92953 3.97764 -1.03447 0 -0.150682 0.14893 0.263069 0.063091 
-3.18442 3.86884 -1.14455 0 -0.125595 0.124134 0.263069 0.063091 
-1.92953 3.97764 -1.03447 0 -0.125595 0.124134 0.263069 0.063091 
-3.07047 3.97764 -1.03447 0 -0.125595 0.124134 0.263069 0.063091 
-1.81558 3.86884 -1.14455 -4.17233e-06 -0.192677 0.190425 0.263069 0.063091 
-1.25 5 0 -4.17233e-06 -0.192677 0.190425 0.263069 0.063091 
-1.45811 4.92047 -0.080475 -4.17233e-06 -0.192677 0.190425 0.263069 0.063091 
-1.81558 3.86884 -1.14455 -7.82311e-06 -0.160602 0.158726 0.263069 0.063091 
-1.45811 4.92047 -0.080475 -7.82311e-06 -0.160602 0.158726 0.263069 0.063091 
-1.92953 3.97764 -1.03447 -7.82311e-06 -0.160602 0.158726 0.263069 0.063091 
-5 3.75 0 0.201188 0 0.198824 0.263069 0.063091 
-5 1.25 0 0.201188 0 0.198824 0.263069 0.063091 
-4.92047 1.45812 -0.080475 0.201188 0 0.198824 0.263069 0.063091 
-5 3.75 0 0.167691 0 0.165721 0.263069 0.063091 
-4.92047 1.45812 -0.080475 0.167691 0 0.165721 0.263069 0.063091 
-4.92047 3.54188 -0.080475 0.167691 0 0.165721 0.263069 0.063091 
-5 1.25 0 0.192681 8.9407e-06 0.190431 0.263069 0.063091 
-3.86884 1.81558 -1.14455 0.192681 8.9407e-06 0.190431 0.263069 0.063091 
-3.97764 1.92953 -1.03447 0.192681 8.9407e-06 0.190431 0.263069 0.063091 
-5 1.25 0 0.160609 3.27826e-06 0.158731 0.263069 0.063091 
-3.97764 1.92953 -1.03447 0.160609 3.27826e-06 0.158731 0.263069 0.063091 
-4.92047 1.45812 -0.080475 0.160609 3.27826e-06 0.158731 0.263069 0.063091 
-3.86884 1.81558 -1.14455 0.150682 -0 0.14893 0.263069 0.063091 
-3.86884 3.18442 -1.14455 0.150682 -0 0.14893 0.263069 0.063091 
-3.97764 3.07047 -1.03447 0.150682 -0 0.14893 0.263069 0.063091 
-3.86884 1.81558 -1.14455 0.125595 0 0.124134 0.263069 0.063091 
-3.97764 3.07047 -1.03447 0.125595 0 0.124134 0.263069 0.063091 
-3.97764 1.92953 -1.03447 0.125595 0 0.124134 0.263069 0.063091 
-3.86884 3.18442 -1.14455 0.192689 -4.17233e-06 0.190437 0.263069 0.063091 
-5 3.75 0 0.192689 -4.17233e-06 0.190437 0.263069 0.063091 
-4.92047 3.54188 -0.080475 0.192689 -4.17233e-06 0.190437 0.263069 0.063091 
-3.86884 3.18442 -1.14455 0.160601 -7.82311e-06 0.158725 0.263069 0.063091 
-4.92047 3.54188 -0.080475 0.160601 -7.82311e-06 0.158725 0.263069 0.063091 
-3.97764 3.07047 -1.03447 0.160601 -7.82311e-06 0.158725 0.263069 0.063091 
-3.75 0 0 -0 0.201188 0.198835 0.263069 0.063091 
-1.25 0 0 -0 0.201188 0.198835 0.263069 0.063091 
-1.45811 0.079534 -0.080475 -0 0.201188 0.198835 0.263069 0.063091 
-3.75 0 0 0 0.167691 0.165731 0.263069 0.063091 
-1.45811 0.079534 -0.080475 0 0.167691 0.165731 0.263069 0.063091 
-3.54188 0.079534 -0.080475 0 0.167691 0.165731 0.263069 0.063091 
-1.25 0 0 -9.05991e-06 0.192681 0.190431 0.263069 0.063091 
-1.81558 1.13116 -1.14455 -9.05991e-06 0.192681 0.190431 0.263069 0.063091 
-1.92953 1.02236 -1.03447 -9.05991e-06 0.192681 0.190431 0.263069 0.063091 
-1.25 0 0 1.11014e-06 0.160598 0.158718 0.263069 0.063091 
-1.92953 1.02236 -1.03447 1.11014e-06 0.160598 0.158718 0.263069 0.063091 
-1.45811 0.079534 -0.080475 1.11014e-06 0.160598 0.158718 0.263069 0.063091 
-1.81558 1.13116 -1.14455 0 0.150682 0.14893 0.263069 0.063091 
-3.18442 1.13116 -1.14455 0 0.150682 0.14893 0.263069 0.063091 
-3.07047 1.02236 -1.03447 0 0.150682 0.14893 0.263069 0.063091 
-1.81558 1.13116 -1.14455 0 0.125595 0.124134 0.263069 0.063091 
-3.07047 1.02236 -1.03447 0 0.125595 0.124134 0.263069 0.063091 
-1.92953 1.02236 -1.03447 0 0.125595 0.124134 0.263069 0.063091 
-3.18442 1.13116 -1.14455 -7.15256e-07 0.192689 0.190434 0.263069 0.063091 
-3.75 0 0 -7.15256e-07 0.192689 0.190434 0.263069 0.063091 
-3.54188 0.079534 -0.080475 -7.15256e-07 0.192689 0.190434 0.263069 0.063091 
-3.18442 1.13116 -1.14455 8.41916e-06 0.160601 0.158724 0.263069 0.063091 
-3.54188 0.079534 -0.080475 8.41916e-06 0.160601 0.158724 0.263069 0.063091 
-3.07047 1.02236 -1.03447 8.41916e-06 0.160601 0.158724 0.263069 0.063091 
0 1.25 0 -0.201188 0 0.198833 0.263069 0.063091 
0 3.75 0 -0.201188 0 0.198833 0.263069 0.063091 
-0.079533 3.54188 -0.080475 -0.201188 0 0.198833 0.263069 0.063091 
0 1.25 0 -0.167691 0 0.165728 0.263069 0.063091 
-0.079533 3.54188 -0.080475 -0.167691 0 0.165728 0.263069 0.063091 
-0.079533 1.45812 -0.080475 -0.167691 0 0.165728 0.263069 0.063091 
0 3.75 0 -0.19268 -9.05991e-06 0.190431 0.263069 0.063091 
-1.13116 3.18442 -1.14455 -0.19268 -9.05991e-06 0.190431 0.263069 0.063091 
-1.02236 3.07047 -1.03447 -0.19268 -9.05991e-06 0.190431 0.263069 0.063091 
0 3.75 0 -0.160609 8.19564e-08 0.158729 0.263069 0.063091 
-1.02236 3.07047 -1.03447 -0.160609 8.19564e-08 0.158729 0.263069 0.063091 
-0.079533 3.54188 -0.080475 -0.160609 8.19564e-08 0.158729 0.263069 0.063091 
-1.13116 3.18442 -1.14455 -0.150682 0 0.14893 0.263069 0.063091 
-1.13116 1.81558 -1.14455 -0.150682 0 0.14893 0.263069 0.063091 
-1.02236 1.92953 -1.03447 -0.150682 0 0.14893 0.263069 0.063091 
-1.13116 3.18442 -1.14455 -0.125595 0 0.124134 0.263069 0.063091 
-1.02236 1.92953 -1.03447 -0.125595 0 0.124134 0.263069 0.063091 
-1.02236 3.07047 -1.03447 -0.125595 0 0.124134 0.263069 0.063091 
-1.13116 1.81558 -1.14455 -0.192689 5.96046e-07 0.190435 0.263069 0.063091 
0 1.25 0 -0.192689 5.96046e-07 0.190435 0.263069 0.063091 
-0.079533 1.45812 -0.080475 -0.192689 5.96046e-07 0.190435 0.263069 0.063091 
-1.13116 1.81558 -1.14455 -0.160601 8.3074e-06 0.158725 0.263069 0.063091 
-0.079533 1.45812 -0.080475 -0.160601 8.3074e-06 0.158725 0.263069 0.063091 
-1.02236 1.92953 -1.03447 -0.160601 8.3074e-06 0.158725 0.263069 0.063091 
0 3.75 0 -0.103608 -0.103608 0.153588 0.263069 0.063091 
-1.25 5 0 -0.103608 -0.103608 0.153588 0.263069 0.063091 
-1.20738 4.83451 -0.082886 -0.103608 -0.103608 0.153588 0.263069 0.063091 
0 3.75 0 -0.0863581 -0.0863579 0.12802 0.263069 0.063091 
-1.20738 4.83451 -0.082886 -0.0863581 -0.0863579 0.12802 0.263069 0.063091 
-0.165493 3.79262 -0.082886 -0.0863581 -0.0863579 0.12802 0.263069 0.063091 
-1.25 5 0 -0.0956618 -0.0956614 0.141814 0.263069 0.063091 
-1.81558 3.86884 -1.14455 -0.0956618 -0.0956614 0.141814 0.263069 0.063091 
-1.67879 3.89168 -1.03687 -0.0956618 -0.0956614 0.141814 0.263069 0.063091 
-1.25 5 0 -0.0797276 -0.079732 0.118197 0.263069 0.063091 
-1.67879 3.89168 -1.03687 -0.0797276 -0.079732 0.118197 0.263069 0.063091 
-1.20738 4.83451 -0.082886 -0.0797276 -0.079732 0.118197 0.263069 0.063091 
-1.81558 3.86884 -1.14455 -0.0736983 -0.0736983 0.109254 0.263069 0.063091 
-1.13116 3.18442 -1.14455 -0.0736983 -0.0736983 0.109254 0.263069 0.063091 
-1.10832 3.32121 -1.03687 -0.0736983 -0.0736983 0.109254 0.263069 0.063091 
-1.81558 3.86884 -1.14455 -0.0614282 -0.0614282 0.0910642 0.263069 0.063091 
-1.10832 3.32121 -1.03687 -0.0614282 -0.0614282 0.0910642 0.263069 0.063091 
-1.67879 3.89168 -1.03687 -0.0614282 -0.0614282 0.0910642 0.263069 0.063091 
-1.13116 3.18442 -1.14455 -0.0956593 -0.0956577 0.14181 0.263069 0.063091 
0 3.75 0 -0.0956593 -0.0956577 0.14181 0.263069 0.063091 
-0.165493 3.79262 -0.082886 -0.0956593 -0.0956577 0.14181 0.263069 0.063091 
-1.13116 3.18442 -1.14455 -0.0797339 -0.0797346 0.118202 0.263069 0.063091 
-0.165493 3.79262 -0.082886 -0.0797339 -0.0797346 0.118202 0.263069 0.063091 
-1.10832 3.32121 -1.03687 -0.0797339 -0.0797346 0.118202 0.263069 0.063091 
-3.75 5 0 0.103608 -0.103608 0.153588 0.263069 0.063091 
-5 3.75 0 0.103608 -0.103608 0.153588 0.263069 0.063091 
-4.83451 3.79262 -0.082886 0.103608 -0.103608 0.153588 0.263069 0.063091 
-3.75 5 0 0.0863581 -0.0863581 0.128017 0.263069 0.063091 
-4.83451 3.79262 -0.082886 0.0863581 -0.0863581 0.128017 0.263069 0.063091 
-3.79262 4.83451 -0.082886 0.0863581 -0.0863581 0.128017 0.263069 0.063091 
-5 3.75 0 0.0956668 -0.0956504 0.141813 0.263069 0.063091 
-3.86884 3.18442 -1.14455 0.0956668 -0.0956504 0.141813 0.263069 0.063091 
-3.89168 3.32121 -1.03688 0.0956668 -0.0956504 0.141813 0.263069 0.063091 
-5 3.75 0 0.0797325 -0.0797292 0.118197 0.263069 0.063091 
-3.89168 3.32121 -1.03688 0.0797325 -0.0797292 0.118197 0.263069 0.063091 
-4.83451 3.79262 -0.082886 0.0797325 -0.0797292 0.118197 0.263069 0.063091 
-3.86884 3.18442 -1.14455 0.0736915 -0.0736915 0.109254 0.263069 0.063091 
-3.18442 3.86884 -1.14455 0.0736915 -0.0736915 0.109254 0.263069 0.063091 
-3.32121 3.89168 -1.03688 0.0736915 -0.0736915 0.109254 0.263069 0.063091 
-3.86884 3.18442 -1.14455 0.0614225 -0.0614225 0.091064 0.263069 0.063091 
-3.32121 3.89168 -1.03688 0.0614225 -0.0614225 0.091064 0.263069 0.063091 
-3.89168 3.32121 -1.03688 0.0614225 -0.0614225 0.091064 0.263069 0.063091 
-3.18442 3.86884 -1.14455 0.0956545 -0.0956593 0.141808 0.263069 0.063091 
-3.75 5 0 0.0956545 -0.0956593 0.141808 0.263069 0.063091 
-3.79262 4.83451 -0.082886 0.0956545 -0.0956593 0.141808 0.263069 0.063091 
-3.18442 3.86884 -1.14455 0.0797252 -0.07974 0.118202 0.263069 0.063091 
-3.79262 4.83451 -0.082886 0.0797252 -0.07974 0.118202 0.263069 0.063091 
-3.32121 3.89168 -1.03688 0.0797252 -0.07974 0.118202 0.263069 0.063091 
-5 1.25 0 0.103608 0.103608 0.153589 0.263069 0.063091 
-3.75 0 0 0.103608 0.103608 0.153589 0.263069 0.063091 
-3.79262 0.165491 -0.082886 0.103608 0.103608 0.153589 0.263069 0.063091 
-5 1.25 0 0.0863493 0.0863484 0.128017 0.263069 0.063091 
-3.79262 0.165491 -0.082886 0.0863493 0.0863484 0.128017 0.263069 0.063091 
-4.83451 1.20738 -0.082878 0.0863493 0.0863484 0.128017 0.263069 0.063091 
-3.75 0 0 0.0956618 0.0956611 0.141813 0.263069 0.063091 
-3.18442 1.13116 -1.14455 0.0956618 0.0956611 0.141813 0.263069 0.063091 
-3.32121 1.10832 -1.03687 0.0956618 0.0956611 0.141813 0.263069 0.063091 
-3.75 0 0 0.0797284 0.079732 0.118197 0.263069 0.063091 
-3.32121 1.10832 -1.03687 0.0797284 0.079732 0.118197 0.263069 0.063091 
-3.79262 0.165491 -0.082886 0.0797284 0.079732 0.118197 0.263069 0.063091 
-3.18442 1.13116 -1.14455 0.0736983 0.0736983 0.109254 0.263069 0.063091 
-3.86884 1.81558 -1.14455 0.0736983 0.0736983 0.109254 0.263069 0.063091 
-3.89168 1.67879 -1.03687 0.0736983 0.0736983 0.109254 0.263069 0.063091 
-3.18442 1.13116 -1.14455 0.0614282 0.0614282 0.091064 0.263069 0.063091 
-3.89168 1.67879 -1.03687 0.0614282 0.0614282 0.091064 0.263069 0.063091 
-3.32121 1.10832 -1.03687 0.0614282 0.0614282 0.091064 0.263069 0.063091 
-3.86884 1.81558 -1.14455 0.0956548 0.0956635 0.141808 0.263069 0.063091 
-5 1.25 0 0.0956548 0.0956635 0.141808 0.263069 0.063091 
-4.83451 1.20738 -0.082878 0.0956548 0.0956635 0.141808 0.263069 0.063091 
-3.86884 1.81558 -1.14455 0.0797352 0.0797347 0.118203 0.263069 0.063091 
-4.83451 1.20738 -0.082878 0.0797352 0.0797347 0.118203 0.263069 0.063091 
-3.89168 1.67879 -1.03687 0.0797352 0.0797347 0.118203 0.263069 0.063091 
-1.25 0 0 -0.103608 0.103608 0.153591 0.263069 0.063091 
0 1.25 0 -0.103608 0.103608 0.153591 0.263069 0.063091 
-0.165493 1.20738 -0.082886 -0.103608 0.103608 0.153591 0.263069 0.063091 
-1.25 0 0 -0.0863579 0.0863579 0.128019 0.263069 0.063091 
-0.165493 1.20738 -0.082886 -0.0863579 0.0863579 0.128019 0.263069 0.063091 
-1.20738 0.165492 -0.082886 -0.0863579 0.0863579 0.128019 0.263069 0.063091 
0 1.25 0 -0.095667 0.0956504 0.141814 0.263069 0.063091 
-1.13116 1.81558 -1.14455 -0.095667 0.0956504 0.141814 0.263069 0.063091 
-1.10832 1.67879 -1.03688 -0.095667 0.0956504 0.141814 0.263069 0.063091 
0 1.25 0 -0.0797325 0.0797322 0.118198 0.263069 0.063091 
-1.10832 1.67879 -1.03688 -0.0797325 0.0797322 0.118198 0.263069 0.063091 
-0.165493 1.20738 -0.082886 -0.0797325 0.0797322 0.118198 0.263069 0.063091 
-1.13116 1.81558 -1.14455 -0.0736915 0.0736915 0.109254 0.263069 0.063091 
-1.81558 1.13116 -1.14455 -0.0736915 0.0736915 0.109254 0.263069 0.063091 
-1.67879 1.10832 -1.03688 -0.0736915 0.0736915 0.109254 0.263069 0.063091 
-1.13116 1.81558 -1.14455 -0.0614225 0.0614225 0.0910642 0.263069 0.063091 
-1.67879 1.10832 -1.03688 -0.0614225 0.0614225 0.0910642 0.263069 0.063091 
-1.10832 1.67879 -1.03688 -0.0614225 0.0614225 0.0910642 0.263069 0.063091 
-1.81558 1.13116 -1.14455 -0.0956566 0.0956593 0.141809 0.263069 0.063091 
-1.25 0 0 -0.0956566 0.0956593 0.141809 0.263069 0.063091 
-1.20738 0.165492 -0.082886 -0.0956566 0.0956593 0.141809 0.263069 0.063091 
-1.81558 1.13116 -1.14455 -0.079725 0.0797402 0.118202 0.263069 0.063091 
-1.20738 0.165492 -0.082886 -0.079725 0.0797402 0.118202 0.263069 0.063091 
-1.67879 1.10832 -1.03688 -0.079725 0.0797402 0.118202 0.263069 0.063091 
-1.13116 3.18442 -1.14455 0 0 0.233969 0.263069 0.063091 
-1.81558 3.86884 -1.14455 0 0 0.233969 0.263069 0.063091 
-1.92953 3.64094 -1.14455 0 0 0.233969 0.263069 0.063091 
-1.13116 3.18442 -1.14455 0 0 0.195015 0.263069 0.063091 
-1.92953 3.64094 -1.14455 0 0 0.195015 0.263069 0.063091 
-1.35906 3.07047 -1.14455 0 0 0.195015 0.263069 0.063091 
-1.81558 3.86884 -1.14455 0 0 0.311959 0.263069 0.063091 
-3.18442 3.86884 -1.14455 0 0 0.311959 0.263069 0.063091 
-3.07047 3.64094 -1.14455 0 0 0.311959 0.263069 0.063091 
-1.81558 3.86884 -1.14455 0 0 0.26002 0.263069 0.063091 
-3.07047 3.64094 -1.14455 0 0 0.26002 0.263069 0.063091 
-1.92953 3.64094 -1.14455 0 0 0.26002 0.263069 0.063091 
-3.18442 3.86884 -1.14455 0 0 0.233969 0.263069 0.063091 
-3.86884 3.18442 -1.14455 0 0 0.233969 0.263069 0.063091 
-3.64094 3.07047 -1.14455 0 0 0.233969 0.263069 0.063091 
-3.18442 3.86884 -1.14455 0 0 0.195015 0.263069 0.063091 
-3.64094 3.07047 -1.14455 0 0 0.195015 0.263069 0.063091 
-3.07047 3.64094 -1.14455 0 0 0.195015 0.263069 0.063091 
-3.86884 3.18442 -1.14455 0 0 0.311959 0.263069 0.063091 
-3.86884 1.81558 -1.14455 0 0 0.311959 0.263069 0.063091 
-3.64094 1.92953 -1.14455 0 0 0.311959 0.263069 0.063091 
-3.86884 3.18442 -1.14455 0 0 0.26002 0.263069 0.063091 
-3.64094 1.92953 -1.14455 0 0 0.26002 0.263069 0.063091 
-3.64094 3.07047 -1.14455 0 0 0.26002 0.263069 0.063091 
-3.86884 1.81558 -1.14455 0 0 0.233969 0.263069 0.063091 
-3.18442 1.13116 -1.14455 0 0 0.233969 0.263069 0.063091 
-3.07047 1.35906 -1.14455 0 0 0.233969 0.263069 0.063091 
-3.86884 1.81558 -1.14455 -0 0 0.195015 0.263069 0.063091 
-3.07047 1.35906 -1.14455 -0 0 0.195015 0.263069 0.063091 
-3.64094 1.92953 -1.14455 -0 0 0.195015 0.263069 0.063091 
-3.18442 1.13116 -1.14455 0 0 0.311959 0.263069 0.063091 
-1.81558 1.13116 -1.14455 0 0 0.311959 0.263069 0.063091 
-1.92953 1.35906 -1.14455 0 0 0.311959 0.263069 0.063091 
-3.18442 1.13116 -1.14455 0 0 0.26002 0.263069 0.063091 
-1.92953 1.35906 -1.14455 0 0 0.26002 0.263069 0.063091 
-3.07047 1.35906 -1.14455 0 0 0.26002 0.263069 0.063091 
-1.81558 1.13116 -1.14455 0 0 0.233969 0.263069 0.063091 
-1.13116 1.81558 -1.14455 0 0 0.233969 0.263069 0.063091 
-1.35906 1.92953 -1.14455 0 0 0.233969 0.263069 0.063091 
-1.81558 1.13116 -1.14455 0 -0 0.195015 0.263069 0.063091 
-1.35906 1.92953 -1.14455 0 -0 0.195015 0.263069 0.063091 
-1.92953 1.35906 -1.14455 0 -0 0.195015 0.263069 0.063091 
-1.13116 1.81558 -1.14455 0 -0 0.311959 0.263069 0.063091 
-1.13116 3.18442 -1.14455 0 -0 0.311959 0.263069 0.063091 
-1.35906 3.07047 -1.14455 0 -0 0.311959 0.263069 0.063091 
-1.13116 1.81558 -1.14455 0 0 0.26002 0.263069 0.063091 
-1.35906 3.07047 -1.14455 0 0 0.26002 0.263069 0.063091 
-1.35906 1.92953 -1.14455 0 0 0.26002 0.263069 0.063091 
-1.35906 3.07047 -1.14455 -0.148402 -0.148402 0 0.203471 0.063091 
-1.92953 3.64094 -1.14455 -0.148402 -0.148402 0 0.203471 0.063091 
-1.92953 3.64094 -1.40469 -0.148402 -0.148402 0 0.203471 0.063091 
-1.35906 3.07047 -1.14455 -0.148402 -0.148402 -0 0.203471 0.063091 
-1.92953 3.64094 -1.40469 -0.148402 -0.148402 -0 0.203471 0.063091 
-1.35906 3.07047 -1.40469 -0.148402 -0.148402 -0 0.203471 0.063091 
-1.92953 3.64094 -1.14455 -0 -0.296804 0 0.203471 0.063091 
-3.07047 3.64094 -1.14455 -0 -0.296804 0 0.203471 0.063091 
-3.07047 3.64094 -1.40469 -0 -0.296804 0 0.203471 0.063091 
-1.92953 3.64094 -1.14455 0 -0.296804 -0 0.203471 0.063091 
-3.07047 3.64094 -1.40469 0 -0.296804 -0 0.203471 0.063091 
-1.92953 3.64094 -1.40469 0 -0.296804 -0 0.203471 0.063091 
-3.07047 3.64094 -1.14455 0.148402 -0.148402 0 0.203471 0.063091 
-3.64094 3.07047 -1.14455 0.148402 -0.148402 0 0.203471 0.063091 
-3.64094 3.07047 -1.40469 0.148402 -0.148402 0 0.203471 0.063091 
-3.07047 3.64094 -1.14455 0.148402 -0.148402 0 0.203471 0.063091 
-3.64094 3.07047 -1.40469 0.148402 -0.148402 0 0.203471 0.063091 
-3.07047 3.64094 -1.40469 0.148402 -0.148402 0 0.203471 0.063091 
-3.64094 3.07047 -1.14455 0.296804 0 0 0.203471 0.063091 
-3.64094 1.92953 -1.14455 0.296804 0 0 0.203471 0.063091 
-3.64094 1.92953 -1.40469 0.296804 0 0 0.203471 0.063091 
-3.64094 3.07047 -1.14455 0.296804 0 0 0.203471 0.063091 
-3.64094 1.92953 -1.40469 0.296804 0 0 0.203471 0.063091 
-3.64094 3.07047 -1.40469 0.296804 0 0 0.203471 0.063091 
-3.64094 1.92953 -1.14455 0.148402 0.148402 0 0.203471 0.063091 
-3.07047 1.35906 -1.14455 0.148402 0.148402 0 0.203471 0.063091 
-3.07047 1.35906 -1.40469 0.148402 0.148402 0 0.203471 0.063091 
-3.64094 1.92953 -1.14455 0.148402 0.148402 0 0.203471 0.063091 
-3.07047 1.35906 -1.40469 0.148402 0.148402 0 0.203471 0.063091 
-3.64094 1.92953 -1.40469 0.148402 0.148402 0 0.203471 0.063091 
-3.07047 1.35906 -1.14455 -0 0.296804 0 0.203471 0.063091 
-1.92953 1.35906 -1.14455 -0 0.296804 0 0.203471 0.063091 
-1.92953 1.35906 -1.40469 -0 0.296804 0 0.203471 0.063091 
-3.07047 1.35906 -1.14455 0 0.296804 0 0.203471 0.063091 
-1.92953 1.35906 -1.40469 0 0.296804 0 0.203471 0.063091 
-3.07047 1.35906 -1.40469 0 0.296804 0 0.203471 0.063091 
-1.92953 1.35906 -1.14455 -0.148402 0.148402 0 0.203471 0.063091 
-1.35906 1.92953 -1.14455 -0.148402 0.148402 0 0.203471 0.063091 
-1.35906 1.92953 -1.40469 -0.148402 0.148402 0 0.203471 0.063091 
-1.92953 1.35906 -1.14455 -0.148402 0.148402 0 0.203471 0.063091 
-1.35906 1.92953 -1.40469 -0.148402 0.148402 0 0.203471 0.063091 
-1.92953 1.35906 -1.40469 -0.148402 0.148402 0 0.203471 0.063091 
-1.35906 1.92953 -1.14455 -0.296804 0 0 0.203471 0.063091 
-1.35906 3.07047 -1.14455 -0.296804 0 0 0.203471 0.063091 
-1.35906 3.07047 -1.40469 -0.296804 0 0 0.203471 0.063091 
-1.35906 1.92953 -1.14455 -0.296804 0 0 0.203471 0.063091 
-1.35906 3.07047 -1.40469 -0.296804 0 0 0.203471 0.063091 
-1.35906 1.92953 -1.40469 -0.296804 0 0 0.203471 0.063091 
-0.165493 3.79262 -0.082886 -0.196101 -0.196101 -0.264567 0.203471 0.063091 
-1.20738 4.83451 -0.082886 -0.196101 -0.196101 -0.264567 0.203471 0.063091 
-1.08041 4.96147 -0.271103 -0.196101 -0.196101 -0.264567 0.203471 0.063091 
-0.165493 3.79262 -0.082886 -0.1961 -0.1961 -0.264574 0.203471 0.063091 
-1.08041 4.96147 -0.271103 -0.1961 -0.1961 -0.264574 0.203471 0.063091 
-0.038525 3.91959 -0.271103 -0.1961 -0.1961 -0.264574 0.203471 0.063091 
-1.20738 4.83451 -0.082886 0.298587 -0.209856 0.0598561 0.203471 0.063091 
-1.67879 3.89168 -1.03687 0.298587 -0.209856 0.0598561 0.203471 0.063091 
-1.55182 4.01865 -1.22509 0.298587 -0.209856 0.0598561 0.203471 0.063091 
-1.20738 4.83451 -0.082886 0.298573 -0.209855 0.0598596 0.203471 0.063091 
-1.55182 4.01865 -1.22509 0.298573 -0.209855 0.0598596 0.203471 0.063091 
-1.08041 4.96147 -0.271103 0.298573 -0.209855 0.0598596 0.203471 0.063091 
-1.67879 3.89168 -1.03687 0.107374 0.107374 0.144865 0.203471 0.063091 
-1.10832 3.32121 -1.03687 0.107374 0.107374 0.144865 0.203471 0.063091 
-0.98135 3.44818 -1.22509 0.107374 0.107374 0.144865 0.203471 0.063091 
-1.67879 3.89168 -1.03687 0.107374 0.107374 0.144865 0.203471 0.063091 
-0.98135 3.44818 -1.22509 0.107374 0.107374 0.144865 0.203471 0.063091 
-1.55182 4.01865 -1.22509 0.107374 0.107374 0.144865 0.203471 0.063091 
-1.10832 3.32121 -1.03687 -0.209855 0.298582 0.0598568 0.203471 0.063091 
-0.165493 3.79262 -0.082886 -0.209855 0.298582 0.0598568 0.203471 0.063091 
-0.038525 3.91959 -0.271103 -0.209855 0.298582 0.0598568 0.203471 0.063091 
-1.10832 3.32121 -1.03687 -0.209857 0.298586 0.0598556 0.203471 0.063091 
-0.038525 3.91959 -0.271103 -0.209857 0.298586 0.0598556 0.203471 0.063091 
-0.98135 3.44818 -1.22509 -0.209857 0.298586 0.0598556 0.203471 0.063091 
-1.45811 4.92047 -0.080475 -0 -0.38104 -0.385539 0.203471 0.063091 
-3.54188 4.92047 -0.080475 -0 -0.38104 -0.385539 0.203471 0.063091 
-3.54188 5.10549 -0.263336 -0 -0.38104 -0.385539 0.203471 0.063091 
-1.45811 4.92047 -0.080475 0 -0.38104 -0.385539 0.203471 0.063091 
-3.54188 5.10549 -0.263336 0 -0.38104 -0.385539 0.203471 0.063091 
-1.45811 5.10549 -0.263336 0 -0.38104 -0.385539 0.203471 0.063091 
-3.54188 4.92047 -0.080475 0.348914 0.086202 0.0872203 0.203471 0.063091 
-3.07047 3.97764 -1.03447 0.348914 0.086202 0.0872203 0.203471 0.063091 
-3.07047 4.16266 -1.21733 0.348914 0.086202 0.0872203 0.203471 0.063091 
-3.54188 4.92047 -0.080475 0.348915 0.0862025 0.0872202 0.203471 0.063091 
-3.07047 4.16266 -1.21733 0.348915 0.0862025 0.0872202 0.203471 0.063091 
-3.54188 5.10549 -0.263336 0.348915 0.0862025 0.0872202 0.203471 0.063091 
-3.07047 3.97764 -1.03447 -0 0.208632 0.211097 0.203471 0.063091 
-1.92953 3.97764 -1.03447 -0 0.208632 0.211097 0.203471 0.063091 
-1.92953 4.16266 -1.21733 -0 0.208632 0.211097 0.203471 0.063091 
-3.07047 3.97764 -1.03447 0 0.208632 0.211097 0.203471 0.063091 
-1.92953 4.16266 -1.21733 0 0.208632 0.211097 0.203471 0.063091 
-3.07047 4.16266 -1.21733 0 0.208632 0.211097 0.203471 0.063091 
-1.92953 3.97764 -1.03447 -0.348915 0.0862043 0.0872221 0.203471 0.063091 
-1.45811 4.92047 -0.080475 -0.348915 0.0862043 0.0872221 0.203471 0.063091 
-1.45811 5.10549 -0.263336 -0.348915 0.0862043 0.0872221 0.203471 0.063091 
-1.92953 3.97764 -1.03447 -0.348914 0.0862039 0.0872222 0.203471 0.063091 
-1.45811 5.10549 -0.263336 -0.348914 0.0862039 0.0872222 0.203471 0.063091 
-1.92953 4.16266 -1.21733 -0.348914 0.0862039 0.0872222 0.203471 0.063091 
-3.79262 4.83451 -0.082886 0.196101 -0.196101 -0.264567 0.203471 0.063091 
-4.83451 3.79262 -0.082886 0.196101 -0.196101 -0.264567 0.203471 0.063091 
-4.96147 3.91959 -0.271103 0.196101 -0.196101 -0.264567 0.203471 0.063091 
-3.79262 4.83451 -0.082886 0.196101 -0.1961 -0.264577 0.203471 0.063091 
-4.96147 3.91959 -0.271103 0.196101 -0.1961 -0.264577 0.203471 0.063091 
-3.91959 4.96148 -0.271103 0.196101 -0.1961 -0.264577 0.203471 0.063091 
-4.83451 3.79262 -0.082886 0.209857 0.298588 0.0598562 0.203471 0.063091 
-3.89168 3.32121 -1.03688 0.209857 0.298588 0.0598562 0.203471 0.063091 
-4.01865 3.44818 -1.2251 0.209857 0.298588 0.0598562 0.203471 0.063091 
-4.83451 3.79262 -0.082886 0.209856 0.298575 0.0598596 0.203471 0.063091 
-4.01865 3.44818 -1.2251 0.209856 0.298575 0.0598596 0.203471 0.063091 
-4.96147 3.91959 -0.271103 0.209856 0.298575 0.0598596 0.203471 0.063091 
-3.89168 3.32121 -1.03688 -0.107374 0.107374 0.144865 0.203471 0.063091 
-3.32121 3.89168 -1.03688 -0.107374 0.107374 0.144865 0.203471 0.063091 
-3.44818 4.01865 -1.2251 -0.107374 0.107374 0.144865 0.203471 0.063091 
-3.89168 3.32121 -1.03688 -0.107374 0.107374 0.144865 0.203471 0.063091 
-3.44818 4.01865 -1.2251 -0.107374 0.107374 0.144865 0.203471 0.063091 
-4.01865 3.44818 -1.2251 -0.107374 0.107374 0.144865 0.203471 0.063091 
-3.32121 3.89168 -1.03688 -0.298586 -0.209856 0.0598561 0.203471 0.063091 
-3.79262 4.83451 -0.082886 -0.298586 -0.209856 0.0598561 0.203471 0.063091 
-3.91959 4.96148 -0.271103 -0.298586 -0.209856 0.0598561 0.203471 0.063091 
-3.32121 3.89168 -1.03688 -0.298589 -0.209858 0.0598562 0.203471 0.063091 
-3.91959 4.96148 -0.271103 -0.298589 -0.209858 0.0598562 0.203471 0.063091 
-3.44818 4.01865 -1.2251 -0.298589 -0.209858 0.0598562 0.203471 0.063091 
-4.92047 3.54188 -0.080475 0.381038 0 -0.385537 0.203471 0.063091 
-4.92047 1.45812 -0.080475 0.381038 0 -0.385537 0.203471 0.063091 
-5.10549 1.45812 -0.263336 0.381038 0 -0.385537 0.203471 0.063091 
-4.92047 3.54188 -0.080475 0.381038 0 -0.385537 0.203471 0.063091 
-5.10549 1.45812 -0.263336 0.381038 0 -0.385537 0.203471 0.063091 
-5.10549 3.54188 -0.263336 0.381038 0 -0.385537 0.203471 0.063091 
-4.92047 1.45812 -0.080475 -0.086202 0.348914 0.0872204 0.203471 0.063091 
-3.97764 1.92953 -1.03447 -0.086202 0.348914 0.0872204 0.203471 0.063091 
-4.16266 1.92953 -1.21733 -0.086202 0.348914 0.0872204 0.203471 0.063091 
-4.92047 1.45812 -0.080475 -0.0862025 0.348915 0.0872203 0.203471 0.063091 
-4.16266 1.92953 -1.21733 -0.0862025 0.348915 0.0872203 0.203471 0.063091 
-5.10549 1.45812 -0.263336 -0.0862025 0.348915 0.0872203 0.203471 0.063091 
-3.97764 1.92953 -1.03447 -0.208632 0 0.211097 0.203471 0.063091 
-3.97764 3.07047 -1.03447 -0.208632 0 0.211097 0.203471 0.063091 
-4.16266 3.07047 -1.21733 -0.208632 0 0.211097 0.203471 0.063091 
-3.97764 1.92953 -1.03447 -0.208632 0 0.211097 0.203471 0.063091 
-4.16266 3.07047 -1.21733 -0.208632 0 0.211097 0.203471 0.063091 
-4.16266 1.92953 -1.21733 -0.208632 0 0.211097 0.203471 0.063091 
-3.97764 3.07047 -1.03447 -0.0862025 -0.348915 0.0872203 0.203471 0.063091 
-4.92047 3.54188 -0.080475 -0.0862025 -0.348915 0.0872203 0.203471 0.063091 
-5.10549 3.54188 -0.263336 -0.0862025 -0.348915 0.0872203 0.203471 0.063091 
-3.97764 3.07047 -1.03447 -0.086202 -0.348914 0.0872203 0.203471 0.063091 
-5.10549 3.54188 -0.263336 -0.086202 -0.348914 0.0872203 0.203471 0.063091 
-4.16266 3.07047 -1.21733 -0.086202 -0.348914 0.0872203 0.203471 0.063091 
-4.83451 1.20738 -0.082878 0.1961 0.196102 -0.264573 0.203471 0.063091 
-3.79262 0.165491 -0.082886 0.1961 0.196102 -0.264573 0.203471 0.063091 
-3.91959 0.038525 -0.271103 0.1961 0.196102 -0.264573 0.203471 0.063091 
-4.83451 1.20738 -0.082878 0.196099 0.196101 -0.264566 0.203471 0.063091 
-3.91959 0.038525 -0.271103 0.196099 0.196101 -0.264566 0.203471 0.063091 
-4.96147 1.08041 -0.271095 0.196099 0.196101 -0.264566 0.203471 0.063091 
-3.79262 0.165491 -0.082886 -0.298585 0.209856 0.059857 0.203471 0.063091 
-3.32121 1.10832 -1.03687 -0.298585 0.209856 0.059857 0.203471 0.063091 
-3.44818 0.981352 -1.22509 -0.298585 0.209856 0.059857 0.203471 0.063091 
-3.79262 0.165491 -0.082886 -0.29858 0.209855 0.0598577 0.203471 0.063091 
-3.44818 0.981352 -1.22509 -0.29858 0.209855 0.0598577 0.203471 0.063091 
-3.91959 0.038525 -0.271103 -0.29858 0.209855 0.0598577 0.203471 0.063091 
-3.32121 1.10832 -1.03687 -0.107374 -0.107374 0.144865 0.203471 0.063091 
-3.89168 1.67879 -1.03687 -0.107374 -0.107374 0.144865 0.203471 0.063091 
-4.01865 1.55182 -1.22509 -0.107374 -0.107374 0.144865 0.203471 0.063091 
-3.32121 1.10832 -1.03687 -0.107374 -0.107374 0.144864 0.203471 0.063091 
-4.01865 1.55182 -1.22509 -0.107374 -0.107374 0.144864 0.203471 0.063091 
-3.44818 0.981352 -1.22509 -0.107374 -0.107374 0.144864 0.203471 0.063091 
-3.89168 1.67879 -1.03687 0.209856 -0.298576 0.0598608 0.203471 0.063091 
-4.83451 1.20738 -0.082878 0.209856 -0.298576 0.0598608 0.203471 0.063091 
-4.96147 1.08041 -0.271095 0.209856 -0.298576 0.0598608 0.203471 0.063091 
-3.89168 1.67879 -1.03687 0.209857 -0.298586 0.0598548 0.203471 0.063091 
-4.96147 1.08041 -0.271095 0.209857 -0.298586 0.0598548 0.203471 0.063091 
-4.01865 1.55182 -1.22509 0.209857 -0.298586 0.0598548 0.203471 0.063091 
-3.54188 0.079534 -0.080475 0 0.38104 -0.385543 0.203471 0.063091 
-1.45811 0.079534 -0.080475 0 0.38104 -0.385543 0.203471 0.063091 
-1.45811 -0.105488 -0.263336 0 0.38104 -0.385543 0.203471 0.063091 
-3.54188 0.079534 -0.080475 0 0.38104 -0.385543 0.203471 0.063091 
-1.45811 -0.105488 -0.263336 0 0.38104 -0.385543 0.203471 0.063091 
-3.54188 -0.105488 -0.263336 0 0.38104 -0.385543 0.203471 0.063091 
-1.45811 0.079534 -0.080475 -0.348914 -0.0862039 0.0872226 0.203471 0.063091 
-1.92953 1.02236 -1.03447 -0.348914 -0.0862039 0.0872226 0.203471 0.063091 
-1.92953 0.837339 -1.21733 -0.348914 -0.0862039 0.0872226 0.203471 0.063091 
-1.45811 0.079534 -0.080475 -0.348916 -0.0862043 0.0872231 0.203471 0.063091 
-1.92953 0.837339 -1.21733 -0.348916 -0.0862043 0.0872231 0.203471 0.063091 
-1.45811 -0.105488 -0.263336 -0.348916 -0.0862043 0.0872231 0.203471 0.063091 
-1.92953 1.02236 -1.03447 0 -0.208632 0.211098 0.203471 0.063091 
-3.07047 1.02236 -1.03447 0 -0.208632 0.211098 0.203471 0.063091 
-3.07047 0.837339 -1.21733 0 -0.208632 0.211098 0.203471 0.063091 
-1.92953 1.02236 -1.03447 0 -0.208632 0.211098 0.203471 0.063091 
-3.07047 0.837339 -1.21733 0 -0.208632 0.211098 0.203471 0.063091 
-1.92953 0.837339 -1.21733 0 -0.208632 0.211098 0.203471 0.063091 
-3.07047 1.02236 -1.03447 0.348916 -0.0862025 0.0872211 0.203471 0.063091 
-3.54188 0.079534 -0.080475 0.348916 -0.0862025 0.0872211 0.203471 0.063091 
-3.54188 -0.105488 -0.263336 0.348916 -0.0862025 0.0872211 0.203471 0.063091 
-3.07047 1.02236 -1.03447 0.348914 -0.086202 0.0872207 0.203471 0.063091 
-3.54188 -0.105488 -0.263336 0.348914 -0.086202 0.0872207 0.203471 0.063091 
-3.07047 0.837339 -1.21733 0.348914 -0.086202 0.0872207 0.203471 0.063091 
-1.20738 0.165492 -0.082886 -0.196101 0.196101 -0.264575 0.203471 0.063091 
-0.165493 1.20738 -0.082886 -0.196101 0.196101 -0.264575 0.203471 0.063091 
-0.038525 1.08041 -0.271103 -0.196101 0.196101 -0.264575 0.203471 0.063091 
-1.20738 0.165492 -0.082886 -0.196101 0.1961 -0.264576 0.203471 0.063091 
-0.038525 1.08041 -0.271103 -0.196101 0.1961 -0.264576 0.203471 0.063091 
-1.08041 0.038523 -0.271103 -0.196101 0.1961 -0.264576 0.203471 0.063091 
-0.165493 1.20738 -0.082886 -0.209857 -0.298588 0.0598558 0.203471 0.063091 
-1.10832 1.67879 -1.03688 -0.209857 -0.298588 0.0598558 0.203471 0.063091 
-0.98135 1.55182 -1.2251 -0.209857 -0.298588 0.0598558 0.203471 0.063091 
-0.165493 1.20738 -0.082886 -0.209856 -0.298583 0.0598566 0.203471 0.063091 
-0.98135 1.55182 -1.2251 -0.209856 -0.298583 0.0598566 0.203471 0.063091 
-0.038525 1.08041 -0.271103 -0.209856 -0.298583 0.0598566 0.203471 0.063091 
-1.10832 1.67879 -1.03688 0.107374 -0.107374 0.144865 0.203471 0.063091 
-1.67879 1.10832 -1.03688 0.107374 -0.107374 0.144865 0.203471 0.063091 
-1.55182 0.981351 -1.2251 0.107374 -0.107374 0.144865 0.203471 0.063091 
-1.10832 1.67879 -1.03688 0.107374 -0.107374 0.144865 0.203471 0.063091 
-1.55182 0.981351 -1.2251 0.107374 -0.107374 0.144865 0.203471 0.063091 
-0.98135 1.55182 -1.2251 0.107374 -0.107374 0.144865 0.203471 0.063091 
-1.67879 1.10832 -1.03688 0.298584 0.209856 0.0598565 0.203471 0.063091 
-1.20738 0.165492 -0.082886 0.298584 0.209856 0.0598565 0.203471 0.063091 
-1.08041 0.038523 -0.271103 0.298584 0.209856 0.0598565 0.203471 0.063091 
-1.67879 1.10832 -1.03688 0.298587 0.209858 0.0598564 0.203471 0.063091 
-1.08041 0.038523 -0.271103 0.298587 0.209858 0.0598564 0.203471 0.063091 
-1.55182 0.981351 -1.2251 0.298587 0.209858 0.0598564 0.203471 0.063091 
-0.079533 1.45812 -0.080475 -0.381038 0 -0.385539 0.203471 0.063091 
-0.079533 3.54188 -0.080475 -0.381038 0 -0.385539 0.203471 0.063091 
0.105488 3.54188 -0.263336 -0.381038 0 -0.385539 0.203471 0.063091 
-0.079533 1.45812 -0.080475 -0.381038 0 -0.385539 0.203471 0.063091 
0.105488 3.54188 -0.263336 -0.381038 0 -0.385539 0.203471 0.063091 
0.105488 1.45812 -0.263336 -0.381038 0 -0.385539 0.203471 0.063091 
-0.079533 3.54188 -0.080475 0.086202 -0.348913 0.0872197 0.203471 0.063091 
-1.02236 3.07047 -1.03447 0.086202 -0.348913 0.0872197 0.203471 0.063091 
-0.837341 3.07047 -1.21733 0.086202 -0.348913 0.0872197 0.203471 0.063091 
-0.079533 3.54188 -0.080475 0.0862025 -0.348916 0.0872207 0.203471 0.063091 
-0.837341 3.07047 -1.21733 0.0862025 -0.348916 0.0872207 0.203471 0.063091 
0.105488 3.54188 -0.263336 0.0862025 -0.348916 0.0872207 0.203471 0.063091 
-1.02236 3.07047 -1.03447 0.208632 0 0.211096 0.203471 0.063091 
-1.02236 1.92953 -1.03447 0.208632 0 0.211096 0.203471 0.063091 
-0.837341 1.92953 -1.21733 0.208632 0 0.211096 0.203471 0.063091 
-1.02236 3.07047 -1.03447 0.208632 0 0.211096 0.203471 0.063091 
-0.837341 1.92953 -1.21733 0.208632 0 0.211096 0.203471 0.063091 
-0.837341 3.07047 -1.21733 0.208632 0 0.211096 0.203471 0.063091 
-1.02236 1.92953 -1.03447 0.0862025 0.348915 0.0872207 0.203471 0.063091 
-0.079533 1.45812 -0.080475 0.0862025 0.348915 0.0872207 0.203471 0.063091 
0.105488 1.45812 -0.263336 0.0862025 0.348915 0.0872207 0.203471 0.063091 
-1.02236 1.92953 -1.03447 0.086202 0.348913 0.0872198 0.203471 0.063091 
0.105488 1.45812 -0.263336 0.086202 0.348913 0.0872198 0.203471 0.063091 
-0.837341 1.92953 -1.21733 0.086202 0.348913 0.0872198 0.203471 0.063091 
3 0 1 2
3 3 4 5
3 6 7 8
3 9 10 11
3 12 13 14
3 15 16 17
3 18 19 20
3 21 22 23
3 24 25 26
3 27 28 29
3 30 31 32
3 33 34 35
3 36 37 38
3 39 40 41
3 42 43 44
3 45 46 47
3 48 49 50
3 51 52 53
3 54 55 56
3 57 58 59
3 60 61 62
3 63 64 65
3 66 67 68
3 69 70 71
3 72 73 74
3 75 76 77
3 78 79 80
3 81 82 83
3 84 85 86
3 87 88 89
3 90 91 92
3 93 94 95
3 96 97 98
3 99 100 101
3 102 103 104
3 105 106 107
3 108 109 110
3 111 112 113
3 114 115 116
3 117 118 119
3 120 121 122
3 123 124 125
3 126 127 128
3 129 130 131
3 132 133 134
3 135 136 137
3 138 139 140
3 141 142 143
3 144 145 146
3 147 148 149
3 150 151 152
3 153 154 155
3 156 157 158
3 159 160 161
3 162 163 164
3 165 166 167
3 168 169 170
3 171 172 173
3 174 175 176
3 177 178 179
3 180 181 182
3 183 184 185
3 186 187 188
3 189 190 191
3 192 193 194
3 195 196 197
3 198 199 200
3 201 202 203
3 204 205 206
3 207 208 209
3 210 211 212
3 213 214 215
3 216 217 218
3 219 220 221
3 222 223 224
3 225 226 227
3 228 229 230
3 231 232 233
3 234 235 236
3 237 238 239
3 240 241 242
3 243 244 245
3 246 247 248
3 249 250 251
3 252 253 254
3 255 256 257
3 258 259 260
3 261 262 263
3 264 265 266
3 267 268 269
3 270 271 272
3 273 274 275
3 276 277 278
3 279 280 281
3 282 283 284
3 285 286 287
3 288 289 290
3 291 292 293
3 294 295 296
3 297 298 299
3 300 301 302
3 303 304 305
3 306 307 308
3 309 310 311
3 312 313 314
3 315 316 317
3 318 319 320
3 321 322 323
3 324 325 326
3 327 328 329
3 330 331 332
3 333 334 335
3 336 337 338
3 339 340 341
3 342 343 344
3 345 346 347
3 348 349 350
3 351 352 353
3 354 355 356
3 357 358 359
3 360 361 362
3 363 364 365
3 366 367 368
3 369 370 371
3 372 373 374
3 375 376 377
3 378 379 380
3 381 382 383
3 384 385 386
3 387 388 389
3 390 391 392
3 393 394 395
3 396 397 398
3 399 400 401
3 402 403 404
3 405 406 407
3 408 409 410
3 411 412 413
3 414 415 416
3 417 418 419
3 420 421 422
3 423 424 425
3 426 427 428
3 429 430 431
3 432 433 434
3 435 436 437
3 438 439 440
3 441 442 443
3 444 445 446
3 447 448 449
3 450 451 452
3 453 454 455
3 456 457 458
3 459 460 461
3 462 463 464
3 465 466 467
3 468 469 470
3 471 472 473
3 474 475 476
3 477 478 479
