ply
format ascii 1.0
comment Feeney's Flatenator generated
comment TextureFile SpaceInteriors_Texture.png
element vertex 84
property float x
property float y
property float z
property float nx
property float ny
property float nz
property float texture_u
property float texture_v
element face 28
property list uchar int vertex_indices
end_header
-4.39213 4.55606 -0.191959 -1.31503e-06 0.0160566 7.77664 0.508373 0.99223 
-4.39213 0.445569 -0.183472 -1.31503e-06 0.0160566 7.77664 0.508373 0.673177 
-2.50023 0.445724 -0.183472 -1.31503e-06 0.0160566 7.77664 0.750568 0.673177 
-4.39213 4.55606 -0.191959 -0.0348857 0 7.77663 0.508373 0.99223 
-2.50023 0.445724 -0.183472 -0.0348857 0 7.77663 0.750568 0.673177 
-2.50023 4.55621 -0.183472 -0.0348857 0 7.77663 0.750568 0.99223 
-2.50023 4.55621 -0.183472 -1.64153e-05 0 7.7766 0.750818 0.992154 
-2.50023 0.445724 -0.183472 -1.64153e-05 0 7.7766 0.750818 0.703764 
-0.608336 0.44588 -0.183468 -1.64153e-05 0 7.7766 0.993013 0.703764 
-2.50023 4.55621 -0.183472 -0.0349049 -0.0160584 7.77661 0.750818 0.992154 
-0.608336 0.44588 -0.183468 -0.0349049 -0.0160584 7.77661 0.993013 0.703764 
-0.608336 4.55637 -0.17498 -0.0349049 -0.0160584 7.77661 0.993013 0.992154 
-0.608624 4.55621 0 0 0 2.50173 0.650415 0.623353 
-0.608624 0.445724 0 0 0 2.50173 0.650415 0.623353 
-2e-06 0 0 0 0 2.50173 0.650415 0.623353 
-0.608624 4.55621 0 -0 0 3.04311 0.650415 0.623353 
-2e-06 0 0 -0 0 3.04311 0.650415 0.623353 
-2e-06 5 0 -0 0 3.04311 0.650415 0.623353 
-2.50052 0.445724 0 0 0 0.843265 0.650415 0.623353 
-4.39242 0.445724 0 0 0 0.843265 0.650414 0.623353 
-5 0 0 0 0 0.843265 0.650414 0.623353 
-2.50052 0.445724 0 0 0 1.11406 0.650415 0.623353 
-5 0 0 0 0 1.11406 0.650414 0.623353 
-2.50055 0 0 0 0 1.11406 0.650415 0.623353 
-4.39242 4.55621 0 0 0 0.839606 0.650414 0.623353 
-2.50052 4.55621 0 0 0 0.839606 0.650415 0.623353 
-2.50055 5 0 0 0 0.839606 0.650415 0.623353 
-4.39242 4.55621 0 0 -0 1.10923 0.650414 0.623353 
-2.50055 5 0 0 -0 1.10923 0.650415 0.623353 
-5 5 0 0 -0 1.10923 0.650414 0.623353 
-4.39242 0.445724 0 0 -0 2.49745 0.650414 0.623353 
-4.39242 4.55621 0 0 -0 2.49745 0.650414 0.623353 
-5 5 0 0 -0 2.49745 0.650414 0.623353 
-4.39242 0.445724 0 0 0 3.0379 0.650414 0.623353 
-5 5 0 0 0 3.0379 0.650414 0.623353 
-5 0 0 0 0 3.0379 0.650414 0.623353 
-0.608624 0.445724 0 0 0 0.843263 0.650415 0.623353 
-2.50052 0.445724 0 0 0 0.843263 0.650415 0.623353 
-2.50055 0 0 0 0 0.843263 0.650415 0.623353 
-0.608624 0.445724 0 0 0 1.11455 0.650415 0.623353 
-2.50055 0 0 0 0 1.11455 0.650415 0.623353 
-2e-06 0 0 0 0 1.11455 0.650415 0.623353 
-2.50052 4.55621 0 0 0 0.839604 0.650415 0.623353 
-0.608624 4.55621 0 0 0 0.839604 0.650415 0.623353 
-2e-06 5 0 0 0 0.839604 0.650415 0.623353 
-2.50052 4.55621 0 0 -0 1.10972 0.650415 0.623353 
-2e-06 5 0 0 -0 1.10972 0.650415 0.623353 
-2.50055 5 0 0 -0 1.10972 0.650415 0.623353 
-4.39242 4.55621 0 0.754159 0 0.0011917 0.265223 0.061378 
-4.39242 0.445724 0 0.754159 0 0.0011917 0.265223 0.061378 
-4.39213 0.445569 -0.183472 0.754159 0 0.0011917 0.265223 0.061378 
-4.39242 4.55621 0 0.789047 2.46053e-06 0.0011917 0.265223 0.061378 
-4.39213 0.445569 -0.183472 0.789047 2.46053e-06 0.0011917 0.265223 0.061378 
-4.39213 4.55606 -0.191959 0.789047 2.46053e-06 0.0011917 0.265223 0.061378 
-4.39242 0.445724 0 -0 0.347111 0 0.35185 0.060391 
-2.50052 0.445724 0 -0 0.347111 0 0.35185 0.060391 
-2.50023 0.445724 -0.183472 -0 0.347111 0 0.35185 0.060391 
-4.39242 0.445724 0 -2.84385e-05 0.347111 -0.000293293 0.35185 0.060391 
-2.50023 0.445724 -0.183472 -2.84385e-05 0.347111 -0.000293293 0.35185 0.060391 
-4.39213 0.445569 -0.183472 -2.84385e-05 0.347111 -0.000293293 0.35185 0.060391 
-2.50052 4.55621 0 0 -0.363167 0.00028417 0.235964 0.061378 
-4.39242 4.55621 0 0 -0.363167 0.00028417 0.235963 0.061378 
-4.39213 4.55606 -0.191959 0 -0.363167 0.00028417 0.235963 0.061378 
-2.50052 4.55621 0 2.75582e-05 -0.347113 4.35466e-08 0.235964 0.061378 
-4.39213 4.55606 -0.191959 2.75582e-05 -0.347113 4.35466e-08 0.235963 0.061378 
-2.50023 4.55621 -0.183472 2.75582e-05 -0.347113 4.35466e-08 0.235964 0.061378 
-2.50052 0.445724 0 -0 0.347102 0.000295108 0.35185 0.060391 
-0.608624 0.445724 0 -0 0.347102 0.000295108 0.35185 0.060391 
-0.608336 0.44588 -0.183468 -0 0.347102 0.000295108 0.35185 0.060391 
-2.50052 0.445724 0 -2.86189e-05 0.34711 -4.52228e-08 0.35185 0.060391 
-0.608336 0.44588 -0.183468 -2.86189e-05 0.34711 -4.52228e-08 0.35185 0.060391 
-2.50023 0.445724 -0.183472 -2.86189e-05 0.34711 -4.52228e-08 0.35185 0.060391 
-0.608624 0.445724 0 -0.719253 0 -0.00118386 0.265223 0.061378 
-0.608624 4.55621 0 -0.719253 0 -0.00118386 0.265223 0.061378 
-0.608336 4.55637 -0.17498 -0.719253 0 -0.00118386 0.265223 0.061378 
-0.608624 0.445724 0 -0.754145 2.44463e-06 -0.00118386 0.265223 0.061378 
-0.608336 4.55637 -0.17498 -0.754145 2.44463e-06 -0.00118386 0.265223 0.061378 
-0.608336 0.44588 -0.183468 -0.754145 2.44463e-06 -0.00118386 0.265223 0.061378 
-0.608624 4.55621 0 -0 -0.34711 0 0.235964 0.061378 
-2.50052 4.55621 0 -0 -0.34711 0 0.235964 0.061378 
-2.50023 4.55621 -0.183472 -0 -0.34711 0 0.235964 0.061378 
-0.608624 4.55621 0 2.93079e-05 -0.331046 -0.000302166 0.235964 0.061378 
-2.50023 4.55621 -0.183472 2.93079e-05 -0.331046 -0.000302166 0.235964 0.061378 
-0.608336 4.55637 -0.17498 2.93079e-05 -0.331046 -0.000302166 0.235964 0.061378 
3 0 1 2
3 3 4 5
3 6 7 8
3 9 10 11
3 12 13 14
3 15 16 17
3 18 19 20
3 21 22 23
3 24 25 26
3 27 28 29
3 30 31 32
3 33 34 35
3 36 37 38
3 39 40 41
3 42 43 44
3 45 46 47
3 48 49 50
3 51 52 53
3 54 55 56
3 57 58 59
3 60 61 62
3 63 64 65
3 66 67 68
3 69 70 71
3 72 73 74
3 75 76 77
3 78 79 80
3 81 82 83
