ply
format ascii 1.0
comment Feeney's Flatenator generated
comment TextureFile SpaceInteriors_Texture.png
element vertex 84
property float x
property float y
property float z
property float nx
property float ny
property float nz
property float texture_u
property float texture_v
element face 28
property list uchar int vertex_indices
end_header
-1.09027 -0.073023 -0.277649 0 0 -0.147383 0.890431 0.388195 
1.09027 -0.073023 -0.277649 0 0 -0.147383 0.890431 0.388195 
1.09027 -0.140613 -0.277649 0 0 -0.147383 0.890431 0.388195 
-1.09027 -0.073023 -0.277649 0 0 -0.147383 0.890431 0.388195 
1.09027 -0.140613 -0.277649 0 0 -0.147383 0.890431 0.388195 
-1.09027 -0.140613 -0.277649 0 0 -0.147383 0.890431 0.388195 
-1.09027 -0.140613 -0.277649 0 -1.21085 0 0.890431 0.388195 
1.09027 -0.140613 -0.277649 0 -1.21085 0 0.890431 0.388195 
1.09027 -0.140613 0.277649 0 -1.21085 0 0.890431 0.388195 
-1.09027 -0.140613 -0.277649 0 -1.21085 0 0.890431 0.388195 
1.09027 -0.140613 0.277649 0 -1.21085 0 0.890431 0.388195 
-1.09027 -0.140613 0.277649 0 -1.21085 0 0.890431 0.388195 
-1.09027 -0.140613 0.277649 0 0 0.147383 0.890431 0.388195 
1.09027 -0.140613 0.277649 0 0 0.147383 0.890431 0.388195 
1.09027 -0.073023 0.277649 0 0 0.147383 0.890431 0.388195 
-1.09027 -0.140613 0.277649 0 0 0.147383 0.890431 0.388195 
1.09027 -0.073023 0.277649 0 0 0.147383 0.890431 0.388195 
-1.09027 -0.073023 0.277649 0 0 0.147383 0.890431 0.388195 
-1.24803 0 0.42005 -0 2.09694 0 0.291756 0.061543 
1.24803 0 0.42005 -0 2.09694 0 0.291756 0.061543 
1.24803 0 -0.42005 -0 2.09694 0 0.291756 0.061543 
-1.24803 0 0.42005 0 2.09694 0 0.291756 0.061543 
1.24803 0 -0.42005 0 2.09694 0 0.291756 0.061543 
-1.24803 0 -0.42005 0 2.09694 0 0.291756 0.061543 
1.09027 -0.073023 -0.277649 0.0375326 0 -0 0.890431 0.388195 
1.09027 -0.073023 0.277649 0.0375326 0 -0 0.890431 0.388195 
1.09027 -0.140613 0.277649 0.0375326 0 -0 0.890431 0.388195 
1.09027 -0.073023 -0.277649 0.0375326 0 0 0.890431 0.388195 
1.09027 -0.140613 0.277649 0.0375326 0 0 0.890431 0.388195 
1.09027 -0.140613 -0.277649 0.0375326 0 0 0.890431 0.388195 
-1.09027 -0.073023 0.277649 -0.0375326 0 -0 0.890431 0.388195 
-1.09027 -0.073023 -0.277649 -0.0375326 0 -0 0.890431 0.388195 
-1.09027 -0.140613 -0.277649 -0.0375326 0 -0 0.890431 0.388195 
-1.09027 -0.073023 0.277649 -0.0375326 -0 0 0.890431 0.388195 
-1.09027 -0.140613 -0.277649 -0.0375326 -0 0 0.890431 0.388195 
-1.09027 -0.140613 0.277649 -0.0375326 -0 0 0.890431 0.388195 
-1.09027 -0.073023 0.277649 0 -0.310511 0 0.291756 0.061543 
1.09027 -0.073023 0.277649 0 -0.310511 0 0.291756 0.061543 
1.24803 -0.073023 0.42005 0 -0.310511 0 0.291756 0.061543 
-1.09027 -0.073023 0.277649 0 -0.355441 0 0.291756 0.061543 
1.24803 -0.073023 0.42005 0 -0.355441 0 0.291756 0.061543 
-1.24803 -0.073023 0.42005 0 -0.355441 0 0.291756 0.061543 
1.09027 -0.073023 0.277649 0 -0.0876038 0 0.291756 0.061543 
1.09027 -0.073023 -0.277649 0 -0.0876038 0 0.291756 0.061543 
1.24803 -0.073023 -0.42005 0 -0.0876038 0 0.291756 0.061543 
1.09027 -0.073023 0.277649 0 -0.132534 0 0.291756 0.061543 
1.24803 -0.073023 -0.42005 0 -0.132534 0 0.291756 0.061543 
1.24803 -0.073023 0.42005 0 -0.132534 0 0.291756 0.061543 
1.09027 -0.073023 -0.277649 -0 -0.310511 0 0.291756 0.061543 
-1.09027 -0.073023 -0.277649 -0 -0.310511 0 0.291756 0.061543 
-1.24803 -0.073023 -0.42005 -0 -0.310511 0 0.291756 0.061543 
1.09027 -0.073023 -0.277649 0 -0.355441 -0 0.291756 0.061543 
-1.24803 -0.073023 -0.42005 0 -0.355441 -0 0.291756 0.061543 
1.24803 -0.073023 -0.42005 0 -0.355441 -0 0.291756 0.061543 
-1.09027 -0.073023 -0.277649 0 -0.0876038 0 0.291756 0.061543 
-1.09027 -0.073023 0.277649 0 -0.0876038 0 0.291756 0.061543 
-1.24803 -0.073023 0.42005 0 -0.0876038 0 0.291756 0.061543 
-1.09027 -0.073023 -0.277649 -0 -0.132534 0 0.291756 0.061543 
-1.24803 -0.073023 0.42005 -0 -0.132534 0 0.291756 0.061543 
-1.24803 -0.073023 -0.42005 -0 -0.132534 0 0.291756 0.061543 
-1.24803 -0.073023 0.42005 0 0 0.18227 0.236584 0.062269 
1.24803 -0.073023 0.42005 0 0 0.18227 0.236584 0.062269 
1.24803 0 0.42005 0 0 0.18227 0.236584 0.062269 
-1.24803 -0.073023 0.42005 0 0 0.18227 0.236584 0.062269 
1.24803 0 0.42005 0 0 0.18227 0.236584 0.062269 
-1.24803 0 0.42005 0 0 0.18227 0.236584 0.062269 
1.24803 -0.073023 0.42005 0.0613466 0 0 0.236584 0.062269 
1.24803 -0.073023 -0.42005 0.0613466 0 0 0.236584 0.062269 
1.24803 0 -0.42005 0.0613466 0 0 0.236584 0.062269 
1.24803 -0.073023 0.42005 0.0613466 -0 0 0.236584 0.062269 
1.24803 0 -0.42005 0.0613466 -0 0 0.236584 0.062269 
1.24803 0 0.42005 0.0613466 -0 0 0.236584 0.062269 
1.24803 -0.073023 -0.42005 0 0 -0.18227 0.236584 0.062269 
-1.24803 -0.073023 -0.42005 0 0 -0.18227 0.236584 0.062269 
-1.24803 0 -0.42005 0 0 -0.18227 0.236584 0.062269 
1.24803 -0.073023 -0.42005 0 0 -0.18227 0.236584 0.062269 
-1.24803 0 -0.42005 0 0 -0.18227 0.236584 0.062269 
1.24803 0 -0.42005 0 0 -0.18227 0.236584 0.062269 
-1.24803 -0.073023 -0.42005 -0.0613466 0 0 0.236584 0.062269 
-1.24803 -0.073023 0.42005 -0.0613466 0 0 0.236584 0.062269 
-1.24803 0 0.42005 -0.0613466 0 0 0.236584 0.062269 
-1.24803 -0.073023 -0.42005 -0.0613466 0 0 0.236584 0.062269 
-1.24803 0 0.42005 -0.0613466 0 0 0.236584 0.062269 
-1.24803 0 -0.42005 -0.0613466 0 0 0.236584 0.062269 
3 0 1 2
3 3 4 5
3 6 7 8
3 9 10 11
3 12 13 14
3 15 16 17
3 18 19 20
3 21 22 23
3 24 25 26
3 27 28 29
3 30 31 32
3 33 34 35
3 36 37 38
3 39 40 41
3 42 43 44
3 45 46 47
3 48 49 50
3 51 52 53
3 54 55 56
3 57 58 59
3 60 61 62
3 63 64 65
3 66 67 68
3 69 70 71
3 72 73 74
3 75 76 77
3 78 79 80
3 81 82 83
