ply
format ascii 1.0
comment Feeney's Flatenator generated
comment TextureFile SpaceInteriors_Texture.png
element vertex 606
property float x
property float y
property float z
property float nx
property float ny
property float nz
property uchar red
property uchar green
property uchar blue
property uchar alpha
property float texture_u
property float texture_v
element face 202
property list uchar int vertex_indices
end_header
-3.75425 3.20601 0 -0 0.464989 0 125 121 118 255 0.300052 0.061667 
-2.5 3.20601 0 -0 0.464989 0 125 121 118 255 0.300052 0.061667 
-2.5 3.20601 -0.370731 -0 0.464989 0 125 121 118 255 0.300052 0.061667 
-3.75425 3.20601 0 0 0.464989 0 125 121 118 255 0.300052 0.061667 
-2.5 3.20601 -0.370731 0 0.464989 0 125 121 118 255 0.300052 0.061667 
-3.75425 3.20601 -0.370731 0 0.464989 0 125 121 118 255 0.300052 0.061667 
-3.75425 1.99992 -0.370731 0 -0.464989 0 75 72 70 255 0.200168 0.061667 
-2.5 1.99992 -0.370731 0 -0.464989 0 75 72 70 255 0.200168 0.061667 
-2.5 1.99992 0 0 -0.464989 0 75 72 70 255 0.200168 0.061667 
-3.75425 1.99992 -0.370731 0 -0.464989 0 75 72 70 255 0.200168 0.061667 
-2.5 1.99992 0 0 -0.464989 0 75 72 70 255 0.200168 0.061667 
-3.75425 1.99992 0 0 -0.464989 0 75 72 70 255 0.200168 0.061667 
-2.5 1.99992 0 0.447135 0 0 91 88 86 255 0.233148 0.061667 
-2.5 1.99992 -0.370731 0.447135 0 0 91 88 86 255 0.233148 0.061667 
-2.5 3.20601 -0.370731 0.447135 0 0 91 88 86 255 0.233148 0.061667 
-2.5 1.99992 0 0.447135 -0 0 91 88 86 255 0.233148 0.061667 
-2.5 3.20601 -0.370731 0.447135 -0 0 91 88 86 255 0.233148 0.061667 
-2.5 3.20601 0 0.447135 -0 0 91 88 86 255 0.233148 0.061667 
-3.75425 1.99992 -0.370731 -0.447135 0 0 91 88 86 255 0.233148 0.061667 
-3.75425 1.99992 0 -0.447135 0 0 91 88 86 255 0.233148 0.061667 
-3.75425 3.20601 0 -0.447135 0 0 91 88 86 255 0.233148 0.061667 
-3.75425 1.99992 -0.370731 -0.447135 0 0 91 88 86 255 0.233148 0.061667 
-3.75425 3.20601 0 -0.447135 0 0 91 88 86 255 0.233148 0.061667 
-3.75425 3.20601 -0.370731 -0.447135 0 0 91 88 86 255 0.233148 0.061667 
-3.75425 1.99992 0 0 0 0.135998 108 105 102 255 0.265187 0.061667 
-2.5 1.99992 0 0 0 0.135998 108 105 102 255 0.265187 0.061667 
-2.61276 2.10835 0 0 0 0.135998 108 105 102 255 0.265187 0.061667 
-3.75425 1.99992 0 0 0 0.111545 108 105 102 255 0.265187 0.061667 
-2.61276 2.10835 0 0 0 0.111545 108 105 102 255 0.265187 0.061667 
-3.64149 2.10835 0 0 0 0.111545 108 105 102 255 0.265187 0.061667 
-2.5 1.99992 0 0 -0 0.135999 108 105 102 255 0.265187 0.061667 
-2.5 3.20601 0 0 -0 0.135999 108 105 102 255 0.265187 0.061667 
-2.61276 3.09758 0 0 -0 0.135999 108 105 102 255 0.265187 0.061667 
-2.5 1.99992 0 0 0 0.111546 108 105 102 255 0.265187 0.061667 
-2.61276 3.09758 0 0 0 0.111546 108 105 102 255 0.265187 0.061667 
-2.61276 2.10835 0 0 0 0.111546 108 105 102 255 0.265187 0.061667 
-2.5 3.20601 0 0 0 0.135999 108 105 102 255 0.265187 0.061667 
-3.75425 3.20601 0 0 0 0.135999 108 105 102 255 0.265187 0.061667 
-3.64149 3.09758 0 0 0 0.135999 108 105 102 255 0.265187 0.061667 
-2.5 3.20601 0 0 0 0.111545 108 105 102 255 0.265187 0.061667 
-3.64149 3.09758 0 0 0 0.111545 108 105 102 255 0.265187 0.061667 
-2.61276 3.09758 0 0 0 0.111545 108 105 102 255 0.265187 0.061667 
-3.75425 3.20601 0 0 0 0.135999 108 105 102 255 0.265187 0.061667 
-3.75425 1.99992 0 0 0 0.135999 108 105 102 255 0.265187 0.061667 
-3.64149 2.10835 0 0 0 0.135999 108 105 102 255 0.265187 0.061667 
-3.75425 3.20601 0 0 0 0.111546 108 105 102 255 0.265187 0.061667 
-3.64149 2.10835 0 0 0 0.111546 108 105 102 255 0.265187 0.061667 
-3.64149 3.09758 0 0 0 0.111546 108 105 102 255 0.265187 0.061667 
-3.75425 3.20601 -0.370731 0 0 -0.135999 108 105 102 255 0.265187 0.061667 
-2.5 3.20601 -0.370731 0 0 -0.135999 108 105 102 255 0.265187 0.061667 
-2.61276 3.09758 -0.370731 0 0 -0.135999 108 105 102 255 0.265187 0.061667 
-3.75425 3.20601 -0.370731 0 0 -0.111545 108 105 102 255 0.265187 0.061667 
-2.61276 3.09758 -0.370731 0 0 -0.111545 108 105 102 255 0.265187 0.061667 
-3.64149 3.09758 -0.370731 0 0 -0.111545 108 105 102 255 0.265187 0.061667 
-2.5 3.20601 -0.370731 0 -0 -0.135999 108 105 102 255 0.265187 0.061667 
-2.5 1.99992 -0.370731 0 -0 -0.135999 108 105 102 255 0.265187 0.061667 
-2.61276 2.10835 -0.370731 0 -0 -0.135999 108 105 102 255 0.265187 0.061667 
-2.5 3.20601 -0.370731 0 0 -0.111546 108 105 102 255 0.265187 0.061667 
-2.61276 2.10835 -0.370731 0 0 -0.111546 108 105 102 255 0.265187 0.061667 
-2.61276 3.09758 -0.370731 0 0 -0.111546 108 105 102 255 0.265187 0.061667 
-2.5 1.99992 -0.370731 0 0 -0.135998 108 105 102 255 0.265187 0.061667 
-3.75425 1.99992 -0.370731 0 0 -0.135998 108 105 102 255 0.265187 0.061667 
-3.64149 2.10835 -0.370731 0 0 -0.135998 108 105 102 255 0.265187 0.061667 
-2.5 1.99992 -0.370731 0 0 -0.111545 108 105 102 255 0.265187 0.061667 
-3.64149 2.10835 -0.370731 0 0 -0.111545 108 105 102 255 0.265187 0.061667 
-2.61276 2.10835 -0.370731 0 0 -0.111545 108 105 102 255 0.265187 0.061667 
-3.75425 1.99992 -0.370731 0 0 -0.135999 108 105 102 255 0.265187 0.061667 
-3.75425 3.20601 -0.370731 0 0 -0.135999 108 105 102 255 0.265187 0.061667 
-3.64149 3.09758 -0.370731 0 0 -0.135999 108 105 102 255 0.265187 0.061667 
-3.75425 1.99992 -0.370731 0 0 -0.111546 108 105 102 255 0.265187 0.061667 
-3.64149 3.09758 -0.370731 0 0 -0.111546 108 105 102 255 0.265187 0.061667 
-3.64149 2.10835 -0.370731 0 0 -0.111546 108 105 102 255 0.265187 0.061667 
-3.64149 2.10835 0 -0 0.187617 0 125 121 118 255 0.299122 0.061667 
-2.61276 2.10835 0 -0 0.187617 0 125 121 118 255 0.299122 0.061667 
-2.61276 2.10835 -0.182377 -0 0.187617 0 125 121 118 255 0.299122 0.061667 
-3.64149 2.10835 0 0 0.187617 0 125 121 118 255 0.299122 0.061667 
-2.61276 2.10835 -0.182377 0 0.187617 0 125 121 118 255 0.299122 0.061667 
-3.64149 2.10835 -0.182377 0 0.187617 0 125 121 118 255 0.299122 0.061667 
-2.61276 2.10835 0 -0.180413 0 0 91 88 86 255 0.233038 0.061667 
-2.61276 3.09758 0 -0.180413 0 0 91 88 86 255 0.233038 0.061667 
-2.61276 3.09758 -0.182377 -0.180413 0 0 91 88 86 255 0.233038 0.061667 
-2.61276 2.10835 0 -0.180413 0 0 91 88 86 255 0.233038 0.061667 
-2.61276 3.09758 -0.182377 -0.180413 0 0 91 88 86 255 0.233038 0.061667 
-2.61276 2.10835 -0.182377 -0.180413 0 0 91 88 86 255 0.233038 0.061667 
-2.61276 3.09758 0 -0 -0.187617 0 108 105 102 255 0.265187 0.061667 
-3.64149 3.09758 0 -0 -0.187617 0 108 105 102 255 0.265187 0.061667 
-3.64149 3.09758 -0.182377 -0 -0.187617 0 108 105 102 255 0.265187 0.061667 
-2.61276 3.09758 0 0 -0.187617 -0 108 105 102 255 0.265187 0.061667 
-3.64149 3.09758 -0.182377 0 -0.187617 -0 108 105 102 255 0.265187 0.061667 
-2.61276 3.09758 -0.182377 0 -0.187617 -0 108 105 102 255 0.265187 0.061667 
-3.64149 3.09758 0 0.180413 0 0 91 88 86 255 0.233038 0.061667 
-3.64149 2.10835 0 0.180413 0 0 91 88 86 255 0.233038 0.061667 
-3.64149 2.10835 -0.182377 0.180413 0 0 91 88 86 255 0.233038 0.061667 
-3.64149 3.09758 0 0.180413 0 0 91 88 86 255 0.233038 0.061667 
-3.64149 2.10835 -0.182377 0.180413 0 0 91 88 86 255 0.233038 0.061667 
-3.64149 3.09758 -0.182377 0.180413 0 0 91 88 86 255 0.233038 0.061667 
-3.64149 3.09758 -0.370731 0 -0.142401 0 108 105 102 255 0.265187 0.061667 
-2.61276 3.09758 -0.370731 0 -0.142401 0 108 105 102 255 0.265187 0.061667 
-2.61276 3.09758 -0.232307 0 -0.142401 0 108 105 102 255 0.265187 0.061667 
-3.64149 3.09758 -0.370731 0 -0.142401 0 108 105 102 255 0.265187 0.061667 
-2.61276 3.09758 -0.232307 0 -0.142401 0 108 105 102 255 0.265187 0.061667 
-3.64149 3.09758 -0.232307 0 -0.142401 0 108 105 102 255 0.265187 0.061667 
-2.61276 3.09758 -0.370731 -0.136933 0 0 91 88 86 255 0.233038 0.061667 
-2.61276 2.10835 -0.370731 -0.136933 0 0 91 88 86 255 0.233038 0.061667 
-2.61276 2.10835 -0.232307 -0.136933 0 0 91 88 86 255 0.233038 0.061667 
-2.61276 3.09758 -0.370731 -0.136933 0 0 91 88 86 255 0.233038 0.061667 
-2.61276 2.10835 -0.232307 -0.136933 0 0 91 88 86 255 0.233038 0.061667 
-2.61276 3.09758 -0.232307 -0.136933 0 0 91 88 86 255 0.233038 0.061667 
-2.61276 2.10835 -0.370731 0 0.142401 0 125 121 118 255 0.299122 0.061667 
-3.64149 2.10835 -0.370731 0 0.142401 0 125 121 118 255 0.299122 0.061667 
-3.64149 2.10835 -0.232307 0 0.142401 0 125 121 118 255 0.299122 0.061667 
-2.61276 2.10835 -0.370731 0 0.142401 -0 125 121 118 255 0.299122 0.061667 
-3.64149 2.10835 -0.232307 0 0.142401 -0 125 121 118 255 0.299122 0.061667 
-2.61276 2.10835 -0.232307 0 0.142401 -0 125 121 118 255 0.299122 0.061667 
-3.64149 2.10835 -0.370731 0.136933 0 0 91 88 86 255 0.233038 0.061667 
-3.64149 3.09758 -0.370731 0.136933 0 0 91 88 86 255 0.233038 0.061667 
-3.64149 3.09758 -0.232307 0.136933 0 0 91 88 86 255 0.233038 0.061667 
-3.64149 2.10835 -0.370731 0.136933 0 0 91 88 86 255 0.233038 0.061667 
-3.64149 3.09758 -0.232307 0.136933 0 0 91 88 86 255 0.233038 0.061667 
-3.64149 2.10835 -0.232307 0.136933 0 0 91 88 86 255 0.233038 0.061667 
-3.64149 2.10835 -0.182377 0 0 0.126832 75 72 70 255 0.20176 0.061667 
-2.61276 2.10835 -0.182377 0 0 0.126832 75 72 70 255 0.20176 0.061667 
-2.70142 2.23164 -0.182377 0 0 0.126832 75 72 70 255 0.20176 0.061667 
-3.64149 2.10835 -0.182377 0 0 0.10497 75 72 70 255 0.20176 0.061667 
-2.70142 2.23164 -0.182377 0 0 0.10497 75 72 70 255 0.20176 0.061667 
-3.55283 2.23164 -0.182377 0 0 0.10497 75 72 70 255 0.20176 0.061667 
-2.61276 2.10835 -0.182377 0 -0 0.0877051 75 72 70 255 0.20176 0.061667 
-2.61276 3.09758 -0.182377 0 -0 0.0877051 75 72 70 255 0.20176 0.061667 
-2.70142 2.9743 -0.182377 0 -0 0.0877051 75 72 70 255 0.20176 0.061667 
-2.61276 2.10835 -0.182377 0 0 0.0658442 75 72 70 255 0.20176 0.061667 
-2.70142 2.9743 -0.182377 0 0 0.0658442 75 72 70 255 0.20176 0.061667 
-2.70142 2.23164 -0.182377 0 0 0.0658442 75 72 70 255 0.20176 0.061667 
-2.61276 3.09758 -0.182377 0 0 0.126822 75 72 70 255 0.20176 0.061667 
-3.64149 3.09758 -0.182377 0 0 0.126822 75 72 70 255 0.20176 0.061667 
-3.55283 2.9743 -0.182377 0 0 0.126822 75 72 70 255 0.20176 0.061667 
-2.61276 3.09758 -0.182377 0 0 0.104962 75 72 70 255 0.20176 0.061667 
-3.55283 2.9743 -0.182377 0 0 0.104962 75 72 70 255 0.20176 0.061667 
-2.70142 2.9743 -0.182377 0 0 0.104962 75 72 70 255 0.20176 0.061667 
-3.64149 3.09758 -0.182377 0 0 0.0877051 75 72 70 255 0.20176 0.061667 
-3.64149 2.10835 -0.182377 0 0 0.0877051 75 72 70 255 0.20176 0.061667 
-3.55283 2.23164 -0.182377 0 0 0.0877051 75 72 70 255 0.20176 0.061667 
-3.64149 3.09758 -0.182377 0 0 0.0658442 75 72 70 255 0.20176 0.061667 
-3.55283 2.23164 -0.182377 0 0 0.0658442 75 72 70 255 0.20176 0.061667 
-3.55283 2.9743 -0.182377 0 0 0.0658442 75 72 70 255 0.20176 0.061667 
-3.64149 3.09758 -0.232307 0 0 -0.126822 75 72 70 255 0.20176 0.061667 
-2.61276 3.09758 -0.232307 0 0 -0.126822 75 72 70 255 0.20176 0.061667 
-2.70142 2.9743 -0.232307 0 0 -0.126822 75 72 70 255 0.20176 0.061667 
-3.64149 3.09758 -0.232307 0 0 -0.104962 75 72 70 255 0.20176 0.061667 
-2.70142 2.9743 -0.232307 0 0 -0.104962 75 72 70 255 0.20176 0.061667 
-3.55283 2.9743 -0.232307 0 0 -0.104962 75 72 70 255 0.20176 0.061667 
-2.61276 3.09758 -0.232307 0 -0 -0.0877051 75 72 70 255 0.20176 0.061667 
-2.61276 2.10835 -0.232307 0 -0 -0.0877051 75 72 70 255 0.20176 0.061667 
-2.70142 2.23164 -0.232307 0 -0 -0.0877051 75 72 70 255 0.20176 0.061667 
-2.61276 3.09758 -0.232307 0 0 -0.0658442 75 72 70 255 0.20176 0.061667 
-2.70142 2.23164 -0.232307 0 0 -0.0658442 75 72 70 255 0.20176 0.061667 
-2.70142 2.9743 -0.232307 0 0 -0.0658442 75 72 70 255 0.20176 0.061667 
-2.61276 2.10835 -0.232307 0 0 -0.126832 75 72 70 255 0.20176 0.061667 
-3.64149 2.10835 -0.232307 0 0 -0.126832 75 72 70 255 0.20176 0.061667 
-3.55283 2.23164 -0.232307 0 0 -0.126832 75 72 70 255 0.20176 0.061667 
-2.61276 2.10835 -0.232307 0 0 -0.10497 75 72 70 255 0.20176 0.061667 
-3.55283 2.23164 -0.232307 0 0 -0.10497 75 72 70 255 0.20176 0.061667 
-2.70142 2.23164 -0.232307 0 0 -0.10497 75 72 70 255 0.20176 0.061667 
-3.64149 2.10835 -0.232307 0 0 -0.0877051 75 72 70 255 0.20176 0.061667 
-3.64149 3.09758 -0.232307 0 0 -0.0877051 75 72 70 255 0.20176 0.061667 
-3.55283 2.9743 -0.232307 0 0 -0.0877051 75 72 70 255 0.20176 0.061667 
-3.64149 2.10835 -0.232307 0 0 -0.0658442 75 72 70 255 0.20176 0.061667 
-3.55283 2.9743 -0.232307 0 0 -0.0658442 75 72 70 255 0.20176 0.061667 
-3.55283 2.23164 -0.232307 0 0 -0.0658442 75 72 70 255 0.20176 0.061667 
-2.70142 2.9743 -0.182377 -0 -0.0425109 0 75 72 70 255 0.20176 0.061667 
-3.55283 2.9743 -0.182377 -0 -0.0425109 0 75 72 70 255 0.20176 0.061667 
-3.55283 2.9743 -0.232307 -0 -0.0425109 0 75 72 70 255 0.20176 0.061667 
-2.70142 2.9743 -0.182377 0 -0.0425109 -0 75 72 70 255 0.20176 0.061667 
-3.55283 2.9743 -0.232307 0 -0.0425109 -0 75 72 70 255 0.20176 0.061667 
-2.70142 2.9743 -0.232307 0 -0.0425109 -0 75 72 70 255 0.20176 0.061667 
-3.55283 2.9743 -0.182377 0.037081 0 0 58 57 55 255 0.169611 0.061667 
-3.55283 2.23164 -0.182377 0.037081 0 0 58 57 55 255 0.169611 0.061667 
-3.55283 2.23164 -0.232307 0.037081 0 0 58 57 55 255 0.169611 0.061667 
-3.55283 2.9743 -0.182377 0.037081 0 0 58 57 55 255 0.169611 0.061667 
-3.55283 2.23164 -0.232307 0.037081 0 0 58 57 55 255 0.169611 0.061667 
-3.55283 2.9743 -0.232307 0.037081 0 0 58 57 55 255 0.169611 0.061667 
-2.70142 2.9743 -0.182377 -0.037081 0 -0 58 57 55 255 0.169611 0.061667 
-2.70142 2.9743 -0.232307 -0.037081 0 -0 58 57 55 255 0.169611 0.061667 
-2.70142 2.23164 -0.232307 -0.037081 0 -0 58 57 55 255 0.169611 0.061667 
-2.70142 2.9743 -0.182377 -0.037081 -0 0 58 57 55 255 0.169611 0.061667 
-2.70142 2.23164 -0.232307 -0.037081 -0 0 58 57 55 255 0.169611 0.061667 
-2.70142 2.23164 -0.182377 -0.037081 -0 0 58 57 55 255 0.169611 0.061667 
-2.70142 2.23164 -0.182377 0 0.0425109 0 91 88 86 255 0.235695 0.061667 
-2.70142 2.23164 -0.232307 0 0.0425109 0 91 88 86 255 0.235695 0.061667 
-3.55283 2.23164 -0.232307 0 0.0425109 0 91 88 86 255 0.235695 0.061667 
-2.70142 2.23164 -0.182377 0 0.0425109 0 91 88 86 255 0.235695 0.061667 
-3.55283 2.23164 -0.232307 0 0.0425109 0 91 88 86 255 0.235695 0.061667 
-3.55283 2.23164 -0.182377 0 0.0425109 0 91 88 86 255 0.235695 0.061667 
-2.86978 3.00549 -0.158211 0 0 0.00354187 157 152 148 255 0.356003 0.061667 
-2.80909 3.00549 -0.158211 0 0 0.00354187 157 152 148 255 0.356003 0.061667 
-2.80909 3.06385 -0.158211 0 0 0.00354187 157 152 148 255 0.356003 0.061667 
-2.86978 3.00549 -0.158211 0 0 0.00354187 157 152 148 255 0.356003 0.061667 
-2.80909 3.06385 -0.158211 0 0 0.00354187 157 152 148 255 0.356003 0.061667 
-2.86978 3.06385 -0.158211 0 0 0.00354187 157 152 148 255 0.356003 0.061667 
-2.86978 3.06385 -0.158211 -0 0.00146664 0 172 167 162 255 0.390868 0.061667 
-2.80909 3.06385 -0.158211 -0 0.00146664 0 172 167 162 255 0.390868 0.061667 
-2.80909 3.06385 -0.182377 -0 0.00146664 0 172 167 162 255 0.390868 0.061667 
-2.86978 3.06385 -0.158211 0 0.00146664 0 172 167 162 255 0.390868 0.061667 
-2.80909 3.06385 -0.182377 0 0.00146664 0 172 167 162 255 0.390868 0.061667 
-2.86978 3.06385 -0.182377 0 0.00146664 0 172 167 162 255 0.390868 0.061667 
-2.86978 3.00549 -0.182377 0 -0.00146664 0 125 121 118 255 0.290983 0.061667 
-2.80909 3.00549 -0.182377 0 -0.00146664 0 125 121 118 255 0.290983 0.061667 
-2.80909 3.00549 -0.158211 0 -0.00146664 0 125 121 118 255 0.290983 0.061667 
-2.86978 3.00549 -0.182377 0 -0.00146664 0 125 121 118 255 0.290983 0.061667 
-2.80909 3.00549 -0.158211 0 -0.00146664 0 125 121 118 255 0.290983 0.061667 
-2.86978 3.00549 -0.158211 0 -0.00146664 0 125 121 118 255 0.290983 0.061667 
-2.80909 3.00549 -0.158211 0.00141032 0 0 141 137 133 255 0.323964 0.061667 
-2.80909 3.00549 -0.182377 0.00141032 0 0 141 137 133 255 0.323964 0.061667 
-2.80909 3.06385 -0.182377 0.00141032 0 0 141 137 133 255 0.323964 0.061667 
-2.80909 3.00549 -0.158211 0.00141032 -0 0 141 137 133 255 0.323964 0.061667 
-2.80909 3.06385 -0.182377 0.00141032 -0 0 141 137 133 255 0.323964 0.061667 
-2.80909 3.06385 -0.158211 0.00141032 -0 0 141 137 133 255 0.323964 0.061667 
-2.86978 3.00549 -0.182377 -0.00141032 0 0 141 137 133 255 0.323964 0.061667 
-2.86978 3.00549 -0.158211 -0.00141032 0 0 141 137 133 255 0.323964 0.061667 
-2.86978 3.06385 -0.158211 -0.00141032 0 0 141 137 133 255 0.323964 0.061667 
-2.86978 3.00549 -0.182377 -0.00141032 0 0 141 137 133 255 0.323964 0.061667 
-2.86978 3.06385 -0.158211 -0.00141032 0 0 141 137 133 255 0.323964 0.061667 
-2.86978 3.06385 -0.182377 -0.00141032 0 0 141 137 133 255 0.323964 0.061667 
-3.44516 3.00549 -0.158211 0 0 0.00354186 157 152 148 255 0.356003 0.061667 
-3.38447 3.00549 -0.158211 0 0 0.00354186 157 152 148 255 0.356003 0.061667 
-3.38447 3.06385 -0.158211 0 0 0.00354186 157 152 148 255 0.356003 0.061667 
-3.44516 3.00549 -0.158211 0 0 0.00354186 157 152 148 255 0.356003 0.061667 
-3.38447 3.06385 -0.158211 0 0 0.00354186 157 152 148 255 0.356003 0.061667 
-3.44516 3.06385 -0.158211 0 0 0.00354186 157 152 148 255 0.356003 0.061667 
-3.44516 3.06385 -0.158211 -0 0.00146663 0 172 167 162 255 0.390868 0.061667 
-3.38447 3.06385 -0.158211 -0 0.00146663 0 172 167 162 255 0.390868 0.061667 
-3.38447 3.06385 -0.182377 -0 0.00146663 0 172 167 162 255 0.390868 0.061667 
-3.44516 3.06385 -0.158211 0 0.00146663 0 172 167 162 255 0.390868 0.061667 
-3.38447 3.06385 -0.182377 0 0.00146663 0 172 167 162 255 0.390868 0.061667 
-3.44516 3.06385 -0.182377 0 0.00146663 0 172 167 162 255 0.390868 0.061667 
-3.44516 3.00549 -0.182377 0 -0.00146663 0 125 121 118 255 0.290983 0.061667 
-3.38447 3.00549 -0.182377 0 -0.00146663 0 125 121 118 255 0.290983 0.061667 
-3.38447 3.00549 -0.158211 0 -0.00146663 0 125 121 118 255 0.290983 0.061667 
-3.44516 3.00549 -0.182377 0 -0.00146663 0 125 121 118 255 0.290983 0.061667 
-3.38447 3.00549 -0.158211 0 -0.00146663 0 125 121 118 255 0.290983 0.061667 
-3.44516 3.00549 -0.158211 0 -0.00146663 0 125 121 118 255 0.290983 0.061667 
-3.38447 3.00549 -0.158211 0.00141032 0 0 141 137 133 255 0.323964 0.061667 
-3.38447 3.00549 -0.182377 0.00141032 0 0 141 137 133 255 0.323964 0.061667 
-3.38447 3.06385 -0.182377 0.00141032 0 0 141 137 133 255 0.323964 0.061667 
-3.38447 3.00549 -0.158211 0.00141032 -0 0 141 137 133 255 0.323964 0.061667 
-3.38447 3.06385 -0.182377 0.00141032 -0 0 141 137 133 255 0.323964 0.061667 
-3.38447 3.06385 -0.158211 0.00141032 -0 0 141 137 133 255 0.323964 0.061667 
-3.44516 3.00549 -0.182377 -0.00141032 0 0 141 137 133 255 0.323964 0.061667 
-3.44516 3.00549 -0.158211 -0.00141032 0 0 141 137 133 255 0.323964 0.061667 
-3.44516 3.06385 -0.158211 -0.00141032 0 0 141 137 133 255 0.323964 0.061667 
-3.44516 3.00549 -0.182377 -0.00141032 0 0 141 137 133 255 0.323964 0.061667 
-3.44516 3.06385 -0.158211 -0.00141032 0 0 141 137 133 255 0.323964 0.061667 
-3.44516 3.06385 -0.182377 -0.00141032 0 0 141 137 133 255 0.323964 0.061667 
-3.15747 3.00549 -0.158211 0 0 0.00354186 157 152 148 255 0.356003 0.061667 
-3.09678 3.00549 -0.158211 0 0 0.00354186 157 152 148 255 0.356003 0.061667 
-3.09678 3.06385 -0.158211 0 0 0.00354186 157 152 148 255 0.356003 0.061667 
-3.15747 3.00549 -0.158211 0 0 0.00354186 157 152 148 255 0.356003 0.061667 
-3.09678 3.06385 -0.158211 0 0 0.00354186 157 152 148 255 0.356003 0.061667 
-3.15747 3.06385 -0.158211 0 0 0.00354186 157 152 148 255 0.356003 0.061667 
-3.15747 3.06385 -0.158211 -0 0.00146663 0 172 167 162 255 0.390868 0.061667 
-3.09678 3.06385 -0.158211 -0 0.00146663 0 172 167 162 255 0.390868 0.061667 
-3.09678 3.06385 -0.182377 -0 0.00146663 0 172 167 162 255 0.390868 0.061667 
-3.15747 3.06385 -0.158211 0 0.00146663 0 172 167 162 255 0.390868 0.061667 
-3.09678 3.06385 -0.182377 0 0.00146663 0 172 167 162 255 0.390868 0.061667 
-3.15747 3.06385 -0.182377 0 0.00146663 0 172 167 162 255 0.390868 0.061667 
-3.15747 3.00549 -0.182377 0 -0.00146663 0 125 121 118 255 0.290983 0.061667 
-3.09678 3.00549 -0.182377 0 -0.00146663 0 125 121 118 255 0.290983 0.061667 
-3.09678 3.00549 -0.158211 0 -0.00146663 0 125 121 118 255 0.290983 0.061667 
-3.15747 3.00549 -0.182377 0 -0.00146663 0 125 121 118 255 0.290983 0.061667 
-3.09678 3.00549 -0.158211 0 -0.00146663 0 125 121 118 255 0.290983 0.061667 
-3.15747 3.00549 -0.158211 0 -0.00146663 0 125 121 118 255 0.290983 0.061667 
-3.09678 3.00549 -0.158211 0.00141032 0 0 141 137 133 255 0.323964 0.061667 
-3.09678 3.00549 -0.182377 0.00141032 0 0 141 137 133 255 0.323964 0.061667 
-3.09678 3.06385 -0.182377 0.00141032 0 0 141 137 133 255 0.323964 0.061667 
-3.09678 3.00549 -0.158211 0.00141032 -0 0 141 137 133 255 0.323964 0.061667 
-3.09678 3.06385 -0.182377 0.00141032 -0 0 141 137 133 255 0.323964 0.061667 
-3.09678 3.06385 -0.158211 0.00141032 -0 0 141 137 133 255 0.323964 0.061667 
-3.15747 3.00549 -0.182377 -0.00141032 0 0 141 137 133 255 0.323964 0.061667 
-3.15747 3.00549 -0.158211 -0.00141032 0 0 141 137 133 255 0.323964 0.061667 
-3.15747 3.06385 -0.158211 -0.00141032 0 0 141 137 133 255 0.323964 0.061667 
-3.15747 3.00549 -0.182377 -0.00141032 0 0 141 137 133 255 0.323964 0.061667 
-3.15747 3.06385 -0.158211 -0.00141032 0 0 141 137 133 255 0.323964 0.061667 
-3.15747 3.06385 -0.182377 -0.00141032 0 0 141 137 133 255 0.323964 0.061667 
-2.86978 2.14209 -0.158211 0 0 0.00354187 157 152 148 255 0.356003 0.061667 
-2.80909 2.14209 -0.158211 0 0 0.00354187 157 152 148 255 0.356003 0.061667 
-2.80909 2.20045 -0.158211 0 0 0.00354187 157 152 148 255 0.356003 0.061667 
-2.86978 2.14209 -0.158211 0 0 0.00354187 157 152 148 255 0.356003 0.061667 
-2.80909 2.20045 -0.158211 0 0 0.00354187 157 152 148 255 0.356003 0.061667 
-2.86978 2.20045 -0.158211 0 0 0.00354187 157 152 148 255 0.356003 0.061667 
-2.86978 2.20045 -0.158211 -0 0.00146664 0 172 167 162 255 0.390868 0.061667 
-2.80909 2.20045 -0.158211 -0 0.00146664 0 172 167 162 255 0.390868 0.061667 
-2.80909 2.20045 -0.182377 -0 0.00146664 0 172 167 162 255 0.390868 0.061667 
-2.86978 2.20045 -0.158211 0 0.00146664 0 172 167 162 255 0.390868 0.061667 
-2.80909 2.20045 -0.182377 0 0.00146664 0 172 167 162 255 0.390868 0.061667 
-2.86978 2.20045 -0.182377 0 0.00146664 0 172 167 162 255 0.390868 0.061667 
-2.86978 2.14209 -0.182377 0 -0.00146664 0 125 121 118 255 0.290983 0.061667 
-2.80909 2.14209 -0.182377 0 -0.00146664 0 125 121 118 255 0.290983 0.061667 
-2.80909 2.14209 -0.158211 0 -0.00146664 0 125 121 118 255 0.290983 0.061667 
-2.86978 2.14209 -0.182377 0 -0.00146664 0 125 121 118 255 0.290983 0.061667 
-2.80909 2.14209 -0.158211 0 -0.00146664 0 125 121 118 255 0.290983 0.061667 
-2.86978 2.14209 -0.158211 0 -0.00146664 0 125 121 118 255 0.290983 0.061667 
-2.80909 2.14209 -0.158211 0.00141032 0 0 141 137 133 255 0.323964 0.061667 
-2.80909 2.14209 -0.182377 0.00141032 0 0 141 137 133 255 0.323964 0.061667 
-2.80909 2.20045 -0.182377 0.00141032 0 0 141 137 133 255 0.323964 0.061667 
-2.80909 2.14209 -0.158211 0.00141032 -0 0 141 137 133 255 0.323964 0.061667 
-2.80909 2.20045 -0.182377 0.00141032 -0 0 141 137 133 255 0.323964 0.061667 
-2.80909 2.20045 -0.158211 0.00141032 -0 0 141 137 133 255 0.323964 0.061667 
-2.86978 2.14209 -0.182377 -0.00141032 0 0 141 137 133 255 0.323964 0.061667 
-2.86978 2.14209 -0.158211 -0.00141032 0 0 141 137 133 255 0.323964 0.061667 
-2.86978 2.20045 -0.158211 -0.00141032 0 0 141 137 133 255 0.323964 0.061667 
-2.86978 2.14209 -0.182377 -0.00141032 0 0 141 137 133 255 0.323964 0.061667 
-2.86978 2.20045 -0.158211 -0.00141032 0 0 141 137 133 255 0.323964 0.061667 
-2.86978 2.20045 -0.182377 -0.00141032 0 0 141 137 133 255 0.323964 0.061667 
-3.44516 2.14209 -0.158211 0 0 0.00354186 157 152 148 255 0.356003 0.061667 
-3.38447 2.14209 -0.158211 0 0 0.00354186 157 152 148 255 0.356003 0.061667 
-3.38447 2.20045 -0.158211 0 0 0.00354186 157 152 148 255 0.356003 0.061667 
-3.44516 2.14209 -0.158211 0 0 0.00354186 157 152 148 255 0.356003 0.061667 
-3.38447 2.20045 -0.158211 0 0 0.00354186 157 152 148 255 0.356003 0.061667 
-3.44516 2.20045 -0.158211 0 0 0.00354186 157 152 148 255 0.356003 0.061667 
-3.44516 2.20045 -0.158211 -0 0.00146663 0 172 167 162 255 0.390868 0.061667 
-3.38447 2.20045 -0.158211 -0 0.00146663 0 172 167 162 255 0.390868 0.061667 
-3.38447 2.20045 -0.182377 -0 0.00146663 0 172 167 162 255 0.390868 0.061667 
-3.44516 2.20045 -0.158211 0 0.00146663 0 172 167 162 255 0.390868 0.061667 
-3.38447 2.20045 -0.182377 0 0.00146663 0 172 167 162 255 0.390868 0.061667 
-3.44516 2.20045 -0.182377 0 0.00146663 0 172 167 162 255 0.390868 0.061667 
-3.44516 2.14209 -0.182377 0 -0.00146663 0 125 121 118 255 0.290983 0.061667 
-3.38447 2.14209 -0.182377 0 -0.00146663 0 125 121 118 255 0.290983 0.061667 
-3.38447 2.14209 -0.158211 0 -0.00146663 0 125 121 118 255 0.290983 0.061667 
-3.44516 2.14209 -0.182377 0 -0.00146663 0 125 121 118 255 0.290983 0.061667 
-3.38447 2.14209 -0.158211 0 -0.00146663 0 125 121 118 255 0.290983 0.061667 
-3.44516 2.14209 -0.158211 0 -0.00146663 0 125 121 118 255 0.290983 0.061667 
-3.38447 2.14209 -0.158211 0.00141032 0 0 141 137 133 255 0.323964 0.061667 
-3.38447 2.14209 -0.182377 0.00141032 0 0 141 137 133 255 0.323964 0.061667 
-3.38447 2.20045 -0.182377 0.00141032 0 0 141 137 133 255 0.323964 0.061667 
-3.38447 2.14209 -0.158211 0.00141032 -0 0 141 137 133 255 0.323964 0.061667 
-3.38447 2.20045 -0.182377 0.00141032 -0 0 141 137 133 255 0.323964 0.061667 
-3.38447 2.20045 -0.158211 0.00141032 -0 0 141 137 133 255 0.323964 0.061667 
-3.44516 2.14209 -0.182377 -0.00141032 0 0 141 137 133 255 0.323964 0.061667 
-3.44516 2.14209 -0.158211 -0.00141032 0 0 141 137 133 255 0.323964 0.061667 
-3.44516 2.20045 -0.158211 -0.00141032 0 0 141 137 133 255 0.323964 0.061667 
-3.44516 2.14209 -0.182377 -0.00141032 0 0 141 137 133 255 0.323964 0.061667 
-3.44516 2.20045 -0.158211 -0.00141032 0 0 141 137 133 255 0.323964 0.061667 
-3.44516 2.20045 -0.182377 -0.00141032 0 0 141 137 133 255 0.323964 0.061667 
-3.15747 2.14209 -0.158211 0 0 0.00354186 157 152 148 255 0.356003 0.061667 
-3.09678 2.14209 -0.158211 0 0 0.00354186 157 152 148 255 0.356003 0.061667 
-3.09678 2.20045 -0.158211 0 0 0.00354186 157 152 148 255 0.356003 0.061667 
-3.15747 2.14209 -0.158211 0 0 0.00354186 157 152 148 255 0.356003 0.061667 
-3.09678 2.20045 -0.158211 0 0 0.00354186 157 152 148 255 0.356003 0.061667 
-3.15747 2.20045 -0.158211 0 0 0.00354186 157 152 148 255 0.356003 0.061667 
-3.15747 2.20045 -0.158211 -0 0.00146663 0 172 167 162 255 0.390868 0.061667 
-3.09678 2.20045 -0.158211 -0 0.00146663 0 172 167 162 255 0.390868 0.061667 
-3.09678 2.20045 -0.182377 -0 0.00146663 0 172 167 162 255 0.390868 0.061667 
-3.15747 2.20045 -0.158211 0 0.00146663 0 172 167 162 255 0.390868 0.061667 
-3.09678 2.20045 -0.182377 0 0.00146663 0 172 167 162 255 0.390868 0.061667 
-3.15747 2.20045 -0.182377 0 0.00146663 0 172 167 162 255 0.390868 0.061667 
-3.15747 2.14209 -0.182377 0 -0.00146663 0 125 121 118 255 0.290983 0.061667 
-3.09678 2.14209 -0.182377 0 -0.00146663 0 125 121 118 255 0.290983 0.061667 
-3.09678 2.14209 -0.158211 0 -0.00146663 0 125 121 118 255 0.290983 0.061667 
-3.15747 2.14209 -0.182377 0 -0.00146663 0 125 121 118 255 0.290983 0.061667 
-3.09678 2.14209 -0.158211 0 -0.00146663 0 125 121 118 255 0.290983 0.061667 
-3.15747 2.14209 -0.158211 0 -0.00146663 0 125 121 118 255 0.290983 0.061667 
-3.09678 2.14209 -0.158211 0.00141032 0 0 141 137 133 255 0.323964 0.061667 
-3.09678 2.14209 -0.182377 0.00141032 0 0 141 137 133 255 0.323964 0.061667 
-3.09678 2.20045 -0.182377 0.00141032 0 0 141 137 133 255 0.323964 0.061667 
-3.09678 2.14209 -0.158211 0.00141032 -0 0 141 137 133 255 0.323964 0.061667 
-3.09678 2.20045 -0.182377 0.00141032 -0 0 141 137 133 255 0.323964 0.061667 
-3.09678 2.20045 -0.158211 0.00141032 -0 0 141 137 133 255 0.323964 0.061667 
-3.15747 2.14209 -0.182377 -0.00141032 0 0 141 137 133 255 0.323964 0.061667 
-3.15747 2.14209 -0.158211 -0.00141032 0 0 141 137 133 255 0.323964 0.061667 
-3.15747 2.20045 -0.158211 -0.00141032 0 0 141 137 133 255 0.323964 0.061667 
-3.15747 2.14209 -0.182377 -0.00141032 0 0 141 137 133 255 0.323964 0.061667 
-3.15747 2.20045 -0.158211 -0.00141032 0 0 141 137 133 255 0.323964 0.061667 
-3.15747 2.20045 -0.182377 -0.00141032 0 0 141 137 133 255 0.323964 0.061667 
-1.20689 2.24611 0.283115 0 -0 0.154022 108 105 102 255 0.267261 0.061667 
-1.20689 4.03249 0.283115 0 -0 0.154022 108 105 102 255 0.267261 0.061667 
-1.29311 4.03249 0.283115 0 -0 0.154022 108 105 102 255 0.267261 0.061667 
-1.20689 2.24611 0.283115 0 0 0.154022 108 105 102 255 0.267261 0.061667 
-1.29311 4.03249 0.283115 0 0 0.154022 108 105 102 255 0.267261 0.061667 
-1.29311 2.24611 0.283115 0 0 0.154022 108 105 102 255 0.267261 0.061667 
-1.20689 3.94408 0.196896 0 -0 -0.138776 108 105 102 255 0.267261 0.061667 
-1.20689 2.33452 0.196896 0 -0 -0.138776 108 105 102 255 0.267261 0.061667 
-1.29311 2.33452 0.196896 0 -0 -0.138776 108 105 102 255 0.267261 0.061667 
-1.20689 3.94408 0.196896 -0 0 -0.138776 108 105 102 255 0.267261 0.061667 
-1.29311 2.33452 0.196896 -0 0 -0.138776 108 105 102 255 0.267261 0.061667 
-1.29311 3.94408 0.196896 -0 0 -0.138776 108 105 102 255 0.267261 0.061667 
-1.29311 2.24611 0.283115 -0.15402 0 0 91 88 86 255 0.233148 0.061667 
-1.29311 4.03249 0.283115 -0.15402 0 0 91 88 86 255 0.233148 0.061667 
-1.29311 3.94408 0.196896 -0.15402 0 0 91 88 86 255 0.233148 0.061667 
-1.29311 2.24611 0.283115 -0.138775 0 0 91 88 86 255 0.233148 0.061667 
-1.29311 3.94408 0.196896 -0.138775 0 0 91 88 86 255 0.233148 0.061667 
-1.29311 2.33452 0.196896 -0.138775 0 0 91 88 86 255 0.233148 0.061667 
-1.20689 2.33452 0.196896 0.138775 0 0 91 88 86 255 0.233148 0.061667 
-1.20689 3.94408 0.196896 0.138775 0 0 91 88 86 255 0.233148 0.061667 
-1.20689 4.03249 0.283115 0.138775 0 0 91 88 86 255 0.233148 0.061667 
-1.20689 2.33452 0.196896 0.15402 0 -0 91 88 86 255 0.233148 0.061667 
-1.20689 4.03249 0.283115 0.15402 0 -0 91 88 86 255 0.233148 0.061667 
-1.20689 2.24611 0.283115 0.15402 0 -0 91 88 86 255 0.233148 0.061667 
-1.20689 4.03249 0.283115 0 0.0193428 0 125 121 118 255 0.300052 0.061667 
-1.20689 4.03249 0.058773 0 0.0193428 0 125 121 118 255 0.300052 0.061667 
-1.29311 4.03249 0.058773 0 0.0193428 0 125 121 118 255 0.300052 0.061667 
-1.20689 4.03249 0.283115 0 0.0193428 0 125 121 118 255 0.300052 0.061667 
-1.29311 4.03249 0.058773 0 0.0193428 0 125 121 118 255 0.300052 0.061667 
-1.29311 4.03249 0.283115 0 0.0193428 0 125 121 118 255 0.300052 0.061667 
-1.29311 4.03249 0.283115 -0.019834 0 -0 91 88 86 255 0.240032 0.061667 
-1.29311 4.03249 0.058773 -0.019834 0 -0 91 88 86 255 0.240032 0.061667 
-1.29311 3.94408 0.058773 -0.019834 0 -0 91 88 86 255 0.240032 0.061667 
-1.29311 4.03249 0.283115 -0.0122114 0 0 91 88 86 255 0.240032 0.061667 
-1.29311 3.94408 0.058773 -0.0122114 0 0 91 88 86 255 0.240032 0.061667 
-1.29311 3.94408 0.196896 -0.0122114 0 0 91 88 86 255 0.240032 0.061667 
-1.29311 3.94408 0.196896 0 -0.011909 0 75 72 70 255 0.198113 0.061667 
-1.29311 3.94408 0.058773 0 -0.011909 0 75 72 70 255 0.198113 0.061667 
-1.20689 3.94408 0.058773 0 -0.011909 0 75 72 70 255 0.198113 0.061667 
-1.29311 3.94408 0.196896 0 -0.011909 0 75 72 70 255 0.198113 0.061667 
-1.20689 3.94408 0.058773 0 -0.011909 0 75 72 70 255 0.198113 0.061667 
-1.20689 3.94408 0.196896 0 -0.011909 0 75 72 70 255 0.198113 0.061667 
-1.20689 3.94408 0.196896 0.0122114 0 0 91 88 86 255 0.240032 0.061667 
-1.20689 3.94408 0.058773 0.0122114 0 0 91 88 86 255 0.240032 0.061667 
-1.20689 4.03249 0.058773 0.0122114 0 0 91 88 86 255 0.240032 0.061667 
-1.20689 3.94408 0.196896 0.019834 -0 0 91 88 86 255 0.240032 0.061667 
-1.20689 4.03249 0.058773 0.019834 -0 0 91 88 86 255 0.240032 0.061667 
-1.20689 4.03249 0.283115 0.019834 -0 0 91 88 86 255 0.240032 0.061667 
-1.20689 2.33452 0.196896 0 0.011909 0 125 121 118 255 0.29711 0.061667 
-1.20689 2.33452 0.058773 0 0.011909 0 125 121 118 255 0.29711 0.061667 
-1.29311 2.33452 0.058773 0 0.011909 0 125 121 118 255 0.29711 0.061667 
-1.20689 2.33452 0.196896 0 0.011909 0 125 121 118 255 0.29711 0.061667 
-1.29311 2.33452 0.058773 0 0.011909 0 125 121 118 255 0.29711 0.061667 
-1.29311 2.33452 0.196896 0 0.011909 0 125 121 118 255 0.29711 0.061667 
-1.29311 2.33452 0.196896 -0.0122115 0 -0 91 88 86 255 0.244197 0.061667 
-1.29311 2.33452 0.058773 -0.0122115 0 -0 91 88 86 255 0.244197 0.061667 
-1.29311 2.24611 0.058773 -0.0122115 0 -0 91 88 86 255 0.244197 0.061667 
-1.29311 2.33452 0.196896 -0.0198341 -0 0 91 88 86 255 0.244197 0.061667 
-1.29311 2.24611 0.058773 -0.0198341 -0 0 91 88 86 255 0.244197 0.061667 
-1.29311 2.24611 0.283115 -0.0198341 -0 0 91 88 86 255 0.244197 0.061667 
-1.29311 2.24611 0.283115 0 -0.0193428 0 75 72 70 255 0.200168 0.061667 
-1.29311 2.24611 0.058773 0 -0.0193428 0 75 72 70 255 0.200168 0.061667 
-1.20689 2.24611 0.058773 0 -0.0193428 0 75 72 70 255 0.200168 0.061667 
-1.29311 2.24611 0.283115 0 -0.0193428 0 75 72 70 255 0.200168 0.061667 
-1.20689 2.24611 0.058773 0 -0.0193428 0 75 72 70 255 0.200168 0.061667 
-1.20689 2.24611 0.283115 0 -0.0193428 0 75 72 70 255 0.200168 0.061667 
-1.20689 2.24611 0.283115 0.0198341 0 0 91 88 86 255 0.244197 0.061667 
-1.20689 2.24611 0.058773 0.0198341 0 0 91 88 86 255 0.244197 0.061667 
-1.20689 2.33452 0.058773 0.0198341 0 0 91 88 86 255 0.244197 0.061667 
-1.20689 2.24611 0.283115 0.0122115 0 0 91 88 86 255 0.244197 0.061667 
-1.20689 2.33452 0.058773 0.0122115 0 0 91 88 86 255 0.244197 0.061667 
-1.20689 2.33452 0.196896 0.0122115 0 0 91 88 86 255 0.244197 0.061667 
-1.20689 4.03249 0.058773 0 -0 0.00405155 108 105 102 255 0.26373 0.062198 
-1.17904 4.06104 0.058773 0 -0 0.00405155 108 105 102 255 0.26373 0.062198 
-1.32095 4.06104 0.058773 0 -0 0.00405155 108 105 102 255 0.26373 0.062198 
-1.20689 4.03249 0.058773 0 0 0.00246159 108 105 102 255 0.26373 0.062198 
-1.32095 4.06104 0.058773 0 0 0.00246159 108 105 102 255 0.26373 0.062198 
-1.29311 4.03249 0.058773 0 0 0.00246159 108 105 102 255 0.26373 0.062198 
-1.29311 4.03249 0.058773 0 0 0.004051 108 105 102 255 0.26373 0.062198 
-1.32095 4.06104 0.058773 0 0 0.004051 108 105 102 255 0.26373 0.062198 
-1.32095 3.91553 0.058773 0 0 0.004051 108 105 102 255 0.26373 0.062198 
-1.29311 4.03249 0.058773 0 0 0.00246133 108 105 102 255 0.26373 0.062198 
-1.32095 3.91553 0.058773 0 0 0.00246133 108 105 102 255 0.26373 0.062198 
-1.29311 3.94408 0.058773 0 0 0.00246133 108 105 102 255 0.26373 0.062198 
-1.29311 3.94408 0.058773 0 0 0.00405155 108 105 102 255 0.26373 0.062198 
-1.32095 3.91553 0.058773 0 0 0.00405155 108 105 102 255 0.26373 0.062198 
-1.17904 3.91553 0.058773 0 0 0.00405155 108 105 102 255 0.26373 0.062198 
-1.29311 3.94408 0.058773 -0 0 0.00246159 108 105 102 255 0.26373 0.062198 
-1.17904 3.91553 0.058773 -0 0 0.00246159 108 105 102 255 0.26373 0.062198 
-1.20689 3.94408 0.058773 -0 0 0.00246159 108 105 102 255 0.26373 0.062198 
-1.20689 3.94408 0.058773 -0 0 0.00405246 108 105 102 255 0.26373 0.062198 
-1.17904 3.91553 0.058773 -0 0 0.00405246 108 105 102 255 0.26373 0.062198 
-1.17904 4.06104 0.058773 -0 0 0.00405246 108 105 102 255 0.26373 0.062198 
-1.20689 3.94408 0.058773 0 0 0.00246221 108 105 102 255 0.26373 0.062198 
-1.17904 4.06104 0.058773 0 0 0.00246221 108 105 102 255 0.26373 0.062198 
-1.20689 4.03249 0.058773 0 0 0.00246221 108 105 102 255 0.26373 0.062198 
-1.20689 2.33452 0.058773 0 -0 0.00405323 108 105 102 255 0.26373 0.062198 
-1.17904 2.36308 0.058773 0 -0 0.00405323 108 105 102 255 0.26373 0.062198 
-1.32096 2.36308 0.058773 0 -0 0.00405323 108 105 102 255 0.26373 0.062198 
-1.20689 2.33452 0.058773 0 0 0.00246244 108 105 102 255 0.26373 0.062198 
-1.32096 2.36308 0.058773 0 0 0.00246244 108 105 102 255 0.26373 0.062198 
-1.29311 2.33452 0.058773 0 0 0.00246244 108 105 102 255 0.26373 0.062198 
-1.29311 2.33452 0.058773 0 0 0.00405274 108 105 102 255 0.26373 0.062198 
-1.32096 2.36308 0.058773 0 0 0.00405274 108 105 102 255 0.26373 0.062198 
-1.32096 2.21756 0.058773 0 0 0.00405274 108 105 102 255 0.26373 0.062198 
-1.29311 2.33452 0.058773 0 0 0.00246223 108 105 102 255 0.26373 0.062198 
-1.32096 2.21756 0.058773 0 0 0.00246223 108 105 102 255 0.26373 0.062198 
-1.29311 2.24611 0.058773 0 0 0.00246223 108 105 102 255 0.26373 0.062198 
-1.29311 2.24611 0.058773 0 0 0.00405181 108 105 102 255 0.26373 0.062198 
-1.32096 2.21756 0.058773 0 0 0.00405181 108 105 102 255 0.26373 0.062198 
-1.17904 2.21756 0.058773 0 0 0.00405181 108 105 102 255 0.26373 0.062198 
-1.29311 2.24611 0.058773 -0 0 0.00246157 108 105 102 255 0.26373 0.062198 
-1.17904 2.21756 0.058773 -0 0 0.00246157 108 105 102 255 0.26373 0.062198 
-1.20689 2.24611 0.058773 -0 0 0.00246157 108 105 102 255 0.26373 0.062198 
-1.20689 2.24611 0.058773 -0 0 0.00405274 108 105 102 255 0.26373 0.062198 
-1.17904 2.21756 0.058773 -0 0 0.00405274 108 105 102 255 0.26373 0.062198 
-1.17904 2.36308 0.058773 -0 0 0.00405274 108 105 102 255 0.26373 0.062198 
-1.20689 2.24611 0.058773 0 0 0.00246223 108 105 102 255 0.26373 0.062198 
-1.17904 2.36308 0.058773 0 0 0.00246223 108 105 102 255 0.26373 0.062198 
-1.20689 2.33452 0.058773 0 0 0.00246223 108 105 102 255 0.26373 0.062198 
-1.17904 4.06104 0.058773 0 0.00833991 0 125 121 118 255 0.297952 0.062198 
-1.17904 4.06104 4e-06 0 0.00833991 0 125 121 118 255 0.297952 0.062198 
-1.32095 4.06104 4e-06 0 0.00833991 0 125 121 118 255 0.297952 0.062198 
-1.17904 4.06104 0.058773 0 0.00833991 0 125 121 118 255 0.297952 0.062198 
-1.32095 4.06104 4e-06 0 0.00833991 0 125 121 118 255 0.297952 0.062198 
-1.32095 4.06104 0.058773 0 0.00833991 0 125 121 118 255 0.297952 0.062198 
-1.32095 4.06104 0.058773 -0.00855147 0 -0 91 88 86 255 0.235124 0.062198 
-1.32095 4.06104 4e-06 -0.00855147 0 -0 91 88 86 255 0.235124 0.062198 
-1.32095 3.91553 4e-06 -0.00855147 0 -0 91 88 86 255 0.235124 0.062198 
-1.32095 4.06104 0.058773 -0.00855147 -0 0 91 88 86 255 0.235124 0.062198 
-1.32095 3.91553 4e-06 -0.00855147 -0 0 91 88 86 255 0.235124 0.062198 
-1.32095 3.91553 0.058773 -0.00855147 -0 0 91 88 86 255 0.235124 0.062198 
-1.32095 3.91553 0.058773 0 -0.00833991 0 75 72 70 255 0.209288 0.062198 
-1.32095 3.91553 4e-06 0 -0.00833991 0 75 72 70 255 0.209288 0.062198 
-1.17904 3.91553 4e-06 0 -0.00833991 0 75 72 70 255 0.209288 0.062198 
-1.32095 3.91553 0.058773 0 -0.00833991 0 75 72 70 255 0.209288 0.062198 
-1.17904 3.91553 4e-06 0 -0.00833991 0 75 72 70 255 0.209288 0.062198 
-1.17904 3.91553 0.058773 0 -0.00833991 0 75 72 70 255 0.209288 0.062198 
-1.17904 3.91553 0.058773 0.00855147 0 0 91 88 86 255 0.235124 0.062198 
-1.17904 3.91553 4e-06 0.00855147 0 0 91 88 86 255 0.235124 0.062198 
-1.17904 4.06104 4e-06 0.00855147 0 0 91 88 86 255 0.235124 0.062198 
-1.17904 3.91553 0.058773 0.00855147 -0 0 91 88 86 255 0.235124 0.062198 
-1.17904 4.06104 4e-06 0.00855147 -0 0 91 88 86 255 0.235124 0.062198 
-1.17904 4.06104 0.058773 0.00855147 -0 0 91 88 86 255 0.235124 0.062198 
-1.17904 2.36308 0.058773 0 0.0083405 0 125 121 118 255 0.297952 0.062198 
-1.17904 2.36308 4e-06 0 0.0083405 0 125 121 118 255 0.297952 0.062198 
-1.32096 2.36308 4e-06 0 0.0083405 0 125 121 118 255 0.297952 0.062198 
-1.17904 2.36308 0.058773 0 0.0083405 0 125 121 118 255 0.297952 0.062198 
-1.32096 2.36308 4e-06 0 0.0083405 0 125 121 118 255 0.297952 0.062198 
-1.32096 2.36308 0.058773 0 0.0083405 0 125 121 118 255 0.297952 0.062198 
-1.32096 2.36308 0.058773 -0.00855206 0 -0 91 88 86 255 0.235124 0.062198 
-1.32096 2.36308 4e-06 -0.00855206 0 -0 91 88 86 255 0.235124 0.062198 
-1.32096 2.21756 4e-06 -0.00855206 0 -0 91 88 86 255 0.235124 0.062198 
-1.32096 2.36308 0.058773 -0.00855206 -0 0 91 88 86 255 0.235124 0.062198 
-1.32096 2.21756 4e-06 -0.00855206 -0 0 91 88 86 255 0.235124 0.062198 
-1.32096 2.21756 0.058773 -0.00855206 -0 0 91 88 86 255 0.235124 0.062198 
-1.32096 2.21756 0.058773 0 -0.0083405 0 75 72 70 255 0.209288 0.062198 
-1.32096 2.21756 4e-06 0 -0.0083405 0 75 72 70 255 0.209288 0.062198 
-1.17904 2.21756 4e-06 0 -0.0083405 0 75 72 70 255 0.209288 0.062198 
-1.32096 2.21756 0.058773 0 -0.0083405 0 75 72 70 255 0.209288 0.062198 
-1.17904 2.21756 4e-06 0 -0.0083405 0 75 72 70 255 0.209288 0.062198 
-1.17904 2.21756 0.058773 0 -0.0083405 0 75 72 70 255 0.209288 0.062198 
-1.17904 2.21756 0.058773 0.00855206 0 0 91 88 86 255 0.235124 0.062198 
-1.17904 2.21756 4e-06 0.00855206 0 0 91 88 86 255 0.235124 0.062198 
-1.17904 2.36308 4e-06 0.00855206 0 0 91 88 86 255 0.235124 0.062198 
-1.17904 2.21756 0.058773 0.00855206 -0 0 91 88 86 255 0.235124 0.062198 
-1.17904 2.36308 4e-06 0.00855206 -0 0 91 88 86 255 0.235124 0.062198 
-1.17904 2.36308 0.058773 0.00855206 -0 0 91 88 86 255 0.235124 0.062198 
0 4 0 0 -0 1.25 108 105 102 255 0.750427 0.789687 
0 5 0 0 -0 1.25 108 105 102 255 0.750427 0.873158 
-1.25 5 0 0 -0 1.25 108 105 102 255 0.8862 0.873158 
0 4 0 0 0 1.25 108 105 102 255 0.750427 0.789687 
-1.25 5 0 0 0 1.25 108 105 102 255 0.8862 0.873158 
-1.25 4 0 0 0 1.25 108 105 102 255 0.8862 0.789687 
-2.5 4 0 0 -0 1.25 108 105 102 255 0.750426 0.789687 
-2.5 5 0 0 -0 1.25 108 105 102 255 0.750426 0.873158 
-3.75 5 0 0 -0 1.25 108 105 102 255 0.8862 0.873158 
-2.5 4 0 0 0 1.25 108 105 102 255 0.750426 0.789687 
-3.75 5 0 0 0 1.25 108 105 102 255 0.8862 0.873158 
-3.75 4 0 0 0 1.25 108 105 102 255 0.8862 0.789687 
-1.25 4 0 0 -0 1.25 108 105 102 255 0.750427 0.789687 
-1.25 5 0 0 -0 1.25 108 105 102 255 0.750427 0.873158 
-2.5 5 0 0 -0 1.25 108 105 102 255 0.8862 0.873158 
-1.25 4 0 0 0 1.25 108 105 102 255 0.750427 0.789687 
-2.5 5 0 0 0 1.25 108 105 102 255 0.8862 0.873158 
-2.5 4 0 0 0 1.25 108 105 102 255 0.8862 0.789687 
-5 5 0 0 0 1.25 108 105 102 255 0.8862 0.873158 
-5 4 0 0 0 1.25 108 105 102 255 0.8862 0.789687 
-3.75 4 0 0 0 1.25 108 105 102 255 0.750427 0.789687 
-5 5 0 -0 0 1.25 108 105 102 255 0.8862 0.873158 
-3.75 4 0 -0 0 1.25 108 105 102 255 0.750427 0.789687 
-3.75 5 0 -0 0 1.25 108 105 102 255 0.750427 0.873158 
-1.25 0 0 0 0 5 108 105 102 255 0.990896 0.640965 
0 0 0 0 0 5 108 105 102 255 0.919392 0.640965 
0 4 0 0 0 5 108 105 102 255 0.919392 0.701964 
-1.25 0 0 0 0 5 108 105 102 255 0.990896 0.640965 
0 4 0 0 0 5 108 105 102 255 0.919392 0.701964 
-1.25 4 0 0 0 5 108 105 102 255 0.990896 0.701964 
-2.5 0 0 0 0 5 108 105 102 255 0.990895 0.640965 
-1.25 0 0 0 0 5 108 105 102 255 0.919392 0.640965 
-1.25 4 0 0 0 5 108 105 102 255 0.919392 0.701964 
-2.5 0 0 0 0 5 108 105 102 255 0.990895 0.640965 
-1.25 4 0 0 0 5 108 105 102 255 0.919392 0.701964 
-2.5 4 0 0 0 5 108 105 102 255 0.990895 0.701964 
-2.5 0 0 0 0 0 108 105 102 255 0.990895 0.640965 
-2.5 4 0 0 0 0 108 105 102 255 0.990895 0.701964 
-2.5 3.20601 0 0 0 0 108 105 102 255 0.990895 0.689764 
-2.5 0 0 0 0 0 108 105 102 255 0.990895 0.640965 
-2.5 3.20601 0 0 0 0 108 105 102 255 0.990895 0.689764 
-2.5 1.99992 0 0 0 0 108 105 102 255 0.990895 0.671463 
-2.5 3.20601 0 0 -0 0.992487 108 105 102 255 0.919392 0.689764 
-2.5 4 0 0 -0 0.992487 108 105 102 255 0.919392 0.701964 
-3.75 4 0 0 -0 0.992487 108 105 102 255 0.990895 0.701964 
-2.5 3.20601 0 0 0 0.995862 108 105 102 255 0.919392 0.689764 
-3.75 4 0 0 0 0.995862 108 105 102 255 0.990895 0.701964 
-3.75425 3.20601 0 0 0 0.995862 108 105 102 255 0.990895 0.689764 
-5 4 0 0 0 5 108 105 102 255 0.990896 0.701964 
-5 0 0 0 0 5 108 105 102 255 0.990896 0.640965 
-3.75 0 0 0 0 5 108 105 102 255 0.919392 0.640965 
-5 4 0 0 0 2.4829 108 105 102 255 0.990896 0.701964 
-3.75 0 0 0 0 2.4829 108 105 102 255 0.919392 0.640965 
-3.75425 1.99992 0 0 0 2.4829 108 105 102 255 0.919392 0.671463 
-5 4 0 0 0 1.50249 108 105 102 255 0.990896 0.701964 
-3.75425 1.99992 0 0 0 1.50249 108 105 102 255 0.919392 0.671463 
-3.75425 3.20601 0 0 0 1.50249 108 105 102 255 0.919392 0.689764 
-5 4 0 -0 0 0.992487 108 105 102 255 0.990896 0.701964 
-3.75425 3.20601 0 -0 0 0.992487 108 105 102 255 0.919392 0.689764 
-3.75 4 0 -0 0 0.992487 108 105 102 255 0.919392 0.701964 
-3.75 0 0 0 0 2.4999 108 105 102 255 0.990895 0.640965 
-2.5 0 0 0 0 2.4999 108 105 102 255 0.919392 0.640965 
-2.5 1.99992 0 0 0 2.4999 108 105 102 255 0.919392 0.671463 
-3.75 0 0 0 -0 2.5084 108 105 102 255 0.990895 0.640965 
-2.5 1.99992 0 0 -0 2.5084 108 105 102 255 0.919392 0.671463 
-3.75425 1.99992 0 0 -0 2.5084 108 105 102 255 0.990895 0.671463 
3 0 1 2
3 3 4 5
3 6 7 8
3 9 10 11
3 12 13 14
3 15 16 17
3 18 19 20
3 21 22 23
3 24 25 26
3 27 28 29
3 30 31 32
3 33 34 35
3 36 37 38
3 39 40 41
3 42 43 44
3 45 46 47
3 48 49 50
3 51 52 53
3 54 55 56
3 57 58 59
3 60 61 62
3 63 64 65
3 66 67 68
3 69 70 71
3 72 73 74
3 75 76 77
3 78 79 80
3 81 82 83
3 84 85 86
3 87 88 89
3 90 91 92
3 93 94 95
3 96 97 98
3 99 100 101
3 102 103 104
3 105 106 107
3 108 109 110
3 111 112 113
3 114 115 116
3 117 118 119
3 120 121 122
3 123 124 125
3 126 127 128
3 129 130 131
3 132 133 134
3 135 136 137
3 138 139 140
3 141 142 143
3 144 145 146
3 147 148 149
3 150 151 152
3 153 154 155
3 156 157 158
3 159 160 161
3 162 163 164
3 165 166 167
3 168 169 170
3 171 172 173
3 174 175 176
3 177 178 179
3 180 181 182
3 183 184 185
3 186 187 188
3 189 190 191
3 192 193 194
3 195 196 197
3 198 199 200
3 201 202 203
3 204 205 206
3 207 208 209
3 210 211 212
3 213 214 215
3 216 217 218
3 219 220 221
3 222 223 224
3 225 226 227
3 228 229 230
3 231 232 233
3 234 235 236
3 237 238 239
3 240 241 242
3 243 244 245
3 246 247 248
3 249 250 251
3 252 253 254
3 255 256 257
3 258 259 260
3 261 262 263
3 264 265 266
3 267 268 269
3 270 271 272
3 273 274 275
3 276 277 278
3 279 280 281
3 282 283 284
3 285 286 287
3 288 289 290
3 291 292 293
3 294 295 296
3 297 298 299
3 300 301 302
3 303 304 305
3 306 307 308
3 309 310 311
3 312 313 314
3 315 316 317
3 318 319 320
3 321 322 323
3 324 325 326
3 327 328 329
3 330 331 332
3 333 334 335
3 336 337 338
3 339 340 341
3 342 343 344
3 345 346 347
3 348 349 350
3 351 352 353
3 354 355 356
3 357 358 359
3 360 361 362
3 363 364 365
3 366 367 368
3 369 370 371
3 372 373 374
3 375 376 377
3 378 379 380
3 381 382 383
3 384 385 386
3 387 388 389
3 390 391 392
3 393 394 395
3 396 397 398
3 399 400 401
3 402 403 404
3 405 406 407
3 408 409 410
3 411 412 413
3 414 415 416
3 417 418 419
3 420 421 422
3 423 424 425
3 426 427 428
3 429 430 431
3 432 433 434
3 435 436 437
3 438 439 440
3 441 442 443
3 444 445 446
3 447 448 449
3 450 451 452
3 453 454 455
3 456 457 458
3 459 460 461
3 462 463 464
3 465 466 467
3 468 469 470
3 471 472 473
3 474 475 476
3 477 478 479
3 480 481 482
3 483 484 485
3 486 487 488
3 489 490 491
3 492 493 494
3 495 496 497
3 498 499 500
3 501 502 503
3 504 505 506
3 507 508 509
3 510 511 512
3 513 514 515
3 516 517 518
3 519 520 521
3 522 523 524
3 525 526 527
3 528 529 530
3 531 532 533
3 534 535 536
3 537 538 539
3 540 541 542
3 543 544 545
3 546 547 548
3 549 550 551
3 552 553 554
3 555 556 557
3 558 559 560
3 561 562 563
3 564 565 566
3 567 568 569
3 570 571 572
3 573 574 575
3 576 577 578
3 579 580 581
3 582 583 584
3 585 586 587
3 588 589 590
3 591 592 593
3 594 595 596
3 597 598 599
3 600 601 602
3 603 604 605
