ply
format ascii 1.0
comment Feeney's Flatenator generated
comment TextureFile SpaceInteriors_Texture.png
element vertex 126
property float x
property float y
property float z
element face 42
property list uchar int vertex_indices
end_header
9.73651 4.59234 0.21315 
9.6524 4.75648 0.21315 
0.263478 0.407659 0.21315 
9.73651 4.59234 0.21315 
0.263478 0.407659 0.21315 
0.347585 0.243515 0.21315 
0.263478 0.407659 0.018883 
0.263478 0.407659 0.21315 
9.6524 4.75648 0.21315 
0.263478 0.407659 0.018883 
9.6524 4.75648 0.21315 
9.6524 4.75648 0.018883 
0.347585 0.243515 0.21315 
0.347585 0.243515 0.018883 
9.73651 4.59234 0.018883 
0.347585 0.243515 0.21315 
9.73651 4.59234 0.018883 
9.73651 4.59234 0.21315 
9.65241 0.243515 0.213158 
9.73651 0.407659 0.213158 
0.347587 4.75648 0.213158 
9.65241 0.243515 0.213158 
0.347587 4.75648 0.213158 
0.263478 4.59234 0.213158 
9.73651 0.407659 0.213158 
9.73651 0.407659 0.01889 
0.347587 4.75648 0.01889 
9.73651 0.407659 0.213158 
0.347587 4.75648 0.01889 
0.347587 4.75648 0.213158 
9.65241 0.243515 0.01889 
9.65241 0.243515 0.213158 
0.263478 4.59234 0.213158 
9.65241 0.243515 0.01889 
0.263478 4.59234 0.213158 
0.263478 4.59234 0.01889 
2.5 0 0 
7.5 0 0 
7.5 5 0 
2.5 0 0 
7.5 5 0 
2.5 5 0 
-3e-06 5 0.321823 
10 5 0.321823 
10 5 0 
-3e-06 5 0.321823 
10 5 0 
-3e-06 5 0 
-3e-06 0 0 
10 0 0 
10 0 0.321823 
-3e-06 0 0 
10 0 0.321823 
-3e-06 0 0.321823 
10 0 0.321823 
10 0 0 
10 5 0 
10 0 0.321823 
10 5 0 
10 5 0.321823 
-3e-06 0 0 
-3e-06 0 0.321823 
-3e-06 5 0.321823 
-3e-06 0 0 
-3e-06 5 0.321823 
-3e-06 5 0 
-3e-06 0 0.321823 
10 0 0.321823 
9.69446 0.325587 0.321823 
-3e-06 0 0.321823 
9.69446 0.325587 0.321823 
0.305533 0.325587 0.321823 
10 0 0.321823 
10 5 0.321823 
9.69446 4.67441 0.321823 
10 0 0.321823 
9.69446 4.67441 0.321823 
9.69446 0.325587 0.321823 
10 5 0.321823 
-3e-06 5 0.321823 
0.305533 4.67441 0.321823 
10 5 0.321823 
0.305533 4.67441 0.321823 
9.69446 4.67441 0.321823 
-3e-06 5 0.321823 
-3e-06 0 0.321823 
0.305533 0.325587 0.321823 
-3e-06 5 0.321823 
0.305533 0.325587 0.321823 
0.305533 4.67441 0.321823 
0.305533 0.325587 0.321823 
9.69446 0.325587 0.321823 
9.69446 0.325587 0 
0.305533 0.325587 0.321823 
9.69446 0.325587 0 
0.305533 0.325587 0 
9.69446 0.325587 0.321823 
9.69446 4.67441 0.321823 
9.69446 4.67441 0 
9.69446 0.325587 0.321823 
9.69446 4.67441 0 
9.69446 0.325587 0 
9.69446 4.67441 0.321823 
0.305533 4.67441 0.321823 
0.305533 4.67441 0 
9.69446 4.67441 0.321823 
0.305533 4.67441 0 
9.69446 4.67441 0 
0.305533 4.67441 0.321823 
0.305533 0.325587 0.321823 
0.305533 0.325587 0 
0.305533 4.67441 0.321823 
0.305533 0.325587 0 
0.305533 4.67441 0 
-3e-06 5 0 
-3e-06 0 0 
2.5 0 0 
-3e-06 5 0 
2.5 0 0 
2.5 5 0 
7.5 5 0 
7.5 0 0 
10 0 0 
7.5 5 0 
10 0 0 
10 5 0 
3 0 1 2
3 3 4 5
3 6 7 8
3 9 10 11
3 12 13 14
3 15 16 17
3 18 19 20
3 21 22 23
3 24 25 26
3 27 28 29
3 30 31 32
3 33 34 35
3 36 37 38
3 39 40 41
3 42 43 44
3 45 46 47
3 48 49 50
3 51 52 53
3 54 55 56
3 57 58 59
3 60 61 62
3 63 64 65
3 66 67 68
3 69 70 71
3 72 73 74
3 75 76 77
3 78 79 80
3 81 82 83
3 84 85 86
3 87 88 89
3 90 91 92
3 93 94 95
3 96 97 98
3 99 100 101
3 102 103 104
3 105 106 107
3 108 109 110
3 111 112 113
3 114 115 116
3 117 118 119
3 120 121 122
3 123 124 125
