ply
format ascii 1.0
comment Feeney's Flatenator generated
comment TextureFile SpaceInteriors_Texture.png
element vertex 84
property float x
property float y
property float z
property float nx
property float ny
property float nz
property float texture_u
property float texture_v
element face 28
property list uchar int vertex_indices
end_header
0 5 0 -0 -25 0 0.749611 0.672706 
-5 5 0 -0 -25 0 0.587741 0.672706 
-5 5 -5 -0 -25 0 0.587741 0.510713 
0 5 0 0 -25 -0 0.749611 0.672706 
-5 5 -5 0 -25 -0 0.587741 0.510713 
0 5 -5 0 -25 -0 0.749611 0.510713 
-5 5 -5 0 -36.3003 0 0.360306 0.060913 
-12.117 5 -9.11768 0 -36.3003 0 0.360306 0.060913 
-8.88596 5 -12.3488 0 -36.3003 0 0.360306 0.060913 
0 5 -5 -0 -36.744 0 0.360306 0.060913 
-5 5 -5 -0 -36.744 0 0.360306 0.060913 
-8.88596 5 -12.3488 -0 -36.744 0 0.360306 0.060913 
0 5 -5 0 -47.1594 0 0.360306 0.060913 
-8.88596 5 -12.3488 0 -47.1594 0 0.360306 0.060913 
-4.82703 5 -14.2992 0 -47.1594 0 0.360306 0.060913 
-5 5 0 -0 -48.3413 0 0.360306 0.060913 
-15 5 0 -0 -48.3413 0 0.360306 0.060913 
-14.2907 5 -4.83413 -0 -48.3413 0 0.360306 0.060913 
-5 5 -5 0 -46.4535 0 0.360306 0.060913 
-5 5 0 0 -46.4535 0 0.360306 0.060913 
-14.2907 5 -4.83413 0 -46.4535 0 0.360306 0.060913 
-5 5 -5 -0 -39.4366 0 0.360306 0.060913 
-14.2907 5 -4.83413 -0 -39.4366 0 0.360306 0.060913 
-12.117 5 -9.11768 -0 -39.4366 0 0.360306 0.060913 
0 5 -5 0 -48.2703 -0 0.360306 0.060913 
-4.82703 5 -14.2992 0 -48.2703 -0 0.360306 0.060913 
0 5 -15 0 -48.2703 -0 0.360306 0.060913 
-14.2907 5 -4.83413 24.1706 0 3.5465 0.988669 0.701531 
-15 5 0 24.1706 0 3.5465 0.921255 0.701531 
-15 0 0 24.1706 0 3.5465 0.921255 0.641378 
-14.2907 5 -4.83413 24.1706 0 3.5465 0.988669 0.701531 
-15 0 0 24.1706 0 3.5465 0.921255 0.641378 
-14.2907 0 -4.83413 24.1706 0 3.5465 0.988669 0.641378 
-12.117 5 -9.11768 21.4177 0 10.8685 0.988669 0.701531 
-14.2907 5 -4.83413 21.4177 0 10.8685 0.921255 0.701531 
-14.2907 0 -4.83413 21.4177 0 10.8685 0.921255 0.641378 
-12.117 5 -9.11768 21.4177 0 10.8685 0.988669 0.701531 
-14.2907 0 -4.83413 21.4177 0 10.8685 0.921255 0.641378 
-12.117 0 -9.11768 21.4177 0 10.8685 0.988669 0.641378 
-8.88596 5 -12.3488 16.1556 0 16.1552 0.988669 0.701531 
-12.117 5 -9.11768 16.1556 0 16.1552 0.921255 0.701531 
-12.117 0 -9.11768 16.1556 0 16.1552 0.921255 0.641378 
-8.88596 5 -12.3488 16.1556 0 16.1552 0.988669 0.701531 
-12.117 0 -9.11768 16.1556 0 16.1552 0.921255 0.641378 
-8.88596 0 -12.3488 16.1556 0 16.1552 0.988669 0.641378 
-4.82703 5 -14.2992 9.752 0 20.2946 0.988669 0.701531 
-8.88596 5 -12.3488 9.752 0 20.2946 0.921255 0.701531 
-8.88596 0 -12.3488 9.752 0 20.2946 0.921255 0.641378 
-4.82703 5 -14.2992 9.752 0 20.2946 0.988669 0.701531 
-8.88596 0 -12.3488 9.752 0 20.2946 0.921255 0.641378 
-4.82703 0 -14.2992 9.752 0 20.2946 0.988669 0.641378 
0 5 -15 3.504 0 24.1352 0.988669 0.701531 
-4.82703 5 -14.2992 3.504 0 24.1352 0.921255 0.701531 
-4.82703 0 -14.2992 3.504 0 24.1352 0.921255 0.641378 
0 5 -15 3.504 0 24.1352 0.988669 0.701531 
-4.82703 0 -14.2992 3.504 0 24.1352 0.921255 0.641378 
0 0 -15 3.504 0 24.1352 0.988669 0.641378 
0 0 0 0 25 0 0.749611 0.672706 
0 0 -5 0 25 0 0.749611 0.510713 
-5 0 -5 0 25 0 0.587741 0.510713 
0 0 0 0 25 0 0.749611 0.672706 
-5 0 -5 0 25 0 0.587741 0.510713 
-5 0 0 0 25 0 0.587741 0.672706 
-5 0 -5 0 36.3003 0 0.360306 0.060913 
-8.88596 0 -12.3488 0 36.3003 0 0.360306 0.060913 
-12.117 0 -9.11768 0 36.3003 0 0.360306 0.060913 
0 0 -5 0 47.1594 0 0.360306 0.060913 
-4.82703 0 -14.2992 0 47.1594 0 0.360306 0.060913 
-8.88596 0 -12.3488 0 47.1594 0 0.360306 0.060913 
0 0 -5 0 36.744 0 0.360306 0.060913 
-8.88596 0 -12.3488 0 36.744 0 0.360306 0.060913 
-5 0 -5 0 36.744 0 0.360306 0.060913 
-5 0 0 0 48.3413 0 0.360306 0.060913 
-14.2907 0 -4.83413 0 48.3413 0 0.360306 0.060913 
-15 0 0 0 48.3413 0 0.360306 0.060913 
-5 0 -5 0 39.4366 0 0.360306 0.060913 
-12.117 0 -9.11768 0 39.4366 0 0.360306 0.060913 
-14.2907 0 -4.83413 0 39.4366 0 0.360306 0.060913 
-5 0 -5 0 46.4535 -0 0.360306 0.060913 
-14.2907 0 -4.83413 0 46.4535 -0 0.360306 0.060913 
-5 0 0 0 46.4535 -0 0.360306 0.060913 
0 0 -5 0 48.2703 0 0.360306 0.060913 
0 0 -15 0 48.2703 0 0.360306 0.060913 
-4.82703 0 -14.2992 0 48.2703 0 0.360306 0.060913 
3 0 1 2
3 3 4 5
3 6 7 8
3 9 10 11
3 12 13 14
3 15 16 17
3 18 19 20
3 21 22 23
3 24 25 26
3 27 28 29
3 30 31 32
3 33 34 35
3 36 37 38
3 39 40 41
3 42 43 44
3 45 46 47
3 48 49 50
3 51 52 53
3 54 55 56
3 57 58 59
3 60 61 62
3 63 64 65
3 66 67 68
3 69 70 71
3 72 73 74
3 75 76 77
3 78 79 80
3 81 82 83
