ply
format ascii 1.0
comment Feeney's Flatenator generated
comment TextureFile SpaceInteriors_Texture.png
element vertex 132
property float x
property float y
property float z
property float nx
property float ny
property float nz
property uchar red
property uchar green
property uchar blue
property uchar alpha
element face 44
property list uchar int vertex_indices
end_header
0.103694 0 0.103694 0 0 0.0129806 104 114 115 255 
-0.103694 0 0.103694 0 0 0.0129806 104 114 115 255 
-0.103694 -0.062591 0.103694 0 0 0.0129806 104 114 115 255 
0.103694 0 0.103694 0 0 0.0129806 104 114 115 255 
-0.103694 -0.062591 0.103694 0 0 0.0129806 104 114 115 255 
0.103694 -0.062591 0.103694 0 0 0.0129806 104 114 115 255 
0.077427 -0.342693 0.077428 -0 -0.0239798 0 85 94 97 255 
-0.077427 -0.342693 0.077428 -0 -0.0239798 0 85 94 97 255 
-0.077427 -0.342693 -0.077426 -0 -0.0239798 0 85 94 97 255 
0.077427 -0.342693 0.077428 0 -0.0239798 -0 85 94 97 255 
-0.077427 -0.342693 -0.077426 0 -0.0239798 -0 85 94 97 255 
0.077427 -0.342693 -0.077426 0 -0.0239798 -0 85 94 97 255 
0.103694 -0.062591 -0.103694 0 0 -0.0129806 104 114 115 255 
-0.103694 -0.062591 -0.103694 0 0 -0.0129806 104 114 115 255 
-0.103694 0 -0.103694 0 0 -0.0129806 104 114 115 255 
0.103694 -0.062591 -0.103694 0 0 -0.0129806 104 114 115 255 
-0.103694 0 -0.103694 0 0 -0.0129806 104 114 115 255 
0.103694 0 -0.103694 0 0 -0.0129806 104 114 115 255 
0.103694 0 -0.103694 0 0.0430098 0 104 114 115 255 
-0.103694 0 -0.103694 0 0.0430098 0 104 114 115 255 
-0.103694 0 0.103694 0 0.0430098 0 104 114 115 255 
0.103694 0 -0.103694 0 0.0430098 -0 104 114 115 255 
-0.103694 0 0.103694 0 0.0430098 -0 104 114 115 255 
0.103694 0 0.103694 0 0.0430098 -0 104 114 115 255 
-0.103694 0 0.103694 -0.0129806 0 -0 95 104 105 255 
-0.103694 0 -0.103694 -0.0129806 0 -0 95 104 105 255 
-0.103694 -0.062591 -0.103694 -0.0129806 0 -0 95 104 105 255 
-0.103694 0 0.103694 -0.0129806 -0 0 95 104 105 255 
-0.103694 -0.062591 -0.103694 -0.0129806 -0 0 95 104 105 255 
-0.103694 -0.062591 0.103694 -0.0129806 -0 0 95 104 105 255 
0.103694 0 -0.103694 0.0129806 0 -0 95 104 105 255 
0.103694 0 0.103694 0.0129806 0 -0 95 104 105 255 
0.103694 -0.062591 0.103694 0.0129806 0 -0 95 104 105 255 
0.103694 0 -0.103694 0.0129806 0 0 95 104 105 255 
0.103694 -0.062591 0.103694 0.0129806 0 0 95 104 105 255 
0.103694 -0.062591 -0.103694 0.0129806 0 0 95 104 105 255 
0.103694 -0.062591 0.103694 0 -0.0138888 0.0092495 104 114 115 255 
-0.103694 -0.062591 0.103694 0 -0.0138888 0.0092495 104 114 115 255 
-0.036724 -0.107191 0.036724 0 -0.0138888 0.0092495 104 114 115 255 
0.103694 -0.062591 0.103694 0 -0.00491881 0.00327578 104 114 115 255 
-0.036724 -0.107191 0.036724 0 -0.00491881 0.00327578 104 114 115 255 
0.036724 -0.107191 0.036724 0 -0.00491881 0.00327578 104 114 115 255 
-0.103694 -0.062591 0.103694 -0.0092495 -0.0138888 -0 95 104 105 255 
-0.103694 -0.062591 -0.103694 -0.0092495 -0.0138888 -0 95 104 105 255 
-0.036724 -0.107191 -0.036722 -0.0092495 -0.0138888 -0 95 104 105 255 
-0.103694 -0.062591 0.103694 -0.00327569 -0.00491868 0 95 104 105 255 
-0.036724 -0.107191 -0.036722 -0.00327569 -0.00491868 0 95 104 105 255 
-0.036724 -0.107191 0.036724 -0.00327569 -0.00491868 0 95 104 105 255 
-0.103694 -0.062591 -0.103694 0 -0.0138892 -0.0092495 104 114 115 255 
0.103694 -0.062591 -0.103694 0 -0.0138892 -0.0092495 104 114 115 255 
0.036724 -0.107191 -0.036722 0 -0.0138892 -0.0092495 104 114 115 255 
-0.103694 -0.062591 -0.103694 0 -0.00491896 -0.00327578 104 114 115 255 
0.036724 -0.107191 -0.036722 0 -0.00491896 -0.00327578 104 114 115 255 
-0.036724 -0.107191 -0.036722 0 -0.00491896 -0.00327578 104 114 115 255 
0.103694 -0.062591 -0.103694 0.0092495 -0.0138888 0 95 104 105 255 
0.103694 -0.062591 0.103694 0.0092495 -0.0138888 0 95 104 105 255 
0.036724 -0.107191 0.036724 0.0092495 -0.0138888 0 95 104 105 255 
0.103694 -0.062591 -0.103694 0.00327569 -0.00491868 0 95 104 105 255 
0.036724 -0.107191 0.036724 0.00327569 -0.00491868 0 95 104 105 255 
0.036724 -0.107191 -0.036722 0.00327569 -0.00491868 0 95 104 105 255 
0.036724 -0.107191 0.036724 0 0 0.0129975 104 114 115 255 
-0.036724 -0.107191 0.036724 0 0 0.0129975 104 114 115 255 
-0.036724 -0.284153 0.036724 0 0 0.0129975 104 114 115 255 
0.036724 -0.107191 0.036724 0 0 0.0129975 104 114 115 255 
-0.036724 -0.284153 0.036724 0 0 0.0129975 104 114 115 255 
0.036724 -0.284153 0.036724 0 0 0.0129975 104 114 115 255 
-0.036724 -0.107191 0.036724 -0.0129972 0 -0 95 104 105 255 
-0.036724 -0.107191 -0.036722 -0.0129972 0 -0 95 104 105 255 
-0.036724 -0.284153 -0.036722 -0.0129972 0 -0 95 104 105 255 
-0.036724 -0.107191 0.036724 -0.0129972 -0 0 95 104 105 255 
-0.036724 -0.284153 -0.036722 -0.0129972 -0 0 95 104 105 255 
-0.036724 -0.284153 0.036724 -0.0129972 -0 0 95 104 105 255 
-0.036724 -0.107191 -0.036722 0 0 -0.0129975 104 114 115 255 
0.036724 -0.107191 -0.036722 0 0 -0.0129975 104 114 115 255 
0.036724 -0.284153 -0.036722 0 0 -0.0129975 104 114 115 255 
-0.036724 -0.107191 -0.036722 0 0 -0.0129975 104 114 115 255 
0.036724 -0.284153 -0.036722 0 0 -0.0129975 104 114 115 255 
-0.036724 -0.284153 -0.036722 0 0 -0.0129975 104 114 115 255 
0.036724 -0.107191 -0.036722 0.0129972 0 -0 95 104 105 255 
0.036724 -0.107191 0.036724 0.0129972 0 -0 95 104 105 255 
0.036724 -0.284153 0.036724 0.0129972 0 -0 95 104 105 255 
0.036724 -0.107191 -0.036722 0.0129972 0 0 95 104 105 255 
0.036724 -0.284153 0.036724 0.0129972 0 0 95 104 105 255 
0.036724 -0.284153 -0.036722 0.0129972 0 0 95 104 105 255 
0.036724 -0.284153 0.036724 0 0.00298963 0.00231927 104 114 115 255 
-0.036724 -0.284153 0.036724 0 0.00298963 0.00231927 104 114 115 255 
-0.077427 -0.31573 0.077428 0 0.00298963 0.00231927 104 114 115 255 
0.036724 -0.284153 0.036724 0 0.00630318 0.00488982 104 114 115 255 
-0.077427 -0.31573 0.077428 0 0.00630318 0.00488982 104 114 115 255 
0.077427 -0.31573 0.077428 0 0.00630318 0.00488982 104 114 115 255 
-0.036724 -0.284153 0.036724 -0.0023192 0.00298947 0 104 114 115 255 
-0.036724 -0.284153 -0.036722 -0.0023192 0.00298947 0 104 114 115 255 
-0.077427 -0.31573 -0.077426 -0.0023192 0.00298947 0 104 114 115 255 
-0.036724 -0.284153 0.036724 -0.00488982 0.00630302 0 104 114 115 255 
-0.077427 -0.31573 -0.077426 -0.00488982 0.00630302 0 104 114 115 255 
-0.077427 -0.31573 0.077428 -0.00488982 0.00630302 0 104 114 115 255 
-0.036724 -0.284153 -0.036722 0 0.00298963 -0.00231927 104 114 115 255 
0.036724 -0.284153 -0.036722 0 0.00298963 -0.00231927 104 114 115 255 
0.077427 -0.31573 -0.077426 0 0.00298963 -0.00231927 104 114 115 255 
-0.036724 -0.284153 -0.036722 0 0.00630318 -0.00488982 104 114 115 255 
0.077427 -0.31573 -0.077426 0 0.00630318 -0.00488982 104 114 115 255 
-0.077427 -0.31573 -0.077426 0 0.00630318 -0.00488982 104 114 115 255 
0.036724 -0.284153 -0.036722 0.0023192 0.00298947 -0 104 114 115 255 
0.036724 -0.284153 0.036724 0.0023192 0.00298947 -0 104 114 115 255 
0.077427 -0.31573 0.077428 0.0023192 0.00298947 -0 104 114 115 255 
0.036724 -0.284153 -0.036722 0.00488982 0.00630302 0 104 114 115 255 
0.077427 -0.31573 0.077428 0.00488982 0.00630302 0 104 114 115 255 
0.077427 -0.31573 -0.077426 0.00488982 0.00630302 0 104 114 115 255 
0.077427 -0.31573 0.077428 0 0 0.00417533 104 114 115 255 
-0.077427 -0.31573 0.077428 0 0 0.00417533 104 114 115 255 
-0.077427 -0.342693 0.077428 0 0 0.00417533 104 114 115 255 
0.077427 -0.31573 0.077428 0 0 0.00417533 104 114 115 255 
-0.077427 -0.342693 0.077428 0 0 0.00417533 104 114 115 255 
0.077427 -0.342693 0.077428 0 0 0.00417533 104 114 115 255 
-0.077427 -0.31573 0.077428 -0.00417533 0 -0 95 104 105 255 
-0.077427 -0.31573 -0.077426 -0.00417533 0 -0 95 104 105 255 
-0.077427 -0.342693 -0.077426 -0.00417533 0 -0 95 104 105 255 
-0.077427 -0.31573 0.077428 -0.00417533 -0 0 95 104 105 255 
-0.077427 -0.342693 -0.077426 -0.00417533 -0 0 95 104 105 255 
-0.077427 -0.342693 0.077428 -0.00417533 -0 0 95 104 105 255 
-0.077427 -0.31573 -0.077426 0 0 -0.00417533 104 114 115 255 
0.077427 -0.31573 -0.077426 0 0 -0.00417533 104 114 115 255 
0.077427 -0.342693 -0.077426 0 0 -0.00417533 104 114 115 255 
-0.077427 -0.31573 -0.077426 0 0 -0.00417533 104 114 115 255 
0.077427 -0.342693 -0.077426 0 0 -0.00417533 104 114 115 255 
-0.077427 -0.342693 -0.077426 0 0 -0.00417533 104 114 115 255 
0.077427 -0.31573 -0.077426 0.00417533 0 -0 95 104 105 255 
0.077427 -0.31573 0.077428 0.00417533 0 -0 95 104 105 255 
0.077427 -0.342693 0.077428 0.00417533 0 -0 95 104 105 255 
0.077427 -0.31573 -0.077426 0.00417533 0 0 95 104 105 255 
0.077427 -0.342693 0.077428 0.00417533 0 0 95 104 105 255 
0.077427 -0.342693 -0.077426 0.00417533 0 0 95 104 105 255 
3 0 1 2
3 3 4 5
3 6 7 8
3 9 10 11
3 12 13 14
3 15 16 17
3 18 19 20
3 21 22 23
3 24 25 26
3 27 28 29
3 30 31 32
3 33 34 35
3 36 37 38
3 39 40 41
3 42 43 44
3 45 46 47
3 48 49 50
3 51 52 53
3 54 55 56
3 57 58 59
3 60 61 62
3 63 64 65
3 66 67 68
3 69 70 71
3 72 73 74
3 75 76 77
3 78 79 80
3 81 82 83
3 84 85 86
3 87 88 89
3 90 91 92
3 93 94 95
3 96 97 98
3 99 100 101
3 102 103 104
3 105 106 107
3 108 109 110
3 111 112 113
3 114 115 116
3 117 118 119
3 120 121 122
3 123 124 125
3 126 127 128
3 129 130 131
