ply
format ascii 1.0
comment Feeney's Flatenator generated
comment TextureFile SpaceInteriors_Texture.png
element vertex 30
property float x
property float y
property float z
property float nx
property float ny
property float nz
property uchar red
property uchar green
property uchar blue
property uchar alpha
element face 10
property list uchar int vertex_indices
end_header
0 5 0.313253 0 0 25 172 167 162 255 
-5 5 0.313253 0 0 25 172 167 162 255 
-5 0 0.313253 0 0 25 172 167 162 255 
0 5 0.313253 0 0 25 172 167 162 255 
-5 0 0.313253 0 0 25 172 167 162 255 
0 0 0.313253 0 0 25 172 167 162 255 
-5 5 0.313253 -0 1.56626 0 157 152 148 255 
0 5 0.313253 -0 1.56626 0 157 152 148 255 
0 5 0 -0 1.56626 0 157 152 148 255 
-5 5 0.313253 0 1.56626 0 157 152 148 255 
0 5 0 0 1.56626 0 157 152 148 255 
-5 5 0 0 1.56626 0 157 152 148 255 
-5 0 0.313253 -1.56626 0 0 141 137 133 255 
-5 5 0.313253 -1.56626 0 0 141 137 133 255 
-5 5 0 -1.56626 0 0 141 137 133 255 
-5 0 0.313253 -1.56626 0 0 141 137 133 255 
-5 5 0 -1.56626 0 0 141 137 133 255 
-5 0 0 -1.56626 0 0 141 137 133 255 
0 0 0.313253 -0 -1.56626 0 125 121 118 255 
-5 0 0.313253 -0 -1.56626 0 125 121 118 255 
-5 0 0 -0 -1.56626 0 125 121 118 255 
0 0 0.313253 0 -1.56626 -0 125 121 118 255 
-5 0 0 0 -1.56626 -0 125 121 118 255 
0 0 0 0 -1.56626 -0 125 121 118 255 
0 5 0.313253 1.56626 0 0 141 137 133 255 
0 0 0.313253 1.56626 0 0 141 137 133 255 
0 0 0 1.56626 0 0 141 137 133 255 
0 5 0.313253 1.56626 0 0 141 137 133 255 
0 0 0 1.56626 0 0 141 137 133 255 
0 5 0 1.56626 0 0 141 137 133 255 
3 0 1 2
3 3 4 5
3 6 7 8
3 9 10 11
3 12 13 14
3 15 16 17
3 18 19 20
3 21 22 23
3 24 25 26
3 27 28 29
