ply
format ascii 1.0
comment Feeney's Flatenator generated
comment TextureFile SpaceInteriors_Texture.png
element vertex 150
property float x
property float y
property float z
element face 50
property list uchar int vertex_indices
end_header
0.042288 -0.27495 0.042291 
-0.042291 -0.27495 0.042291 
-0.042291 -0.27495 -0.042288 
0.042288 -0.27495 0.042291 
-0.042291 -0.27495 -0.042288 
0.042288 -0.27495 -0.042288 
0.35548 0 0.355486 
-0.35548 0 0.355486 
-0.35548 -0.093024 0.355486 
0.35548 0 0.355486 
-0.35548 -0.093024 0.355486 
0.35548 -0.093024 0.355486 
-0.35548 0 0.355486 
-0.35548 0 -0.35548 
-0.35548 -0.093024 -0.35548 
-0.35548 0 0.355486 
-0.35548 -0.093024 -0.35548 
-0.35548 -0.093024 0.355486 
-0.35548 0 -0.35548 
0.35548 0 -0.35548 
0.35548 -0.093024 -0.35548 
-0.35548 0 -0.35548 
0.35548 -0.093024 -0.35548 
-0.35548 -0.093024 -0.35548 
0.35548 0 -0.35548 
0.35548 0 0.355486 
0.35548 -0.093024 0.355486 
0.35548 0 -0.35548 
0.35548 -0.093024 0.355486 
0.35548 -0.093024 -0.35548 
0.35548 -0.093024 0.355486 
-0.35548 -0.093024 0.355486 
-0.272734 -0.093024 0.272734 
0.35548 -0.093024 0.355486 
-0.272734 -0.093024 0.272734 
0.272734 -0.093024 0.272734 
-0.35548 -0.093024 0.355486 
-0.35548 -0.093024 -0.35548 
-0.272734 -0.093024 -0.272734 
-0.35548 -0.093024 0.355486 
-0.272734 -0.093024 -0.272734 
-0.272734 -0.093024 0.272734 
-0.35548 -0.093024 -0.35548 
0.35548 -0.093024 -0.35548 
0.272734 -0.093024 -0.272734 
-0.35548 -0.093024 -0.35548 
0.272734 -0.093024 -0.272734 
-0.272734 -0.093024 -0.272734 
0.35548 -0.093024 -0.35548 
0.35548 -0.093024 0.355486 
0.272734 -0.093024 0.272734 
0.35548 -0.093024 -0.35548 
0.272734 -0.093024 0.272734 
0.272734 -0.093024 -0.272734 
0.272734 -0.093024 0.272734 
-0.272734 -0.093024 0.272734 
-0.205922 -0.280941 0.205922 
0.272734 -0.093024 0.272734 
-0.205922 -0.280941 0.205922 
0.205922 -0.280941 0.205922 
-0.272734 -0.093024 0.272734 
-0.272734 -0.093024 -0.272734 
-0.205922 -0.280941 -0.205916 
-0.272734 -0.093024 0.272734 
-0.205922 -0.280941 -0.205916 
-0.205922 -0.280941 0.205922 
-0.272734 -0.093024 -0.272734 
0.272734 -0.093024 -0.272734 
0.205922 -0.280941 -0.205916 
-0.272734 -0.093024 -0.272734 
0.205922 -0.280941 -0.205916 
-0.205922 -0.280941 -0.205916 
0.272734 -0.093024 -0.272734 
0.272734 -0.093024 0.272734 
0.205922 -0.280941 0.205922 
0.272734 -0.093024 -0.272734 
0.205922 -0.280941 0.205922 
0.205922 -0.280941 -0.205916 
0.205922 -0.280941 0.205922 
-0.205922 -0.280941 0.205922 
-0.168924 -0.280941 0.168924 
0.205922 -0.280941 0.205922 
-0.168924 -0.280941 0.168924 
0.168921 -0.280941 0.168924 
-0.205922 -0.280941 0.205922 
-0.205922 -0.280941 -0.205916 
-0.168924 -0.280941 -0.168921 
-0.205922 -0.280941 0.205922 
-0.168924 -0.280941 -0.168921 
-0.168924 -0.280941 0.168924 
-0.205922 -0.280941 -0.205916 
0.205922 -0.280941 -0.205916 
0.168921 -0.280941 -0.168921 
-0.205922 -0.280941 -0.205916 
0.168921 -0.280941 -0.168921 
-0.168924 -0.280941 -0.168921 
0.205922 -0.280941 -0.205916 
0.205922 -0.280941 0.205922 
0.168921 -0.280941 0.168924 
0.205922 -0.280941 -0.205916 
0.168921 -0.280941 0.168924 
0.168921 -0.280941 -0.168921 
0.168921 -0.280941 0.168924 
-0.168924 -0.280941 0.168924 
-0.064324 -0.161878 0.064324 
0.168921 -0.280941 0.168924 
-0.064324 -0.161878 0.064324 
0.064327 -0.161878 0.064324 
-0.168924 -0.280941 0.168924 
-0.168924 -0.280941 -0.168921 
-0.064324 -0.161878 -0.064317 
-0.168924 -0.280941 0.168924 
-0.064324 -0.161878 -0.064317 
-0.064324 -0.161878 0.064324 
-0.168924 -0.280941 -0.168921 
0.168921 -0.280941 -0.168921 
0.064327 -0.161878 -0.064317 
-0.168924 -0.280941 -0.168921 
0.064327 -0.161878 -0.064317 
-0.064324 -0.161878 -0.064317 
0.168921 -0.280941 -0.168921 
0.168921 -0.280941 0.168924 
0.064327 -0.161878 0.064324 
0.168921 -0.280941 -0.168921 
0.064327 -0.161878 0.064324 
0.064327 -0.161878 -0.064317 
0.064327 -0.161878 0.064324 
-0.064324 -0.161878 0.064324 
-0.042291 -0.27495 0.042291 
0.064327 -0.161878 0.064324 
-0.042291 -0.27495 0.042291 
0.042288 -0.27495 0.042291 
-0.064324 -0.161878 0.064324 
-0.064324 -0.161878 -0.064317 
-0.042291 -0.27495 -0.042288 
-0.064324 -0.161878 0.064324 
-0.042291 -0.27495 -0.042288 
-0.042291 -0.27495 0.042291 
-0.064324 -0.161878 -0.064317 
0.064327 -0.161878 -0.064317 
0.042288 -0.27495 -0.042288 
-0.064324 -0.161878 -0.064317 
0.042288 -0.27495 -0.042288 
-0.042291 -0.27495 -0.042288 
0.064327 -0.161878 -0.064317 
0.064327 -0.161878 0.064324 
0.042288 -0.27495 0.042291 
0.064327 -0.161878 -0.064317 
0.042288 -0.27495 0.042291 
0.042288 -0.27495 -0.042288 
3 0 1 2
3 3 4 5
3 6 7 8
3 9 10 11
3 12 13 14
3 15 16 17
3 18 19 20
3 21 22 23
3 24 25 26
3 27 28 29
3 30 31 32
3 33 34 35
3 36 37 38
3 39 40 41
3 42 43 44
3 45 46 47
3 48 49 50
3 51 52 53
3 54 55 56
3 57 58 59
3 60 61 62
3 63 64 65
3 66 67 68
3 69 70 71
3 72 73 74
3 75 76 77
3 78 79 80
3 81 82 83
3 84 85 86
3 87 88 89
3 90 91 92
3 93 94 95
3 96 97 98
3 99 100 101
3 102 103 104
3 105 106 107
3 108 109 110
3 111 112 113
3 114 115 116
3 117 118 119
3 120 121 122
3 123 124 125
3 126 127 128
3 129 130 131
3 132 133 134
3 135 136 137
3 138 139 140
3 141 142 143
3 144 145 146
3 147 148 149
