ply
format ascii 1.0
comment Feeney's Flatenator generated
comment TextureFile SpaceInteriors_Texture.png
element vertex 228
property float x
property float y
property float z
property float nx
property float ny
property float nz
property uchar red
property uchar green
property uchar blue
property uchar alpha
element face 76
property list uchar int vertex_indices
end_header
0 -0.5 1.60705 0 0 1.66667 153 162 173 255 
1.66667 -0.5 1.60705 0 0 1.66667 153 162 173 255 
1.66667 0.5 1.60705 0 0 1.66667 153 162 173 255 
0 -0.5 1.60705 0 0 1.66667 153 162 173 255 
1.66667 0.5 1.60705 0 0 1.66667 153 162 173 255 
0 0.5 1.60705 0 0 1.66667 153 162 173 255 
0 0.5 1.60705 -0 5.35684 0 168 177 190 255 
1.66667 0.5 1.60705 -0 5.35684 0 168 177 190 255 
1.66667 0.5 -1.60705 -0 5.35684 0 168 177 190 255 
0 0.5 1.60705 0 5.35684 0 168 177 190 255 
1.66667 0.5 -1.60705 0 5.35684 0 168 177 190 255 
0 0.5 -1.60705 0 5.35684 0 168 177 190 255 
0 0.5 -1.60705 0 0 -1.66667 153 162 173 255 
1.66667 0.5 -1.60705 0 0 -1.66667 153 162 173 255 
1.66667 -0.5 -1.60705 0 0 -1.66667 153 162 173 255 
0 0.5 -1.60705 0 0 -1.66667 153 162 173 255 
1.66667 -0.5 -1.60705 0 0 -1.66667 153 162 173 255 
0 -0.5 -1.60705 0 0 -1.66667 153 162 173 255 
0 -0.5 -1.60705 0 -5.35684 0 138 145 155 255 
1.66667 -0.5 -1.60705 0 -5.35684 0 138 145 155 255 
1.66667 -0.5 1.60705 0 -5.35684 0 138 145 155 255 
0 -0.5 -1.60705 0 -5.35684 0 138 145 155 255 
1.66667 -0.5 1.60705 0 -5.35684 0 138 145 155 255 
0 -0.5 1.60705 0 -5.35684 0 138 145 155 255 
5 -0.5 0.73283 1.46566 0 0 153 162 173 255 
5 -0.5 -0.732834 1.46566 0 0 153 162 173 255 
5 0.5 -0.732834 1.46566 0 0 153 162 173 255 
5 -0.5 0.73283 1.46566 -0 0 153 162 173 255 
5 0.5 -0.732834 1.46566 -0 0 153 162 173 255 
5 0.5 0.73283 1.46566 -0 0 153 162 173 255 
3.33333 0.5 -0.732834 0 0 -1.66667 153 162 173 255 
5 0.5 -0.732834 0 0 -1.66667 153 162 173 255 
5 -0.5 -0.732834 0 0 -1.66667 153 162 173 255 
3.33333 0.5 -0.732834 0 0 -1.66667 153 162 173 255 
5 -0.5 -0.732834 0 0 -1.66667 153 162 173 255 
3.33333 -0.5 -0.732834 0 0 -1.66667 153 162 173 255 
3.33333 -0.5 0.73283 0 -2.44278 0 138 145 155 255 
3.33333 -0.5 -0.732834 0 -2.44278 0 138 145 155 255 
5 -0.5 -0.732834 0 -2.44278 0 138 145 155 255 
3.33333 -0.5 0.73283 0 -2.44278 0 138 145 155 255 
5 -0.5 -0.732834 0 -2.44278 0 138 145 155 255 
5 -0.5 0.73283 0 -2.44278 0 138 145 155 255 
3.33333 0.5 0.73283 0 0 1.66667 153 162 173 255 
3.33333 -0.5 0.73283 0 0 1.66667 153 162 173 255 
5 -0.5 0.73283 0 0 1.66667 153 162 173 255 
3.33333 0.5 0.73283 -0 0 1.66667 153 162 173 255 
5 -0.5 0.73283 -0 0 1.66667 153 162 173 255 
5 0.5 0.73283 -0 0 1.66667 153 162 173 255 
3.33333 0.5 -0.732834 0 2.44278 0 168 177 190 255 
3.33333 0.5 0.73283 0 2.44278 0 168 177 190 255 
5 0.5 0.73283 0 2.44278 0 168 177 190 255 
3.33333 0.5 -0.732834 0 2.44278 0 168 177 190 255 
5 0.5 0.73283 0 2.44278 0 168 177 190 255 
5 0.5 -0.732834 0 2.44278 0 168 177 190 255 
1.66667 0.5 -1.60705 0.874216 0 -1.66666 153 162 173 255 
3.33333 0.5 -0.732834 0.874216 0 -1.66666 153 162 173 255 
3.33333 -0.5 -0.732834 0.874216 0 -1.66666 153 162 173 255 
1.66667 0.5 -1.60705 0.874216 0 -1.66666 153 162 173 255 
3.33333 -0.5 -0.732834 0.874216 0 -1.66666 153 162 173 255 
1.66667 -0.5 -1.60705 0.874216 0 -1.66666 153 162 173 255 
1.66667 -0.5 1.60705 0 -5.35681 0 138 145 155 255 
1.66667 -0.5 -1.60705 0 -5.35681 0 138 145 155 255 
3.33333 -0.5 -0.732834 0 -5.35681 0 138 145 155 255 
1.66667 -0.5 1.60705 0 -2.44276 0 138 145 155 255 
3.33333 -0.5 -0.732834 0 -2.44276 0 138 145 155 255 
3.33333 -0.5 0.73283 0 -2.44276 0 138 145 155 255 
1.66667 0.5 1.60705 0.87422 0 1.66666 153 162 173 255 
1.66667 -0.5 1.60705 0.87422 0 1.66666 153 162 173 255 
3.33333 -0.5 0.73283 0.87422 0 1.66666 153 162 173 255 
1.66667 0.5 1.60705 0.87422 0 1.66666 153 162 173 255 
3.33333 -0.5 0.73283 0.87422 0 1.66666 153 162 173 255 
3.33333 0.5 0.73283 0.87422 0 1.66666 153 162 173 255 
1.66667 0.5 -1.60705 0 5.35681 0 168 177 190 255 
1.66667 0.5 1.60705 0 5.35681 0 168 177 190 255 
3.33333 0.5 0.73283 0 5.35681 0 168 177 190 255 
1.66667 0.5 -1.60705 0 2.44276 0 168 177 190 255 
3.33333 0.5 0.73283 0 2.44276 0 168 177 190 255 
3.33333 0.5 -0.732834 0 2.44276 0 168 177 190 255 
0 0.5 1.60705 -3.2141 0 -0 153 162 173 255 
0 0.5 -1.60705 -3.2141 0 -0 153 162 173 255 
0 -0.5 -1.60705 -3.2141 0 -0 153 162 173 255 
0 0.5 1.60705 -3.2141 -0 0 153 162 173 255 
0 -0.5 -1.60705 -3.2141 -0 0 153 162 173 255 
0 -0.5 1.60705 -3.2141 -0 0 153 162 173 255 
4.83441 -0.582248 0.817039 0 0 0.138248 122 128 138 255 
4.95313 -0.582248 0.817039 0 0 0.138248 122 128 138 255 
4.95313 0.582248 0.817039 0 0 0.138248 122 128 138 255 
4.83441 -0.582248 0.817039 0 0 0.138248 122 128 138 255 
4.95313 0.582248 0.817039 0 0 0.138248 122 128 138 255 
4.83441 0.582248 0.817039 0 0 0.138248 122 128 138 255 
4.83441 0.582248 0.817039 -0 0.193997 0 122 128 138 255 
4.95313 0.582248 0.817039 -0 0.193997 0 122 128 138 255 
4.95313 0.582248 -0.817039 -0 0.193997 0 122 128 138 255 
4.83441 0.582248 0.817039 0 0.193997 0 122 128 138 255 
4.95313 0.582248 -0.817039 0 0.193997 0 122 128 138 255 
4.83441 0.582248 -0.817039 0 0.193997 0 122 128 138 255 
4.83441 0.582248 -0.817039 0 0 -0.138248 122 128 138 255 
4.95313 0.582248 -0.817039 0 0 -0.138248 122 128 138 255 
4.95313 -0.582248 -0.817039 0 0 -0.138248 122 128 138 255 
4.83441 0.582248 -0.817039 0 0 -0.138248 122 128 138 255 
4.95313 -0.582248 -0.817039 0 0 -0.138248 122 128 138 255 
4.83441 -0.582248 -0.817039 0 0 -0.138248 122 128 138 255 
4.83441 -0.582248 -0.817039 0 -0.193997 0 122 128 138 255 
4.95313 -0.582248 -0.817039 0 -0.193997 0 122 128 138 255 
4.95313 -0.582248 0.817039 0 -0.193997 0 122 128 138 255 
4.83441 -0.582248 -0.817039 0 -0.193997 0 122 128 138 255 
4.95313 -0.582248 0.817039 0 -0.193997 0 122 128 138 255 
4.83441 -0.582248 0.817039 0 -0.193997 0 122 128 138 255 
4.95313 -0.582248 0.817039 1.90288 0 0 105 111 119 255 
4.95313 -0.582248 -0.817039 1.90288 0 0 105 111 119 255 
4.95313 0.582248 -0.817039 1.90288 0 0 105 111 119 255 
4.95313 -0.582248 0.817039 1.90288 -0 0 105 111 119 255 
4.95313 0.582248 -0.817039 1.90288 -0 0 105 111 119 255 
4.95313 0.582248 0.817039 1.90288 -0 0 105 111 119 255 
4.83441 -0.582248 -0.817039 -1.90288 0 0 105 111 119 255 
4.83441 -0.582248 0.817039 -1.90288 0 0 105 111 119 255 
4.83441 0.582248 0.817039 -1.90288 0 0 105 111 119 255 
4.83441 -0.582248 -0.817039 -1.90288 0 0 105 111 119 255 
4.83441 0.582248 0.817039 -1.90288 0 0 105 111 119 255 
4.83441 0.582248 -0.817039 -1.90288 0 0 105 111 119 255 
0.067139 -0.582248 1.68159 0 0 0.138245 122 128 138 255 
0.185856 -0.582248 1.68159 0 0 0.138245 122 128 138 255 
0.185856 0.582248 1.68159 0 0 0.138245 122 128 138 255 
0.067139 -0.582248 1.68159 0 0 0.138245 122 128 138 255 
0.185856 0.582248 1.68159 0 0 0.138245 122 128 138 255 
0.067139 0.582248 1.68159 0 0 0.138245 122 128 138 255 
0.067139 0.582248 1.68159 -0 0.399267 0 122 128 138 255 
0.185856 0.582248 1.68159 -0 0.399267 0 122 128 138 255 
0.185856 0.582248 -1.68159 -0 0.399267 0 122 128 138 255 
0.067139 0.582248 1.68159 0 0.399267 0 122 128 138 255 
0.185856 0.582248 -1.68159 0 0.399267 0 122 128 138 255 
0.067139 0.582248 -1.68159 0 0.399267 0 122 128 138 255 
0.067139 0.582248 -1.68159 0 0 -0.138245 122 128 138 255 
0.185856 0.582248 -1.68159 0 0 -0.138245 122 128 138 255 
0.185856 -0.582248 -1.68159 0 0 -0.138245 122 128 138 255 
0.067139 0.582248 -1.68159 0 0 -0.138245 122 128 138 255 
0.185856 -0.582248 -1.68159 0 0 -0.138245 122 128 138 255 
0.067139 -0.582248 -1.68159 0 0 -0.138245 122 128 138 255 
0.067139 -0.582248 -1.68159 0 -0.399267 0 122 128 138 255 
0.185856 -0.582248 -1.68159 0 -0.399267 0 122 128 138 255 
0.185856 -0.582248 1.68159 0 -0.399267 0 122 128 138 255 
0.067139 -0.582248 -1.68159 0 -0.399267 0 122 128 138 255 
0.185856 -0.582248 1.68159 0 -0.399267 0 122 128 138 255 
0.067139 -0.582248 1.68159 0 -0.399267 0 122 128 138 255 
0.185856 -0.582248 1.68159 3.91641 0 0 105 111 119 255 
0.185856 -0.582248 -1.68159 3.91641 0 0 105 111 119 255 
0.185856 0.582248 -1.68159 3.91641 0 0 105 111 119 255 
0.185856 -0.582248 1.68159 3.91641 -0 0 105 111 119 255 
0.185856 0.582248 -1.68159 3.91641 -0 0 105 111 119 255 
0.185856 0.582248 1.68159 3.91641 -0 0 105 111 119 255 
0.067139 -0.582248 -1.68159 -3.91641 0 0 105 111 119 255 
0.067139 -0.582248 1.68159 -3.91641 0 0 105 111 119 255 
0.067139 0.582248 1.68159 -3.91641 0 0 105 111 119 255 
0.067139 -0.582248 -1.68159 -3.91641 0 0 105 111 119 255 
0.067139 0.582248 1.68159 -3.91641 0 0 105 111 119 255 
0.067139 0.582248 -1.68159 -3.91641 0 0 105 111 119 255 
1.57943 -0.582248 1.68159 0 0 0.138249 122 128 138 255 
1.69815 -0.582248 1.68159 0 0 0.138249 122 128 138 255 
1.69815 0.582248 1.68159 0 0 0.138249 122 128 138 255 
1.57943 -0.582248 1.68159 0 0 0.138249 122 128 138 255 
1.69815 0.582248 1.68159 0 0 0.138249 122 128 138 255 
1.57943 0.582248 1.68159 0 0 0.138249 122 128 138 255 
1.57943 0.582248 1.68159 -0 0.399277 0 122 128 138 255 
1.69815 0.582248 1.68159 -0 0.399277 0 122 128 138 255 
1.69815 0.582248 -1.68159 -0 0.399277 0 122 128 138 255 
1.57943 0.582248 1.68159 0 0.399277 0 122 128 138 255 
1.69815 0.582248 -1.68159 0 0.399277 0 122 128 138 255 
1.57943 0.582248 -1.68159 0 0.399277 0 122 128 138 255 
1.57943 0.582248 -1.68159 0 0 -0.138249 122 128 138 255 
1.69815 0.582248 -1.68159 0 0 -0.138249 122 128 138 255 
1.69815 -0.582248 -1.68159 0 0 -0.138249 122 128 138 255 
1.57943 0.582248 -1.68159 0 0 -0.138249 122 128 138 255 
1.69815 -0.582248 -1.68159 0 0 -0.138249 122 128 138 255 
1.57943 -0.582248 -1.68159 0 0 -0.138249 122 128 138 255 
1.57943 -0.582248 -1.68159 0 -0.399277 0 122 128 138 255 
1.69815 -0.582248 -1.68159 0 -0.399277 0 122 128 138 255 
1.69815 -0.582248 1.68159 0 -0.399277 0 122 128 138 255 
1.57943 -0.582248 -1.68159 0 -0.399277 0 122 128 138 255 
1.69815 -0.582248 1.68159 0 -0.399277 0 122 128 138 255 
1.57943 -0.582248 1.68159 0 -0.399277 0 122 128 138 255 
1.69815 -0.582248 1.68159 3.91641 0 0 105 111 119 255 
1.69815 -0.582248 -1.68159 3.91641 0 0 105 111 119 255 
1.69815 0.582248 -1.68159 3.91641 0 0 105 111 119 255 
1.69815 -0.582248 1.68159 3.91641 -0 0 105 111 119 255 
1.69815 0.582248 -1.68159 3.91641 -0 0 105 111 119 255 
1.69815 0.582248 1.68159 3.91641 -0 0 105 111 119 255 
1.57943 -0.582248 -1.68159 -3.91641 0 0 105 111 119 255 
1.57943 -0.582248 1.68159 -3.91641 0 0 105 111 119 255 
1.57943 0.582248 1.68159 -3.91641 0 0 105 111 119 255 
1.57943 -0.582248 -1.68159 -3.91641 0 0 105 111 119 255 
1.57943 0.582248 1.68159 -3.91641 0 0 105 111 119 255 
1.57943 0.582248 -1.68159 -3.91641 0 0 105 111 119 255 
3.27342 -0.582248 0.817039 0 0 0.138249 122 128 138 255 
3.39214 -0.582248 0.817039 0 0 0.138249 122 128 138 255 
3.39214 0.582248 0.817039 0 0 0.138249 122 128 138 255 
3.27342 -0.582248 0.817039 0 0 0.138249 122 128 138 255 
3.39214 0.582248 0.817039 0 0 0.138249 122 128 138 255 
3.27342 0.582248 0.817039 0 0 0.138249 122 128 138 255 
3.27342 0.582248 0.817039 -0 0.193997 0 122 128 138 255 
3.39214 0.582248 0.817039 -0 0.193997 0 122 128 138 255 
3.39214 0.582248 -0.817039 -0 0.193997 0 122 128 138 255 
3.27342 0.582248 0.817039 0 0.193997 0 122 128 138 255 
3.39214 0.582248 -0.817039 0 0.193997 0 122 128 138 255 
3.27342 0.582248 -0.817039 0 0.193997 0 122 128 138 255 
3.27342 0.582248 -0.817039 0 0 -0.138249 122 128 138 255 
3.39214 0.582248 -0.817039 0 0 -0.138249 122 128 138 255 
3.39214 -0.582248 -0.817039 0 0 -0.138249 122 128 138 255 
3.27342 0.582248 -0.817039 0 0 -0.138249 122 128 138 255 
3.39214 -0.582248 -0.817039 0 0 -0.138249 122 128 138 255 
3.27342 -0.582248 -0.817039 0 0 -0.138249 122 128 138 255 
3.27342 -0.582248 -0.817039 0 -0.193997 0 122 128 138 255 
3.39214 -0.582248 -0.817039 0 -0.193997 0 122 128 138 255 
3.39214 -0.582248 0.817039 0 -0.193997 0 122 128 138 255 
3.27342 -0.582248 -0.817039 0 -0.193997 0 122 128 138 255 
3.39214 -0.582248 0.817039 0 -0.193997 0 122 128 138 255 
3.27342 -0.582248 0.817039 0 -0.193997 0 122 128 138 255 
3.39214 -0.582248 0.817039 1.90288 0 0 105 111 119 255 
3.39214 -0.582248 -0.817039 1.90288 0 0 105 111 119 255 
3.39214 0.582248 -0.817039 1.90288 0 0 105 111 119 255 
3.39214 -0.582248 0.817039 1.90288 -0 0 105 111 119 255 
3.39214 0.582248 -0.817039 1.90288 -0 0 105 111 119 255 
3.39214 0.582248 0.817039 1.90288 -0 0 105 111 119 255 
3.27342 -0.582248 -0.817039 -1.90288 0 0 105 111 119 255 
3.27342 -0.582248 0.817039 -1.90288 0 0 105 111 119 255 
3.27342 0.582248 0.817039 -1.90288 0 0 105 111 119 255 
3.27342 -0.582248 -0.817039 -1.90288 0 0 105 111 119 255 
3.27342 0.582248 0.817039 -1.90288 0 0 105 111 119 255 
3.27342 0.582248 -0.817039 -1.90288 0 0 105 111 119 255 
3 0 1 2
3 3 4 5
3 6 7 8
3 9 10 11
3 12 13 14
3 15 16 17
3 18 19 20
3 21 22 23
3 24 25 26
3 27 28 29
3 30 31 32
3 33 34 35
3 36 37 38
3 39 40 41
3 42 43 44
3 45 46 47
3 48 49 50
3 51 52 53
3 54 55 56
3 57 58 59
3 60 61 62
3 63 64 65
3 66 67 68
3 69 70 71
3 72 73 74
3 75 76 77
3 78 79 80
3 81 82 83
3 84 85 86
3 87 88 89
3 90 91 92
3 93 94 95
3 96 97 98
3 99 100 101
3 102 103 104
3 105 106 107
3 108 109 110
3 111 112 113
3 114 115 116
3 117 118 119
3 120 121 122
3 123 124 125
3 126 127 128
3 129 130 131
3 132 133 134
3 135 136 137
3 138 139 140
3 141 142 143
3 144 145 146
3 147 148 149
3 150 151 152
3 153 154 155
3 156 157 158
3 159 160 161
3 162 163 164
3 165 166 167
3 168 169 170
3 171 172 173
3 174 175 176
3 177 178 179
3 180 181 182
3 183 184 185
3 186 187 188
3 189 190 191
3 192 193 194
3 195 196 197
3 198 199 200
3 201 202 203
3 204 205 206
3 207 208 209
3 210 211 212
3 213 214 215
3 216 217 218
3 219 220 221
3 222 223 224
3 225 226 227
