ply
format ascii 1.0
comment Feeney's Flatenator generated
comment TextureFile SpaceInteriors_Texture.png
element vertex 186
property float x
property float y
property float z
property float nx
property float ny
property float nz
property uchar red
property uchar green
property uchar blue
property uchar alpha
element face 62
property list uchar int vertex_indices
end_header
0.061866 2.94672 0.704488 1.03241 0 1.03241 108 105 102 255 
0.704489 2.94672 0.061864 1.03241 0 1.03241 108 105 102 255 
0.704489 4.55328 0.061864 1.03241 0 1.03241 108 105 102 255 
0.061866 2.94672 0.704488 1.03241 -0 1.03241 108 105 102 255 
0.704489 4.55328 0.061864 1.03241 -0 1.03241 108 105 102 255 
0.061866 4.55328 0.704488 1.03241 -0 1.03241 108 105 102 255 
1e-06 5 0.999998 0 0.999998 0 125 121 118 255 
1 5 -1e-06 0 0.999998 0 125 121 118 255 
1e-06 5 -1e-06 0 0.999998 0 125 121 118 255 
1e-06 5 -1e-06 0 0 -2.5 108 105 102 255 
1 5 -1e-06 0 0 -2.5 108 105 102 255 
1 2.5 -1e-06 0 0 -2.5 108 105 102 255 
1e-06 5 -1e-06 0 0 -2.5 108 105 102 255 
1 2.5 -1e-06 0 0 -2.5 108 105 102 255 
1e-06 2.5 -1e-06 0 0 -2.5 108 105 102 255 
1e-06 0 -1e-06 0 -0.999998 0 75 72 70 255 
1 0 -1e-06 0 -0.999998 0 75 72 70 255 
1e-06 0 0.999998 0 -0.999998 0 75 72 70 255 
1e-06 2.5 -1e-06 -2.5 0 0 91 88 86 255 
1e-06 2.5 0.999998 -2.5 0 0 91 88 86 255 
1e-06 5 0.999998 -2.5 0 0 91 88 86 255 
1e-06 2.5 -1e-06 -2.5 0 0 91 88 86 255 
1e-06 5 0.999998 -2.5 0 0 91 88 86 255 
1e-06 5 -1e-06 -2.5 0 0 91 88 86 255 
1e-06 0 -1e-06 -2.5 0 0 91 88 86 255 
1e-06 0 0.999998 -2.5 0 0 91 88 86 255 
1e-06 2.5 0.999998 -2.5 0 0 91 88 86 255 
1e-06 0 -1e-06 -2.5 0 0 91 88 86 255 
1e-06 2.5 0.999998 -2.5 0 0 91 88 86 255 
1e-06 2.5 -1e-06 -2.5 0 0 91 88 86 255 
0.020341 1.15837 0.839728 0.36104 0 0.361039 125 121 118 255 
0.83973 1.15837 0.020338 0.36104 0 0.361039 125 121 118 255 
0.83973 1.59899 0.020338 0.36104 0 0.361039 125 121 118 255 
0.020341 1.15837 0.839728 0.36104 -0 0.361039 125 121 118 255 
0.83973 1.59899 0.020338 0.36104 -0 0.361039 125 121 118 255 
0.020341 1.59899 0.839728 0.36104 -0 0.361039 125 121 118 255 
1e-06 2.5 -1e-06 0 0 -2.5 108 105 102 255 
1 2.5 -1e-06 0 0 -2.5 108 105 102 255 
1 0 -1e-06 0 0 -2.5 108 105 102 255 
1e-06 2.5 -1e-06 0 0 -2.5 108 105 102 255 
1 0 -1e-06 0 0 -2.5 108 105 102 255 
1e-06 0 -1e-06 0 0 -2.5 108 105 102 255 
1e-06 2.5 0.999998 0.446719 -5.96046e-08 0.446719 141 137 133 255 
1 2.5 -1e-06 0.446719 -5.96046e-08 0.446719 141 137 133 255 
0.821313 2.94672 0.178686 0.446719 -5.96046e-08 0.446719 141 137 133 255 
1e-06 2.5 0.999998 0.287073 -8.34465e-07 0.287073 141 137 133 255 
0.821313 2.94672 0.178686 0.287073 -8.34465e-07 0.287073 141 137 133 255 
0.178689 2.94672 0.821311 0.287073 -8.34465e-07 0.287073 141 137 133 255 
1 2.5 -1e-06 0.446717 -0 0.446717 141 137 133 255 
1 5 -1e-06 0.446717 -0 0.446717 141 137 133 255 
0.821313 4.55328 0.178686 0.446717 -0 0.446717 141 137 133 255 
1 2.5 -1e-06 0.287071 0 0.287071 141 137 133 255 
0.821313 4.55328 0.178686 0.287071 0 0.287071 141 137 133 255 
0.821313 2.94672 0.178686 0.287071 0 0.287071 141 137 133 255 
1 5 -1e-06 0.44672 1.01328e-06 0.44672 141 137 133 255 
1e-06 5 0.999998 0.44672 1.01328e-06 0.44672 141 137 133 255 
0.178689 4.55328 0.821311 0.44672 1.01328e-06 0.44672 141 137 133 255 
1 5 -1e-06 0.287074 -1.78814e-07 0.287073 141 137 133 255 
0.178689 4.55328 0.821311 0.287074 -1.78814e-07 0.287073 141 137 133 255 
0.821313 4.55328 0.178686 0.287074 -1.78814e-07 0.287073 141 137 133 255 
1e-06 5 0.999998 0.446717 0 0.44672 141 137 133 255 
1e-06 2.5 0.999998 0.446717 0 0.44672 141 137 133 255 
0.178689 2.94672 0.821311 0.446717 0 0.44672 141 137 133 255 
1e-06 5 0.999998 0.287071 0 0.287073 141 137 133 255 
0.178689 2.94672 0.821311 0.287071 0 0.287073 141 137 133 255 
0.178689 4.55328 0.821311 0.287071 0 0.287073 141 137 133 255 
0.178689 2.94672 0.821311 0 0.150147 0 157 152 148 255 
0.821313 2.94672 0.178686 0 0.150147 0 157 152 148 255 
0.704489 2.94672 0.061864 0 0.150147 0 157 152 148 255 
0.178689 2.94672 0.821311 0 0.150146 0 157 152 148 255 
0.704489 2.94672 0.061864 0 0.150146 0 157 152 148 255 
0.061866 2.94672 0.704488 0 0.150146 0 157 152 148 255 
0.821313 2.94672 0.178686 -0.187682 0 0.187685 108 105 102 255 
0.821313 4.55328 0.178686 -0.187682 0 0.187685 108 105 102 255 
0.704489 4.55328 0.061864 -0.187682 0 0.187685 108 105 102 255 
0.821313 2.94672 0.178686 -0.187682 0 0.187685 108 105 102 255 
0.704489 4.55328 0.061864 -0.187682 0 0.187685 108 105 102 255 
0.704489 2.94672 0.061864 -0.187682 0 0.187685 108 105 102 255 
0.821313 4.55328 0.178686 0 -0.150147 0 91 88 86 255 
0.178689 4.55328 0.821311 0 -0.150147 0 91 88 86 255 
0.061866 4.55328 0.704488 0 -0.150147 0 91 88 86 255 
0.821313 4.55328 0.178686 -0 -0.150146 0 91 88 86 255 
0.061866 4.55328 0.704488 -0 -0.150146 0 91 88 86 255 
0.704489 4.55328 0.061864 -0 -0.150146 0 91 88 86 255 
0.178689 4.55328 0.821311 0.187683 0 -0.187683 108 105 102 255 
0.178689 2.94672 0.821311 0.187683 0 -0.187683 108 105 102 255 
0.061866 2.94672 0.704488 0.187683 0 -0.187683 108 105 102 255 
0.178689 4.55328 0.821311 0.187683 0 -0.187683 108 105 102 255 
0.061866 2.94672 0.704488 0.187683 0 -0.187683 108 105 102 255 
0.061866 4.55328 0.704488 0.187683 0 -0.187683 108 105 102 255 
1e-06 0 0.999998 0.497433 -1.01328e-06 0.497433 141 137 133 255 
1 0 -1e-06 0.497433 -1.01328e-06 0.497433 141 137 133 255 
0.909697 0.497433 0.090303 0.497433 -1.01328e-06 0.497433 141 137 133 255 
1e-06 0 0.999998 0.407592 -8.56817e-07 0.407592 141 137 133 255 
0.909697 0.497433 0.090303 0.407592 -8.56817e-07 0.407592 141 137 133 255 
0.090306 0.497433 0.909694 0.407592 -8.56817e-07 0.407592 141 137 133 255 
1 0 -1e-06 0.22576 -0 0.225758 141 137 133 255 
1 2.5 -1e-06 0.22576 -0 0.225758 141 137 133 255 
0.909697 1.59899 0.090303 0.22576 -0 0.225758 141 137 133 255 
1 0 -1e-06 0.0397898 0 0.0397893 141 137 133 255 
0.909697 1.59899 0.090303 0.0397898 0 0.0397893 141 137 133 255 
0.909697 1.15837 0.090303 0.0397898 0 0.0397893 141 137 133 255 
1 0 -1e-06 0.0198953 0 0.0198951 141 137 133 255 
0.909697 1.15837 0.090303 0.0198953 0 0.0198951 141 137 133 255 
0.909697 0.938055 0.090303 0.0198953 0 0.0198951 141 137 133 255 
1 0 -1e-06 0.0397899 0 0.0397895 141 137 133 255 
0.909697 0.938055 0.090303 0.0397899 0 0.0397895 141 137 133 255 
0.909697 0.497433 0.090303 0.0397899 0 0.0397895 141 137 133 255 
1 2.5 -1e-06 0.901009 1.01328e-06 0.901009 141 137 133 255 
1e-06 2.5 0.999998 0.901009 1.01328e-06 0.901009 141 137 133 255 
0.090306 1.59899 0.909694 0.901009 1.01328e-06 0.901009 141 137 133 255 
1 2.5 -1e-06 0.73828 8.12113e-07 0.73828 141 137 133 255 
0.090306 1.59899 0.909694 0.73828 8.12113e-07 0.73828 141 137 133 255 
0.909697 1.59899 0.090303 0.73828 8.12113e-07 0.73828 141 137 133 255 
1e-06 2.5 0.999998 0.22576 0 0.225763 141 137 133 255 
1e-06 0 0.999998 0.22576 0 0.225763 141 137 133 255 
0.090306 0.497433 0.909694 0.22576 0 0.225763 141 137 133 255 
1e-06 2.5 0.999998 0.0397899 0 0.0397904 141 137 133 255 
0.090306 0.497433 0.909694 0.0397899 0 0.0397904 141 137 133 255 
0.090306 0.938055 0.909694 0.0397899 0 0.0397904 141 137 133 255 
1e-06 2.5 0.999998 0.0198953 0 0.0198955 141 137 133 255 
0.090306 0.938055 0.909694 0.0198953 0 0.0198955 141 137 133 255 
0.090306 1.15837 0.909694 0.0198953 0 0.0198955 141 137 133 255 
1e-06 2.5 0.999998 0.0397897 0 0.0397902 141 137 133 255 
0.090306 1.15837 0.909694 0.0397897 0 0.0397902 141 137 133 255 
0.090306 1.59899 0.909694 0.0397897 0 0.0397902 141 137 133 255 
0.909697 1.15837 0.090303 0.180524 0 0.180524 141 137 133 255 
0.090306 1.15837 0.909694 0.180524 0 0.180524 141 137 133 255 
0.090306 0.938055 0.909694 0.180524 0 0.180524 141 137 133 255 
0.909697 1.15837 0.090303 0.180524 0 0.180524 141 137 133 255 
0.090306 0.938055 0.909694 0.180524 0 0.180524 141 137 133 255 
0.909697 0.938055 0.090303 0.180524 0 0.180524 141 137 133 255 
0.020341 0.497433 0.839728 0.361041 0 0.361041 125 121 118 255 
0.83973 0.497433 0.020338 0.361041 0 0.361041 125 121 118 255 
0.83973 0.938055 0.020338 0.361041 0 0.361041 125 121 118 255 
0.020341 0.497433 0.839728 0.361041 -0 0.361041 125 121 118 255 
0.83973 0.938055 0.020338 0.361041 -0 0.361041 125 121 118 255 
0.020341 0.938055 0.839728 0.361041 -0 0.361041 125 121 118 255 
0.090306 1.15837 0.909694 0 0.114659 0 157 152 148 255 
0.909697 1.15837 0.090303 0 0.114659 0 157 152 148 255 
0.83973 1.15837 0.020338 0 0.114659 0 157 152 148 255 
0.090306 1.15837 0.909694 0 0.114658 0 157 152 148 255 
0.83973 1.15837 0.020338 0 0.114658 0 157 152 148 255 
0.020341 1.15837 0.839728 0 0.114658 0 157 152 148 255 
0.909697 1.15837 0.090303 -0.030828 0 0.0308288 108 105 102 255 
0.909697 1.59899 0.090303 -0.030828 0 0.0308288 108 105 102 255 
0.83973 1.59899 0.020338 -0.030828 0 0.0308288 108 105 102 255 
0.909697 1.15837 0.090303 -0.030828 0 0.0308288 108 105 102 255 
0.83973 1.59899 0.020338 -0.030828 0 0.0308288 108 105 102 255 
0.83973 1.15837 0.020338 -0.030828 0 0.0308288 108 105 102 255 
0.909697 1.59899 0.090303 0 -0.114658 0 91 88 86 255 
0.090306 1.59899 0.909694 0 -0.114658 0 91 88 86 255 
0.020341 1.59899 0.839728 0 -0.114658 0 91 88 86 255 
0.909697 1.59899 0.090303 -0 -0.114659 0 91 88 86 255 
0.020341 1.59899 0.839728 -0 -0.114659 0 91 88 86 255 
0.83973 1.59899 0.020338 -0 -0.114659 0 91 88 86 255 
0.090306 1.59899 0.909694 0.0308284 0 -0.030828 108 105 102 255 
0.090306 1.15837 0.909694 0.0308284 0 -0.030828 108 105 102 255 
0.020341 1.15837 0.839728 0.0308284 0 -0.030828 108 105 102 255 
0.090306 1.59899 0.909694 0.0308284 0 -0.030828 108 105 102 255 
0.020341 1.15837 0.839728 0.0308284 0 -0.030828 108 105 102 255 
0.020341 1.59899 0.839728 0.0308284 0 -0.030828 108 105 102 255 
0.090306 0.497433 0.909694 0 0.114659 0 157 152 148 255 
0.909697 0.497433 0.090303 0 0.114659 0 157 152 148 255 
0.83973 0.497433 0.020338 0 0.114659 0 157 152 148 255 
0.090306 0.497433 0.909694 0 0.114658 0 157 152 148 255 
0.83973 0.497433 0.020338 0 0.114658 0 157 152 148 255 
0.020341 0.497433 0.839728 0 0.114658 0 157 152 148 255 
0.909697 0.497433 0.090303 -0.0308281 0 0.030829 108 105 102 255 
0.909697 0.938055 0.090303 -0.0308281 0 0.030829 108 105 102 255 
0.83973 0.938055 0.020338 -0.0308281 0 0.030829 108 105 102 255 
0.909697 0.497433 0.090303 -0.0308281 0 0.030829 108 105 102 255 
0.83973 0.938055 0.020338 -0.0308281 0 0.030829 108 105 102 255 
0.83973 0.497433 0.020338 -0.0308281 0 0.030829 108 105 102 255 
0.909697 0.938055 0.090303 0 -0.114658 0 91 88 86 255 
0.090306 0.938055 0.909694 0 -0.114658 0 91 88 86 255 
0.020341 0.938055 0.839728 0 -0.114658 0 91 88 86 255 
0.909697 0.938055 0.090303 -0 -0.114659 0 91 88 86 255 
0.020341 0.938055 0.839728 -0 -0.114659 0 91 88 86 255 
0.83973 0.938055 0.020338 -0 -0.114659 0 91 88 86 255 
0.090306 0.938055 0.909694 0.0308286 0 -0.0308281 108 105 102 255 
0.090306 0.497433 0.909694 0.0308286 0 -0.0308281 108 105 102 255 
0.020341 0.497433 0.839728 0.0308286 0 -0.0308281 108 105 102 255 
0.090306 0.938055 0.909694 0.0308286 0 -0.0308281 108 105 102 255 
0.020341 0.497433 0.839728 0.0308286 0 -0.0308281 108 105 102 255 
0.020341 0.938055 0.839728 0.0308286 0 -0.0308281 108 105 102 255 
3 0 1 2
3 3 4 5
3 6 7 8
3 9 10 11
3 12 13 14
3 15 16 17
3 18 19 20
3 21 22 23
3 24 25 26
3 27 28 29
3 30 31 32
3 33 34 35
3 36 37 38
3 39 40 41
3 42 43 44
3 45 46 47
3 48 49 50
3 51 52 53
3 54 55 56
3 57 58 59
3 60 61 62
3 63 64 65
3 66 67 68
3 69 70 71
3 72 73 74
3 75 76 77
3 78 79 80
3 81 82 83
3 84 85 86
3 87 88 89
3 90 91 92
3 93 94 95
3 96 97 98
3 99 100 101
3 102 103 104
3 105 106 107
3 108 109 110
3 111 112 113
3 114 115 116
3 117 118 119
3 120 121 122
3 123 124 125
3 126 127 128
3 129 130 131
3 132 133 134
3 135 136 137
3 138 139 140
3 141 142 143
3 144 145 146
3 147 148 149
3 150 151 152
3 153 154 155
3 156 157 158
3 159 160 161
3 162 163 164
3 165 166 167
3 168 169 170
3 171 172 173
3 174 175 176
3 177 178 179
3 180 181 182
3 183 184 185
