ply
format ascii 1.0
comment Feeney's Flatenator generated
comment TextureFile SpaceInteriors_Texture.png
element vertex 48
property float x
property float y
property float z
property float nx
property float ny
property float nz
property float texture_u
property float texture_v
element face 16
property list uchar int vertex_indices
end_header
-5 4 0 0 0 1.25 0.750427 0.789687 
-3.75 4 0 0 0 1.25 0.8862 0.789687 
-3.75 5 0 0 0 1.25 0.8862 0.873158 
-5 4 0 0 0 1.25 0.750427 0.789687 
-3.75 5 0 0 0 1.25 0.8862 0.873158 
-5 5 0 0 0 1.25 0.750427 0.873158 
-2.5 4 0 0 0 1.25 0.750426 0.789687 
-1.25 4 0 0 0 1.25 0.8862 0.789687 
-1.25 5 0 0 0 1.25 0.8862 0.873158 
-2.5 4 0 0 0 1.25 0.750426 0.789687 
-1.25 5 0 0 0 1.25 0.8862 0.873158 
-2.5 5 0 0 0 1.25 0.750426 0.873158 
-3.75 4 0 0 0 1.25 0.750427 0.789687 
-2.5 4 0 0 0 1.25 0.8862 0.789687 
-2.5 5 0 0 0 1.25 0.8862 0.873158 
-3.75 4 0 0 0 1.25 0.750427 0.789687 
-2.5 5 0 0 0 1.25 0.8862 0.873158 
-3.75 5 0 0 0 1.25 0.750427 0.873158 
0 5 0 0 0 1.25 0.8862 0.873158 
-1.25 5 0 0 0 1.25 0.750427 0.873158 
-1.25 4 0 0 0 1.25 0.750427 0.789687 
0 5 0 0 0 1.25 0.8862 0.873158 
-1.25 4 0 0 0 1.25 0.750427 0.789687 
0 4 0 0 0 1.25 0.8862 0.789687 
-3.75 0 0 0 -0 5 0.990896 0.640965 
-3.75 4 0 0 -0 5 0.990896 0.701964 
-5 4 0 0 -0 5 0.919392 0.701964 
-3.75 0 0 0 0 5 0.990896 0.640965 
-5 4 0 0 0 5 0.919392 0.701964 
-5 0 0 0 0 5 0.919392 0.640965 
-2.5 0 0 0 -0 5 0.990895 0.640965 
-2.5 4 0 0 -0 5 0.990895 0.701964 
-3.75 4 0 0 -0 5 0.919392 0.701964 
-2.5 0 0 0 0 5 0.990895 0.640965 
-3.75 4 0 0 0 5 0.919392 0.701964 
-3.75 0 0 0 0 5 0.919392 0.640965 
-1.25 0 0 0 -0 5 0.990895 0.640965 
-1.25 4 0 0 -0 5 0.990895 0.701964 
-2.5 4 0 0 -0 5 0.919392 0.701964 
-1.25 0 0 0 0 5 0.990895 0.640965 
-2.5 4 0 0 0 5 0.919392 0.701964 
-2.5 0 0 0 0 5 0.919392 0.640965 
0 4 0 0 0 5 0.990896 0.701964 
-1.25 4 0 0 0 5 0.919392 0.701964 
-1.25 0 0 0 0 5 0.919392 0.640965 
0 4 0 0 0 5 0.990896 0.701964 
-1.25 0 0 0 0 5 0.919392 0.640965 
0 0 0 0 0 5 0.990896 0.640965 
3 0 1 2
3 3 4 5
3 6 7 8
3 9 10 11
3 12 13 14
3 15 16 17
3 18 19 20
3 21 22 23
3 24 25 26
3 27 28 29
3 30 31 32
3 33 34 35
3 36 37 38
3 39 40 41
3 42 43 44
3 45 46 47
