ply
format ascii 1.0
comment Feeney's Flatenator generated
comment TextureFile SpaceInteriors_Texture.png
element vertex 192
property float x
property float y
property float z
property float nx
property float ny
property float nz
element face 64
property list uchar int vertex_indices
end_header
-2.41667 0 -2.41667 0 -5.44446 0 
-0.083332 0 -2.41667 0 -5.44446 0 
-0.083332 0 -0.083333 0 -5.44446 0 
-2.41667 0 -2.41667 0 -5.44446 0 
-0.083332 0 -0.083333 0 -5.44446 0 
-2.41667 0 -0.083333 0 -5.44446 0 
-4.91667 0 -2.41667 0 -5.44447 0 
-2.58333 0 -2.41667 0 -5.44447 0 
-2.58333 0 -0.083333 0 -5.44447 0 
-4.91667 0 -2.41667 0 -5.44447 0 
-2.58333 0 -0.083333 0 -5.44447 0 
-4.91667 0 -0.083333 0 -5.44447 0 
-4.18859 0.561638 -4.18859 0 -0.769454 0 
-3.3114 0.561638 -4.18859 0 -0.769454 0 
-3.3114 0.561638 -3.31141 0 -0.769454 0 
-4.18859 0.561638 -4.18859 0 -0.769454 0 
-3.3114 0.561638 -3.31141 0 -0.769454 0 
-4.18859 0.561638 -3.31141 0 -0.769454 0 
-2.41667 0 -4.91667 0 -5.44447 0 
-0.083332 0 -4.91667 0 -5.44447 0 
-0.083332 0 -2.58333 0 -5.44447 0 
-2.41667 0 -4.91667 0 -5.44447 0 
-0.083332 0 -2.58333 0 -5.44447 0 
-2.41667 0 -2.58333 0 -5.44447 0 
-2.5 0 -2.5 0 -0.208325 0 
0 0 -2.5 0 -0.208325 0 
-0.083332 0 -2.41667 0 -0.208325 0 
-2.5 0 -2.5 0 -0.194437 0 
-0.083332 0 -2.41667 0 -0.194437 0 
-2.41667 0 -2.41667 0 -0.194437 0 
0 0 -2.5 0 -0.20833 0 
0 0 0 0 -0.20833 0 
-0.083332 0 -0.083333 0 -0.20833 0 
0 0 -2.5 0 -0.194442 0 
-0.083332 0 -0.083333 0 -0.194442 0 
-0.083332 0 -2.41667 0 -0.194442 0 
0 0 0 -0 -0.208333 0 
-2.5 0 0 -0 -0.208333 0 
-2.41667 0 -0.083333 -0 -0.208333 0 
0 0 0 0 -0.194444 0 
-2.41667 0 -0.083333 0 -0.194444 0 
-0.083332 0 -0.083333 0 -0.194444 0 
-2.5 0 0 0 -0.208325 0 
-2.5 0 -2.5 0 -0.208325 0 
-2.41667 0 -2.41667 0 -0.208325 0 
-2.5 0 0 0 -0.194437 0 
-2.41667 0 -2.41667 0 -0.194437 0 
-2.41667 0 -0.083333 0 -0.194437 0 
-5 0 -2.5 0 -0.208325 0 
-2.5 0 -2.5 0 -0.208325 0 
-2.58333 0 -2.41667 0 -0.208325 0 
-5 0 -2.5 0 -0.194437 0 
-2.58333 0 -2.41667 0 -0.194437 0 
-4.91667 0 -2.41667 0 -0.194437 0 
-2.5 0 -2.5 0 -0.208325 0 
-2.5 0 0 0 -0.208325 0 
-2.58333 0 -0.083333 0 -0.208325 0 
-2.5 0 -2.5 0 -0.194437 0 
-2.58333 0 -0.083333 0 -0.194437 0 
-2.58333 0 -2.41667 0 -0.194437 0 
-2.5 0 0 -0 -0.208333 0 
-5 0 0 -0 -0.208333 0 
-4.91667 0 -0.083333 -0 -0.208333 0 
-2.5 0 0 0 -0.194444 0 
-4.91667 0 -0.083333 0 -0.194444 0 
-2.58333 0 -0.083333 0 -0.194444 0 
-5 0 0 0 -0.208325 0 
-5 0 -2.5 0 -0.208325 0 
-4.91667 0 -2.41667 0 -0.208325 0 
-5 0 0 0 -0.194437 0 
-4.91667 0 -2.41667 0 -0.194437 0 
-4.91667 0 -0.083333 0 -0.194437 0 
-5 0 -5 0 -0.208325 0 
-2.5 0 -5 0 -0.208325 0 
-2.58333 0 -4.91667 0 -0.208325 0 
-5 0 -5 0 -0.194438 0 
-2.58333 0 -4.91667 0 -0.194438 0 
-4.91667 0 -4.91667 0 -0.194438 0 
-2.5 0 -5 0 -0.208325 0 
-2.5 0 -2.5 0 -0.208325 0 
-2.58333 0 -2.58333 0 -0.208325 0 
-2.5 0 -5 0 -0.194437 0 
-2.58333 0 -2.58333 0 -0.194437 0 
-2.58333 0 -4.91667 0 -0.194437 0 
-2.5 0 -2.5 -0 -0.208325 0 
-5 0 -2.5 -0 -0.208325 0 
-4.91667 0 -2.58333 -0 -0.208325 0 
-2.5 0 -2.5 0 -0.194437 0 
-4.91667 0 -2.58333 0 -0.194437 0 
-2.58333 0 -2.58333 0 -0.194437 0 
-5 0 -2.5 0 -0.208325 0 
-5 0 -5 0 -0.208325 0 
-4.91667 0 -4.91667 0 -0.208325 0 
-5 0 -2.5 0 -0.194438 0 
-4.91667 0 -4.91667 0 -0.194438 0 
-4.91667 0 -2.58333 0 -0.194438 0 
-2.5 0 -5 0 -0.208325 0 
0 0 -5 0 -0.208325 0 
-0.083332 0 -4.91667 0 -0.208325 0 
-2.5 0 -5 0 -0.194437 0 
-0.083332 0 -4.91667 0 -0.194437 0 
-2.41667 0 -4.91667 0 -0.194437 0 
0 0 -5 0 -0.20833 0 
0 0 -2.5 0 -0.20833 0 
-0.083332 0 -2.58333 0 -0.20833 0 
0 0 -5 0 -0.194442 0 
-0.083332 0 -2.58333 0 -0.194442 0 
-0.083332 0 -4.91667 0 -0.194442 0 
0 0 -2.5 -0 -0.208325 0 
-2.5 0 -2.5 -0 -0.208325 0 
-2.41667 0 -2.58333 -0 -0.208325 0 
0 0 -2.5 0 -0.194437 0 
-2.41667 0 -2.58333 0 -0.194437 0 
-0.083332 0 -2.58333 0 -0.194437 0 
-2.5 0 -2.5 0 -0.208325 0 
-2.5 0 -5 0 -0.208325 0 
-2.41667 0 -4.91667 0 -0.208325 0 
-2.5 0 -2.5 0 -0.194437 0 
-2.41667 0 -4.91667 0 -0.194437 0 
-2.41667 0 -2.58333 0 -0.194437 0 
-4.91667 0 -4.91667 0 -0.889118 0 
-2.58333 0 -4.91667 0 -0.889118 0 
-2.96438 0 -4.53562 0 -0.889118 0 
-4.91667 0 -4.91667 0 -0.59872 0 
-2.96438 0 -4.53562 0 -0.59872 0 
-4.53562 0 -4.53562 0 -0.59872 0 
-2.58333 0 -4.91667 0 -0.889119 0 
-2.58333 0 -2.58333 0 -0.889119 0 
-2.96438 0 -2.96438 0 -0.889119 0 
-2.58333 0 -4.91667 0 -0.598721 0 
-2.96438 0 -2.96438 0 -0.598721 0 
-2.96438 0 -4.53562 0 -0.598721 0 
-2.58333 0 -2.58333 -0 -0.889119 0 
-4.91667 0 -2.58333 -0 -0.889119 0 
-4.53562 0 -2.96438 -0 -0.889119 0 
-2.58333 0 -2.58333 0 -0.598721 0 
-4.53562 0 -2.96438 0 -0.598721 0 
-2.96438 0 -2.96438 0 -0.598721 0 
-4.91667 0 -2.58333 0 -0.889118 0 
-4.91667 0 -4.91667 0 -0.889118 0 
-4.53562 0 -4.53562 0 -0.889118 0 
-4.91667 0 -2.58333 0 -0.59872 0 
-4.53562 0 -4.53562 0 -0.59872 0 
-4.53562 0 -2.96438 0 -0.59872 0 
-4.53562 0 -4.53562 0 0 0.156945 
-2.96438 0 -4.53562 0 0 0.156945 
-2.96438 0.099886 -4.53562 0 0 0.156945 
-4.53562 0 -4.53562 0 0 0.156945 
-2.96438 0.099886 -4.53562 0 0 0.156945 
-4.53562 0.099886 -4.53562 0 0 0.156945 
-2.96438 0 -4.53562 -0.156945 0 0 
-2.96438 0 -2.96438 -0.156945 0 0 
-2.96438 0.099886 -2.96438 -0.156945 0 0 
-2.96438 0 -4.53562 -0.156945 0 0 
-2.96438 0.099886 -2.96438 -0.156945 0 0 
-2.96438 0.099886 -4.53562 -0.156945 0 0 
-2.96438 0 -2.96438 0 0 -0.156945 
-4.53562 0 -2.96438 0 0 -0.156945 
-4.53562 0.099886 -2.96438 0 0 -0.156945 
-2.96438 0 -2.96438 0 0 -0.156945 
-4.53562 0.099886 -2.96438 0 0 -0.156945 
-2.96438 0.099886 -2.96438 0 0 -0.156945 
-4.53562 0 -2.96438 0.156945 0 0 
-4.53562 0 -4.53562 0.156945 0 0 
-4.53562 0.099886 -4.53562 0.156945 0 0 
-4.53562 0 -2.96438 0.156945 -0 0 
-4.53562 0.099886 -4.53562 0.156945 -0 0 
-4.53562 0.099886 -2.96438 0.156945 -0 0 
-4.53562 0.099886 -4.53562 0 -0.545268 0.725523 
-2.96438 0.099886 -4.53562 0 -0.545268 0.725523 
-3.3114 0.561638 -4.18859 0 -0.545268 0.725523 
-4.53562 0.099886 -4.53562 0 -0.304411 0.405044 
-3.3114 0.561638 -4.18859 0 -0.304411 0.405044 
-4.18859 0.561638 -4.18859 0 -0.304411 0.405044 
-2.96438 0.099886 -4.53562 -0.725523 -0.545252 0 
-2.96438 0.099886 -2.96438 -0.725523 -0.545252 0 
-3.3114 0.561638 -3.31141 -0.725523 -0.545252 0 
-2.96438 0.099886 -4.53562 -0.40504 -0.304399 0 
-3.3114 0.561638 -3.31141 -0.40504 -0.304399 0 
-3.3114 0.561638 -4.18859 -0.40504 -0.304399 0 
-2.96438 0.099886 -2.96438 -0 -0.545267 -0.725523 
-4.53562 0.099886 -2.96438 -0 -0.545267 -0.725523 
-4.18859 0.561638 -3.31141 -0 -0.545267 -0.725523 
-2.96438 0.099886 -2.96438 0 -0.304411 -0.405044 
-4.18859 0.561638 -3.31141 0 -0.304411 -0.405044 
-3.3114 0.561638 -3.31141 0 -0.304411 -0.405044 
-4.53562 0.099886 -2.96438 0.725523 -0.545268 0 
-4.53562 0.099886 -4.53562 0.725523 -0.545268 0 
-4.18859 0.561638 -4.18859 0.725523 -0.545268 0 
-4.53562 0.099886 -2.96438 0.40504 -0.304408 0 
-4.18859 0.561638 -4.18859 0.40504 -0.304408 0 
-4.18859 0.561638 -3.31141 0.40504 -0.304408 0 
3 0 1 2
3 3 4 5
3 6 7 8
3 9 10 11
3 12 13 14
3 15 16 17
3 18 19 20
3 21 22 23
3 24 25 26
3 27 28 29
3 30 31 32
3 33 34 35
3 36 37 38
3 39 40 41
3 42 43 44
3 45 46 47
3 48 49 50
3 51 52 53
3 54 55 56
3 57 58 59
3 60 61 62
3 63 64 65
3 66 67 68
3 69 70 71
3 72 73 74
3 75 76 77
3 78 79 80
3 81 82 83
3 84 85 86
3 87 88 89
3 90 91 92
3 93 94 95
3 96 97 98
3 99 100 101
3 102 103 104
3 105 106 107
3 108 109 110
3 111 112 113
3 114 115 116
3 117 118 119
3 120 121 122
3 123 124 125
3 126 127 128
3 129 130 131
3 132 133 134
3 135 136 137
3 138 139 140
3 141 142 143
3 144 145 146
3 147 148 149
3 150 151 152
3 153 154 155
3 156 157 158
3 159 160 161
3 162 163 164
3 165 166 167
3 168 169 170
3 171 172 173
3 174 175 176
3 177 178 179
3 180 181 182
3 183 184 185
3 186 187 188
3 189 190 191
