ply
format ascii 1.0
comment Feeney's Flatenator generated
comment TextureFile SpaceInteriors_Texture.png
element vertex 48
property float x
property float y
property float z
property float nx
property float ny
property float nz
property uchar red
property uchar green
property uchar blue
property uchar alpha
element face 16
property list uchar int vertex_indices
end_header
-5 4 0 0 0 1.25 108 105 102 255 
-3.75 4 0 0 0 1.25 108 105 102 255 
-3.75 5 0 0 0 1.25 108 105 102 255 
-5 4 0 0 0 1.25 108 105 102 255 
-3.75 5 0 0 0 1.25 108 105 102 255 
-5 5 0 0 0 1.25 108 105 102 255 
-2.5 4 0 0 0 1.25 108 105 102 255 
-1.25 4 0 0 0 1.25 108 105 102 255 
-1.25 5 0 0 0 1.25 108 105 102 255 
-2.5 4 0 0 0 1.25 108 105 102 255 
-1.25 5 0 0 0 1.25 108 105 102 255 
-2.5 5 0 0 0 1.25 108 105 102 255 
-3.75 4 0 0 0 1.25 108 105 102 255 
-2.5 4 0 0 0 1.25 108 105 102 255 
-2.5 5 0 0 0 1.25 108 105 102 255 
-3.75 4 0 0 0 1.25 108 105 102 255 
-2.5 5 0 0 0 1.25 108 105 102 255 
-3.75 5 0 0 0 1.25 108 105 102 255 
0 5 0 0 0 1.25 108 105 102 255 
-1.25 5 0 0 0 1.25 108 105 102 255 
-1.25 4 0 0 0 1.25 108 105 102 255 
0 5 0 0 0 1.25 108 105 102 255 
-1.25 4 0 0 0 1.25 108 105 102 255 
0 4 0 0 0 1.25 108 105 102 255 
-3.75 0 0 0 -0 5 108 105 102 255 
-3.75 4 0 0 -0 5 108 105 102 255 
-5 4 0 0 -0 5 108 105 102 255 
-3.75 0 0 0 0 5 108 105 102 255 
-5 4 0 0 0 5 108 105 102 255 
-5 0 0 0 0 5 108 105 102 255 
-2.5 0 0 0 -0 5 108 105 102 255 
-2.5 4 0 0 -0 5 108 105 102 255 
-3.75 4 0 0 -0 5 108 105 102 255 
-2.5 0 0 0 0 5 108 105 102 255 
-3.75 4 0 0 0 5 108 105 102 255 
-3.75 0 0 0 0 5 108 105 102 255 
-1.25 0 0 0 -0 5 108 105 102 255 
-1.25 4 0 0 -0 5 108 105 102 255 
-2.5 4 0 0 -0 5 108 105 102 255 
-1.25 0 0 0 0 5 108 105 102 255 
-2.5 4 0 0 0 5 108 105 102 255 
-2.5 0 0 0 0 5 108 105 102 255 
0 4 0 0 0 5 108 105 102 255 
-1.25 4 0 0 0 5 108 105 102 255 
-1.25 0 0 0 0 5 108 105 102 255 
0 4 0 0 0 5 108 105 102 255 
-1.25 0 0 0 0 5 108 105 102 255 
0 0 0 0 0 5 108 105 102 255 
3 0 1 2
3 3 4 5
3 6 7 8
3 9 10 11
3 12 13 14
3 15 16 17
3 18 19 20
3 21 22 23
3 24 25 26
3 27 28 29
3 30 31 32
3 33 34 35
3 36 37 38
3 39 40 41
3 42 43 44
3 45 46 47
