ply
format ascii 1.0
comment Feeney's Flatenator generated
comment TextureFile SpaceInteriors_Texture.png
element vertex 204
property float x
property float y
property float z
element face 68
property list uchar int vertex_indices
end_header
-0.21767 0 0.060205 
0 0 0.060205 
0 5 0.060205 
-0.21767 0 0.060205 
0 5 0.060205 
-0.21767 5 0.060205 
-0.21767 5 0.060205 
0 5 0.060205 
0 5 -0.417513 
-0.21767 5 0.060205 
0 5 -0.417513 
-0.21767 5 -0.417513 
-0.21767 5 -0.417513 
0 5 -0.417513 
0 0 -0.417513 
-0.21767 5 -0.417513 
0 0 -0.417513 
-0.21767 0 -0.417513 
-0.21767 0 -0.417513 
0 0 -0.417513 
0 0 0.060205 
-0.21767 0 -0.417513 
0 0 0.060205 
-0.21767 0 0.060205 
0 0 0.060205 
0 0 -0.417513 
0 5 -0.417513 
0 0 0.060205 
0 5 -0.417513 
0 5 0.060205 
-0.21767 0 -0.417513 
-0.21767 0 0.060205 
-0.21767 5 0.060205 
-0.21767 0 -0.417513 
-0.21767 5 0.060205 
-0.21767 5 -0.417513 
-5 0 0.060205 
-4.7881 0 0.060205 
-4.7881 5 0.060205 
-5 0 0.060205 
-4.7881 5 0.060205 
-5 5 0.060205 
-5 5 0.060205 
-4.7881 5 0.060205 
-4.7881 5 -0.417513 
-5 5 0.060205 
-4.7881 5 -0.417513 
-5 5 -0.417513 
-5 5 -0.417513 
-4.7881 5 -0.417513 
-4.7881 0 -0.417513 
-5 5 -0.417513 
-4.7881 0 -0.417513 
-5 0 -0.417513 
-5 0 -0.417513 
-4.7881 0 -0.417513 
-4.7881 0 0.060205 
-5 0 -0.417513 
-4.7881 0 0.060205 
-5 0 0.060205 
-4.7881 0 0.060205 
-4.7881 0 -0.417513 
-4.7881 5 -0.417513 
-4.7881 0 0.060205 
-4.7881 5 -0.417513 
-4.7881 5 0.060205 
-5 0 -0.417513 
-5 0 0.060205 
-5 5 0.060205 
-5 0 -0.417513 
-5 5 0.060205 
-5 5 -0.417513 
-0.21767 5 0 
-2.50289 5 0 
-2.50289 2.22174 -0.417513 
-0.21767 5 0 
-2.50289 2.22174 -0.417513 
-0.21767 2.22174 -0.417513 
-0.21767 1.30151 -0.071205 
-2.50289 1.30151 -0.071205 
-2.50289 0 -0.417513 
-0.21767 1.30151 -0.071205 
-2.50289 0 -0.417513 
-0.21767 0 -0.417513 
-0.477165 1.9383 -0.482275 
-2.24339 1.9383 -0.482275 
-2.24339 1.47193 -0.306767 
-0.477165 1.9383 -0.482275 
-2.24339 1.47193 -0.306767 
-0.477165 1.47193 -0.306767 
-2.6886 2.45312 -0.61669 
-2.6886 4.12482 -0.365471 
-3.68831 4.12482 -0.365471 
-2.6886 2.45312 -0.61669 
-3.68831 4.12482 -0.365471 
-3.68831 2.45312 -0.61669 
-2.50289 1.30151 -0.071205 
-2.50289 2.22174 -0.417513 
-4.7881 2.22174 -0.417513 
-2.50289 1.30151 -0.071205 
-4.7881 2.22174 -0.417513 
-4.7881 1.30151 -0.071205 
-2.50289 0 -0.417513 
-2.50289 1.30151 -0.071205 
-4.7881 1.30151 -0.071205 
-2.50289 0 -0.417513 
-4.7881 1.30151 -0.071205 
-4.7881 0 -0.417513 
-2.50289 2.22174 -0.417513 
-2.50289 5 0 
-2.6886 4.09044 -0.136688 
-2.50289 2.22174 -0.417513 
-2.6886 4.09044 -0.136688 
-2.6886 2.41874 -0.387907 
-2.50289 5 0 
-4.7881 5 0 
-3.68831 4.09044 -0.136688 
-2.50289 5 0 
-3.68831 4.09044 -0.136688 
-2.6886 4.09044 -0.136688 
-4.7881 5 0 
-4.7881 2.22174 -0.417513 
-3.68831 2.41874 -0.387907 
-4.7881 5 0 
-3.68831 2.41874 -0.387907 
-3.68831 4.09044 -0.136688 
-4.7881 2.22174 -0.417513 
-2.50289 2.22174 -0.417513 
-2.6886 2.41874 -0.387907 
-4.7881 2.22174 -0.417513 
-2.6886 2.41874 -0.387907 
-3.68831 2.41874 -0.387907 
-2.6886 2.41874 -0.387907 
-2.6886 4.09044 -0.136688 
-2.6886 4.12482 -0.365471 
-2.6886 2.41874 -0.387907 
-2.6886 4.12482 -0.365471 
-2.6886 2.45312 -0.61669 
-2.6886 4.09044 -0.136688 
-3.68831 4.09044 -0.136688 
-3.68831 4.12482 -0.365471 
-2.6886 4.09044 -0.136688 
-3.68831 4.12482 -0.365471 
-2.6886 4.12482 -0.365471 
-3.68831 4.09044 -0.136688 
-3.68831 2.41874 -0.387907 
-3.68831 2.45312 -0.61669 
-3.68831 4.09044 -0.136688 
-3.68831 2.45312 -0.61669 
-3.68831 4.12482 -0.365471 
-3.68831 2.41874 -0.387907 
-2.6886 2.41874 -0.387907 
-2.6886 2.45312 -0.61669 
-3.68831 2.41874 -0.387907 
-2.6886 2.45312 -0.61669 
-3.68831 2.45312 -0.61669 
-0.21767 2.22174 -0.417513 
-2.50289 2.22174 -0.417513 
-2.24339 1.99481 -0.332113 
-0.21767 2.22174 -0.417513 
-2.24339 1.99481 -0.332113 
-0.477165 1.99481 -0.332113 
-2.50289 2.22174 -0.417513 
-2.50289 1.30151 -0.071205 
-2.24339 1.52844 -0.156605 
-2.50289 2.22174 -0.417513 
-2.24339 1.52844 -0.156605 
-2.24339 1.99481 -0.332113 
-2.50289 1.30151 -0.071205 
-0.21767 1.30151 -0.071205 
-0.477165 1.52844 -0.156605 
-2.50289 1.30151 -0.071205 
-0.477165 1.52844 -0.156605 
-2.24339 1.52844 -0.156605 
-0.21767 1.30151 -0.071205 
-0.21767 2.22174 -0.417513 
-0.477165 1.99481 -0.332113 
-0.21767 1.30151 -0.071205 
-0.477165 1.99481 -0.332113 
-0.477165 1.52844 -0.156605 
-0.477165 1.99481 -0.332113 
-2.24339 1.99481 -0.332113 
-2.24339 1.9383 -0.482275 
-0.477165 1.99481 -0.332113 
-2.24339 1.9383 -0.482275 
-0.477165 1.9383 -0.482275 
-2.24339 1.99481 -0.332113 
-2.24339 1.52844 -0.156605 
-2.24339 1.47193 -0.306767 
-2.24339 1.99481 -0.332113 
-2.24339 1.47193 -0.306767 
-2.24339 1.9383 -0.482275 
-2.24339 1.52844 -0.156605 
-0.477165 1.52844 -0.156605 
-0.477165 1.47193 -0.306767 
-2.24339 1.52844 -0.156605 
-0.477165 1.47193 -0.306767 
-2.24339 1.47193 -0.306767 
-0.477165 1.52844 -0.156605 
-0.477165 1.99481 -0.332113 
-0.477165 1.9383 -0.482275 
-0.477165 1.52844 -0.156605 
-0.477165 1.9383 -0.482275 
-0.477165 1.47193 -0.306767 
3 0 1 2
3 3 4 5
3 6 7 8
3 9 10 11
3 12 13 14
3 15 16 17
3 18 19 20
3 21 22 23
3 24 25 26
3 27 28 29
3 30 31 32
3 33 34 35
3 36 37 38
3 39 40 41
3 42 43 44
3 45 46 47
3 48 49 50
3 51 52 53
3 54 55 56
3 57 58 59
3 60 61 62
3 63 64 65
3 66 67 68
3 69 70 71
3 72 73 74
3 75 76 77
3 78 79 80
3 81 82 83
3 84 85 86
3 87 88 89
3 90 91 92
3 93 94 95
3 96 97 98
3 99 100 101
3 102 103 104
3 105 106 107
3 108 109 110
3 111 112 113
3 114 115 116
3 117 118 119
3 120 121 122
3 123 124 125
3 126 127 128
3 129 130 131
3 132 133 134
3 135 136 137
3 138 139 140
3 141 142 143
3 144 145 146
3 147 148 149
3 150 151 152
3 153 154 155
3 156 157 158
3 159 160 161
3 162 163 164
3 165 166 167
3 168 169 170
3 171 172 173
3 174 175 176
3 177 178 179
3 180 181 182
3 183 184 185
3 186 187 188
3 189 190 191
3 192 193 194
3 195 196 197
3 198 199 200
3 201 202 203
