ply
format ascii 1.0
comment Feeney's Flatenator generated
comment TextureFile SpaceInteriors_Texture.png
element vertex 204
property float x
property float y
property float z
property float nx
property float ny
property float nz
property float texture_u
property float texture_v
element face 68
property list uchar int vertex_indices
end_header
-0.21767 0 0.060205 0 0 1.08835 0.265187 0.061667 
0 0 0.060205 0 0 1.08835 0.265187 0.061667 
0 5 0.060205 0 0 1.08835 0.265187 0.061667 
-0.21767 0 0.060205 0 0 1.08835 0.265187 0.061667 
0 5 0.060205 0 0 1.08835 0.265187 0.061667 
-0.21767 5 0.060205 0 0 1.08835 0.265187 0.061667 
-0.21767 5 0.060205 -0 0.103985 0 0.300052 0.061667 
0 5 0.060205 -0 0.103985 0 0.300052 0.061667 
0 5 -0.417513 -0 0.103985 0 0.300052 0.061667 
-0.21767 5 0.060205 0 0.103985 0 0.300052 0.061667 
0 5 -0.417513 0 0.103985 0 0.300052 0.061667 
-0.21767 5 -0.417513 0 0.103985 0 0.300052 0.061667 
-0.21767 5 -0.417513 0 0 -1.08835 0.265187 0.061667 
0 5 -0.417513 0 0 -1.08835 0.265187 0.061667 
0 0 -0.417513 0 0 -1.08835 0.265187 0.061667 
-0.21767 5 -0.417513 0 0 -1.08835 0.265187 0.061667 
0 0 -0.417513 0 0 -1.08835 0.265187 0.061667 
-0.21767 0 -0.417513 0 0 -1.08835 0.265187 0.061667 
-0.21767 0 -0.417513 0 -0.103985 0 0.200168 0.061667 
0 0 -0.417513 0 -0.103985 0 0.200168 0.061667 
0 0 0.060205 0 -0.103985 0 0.200168 0.061667 
-0.21767 0 -0.417513 0 -0.103985 0 0.200168 0.061667 
0 0 0.060205 0 -0.103985 0 0.200168 0.061667 
-0.21767 0 0.060205 0 -0.103985 0 0.200168 0.061667 
0 0 0.060205 2.38859 0 0 0.233148 0.061667 
0 0 -0.417513 2.38859 0 0 0.233148 0.061667 
0 5 -0.417513 2.38859 0 0 0.233148 0.061667 
0 0 0.060205 2.38859 -0 0 0.233148 0.061667 
0 5 -0.417513 2.38859 -0 0 0.233148 0.061667 
0 5 0.060205 2.38859 -0 0 0.233148 0.061667 
-0.21767 0 -0.417513 -2.38859 0 0 0.233148 0.061667 
-0.21767 0 0.060205 -2.38859 0 0 0.233148 0.061667 
-0.21767 5 0.060205 -2.38859 0 0 0.233148 0.061667 
-0.21767 0 -0.417513 -2.38859 0 0 0.233148 0.061667 
-0.21767 5 0.060205 -2.38859 0 0 0.233148 0.061667 
-0.21767 5 -0.417513 -2.38859 0 0 0.233148 0.061667 
-5 0 0.060205 0 0 1.0595 0.265187 0.061667 
-4.7881 0 0.060205 0 0 1.0595 0.265187 0.061667 
-4.7881 5 0.060205 0 0 1.0595 0.265187 0.061667 
-5 0 0.060205 0 0 1.0595 0.265187 0.061667 
-4.7881 5 0.060205 0 0 1.0595 0.265187 0.061667 
-5 5 0.060205 0 0 1.0595 0.265187 0.061667 
-5 5 0.060205 -0 0.101229 0 0.300052 0.061667 
-4.7881 5 0.060205 -0 0.101229 0 0.300052 0.061667 
-4.7881 5 -0.417513 -0 0.101229 0 0.300052 0.061667 
-5 5 0.060205 0 0.101229 0 0.300052 0.061667 
-4.7881 5 -0.417513 0 0.101229 0 0.300052 0.061667 
-5 5 -0.417513 0 0.101229 0 0.300052 0.061667 
-5 5 -0.417513 0 0 -1.0595 0.265187 0.061667 
-4.7881 5 -0.417513 0 0 -1.0595 0.265187 0.061667 
-4.7881 0 -0.417513 0 0 -1.0595 0.265187 0.061667 
-5 5 -0.417513 0 0 -1.0595 0.265187 0.061667 
-4.7881 0 -0.417513 0 0 -1.0595 0.265187 0.061667 
-5 0 -0.417513 0 0 -1.0595 0.265187 0.061667 
-5 0 -0.417513 0 -0.101229 0 0.200168 0.061667 
-4.7881 0 -0.417513 0 -0.101229 0 0.200168 0.061667 
-4.7881 0 0.060205 0 -0.101229 0 0.200168 0.061667 
-5 0 -0.417513 0 -0.101229 0 0.200168 0.061667 
-4.7881 0 0.060205 0 -0.101229 0 0.200168 0.061667 
-5 0 0.060205 0 -0.101229 0 0.200168 0.061667 
-4.7881 0 0.060205 2.38859 0 0 0.233148 0.061667 
-4.7881 0 -0.417513 2.38859 0 0 0.233148 0.061667 
-4.7881 5 -0.417513 2.38859 0 0 0.233148 0.061667 
-4.7881 0 0.060205 2.38859 -0 0 0.233148 0.061667 
-4.7881 5 -0.417513 2.38859 -0 0 0.233148 0.061667 
-4.7881 5 0.060205 2.38859 -0 0 0.233148 0.061667 
-5 0 -0.417513 -2.38859 0 0 0.233148 0.061667 
-5 0 0.060205 -2.38859 0 0 0.233148 0.061667 
-5 5 0.060205 -2.38859 0 0 0.233148 0.061667 
-5 0 -0.417513 -2.38859 0 0 0.233148 0.061667 
-5 5 0.060205 -2.38859 0 0 0.233148 0.061667 
-5 5 -0.417513 -2.38859 0 0 0.233148 0.061667 
-0.21767 5 0 0 -0.954109 6.34894 0.327754 0.060391 
-2.50289 5 0 0 -0.954109 6.34894 0.327754 0.060391 
-2.50289 2.22174 -0.417513 0 -0.954109 6.34894 0.327754 0.060391 
-0.21767 5 0 0 -0.954109 6.34894 0.327754 0.060391 
-2.50289 2.22174 -0.417513 0 -0.954109 6.34894 0.327754 0.060391 
-0.21767 2.22174 -0.417513 0 -0.954109 6.34894 0.327754 0.060391 
-0.21767 1.30151 -0.071205 0 -0.79139 2.97424 0.327754 0.060391 
-2.50289 1.30151 -0.071205 0 -0.79139 2.97424 0.327754 0.060391 
-2.50289 0 -0.417513 0 -0.79139 2.97424 0.327754 0.060391 
-0.21767 1.30151 -0.071205 0 -0.79139 2.97424 0.327754 0.060391 
-2.50289 0 -0.417513 0 -0.79139 2.97424 0.327754 0.060391 
-0.21767 0 -0.417513 0 -0.79139 2.97424 0.327754 0.060391 
-0.477165 1.9383 -0.482275 0 0.309987 0.823714 0.749305 0.748185 
-2.24339 1.9383 -0.482275 0 0.309987 0.823714 0.508621 0.748185 
-2.24339 1.47193 -0.306767 0 0.309987 0.823714 0.508621 0.673737 
-0.477165 1.9383 -0.482275 0 0.309987 0.823714 0.749305 0.748185 
-2.24339 1.47193 -0.306767 0 0.309987 0.823714 0.508621 0.673737 
-0.477165 1.47193 -0.306767 0 0.309987 0.823714 0.749305 0.673737 
-2.6886 2.45312 -0.61669 0 -0.251146 1.67122 0.991111 0.763175 
-2.6886 4.12482 -0.365471 0 -0.251146 1.67122 0.991111 0.873624 
-3.68831 4.12482 -0.365471 0 -0.251146 1.67122 0.887817 0.873624 
-2.6886 2.45312 -0.61669 0 -0.251146 1.67122 0.991111 0.763175 
-3.68831 4.12482 -0.365471 0 -0.251146 1.67122 0.887817 0.873624 
-3.68831 2.45312 -0.61669 0 -0.251146 1.67122 0.887817 0.763175 
-2.50289 1.30151 -0.071205 0 0.791386 2.10292 0.358735 0.060391 
-2.50289 2.22174 -0.417513 0 0.791386 2.10292 0.358735 0.060391 
-4.7881 2.22174 -0.417513 0 0.791386 2.10292 0.358735 0.060391 
-2.50289 1.30151 -0.071205 0 0.791386 2.10292 0.358735 0.060391 
-4.7881 2.22174 -0.417513 0 0.791386 2.10292 0.358735 0.060391 
-4.7881 1.30151 -0.071205 0 0.791386 2.10292 0.358735 0.060391 
-2.50289 0 -0.417513 0 -0.791386 2.97422 0.991532 0.638601 
-2.50289 1.30151 -0.071205 0 -0.791386 2.97422 0.991532 0.704368 
-4.7881 1.30151 -0.071205 0 -0.791386 2.97422 0.918815 0.704368 
-2.50289 0 -0.417513 0 -0.791386 2.97422 0.991532 0.638601 
-4.7881 1.30151 -0.071205 0 -0.791386 2.97422 0.918815 0.704368 
-4.7881 0 -0.417513 0 -0.791386 2.97422 0.918815 0.638601 
-2.50289 2.22174 -0.417513 -1.60933e-06 -0.0775363 0.515951 0.327754 0.060391 
-2.50289 5 0 -1.60933e-06 -0.0775363 0.515951 0.327754 0.060391 
-2.6886 4.09044 -0.136688 -1.60933e-06 -0.0775363 0.515951 0.327754 0.060391 
-2.50289 2.22174 -0.417513 2.21655e-06 -0.0466539 0.310451 0.327754 0.060391 
-2.6886 4.09044 -0.136688 2.21655e-06 -0.0466539 0.310451 0.327754 0.060391 
-2.6886 2.41874 -0.387907 2.21655e-06 -0.0466539 0.310451 0.327754 0.060391 
-2.50289 5 0 0 -0.312361 2.07854 0.327754 0.060391 
-4.7881 5 0 0 -0.312361 2.07854 0.327754 0.060391 
-3.68831 4.09044 -0.136688 0 -0.312361 2.07854 0.327754 0.060391 
-2.50289 5 0 0 -0.136648 0.909296 0.327754 0.060391 
-3.68831 4.09044 -0.136688 0 -0.136648 0.909296 0.327754 0.060391 
-2.6886 4.09044 -0.136688 0 -0.136648 0.909296 0.327754 0.060391 
-4.7881 5 0 -3.21865e-06 -0.459177 3.0555 0.327754 0.060391 
-4.7881 2.22174 -0.417513 -3.21865e-06 -0.459177 3.0555 0.327754 0.060391 
-3.68831 2.41874 -0.387907 -3.21865e-06 -0.459177 3.0555 0.327754 0.060391 
-4.7881 5 0 2.47359e-06 -0.276288 1.83852 0.327754 0.060391 
-3.68831 2.41874 -0.387907 2.47359e-06 -0.276288 1.83852 0.327754 0.060391 
-3.68831 4.09044 -0.136688 2.47359e-06 -0.276288 1.83852 0.327754 0.060391 
-4.7881 2.22174 -0.417513 0 -0.067656 0.450186 0.327754 0.060391 
-2.50289 2.22174 -0.417513 0 -0.067656 0.450186 0.327754 0.060391 
-2.6886 2.41874 -0.387907 0 -0.067656 0.450186 0.327754 0.060391 
-4.7881 2.22174 -0.417513 0 -0.0295974 0.196943 0.327754 0.060391 
-2.6886 2.41874 -0.387907 0 -0.0295974 0.196943 0.327754 0.060391 
-3.68831 2.41874 -0.387907 0 -0.0295974 0.196943 0.327754 0.060391 
-2.6886 2.41874 -0.387907 -0.391094 0 0 0.267893 0.060391 
-2.6886 4.09044 -0.136688 -0.391094 0 0 0.267893 0.060391 
-2.6886 4.12482 -0.365471 -0.391094 0 0 0.267893 0.060391 
-2.6886 2.41874 -0.387907 -0.391093 0 0 0.267893 0.060391 
-2.6886 4.12482 -0.365471 -0.391093 0 0 0.267893 0.060391 
-2.6886 2.45312 -0.61669 -0.391093 0 0 0.267893 0.060391 
-2.6886 4.09044 -0.136688 -0 -0.228717 -0.0343705 0.236765 0.060391 
-3.68831 4.09044 -0.136688 -0 -0.228717 -0.0343705 0.236765 0.060391 
-3.68831 4.12482 -0.365471 -0 -0.228717 -0.0343705 0.236765 0.060391 
-2.6886 4.09044 -0.136688 0 -0.228717 -0.0343705 0.236765 0.060391 
-3.68831 4.12482 -0.365471 0 -0.228717 -0.0343705 0.236765 0.060391 
-2.6886 4.12482 -0.365471 0 -0.228717 -0.0343705 0.236765 0.060391 
-3.68831 4.09044 -0.136688 0.391093 0 0 0.267893 0.060391 
-3.68831 2.41874 -0.387907 0.391093 0 0 0.267893 0.060391 
-3.68831 2.45312 -0.61669 0.391093 0 0 0.267893 0.060391 
-3.68831 4.09044 -0.136688 0.391094 0 0 0.267893 0.060391 
-3.68831 2.45312 -0.61669 0.391094 0 0 0.267893 0.060391 
-3.68831 4.12482 -0.365471 0.391094 0 0 0.267893 0.060391 
-3.68831 2.41874 -0.387907 -0 0.228717 0.03437 0.356487 0.060391 
-2.6886 2.41874 -0.387907 -0 0.228717 0.03437 0.356487 0.060391 
-2.6886 2.45312 -0.61669 -0 0.228717 0.03437 0.356487 0.060391 
-3.68831 2.41874 -0.387907 0 0.228717 0.03437 0.356487 0.060391 
-2.6886 2.45312 -0.61669 0 0.228717 0.03437 0.356487 0.060391 
-3.68831 2.45312 -0.61669 0 0.228717 0.03437 0.356487 0.060391 
-0.21767 2.22174 -0.417513 0 0.195158 0.518585 0.358735 0.060391 
-2.50289 2.22174 -0.417513 0 0.195158 0.518585 0.358735 0.060391 
-2.24339 1.99481 -0.332113 0 0.195158 0.518585 0.358735 0.060391 
-0.21767 2.22174 -0.417513 0 0.150836 0.400809 0.358735 0.060391 
-2.24339 1.99481 -0.332113 0 0.150836 0.400809 0.358735 0.060391 
-0.477165 1.99481 -0.332113 0 0.150836 0.400809 0.358735 0.060391 
-2.50289 2.22174 -0.417513 -1.49012e-08 0.0898669 0.2388 0.358735 0.060391 
-2.50289 1.30151 -0.071205 -1.49012e-08 0.0898669 0.2388 0.358735 0.060391 
-2.24339 1.52844 -0.156605 -1.49012e-08 0.0898669 0.2388 0.358735 0.060391 
-2.50289 2.22174 -0.417513 2.98023e-08 0.0455443 0.121023 0.358735 0.060391 
-2.24339 1.52844 -0.156605 2.98023e-08 0.0455443 0.121023 0.358735 0.060391 
-2.24339 1.99481 -0.332113 2.98023e-08 0.0455443 0.121023 0.358735 0.060391 
-2.50289 1.30151 -0.071205 -0 0.195158 0.518585 0.358735 0.060391 
-0.21767 1.30151 -0.071205 -0 0.195158 0.518585 0.358735 0.060391 
-0.477165 1.52844 -0.156605 -0 0.195158 0.518585 0.358735 0.060391 
-2.50289 1.30151 -0.071205 0 0.150836 0.400809 0.358735 0.060391 
-0.477165 1.52844 -0.156605 0 0.150836 0.400809 0.358735 0.060391 
-2.24339 1.52844 -0.156605 0 0.150836 0.400809 0.358735 0.060391 
-0.21767 1.30151 -0.071205 -1.49012e-08 0.0898652 0.238795 0.358735 0.060391 
-0.21767 2.22174 -0.417513 -1.49012e-08 0.0898652 0.238795 0.358735 0.060391 
-0.477165 1.99481 -0.332113 -1.49012e-08 0.0898652 0.238795 0.358735 0.060391 
-0.21767 1.30151 -0.071205 3.35276e-08 0.0455435 0.121021 0.358735 0.060391 
-0.477165 1.99481 -0.332113 3.35276e-08 0.0455435 0.121021 0.358735 0.060391 
-0.477165 1.52844 -0.156605 3.35276e-08 0.0455435 0.121021 0.358735 0.060391 
-0.477165 1.99481 -0.332113 0 -0.26522 0.0998093 0.267972 0.061416 
-2.24339 1.99481 -0.332113 0 -0.26522 0.0998093 0.267972 0.061416 
-2.24339 1.9383 -0.482275 0 -0.26522 0.0998093 0.267972 0.061416 
-0.477165 1.99481 -0.332113 0 -0.26522 0.0998093 0.267972 0.061416 
-2.24339 1.9383 -0.482275 0 -0.26522 0.0998093 0.267972 0.061416 
-0.477165 1.9383 -0.482275 0 -0.26522 0.0998093 0.267972 0.061416 
-2.24339 1.99481 -0.332113 0.079949 0 0 0.295144 0.061416 
-2.24339 1.52844 -0.156605 0.079949 0 0 0.295144 0.061416 
-2.24339 1.47193 -0.306767 0.079949 0 0 0.295144 0.061416 
-2.24339 1.99481 -0.332113 0.079949 0 0 0.295144 0.061416 
-2.24339 1.47193 -0.306767 0.079949 0 0 0.295144 0.061416 
-2.24339 1.9383 -0.482275 0.079949 0 0 0.295144 0.061416 
-2.24339 1.52844 -0.156605 0 0.26522 -0.0998093 0.386849 0.061416 
-0.477165 1.52844 -0.156605 0 0.26522 -0.0998093 0.386849 0.061416 
-0.477165 1.47193 -0.306767 0 0.26522 -0.0998093 0.386849 0.061416 
-2.24339 1.52844 -0.156605 0 0.26522 -0.0998093 0.386849 0.061416 
-0.477165 1.47193 -0.306767 0 0.26522 -0.0998093 0.386849 0.061416 
-2.24339 1.47193 -0.306767 0 0.26522 -0.0998093 0.386849 0.061416 
-0.477165 1.52844 -0.156605 -0.079949 0 0 0.295144 0.061416 
-0.477165 1.99481 -0.332113 -0.079949 0 0 0.295144 0.061416 
-0.477165 1.9383 -0.482275 -0.079949 0 0 0.295144 0.061416 
-0.477165 1.52844 -0.156605 -0.079949 0 -0 0.295144 0.061416 
-0.477165 1.9383 -0.482275 -0.079949 0 -0 0.295144 0.061416 
-0.477165 1.47193 -0.306767 -0.079949 0 -0 0.295144 0.061416 
3 0 1 2
3 3 4 5
3 6 7 8
3 9 10 11
3 12 13 14
3 15 16 17
3 18 19 20
3 21 22 23
3 24 25 26
3 27 28 29
3 30 31 32
3 33 34 35
3 36 37 38
3 39 40 41
3 42 43 44
3 45 46 47
3 48 49 50
3 51 52 53
3 54 55 56
3 57 58 59
3 60 61 62
3 63 64 65
3 66 67 68
3 69 70 71
3 72 73 74
3 75 76 77
3 78 79 80
3 81 82 83
3 84 85 86
3 87 88 89
3 90 91 92
3 93 94 95
3 96 97 98
3 99 100 101
3 102 103 104
3 105 106 107
3 108 109 110
3 111 112 113
3 114 115 116
3 117 118 119
3 120 121 122
3 123 124 125
3 126 127 128
3 129 130 131
3 132 133 134
3 135 136 137
3 138 139 140
3 141 142 143
3 144 145 146
3 147 148 149
3 150 151 152
3 153 154 155
3 156 157 158
3 159 160 161
3 162 163 164
3 165 166 167
3 168 169 170
3 171 172 173
3 174 175 176
3 177 178 179
3 180 181 182
3 183 184 185
3 186 187 188
3 189 190 191
3 192 193 194
3 195 196 197
3 198 199 200
3 201 202 203
