ply
format ascii 1.0
comment Feeney's Flatenator generated
comment TextureFile SpaceInteriors_Texture.png
element vertex 156
property float x
property float y
property float z
property float nx
property float ny
property float nz
property float texture_u
property float texture_v
element face 52
property list uchar int vertex_indices
end_header
-0.538218 -0.032527 0.881366 0 0 0.0700265 0.358354 0.060665 
0.538219 -0.032527 0.881366 0 0 0.0700265 0.358354 0.060665 
0.538219 0.032527 0.881366 0 0 0.0700265 0.358354 0.060665 
-0.538218 -0.032527 0.881366 0 0 0.0700265 0.358354 0.060665 
0.538219 0.032527 0.881366 0 0 0.0700265 0.358354 0.060665 
-0.538218 0.032527 0.881366 0 0 0.0700265 0.358354 0.060665 
-0.06663 0.176033 0.022737 -0 0.0412906 0 0.423193 0.480927 
0.252665 0.176033 0.022737 -0 0.0412906 0 0.423193 0.480927 
0.252665 0.176033 -0.106581 -0 0.0412906 0 0.423193 0.480927 
-0.06663 0.176033 0.022737 0 0.0412906 0 0.423193 0.480927 
0.252665 0.176033 -0.106581 0 0.0412906 0 0.423193 0.480927 
-0.06663 0.176033 -0.106581 0 0.0412906 0 0.423193 0.480927 
-0.538218 0.032527 -0.685323 0 0 -0.0700265 0.358354 0.060665 
0.538219 0.032527 -0.685323 0 0 -0.0700265 0.358354 0.060665 
0.538219 -0.032527 -0.685323 0 0 -0.0700265 0.358354 0.060665 
-0.538218 0.032527 -0.685323 0 0 -0.0700265 0.358354 0.060665 
0.538219 -0.032527 -0.685323 0 0 -0.0700265 0.358354 0.060665 
-0.538218 -0.032527 -0.685323 0 0 -0.0700265 0.358354 0.060665 
-0.325765 -0.176032 -0.191945 0 -0.503052 0 0.173045 0.023837 
0.325767 -0.176032 -0.191945 0 -0.503052 0 0.173045 0.023837 
0.325767 -0.176032 0.580162 0 -0.503052 0 0.173045 0.023837 
-0.325765 -0.176032 -0.191945 0 -0.503052 0 0.173045 0.023837 
0.325767 -0.176032 0.580162 0 -0.503052 0 0.173045 0.023837 
-0.325765 -0.176032 0.580162 0 -0.503052 0 0.173045 0.023837 
0.538219 -0.032527 0.881366 0.101919 0 0 0.326315 0.060665 
0.538219 -0.032527 -0.685323 0.101919 0 0 0.326315 0.060665 
0.538219 0.032527 -0.685323 0.101919 0 0 0.326315 0.060665 
0.538219 -0.032527 0.881366 0.101919 -0 0 0.326315 0.060665 
0.538219 0.032527 -0.685323 0.101919 -0 0 0.326315 0.060665 
0.538219 0.032527 0.881366 0.101919 -0 0 0.326315 0.060665 
-0.538218 -0.032527 -0.685323 -0.101919 0 0 0.326315 0.060665 
-0.538218 -0.032527 0.881366 -0.101919 0 0 0.326315 0.060665 
-0.538218 0.032527 0.881366 -0.101919 0 0 0.326315 0.060665 
-0.538218 -0.032527 -0.685323 -0.101919 0 0 0.326315 0.060665 
-0.538218 0.032527 0.881366 -0.101919 0 0 0.326315 0.060665 
-0.538218 0.032527 -0.685323 -0.101919 0 0 0.326315 0.060665 
-0.538218 0.032527 0.881366 -0 0.243588 0 0.393219 0.060665 
0.538219 0.032527 0.881366 -0 0.243588 0 0.393219 0.060665 
0.388979 0.032527 0.655075 -0 0.243588 0 0.393219 0.060665 
-0.538218 0.032527 0.881366 0 0.176044 0 0.393219 0.060665 
0.388979 0.032527 0.655075 0 0.176044 0 0.393219 0.060665 
-0.388977 0.032527 0.655075 0 0.176044 0 0.393219 0.060665 
0.538219 0.032527 0.881366 0 0.233813 0 0.393219 0.060665 
0.538219 0.032527 -0.685323 0 0.233813 0 0.393219 0.060665 
0.388979 0.032527 -0.266855 0 0.233813 0 0.393219 0.060665 
0.538219 0.032527 0.881366 0 0.137589 0 0.393219 0.060665 
0.388979 0.032527 -0.266855 0 0.137589 0 0.393219 0.060665 
0.388979 0.032527 0.655075 0 0.137589 0 0.393219 0.060665 
0.538219 0.032527 -0.685323 0 0.450454 0 0.393219 0.060665 
-0.538218 0.032527 -0.685323 0 0.450454 0 0.393219 0.060665 
-0.388977 0.032527 -0.266855 0 0.450454 0 0.393219 0.060665 
0.538219 0.032527 -0.685323 0 0.32555 0 0.393219 0.060665 
-0.388977 0.032527 -0.266855 0 0.32555 0 0.393219 0.060665 
0.388979 0.032527 -0.266855 0 0.32555 0 0.393219 0.060665 
-0.538218 0.032527 -0.685323 0 0.233814 0 0.393219 0.060665 
-0.538218 0.032527 0.881366 0 0.233814 0 0.393219 0.060665 
-0.388977 0.032527 0.655075 0 0.233814 0 0.393219 0.060665 
-0.538218 0.032527 -0.685323 0 0.13759 0 0.393219 0.060665 
-0.388977 0.032527 0.655075 0 0.13759 0 0.393219 0.060665 
-0.388977 0.032527 -0.266855 0 0.13759 0 0.393219 0.060665 
-0.538218 -0.032527 -0.685323 0 -0.450454 0 0.293334 0.060665 
0.538219 -0.032527 -0.685323 0 -0.450454 0 0.293334 0.060665 
0.388979 -0.032527 -0.266855 0 -0.450454 0 0.293334 0.060665 
-0.538218 -0.032527 -0.685323 0 -0.32555 0 0.293334 0.060665 
0.388979 -0.032527 -0.266855 0 -0.32555 0 0.293334 0.060665 
-0.388977 -0.032527 -0.266855 0 -0.32555 0 0.293334 0.060665 
0.538219 -0.032527 -0.685323 0 -0.233813 0 0.293334 0.060665 
0.538219 -0.032527 0.881366 0 -0.233813 0 0.293334 0.060665 
0.388979 -0.032527 0.655075 0 -0.233813 0 0.293334 0.060665 
0.538219 -0.032527 -0.685323 0 -0.137589 0 0.293334 0.060665 
0.388979 -0.032527 0.655075 0 -0.137589 0 0.293334 0.060665 
0.388979 -0.032527 -0.266855 0 -0.137589 0 0.293334 0.060665 
0.538219 -0.032527 0.881366 -0 -0.243588 0 0.293334 0.060665 
-0.538218 -0.032527 0.881366 -0 -0.243588 0 0.293334 0.060665 
-0.388977 -0.032527 0.655075 -0 -0.243588 0 0.293334 0.060665 
0.538219 -0.032527 0.881366 0 -0.176044 0 0.293334 0.060665 
-0.388977 -0.032527 0.655075 0 -0.176044 0 0.293334 0.060665 
0.388979 -0.032527 0.655075 0 -0.176044 0 0.293334 0.060665 
-0.538218 -0.032527 0.881366 0 -0.233814 0 0.293334 0.060665 
-0.538218 -0.032527 -0.685323 0 -0.233814 0 0.293334 0.060665 
-0.388977 -0.032527 -0.266855 0 -0.233814 0 0.293334 0.060665 
-0.538218 -0.032527 0.881366 0 -0.13759 0 0.293334 0.060665 
-0.388977 -0.032527 -0.266855 0 -0.13759 0 0.293334 0.060665 
-0.388977 -0.032527 0.655075 0 -0.13759 0 0.293334 0.060665 
-0.388977 0.032527 0.655075 -0 0.058279 0.111641 0.285945 0.023728 
0.388979 0.032527 0.655075 -0 0.058279 0.111641 0.285945 0.023728 
0.325767 0.176033 0.580162 -0 0.058279 0.111641 0.285945 0.023728 
-0.388977 0.032527 0.655075 0 0.0488082 0.0934988 0.285945 0.023728 
0.325767 0.176033 0.580162 0 0.0488082 0.0934988 0.285945 0.023728 
-0.325765 0.176033 0.580162 0 0.0488082 0.0934988 0.285945 0.023728 
0.388979 0.032527 0.655075 0.132302 0.058277 0 0.259347 0.023796 
0.388979 0.032527 -0.266855 0.132302 0.058277 0 0.259347 0.023796 
0.325767 0.176033 -0.191945 0.132302 0.058277 0 0.259347 0.023796 
0.388979 0.032527 0.655075 0.110802 0.0488064 0 0.259347 0.023796 
0.325767 0.176033 -0.191945 0.110802 0.0488064 0 0.259347 0.023796 
0.325767 0.176033 0.580162 0.110802 0.0488064 0 0.259347 0.023796 
0.388979 0.032527 -0.266855 0 0.0582767 -0.111641 0.285945 0.023728 
-0.388977 0.032527 -0.266855 0 0.0582767 -0.111641 0.285945 0.023728 
-0.325765 0.176033 -0.191945 0 0.0582767 -0.111641 0.285945 0.023728 
0.388979 0.032527 -0.266855 0 0.0488063 -0.0934988 0.285945 0.023728 
-0.325765 0.176033 -0.191945 0 0.0488063 -0.0934988 0.285945 0.023728 
0.325767 0.176033 -0.191945 0 0.0488063 -0.0934988 0.285945 0.023728 
-0.388977 0.032527 -0.266855 -0.132302 0.058277 0 0.259347 0.023796 
-0.388977 0.032527 0.655075 -0.132302 0.058277 0 0.259347 0.023796 
-0.325765 0.176033 0.580162 -0.132302 0.058277 0 0.259347 0.023796 
-0.388977 0.032527 -0.266855 -0.110802 0.0488064 0 0.259347 0.023796 
-0.325765 0.176033 0.580162 -0.110802 0.0488064 0 0.259347 0.023796 
-0.325765 0.176033 -0.191945 -0.110802 0.0488064 0 0.259347 0.023796 
-0.388977 -0.032527 -0.266855 0 -0.0582767 -0.111641 0.232258 0.023728 
0.388979 -0.032527 -0.266855 0 -0.0582767 -0.111641 0.232258 0.023728 
0.325767 -0.176032 -0.191945 0 -0.0582767 -0.111641 0.232258 0.023728 
-0.388977 -0.032527 -0.266855 0 -0.0488063 -0.0934981 0.232258 0.023728 
0.325767 -0.176032 -0.191945 0 -0.0488063 -0.0934981 0.232258 0.023728 
-0.325765 -0.176032 -0.191945 0 -0.0488063 -0.0934981 0.232258 0.023728 
0.388979 -0.032527 -0.266855 0.132302 -0.058277 0 0.20566 0.023796 
0.388979 -0.032527 0.655075 0.132302 -0.058277 0 0.20566 0.023796 
0.325767 -0.176032 0.580162 0.132302 -0.058277 0 0.20566 0.023796 
0.388979 -0.032527 -0.266855 0.110801 -0.0488064 0 0.20566 0.023796 
0.325767 -0.176032 0.580162 0.110801 -0.0488064 0 0.20566 0.023796 
0.325767 -0.176032 -0.191945 0.110801 -0.0488064 0 0.20566 0.023796 
0.388979 -0.032527 0.655075 0 -0.058279 0.111641 0.232258 0.023728 
-0.388977 -0.032527 0.655075 0 -0.058279 0.111641 0.232258 0.023728 
-0.325765 -0.176032 0.580162 0 -0.058279 0.111641 0.232258 0.023728 
0.388979 -0.032527 0.655075 0 -0.0488082 0.0934981 0.232258 0.023728 
-0.325765 -0.176032 0.580162 0 -0.0488082 0.0934981 0.232258 0.023728 
0.325767 -0.176032 0.580162 0 -0.0488082 0.0934981 0.232258 0.023728 
-0.388977 -0.032527 0.655075 -0.132302 -0.058277 -0 0.20566 0.023796 
-0.388977 -0.032527 -0.266855 -0.132302 -0.058277 -0 0.20566 0.023796 
-0.325765 -0.176032 -0.191945 -0.132302 -0.058277 -0 0.20566 0.023796 
-0.388977 -0.032527 0.655075 -0.110801 -0.0488064 0 0.20566 0.023796 
-0.325765 -0.176032 -0.191945 -0.110801 -0.0488064 0 0.20566 0.023796 
-0.325765 -0.176032 0.580162 -0.110801 -0.0488064 0 0.20566 0.023796 
-0.325765 0.176033 0.580162 -0 0.36318 0 0.326617 0.023837 
0.325767 0.176033 0.580162 -0 0.36318 0 0.326617 0.023837 
0.252665 0.176033 0.022737 -0 0.36318 0 0.326617 0.023837 
-0.325765 0.176033 0.580162 0 0.177983 0 0.326617 0.023837 
0.252665 0.176033 0.022737 0 0.177983 0 0.326617 0.023837 
-0.06663 0.176033 0.022737 0 0.177983 0 0.326617 0.023837 
0.325767 0.176033 0.580162 0 0.0564426 0 0.326617 0.023837 
0.325767 0.176033 -0.191945 0 0.0564426 0 0.326617 0.023837 
0.252665 0.176033 -0.106581 0 0.0564426 0 0.326617 0.023837 
0.325767 0.176033 0.580162 0 0.00945341 0 0.326617 0.023837 
0.252665 0.176033 -0.106581 0 0.00945341 0 0.326617 0.023837 
0.252665 0.176033 0.022737 0 0.00945341 0 0.326617 0.023837 
0.325767 0.176033 -0.191945 0 0.0556174 0 0.326617 0.023837 
-0.325765 0.176033 -0.191945 0 0.0556174 0 0.326617 0.023837 
-0.06663 0.176033 -0.106581 0 0.0556174 0 0.326617 0.023837 
0.325767 0.176033 -0.191945 0 0.0272563 0 0.326617 0.023837 
-0.06663 0.176033 -0.106581 0 0.0272563 0 0.326617 0.023837 
0.252665 0.176033 -0.106581 0 0.0272563 0 0.326617 0.023837 
-0.325765 0.176033 -0.191945 0 0.20008 0 0.326617 0.023837 
-0.325765 0.176033 0.580162 0 0.20008 0 0.326617 0.023837 
-0.06663 0.176033 0.022737 0 0.20008 0 0.326617 0.023837 
-0.325765 0.176033 -0.191945 0 0.0335108 0 0.326617 0.023837 
-0.06663 0.176033 0.022737 0 0.0335108 0 0.326617 0.023837 
-0.06663 0.176033 -0.106581 0 0.0335108 0 0.326617 0.023837 
3 0 1 2
3 3 4 5
3 6 7 8
3 9 10 11
3 12 13 14
3 15 16 17
3 18 19 20
3 21 22 23
3 24 25 26
3 27 28 29
3 30 31 32
3 33 34 35
3 36 37 38
3 39 40 41
3 42 43 44
3 45 46 47
3 48 49 50
3 51 52 53
3 54 55 56
3 57 58 59
3 60 61 62
3 63 64 65
3 66 67 68
3 69 70 71
3 72 73 74
3 75 76 77
3 78 79 80
3 81 82 83
3 84 85 86
3 87 88 89
3 90 91 92
3 93 94 95
3 96 97 98
3 99 100 101
3 102 103 104
3 105 106 107
3 108 109 110
3 111 112 113
3 114 115 116
3 117 118 119
3 120 121 122
3 123 124 125
3 126 127 128
3 129 130 131
3 132 133 134
3 135 136 137
3 138 139 140
3 141 142 143
3 144 145 146
3 147 148 149
3 150 151 152
3 153 154 155
