ply
format ascii 1.0
comment Feeney's Flatenator generated
comment TextureFile SpaceInteriors_Texture.png
element vertex 36
property float x
property float y
property float z
property float nx
property float ny
property float nz
property uchar red
property uchar green
property uchar blue
property uchar alpha
property float texture_u
property float texture_v
element face 12
property list uchar int vertex_indices
end_header
-0.350223 0 0.272078 0 0 0.0267192 206 206 206 255 0.390957 0.479127 
0.350223 0 0.272078 0 0 0.0267192 206 206 206 255 0.390956 0.479127 
0.350223 0.038146 0.272078 0 0 0.0267192 206 206 206 255 0.390956 0.479127 
-0.350223 0 0.272078 0 0 0.0267192 206 206 206 255 0.390957 0.479127 
0.350223 0.038146 0.272078 0 0 0.0267192 206 206 206 255 0.390956 0.479127 
-0.350223 0.038146 0.272078 0 0 0.0267192 206 206 206 255 0.390957 0.479127 
-0.350223 0.038146 0.272078 -0 0.381152 0 206 206 206 255 0.419222 0.478383 
0.350223 0.038146 0.272078 -0 0.381152 0 206 206 206 255 0.419222 0.478383 
0.350223 0.038146 -0.272078 -0 0.381152 0 206 206 206 255 0.419222 0.478383 
-0.350223 0.038146 0.272078 0 0.381152 0 206 206 206 255 0.419222 0.478383 
0.350223 0.038146 -0.272078 0 0.381152 0 206 206 206 255 0.419222 0.478383 
-0.350223 0.038146 -0.272078 0 0.381152 0 206 206 206 255 0.419222 0.478383 
-0.350223 0.038146 -0.272078 0 0 -0.0267192 206 206 206 255 0.390957 0.479127 
0.350223 0.038146 -0.272078 0 0 -0.0267192 206 206 206 255 0.390956 0.479127 
0.350223 0 -0.272078 0 0 -0.0267192 206 206 206 255 0.390956 0.479127 
-0.350223 0.038146 -0.272078 0 0 -0.0267192 206 206 206 255 0.390957 0.479127 
0.350223 0 -0.272078 0 0 -0.0267192 206 206 206 255 0.390956 0.479127 
-0.350223 0 -0.272078 0 0 -0.0267192 206 206 206 255 0.390957 0.479127 
-0.350223 0 -0.272078 0 -0.381152 0 206 206 206 255 0.299467 0.480614 
0.350223 0 -0.272078 0 -0.381152 0 206 206 206 255 0.299467 0.480614 
0.350223 0 0.272078 0 -0.381152 0 206 206 206 255 0.299467 0.480614 
-0.350223 0 -0.272078 0 -0.381152 0 206 206 206 255 0.299467 0.480614 
0.350223 0 0.272078 0 -0.381152 0 206 206 206 255 0.299467 0.480614 
-0.350223 0 0.272078 0 -0.381152 0 206 206 206 255 0.299467 0.480614 
0.350223 0 0.272078 0.0207574 0 0 206 206 206 255 0.358228 0.479871 
0.350223 0 -0.272078 0.0207574 0 0 206 206 206 255 0.358228 0.479871 
0.350223 0.038146 -0.272078 0.0207574 0 0 206 206 206 255 0.358228 0.479871 
0.350223 0 0.272078 0.0207574 -0 0 206 206 206 255 0.358228 0.479871 
0.350223 0.038146 -0.272078 0.0207574 -0 0 206 206 206 255 0.358228 0.479871 
0.350223 0.038146 0.272078 0.0207574 -0 0 206 206 206 255 0.358228 0.479871 
-0.350223 0 -0.272078 -0.0207574 0 0 206 206 206 255 0.358228 0.479871 
-0.350223 0 0.272078 -0.0207574 0 0 206 206 206 255 0.358228 0.479871 
-0.350223 0.038146 0.272078 -0.0207574 0 0 206 206 206 255 0.358228 0.479871 
-0.350223 0 -0.272078 -0.0207574 0 0 206 206 206 255 0.358228 0.479871 
-0.350223 0.038146 0.272078 -0.0207574 0 0 206 206 206 255 0.358228 0.479871 
-0.350223 0.038146 -0.272078 -0.0207574 0 0 206 206 206 255 0.358228 0.479871 
3 0 1 2
3 3 4 5
3 6 7 8
3 9 10 11
3 12 13 14
3 15 16 17
3 18 19 20
3 21 22 23
3 24 25 26
3 27 28 29
3 30 31 32
3 33 34 35
