ply
format ascii 1.0
comment Feeney's Flatenator generated
comment TextureFile SpaceInteriors_Texture.png
element vertex 144
property float x
property float y
property float z
property float nx
property float ny
property float nz
property uchar red
property uchar green
property uchar blue
property uchar alpha
property float texture_u
property float texture_v
element face 48
property list uchar int vertex_indices
end_header
-0.911054 0.294094 1e-06 0 0 0.056489 156 49 49 255 0.205881 0.16937 
0 0.294094 1e-06 0 0 0.056489 156 49 49 255 0.205881 0.16937 
0 0.356098 1e-06 0 0 0.056489 156 49 49 255 0.205881 0.16937 
-0.911054 0.294094 1e-06 0 0 0.056489 156 49 49 255 0.205881 0.16937 
0 0.356098 1e-06 0 0 0.056489 156 49 49 255 0.205881 0.16937 
-0.911054 0.356098 1e-06 0 0 0.056489 156 49 49 255 0.205881 0.16937 
-0.633863 0.356098 -0.153919 -0 0.11348 0 178 174 170 255 0.513718 0.598681 
-0.277193 0.356098 -0.153919 -0 0.11348 0 178 174 170 255 0.583204 0.598681 
-0.277193 0.356098 -0.472085 -0 0.11348 0 108 105 102 255 0.583204 0.670205 
-0.633863 0.356098 -0.153919 0 0.11348 0 178 174 170 255 0.513718 0.598681 
-0.277193 0.356098 -0.472085 0 0.11348 0 108 105 102 255 0.583204 0.670205 
-0.633863 0.356098 -0.472085 0 0.11348 0 108 105 102 255 0.513718 0.670205 
-0.911054 0 -0.626006 0 -0.570326 0 125 37 37 255 0.140862 0.16937 
0 0 -0.626006 0 -0.570326 0 125 37 37 255 0.140862 0.16937 
0 0 1e-06 0 -0.570326 0 125 37 37 255 0.140862 0.16937 
-0.911054 0 -0.626006 0 -0.570326 0 125 37 37 255 0.140862 0.16937 
0 0 1e-06 0 -0.570326 0 125 37 37 255 0.140862 0.16937 
-0.911054 0 1e-06 0 -0.570326 0 125 37 37 255 0.140862 0.16937 
0 0.294094 1e-06 0.0352404 0 0 142 43 42 255 0.173843 0.16937 
0 0.294094 -0.568356 0.0352404 0 0 142 43 42 255 0.173843 0.16937 
0 0.356098 -0.626006 0.0352404 0 0 142 43 42 255 0.173843 0.16937 
0 0.294094 1e-06 0.0388149 -0 0 142 43 42 255 0.173843 0.16937 
0 0.356098 -0.626006 0.0388149 -0 0 142 43 42 255 0.173843 0.16937 
0 0.356098 1e-06 0.0388149 -0 0 142 43 42 255 0.173843 0.16937 
-0.911054 0.356098 -0.626006 -0.00613052 0 0 142 43 42 255 0.173843 0.16937 
-0.911054 0.294094 -0.568356 -0.00613052 0 0 142 43 42 255 0.173843 0.16937 
-0.911054 0.294094 -0.469483 -0.00613052 0 0 142 43 42 255 0.173843 0.16937 
-0.911054 0.356098 -0.626006 -0.0291099 0 0 142 43 42 255 0.173843 0.16937 
-0.911054 0.294094 -0.469483 -0.0291099 0 0 142 43 42 255 0.173843 0.16937 
-0.911054 0.294094 1e-06 -0.0291099 0 0 142 43 42 255 0.173843 0.16937 
-0.911054 0.356098 -0.626006 -0.0388149 0 0 142 43 42 255 0.173843 0.16937 
-0.911054 0.294094 1e-06 -0.0388149 0 0 142 43 42 255 0.173843 0.16937 
-0.911054 0.356098 1e-06 -0.0388149 0 0 142 43 42 255 0.173843 0.16937 
-0.911054 0.294094 -0.469483 -0.043555 0 0 58 57 55 255 0.171798 0.063712 
-0.911054 0.201322 -0.469483 -0.043555 0 0 58 57 55 255 0.171798 0.063712 
-0.911054 0.201322 1e-06 -0.043555 0 0 58 57 55 255 0.171798 0.063712 
-0.911054 0.294094 -0.469483 -0.043555 0 0 58 57 55 255 0.171798 0.063712 
-0.911054 0.201322 1e-06 -0.043555 0 0 58 57 55 255 0.171798 0.063712 
-0.911054 0.294094 1e-06 -0.043555 0 0 58 57 55 255 0.171798 0.063712 
-0.911054 0.201322 1e-06 0 0 0.0845203 75 72 70 255 0.203837 0.063712 
0 0.201322 1e-06 0 0 0.0845203 75 72 70 255 0.203837 0.063712 
0 0.294094 1e-06 0 0 0.0845203 75 72 70 255 0.203837 0.063712 
-0.911054 0.201322 1e-06 0 0 0.0845203 75 72 70 255 0.203837 0.063712 
0 0.294094 1e-06 0 0 0.0845203 75 72 70 255 0.203837 0.063712 
-0.911054 0.294094 1e-06 0 0 0.0845203 75 72 70 255 0.203837 0.063712 
0 0.294094 -0.568356 0.00534831 0 0 142 43 42 255 0.173843 0.16937 
0 0.201322 -0.568356 0.00534831 0 0 142 43 42 255 0.173843 0.16937 
0 0 -0.626006 0.00534831 0 0 142 43 42 255 0.173843 0.16937 
0 0.294094 -0.568356 0.0205291 0 0 142 43 42 255 0.173843 0.16937 
0 0 -0.626006 0.0205291 0 0 142 43 42 255 0.173843 0.16937 
0 0.356098 -0.626006 0.0205291 0 0 142 43 42 255 0.173843 0.16937 
-0.911054 0.356098 -0.626006 0 0 -0.324425 156 49 49 255 0.205881 0.16937 
0 0.356098 -0.626006 0 0 -0.324425 156 49 49 255 0.205881 0.16937 
0 0 -0.626006 0 0 -0.324425 156 49 49 255 0.205881 0.16937 
-0.911054 0.356098 -0.626006 0 0 -0.324425 156 49 49 255 0.205881 0.16937 
0 0 -0.626006 0 0 -0.324425 156 49 49 255 0.205881 0.16937 
-0.911054 0 -0.626006 0 0 -0.324425 156 49 49 255 0.205881 0.16937 
-0.911054 0 -0.626006 -0.126029 0 0 142 43 42 255 0.173843 0.16937 
-0.911054 0 1e-06 -0.126029 0 0 142 43 42 255 0.173843 0.16937 
-0.911054 0.201322 1e-06 -0.126029 0 0 142 43 42 255 0.173843 0.16937 
-0.911054 0 -0.626006 -0.0945175 0 0 142 43 42 255 0.173843 0.16937 
-0.911054 0.201322 1e-06 -0.0945175 0 0 142 43 42 255 0.173843 0.16937 
-0.911054 0.201322 -0.469483 -0.0945175 0 0 142 43 42 255 0.173843 0.16937 
-0.911054 0 -0.626006 -0.0199053 0 0 142 43 42 255 0.173843 0.16937 
-0.911054 0.201322 -0.469483 -0.0199053 0 0 142 43 42 255 0.173843 0.16937 
-0.911054 0.201322 -0.568356 -0.0199053 0 0 142 43 42 255 0.173843 0.16937 
-0.911054 0 1e-06 0 0 0.183415 156 49 49 255 0.205881 0.16937 
0 0 1e-06 0 0 0.183415 156 49 49 255 0.205881 0.16937 
0 0.201322 1e-06 0 0 0.183415 156 49 49 255 0.205881 0.16937 
-0.911054 0 1e-06 0 0 0.183415 156 49 49 255 0.205881 0.16937 
0 0.201322 1e-06 0 0 0.183415 156 49 49 255 0.205881 0.16937 
-0.911054 0.201322 1e-06 0 0 0.183415 156 49 49 255 0.205881 0.16937 
0 0 1e-06 0.126029 0 0 142 43 42 255 0.173843 0.16937 
0 0 -0.626006 0.126029 0 0 142 43 42 255 0.173843 0.16937 
0 0.201322 -0.568356 0.126029 0 0 142 43 42 255 0.173843 0.16937 
0 0 1e-06 0.114423 -0 0 142 43 42 255 0.173843 0.16937 
0 0.201322 -0.568356 0.114423 -0 0 142 43 42 255 0.173843 0.16937 
0 0.201322 1e-06 0.114423 -0 0 142 43 42 255 0.173843 0.16937 
-0.911054 0 -0.626006 -0.00534831 0 0 142 43 42 255 0.173843 0.16937 
-0.911054 0.201322 -0.568356 -0.00534831 0 0 142 43 42 255 0.173843 0.16937 
-0.911054 0.294094 -0.568356 -0.00534831 0 0 142 43 42 255 0.173843 0.16937 
-0.911054 0 -0.626006 -0.0205291 0 0 142 43 42 255 0.173843 0.16937 
-0.911054 0.294094 -0.568356 -0.0205291 0 0 142 43 42 255 0.173843 0.16937 
-0.911054 0.356098 -0.626006 -0.0205291 0 0 142 43 42 255 0.173843 0.16937 
0 0.201322 1e-06 0.0527276 0 0 58 57 55 255 0.171798 0.063712 
0 0.201322 -0.568356 0.0527276 0 0 58 57 55 255 0.171798 0.063712 
0 0.294094 -0.568356 0.0527276 0 0 58 57 55 255 0.171798 0.063712 
0 0.201322 1e-06 0.0527276 -0 0 58 57 55 255 0.171798 0.063712 
0 0.294094 -0.568356 0.0527276 -0 0 58 57 55 255 0.171798 0.063712 
0 0.294094 1e-06 0.0527276 -0 0 58 57 55 255 0.171798 0.063712 
-0.911054 0.356098 1e-06 -0 0.140229 0 171 53 53 255 0.241261 0.170532 
0 0.356098 1e-06 -0 0.140229 0 171 53 53 255 0.241261 0.170532 
-0.277193 0.356098 -0.153919 -0 0.140229 0 171 53 53 255 0.241261 0.170532 
-0.911054 0.356098 1e-06 0 0.0548986 0 171 53 53 255 0.241261 0.170532 
-0.277193 0.356098 -0.153919 0 0.0548986 0 171 53 53 255 0.241261 0.170532 
-0.633863 0.356098 -0.153919 0 0.0548986 0 171 53 53 255 0.241261 0.170532 
0 0.356098 1e-06 0 0.173525 0 171 53 53 255 0.241261 0.170532 
0 0.356098 -0.626006 0 0.173525 0 171 53 53 255 0.241261 0.170532 
-0.277193 0.356098 -0.472085 0 0.173525 0 171 53 53 255 0.241261 0.170532 
0 0.356098 1e-06 0 0.0881934 0 171 53 53 255 0.241261 0.170532 
-0.277193 0.356098 -0.472085 0 0.0881934 0 171 53 53 255 0.241261 0.170532 
-0.277193 0.356098 -0.153919 0 0.0881934 0 171 53 53 255 0.241261 0.170532 
0 0.356098 -0.626006 0 0.14023 0 171 53 53 255 0.241261 0.170532 
-0.911054 0.356098 -0.626006 0 0.14023 0 171 53 53 255 0.241261 0.170532 
-0.633863 0.356098 -0.472085 0 0.14023 0 171 53 53 255 0.241261 0.170532 
0 0.356098 -0.626006 0 0.054899 0 171 53 53 255 0.241261 0.170532 
-0.633863 0.356098 -0.472085 0 0.054899 0 171 53 53 255 0.241261 0.170532 
-0.277193 0.356098 -0.472085 0 0.054899 0 171 53 53 255 0.241261 0.170532 
-0.911054 0.356098 -0.626006 0 0.173524 0 171 53 53 255 0.241261 0.170532 
-0.911054 0.356098 1e-06 0 0.173524 0 171 53 53 255 0.241261 0.170532 
-0.633863 0.356098 -0.153919 0 0.173524 0 171 53 53 255 0.241261 0.170532 
-0.911054 0.356098 -0.626006 0 0.0881928 0 171 53 53 255 0.241261 0.170532 
-0.633863 0.356098 -0.153919 0 0.0881928 0 171 53 53 255 0.241261 0.170532 
-0.633863 0.356098 -0.472085 0 0.0881928 0 171 53 53 255 0.241261 0.170532 
-1.06502 0.294094 -0.568356 -0.00917264 0 0 44 43 42 255 0.145394 0.063712 
-1.06502 0.201322 -0.568356 -0.00917264 0 0 44 43 42 255 0.145394 0.063712 
-1.06502 0.201322 -0.469483 -0.00917264 0 0 44 43 42 255 0.145394 0.063712 
-1.06502 0.294094 -0.568356 -0.00917264 0 0 44 43 42 255 0.145394 0.063712 
-1.06502 0.201322 -0.469483 -0.00917264 0 0 44 43 42 255 0.145394 0.063712 
-1.06502 0.294094 -0.469483 -0.00917264 0 0 44 43 42 255 0.145394 0.063712 
-0.911054 0.294094 -0.568356 0 -0 -0.0142837 58 57 55 255 0.171798 0.063712 
-0.911054 0.201322 -0.568356 0 -0 -0.0142837 58 57 55 255 0.171798 0.063712 
-1.06502 0.201322 -0.568356 0 -0 -0.0142837 58 57 55 255 0.171798 0.063712 
-0.911054 0.294094 -0.568356 -0 0 -0.0142837 58 57 55 255 0.171798 0.063712 
-1.06502 0.201322 -0.568356 -0 0 -0.0142837 58 57 55 255 0.171798 0.063712 
-1.06502 0.294094 -0.568356 -0 0 -0.0142837 58 57 55 255 0.171798 0.063712 
-0.911054 0.201322 -0.568356 0 -0.0152231 0 30 29 28 255 0.108117 0.063712 
-0.911054 0.201322 -0.469483 0 -0.0152231 0 30 29 28 255 0.108117 0.063712 
-1.06502 0.201322 -0.469483 0 -0.0152231 0 30 29 28 255 0.108117 0.063712 
-0.911054 0.201322 -0.568356 0 -0.0152231 0 30 29 28 255 0.108117 0.063712 
-1.06502 0.201322 -0.469483 0 -0.0152231 0 30 29 28 255 0.108117 0.063712 
-1.06502 0.201322 -0.568356 0 -0.0152231 0 30 29 28 255 0.108117 0.063712 
-0.911054 0.201322 -0.469483 0 -0 0.0142837 58 57 55 255 0.171798 0.063712 
-0.911054 0.294094 -0.469483 0 -0 0.0142837 58 57 55 255 0.171798 0.063712 
-1.06502 0.294094 -0.469483 0 -0 0.0142837 58 57 55 255 0.171798 0.063712 
-0.911054 0.201322 -0.469483 0 0 0.0142837 58 57 55 255 0.171798 0.063712 
-1.06502 0.294094 -0.469483 0 0 0.0142837 58 57 55 255 0.171798 0.063712 
-1.06502 0.201322 -0.469483 0 0 0.0142837 58 57 55 255 0.171798 0.063712 
-0.911054 0.294094 -0.469483 0 0.0152231 0 75 72 70 255 0.199756 0.063712 
-0.911054 0.294094 -0.568356 0 0.0152231 0 75 72 70 255 0.199756 0.063712 
-1.06502 0.294094 -0.568356 0 0.0152231 0 75 72 70 255 0.199756 0.063712 
-0.911054 0.294094 -0.469483 0 0.0152231 0 75 72 70 255 0.199756 0.063712 
-1.06502 0.294094 -0.568356 0 0.0152231 0 75 72 70 255 0.199756 0.063712 
-1.06502 0.294094 -0.469483 0 0.0152231 0 75 72 70 255 0.199756 0.063712 
3 0 1 2
3 3 4 5
3 6 7 8
3 9 10 11
3 12 13 14
3 15 16 17
3 18 19 20
3 21 22 23
3 24 25 26
3 27 28 29
3 30 31 32
3 33 34 35
3 36 37 38
3 39 40 41
3 42 43 44
3 45 46 47
3 48 49 50
3 51 52 53
3 54 55 56
3 57 58 59
3 60 61 62
3 63 64 65
3 66 67 68
3 69 70 71
3 72 73 74
3 75 76 77
3 78 79 80
3 81 82 83
3 84 85 86
3 87 88 89
3 90 91 92
3 93 94 95
3 96 97 98
3 99 100 101
3 102 103 104
3 105 106 107
3 108 109 110
3 111 112 113
3 114 115 116
3 117 118 119
3 120 121 122
3 123 124 125
3 126 127 128
3 129 130 131
3 132 133 134
3 135 136 137
3 138 139 140
3 141 142 143
