ply
format ascii 1.0
comment Feeney's Flatenator generated
comment TextureFile SpaceInteriors_Texture.png
element vertex 156
property float x
property float y
property float z
property float nx
property float ny
property float nz
property uchar red
property uchar green
property uchar blue
property uchar alpha
element face 52
property list uchar int vertex_indices
end_header
-0.289629 -0.04304 0.426379 0 0 0.00826385 188 186 156 255 
-0.193627 -0.04304 0.426379 0 0 0.00826385 188 186 156 255 
-0.193627 0.04304 0.426379 0 0 0.00826385 188 186 156 255 
-0.289629 -0.04304 0.426379 0 0 0.00826385 188 186 156 255 
-0.193627 0.04304 0.426379 0 0 0.00826385 188 186 156 255 
-0.289629 0.04304 0.426379 0 0 0.00826385 188 186 156 255 
-0.312917 0.06456 0.426379 -0 0.101725 0 52 52 52 255 
-0.193627 0.06456 0.426379 -0 0.101725 0 52 52 52 255 
-0.193627 0.06456 -0.426376 -0 0.101725 0 52 52 52 255 
-0.312917 0.06456 0.426379 0 0.101725 0 52 52 52 255 
-0.193627 0.06456 -0.426376 0 0.101725 0 52 52 52 255 
-0.312917 0.06456 -0.426376 0 0.101725 0 52 52 52 255 
-0.289629 0.04304 -0.426376 0 0 -0.00826385 188 186 156 255 
-0.193627 0.04304 -0.426376 0 0 -0.00826385 188 186 156 255 
-0.193627 -0.04304 -0.426376 0 0 -0.00826385 188 186 156 255 
-0.289629 0.04304 -0.426376 0 0 -0.00826385 188 186 156 255 
-0.193627 -0.04304 -0.426376 0 0 -0.00826385 188 186 156 255 
-0.289629 -0.04304 -0.426376 0 0 -0.00826385 188 186 156 255 
-0.312917 -0.06456 -0.426376 0 -0.101725 0 21 21 21 255 
-0.193627 -0.06456 -0.426376 0 -0.101725 0 21 21 21 255 
-0.193627 -0.06456 0.426379 0 -0.101725 0 21 21 21 255 
-0.312917 -0.06456 -0.426376 0 -0.101725 0 21 21 21 255 
-0.193627 -0.06456 0.426379 0 -0.101725 0 21 21 21 255 
-0.312917 -0.06456 0.426379 0 -0.101725 0 21 21 21 255 
0.31292 -0.04304 0.426379 0.0734051 0 0 175 173 145 255 
0.31292 -0.04304 -0.426376 0.0734051 0 0 175 173 145 255 
0.31292 0.04304 -0.426376 0.0734051 0 0 175 173 145 255 
0.31292 -0.04304 0.426379 0.0734051 -0 0 175 173 145 255 
0.31292 0.04304 -0.426376 0.0734051 -0 0 175 173 145 255 
0.31292 0.04304 0.426379 0.0734051 -0 0 175 173 145 255 
-0.312917 -0.06456 -0.426376 -0.110108 0 0 21 21 21 255 
-0.312917 -0.06456 0.426379 -0.110108 0 0 21 21 21 255 
-0.312917 0.06456 0.426379 -0.110108 0 0 21 21 21 255 
-0.312917 -0.06456 -0.426376 -0.110108 0 0 21 21 21 255 
-0.312917 0.06456 0.426379 -0.110108 0 0 21 21 21 255 
-0.312917 0.06456 -0.426376 -0.110108 0 0 21 21 21 255 
-0.193627 0.04304 -0.426376 0 0 -0.0436036 188 186 156 255 
0.31292 0.04304 -0.426376 0 0 -0.0436036 188 186 156 255 
0.31292 -0.04304 -0.426376 0 0 -0.0436036 188 186 156 255 
-0.193627 0.04304 -0.426376 0 0 -0.0436036 188 186 156 255 
0.31292 -0.04304 -0.426376 0 0 -0.0436036 188 186 156 255 
-0.193627 -0.04304 -0.426376 0 0 -0.0436036 188 186 156 255 
-0.193627 -0.06456 0.426379 0 -0.43196 0 138 58 46 255 
-0.193627 -0.06456 -0.426376 0 -0.43196 0 138 58 46 255 
0.31292 -0.06456 -0.426376 0 -0.43196 0 138 58 46 255 
-0.193627 -0.06456 0.426379 0 -0.43196 0 138 58 46 255 
0.31292 -0.06456 -0.426376 0 -0.43196 0 138 58 46 255 
0.31292 -0.06456 0.426379 0 -0.43196 0 138 58 46 255 
-0.193627 0.04304 0.426379 0 0 0.0436036 188 186 156 255 
-0.193627 -0.04304 0.426379 0 0 0.0436036 188 186 156 255 
0.31292 -0.04304 0.426379 0 0 0.0436036 188 186 156 255 
-0.193627 0.04304 0.426379 -0 0 0.0436036 188 186 156 255 
0.31292 -0.04304 0.426379 -0 0 0.0436036 188 186 156 255 
0.31292 0.04304 0.426379 -0 0 0.0436036 188 186 156 255 
-0.120605 0.06456 -0.295338 0 0.100472 0 219 219 219 255 
-0.120605 0.06456 -0.012355 0 0.100472 0 219 219 219 255 
0.234442 0.06456 -0.012355 0 0.100472 0 219 219 219 255 
-0.120605 0.06456 -0.295338 0 0.100472 0 219 219 219 255 
0.234442 0.06456 -0.012355 0 0.100472 0 219 219 219 255 
0.234442 0.06456 -0.295338 0 0.100472 0 219 219 219 255 
-0.312917 -0.06456 0.426379 0 0 0.00256712 35 35 35 255 
-0.193627 -0.06456 0.426379 0 0 0.00256712 35 35 35 255 
-0.193627 -0.04304 0.426379 0 0 0.00256712 35 35 35 255 
-0.312917 -0.06456 0.426379 0 0 0.00206596 35 35 35 255 
-0.193627 -0.04304 0.426379 0 0 0.00206596 35 35 35 255 
-0.289629 -0.04304 0.426379 0 0 0.00206596 35 35 35 255 
-0.193627 0.06456 0.426379 0 0 0.00256712 35 35 35 255 
-0.312917 0.06456 0.426379 0 0 0.00256712 35 35 35 255 
-0.289629 0.04304 0.426379 0 0 0.00256712 35 35 35 255 
-0.193627 0.06456 0.426379 0 0 0.00206596 35 35 35 255 
-0.289629 0.04304 0.426379 0 0 0.00206596 35 35 35 255 
-0.193627 0.04304 0.426379 0 0 0.00206596 35 35 35 255 
-0.312917 0.06456 0.426379 0 0 0.00300694 35 35 35 255 
-0.312917 -0.06456 0.426379 0 0 0.00300694 35 35 35 255 
-0.289629 -0.04304 0.426379 0 0 0.00300694 35 35 35 255 
-0.312917 0.06456 0.426379 0 0 0.00200463 35 35 35 255 
-0.289629 -0.04304 0.426379 0 0 0.00200463 35 35 35 255 
-0.289629 0.04304 0.426379 0 0 0.00200463 35 35 35 255 
-0.312917 0.06456 -0.426376 0 0 -0.00256712 35 35 35 255 
-0.193627 0.06456 -0.426376 0 0 -0.00256712 35 35 35 255 
-0.193627 0.04304 -0.426376 0 0 -0.00256712 35 35 35 255 
-0.312917 0.06456 -0.426376 0 0 -0.00206596 35 35 35 255 
-0.193627 0.04304 -0.426376 0 0 -0.00206596 35 35 35 255 
-0.289629 0.04304 -0.426376 0 0 -0.00206596 35 35 35 255 
-0.193627 -0.06456 -0.426376 0 0 -0.00256712 35 35 35 255 
-0.312917 -0.06456 -0.426376 0 0 -0.00256712 35 35 35 255 
-0.289629 -0.04304 -0.426376 0 0 -0.00256712 35 35 35 255 
-0.193627 -0.06456 -0.426376 0 0 -0.00206596 35 35 35 255 
-0.289629 -0.04304 -0.426376 0 0 -0.00206596 35 35 35 255 
-0.193627 -0.04304 -0.426376 0 0 -0.00206596 35 35 35 255 
-0.312917 -0.06456 -0.426376 0 0 -0.00300694 35 35 35 255 
-0.312917 0.06456 -0.426376 0 0 -0.00300694 35 35 35 255 
-0.289629 0.04304 -0.426376 0 0 -0.00300694 35 35 35 255 
-0.312917 -0.06456 -0.426376 0 0 -0.00200463 35 35 35 255 
-0.289629 0.04304 -0.426376 0 0 -0.00200463 35 35 35 255 
-0.289629 -0.04304 -0.426376 0 0 -0.00200463 35 35 35 255 
0.31292 -0.06456 0.426379 0.0183513 0 0 138 58 46 255 
0.31292 -0.06456 -0.426376 0.0183513 0 0 138 58 46 255 
0.31292 -0.04304 -0.426376 0.0183513 0 0 138 58 46 255 
0.31292 -0.06456 0.426379 0.0183513 -0 0 138 58 46 255 
0.31292 -0.04304 -0.426376 0.0183513 -0 0 138 58 46 255 
0.31292 -0.04304 0.426379 0.0183513 -0 0 138 58 46 255 
0.31292 0.06456 -0.426376 0.0183513 0 -0 138 58 46 255 
0.31292 0.06456 0.426379 0.0183513 0 -0 138 58 46 255 
0.31292 0.04304 0.426379 0.0183513 0 -0 138 58 46 255 
0.31292 0.06456 -0.426376 0.0183513 0 0 138 58 46 255 
0.31292 0.04304 0.426379 0.0183513 0 0 138 58 46 255 
0.31292 0.04304 -0.426376 0.0183513 0 0 138 58 46 255 
-0.193627 0.06456 -0.426376 0 0 -0.0109009 152 65 53 255 
0.31292 0.06456 -0.426376 0 0 -0.0109009 152 65 53 255 
0.31292 0.04304 -0.426376 0 0 -0.0109009 152 65 53 255 
-0.193627 0.06456 -0.426376 0 0 -0.0109009 152 65 53 255 
0.31292 0.04304 -0.426376 0 0 -0.0109009 152 65 53 255 
-0.193627 0.04304 -0.426376 0 0 -0.0109009 152 65 53 255 
0.31292 -0.06456 -0.426376 0 0 -0.0109009 152 65 53 255 
-0.193627 -0.06456 -0.426376 0 0 -0.0109009 152 65 53 255 
-0.193627 -0.04304 -0.426376 0 0 -0.0109009 152 65 53 255 
0.31292 -0.06456 -0.426376 0 0 -0.0109009 152 65 53 255 
-0.193627 -0.04304 -0.426376 0 0 -0.0109009 152 65 53 255 
0.31292 -0.04304 -0.426376 0 0 -0.0109009 152 65 53 255 
-0.193627 -0.06456 0.426379 0 0 0.0109009 152 65 53 255 
0.31292 -0.06456 0.426379 0 0 0.0109009 152 65 53 255 
0.31292 -0.04304 0.426379 0 0 0.0109009 152 65 53 255 
-0.193627 -0.06456 0.426379 0 0 0.0109009 152 65 53 255 
0.31292 -0.04304 0.426379 0 0 0.0109009 152 65 53 255 
-0.193627 -0.04304 0.426379 0 0 0.0109009 152 65 53 255 
0.31292 0.06456 0.426379 0 0 0.0109009 152 65 53 255 
-0.193627 0.06456 0.426379 0 0 0.0109009 152 65 53 255 
-0.193627 0.04304 0.426379 0 0 0.0109009 152 65 53 255 
0.31292 0.06456 0.426379 0 0 0.0109009 152 65 53 255 
-0.193627 0.04304 0.426379 0 0 0.0109009 152 65 53 255 
0.31292 0.04304 0.426379 0 0 0.0109009 152 65 53 255 
-0.193627 0.06456 -0.426376 0 0.0622699 0 167 71 58 255 
-0.193627 0.06456 0.426379 0 0.0622699 0 167 71 58 255 
-0.120605 0.06456 -0.012355 0 0.0622699 0 167 71 58 255 
-0.193627 0.06456 -0.426376 0 0.020664 0 167 71 58 255 
-0.120605 0.06456 -0.012355 0 0.020664 0 167 71 58 255 
-0.120605 0.06456 -0.295338 0 0.020664 0 167 71 58 255 
-0.193627 0.06456 0.426379 -0 0.222239 0 167 71 58 255 
0.31292 0.06456 0.426379 -0 0.222239 0 167 71 58 255 
0.234442 0.06456 -0.012355 -0 0.222239 0 167 71 58 255 
-0.193627 0.06456 0.426379 0 0.155771 0 167 71 58 255 
0.234442 0.06456 -0.012355 0 0.155771 0 167 71 58 255 
-0.120605 0.06456 -0.012355 0 0.155771 0 167 71 58 255 
0.31292 0.06456 0.426379 0 0.0669225 0 167 71 58 255 
0.31292 0.06456 -0.426376 0 0.0669225 0 167 71 58 255 
0.234442 0.06456 -0.295338 0 0.0669225 0 167 71 58 255 
0.31292 0.06456 0.426379 0 0.0222079 0 167 71 58 255 
0.234442 0.06456 -0.295338 0 0.0222079 0 167 71 58 255 
0.234442 0.06456 -0.012355 0 0.0222079 0 167 71 58 255 
0.31292 0.06456 -0.426376 0 0.0663769 0 167 71 58 255 
-0.193627 0.06456 -0.426376 0 0.0663769 0 167 71 58 255 
-0.120605 0.06456 -0.295338 0 0.0663769 0 167 71 58 255 
0.31292 0.06456 -0.426376 0 0.0465246 0 167 71 58 255 
-0.120605 0.06456 -0.295338 0 0.0465246 0 167 71 58 255 
0.234442 0.06456 -0.295338 0 0.0465246 0 167 71 58 255 
3 0 1 2
3 3 4 5
3 6 7 8
3 9 10 11
3 12 13 14
3 15 16 17
3 18 19 20
3 21 22 23
3 24 25 26
3 27 28 29
3 30 31 32
3 33 34 35
3 36 37 38
3 39 40 41
3 42 43 44
3 45 46 47
3 48 49 50
3 51 52 53
3 54 55 56
3 57 58 59
3 60 61 62
3 63 64 65
3 66 67 68
3 69 70 71
3 72 73 74
3 75 76 77
3 78 79 80
3 81 82 83
3 84 85 86
3 87 88 89
3 90 91 92
3 93 94 95
3 96 97 98
3 99 100 101
3 102 103 104
3 105 106 107
3 108 109 110
3 111 112 113
3 114 115 116
3 117 118 119
3 120 121 122
3 123 124 125
3 126 127 128
3 129 130 131
3 132 133 134
3 135 136 137
3 138 139 140
3 141 142 143
3 144 145 146
3 147 148 149
3 150 151 152
3 153 154 155
