ply
format ascii 1.0
comment Feeney's Flatenator generated
comment TextureFile SpaceInteriors_Texture.png
element vertex 444
property float x
property float y
property float z
property float nx
property float ny
property float nz
property float texture_u
property float texture_v
element face 148
property list uchar int vertex_indices
end_header
-0.086519 0.872782 0.090521 0 0 0.00395383 0.329392 0.086861 
-0.02364 0.872782 0.090521 0 0 0.00395383 0.329392 0.086861 
-0.02364 0.935662 0.090521 0 0 0.00395383 0.329392 0.086861 
-0.086519 0.872782 0.090521 0 0 0.00395383 0.329392 0.086861 
-0.02364 0.935662 0.090521 0 0 0.00395383 0.329392 0.086861 
-0.086519 0.935662 0.090521 0 0 0.00395383 0.329392 0.086861 
-0.140934 0.990076 0.090521 -0 0.00663068 0 0.302039 0.085509 
0.030774 0.990076 0.090521 -0 0.00663068 0 0.302039 0.085509 
0.030774 0.990076 0.051905 -0 0.00663068 0 0.302039 0.085509 
-0.140934 0.990076 0.090521 0 0.00663068 0 0.302039 0.085509 
0.030774 0.990076 0.051905 0 0.00663068 0 0.302039 0.085509 
-0.140934 0.990076 0.051905 0 0.00663068 0 0.302039 0.085509 
-0.140934 0.990076 0.051905 0 0 -0.0294836 0.267174 0.085509 
0.030774 0.990076 0.051905 0 0 -0.0294836 0.267174 0.085509 
0.030774 0.818368 0.051905 0 0 -0.0294836 0.267174 0.085509 
-0.140934 0.990076 0.051905 0 0 -0.0294836 0.267174 0.085509 
0.030774 0.818368 0.051905 0 0 -0.0294836 0.267174 0.085509 
-0.140934 0.818368 0.051905 0 0 -0.0294836 0.267174 0.085509 
-0.140934 0.818368 0.051905 0 -0.00663068 0 0.202154 0.085509 
0.030774 0.818368 0.051905 0 -0.00663068 0 0.202154 0.085509 
0.030774 0.818368 0.090521 0 -0.00663068 0 0.202154 0.085509 
-0.140934 0.818368 0.051905 0 -0.00663068 0 0.202154 0.085509 
0.030774 0.818368 0.090521 0 -0.00663068 0 0.202154 0.085509 
-0.140934 0.818368 0.090521 0 -0.00663068 0 0.202154 0.085509 
0.030774 0.818368 0.090521 0.00663068 0 0 0.235135 0.085509 
0.030774 0.818368 0.051905 0.00663068 0 0 0.235135 0.085509 
0.030774 0.990076 0.051905 0.00663068 0 0 0.235135 0.085509 
0.030774 0.818368 0.090521 0.00663068 -0 0 0.235135 0.085509 
0.030774 0.990076 0.051905 0.00663068 -0 0 0.235135 0.085509 
0.030774 0.990076 0.090521 0.00663068 -0 0 0.235135 0.085509 
-0.140934 0.818368 0.051905 -0.00663068 0 0 0.235135 0.085509 
-0.140934 0.818368 0.090521 -0.00663068 0 0 0.235135 0.085509 
-0.140934 0.990076 0.090521 -0.00663068 0 0 0.235135 0.085509 
-0.140934 0.818368 0.051905 -0.00663068 0 0 0.235135 0.085509 
-0.140934 0.990076 0.090521 -0.00663068 0 0 0.235135 0.085509 
-0.140934 0.990076 0.051905 -0.00663068 0 0 0.235135 0.085509 
-0.140934 0.818368 0.090521 0 0 0.00318844 0.267174 0.085509 
0.030774 0.818368 0.090521 0 0 0.00318844 0.267174 0.085509 
0.012204 0.836937 0.090521 0 0 0.00318844 0.267174 0.085509 
-0.140934 0.818368 0.090521 0 0 0.00249885 0.267174 0.085509 
0.012204 0.836937 0.090521 0 0 0.00249885 0.267174 0.085509 
-0.122367 0.836937 0.090521 0 0 0.00249885 0.267174 0.085509 
0.030774 0.818368 0.090521 0 -0 0.00318862 0.267174 0.085509 
0.030774 0.990076 0.090521 0 -0 0.00318862 0.267174 0.085509 
0.012204 0.971508 0.090521 0 -0 0.00318862 0.267174 0.085509 
0.030774 0.818368 0.090521 0 0 0.00249898 0.267174 0.085509 
0.012204 0.971508 0.090521 0 0 0.00249898 0.267174 0.085509 
0.012204 0.836937 0.090521 0 0 0.00249898 0.267174 0.085509 
0.030774 0.990076 0.090521 0 0 0.00318827 0.267174 0.085509 
-0.140934 0.990076 0.090521 0 0 0.00318827 0.267174 0.085509 
-0.122367 0.971508 0.090521 0 0 0.00318827 0.267174 0.085509 
0.030774 0.990076 0.090521 0 0 0.00249871 0.267174 0.085509 
-0.122367 0.971508 0.090521 0 0 0.00249871 0.267174 0.085509 
0.012204 0.971508 0.090521 0 0 0.00249871 0.267174 0.085509 
-0.140934 0.990076 0.090521 0 0 0.0031881 0.267174 0.085509 
-0.140934 0.818368 0.090521 0 0 0.0031881 0.267174 0.085509 
-0.122367 0.836937 0.090521 0 0 0.0031881 0.267174 0.085509 
-0.140934 0.990076 0.090521 0 0 0.00249858 0.267174 0.085509 
-0.122367 0.836937 0.090521 0 0 0.00249858 0.267174 0.085509 
-0.122367 0.971508 0.090521 0 0 0.00249858 0.267174 0.085509 
-0.122367 0.836937 0.090521 0 0 0.00482369 0.198284 0.168827 
0.012204 0.836937 0.090521 0 0 0.00482369 0.198284 0.168827 
-0.02364 0.872782 0.090521 0 0 0.00482369 0.198284 0.168827 
-0.122367 0.836937 0.090521 0 0 0.0022539 0.198284 0.168827 
-0.02364 0.872782 0.090521 0 0 0.0022539 0.198284 0.168827 
-0.086519 0.872782 0.090521 0 0 0.0022539 0.198284 0.168827 
0.012204 0.836937 0.090521 0 -0 0.00482356 0.198284 0.168827 
0.012204 0.971508 0.090521 0 -0 0.00482356 0.198284 0.168827 
-0.02364 0.935662 0.090521 0 -0 0.00482356 0.198284 0.168827 
0.012204 0.836937 0.090521 0 0 0.00225387 0.198284 0.168827 
-0.02364 0.935662 0.090521 0 0 0.00225387 0.198284 0.168827 
-0.02364 0.872782 0.090521 0 0 0.00225387 0.198284 0.168827 
0.012204 0.971508 0.090521 0 0 0.00482384 0.198284 0.168827 
-0.122367 0.971508 0.090521 0 0 0.00482384 0.198284 0.168827 
-0.086519 0.935662 0.090521 0 0 0.00482384 0.198284 0.168827 
0.012204 0.971508 0.090521 0 0 0.00225396 0.198284 0.168827 
-0.086519 0.935662 0.090521 0 0 0.00225396 0.198284 0.168827 
-0.02364 0.935662 0.090521 0 0 0.00225396 0.198284 0.168827 
-0.122367 0.971508 0.090521 0 0 0.0048241 0.198284 0.168827 
-0.122367 0.836937 0.090521 0 0 0.0048241 0.198284 0.168827 
-0.086519 0.872782 0.090521 0 0 0.0048241 0.198284 0.168827 
-0.122367 0.971508 0.090521 0 0 0.00225412 0.198284 0.168827 
-0.086519 0.872782 0.090521 0 0 0.00225412 0.198284 0.168827 
-0.086519 0.935662 0.090521 0 0 0.00225412 0.198284 0.168827 
-0.152738 0.63848 0.103082 0 0 0 0.204515 0.061667 
-0.121814 0.63848 0.103082 0 0 0 0.204515 0.061667 
0.022497 0.63848 0.103082 0 0 0 0.204515 0.061667 
-0.152738 0.63848 0.103082 0 0 0 0.204515 0.061667 
0.022497 0.63848 0.103082 0 0 0 0.204515 0.061667 
0.053422 0.63848 0.103082 0 0 0 0.204515 0.061667 
-0.152738 0.63848 0.103082 0 0 0.0219132 0.204515 0.061667 
0.053422 0.63848 0.103082 0 0 0.0219132 0.204515 0.061667 
0.053422 0.744772 0.103082 0 0 0.0219132 0.204515 0.061667 
-0.152738 0.63848 0.103082 0 0 0.0219132 0.204515 0.061667 
0.053422 0.744772 0.103082 0 0 0.0219132 0.204515 0.061667 
-0.152738 0.744772 0.103082 0 0 0.0219132 0.204515 0.061667 
-0.152738 0 -0.103081 0 -0.0425026 0 0.263752 0.061667 
0.053422 0 -0.103081 0 -0.0425026 0 0.263752 0.061667 
0.053422 0 0.103082 0 -0.0425026 0 0.263752 0.061667 
-0.152738 0 -0.103081 0 -0.0425026 0 0.263752 0.061667 
0.053422 0 0.103082 0 -0.0425026 0 0.263752 0.061667 
-0.152738 0 0.103082 0 -0.0425026 0 0.263752 0.061667 
0.053422 0.63848 0.103082 0.0109567 0 0 0.172477 0.061667 
0.053422 0.63848 1e-06 0.0109567 0 0 0.172477 0.061667 
0.053422 0.744772 -0.103081 0.0109567 0 0 0.172477 0.061667 
0.053422 0.63848 0.103082 0.0219135 -0 0 0.172477 0.061667 
0.053422 0.744772 -0.103081 0.0219135 -0 0 0.172477 0.061667 
0.053422 0.744772 0.103082 0.0219135 -0 0 0.172477 0.061667 
-0.152738 0.744772 -0.103081 -0.0109567 0 0 0.172477 0.061667 
-0.152738 0.63848 1e-06 -0.0109567 0 0 0.172477 0.061667 
-0.152738 0.63848 0.103082 -0.0109567 0 0 0.172477 0.061667 
-0.152738 0.744772 -0.103081 -0.0219135 0 0 0.172477 0.061667 
-0.152738 0.63848 0.103082 -0.0219135 0 0 0.172477 0.061667 
-0.152738 0.744772 0.103082 -0.0219135 0 0 0.172477 0.061667 
-0.152738 0.744772 0.103082 -0 0.0105509 0.0188269 0.239381 0.061667 
0.053422 0.744772 0.103082 -0 0.0105509 0.0188269 0.239381 0.061667 
0.002247 0.836094 0.051904 -0 0.0105509 0.0188269 0.239381 0.061667 
-0.152738 0.744772 0.103082 0 0.00531279 0.00948014 0.239381 0.061667 
0.002247 0.836094 0.051904 0 0.00531279 0.00948014 0.239381 0.061667 
-0.101563 0.836094 0.051904 0 0.00531279 0.00948014 0.239381 0.061667 
0.053422 0.744772 0.103082 0.0188272 0.0105504 0 0.203628 0.061667 
0.053422 0.744772 -0.103081 0.0188272 0.0105504 0 0.203628 0.061667 
0.002247 0.836094 -0.051903 0.0188272 0.0105504 0 0.203628 0.061667 
0.053422 0.744772 0.103082 0.00947986 0.00531232 0 0.203628 0.061667 
0.002247 0.836094 -0.051903 0.00947986 0.00531232 0 0.203628 0.061667 
0.002247 0.836094 0.051904 0.00947986 0.00531232 0 0.203628 0.061667 
0.053422 0.744772 -0.103081 0 0.0105509 -0.0188269 0.239381 0.061667 
-0.152738 0.744772 -0.103081 0 0.0105509 -0.0188269 0.239381 0.061667 
-0.101563 0.836094 -0.051903 0 0.0105509 -0.0188269 0.239381 0.061667 
0.053422 0.744772 -0.103081 0 0.00531279 -0.00948014 0.239381 0.061667 
-0.101563 0.836094 -0.051903 0 0.00531279 -0.00948014 0.239381 0.061667 
0.002247 0.836094 -0.051903 0 0.00531279 -0.00948014 0.239381 0.061667 
-0.152738 0.744772 -0.103081 -0.0188272 0.0105504 0 0.203628 0.061667 
-0.152738 0.744772 0.103082 -0.0188272 0.0105504 0 0.203628 0.061667 
-0.101563 0.836094 0.051904 -0.0188272 0.0105504 0 0.203628 0.061667 
-0.152738 0.744772 -0.103081 -0.00947986 0.00531232 0 0.203628 0.061667 
-0.101563 0.836094 0.051904 -0.00947986 0.00531232 0 0.203628 0.061667 
-0.101563 0.836094 -0.051903 -0.00947986 0.00531232 0 0.203628 0.061667 
-0.101563 0.836094 0.051904 0 0 0.00600354 0.206878 0.061667 
0.002247 0.836094 0.051904 0 0 0.00600354 0.206878 0.061667 
0.002247 0.893926 0.051904 0 0 0.00600354 0.206878 0.061667 
-0.101563 0.836094 0.051904 0 0 0.00600354 0.206878 0.061667 
0.002247 0.893926 0.051904 0 0 0.00600354 0.206878 0.061667 
-0.101563 0.893926 0.051904 0 0 0.00600354 0.206878 0.061667 
0.002247 0.836094 0.051904 0.00600337 0 0 0.170042 0.061667 
0.002247 0.836094 -0.051903 0.00600337 0 0 0.170042 0.061667 
0.002247 0.893926 -0.051904 0.00600337 0 0 0.170042 0.061667 
0.002247 0.836094 0.051904 0.00600342 -0 0 0.170042 0.061667 
0.002247 0.893926 -0.051904 0.00600342 -0 0 0.170042 0.061667 
0.002247 0.893926 0.051904 0.00600342 -0 0 0.170042 0.061667 
0.002247 0.836094 -0.051903 0 0 -0.00600354 0.206878 0.061667 
-0.101563 0.836094 -0.051903 0 0 -0.00600354 0.206878 0.061667 
-0.101563 0.893926 -0.051903 0 0 -0.00600354 0.206878 0.061667 
0.002247 0.836094 -0.051903 -5.79536e-08 -1.04028e-07 -0.00600354 0.206878 0.061667 
-0.101563 0.893926 -0.051903 -5.79536e-08 -1.04028e-07 -0.00600354 0.206878 0.061667 
0.002247 0.893926 -0.051904 -5.79536e-08 -1.04028e-07 -0.00600354 0.206878 0.061667 
-0.201729 0.843719 -0.027071 -0.00230552 0 0 0.259146 0.085307 
-0.201729 0.843719 0.027072 -0.00230552 0 0 0.259146 0.085307 
-0.201729 0.886301 0.027072 -0.00230552 0 0 0.259146 0.085307 
-0.201729 0.843719 -0.027071 -0.00230552 0 0 0.259146 0.085307 
-0.201729 0.886301 0.027072 -0.00230552 0 0 0.259146 0.085307 
-0.201729 0.886301 -0.027071 -0.00230552 0 0 0.259146 0.085307 
-0.152738 0.63848 1e-06 -0.0472935 0 0 0.207306 0.170489 
-0.152738 0.179681 1e-06 -0.0472935 0 0 0.207306 0.170489 
-0.152738 0.179681 0.103082 -0.0472935 0 0 0.207306 0.170489 
-0.152738 0.63848 1e-06 -0.0472935 0 0 0.207306 0.170489 
-0.152738 0.179681 0.103082 -0.0472935 0 0 0.207306 0.170489 
-0.152738 0.63848 0.103082 -0.0472935 0 0 0.207306 0.170489 
0.022497 0.63848 0.103082 0 0 0.0141884 0.239345 0.170489 
0.022497 0.179681 0.103082 0 0 0.0141884 0.239345 0.170489 
0.053422 0.179681 0.103082 0 0 0.0141884 0.239345 0.170489 
0.022497 0.63848 0.103082 -0 0 0.0141884 0.239345 0.170489 
0.053422 0.179681 0.103082 -0 0 0.0141884 0.239345 0.170489 
0.053422 0.63848 0.103082 -0 0 0.0141884 0.239345 0.170489 
0.053422 0.63848 1e-06 0.0472939 0 0 0.16754 0.062702 
0.053422 0.179681 1e-06 0.0472939 0 0 0.16754 0.062702 
0.053422 0.179681 -0.103081 0.0472939 0 0 0.16754 0.062702 
0.053422 0.63848 1e-06 0.0582507 0 0 0.16754 0.062702 
0.053422 0.179681 -0.103081 0.0582507 0 0 0.16754 0.062702 
0.053422 0.744772 -0.103081 0.0582507 0 0 0.16754 0.062702 
-0.152738 0.744772 -0.103081 0 0 -0.116499 0.199579 0.062702 
0.053422 0.744772 -0.103081 0 0 -0.116499 0.199579 0.062702 
0.053422 0.179681 -0.103081 0 0 -0.116499 0.199579 0.062702 
-0.152738 0.744772 -0.103081 0 0 -0.116499 0.199579 0.062702 
0.053422 0.179681 -0.103081 0 0 -0.116499 0.199579 0.062702 
-0.152738 0.179681 -0.103081 0 0 -0.116499 0.199579 0.062702 
-0.152738 0 -0.103081 -0.0370436 0 0 0.296733 0.061667 
-0.152738 0 0.103082 -0.0370436 0 0 0.296733 0.061667 
-0.152738 0.179681 0.103082 -0.0370436 0 0 0.296733 0.061667 
-0.152738 0 -0.103081 -0.0185217 0 0 0.296733 0.061667 
-0.152738 0.179681 0.103082 -0.0185217 0 0 0.296733 0.061667 
-0.152738 0.179681 1e-06 -0.0185217 0 0 0.296733 0.061667 
-0.152738 0 -0.103081 -0.0185219 0 0 0.296733 0.061667 
-0.152738 0.179681 1e-06 -0.0185219 0 0 0.296733 0.061667 
-0.152738 0.179681 -0.103081 -0.0185219 0 0 0.296733 0.061667 
-0.152738 0 0.103082 0 0 0.037043 0.328771 0.061667 
0.053422 0 0.103082 0 0 0.037043 0.328771 0.061667 
0.053422 0.179681 0.103082 0 0 0.037043 0.328771 0.061667 
-0.152738 0 0.103082 0 0 0.00555664 0.328771 0.061667 
0.053422 0.179681 0.103082 0 0 0.00555664 0.328771 0.061667 
0.022497 0.179681 0.103082 0 0 0.00555664 0.328771 0.061667 
-0.152738 0 0.103082 0 0 0.0259299 0.328771 0.061667 
0.022497 0.179681 0.103082 0 0 0.0259299 0.328771 0.061667 
-0.121814 0.179681 0.103082 0 0 0.0259299 0.328771 0.061667 
-0.152738 0 0.103082 0 0 0.00555646 0.328771 0.061667 
-0.121814 0.179681 0.103082 0 0 0.00555646 0.328771 0.061667 
-0.152738 0.179681 0.103082 0 0 0.00555646 0.328771 0.061667 
0.053422 0 0.103082 0.0370436 0 0 0.296733 0.061667 
0.053422 0 -0.103081 0.0370436 0 0 0.296733 0.061667 
0.053422 0.179681 -0.103081 0.0370436 0 0 0.296733 0.061667 
0.053422 0 0.103082 0.0185219 0 0 0.296733 0.061667 
0.053422 0.179681 -0.103081 0.0185219 0 0 0.296733 0.061667 
0.053422 0.179681 1e-06 0.0185219 0 0 0.296733 0.061667 
0.053422 0 0.103082 0.0185217 -0 0 0.296733 0.061667 
0.053422 0.179681 1e-06 0.0185217 -0 0 0.296733 0.061667 
0.053422 0.179681 0.103082 0.0185217 -0 0 0.296733 0.061667 
-0.152738 0.179681 -0.103081 0 0 -0.037043 0.328771 0.061667 
0.053422 0.179681 -0.103081 0 0 -0.037043 0.328771 0.061667 
0.053422 0 -0.103081 0 0 -0.037043 0.328771 0.061667 
-0.152738 0.179681 -0.103081 0 0 -0.037043 0.328771 0.061667 
0.053422 0 -0.103081 0 0 -0.037043 0.328771 0.061667 
-0.152738 0 -0.103081 0 0 -0.037043 0.328771 0.061667 
-0.059326 0.277529 0.103082 0 -0 0.00220305 0.392782 0.063177 
-0.059326 0.365412 0.103082 0 -0 0.00220305 0.392782 0.063177 
-0.084394 0.365412 0.103082 0 -0 0.00220305 0.392782 0.063177 
-0.059326 0.277529 0.103082 0 0 0.00220305 0.392782 0.063177 
-0.084394 0.365412 0.103082 0 0 0.00220305 0.392782 0.063177 
-0.084394 0.277529 0.103082 0 0 0.00220305 0.392782 0.063177 
-0.152738 0.179681 0.103082 0 0 0.0141879 0.239345 0.170489 
-0.121814 0.179681 0.103082 0 0 0.0141879 0.239345 0.170489 
-0.121814 0.63848 0.103082 0 0 0.0141879 0.239345 0.170489 
-0.152738 0.179681 0.103082 0 0 0.0141879 0.239345 0.170489 
-0.121814 0.63848 0.103082 0 0 0.0141879 0.239345 0.170489 
-0.152738 0.63848 0.103082 0 0 0.0141879 0.239345 0.170489 
0.022497 0.179681 0.103082 0 -0 0.0106854 0.239345 0.222262 
0.022497 0.63848 0.103082 0 -0 0.0106854 0.239345 0.222262 
-0.000793 0.606015 0.103082 0 -0 0.0106854 0.239345 0.222262 
0.022497 0.179681 0.103082 0 0 0.000998372 0.239345 0.222262 
-0.000793 0.606015 0.103082 0 0 0.000998372 0.239345 0.222262 
-0.000793 0.563148 0.103082 0 0 0.000998372 0.239345 0.222262 
0.022497 0.179681 0.103082 0 0 0.00375721 0.239345 0.222262 
-0.000793 0.563148 0.103082 0 0 0.00375721 0.239345 0.222262 
-0.000793 0.401825 0.103082 0 0 0.00375721 0.239345 0.222262 
0.022497 0.179681 0.103082 0 0 0.00317037 0.239345 0.222262 
-0.000793 0.401825 0.103082 0 0 0.00317037 0.239345 0.222262 
-0.000793 0.265699 0.103082 0 0 0.00317037 0.239345 0.222262 
0.022497 0.63848 0.103082 0 0 0.00468505 0.239345 0.222262 
-0.121814 0.63848 0.103082 0 0 0.00468505 0.239345 0.222262 
-0.098524 0.606015 0.103082 0 0 0.00468505 0.239345 0.222262 
0.022497 0.63848 0.103082 0 0 0.00317284 0.239345 0.222262 
-0.098524 0.606015 0.103082 0 0 0.00317284 0.239345 0.222262 
-0.000793 0.606015 0.103082 0 0 0.00317284 0.239345 0.222262 
-0.121814 0.63848 0.103082 0 0 0.0106854 0.239345 0.222262 
-0.121814 0.179681 0.103082 0 0 0.0106854 0.239345 0.222262 
-0.098524 0.265699 0.103082 0 0 0.0106854 0.239345 0.222262 
-0.121814 0.63848 0.103082 0 0 0.00317038 0.239345 0.222262 
-0.098524 0.265699 0.103082 0 0 0.00317038 0.239345 0.222262 
-0.098524 0.401825 0.103082 0 0 0.00317038 0.239345 0.222262 
-0.121814 0.63848 0.103082 0 0 0.00375721 0.239345 0.222262 
-0.098524 0.401825 0.103082 0 0 0.00375721 0.239345 0.222262 
-0.098524 0.563148 0.103082 0 0 0.00375721 0.239345 0.222262 
-0.121814 0.63848 0.103082 0 0 0.000998373 0.239345 0.222262 
-0.098524 0.563148 0.103082 0 0 0.000998373 0.239345 0.222262 
-0.098524 0.606015 0.103082 0 0 0.000998373 0.239345 0.222262 
-0.121814 0.179681 0.103082 0 0 0.0124133 0.239345 0.222262 
0.022497 0.179681 0.103082 0 0 0.0124133 0.239345 0.222262 
-0.000793 0.265699 0.103082 0 0 0.0124133 0.239345 0.222262 
-0.121814 0.179681 0.103082 0 0 0.00840662 0.239345 0.222262 
-0.000793 0.265699 0.103082 0 0 0.00840662 0.239345 0.222262 
-0.098524 0.265699 0.103082 0 0 0.00840662 0.239345 0.222262 
-0.000793 0.606015 0.103082 0 0 0.00418943 0.176676 0.060452 
-0.098524 0.606015 0.103082 0 0 0.00418943 0.176676 0.060452 
-0.098524 0.563148 0.103082 0 0 0.00418943 0.176676 0.060452 
-0.000793 0.606015 0.103082 0 0 0.00418943 0.176676 0.060452 
-0.098524 0.563148 0.103082 0 0 0.00418943 0.176676 0.060452 
-0.000793 0.563148 0.103082 0 0 0.00418943 0.176676 0.060452 
-0.098524 0.265699 0.103082 0 0 0.00115616 0.239345 0.17143 
-0.000793 0.265699 0.103082 0 0 0.00115616 0.239345 0.17143 
-0.059326 0.277529 0.103082 0 0 0.00115616 0.239345 0.17143 
-0.098524 0.265699 0.103082 0 0 0.000296554 0.239345 0.17143 
-0.059326 0.277529 0.103082 0 0 0.000296554 0.239345 0.17143 
-0.084394 0.277529 0.103082 0 0 0.000296554 0.239345 0.17143 
-0.098524 0.401825 0.103082 0 0 0.00192346 0.239345 0.17143 
-0.098524 0.265699 0.103082 0 0 0.00192346 0.239345 0.17143 
-0.084394 0.277529 0.103082 0 0 0.00192346 0.239345 0.17143 
-0.098524 0.401825 0.103082 0 0 0.00124179 0.239345 0.17143 
-0.084394 0.277529 0.103082 0 0 0.00124179 0.239345 0.17143 
-0.084394 0.365412 0.103082 0 0 0.00124179 0.239345 0.17143 
-0.000793 0.401825 0.103082 0 0 0.00355868 0.239345 0.17143 
-0.098524 0.401825 0.103082 0 0 0.00355868 0.239345 0.17143 
-0.084394 0.365412 0.103082 0 0 0.00355868 0.239345 0.17143 
-0.000793 0.401825 0.103082 0 0 0.000912801 0.239345 0.17143 
-0.084394 0.365412 0.103082 0 0 0.000912801 0.239345 0.17143 
-0.059326 0.365412 0.103082 0 0 0.000912801 0.239345 0.17143 
-0.000793 0.265699 0.103082 0 -0 0.00796786 0.239345 0.17143 
-0.000793 0.401825 0.103082 0 -0 0.00796786 0.239345 0.17143 
-0.059326 0.365412 0.103082 0 -0 0.00796786 0.239345 0.17143 
-0.000793 0.265699 0.103082 0 0 0.00514406 0.239345 0.17143 
-0.059326 0.365412 0.103082 0 0 0.00514406 0.239345 0.17143 
-0.059326 0.277529 0.103082 0 0 0.00514406 0.239345 0.17143 
-0.000793 0.563148 0.103082 0 0 0.0157663 0.23591 0.219437 
-0.098524 0.563148 0.103082 0 0 0.0157663 0.23591 0.219437 
-0.098524 0.401825 0.103082 0 0 0.0157663 0.23591 0.219437 
-0.000793 0.563148 0.103082 0 0 0.0157663 0.23591 0.219437 
-0.098524 0.401825 0.103082 0 0 0.0157663 0.23591 0.219437 
-0.000793 0.401825 0.103082 0 0 0.0157663 0.23591 0.219437 
-0.152738 0.179681 -0.103081 -0.0472939 0 0 0.16754 0.062702 
-0.152738 0.179681 1e-06 -0.0472939 0 0 0.16754 0.062702 
-0.152738 0.63848 1e-06 -0.0472939 0 0 0.16754 0.062702 
-0.152738 0.179681 -0.103081 -0.0582507 0 0 0.16754 0.062702 
-0.152738 0.63848 1e-06 -0.0582507 0 0 0.16754 0.062702 
-0.152738 0.744772 -0.103081 -0.0582507 0 0 0.16754 0.062702 
0.053422 0.179681 0.103082 0.0472935 0 0 0.207306 0.170489 
0.053422 0.179681 1e-06 0.0472935 0 0 0.207306 0.170489 
0.053422 0.63848 1e-06 0.0472935 0 0 0.207306 0.170489 
0.053422 0.179681 0.103082 0.0472935 -0 0 0.207306 0.170489 
0.053422 0.63848 1e-06 0.0472935 -0 0 0.207306 0.170489 
0.053422 0.63848 0.103082 0.0472935 -0 0 0.207306 0.170489 
0.002789 0.945838 0.051904 0 0 0.0110519 0.232455 0.170775 
0.187051 1.05253 0.051904 0 0 0.0110519 0.232455 0.170775 
0.161095 1.09748 0.051904 0 0 0.0110519 0.232455 0.170775 
0.002789 0.945838 0.051904 0 -0 0.0158242 0.232455 0.170775 
0.161095 1.09748 0.051904 0 -0 0.0158242 0.232455 0.170775 
-0.101563 0.945838 0.051904 0 -0 0.0158242 0.232455 0.170775 
-0.101563 0.945838 0.051904 -0.0157415 0.0272657 0 0.26732 0.170775 
0.161095 1.09748 0.051904 -0.0157415 0.0272657 0 0.26732 0.170775 
0.161095 1.09748 -0.051903 -0.0157415 0.0272657 0 0.26732 0.170775 
-0.101563 0.945838 0.051904 -0.0157415 0.0272657 0 0.26732 0.170775 
0.161095 1.09748 -0.051903 -0.0157415 0.0272657 0 0.26732 0.170775 
-0.101563 0.945838 -0.051903 -0.0157415 0.0272657 0 0.26732 0.170775 
-0.101563 0.945838 -0.051903 0 0 -0.0157425 0.232455 0.170775 
0.161095 1.09748 -0.051903 0 0 -0.0157425 0.232455 0.170775 
0.187051 1.05253 -0.051903 0 0 -0.0157425 0.232455 0.170775 
-0.101563 0.945838 -0.051903 0 0 -0.0111335 0.232455 0.170775 
0.187051 1.05253 -0.051903 0 0 -0.0111335 0.232455 0.170775 
0.002789 0.945838 -0.051903 0 0 -0.0111335 0.232455 0.170775 
0.002789 0.945838 -0.051903 0.0110754 -0.0191277 0 0.167435 0.170775 
0.187051 1.05253 -0.051903 0.0110754 -0.0191277 0 0.167435 0.170775 
0.187051 1.05253 0.051904 0.0110754 -0.0191277 0 0.167435 0.170775 
0.002789 0.945838 -0.051903 0.0110754 -0.0191277 0 0.167435 0.170775 
0.187051 1.05253 0.051904 0.0110754 -0.0191277 0 0.167435 0.170775 
0.002789 0.945838 0.051904 0.0110754 -0.0191277 0 0.167435 0.170775 
0.187051 1.05253 0.051904 0.00466613 0.00269442 0 0.200416 0.170775 
0.187051 1.05253 -0.051903 0.00466613 0.00269442 0 0.200416 0.170775 
0.161095 1.09748 -0.051903 0.00466613 0.00269442 0 0.200416 0.170775 
0.187051 1.05253 0.051904 0.00466613 0.00269442 0 0.200416 0.170775 
0.161095 1.09748 -0.051903 0.00466613 0.00269442 0 0.200416 0.170775 
0.161095 1.09748 0.051904 0.00466613 0.00269442 0 0.200416 0.170775 
-0.101563 0.893926 0.051904 0 0 0.00538898 0.232455 0.170775 
0.002247 0.893926 0.051904 0 0 0.00538898 0.232455 0.170775 
0.002789 0.945838 0.051904 0 0 0.00538898 0.232455 0.170775 
-0.101563 0.893926 0.051904 0 0 0.00541712 0.232455 0.170775 
0.002789 0.945838 0.051904 0 0 0.00541712 0.232455 0.170775 
-0.101563 0.945838 0.051904 0 0 0.00541712 0.232455 0.170775 
0.002789 0.945838 -0.051903 0 0.0206514 0 0.26732 0.170775 
0.002789 0.945838 0.051904 0 0.0206514 0 0.26732 0.170775 
0.201729 0.945838 0.051904 0 0.0206514 0 0.26732 0.170775 
0.002789 0.945838 -0.051903 0 0.0206514 0 0.26732 0.170775 
0.201729 0.945838 0.051904 0 0.0206514 0 0.26732 0.170775 
0.201729 0.945838 -0.051903 0 0.0206514 0 0.26732 0.170775 
0.002789 0.945838 -0.051903 -5.20211e-08 1.04571e-07 -0.00538898 0.232455 0.170775 
0.002247 0.893926 -0.051904 -5.20211e-08 1.04571e-07 -0.00538898 0.232455 0.170775 
-0.101563 0.893926 -0.051903 -5.20211e-08 1.04571e-07 -0.00538898 0.232455 0.170775 
0.002789 0.945838 -0.051903 -0 0 -0.00541712 0.232455 0.170775 
-0.101563 0.893926 -0.051903 -0 0 -0.00541712 0.232455 0.170775 
-0.101563 0.945838 -0.051903 -0 0 -0.00541712 0.232455 0.170775 
0.201729 0.893926 0.051904 0.00538882 0 0 0.200416 0.170775 
0.201729 0.893926 -0.051903 0.00538882 0 0 0.200416 0.170775 
0.201729 0.945838 -0.051903 0.00538882 0 0 0.200416 0.170775 
0.201729 0.893926 0.051904 0.00538882 -0 0 0.200416 0.170775 
0.201729 0.945838 -0.051903 0.00538882 -0 0 0.200416 0.170775 
0.201729 0.945838 0.051904 0.00538882 -0 0 0.200416 0.170775 
-0.101563 0.893926 -0.051903 -0.00538882 0 0 0.200416 0.170775 
-0.101563 0.893926 0.051904 -0.00538882 0 0 0.200416 0.170775 
-0.101563 0.945838 0.051904 -0.00538882 0 0 0.200416 0.170775 
-0.101563 0.893926 -0.051903 -0.00538882 0 0 0.200416 0.170775 
-0.101563 0.945838 0.051904 -0.00538882 0 0 0.200416 0.170775 
-0.101563 0.945838 -0.051903 -0.00538882 0 0 0.200416 0.170775 
0.002789 0.945838 -0.051903 0 0 -0.0103274 0.232455 0.170775 
0.201729 0.945838 -0.051903 0 0 -0.0103274 0.232455 0.170775 
0.201729 0.893926 -0.051903 0 0 -0.0103274 0.232455 0.170775 
0.002789 0.945838 -0.051903 5.20211e-08 1.99358e-07 -0.0103555 0.232455 0.170775 
0.201729 0.893926 -0.051903 5.20211e-08 1.99358e-07 -0.0103555 0.232455 0.170775 
0.002247 0.893926 -0.051904 5.20211e-08 1.99358e-07 -0.0103555 0.232455 0.170775 
0.002247 0.893926 0.051904 0 -0.0207078 0 0.167435 0.170775 
0.002247 0.893926 -0.051904 0 -0.0207078 0 0.167435 0.170775 
0.201729 0.893926 -0.051903 0 -0.0207078 0 0.167435 0.170775 
0.002247 0.893926 0.051904 0 -0.0207076 0 0.167435 0.170775 
0.201729 0.893926 -0.051903 0 -0.0207076 0 0.167435 0.170775 
0.201729 0.893926 0.051904 0 -0.0207076 0 0.167435 0.170775 
0.002789 0.945838 0.051904 0 0 0.0103555 0.232455 0.170775 
0.002247 0.893926 0.051904 0 0 0.0103555 0.232455 0.170775 
0.201729 0.893926 0.051904 0 0 0.0103555 0.232455 0.170775 
0.002789 0.945838 0.051904 -0 0 0.0103274 0.232455 0.170775 
0.201729 0.893926 0.051904 -0 0 0.0103274 0.232455 0.170775 
0.201729 0.945838 0.051904 -0 0 0.0103274 0.232455 0.170775 
-0.101563 0.836094 -0.051903 -0.000791527 0 0 0.170042 0.061667 
-0.101563 0.836094 0.051904 -0.000791527 0 0 0.170042 0.061667 
-0.101563 0.843719 0.027072 -0.000791527 0 0 0.170042 0.061667 
-0.101563 0.836094 -0.051903 -0.00041284 0 0 0.170042 0.061667 
-0.101563 0.843719 0.027072 -0.00041284 0 0 0.170042 0.061667 
-0.101563 0.843719 -0.027071 -0.00041284 0 0 0.170042 0.061667 
-0.101563 0.836094 0.051904 -0.00143608 0 0 0.170042 0.061667 
-0.101563 0.893926 0.051904 -0.00143608 0 0 0.170042 0.061667 
-0.101563 0.886301 0.027072 -0.00143608 0 0 0.170042 0.061667 
-0.101563 0.836094 0.051904 -0.0010574 0 0 0.170042 0.061667 
-0.101563 0.886301 0.027072 -0.0010574 0 0 0.170042 0.061667 
-0.101563 0.843719 0.027072 -0.0010574 0 0 0.170042 0.061667 
-0.101563 0.893926 0.051904 -0.000791533 0 -0 0.170042 0.061667 
-0.101563 0.893926 -0.051903 -0.000791533 0 -0 0.170042 0.061667 
-0.101563 0.886301 -0.027071 -0.000791533 0 -0 0.170042 0.061667 
-0.101563 0.893926 0.051904 -0.000412843 0 0 0.170042 0.061667 
-0.101563 0.886301 -0.027071 -0.000412843 0 0 0.170042 0.061667 
-0.101563 0.886301 0.027072 -0.000412843 0 0 0.170042 0.061667 
-0.101563 0.893926 -0.051903 -0.00143608 0 0 0.170042 0.061667 
-0.101563 0.836094 -0.051903 -0.00143608 0 0 0.170042 0.061667 
-0.101563 0.843719 -0.027071 -0.00143608 0 0 0.170042 0.061667 
-0.101563 0.893926 -0.051903 -0.0010574 0 0 0.170042 0.061667 
-0.101563 0.843719 -0.027071 -0.0010574 0 0 0.170042 0.061667 
-0.101563 0.886301 -0.027071 -0.0010574 0 0 0.170042 0.061667 
-0.101563 0.843719 -0.027071 0 -0.00542329 0 0.237325 0.085307 
-0.101563 0.843719 0.027072 0 -0.00542329 0 0.237325 0.085307 
-0.201729 0.843719 0.027072 0 -0.00542329 0 0.237325 0.085307 
-0.101563 0.843719 -0.027071 0 -0.00542329 0 0.237325 0.085307 
-0.201729 0.843719 0.027072 0 -0.00542329 0 0.237325 0.085307 
-0.201729 0.843719 -0.027071 0 -0.00542329 0 0.237325 0.085307 
-0.101563 0.843719 0.027072 0 -0 0.00426527 0.291879 0.085307 
-0.101563 0.886301 0.027072 0 -0 0.00426527 0.291879 0.085307 
-0.201729 0.886301 0.027072 0 -0 0.00426527 0.291879 0.085307 
-0.101563 0.843719 0.027072 0 0 0.00426527 0.291879 0.085307 
-0.201729 0.886301 0.027072 0 0 0.00426527 0.291879 0.085307 
-0.201729 0.843719 0.027072 0 0 0.00426527 0.291879 0.085307 
-0.101563 0.886301 0.027072 0 0.00542329 0 0.327339 0.085307 
-0.101563 0.886301 -0.027071 0 0.00542329 0 0.327339 0.085307 
-0.201729 0.886301 -0.027071 0 0.00542329 0 0.327339 0.085307 
-0.101563 0.886301 0.027072 0 0.00542329 0 0.327339 0.085307 
-0.201729 0.886301 -0.027071 0 0.00542329 0 0.327339 0.085307 
-0.201729 0.886301 0.027072 0 0.00542329 0 0.327339 0.085307 
-0.101563 0.886301 -0.027071 0 -0 -0.00426527 0.291879 0.085307 
-0.101563 0.843719 -0.027071 0 -0 -0.00426527 0.291879 0.085307 
-0.201729 0.843719 -0.027071 0 -0 -0.00426527 0.291879 0.085307 
-0.101563 0.886301 -0.027071 -0 0 -0.00426527 0.291879 0.085307 
-0.201729 0.843719 -0.027071 -0 0 -0.00426527 0.291879 0.085307 
-0.201729 0.886301 -0.027071 -0 0 -0.00426527 0.291879 0.085307 
3 0 1 2
3 3 4 5
3 6 7 8
3 9 10 11
3 12 13 14
3 15 16 17
3 18 19 20
3 21 22 23
3 24 25 26
3 27 28 29
3 30 31 32
3 33 34 35
3 36 37 38
3 39 40 41
3 42 43 44
3 45 46 47
3 48 49 50
3 51 52 53
3 54 55 56
3 57 58 59
3 60 61 62
3 63 64 65
3 66 67 68
3 69 70 71
3 72 73 74
3 75 76 77
3 78 79 80
3 81 82 83
3 84 85 86
3 87 88 89
3 90 91 92
3 93 94 95
3 96 97 98
3 99 100 101
3 102 103 104
3 105 106 107
3 108 109 110
3 111 112 113
3 114 115 116
3 117 118 119
3 120 121 122
3 123 124 125
3 126 127 128
3 129 130 131
3 132 133 134
3 135 136 137
3 138 139 140
3 141 142 143
3 144 145 146
3 147 148 149
3 150 151 152
3 153 154 155
3 156 157 158
3 159 160 161
3 162 163 164
3 165 166 167
3 168 169 170
3 171 172 173
3 174 175 176
3 177 178 179
3 180 181 182
3 183 184 185
3 186 187 188
3 189 190 191
3 192 193 194
3 195 196 197
3 198 199 200
3 201 202 203
3 204 205 206
3 207 208 209
3 210 211 212
3 213 214 215
3 216 217 218
3 219 220 221
3 222 223 224
3 225 226 227
3 228 229 230
3 231 232 233
3 234 235 236
3 237 238 239
3 240 241 242
3 243 244 245
3 246 247 248
3 249 250 251
3 252 253 254
3 255 256 257
3 258 259 260
3 261 262 263
3 264 265 266
3 267 268 269
3 270 271 272
3 273 274 275
3 276 277 278
3 279 280 281
3 282 283 284
3 285 286 287
3 288 289 290
3 291 292 293
3 294 295 296
3 297 298 299
3 300 301 302
3 303 304 305
3 306 307 308
3 309 310 311
3 312 313 314
3 315 316 317
3 318 319 320
3 321 322 323
3 324 325 326
3 327 328 329
3 330 331 332
3 333 334 335
3 336 337 338
3 339 340 341
3 342 343 344
3 345 346 347
3 348 349 350
3 351 352 353
3 354 355 356
3 357 358 359
3 360 361 362
3 363 364 365
3 366 367 368
3 369 370 371
3 372 373 374
3 375 376 377
3 378 379 380
3 381 382 383
3 384 385 386
3 387 388 389
3 390 391 392
3 393 394 395
3 396 397 398
3 399 400 401
3 402 403 404
3 405 406 407
3 408 409 410
3 411 412 413
3 414 415 416
3 417 418 419
3 420 421 422
3 423 424 425
3 426 427 428
3 429 430 431
3 432 433 434
3 435 436 437
3 438 439 440
3 441 442 443
