ply
format ascii 1.0
comment Feeney's Flatenator generated
comment TextureFile SpaceInteriors_Texture.png
element vertex 144
property float x
property float y
property float z
element face 48
property list uchar int vertex_indices
end_header
-0.499659 -0.068552 -0.311659 
-0.499659 -0.068552 0.311659 
-0.499659 -0.036041 0.311659 
-0.499659 -0.068552 -0.311659 
-0.499659 -0.036041 0.311659 
-0.499659 -0.036041 -0.311659 
-0.027109 0.094878 -0.311659 
-0.027109 0.094878 0.311659 
0.499659 0.094878 0.311659 
-0.027109 0.094878 -0.311659 
0.499659 0.094878 0.311659 
0.499659 0.094878 -0.311659 
0.540544 -0.094878 -0.348933 
0.540544 -0.094878 0.348933 
-0.029327 -0.094878 0.348933 
0.540544 -0.094878 -0.348933 
-0.029327 -0.094878 0.348933 
-0.029327 -0.094878 -0.348933 
-0.027109 -0.068552 0.311659 
0.499659 -0.068552 0.311659 
-0.027109 -0.036041 0.311659 
0.499659 -0.068552 -0.311659 
-0.027109 -0.068552 -0.311659 
-0.027109 -0.036041 -0.311659 
-0.027109 -0.036041 -0.311659 
-0.027109 -0.036041 0.311659 
-0.027109 0.094878 0.311659 
-0.027109 -0.036041 -0.311659 
-0.027109 0.094878 0.311659 
-0.027109 0.094878 -0.311659 
0.499659 -0.068552 -0.311659 
-0.027109 -0.036041 -0.311659 
-0.027109 0.094878 -0.311659 
0.499659 -0.068552 -0.311659 
-0.027109 0.094878 -0.311659 
0.499659 0.094878 -0.311659 
0.499659 0.094878 -0.311659 
0.499659 0.094878 0.311659 
0.499659 -0.068552 0.311659 
0.499659 0.094878 -0.311659 
0.499659 -0.068552 0.311659 
0.499659 -0.068552 -0.311659 
-0.027109 -0.036041 0.311659 
0.499659 -0.068552 0.311659 
0.499659 0.094878 0.311659 
-0.027109 -0.036041 0.311659 
0.499659 0.094878 0.311659 
-0.027109 0.094878 0.311659 
-0.029327 -0.094878 -0.348933 
-0.029327 -0.094878 0.348933 
-0.540544 -0.094878 0.348933 
-0.029327 -0.094878 -0.348933 
-0.540544 -0.094878 0.348933 
-0.540544 -0.094878 -0.348933 
-0.027109 -0.068552 0.311659 
-0.027109 -0.036041 0.311659 
-0.499659 -0.036041 0.311659 
-0.027109 -0.068552 0.311659 
-0.499659 -0.036041 0.311659 
-0.499659 -0.068552 0.311659 
-0.027109 -0.036041 0.311659 
-0.027109 -0.036041 -0.311659 
-0.499659 -0.036041 -0.311659 
-0.027109 -0.036041 0.311659 
-0.499659 -0.036041 -0.311659 
-0.499659 -0.036041 0.311659 
-0.027109 -0.036041 -0.311659 
-0.027109 -0.068552 -0.311659 
-0.499659 -0.068552 -0.311659 
-0.027109 -0.036041 -0.311659 
-0.499659 -0.068552 -0.311659 
-0.499659 -0.036041 -0.311659 
0.499659 -0.068552 -0.311659 
0.499659 -0.068552 0.311659 
0.540544 -0.068552 0.348933 
0.499659 -0.068552 -0.311659 
0.540544 -0.068552 0.348933 
0.540544 -0.068552 -0.348933 
0.499659 -0.068552 0.311659 
-0.027109 -0.068552 0.311659 
-0.029327 -0.068552 0.348933 
0.499659 -0.068552 0.311659 
-0.029327 -0.068552 0.348933 
0.540544 -0.068552 0.348933 
-0.027109 -0.068552 -0.311659 
0.499659 -0.068552 -0.311659 
0.540544 -0.068552 -0.348933 
-0.027109 -0.068552 -0.311659 
0.540544 -0.068552 -0.348933 
-0.029327 -0.068552 -0.348933 
-0.027109 -0.068552 0.311659 
-0.499659 -0.068552 0.311659 
-0.540544 -0.068552 0.348933 
-0.027109 -0.068552 0.311659 
-0.540544 -0.068552 0.348933 
-0.029327 -0.068552 0.348933 
-0.499659 -0.068552 0.311659 
-0.499659 -0.068552 -0.311659 
-0.540544 -0.068552 -0.348933 
-0.499659 -0.068552 0.311659 
-0.540544 -0.068552 -0.348933 
-0.540544 -0.068552 0.348933 
-0.499659 -0.068552 -0.311659 
-0.027109 -0.068552 -0.311659 
-0.029327 -0.068552 -0.348933 
-0.499659 -0.068552 -0.311659 
-0.029327 -0.068552 -0.348933 
-0.540544 -0.068552 -0.348933 
0.540544 -0.068552 -0.348933 
0.540544 -0.068552 0.348933 
0.540544 -0.094878 0.348933 
0.540544 -0.068552 -0.348933 
0.540544 -0.094878 0.348933 
0.540544 -0.094878 -0.348933 
0.540544 -0.068552 0.348933 
-0.029327 -0.068552 0.348933 
-0.029327 -0.094878 0.348933 
0.540544 -0.068552 0.348933 
-0.029327 -0.094878 0.348933 
0.540544 -0.094878 0.348933 
-0.029327 -0.068552 -0.348933 
0.540544 -0.068552 -0.348933 
0.540544 -0.094878 -0.348933 
-0.029327 -0.068552 -0.348933 
0.540544 -0.094878 -0.348933 
-0.029327 -0.094878 -0.348933 
-0.029327 -0.068552 0.348933 
-0.540544 -0.068552 0.348933 
-0.540544 -0.094878 0.348933 
-0.029327 -0.068552 0.348933 
-0.540544 -0.094878 0.348933 
-0.029327 -0.094878 0.348933 
-0.540544 -0.068552 0.348933 
-0.540544 -0.068552 -0.348933 
-0.540544 -0.094878 -0.348933 
-0.540544 -0.068552 0.348933 
-0.540544 -0.094878 -0.348933 
-0.540544 -0.094878 0.348933 
-0.540544 -0.068552 -0.348933 
-0.029327 -0.068552 -0.348933 
-0.029327 -0.094878 -0.348933 
-0.540544 -0.068552 -0.348933 
-0.029327 -0.094878 -0.348933 
-0.540544 -0.094878 -0.348933 
3 0 1 2
3 3 4 5
3 6 7 8
3 9 10 11
3 12 13 14
3 15 16 17
3 18 19 20
3 21 22 23
3 24 25 26
3 27 28 29
3 30 31 32
3 33 34 35
3 36 37 38
3 39 40 41
3 42 43 44
3 45 46 47
3 48 49 50
3 51 52 53
3 54 55 56
3 57 58 59
3 60 61 62
3 63 64 65
3 66 67 68
3 69 70 71
3 72 73 74
3 75 76 77
3 78 79 80
3 81 82 83
3 84 85 86
3 87 88 89
3 90 91 92
3 93 94 95
3 96 97 98
3 99 100 101
3 102 103 104
3 105 106 107
3 108 109 110
3 111 112 113
3 114 115 116
3 117 118 119
3 120 121 122
3 123 124 125
3 126 127 128
3 129 130 131
3 132 133 134
3 135 136 137
3 138 139 140
3 141 142 143
