ply
format ascii 1.0
comment Feeney's Flatenator generated
comment TextureFile SpaceInteriors_Texture.png
element vertex 156
property float x
property float y
property float z
property float nx
property float ny
property float nz
property uchar red
property uchar green
property uchar blue
property uchar alpha
element face 52
property list uchar int vertex_indices
end_header
-0.355002 -0.021455 0.58134 0 0 0.0304664 157 152 148 255 
0.355004 -0.021455 0.58134 0 0 0.0304664 157 152 148 255 
0.355004 0.021455 0.58134 0 0 0.0304664 157 152 148 255 
-0.355002 -0.021455 0.58134 0 0 0.0304664 157 152 148 255 
0.355004 0.021455 0.58134 0 0 0.0304664 157 152 148 255 
-0.355002 0.021455 0.58134 0 0 0.0304664 157 152 148 255 
-0.09795 0.116109 0.148076 -0 0.0653766 0 219 219 219 255 
0.097952 0.116109 0.148076 -0 0.0653766 0 219 219 219 255 
0.097952 0.116109 -0.185645 -0 0.0653766 0 219 219 219 255 
-0.09795 0.116109 0.148076 0 0.0653766 0 219 219 219 255 
0.097952 0.116109 -0.185645 0 0.0653766 0 219 219 219 255 
-0.09795 0.116109 -0.185645 0 0.0653766 0 219 219 219 255 
-0.355002 0.021455 -0.58134 0 0 -0.0304664 157 152 148 255 
0.355004 0.021455 -0.58134 0 0 -0.0304664 157 152 148 255 
0.355004 -0.021455 -0.58134 0 0 -0.0304664 157 152 148 255 
-0.355002 0.021455 -0.58134 0 0 -0.0304664 157 152 148 255 
0.355004 -0.021455 -0.58134 0 0 -0.0304664 157 152 148 255 
-0.355002 -0.021455 -0.58134 0 0 -0.0304664 157 152 148 255 
-0.155497 -0.116109 -0.254638 0 -0.158382 0 139 80 51 255 
0.155499 -0.116109 -0.254638 0 -0.158382 0 139 80 51 255 
0.155499 -0.116109 0.254637 0 -0.158382 0 139 80 51 255 
-0.155497 -0.116109 -0.254638 0 -0.158382 0 139 80 51 255 
0.155499 -0.116109 0.254637 0 -0.158382 0 139 80 51 255 
-0.155497 -0.116109 0.254637 0 -0.158382 0 139 80 51 255 
0.355004 -0.021455 0.58134 0.0498906 0 0 141 137 133 255 
0.355004 -0.021455 -0.58134 0.0498906 0 0 141 137 133 255 
0.355004 0.021455 -0.58134 0.0498906 0 0 141 137 133 255 
0.355004 -0.021455 0.58134 0.0498906 -0 0 141 137 133 255 
0.355004 0.021455 -0.58134 0.0498906 -0 0 141 137 133 255 
0.355004 0.021455 0.58134 0.0498906 -0 0 141 137 133 255 
-0.355002 -0.021455 -0.58134 -0.0498906 0 0 141 137 133 255 
-0.355002 -0.021455 0.58134 -0.0498906 0 0 141 137 133 255 
-0.355002 0.021455 0.58134 -0.0498906 0 0 141 137 133 255 
-0.355002 -0.021455 -0.58134 -0.0498906 0 0 141 137 133 255 
-0.355002 0.021455 0.58134 -0.0498906 0 0 141 137 133 255 
-0.355002 0.021455 -0.58134 -0.0498906 0 0 141 137 133 255 
-0.355002 0.021455 0.58134 -0 0.196879 0 172 167 162 255 
0.355004 0.021455 0.58134 -0 0.196879 0 172 167 162 255 
0.185671 0.021455 0.304048 -0 0.196879 0 172 167 162 255 
-0.355002 0.021455 0.58134 0 0.10297 0 172 167 162 255 
0.185671 0.021455 0.304048 0 0.10297 0 172 167 162 255 
-0.185669 0.021455 0.304048 0 0.10297 0 172 167 162 255 
0.355004 0.021455 0.58134 0 0.19688 0 172 167 162 255 
0.355004 0.021455 -0.58134 0 0.19688 0 172 167 162 255 
0.185671 0.021455 -0.304047 0 0.19688 0 172 167 162 255 
0.355004 0.021455 0.58134 0 0.102971 0 172 167 162 255 
0.185671 0.021455 -0.304047 0 0.102971 0 172 167 162 255 
0.185671 0.021455 0.304048 0 0.102971 0 172 167 162 255 
0.355004 0.021455 -0.58134 0 0.19688 0 172 167 162 255 
-0.355002 0.021455 -0.58134 0 0.19688 0 172 167 162 255 
-0.185669 0.021455 -0.304047 0 0.19688 0 172 167 162 255 
0.355004 0.021455 -0.58134 0 0.10297 0 172 167 162 255 
-0.185669 0.021455 -0.304047 0 0.10297 0 172 167 162 255 
0.185671 0.021455 -0.304047 0 0.10297 0 172 167 162 255 
-0.355002 0.021455 -0.58134 0 0.19688 0 172 167 162 255 
-0.355002 0.021455 0.58134 0 0.19688 0 172 167 162 255 
-0.185669 0.021455 0.304048 0 0.19688 0 172 167 162 255 
-0.355002 0.021455 -0.58134 0 0.102971 0 172 167 162 255 
-0.185669 0.021455 0.304048 0 0.102971 0 172 167 162 255 
-0.185669 0.021455 -0.304047 0 0.102971 0 172 167 162 255 
-0.355002 -0.021455 -0.58134 0 -0.19688 0 125 121 118 255 
0.355004 -0.021455 -0.58134 0 -0.19688 0 125 121 118 255 
0.185671 -0.021455 -0.304047 0 -0.19688 0 125 121 118 255 
-0.355002 -0.021455 -0.58134 0 -0.10297 0 125 121 118 255 
0.185671 -0.021455 -0.304047 0 -0.10297 0 125 121 118 255 
-0.185669 -0.021455 -0.304047 0 -0.10297 0 125 121 118 255 
0.355004 -0.021455 -0.58134 0 -0.19688 0 125 121 118 255 
0.355004 -0.021455 0.58134 0 -0.19688 0 125 121 118 255 
0.185671 -0.021455 0.304048 0 -0.19688 0 125 121 118 255 
0.355004 -0.021455 -0.58134 0 -0.102971 0 125 121 118 255 
0.185671 -0.021455 0.304048 0 -0.102971 0 125 121 118 255 
0.185671 -0.021455 -0.304047 0 -0.102971 0 125 121 118 255 
0.355004 -0.021455 0.58134 -0 -0.196879 0 125 121 118 255 
-0.355002 -0.021455 0.58134 -0 -0.196879 0 125 121 118 255 
-0.185669 -0.021455 0.304048 -0 -0.196879 0 125 121 118 255 
0.355004 -0.021455 0.58134 0 -0.10297 0 125 121 118 255 
-0.185669 -0.021455 0.304048 0 -0.10297 0 125 121 118 255 
0.185671 -0.021455 0.304048 0 -0.10297 0 125 121 118 255 
-0.355002 -0.021455 0.58134 0 -0.19688 0 125 121 118 255 
-0.355002 -0.021455 -0.58134 0 -0.19688 0 125 121 118 255 
-0.185669 -0.021455 -0.304047 0 -0.19688 0 125 121 118 255 
-0.355002 -0.021455 0.58134 0 -0.102971 0 125 121 118 255 
-0.185669 -0.021455 -0.304047 0 -0.102971 0 125 121 118 255 
-0.185669 -0.021455 0.304048 0 -0.102971 0 125 121 118 255 
-0.185669 0.021455 0.304048 -0 0.0183483 0.0351488 180 113 69 255 
0.185671 0.021455 0.304048 -0 0.0183483 0.0351488 180 113 69 255 
0.155499 0.116109 0.254637 -0 0.0183483 0.0351488 180 113 69 255 
-0.185669 0.021455 0.304048 0 0.0153666 0.029437 180 113 69 255 
0.155499 0.116109 0.254637 0 0.0153666 0.029437 180 113 69 255 
-0.155497 0.116109 0.254637 0 0.0153666 0.029437 180 113 69 255 
0.185671 0.021455 0.304048 0.0575586 0.0183474 0 172 104 64 255 
0.185671 0.021455 -0.304047 0.0575586 0.0183474 0 172 104 64 255 
0.155499 0.116109 -0.254638 0.0575586 0.0183474 0 172 104 64 255 
0.185671 0.021455 0.304048 0.0482049 0.0153658 0 172 104 64 255 
0.155499 0.116109 -0.254638 0.0482049 0.0153658 0 172 104 64 255 
0.155499 0.116109 0.254637 0.0482049 0.0153658 0 172 104 64 255 
0.185671 0.021455 -0.304047 0 0.0183475 -0.0351488 180 113 69 255 
-0.185669 0.021455 -0.304047 0 0.0183475 -0.0351488 180 113 69 255 
-0.155497 0.116109 -0.254638 0 0.0183475 -0.0351488 180 113 69 255 
0.185671 0.021455 -0.304047 0 0.015366 -0.029437 180 113 69 255 
-0.155497 0.116109 -0.254638 0 0.015366 -0.029437 180 113 69 255 
0.155499 0.116109 -0.254638 0 0.015366 -0.029437 180 113 69 255 
-0.185669 0.021455 -0.304047 -0.0575586 0.0183474 0 172 104 64 255 
-0.185669 0.021455 0.304048 -0.0575586 0.0183474 0 172 104 64 255 
-0.155497 0.116109 0.254637 -0.0575586 0.0183474 0 172 104 64 255 
-0.185669 0.021455 -0.304047 -0.0482049 0.0153658 0 172 104 64 255 
-0.155497 0.116109 0.254637 -0.0482049 0.0153658 0 172 104 64 255 
-0.155497 0.116109 -0.254638 -0.0482049 0.0153658 0 172 104 64 255 
-0.185669 -0.021455 -0.304047 0 -0.0183475 -0.0351488 164 97 61 255 
0.185671 -0.021455 -0.304047 0 -0.0183475 -0.0351488 164 97 61 255 
0.155499 -0.116109 -0.254638 0 -0.0183475 -0.0351488 164 97 61 255 
-0.185669 -0.021455 -0.304047 0 -0.015366 -0.029437 164 97 61 255 
0.155499 -0.116109 -0.254638 0 -0.015366 -0.029437 164 97 61 255 
-0.155497 -0.116109 -0.254638 0 -0.015366 -0.029437 164 97 61 255 
0.185671 -0.021455 -0.304047 0.0575586 -0.0183474 0 152 89 54 255 
0.185671 -0.021455 0.304048 0.0575586 -0.0183474 0 152 89 54 255 
0.155499 -0.116109 0.254637 0.0575586 -0.0183474 0 152 89 54 255 
0.185671 -0.021455 -0.304047 0.0482049 -0.0153658 0 152 89 54 255 
0.155499 -0.116109 0.254637 0.0482049 -0.0153658 0 152 89 54 255 
0.155499 -0.116109 -0.254638 0.0482049 -0.0153658 0 152 89 54 255 
0.185671 -0.021455 0.304048 0 -0.0183483 0.0351488 164 97 61 255 
-0.185669 -0.021455 0.304048 0 -0.0183483 0.0351488 164 97 61 255 
-0.155497 -0.116109 0.254637 0 -0.0183483 0.0351488 164 97 61 255 
0.185671 -0.021455 0.304048 0 -0.0153666 0.029437 164 97 61 255 
-0.155497 -0.116109 0.254637 0 -0.0153666 0.029437 164 97 61 255 
0.155499 -0.116109 0.254637 0 -0.0153666 0.029437 164 97 61 255 
-0.185669 -0.021455 0.304048 -0.0575586 -0.0183474 -0 152 89 54 255 
-0.185669 -0.021455 -0.304047 -0.0575586 -0.0183474 -0 152 89 54 255 
-0.155497 -0.116109 -0.254638 -0.0575586 -0.0183474 -0 152 89 54 255 
-0.185669 -0.021455 0.304048 -0.0482049 -0.0153658 0 152 89 54 255 
-0.155497 -0.116109 -0.254638 -0.0482049 -0.0153658 0 152 89 54 255 
-0.155497 -0.116109 0.254637 -0.0482049 -0.0153658 0 152 89 54 255 
-0.155497 0.116109 0.254637 -0 0.03314 0 186 119 72 255 
0.155499 0.116109 0.254637 -0 0.03314 0 186 119 72 255 
0.097952 0.116109 0.148076 -0 0.03314 0 186 119 72 255 
-0.155497 0.116109 0.254637 0 0.0208755 0 186 119 72 255 
0.097952 0.116109 0.148076 0 0.0208755 0 186 119 72 255 
-0.09795 0.116109 0.148076 0 0.0208755 0 186 119 72 255 
0.155499 0.116109 0.254637 0 0.0293072 0 186 119 72 255 
0.155499 0.116109 -0.254638 0 0.0293072 0 186 119 72 255 
0.097952 0.116109 -0.185645 0 0.0293072 0 186 119 72 255 
0.155499 0.116109 0.254637 0 0.0192046 0 186 119 72 255 
0.097952 0.116109 -0.185645 0 0.0192046 0 186 119 72 255 
0.097952 0.116109 0.148076 0 0.0192046 0 186 119 72 255 
0.155499 0.116109 -0.254638 0 0.0214565 0 186 119 72 255 
-0.155497 0.116109 -0.254638 0 0.0214565 0 186 119 72 255 
-0.09795 0.116109 -0.185645 0 0.0214565 0 186 119 72 255 
0.155499 0.116109 -0.254638 0 0.0135159 0 186 119 72 255 
-0.09795 0.116109 -0.185645 0 0.0135159 0 186 119 72 255 
0.097952 0.116109 -0.185645 0 0.0135159 0 186 119 72 255 
-0.155497 0.116109 -0.254638 0 0.0293072 0 186 119 72 255 
-0.155497 0.116109 0.254637 0 0.0293072 0 186 119 72 255 
-0.09795 0.116109 0.148076 0 0.0293072 0 186 119 72 255 
-0.155497 0.116109 -0.254638 0 0.0192046 0 186 119 72 255 
-0.09795 0.116109 0.148076 0 0.0192046 0 186 119 72 255 
-0.09795 0.116109 -0.185645 0 0.0192046 0 186 119 72 255 
3 0 1 2
3 3 4 5
3 6 7 8
3 9 10 11
3 12 13 14
3 15 16 17
3 18 19 20
3 21 22 23
3 24 25 26
3 27 28 29
3 30 31 32
3 33 34 35
3 36 37 38
3 39 40 41
3 42 43 44
3 45 46 47
3 48 49 50
3 51 52 53
3 54 55 56
3 57 58 59
3 60 61 62
3 63 64 65
3 66 67 68
3 69 70 71
3 72 73 74
3 75 76 77
3 78 79 80
3 81 82 83
3 84 85 86
3 87 88 89
3 90 91 92
3 93 94 95
3 96 97 98
3 99 100 101
3 102 103 104
3 105 106 107
3 108 109 110
3 111 112 113
3 114 115 116
3 117 118 119
3 120 121 122
3 123 124 125
3 126 127 128
3 129 130 131
3 132 133 134
3 135 136 137
3 138 139 140
3 141 142 143
3 144 145 146
3 147 148 149
3 150 151 152
3 153 154 155
