ply
format ascii 1.0
comment Feeney's Flatenator generated
comment TextureFile SpaceInteriors_Texture.png
element vertex 180
property float x
property float y
property float z
property float nx
property float ny
property float nz
property float texture_u
property float texture_v
element face 60
property list uchar int vertex_indices
end_header
-0.213439 0 0.141651 0 0 0.107826 0.356218 0.478454 
0.06986 0 0.141651 0 0 0.107826 0.356218 0.478454 
0.06986 0.38061 0.141651 0 0 0.107826 0.356218 0.478454 
-0.213439 0 0.141651 0 0 0.107826 0.356218 0.478454 
0.06986 0.38061 0.141651 0 0 0.107826 0.356218 0.478454 
-0.213439 0.38061 0.141651 0 0 0.107826 0.356218 0.478454 
-0.161107 0.338773 0.089318 -0 0.0319106 0 0.261872 0.397032 
0.017528 0.338773 0.089318 -0 0.0319106 0 0.261872 0.397032 
0.017528 0.338773 -0.089318 -0 0.0319106 0 0.261872 0.397032 
-0.161107 0.338773 0.089318 0 0.0319106 0 0.261872 0.397032 
0.017528 0.338773 -0.089318 0 0.0319106 0 0.261872 0.397032 
-0.161107 0.338773 -0.089318 0 0.0319106 0 0.261872 0.397032 
-0.213439 0.38061 -0.141651 0 0 -0.107826 0.356218 0.478454 
0.06986 0.38061 -0.141651 0 0 -0.107826 0.356218 0.478454 
0.06986 0 -0.141651 0 0 -0.107826 0.356218 0.478454 
-0.213439 0.38061 -0.141651 0 0 -0.107826 0.356218 0.478454 
0.06986 0 -0.141651 0 0 -0.107826 0.356218 0.478454 
-0.213439 0 -0.141651 0 0 -0.107826 0.356218 0.478454 
-0.213439 0 -0.141651 0 -0.0802592 0 0.320677 0.4791 
0.06986 0 -0.141651 0 -0.0802592 0 0.320677 0.4791 
0.06986 0 0.141651 0 -0.0802592 0 0.320677 0.4791 
-0.213439 0 -0.141651 0 -0.0802592 0 0.320677 0.4791 
0.06986 0 0.141651 0 -0.0802592 0 0.320677 0.4791 
-0.213439 0 0.141651 0 -0.0802592 0 0.320677 0.4791 
0.213439 0.084946 0.043583 0.0183674 0 0 0.326493 0.477807 
0.213439 0.084946 -0.043583 0.0183674 0 0 0.326493 0.477807 
0.213439 0.295663 -0.043583 0.0183674 0 0 0.326493 0.477807 
0.213439 0.084946 0.043583 0.0183674 -0 0 0.326493 0.477807 
0.213439 0.295663 -0.043583 0.0183674 -0 0 0.326493 0.477807 
0.213439 0.295663 0.043583 0.0183674 -0 0 0.326493 0.477807 
-0.213439 0 -0.141651 -0.107828 0 0 0.326493 0.477807 
-0.213439 0 0.141651 -0.107828 0 0 0.326493 0.477807 
-0.213439 0.38061 0.141651 -0.107828 0 0 0.326493 0.477807 
-0.213439 0 -0.141651 -0.107828 0 0 0.326493 0.477807 
-0.213439 0.38061 0.141651 -0.107828 0 0 0.326493 0.477807 
-0.213439 0.38061 -0.141651 -0.107828 0 0 0.326493 0.477807 
-0.213439 0.38061 0.141651 -0 0.0148259 0 0.387882 0.479746 
0.06986 0.38061 0.141651 -0 0.0148259 0 0.387882 0.479746 
0.017528 0.38061 0.089318 -0 0.0148259 0 0.387882 0.479746 
-0.213439 0.38061 0.141651 0 0.00934851 0 0.387882 0.479746 
0.017528 0.38061 0.089318 0 0.00934851 0 0.387882 0.479746 
-0.161107 0.38061 0.089318 0 0.00934851 0 0.387882 0.479746 
0.06986 0.38061 0.141651 0 0.0148258 0 0.387882 0.479746 
0.06986 0.38061 -0.141651 0 0.0148258 0 0.387882 0.479746 
0.017528 0.38061 -0.089318 0 0.0148258 0 0.387882 0.479746 
0.06986 0.38061 0.141651 0 0.00934838 0 0.387882 0.479746 
0.017528 0.38061 -0.089318 0 0.00934838 0 0.387882 0.479746 
0.017528 0.38061 0.089318 0 0.00934838 0 0.387882 0.479746 
0.06986 0.38061 -0.141651 0 0.0148259 0 0.387882 0.479746 
-0.213439 0.38061 -0.141651 0 0.0148259 0 0.387882 0.479746 
-0.161107 0.38061 -0.089318 0 0.0148259 0 0.387882 0.479746 
0.06986 0.38061 -0.141651 0 0.00934851 0 0.387882 0.479746 
-0.161107 0.38061 -0.089318 0 0.00934851 0 0.387882 0.479746 
0.017528 0.38061 -0.089318 0 0.00934851 0 0.387882 0.479746 
-0.213439 0.38061 -0.141651 0 0.0148258 0 0.387882 0.479746 
-0.213439 0.38061 0.141651 0 0.0148258 0 0.387882 0.479746 
-0.161107 0.38061 0.089318 0 0.0148258 0 0.387882 0.479746 
-0.213439 0.38061 -0.141651 0 0.00934838 0 0.387882 0.479746 
-0.161107 0.38061 0.089318 0 0.00934838 0 0.387882 0.479746 
-0.161107 0.38061 -0.089318 0 0.00934838 0 0.387882 0.479746 
-0.161107 0.38061 0.089318 0 0 -0.00747355 0.356218 0.478454 
0.017528 0.38061 0.089318 0 0 -0.00747355 0.356218 0.478454 
0.017528 0.338773 0.089318 0 0 -0.00747355 0.356218 0.478454 
-0.161107 0.38061 0.089318 0 0 -0.00747355 0.356218 0.478454 
0.017528 0.338773 0.089318 0 0 -0.00747355 0.356218 0.478454 
-0.161107 0.338773 0.089318 0 0 -0.00747355 0.356218 0.478454 
0.017528 0.38061 0.089318 -0.00747359 0 -0 0.356218 0.478454 
0.017528 0.38061 -0.089318 -0.00747359 0 -0 0.356218 0.478454 
0.017528 0.338773 -0.089318 -0.00747359 0 -0 0.356218 0.478454 
0.017528 0.38061 0.089318 -0.00747359 -0 0 0.356218 0.478454 
0.017528 0.338773 -0.089318 -0.00747359 -0 0 0.356218 0.478454 
0.017528 0.338773 0.089318 -0.00747359 -0 0 0.356218 0.478454 
0.017528 0.38061 -0.089318 0 0 0.00747355 0.356218 0.478454 
-0.161107 0.38061 -0.089318 0 0 0.00747355 0.356218 0.478454 
-0.161107 0.338773 -0.089318 0 0 0.00747355 0.356218 0.478454 
0.017528 0.38061 -0.089318 0 0 0.00747355 0.356218 0.478454 
-0.161107 0.338773 -0.089318 0 0 0.00747355 0.356218 0.478454 
0.017528 0.338773 -0.089318 0 0 0.00747355 0.356218 0.478454 
-0.161107 0.38061 -0.089318 0.00747359 0 -0 0.356218 0.478454 
-0.161107 0.38061 0.089318 0.00747359 0 -0 0.356218 0.478454 
-0.161107 0.338773 0.089318 0.00747359 0 -0 0.356218 0.478454 
-0.161107 0.38061 -0.089318 0.00747359 0 0 0.356218 0.478454 
-0.161107 0.338773 0.089318 0.00747359 0 0 0.356218 0.478454 
-0.161107 0.338773 -0.089318 0.00747359 0 0 0.356218 0.478454 
0.06986 0 0.141651 0.0240654 0 0 0.326493 0.477807 
0.06986 0 -0.141651 0.0240654 0 0 0.326493 0.477807 
0.06986 0.084946 -0.043583 0.0240654 0 0 0.326493 0.477807 
0.06986 0 0.141651 0.0074044 0 0 0.326493 0.477807 
0.06986 0.084946 -0.043583 0.0074044 0 0 0.326493 0.477807 
0.06986 0.084946 0.043583 0.0074044 0 0 0.326493 0.477807 
0.06986 0 -0.141651 0.0373257 0 0 0.326493 0.477807 
0.06986 0.38061 -0.141651 0.0373257 0 0 0.326493 0.477807 
0.06986 0.295663 -0.043583 0.0373257 0 0 0.326493 0.477807 
0.06986 0 -0.141651 0.0206646 0 0 0.326493 0.477807 
0.06986 0.295663 -0.043583 0.0206646 0 0 0.326493 0.477807 
0.06986 0.084946 -0.043583 0.0206646 0 0 0.326493 0.477807 
0.06986 0.38061 -0.141651 0.0240657 0 -0 0.326493 0.477807 
0.06986 0.38061 0.141651 0.0240657 0 -0 0.326493 0.477807 
0.06986 0.295663 0.043583 0.0240657 0 -0 0.326493 0.477807 
0.06986 0.38061 -0.141651 0.00740449 0 0 0.326493 0.477807 
0.06986 0.295663 0.043583 0.00740449 0 0 0.326493 0.477807 
0.06986 0.295663 -0.043583 0.00740449 0 0 0.326493 0.477807 
0.06986 0.38061 0.141651 0.0373257 0 0 0.326493 0.477807 
0.06986 0 0.141651 0.0373257 0 0 0.326493 0.477807 
0.06986 0.084946 0.043583 0.0373257 0 0 0.326493 0.477807 
0.06986 0.38061 0.141651 0.0206646 0 0 0.326493 0.477807 
0.06986 0.084946 0.043583 0.0206646 0 0 0.326493 0.477807 
0.06986 0.295663 0.043583 0.0206646 0 0 0.326493 0.477807 
0.06986 0.084946 0.043583 0 -0.0125152 0 0.320677 0.4791 
0.06986 0.084946 -0.043583 0 -0.0125152 0 0.320677 0.4791 
0.213439 0.084946 -0.043583 0 -0.0125152 0 0.320677 0.4791 
0.06986 0.084946 0.043583 0 -0.0125152 0 0.320677 0.4791 
0.213439 0.084946 -0.043583 0 -0.0125152 0 0.320677 0.4791 
0.213439 0.084946 0.043583 0 -0.0125152 0 0.320677 0.4791 
0.100297 0.129615 -0.043583 0 0 -0.0100389 0.258641 0.479746 
0.100297 0.250995 -0.043583 0 0 -0.0100389 0.258641 0.479746 
0.183003 0.250995 -0.043583 0 0 -0.0100389 0.258641 0.479746 
0.100297 0.129615 -0.043583 0 0 -0.0100389 0.258641 0.479746 
0.183003 0.250995 -0.043583 0 0 -0.0100389 0.258641 0.479746 
0.183003 0.129615 -0.043583 0 0 -0.0100389 0.258641 0.479746 
0.06986 0.295663 -0.043583 0 0.0125152 0 0.396283 0.475223 
0.06986 0.295663 0.043583 0 0.0125152 0 0.396283 0.475223 
0.213439 0.295663 0.043583 0 0.0125152 0 0.396283 0.475223 
0.06986 0.295663 -0.043583 0 0.0125152 0 0.396283 0.475223 
0.213439 0.295663 0.043583 0 0.0125152 0 0.396283 0.475223 
0.213439 0.295663 -0.043583 0 0.0125152 0 0.396283 0.475223 
0.100297 0.250995 0.043583 0 0 0.0100389 0.258641 0.479746 
0.100297 0.129615 0.043583 0 0 0.0100389 0.258641 0.479746 
0.183003 0.129615 0.043583 0 0 0.0100389 0.258641 0.479746 
0.100297 0.250995 0.043583 -0 0 0.0100389 0.258641 0.479746 
0.183003 0.129615 0.043583 -0 0 0.0100389 0.258641 0.479746 
0.183003 0.250995 0.043583 -0 0 0.0100389 0.258641 0.479746 
0.06986 0.084946 -0.043583 0 0 -0.00641359 0.356218 0.478454 
0.06986 0.295663 -0.043583 0 0 -0.00641359 0.356218 0.478454 
0.100297 0.250995 -0.043583 0 0 -0.00641359 0.356218 0.478454 
0.06986 0.084946 -0.043583 0 0 -0.00369444 0.356218 0.478454 
0.100297 0.250995 -0.043583 0 0 -0.00369444 0.356218 0.478454 
0.100297 0.129615 -0.043583 0 0 -0.00369444 0.356218 0.478454 
0.06986 0.295663 -0.043583 0 0 -0.00641339 0.356218 0.478454 
0.213439 0.295663 -0.043583 0 0 -0.00641339 0.356218 0.478454 
0.183003 0.250995 -0.043583 0 0 -0.00641339 0.356218 0.478454 
0.06986 0.295663 -0.043583 0 0 -0.00369431 0.356218 0.478454 
0.183003 0.250995 -0.043583 0 0 -0.00369431 0.356218 0.478454 
0.100297 0.250995 -0.043583 0 0 -0.00369431 0.356218 0.478454 
0.213439 0.295663 -0.043583 0 -0 -0.00641338 0.356218 0.478454 
0.213439 0.084946 -0.043583 0 -0 -0.00641338 0.356218 0.478454 
0.183003 0.129615 -0.043583 0 -0 -0.00641338 0.356218 0.478454 
0.213439 0.295663 -0.043583 0 0 -0.00369432 0.356218 0.478454 
0.183003 0.129615 -0.043583 0 0 -0.00369432 0.356218 0.478454 
0.183003 0.250995 -0.043583 0 0 -0.00369432 0.356218 0.478454 
0.213439 0.084946 -0.043583 0 0 -0.00641353 0.356218 0.478454 
0.06986 0.084946 -0.043583 0 0 -0.00641353 0.356218 0.478454 
0.100297 0.129615 -0.043583 0 0 -0.00641353 0.356218 0.478454 
0.213439 0.084946 -0.043583 0 0 -0.00369439 0.356218 0.478454 
0.100297 0.129615 -0.043583 0 0 -0.00369439 0.356218 0.478454 
0.183003 0.129615 -0.043583 0 0 -0.00369439 0.356218 0.478454 
0.06986 0.295663 0.043583 0 0 0.00641359 0.356218 0.478454 
0.06986 0.084946 0.043583 0 0 0.00641359 0.356218 0.478454 
0.100297 0.129615 0.043583 0 0 0.00641359 0.356218 0.478454 
0.06986 0.295663 0.043583 0 0 0.00369444 0.356218 0.478454 
0.100297 0.129615 0.043583 0 0 0.00369444 0.356218 0.478454 
0.100297 0.250995 0.043583 0 0 0.00369444 0.356218 0.478454 
0.06986 0.084946 0.043583 0 0 0.00641353 0.356218 0.478454 
0.213439 0.084946 0.043583 0 0 0.00641353 0.356218 0.478454 
0.183003 0.129615 0.043583 0 0 0.00641353 0.356218 0.478454 
0.06986 0.084946 0.043583 0 0 0.00369439 0.356218 0.478454 
0.183003 0.129615 0.043583 0 0 0.00369439 0.356218 0.478454 
0.100297 0.129615 0.043583 0 0 0.00369439 0.356218 0.478454 
0.213439 0.084946 0.043583 0 -0 0.00641338 0.356218 0.478454 
0.213439 0.295663 0.043583 0 -0 0.00641338 0.356218 0.478454 
0.183003 0.250995 0.043583 0 -0 0.00641338 0.356218 0.478454 
0.213439 0.084946 0.043583 0 0 0.00369432 0.356218 0.478454 
0.183003 0.250995 0.043583 0 0 0.00369432 0.356218 0.478454 
0.183003 0.129615 0.043583 0 0 0.00369432 0.356218 0.478454 
0.213439 0.295663 0.043583 0 0 0.00641339 0.356218 0.478454 
0.06986 0.295663 0.043583 0 0 0.00641339 0.356218 0.478454 
0.100297 0.250995 0.043583 0 0 0.00641339 0.356218 0.478454 
0.213439 0.295663 0.043583 0 0 0.00369431 0.356218 0.478454 
0.100297 0.250995 0.043583 0 0 0.00369431 0.356218 0.478454 
0.183003 0.250995 0.043583 0 0 0.00369431 0.356218 0.478454 
3 0 1 2
3 3 4 5
3 6 7 8
3 9 10 11
3 12 13 14
3 15 16 17
3 18 19 20
3 21 22 23
3 24 25 26
3 27 28 29
3 30 31 32
3 33 34 35
3 36 37 38
3 39 40 41
3 42 43 44
3 45 46 47
3 48 49 50
3 51 52 53
3 54 55 56
3 57 58 59
3 60 61 62
3 63 64 65
3 66 67 68
3 69 70 71
3 72 73 74
3 75 76 77
3 78 79 80
3 81 82 83
3 84 85 86
3 87 88 89
3 90 91 92
3 93 94 95
3 96 97 98
3 99 100 101
3 102 103 104
3 105 106 107
3 108 109 110
3 111 112 113
3 114 115 116
3 117 118 119
3 120 121 122
3 123 124 125
3 126 127 128
3 129 130 131
3 132 133 134
3 135 136 137
3 138 139 140
3 141 142 143
3 144 145 146
3 147 148 149
3 150 151 152
3 153 154 155
3 156 157 158
3 159 160 161
3 162 163 164
3 165 166 167
3 168 169 170
3 171 172 173
3 174 175 176
3 177 178 179
