ply
format ascii 1.0
comment Feeney's Flatenator generated
comment TextureFile SpaceInteriors_Texture.png
element vertex 186
property float x
property float y
property float z
property float nx
property float ny
property float nz
property float texture_u
property float texture_v
element face 62
property list uchar int vertex_indices
end_header
-0.048965 0.125269 -0.433732 -0 0.0206611 0 0.426154 0.471828 
0.048964 0.125269 -0.433732 -0 0.0206611 0 0.426154 0.471828 
0.048964 0.125269 -0.644712 -0 0.0206611 0 0.426154 0.471828 
-0.048965 0.125269 -0.433732 0 0.0206611 0 0.426154 0.471828 
0.048964 0.125269 -0.644712 0 0.0206611 0 0.426154 0.471828 
-0.048965 0.125269 -0.644712 0 0.0206611 0 0.426154 0.471828 
-0.048965 0.125269 -0.644712 0 0 -0.00959019 0.391288 0.471828 
0.048964 0.125269 -0.644712 0 0 -0.00959019 0.391288 0.471828 
0.048964 0.027339 -0.644712 0 0 -0.00959019 0.391288 0.471828 
-0.048965 0.125269 -0.644712 0 0 -0.00959019 0.391288 0.471828 
0.048964 0.027339 -0.644712 0 0 -0.00959019 0.391288 0.471828 
-0.048965 0.027339 -0.644712 0 0 -0.00959019 0.391288 0.471828 
-0.048965 0.027339 -0.644712 0 -0.0206611 0 0.326269 0.471828 
0.048964 0.027339 -0.644712 0 -0.0206611 0 0.326269 0.471828 
0.048964 0.027339 -0.433732 0 -0.0206611 0 0.326269 0.471828 
-0.048965 0.027339 -0.644712 0 -0.0206611 0 0.326269 0.471828 
0.048964 0.027339 -0.433732 0 -0.0206611 0 0.326269 0.471828 
-0.048965 0.027339 -0.433732 0 -0.0206611 0 0.326269 0.471828 
0.048964 0.027339 -0.433732 0.0206613 0 0 0.35925 0.471828 
0.048964 0.027339 -0.644712 0.0206613 0 0 0.359249 0.471828 
0.048964 0.125269 -0.644712 0.0206613 0 0 0.359249 0.471828 
0.048964 0.027339 -0.433732 0.0206613 -0 0 0.35925 0.471828 
0.048964 0.125269 -0.644712 0.0206613 -0 0 0.359249 0.471828 
0.048964 0.125269 -0.433732 0.0206613 -0 0 0.35925 0.471828 
-0.048965 0.027339 -0.644712 -0.0206613 0 0 0.35925 0.471828 
-0.048965 0.027339 -0.433732 -0.0206613 0 0 0.35925 0.471828 
-0.048965 0.125269 -0.433732 -0.0206613 0 0 0.35925 0.471828 
-0.048965 0.027339 -0.644712 -0.0206613 0 0 0.35925 0.471828 
-0.048965 0.125269 -0.433732 -0.0206613 0 0 0.35925 0.471828 
-0.048965 0.125269 -0.644712 -0.0206613 0 0 0.35925 0.471828 
-0.298956 0.061107 0.644711 0 0 0.0138734 0.421836 0.060665 
0.298956 0.061107 0.644711 0 0 0.0138734 0.421836 0.060665 
0.298956 0.08431 0.644711 0 0 0.0138734 0.421836 0.060665 
-0.298956 0.061107 0.644711 0 0 0.0138734 0.421836 0.060665 
0.298956 0.08431 0.644711 0 0 0.0138734 0.421836 0.060665 
-0.298956 0.08431 0.644711 0 0 0.0138734 0.421836 0.060665 
0.015636 0.135495 0.052267 -0 0.0597578 0 0.42446 0.480927 
0.17011 0.135495 0.052267 -0 0.0597578 0 0.42446 0.480927 
0.17011 0.135495 -0.33458 -0 0.0597578 0 0.42446 0.480927 
0.015636 0.135495 0.052267 0 0.0597578 0 0.42446 0.480927 
0.17011 0.135495 -0.33458 0 0.0597578 0 0.42446 0.480927 
0.015636 0.135495 -0.33458 0 0.0597578 0 0.42446 0.480927 
-0.298956 0.08431 -0.520408 0 0 -0.0138734 0.421836 0.060665 
0.298956 0.08431 -0.520408 0 0 -0.0138734 0.421836 0.060665 
0.298956 0.061107 -0.520408 0 0 -0.0138734 0.421836 0.060665 
-0.298956 0.08431 -0.520408 0 0 -0.0138734 0.421836 0.060665 
0.298956 0.061107 -0.520408 0 0 -0.0138734 0.421836 0.060665 
-0.298956 0.061107 -0.520408 0 0 -0.0138734 0.421836 0.060665 
-0.208529 0.009922 -0.428232 0 -0.409036 0 0.303131 0.060665 
0.208529 0.009922 -0.428232 0 -0.409036 0 0.303131 0.060665 
0.208529 0.009922 0.552534 0 -0.409036 0 0.303131 0.060665 
-0.208529 0.009922 -0.428232 0 -0.409036 0 0.303131 0.060665 
0.208529 0.009922 0.552534 0 -0.409036 0 0.303131 0.060665 
-0.208529 0.009922 0.552534 0 -0.409036 0 0.303131 0.060665 
0.298956 0.061107 0.644711 0.0270343 0 0 0.389798 0.060665 
0.298956 0.061107 -0.520408 0.0270343 0 0 0.389798 0.060665 
0.298956 0.08431 -0.520408 0.0270343 0 0 0.389798 0.060665 
0.298956 0.061107 0.644711 0.0270343 -0 0 0.389798 0.060665 
0.298956 0.08431 -0.520408 0.0270343 -0 0 0.389798 0.060665 
0.298956 0.08431 0.644711 0.0270343 -0 0 0.389798 0.060665 
-0.298956 0.061107 -0.520408 -0.0270343 0 0 0.389798 0.060665 
-0.298956 0.061107 0.644711 -0.0270343 0 0 0.389798 0.060665 
-0.298956 0.08431 0.644711 -0.0270343 0 0 0.389798 0.060665 
-0.298956 0.061107 -0.520408 -0.0270343 0 0 0.389798 0.060665 
-0.298956 0.08431 0.644711 -0.0270343 0 0 0.389798 0.060665 
-0.298956 0.08431 -0.520408 -0.0270343 0 0 0.389798 0.060665 
-0.298956 0.08431 0.644711 -0 0.0304511 0 0.456702 0.060665 
0.298956 0.08431 0.644711 -0 0.0304511 0 0.456702 0.060665 
0.248993 0.08431 0.593782 -0 0.0304511 0 0.456702 0.060665 
-0.298956 0.08431 0.644711 0 0.0253619 0 0.456702 0.060665 
0.248993 0.08431 0.593782 0 0.0253619 0 0.456702 0.060665 
-0.248992 0.08431 0.593782 0 0.0253619 0 0.456702 0.060665 
0.298956 0.08431 0.644711 0 0.0582129 0 0.456702 0.060665 
0.298956 0.08431 -0.520408 0 0.0582129 0 0.456702 0.060665 
0.248993 0.08431 -0.469478 0 0.0582129 0 0.456702 0.060665 
0.298956 0.08431 0.644711 0 0.0531237 0 0.456702 0.060665 
0.248993 0.08431 -0.469478 0 0.0531237 0 0.456702 0.060665 
0.248993 0.08431 0.593782 0 0.0531237 0 0.456702 0.060665 
0.298956 0.08431 -0.520408 0 0.0304516 0 0.456702 0.060665 
-0.298956 0.08431 -0.520408 0 0.0304516 0 0.456702 0.060665 
-0.248992 0.08431 -0.469478 0 0.0304516 0 0.456702 0.060665 
0.298956 0.08431 -0.520408 0 0.0253624 0 0.456702 0.060665 
-0.248992 0.08431 -0.469478 0 0.0253624 0 0.456702 0.060665 
0.248993 0.08431 -0.469478 0 0.0253624 0 0.456702 0.060665 
-0.298956 0.08431 -0.520408 0 0.058214 0 0.456702 0.060665 
-0.298956 0.08431 0.644711 0 0.058214 0 0.456702 0.060665 
-0.248992 0.08431 0.593782 0 0.058214 0 0.456702 0.060665 
-0.298956 0.08431 -0.520408 0 0.0531247 0 0.456702 0.060665 
-0.248992 0.08431 0.593782 0 0.0531247 0 0.456702 0.060665 
-0.248992 0.08431 -0.469478 0 0.0531247 0 0.456702 0.060665 
-0.298956 0.061107 -0.520408 0 -0.0304516 0 0.356817 0.060665 
0.298956 0.061107 -0.520408 0 -0.0304516 0 0.356817 0.060665 
0.248993 0.061107 -0.469478 0 -0.0304516 0 0.356817 0.060665 
-0.298956 0.061107 -0.520408 0 -0.0253624 0 0.356817 0.060665 
0.248993 0.061107 -0.469478 0 -0.0253624 0 0.356817 0.060665 
-0.248992 0.061107 -0.469478 0 -0.0253624 0 0.356817 0.060665 
0.298956 0.061107 -0.520408 0 -0.0582129 0 0.356817 0.060665 
0.298956 0.061107 0.644711 0 -0.0582129 0 0.356817 0.060665 
0.248993 0.061107 0.593782 0 -0.0582129 0 0.356817 0.060665 
0.298956 0.061107 -0.520408 0 -0.0531237 0 0.356817 0.060665 
0.248993 0.061107 0.593782 0 -0.0531237 0 0.356817 0.060665 
0.248993 0.061107 -0.469478 0 -0.0531237 0 0.356817 0.060665 
0.298956 0.061107 0.644711 -0 -0.0304511 0 0.356817 0.060665 
-0.298956 0.061107 0.644711 -0 -0.0304511 0 0.356817 0.060665 
-0.248992 0.061107 0.593782 -0 -0.0304511 0 0.356817 0.060665 
0.298956 0.061107 0.644711 0 -0.0253619 0 0.356817 0.060665 
-0.248992 0.061107 0.593782 0 -0.0253619 0 0.356817 0.060665 
0.248993 0.061107 0.593782 0 -0.0253619 0 0.356817 0.060665 
-0.298956 0.061107 0.644711 0 -0.058214 0 0.356817 0.060665 
-0.298956 0.061107 -0.520408 0 -0.058214 0 0.356817 0.060665 
-0.248992 0.061107 -0.469478 0 -0.058214 0 0.356817 0.060665 
-0.298956 0.061107 0.644711 0 -0.0531247 0 0.356817 0.060665 
-0.248992 0.061107 -0.469478 0 -0.0531247 0 0.356817 0.060665 
-0.248992 0.061107 0.593782 0 -0.0531247 0 0.356817 0.060665 
-0.248992 0.08431 0.593782 -0 0.0205409 0.0254894 0.41603 0.060555 
0.248993 0.08431 0.593782 -0 0.0205409 0.0254894 0.41603 0.060555 
0.208529 0.135495 0.552534 -0 0.0205409 0.0254894 0.41603 0.060555 
-0.248992 0.08431 0.593782 0 0.0172028 0.0213471 0.41603 0.060555 
0.208529 0.135495 0.552534 0 0.0172028 0.0213471 0.41603 0.060555 
-0.208529 0.135495 0.552534 0 0.0172028 0.0213471 0.41603 0.060555 
0.248993 0.08431 0.593782 0.054423 0.0430238 0 0.389432 0.060623 
0.248993 0.08431 -0.469478 0.054423 0.0430238 0 0.389432 0.060623 
0.208529 0.135495 -0.428232 0.054423 0.0430238 0 0.389432 0.060623 
0.248993 0.08431 0.593782 0.0502005 0.0396857 0 0.389432 0.060623 
0.208529 0.135495 -0.428232 0.0502005 0.0396857 0 0.389432 0.060623 
0.208529 0.135495 0.552534 0.0502005 0.0396857 0 0.389432 0.060623 
0.248993 0.08431 -0.469478 0 0.0205399 -0.0254894 0.41603 0.060555 
-0.248992 0.08431 -0.469478 0 0.0205399 -0.0254894 0.41603 0.060555 
-0.208529 0.135495 -0.428232 0 0.0205399 -0.0254894 0.41603 0.060555 
0.248993 0.08431 -0.469478 0 0.017202 -0.0213471 0.41603 0.060555 
-0.208529 0.135495 -0.428232 0 0.017202 -0.0213471 0.41603 0.060555 
0.208529 0.135495 -0.428232 0 0.017202 -0.0213471 0.41603 0.060555 
-0.248992 0.08431 -0.469478 -0.054423 0.0430227 0 0.389432 0.060623 
-0.248992 0.08431 0.593782 -0.054423 0.0430227 0 0.389432 0.060623 
-0.208529 0.135495 0.552534 -0.054423 0.0430227 0 0.389432 0.060623 
-0.248992 0.08431 -0.469478 -0.0502005 0.0396847 0 0.389432 0.060623 
-0.208529 0.135495 0.552534 -0.0502005 0.0396847 0 0.389432 0.060623 
-0.208529 0.135495 -0.428232 -0.0502005 0.0396847 0 0.389432 0.060623 
-0.248992 0.061107 -0.469478 0 -0.0205399 -0.0254894 0.362344 0.060555 
0.248993 0.061107 -0.469478 0 -0.0205399 -0.0254894 0.362344 0.060555 
0.208529 0.009922 -0.428232 0 -0.0205399 -0.0254894 0.362344 0.060555 
-0.248992 0.061107 -0.469478 0 -0.017202 -0.0213471 0.362344 0.060555 
0.208529 0.009922 -0.428232 0 -0.017202 -0.0213471 0.362344 0.060555 
-0.208529 0.009922 -0.428232 0 -0.017202 -0.0213471 0.362344 0.060555 
0.248993 0.061107 -0.469478 0.054423 -0.0430238 0 0.335746 0.060623 
0.248993 0.061107 0.593782 0.054423 -0.0430238 0 0.335746 0.060623 
0.208529 0.009922 0.552534 0.054423 -0.0430238 0 0.335746 0.060623 
0.248993 0.061107 -0.469478 0.0502005 -0.0396857 0 0.335746 0.060623 
0.208529 0.009922 0.552534 0.0502005 -0.0396857 0 0.335746 0.060623 
0.208529 0.009922 -0.428232 0.0502005 -0.0396857 0 0.335746 0.060623 
0.248993 0.061107 0.593782 0 -0.0205409 0.0254894 0.362344 0.060555 
-0.248992 0.061107 0.593782 0 -0.0205409 0.0254894 0.362344 0.060555 
-0.208529 0.009922 0.552534 0 -0.0205409 0.0254894 0.362344 0.060555 
0.248993 0.061107 0.593782 0 -0.0172028 0.0213471 0.362344 0.060555 
-0.208529 0.009922 0.552534 0 -0.0172028 0.0213471 0.362344 0.060555 
0.208529 0.009922 0.552534 0 -0.0172028 0.0213471 0.362344 0.060555 
-0.248992 0.061107 0.593782 -0.054423 -0.0430227 -0 0.335746 0.060623 
-0.248992 0.061107 -0.469478 -0.054423 -0.0430227 -0 0.335746 0.060623 
-0.208529 0.009922 -0.428232 -0.054423 -0.0430227 -0 0.335746 0.060623 
-0.248992 0.061107 0.593782 -0.0502005 -0.0396847 0 0.335746 0.060623 
-0.208529 0.009922 -0.428232 -0.0502005 -0.0396847 0 0.335746 0.060623 
-0.208529 0.009922 0.552534 -0.0502005 -0.0396847 0 0.335746 0.060623 
-0.208529 0.135495 0.552534 -0 0.20864 0 0.456702 0.060665 
0.208529 0.135495 0.552534 -0 0.20864 0 0.456702 0.060665 
0.17011 0.135495 0.052267 -0 0.20864 0 0.456702 0.060665 
-0.208529 0.135495 0.552534 0 0.0772782 0 0.456702 0.060665 
0.17011 0.135495 0.052267 0 0.0772782 0 0.456702 0.060665 
0.015636 0.135495 0.052267 0 0.0772782 0 0.456702 0.060665 
0.208529 0.135495 0.552534 0 0.03768 0 0.456702 0.060665 
0.208529 0.135495 -0.428232 0 0.03768 0 0.456702 0.060665 
0.17011 0.135495 -0.33458 0 0.03768 0 0.456702 0.060665 
0.208529 0.135495 0.552534 0 0.0148623 0 0.456702 0.060665 
0.17011 0.135495 -0.33458 0 0.0148623 0 0.456702 0.060665 
0.17011 0.135495 0.052267 0 0.0148623 0 0.456702 0.060665 
0.208529 0.135495 -0.428232 0 0.0390583 0 0.456702 0.060665 
-0.208529 0.135495 -0.428232 0 0.0390583 0 0.456702 0.060665 
0.015636 0.135495 -0.33458 0 0.0390583 0 0.456702 0.060665 
0.208529 0.135495 -0.428232 0 0.0144668 0 0.456702 0.060665 
0.015636 0.135495 -0.33458 0 0.0144668 0 0.456702 0.060665 
0.17011 0.135495 -0.33458 0 0.0144668 0 0.456702 0.060665 
-0.208529 0.135495 -0.428232 0 0.219853 0 0.456702 0.060665 
-0.208529 0.135495 0.552534 0 0.219853 0 0.456702 0.060665 
0.015636 0.135495 0.052267 0 0.219853 0 0.456702 0.060665 
-0.208529 0.135495 -0.428232 0 0.0867176 0 0.456702 0.060665 
0.015636 0.135495 0.052267 0 0.0867176 0 0.456702 0.060665 
0.015636 0.135495 -0.33458 0 0.0867176 0 0.456702 0.060665 
3 0 1 2
3 3 4 5
3 6 7 8
3 9 10 11
3 12 13 14
3 15 16 17
3 18 19 20
3 21 22 23
3 24 25 26
3 27 28 29
3 30 31 32
3 33 34 35
3 36 37 38
3 39 40 41
3 42 43 44
3 45 46 47
3 48 49 50
3 51 52 53
3 54 55 56
3 57 58 59
3 60 61 62
3 63 64 65
3 66 67 68
3 69 70 71
3 72 73 74
3 75 76 77
3 78 79 80
3 81 82 83
3 84 85 86
3 87 88 89
3 90 91 92
3 93 94 95
3 96 97 98
3 99 100 101
3 102 103 104
3 105 106 107
3 108 109 110
3 111 112 113
3 114 115 116
3 117 118 119
3 120 121 122
3 123 124 125
3 126 127 128
3 129 130 131
3 132 133 134
3 135 136 137
3 138 139 140
3 141 142 143
3 144 145 146
3 147 148 149
3 150 151 152
3 153 154 155
3 156 157 158
3 159 160 161
3 162 163 164
3 165 166 167
3 168 169 170
3 171 172 173
3 174 175 176
3 177 178 179
3 180 181 182
3 183 184 185
