ply
format ascii 1.0
comment Feeney's Flatenator generated
comment TextureFile SpaceInteriors_Texture.png
element vertex 390
property float x
property float y
property float z
property float nx
property float ny
property float nz
property uchar red
property uchar green
property uchar blue
property uchar alpha
element face 130
property list uchar int vertex_indices
end_header
-0.18952 0.398602 0.320273 0 0 0.0140757 108 105 102 255 
0.189521 0.398602 0.320273 0 0 0.0140757 108 105 102 255 
0.189521 0.435737 0.320273 0 0 0.0140757 108 105 102 255 
-0.18952 0.398602 0.320273 0 0 0.0140757 108 105 102 255 
0.189521 0.435737 0.320273 0 0 0.0140757 108 105 102 255 
-0.18952 0.435737 0.320273 0 0 0.0140757 108 105 102 255 
-0.044865 0.453508 -0.051576 -0 0.01609 0 125 121 118 255 
0.044865 0.453508 -0.051576 -0 0.01609 0 125 121 118 255 
0.044865 0.453508 -0.230892 -0 0.01609 0 125 121 118 255 
-0.044865 0.453508 -0.051576 0 0.01609 0 125 121 118 255 
0.044865 0.453508 -0.230892 0 0.01609 0 125 121 118 255 
-0.044865 0.453508 -0.230892 0 0.01609 0 125 121 118 255 
-0.044865 0.380831 -0.230892 0 -0.01609 0 75 72 70 255 
0.044865 0.380831 -0.230892 0 -0.01609 0 75 72 70 255 
0.044865 0.380831 -0.051576 0 -0.01609 0 75 72 70 255 
-0.044865 0.380831 -0.230892 0 -0.01609 0 75 72 70 255 
0.044865 0.380831 -0.051576 0 -0.01609 0 75 72 70 255 
-0.044865 0.380831 -0.051576 0 -0.01609 0 75 72 70 255 
0.044865 0.453508 -0.051576 0.0130321 0 0 91 88 86 255 
0.044865 0.380831 -0.051576 0.0130321 0 0 91 88 86 255 
0.044865 0.380831 -0.230892 0.0130321 0 0 91 88 86 255 
0.044865 0.453508 -0.051576 0.0130321 0 0 91 88 86 255 
0.044865 0.380831 -0.230892 0.0130321 0 0 91 88 86 255 
0.044865 0.453508 -0.230892 0.0130321 0 0 91 88 86 255 
-0.044865 0.380831 -0.230892 -0.0130321 0 0 91 88 86 255 
-0.044865 0.380831 -0.051576 -0.0130321 0 0 91 88 86 255 
-0.044865 0.453508 -0.051576 -0.0130321 0 0 91 88 86 255 
-0.044865 0.380831 -0.230892 -0.0130321 0 0 91 88 86 255 
-0.044865 0.453508 -0.051576 -0.0130321 0 0 91 88 86 255 
-0.044865 0.453508 -0.230892 -0.0130321 0 0 91 88 86 255 
-0.18952 0.435737 -0.079623 -0.0148501 0 0 91 88 86 255 
-0.18952 0.398602 -0.079623 -0.0148501 0 0 91 88 86 255 
-0.18952 0.398602 0.320273 -0.0148501 0 0 91 88 86 255 
-0.18952 0.435737 -0.079623 -0.0148501 0 0 91 88 86 255 
-0.18952 0.398602 0.320273 -0.0148501 0 0 91 88 86 255 
-0.18952 0.435737 0.320273 -0.0148501 0 0 91 88 86 255 
-0.18952 0.435737 0.320273 -0 0.151577 0 125 121 118 255 
0.189521 0.435737 0.320273 -0 0.151577 0 125 121 118 255 
0.189521 0.435737 -0.079623 -0 0.151577 0 125 121 118 255 
-0.18952 0.435737 0.320273 0 0.151577 0 125 121 118 255 
0.189521 0.435737 -0.079623 0 0.151577 0 125 121 118 255 
-0.18952 0.435737 -0.079623 0 0.151577 0 125 121 118 255 
0.189521 0.398602 0.320273 0.0148501 0 0 91 88 86 255 
0.189521 0.398602 -0.079623 0.0148501 0 0 91 88 86 255 
0.189521 0.435737 -0.079623 0.0148501 0 0 91 88 86 255 
0.189521 0.398602 0.320273 0.0148501 -0 0 91 88 86 255 
0.189521 0.435737 -0.079623 0.0148501 -0 0 91 88 86 255 
0.189521 0.435737 0.320273 0.0148501 -0 0 91 88 86 255 
-0.18952 0.398602 -0.079623 0 -0.151577 0 75 72 70 255 
0.189521 0.398602 -0.079623 0 -0.151577 0 75 72 70 255 
0.189521 0.398602 0.320273 0 -0.151577 0 75 72 70 255 
-0.18952 0.398602 -0.079623 0 -0.151577 0 75 72 70 255 
0.189521 0.398602 0.320273 0 -0.151577 0 75 72 70 255 
-0.18952 0.398602 0.320273 0 -0.151577 0 75 72 70 255 
-0.044865 0.453508 -0.051576 0 0 0.00652131 108 105 102 255 
-0.044865 0.380831 -0.051576 0 0 0.00652131 108 105 102 255 
0.044865 0.380831 -0.051576 0 0 0.00652131 108 105 102 255 
-0.044865 0.453508 -0.051576 -0 0 0.00652131 108 105 102 255 
0.044865 0.380831 -0.051576 -0 0 0.00652131 108 105 102 255 
0.044865 0.453508 -0.051576 -0 0 0.00652131 108 105 102 255 
-0.18952 0.435737 -0.079623 0 0 -0.0140757 108 105 102 255 
0.189521 0.435737 -0.079623 0 0 -0.0140757 108 105 102 255 
0.189521 0.398602 -0.079623 0 0 -0.0140757 108 105 102 255 
-0.18952 0.435737 -0.079623 0 0 -0.0140757 108 105 102 255 
0.189521 0.398602 -0.079623 0 0 -0.0140757 108 105 102 255 
-0.18952 0.398602 -0.079623 0 0 -0.0140757 108 105 102 255 
-0.219725 2.46816 -0.155581 -0 0.0435324 0 125 121 118 255 
0.219725 2.46816 -0.155581 -0 0.0435324 0 125 121 118 255 
0.219725 2.46816 -0.254642 -0 0.0435324 0 125 121 118 255 
-0.219725 2.46816 -0.155581 0 0.0435324 0 125 121 118 255 
0.219725 2.46816 -0.254642 0 0.0435324 0 125 121 118 255 
-0.219725 2.46816 -0.254642 0 0.0435324 0 125 121 118 255 
-0.214022 0.288536 -0.320272 0 -0.209819 -0.123506 75 72 70 255 
0.214022 0.288536 -0.320272 0 -0.209819 -0.123506 75 72 70 255 
0.214022 0 0.16991 0 -0.209819 -0.123506 75 72 70 255 
-0.214022 0.288536 -0.320272 0 -0.209819 -0.123506 75 72 70 255 
0.214022 0 0.16991 0 -0.209819 -0.123506 75 72 70 255 
-0.214022 0 0.16991 0 -0.209819 -0.123506 75 72 70 255 
0.219725 2.40008 -0.155581 0.00674407 0 0 91 88 86 255 
0.219725 2.40008 -0.254642 0.00674407 0 0 91 88 86 255 
0.219725 2.46816 -0.254642 0.00674407 0 0 91 88 86 255 
0.219725 2.40008 -0.155581 0.00674407 -0 0 91 88 86 255 
0.219725 2.46816 -0.254642 0.00674407 -0 0 91 88 86 255 
0.219725 2.46816 -0.155581 0.00674407 -0 0 91 88 86 255 
-0.219725 2.40008 -0.254642 -0.00674407 0 0 91 88 86 255 
-0.219725 2.40008 -0.155581 -0.00674407 0 0 91 88 86 255 
-0.219725 2.46816 -0.155581 -0.00674407 0 0 91 88 86 255 
-0.219725 2.40008 -0.254642 -0.00674407 0 0 91 88 86 255 
-0.219725 2.46816 -0.155581 -0.00674407 0 0 91 88 86 255 
-0.219725 2.46816 -0.254642 -0.00674407 0 0 91 88 86 255 
-0.049531 1.28656 -0.155581 0 0 0.110308 108 105 102 255 
0.049531 1.28656 -0.155581 0 0 0.110308 108 105 102 255 
0.049531 2.40008 -0.155581 0 0 0.110308 108 105 102 255 
-0.049531 1.28656 -0.155581 0 0 0.110308 108 105 102 255 
0.049531 2.40008 -0.155581 0 0 0.110308 108 105 102 255 
-0.049531 2.40008 -0.155581 0 0 0.110308 108 105 102 255 
0.219725 2.09747 -0.171634 0.00347831 0 0 91 88 86 255 
0.219725 2.09747 -0.238589 0.00347831 0 0 91 88 86 255 
0.219725 2.14942 -0.238589 0.00347831 0 0 91 88 86 255 
0.219725 2.09747 -0.171634 0.00347831 -0 0 91 88 86 255 
0.219725 2.14942 -0.238589 0.00347831 -0 0 91 88 86 255 
0.219725 2.14942 -0.171634 0.00347831 -0 0 91 88 86 255 
-0.049531 2.40008 -0.254642 0 0 -0.110308 108 105 102 255 
0.049531 2.40008 -0.254642 0 0 -0.110308 108 105 102 255 
0.049531 1.28656 -0.254642 0 0 -0.110308 108 105 102 255 
-0.049531 2.40008 -0.254642 0 0 -0.110308 108 105 102 255 
0.049531 1.28656 -0.254642 0 0 -0.110308 108 105 102 255 
-0.049531 1.28656 -0.254642 0 0 -0.110308 108 105 102 255 
-0.219725 2.09747 -0.238589 -0.00347831 0 0 91 88 86 255 
-0.219725 2.09747 -0.171634 -0.00347831 0 0 91 88 86 255 
-0.219725 2.14942 -0.171634 -0.00347831 0 0 91 88 86 255 
-0.219725 2.09747 -0.238589 -0.00347831 0 0 91 88 86 255 
-0.219725 2.14942 -0.171634 -0.00347831 0 0 91 88 86 255 
-0.219725 2.14942 -0.238589 -0.00347831 0 0 91 88 86 255 
-0.068229 1.23724 -0.136883 -0 0.00255149 0.00673012 125 121 118 255 
0.068229 1.23724 -0.136883 -0 0.00255149 0.00673012 125 121 118 255 
0.049531 1.28656 -0.155581 -0 0.00255149 0.00673012 125 121 118 255 
-0.068229 1.23724 -0.136883 0 0.00185226 0.00488575 125 121 118 255 
0.049531 1.28656 -0.155581 0 0.00185226 0.00488575 125 121 118 255 
-0.049531 1.28656 -0.155581 0 0.00185226 0.00488575 125 121 118 255 
0.068229 1.23724 -0.136883 0.00673007 0.00255147 0 108 105 102 255 
0.068229 1.23724 -0.27334 0.00673007 0.00255147 0 108 105 102 255 
0.049531 1.28656 -0.254642 0.00673007 0.00255147 0 108 105 102 255 
0.068229 1.23724 -0.136883 0.0048857 0.00185224 0 108 105 102 255 
0.049531 1.28656 -0.254642 0.0048857 0.00185224 0 108 105 102 255 
0.049531 1.28656 -0.155581 0.0048857 0.00185224 0 108 105 102 255 
-0.049531 1.28656 -0.254642 0 0.00185226 -0.00488575 125 121 118 255 
0.049531 1.28656 -0.254642 0 0.00185226 -0.00488575 125 121 118 255 
0.068229 1.23724 -0.27334 0 0.00185226 -0.00488575 125 121 118 255 
-0.049531 1.28656 -0.254642 0 0.00255149 -0.00673012 125 121 118 255 
0.068229 1.23724 -0.27334 0 0.00255149 -0.00673012 125 121 118 255 
-0.068229 1.23724 -0.27334 0 0.00255149 -0.00673012 125 121 118 255 
-0.068229 1.23724 -0.27334 -0.00673007 0.00255147 0 108 105 102 255 
-0.068229 1.23724 -0.136883 -0.00673007 0.00255147 0 108 105 102 255 
-0.049531 1.28656 -0.155581 -0.00673007 0.00255147 0 108 105 102 255 
-0.068229 1.23724 -0.27334 -0.0048857 0.00185224 0 108 105 102 255 
-0.049531 1.28656 -0.155581 -0.0048857 0.00185224 0 108 105 102 255 
-0.049531 1.28656 -0.254642 -0.0048857 0.00185224 0 108 105 102 255 
0.049531 2.40008 -0.155581 0 -0.0168596 0 75 72 70 255 
0.049531 2.40008 -0.254642 0 -0.0168596 0 75 72 70 255 
0.219725 2.40008 -0.254642 0 -0.0168596 0 75 72 70 255 
0.049531 2.40008 -0.155581 0 -0.0168596 0 75 72 70 255 
0.219725 2.40008 -0.254642 0 -0.0168596 0 75 72 70 255 
0.219725 2.40008 -0.155581 0 -0.0168596 0 75 72 70 255 
-0.049531 2.40008 -0.254642 0 -0.0168596 0 75 72 70 255 
-0.049531 2.40008 -0.155581 0 -0.0168596 0 75 72 70 255 
-0.219725 2.40008 -0.155581 0 -0.0168596 0 75 72 70 255 
-0.049531 2.40008 -0.254642 0 -0.0168596 0 75 72 70 255 
-0.219725 2.40008 -0.155581 0 -0.0168596 0 75 72 70 255 
-0.219725 2.40008 -0.254642 0 -0.0168596 0 75 72 70 255 
0.219725 2.46816 -0.155581 0 0 0.0299177 108 105 102 255 
-0.219725 2.46816 -0.155581 0 0 0.0299177 108 105 102 255 
-0.219725 2.40008 -0.155581 0 0 0.0299177 108 105 102 255 
0.219725 2.46816 -0.155581 0 0 0.0115868 108 105 102 255 
-0.219725 2.40008 -0.155581 0 0 0.0115868 108 105 102 255 
-0.049531 2.40008 -0.155581 0 0 0.0115868 108 105 102 255 
0.219725 2.46816 -0.155581 0 0 0.00674414 108 105 102 255 
-0.049531 2.40008 -0.155581 0 0 0.00674414 108 105 102 255 
0.049531 2.40008 -0.155581 0 0 0.00674414 108 105 102 255 
0.219725 2.46816 -0.155581 0 0 0.0115868 108 105 102 255 
0.049531 2.40008 -0.155581 0 0 0.0115868 108 105 102 255 
0.219725 2.40008 -0.155581 0 0 0.0115868 108 105 102 255 
0.049531 2.40008 -0.254642 0 0 0 108 105 102 255 
-0.049531 2.40008 -0.254642 0 0 0 108 105 102 255 
-0.219725 2.40008 -0.254642 0 0 0 108 105 102 255 
0.049531 2.40008 -0.254642 0 0 -0.0183309 108 105 102 255 
-0.219725 2.40008 -0.254642 0 0 -0.0183309 108 105 102 255 
-0.219725 2.46816 -0.254642 0 0 -0.0183309 108 105 102 255 
0.049531 2.40008 -0.254642 0 0 -0.0299177 108 105 102 255 
-0.219725 2.46816 -0.254642 0 0 -0.0299177 108 105 102 255 
0.219725 2.46816 -0.254642 0 0 -0.0299177 108 105 102 255 
0.049531 2.40008 -0.254642 0 0 -0.0115868 108 105 102 255 
0.219725 2.46816 -0.254642 0 0 -0.0115868 108 105 102 255 
0.219725 2.40008 -0.254642 0 0 -0.0115868 108 105 102 255 
0.049531 2.09747 -0.171634 0 -0.0113953 0 75 72 70 255 
0.049531 2.09747 -0.238589 0 -0.0113953 0 75 72 70 255 
0.219725 2.09747 -0.238589 0 -0.0113953 0 75 72 70 255 
0.049531 2.09747 -0.171634 0 -0.0113953 0 75 72 70 255 
0.219725 2.09747 -0.238589 0 -0.0113953 0 75 72 70 255 
0.219725 2.09747 -0.171634 0 -0.0113953 0 75 72 70 255 
0.049531 2.09747 -0.238589 0 0 -0.00884157 108 105 102 255 
0.049531 2.14942 -0.238589 0 0 -0.00884157 108 105 102 255 
0.219725 2.14942 -0.238589 0 0 -0.00884157 108 105 102 255 
0.049531 2.09747 -0.238589 0 0 -0.00884157 108 105 102 255 
0.219725 2.14942 -0.238589 0 0 -0.00884157 108 105 102 255 
0.219725 2.09747 -0.238589 0 0 -0.00884157 108 105 102 255 
0.049531 2.14942 -0.238589 0 0.0113953 0 125 121 118 255 
0.049531 2.14942 -0.171634 0 0.0113953 0 125 121 118 255 
0.219725 2.14942 -0.171634 0 0.0113953 0 125 121 118 255 
0.049531 2.14942 -0.238589 0 0.0113953 0 125 121 118 255 
0.219725 2.14942 -0.171634 0 0.0113953 0 125 121 118 255 
0.219725 2.14942 -0.238589 0 0.0113953 0 125 121 118 255 
0.049531 2.14942 -0.171634 0 0 0.00884157 108 105 102 255 
0.049531 2.09747 -0.171634 0 0 0.00884157 108 105 102 255 
0.219725 2.09747 -0.171634 0 0 0.00884157 108 105 102 255 
0.049531 2.14942 -0.171634 -0 0 0.00884157 108 105 102 255 
0.219725 2.09747 -0.171634 -0 0 0.00884157 108 105 102 255 
0.219725 2.14942 -0.171634 -0 0 0.00884157 108 105 102 255 
-0.049531 2.09747 -0.238589 0 -0.0113953 0 75 72 70 255 
-0.049531 2.09747 -0.171634 0 -0.0113953 0 75 72 70 255 
-0.219725 2.09747 -0.171634 0 -0.0113953 0 75 72 70 255 
-0.049531 2.09747 -0.238589 0 -0.0113953 0 75 72 70 255 
-0.219725 2.09747 -0.171634 0 -0.0113953 0 75 72 70 255 
-0.219725 2.09747 -0.238589 0 -0.0113953 0 75 72 70 255 
-0.049531 2.09747 -0.171634 0 -0 0.00884157 108 105 102 255 
-0.049531 2.14942 -0.171634 0 -0 0.00884157 108 105 102 255 
-0.219725 2.14942 -0.171634 0 -0 0.00884157 108 105 102 255 
-0.049531 2.09747 -0.171634 0 0 0.00884157 108 105 102 255 
-0.219725 2.14942 -0.171634 0 0 0.00884157 108 105 102 255 
-0.219725 2.09747 -0.171634 0 0 0.00884157 108 105 102 255 
-0.049531 2.14942 -0.171634 0 0.0113953 0 125 121 118 255 
-0.049531 2.14942 -0.238589 0 0.0113953 0 125 121 118 255 
-0.219725 2.14942 -0.238589 0 0.0113953 0 125 121 118 255 
-0.049531 2.14942 -0.171634 0 0.0113953 0 125 121 118 255 
-0.219725 2.14942 -0.238589 0 0.0113953 0 125 121 118 255 
-0.219725 2.14942 -0.171634 0 0.0113953 0 125 121 118 255 
-0.049531 2.14942 -0.238589 0 -0 -0.00884157 108 105 102 255 
-0.049531 2.09747 -0.238589 0 -0 -0.00884157 108 105 102 255 
-0.219725 2.09747 -0.238589 0 -0 -0.00884157 108 105 102 255 
-0.049531 2.14942 -0.238589 -0 0 -0.00884157 108 105 102 255 
-0.219725 2.09747 -0.238589 -0 0 -0.00884157 108 105 102 255 
-0.219725 2.14942 -0.238589 -0 0 -0.00884157 108 105 102 255 
-0.068229 0.518795 -0.27334 -0.0980368 0 0 91 88 86 255 
-0.068229 0.518795 -0.136883 -0.0980368 0 0 91 88 86 255 
-0.068229 1.23724 -0.136883 -0.0980368 0 0 91 88 86 255 
-0.068229 0.518795 -0.27334 -0.0980368 0 0 91 88 86 255 
-0.068229 1.23724 -0.136883 -0.0980368 0 0 91 88 86 255 
-0.068229 1.23724 -0.27334 -0.0980368 0 0 91 88 86 255 
-0.068229 0.518795 -0.136883 0 0 0.0980376 108 105 102 255 
0.068229 0.518795 -0.136883 0 0 0.0980376 108 105 102 255 
0.068229 1.23724 -0.136883 0 0 0.0980376 108 105 102 255 
-0.068229 0.518795 -0.136883 0 0 0.0980376 108 105 102 255 
0.068229 1.23724 -0.136883 0 0 0.0980376 108 105 102 255 
-0.068229 1.23724 -0.136883 0 0 0.0980376 108 105 102 255 
0.068229 0.518795 -0.136883 0.0980368 0 0 91 88 86 255 
0.068229 0.518795 -0.27334 0.0980368 0 0 91 88 86 255 
0.068229 1.23724 -0.27334 0.0980368 0 0 91 88 86 255 
0.068229 0.518795 -0.136883 0.0980368 -0 0 91 88 86 255 
0.068229 1.23724 -0.27334 0.0980368 -0 0 91 88 86 255 
0.068229 1.23724 -0.136883 0.0980368 -0 0 91 88 86 255 
-0.068229 1.23724 -0.27334 0 0 -0.0980376 108 105 102 255 
0.068229 1.23724 -0.27334 0 0 -0.0980376 108 105 102 255 
0.068229 0.518795 -0.27334 0 0 -0.0980376 108 105 102 255 
-0.068229 1.23724 -0.27334 0 0 -0.0980376 108 105 102 255 
0.068229 0.518795 -0.27334 0 0 -0.0980376 108 105 102 255 
-0.068229 0.518795 -0.27334 0 0 -0.0980376 108 105 102 255 
-0.214022 0.380831 -0.320272 -0.031776 0.0335792 0 108 105 102 255 
-0.214022 0.380831 -0.089951 -0.031776 0.0335792 0 108 105 102 255 
-0.068229 0.518795 -0.136883 -0.031776 0.0335792 0 108 105 102 255 
-0.214022 0.380831 -0.320272 -0.0188262 0.0198945 0 108 105 102 255 
-0.068229 0.518795 -0.136883 -0.0188262 0.0198945 0 108 105 102 255 
-0.068229 0.518795 -0.27334 -0.0188262 0.0198945 0 108 105 102 255 
-0.214022 0.380831 -0.089951 -0 0.020089 0.0590547 125 121 118 255 
0.214022 0.380831 -0.089951 -0 0.020089 0.0590547 125 121 118 255 
0.068229 0.518795 -0.136883 -0 0.020089 0.0590547 125 121 118 255 
-0.214022 0.380831 -0.089951 0 0.00640425 0.0188263 125 121 118 255 
0.068229 0.518795 -0.136883 0 0.00640425 0.0188263 125 121 118 255 
-0.068229 0.518795 -0.136883 0 0.00640425 0.0188263 125 121 118 255 
0.214022 0.380831 -0.089951 0.031776 0.0335792 0 108 105 102 255 
0.214022 0.380831 -0.320272 0.031776 0.0335792 0 108 105 102 255 
0.068229 0.518795 -0.27334 0.031776 0.0335792 0 108 105 102 255 
0.214022 0.380831 -0.089951 0.0188262 0.0198945 0 108 105 102 255 
0.068229 0.518795 -0.27334 0.0188262 0.0198945 0 108 105 102 255 
0.068229 0.518795 -0.136883 0.0188262 0.0198945 0 108 105 102 255 
-0.068229 0.518795 -0.27334 0 0.00640425 -0.0188263 125 121 118 255 
0.068229 0.518795 -0.27334 0 0.00640425 -0.0188263 125 121 118 255 
0.214022 0.380831 -0.320272 0 0.00640425 -0.0188263 125 121 118 255 
-0.068229 0.518795 -0.27334 0 0.020089 -0.0590547 125 121 118 255 
0.214022 0.380831 -0.320272 0 0.020089 -0.0590547 125 121 118 255 
-0.214022 0.380831 -0.320272 0 0.020089 -0.0590547 125 121 118 255 
-0.214022 0.288536 -0.320272 -0.0306368 0 0 91 88 86 255 
-0.214022 0 0.16991 -0.0306368 0 0 91 88 86 255 
-0.214022 0.038543 0.210611 -0.0306368 0 0 91 88 86 255 
-0.214022 0.288536 -0.320272 -0.106576 0 0 91 88 86 255 
-0.214022 0.038543 0.210611 -0.106576 0 0 91 88 86 255 
-0.214022 0.380831 -0.089951 -0.106576 0 0 91 88 86 255 
-0.214022 0.288536 -0.320272 -0.0212575 0 0 91 88 86 255 
-0.214022 0.380831 -0.089951 -0.0212575 0 0 91 88 86 255 
-0.214022 0.380831 -0.320272 -0.0212575 0 0 91 88 86 255 
-0.177475 0.081348 0.184837 -0 0.17331 0.0742275 125 121 118 255 
0.177475 0.081348 0.184837 -0 0.17331 0.0742275 125 121 118 255 
0.177475 0.290469 -0.303428 -0 0.17331 0.0742275 125 121 118 255 
-0.177475 0.081348 0.184837 0 0.17331 0.0742275 125 121 118 255 
0.177475 0.290469 -0.303428 0 0.17331 0.0742275 125 121 118 255 
-0.177475 0.290469 -0.303428 0 0.17331 0.0742275 125 121 118 255 
0.214022 0.038543 0.210611 0.0306368 0 0 91 88 86 255 
0.214022 0 0.16991 0.0306368 0 0 91 88 86 255 
0.214022 0.288536 -0.320272 0.0306368 0 0 91 88 86 255 
0.214022 0.038543 0.210611 0.0489978 0 0 91 88 86 255 
0.214022 0.288536 -0.320272 0.0489978 0 0 91 88 86 255 
0.214022 0.380831 -0.320272 0.0489978 0 0 91 88 86 255 
0.214022 0.038543 0.210611 0.0788361 0 0 91 88 86 255 
0.214022 0.380831 -0.320272 0.0788361 0 0 91 88 86 255 
0.214022 0.380831 -0.089951 0.0788361 0 0 91 88 86 255 
-0.214022 0.380831 -0.320272 0 0 -0.0395063 108 105 102 255 
0.214022 0.380831 -0.320272 0 0 -0.0395063 108 105 102 255 
0.214022 0.288536 -0.320272 0 0 -0.0395063 108 105 102 255 
-0.214022 0.380831 -0.320272 0 0 -0.0395063 108 105 102 255 
0.214022 0.288536 -0.320272 0 0 -0.0395063 108 105 102 255 
-0.214022 0.288536 -0.320272 0 0 -0.0395063 108 105 102 255 
-0.214022 0.038543 0.210611 -0 0.0110324 0.0183224 108 105 102 255 
0.214022 0.038543 0.210611 -0 0.0110324 0.0183224 108 105 102 255 
0.177475 0.081348 0.184837 -0 0.0110324 0.0183224 108 105 102 255 
-0.214022 0.038543 0.210611 0 0.00914848 0.0151936 108 105 102 255 
0.177475 0.081348 0.184837 0 0.00914848 0.0151936 108 105 102 255 
-0.177475 0.081348 0.184837 0 0.00914848 0.0151936 108 105 102 255 
0.214022 0.038543 0.210611 0.00610052 0.0109846 0.0125096 108 105 102 255 
0.214022 0.380831 -0.089951 0.00610052 0.0109846 0.0125096 108 105 102 255 
0.177475 0.356018 -0.05034 0.00610052 0.0109846 0.0125096 108 105 102 255 
0.214022 0.038543 0.210611 0.00298741 0.00859501 0.0100384 108 105 102 255 
0.177475 0.356018 -0.05034 0.00298741 0.00859501 0.0100384 108 105 102 255 
0.177475 0.081348 0.184837 0.00298741 0.00859501 0.0100384 108 105 102 255 
0.214022 0.380831 -0.089951 0 0.0169553 0.0106211 125 121 118 255 
-0.214022 0.380831 -0.089951 0 0.0169553 0.0106211 125 121 118 255 
-0.177475 0.356018 -0.05034 0 0.0169553 0.0106211 125 121 118 255 
0.214022 0.380831 -0.089951 0 0.0140599 0.00880737 125 121 118 255 
-0.177475 0.356018 -0.05034 0 0.0140599 0.00880737 125 121 118 255 
0.177475 0.356018 -0.05034 0 0.0140599 0.00880737 125 121 118 255 
-0.214022 0.380831 -0.089951 -0.00404343 0.0109846 0.0125096 108 105 102 255 
-0.214022 0.038543 0.210611 -0.00404343 0.0109846 0.0125096 108 105 102 255 
-0.177475 0.081348 0.184837 -0.00404343 0.0109846 0.0125096 108 105 102 255 
-0.214022 0.380831 -0.089951 -0.00504451 0.00859501 0.0100384 108 105 102 255 
-0.177475 0.081348 0.184837 -0.00504451 0.00859501 0.0100384 108 105 102 255 
-0.177475 0.356018 -0.05034 -0.00504451 0.00859501 0.0100384 108 105 102 255 
0.177475 0.081348 0.184837 -0.0849313 0 0 91 88 86 255 
0.177475 0.356018 -0.05034 -0.0849313 0 0 91 88 86 255 
0.177475 0.290469 -0.303428 -0.0849313 0 0 91 88 86 255 
0.177475 0.356018 -0.05034 0 -0.0898336 0.0232666 75 72 70 255 
-0.177475 0.356018 -0.05034 0 -0.0898336 0.0232666 75 72 70 255 
-0.177475 0.290469 -0.303428 0 -0.0898336 0.0232666 75 72 70 255 
0.177475 0.356018 -0.05034 0 -0.0898336 0.0232666 75 72 70 255 
-0.177475 0.290469 -0.303428 0 -0.0898336 0.0232666 75 72 70 255 
0.177475 0.290469 -0.303428 0 -0.0898336 0.0232666 75 72 70 255 
-0.177475 0.356018 -0.05034 0.0849313 0 0 91 88 86 255 
-0.177475 0.081348 0.184837 0.0849313 0 0 91 88 86 255 
-0.177475 0.290469 -0.303428 0.0849313 0 0 91 88 86 255 
-0.214022 0 0.16991 0 -0.0174218 0.0164981 75 72 70 255 
0.214022 0 0.16991 0 -0.0174218 0.0164981 75 72 70 255 
0.214022 0.038543 0.210611 0 -0.0174218 0.0164981 75 72 70 255 
-0.214022 0 0.16991 0 -0.0174218 0.0164981 75 72 70 255 
0.214022 0.038543 0.210611 0 -0.0174218 0.0164981 75 72 70 255 
-0.214022 0.038543 0.210611 0 -0.0174218 0.0164981 75 72 70 255 
0.049531 1.28656 -0.155581 0.0803296 0 0 91 88 86 255 
0.049531 1.28656 -0.254642 0.0803296 0 0 91 88 86 255 
0.049531 2.09747 -0.238589 0.0803296 0 0 91 88 86 255 
0.049531 1.28656 -0.155581 0.0542945 0 0 91 88 86 255 
0.049531 2.09747 -0.238589 0.0542945 0 0 91 88 86 255 
0.049531 2.09747 -0.171634 0.0542945 0 0 91 88 86 255 
0.049531 1.28656 -0.254642 0.0178753 0 0 91 88 86 255 
0.049531 2.40008 -0.254642 0.0178753 0 0 91 88 86 255 
0.049531 2.14942 -0.238589 0.0178753 0 0 91 88 86 255 
0.049531 1.28656 -0.254642 0.000833954 0 0 91 88 86 255 
0.049531 2.14942 -0.238589 0.000833954 0 0 91 88 86 255 
0.049531 2.09747 -0.238589 0.000833954 0 0 91 88 86 255 
0.049531 2.40008 -0.254642 0.0248306 0 -0 91 88 86 255 
0.049531 2.40008 -0.155581 0.0248306 0 -0 91 88 86 255 
0.049531 2.14942 -0.171634 0.0248306 0 -0 91 88 86 255 
0.049531 2.40008 -0.254642 0.0167829 0 0 91 88 86 255 
0.049531 2.14942 -0.171634 0.0167829 0 0 91 88 86 255 
0.049531 2.14942 -0.238589 0.0167829 0 0 91 88 86 255 
0.049531 2.40008 -0.155581 0.0178753 0 0 91 88 86 255 
0.049531 1.28656 -0.155581 0.0178753 0 0 91 88 86 255 
0.049531 2.09747 -0.171634 0.0178753 0 0 91 88 86 255 
0.049531 2.40008 -0.155581 0.000833953 0 0 91 88 86 255 
0.049531 2.09747 -0.171634 0.000833953 0 0 91 88 86 255 
0.049531 2.14942 -0.171634 0.000833953 0 0 91 88 86 255 
-0.049531 1.28656 -0.254642 -0.0803296 0 0 91 88 86 255 
-0.049531 1.28656 -0.155581 -0.0803296 0 0 91 88 86 255 
-0.049531 2.09747 -0.171634 -0.0803296 0 0 91 88 86 255 
-0.049531 1.28656 -0.254642 -0.0542945 0 0 91 88 86 255 
-0.049531 2.09747 -0.171634 -0.0542945 0 0 91 88 86 255 
-0.049531 2.09747 -0.238589 -0.0542945 0 0 91 88 86 255 
-0.049531 1.28656 -0.155581 -0.0178753 0 0 91 88 86 255 
-0.049531 2.40008 -0.155581 -0.0178753 0 0 91 88 86 255 
-0.049531 2.14942 -0.171634 -0.0178753 0 0 91 88 86 255 
-0.049531 1.28656 -0.155581 -0.000833954 0 0 91 88 86 255 
-0.049531 2.14942 -0.171634 -0.000833954 0 0 91 88 86 255 
-0.049531 2.09747 -0.171634 -0.000833954 0 0 91 88 86 255 
-0.049531 2.40008 -0.155581 -0.0248306 0 -0 91 88 86 255 
-0.049531 2.40008 -0.254642 -0.0248306 0 -0 91 88 86 255 
-0.049531 2.14942 -0.238589 -0.0248306 0 -0 91 88 86 255 
-0.049531 2.40008 -0.155581 -0.0167829 0 0 91 88 86 255 
-0.049531 2.14942 -0.238589 -0.0167829 0 0 91 88 86 255 
-0.049531 2.14942 -0.171634 -0.0167829 0 0 91 88 86 255 
-0.049531 2.40008 -0.254642 -0.0178753 0 0 91 88 86 255 
-0.049531 1.28656 -0.254642 -0.0178753 0 0 91 88 86 255 
-0.049531 2.09747 -0.238589 -0.0178753 0 0 91 88 86 255 
-0.049531 2.40008 -0.254642 -0.000833953 0 0 91 88 86 255 
-0.049531 2.09747 -0.238589 -0.000833953 0 0 91 88 86 255 
-0.049531 2.14942 -0.238589 -0.000833953 0 0 91 88 86 255 
3 0 1 2
3 3 4 5
3 6 7 8
3 9 10 11
3 12 13 14
3 15 16 17
3 18 19 20
3 21 22 23
3 24 25 26
3 27 28 29
3 30 31 32
3 33 34 35
3 36 37 38
3 39 40 41
3 42 43 44
3 45 46 47
3 48 49 50
3 51 52 53
3 54 55 56
3 57 58 59
3 60 61 62
3 63 64 65
3 66 67 68
3 69 70 71
3 72 73 74
3 75 76 77
3 78 79 80
3 81 82 83
3 84 85 86
3 87 88 89
3 90 91 92
3 93 94 95
3 96 97 98
3 99 100 101
3 102 103 104
3 105 106 107
3 108 109 110
3 111 112 113
3 114 115 116
3 117 118 119
3 120 121 122
3 123 124 125
3 126 127 128
3 129 130 131
3 132 133 134
3 135 136 137
3 138 139 140
3 141 142 143
3 144 145 146
3 147 148 149
3 150 151 152
3 153 154 155
3 156 157 158
3 159 160 161
3 162 163 164
3 165 166 167
3 168 169 170
3 171 172 173
3 174 175 176
3 177 178 179
3 180 181 182
3 183 184 185
3 186 187 188
3 189 190 191
3 192 193 194
3 195 196 197
3 198 199 200
3 201 202 203
3 204 205 206
3 207 208 209
3 210 211 212
3 213 214 215
3 216 217 218
3 219 220 221
3 222 223 224
3 225 226 227
3 228 229 230
3 231 232 233
3 234 235 236
3 237 238 239
3 240 241 242
3 243 244 245
3 246 247 248
3 249 250 251
3 252 253 254
3 255 256 257
3 258 259 260
3 261 262 263
3 264 265 266
3 267 268 269
3 270 271 272
3 273 274 275
3 276 277 278
3 279 280 281
3 282 283 284
3 285 286 287
3 288 289 290
3 291 292 293
3 294 295 296
3 297 298 299
3 300 301 302
3 303 304 305
3 306 307 308
3 309 310 311
3 312 313 314
3 315 316 317
3 318 319 320
3 321 322 323
3 324 325 326
3 327 328 329
3 330 331 332
3 333 334 335
3 336 337 338
3 339 340 341
3 342 343 344
3 345 346 347
3 348 349 350
3 351 352 353
3 354 355 356
3 357 358 359
3 360 361 362
3 363 364 365
3 366 367 368
3 369 370 371
3 372 373 374
3 375 376 377
3 378 379 380
3 381 382 383
3 384 385 386
3 387 388 389
