ply
format ascii 1.0
comment Feeney's Flatenator generated
comment TextureFile SpaceInteriors_Texture.png
element vertex 156
property float x
property float y
property float z
property float nx
property float ny
property float nz
property uchar red
property uchar green
property uchar blue
property uchar alpha
property float texture_u
property float texture_v
element face 52
property list uchar int vertex_indices
end_header
-0.371407 -0.022446 0.608203 0 0 0.0333465 157 152 148 255 0.358354 0.060665 
0.371408 -0.022446 0.608203 0 0 0.0333465 157 152 148 255 0.358354 0.060665 
0.371408 0.022446 0.608203 0 0 0.0333465 157 152 148 255 0.358354 0.060665 
-0.371407 -0.022446 0.608203 0 0 0.0333465 157 152 148 255 0.358354 0.060665 
0.371408 0.022446 0.608203 0 0 0.0333465 157 152 148 255 0.358354 0.060665 
-0.371407 0.022446 0.608203 0 0 0.0333465 157 152 148 255 0.358354 0.060665 
-0.045979 0.121474 0.304664 -0 0.0196623 0 219 219 219 255 0.423193 0.480927 
0.174357 0.121474 0.304664 -0 0.0196623 0 219 219 219 255 0.423193 0.480927 
0.174357 0.121474 0.215426 -0 0.0196623 0 219 219 219 255 0.423193 0.480927 
-0.045979 0.121474 0.304664 0 0.0196623 0 219 219 219 255 0.423193 0.480927 
0.174357 0.121474 0.215426 0 0.0196623 0 219 219 219 255 0.423193 0.480927 
-0.045979 0.121474 0.215426 0 0.0196623 0 219 219 219 255 0.423193 0.480927 
-0.371407 0.022446 -0.183946 0 0 -0.0333465 157 152 148 255 0.358354 0.060665 
0.371408 0.022446 -0.183946 0 0 -0.0333465 157 152 148 255 0.358354 0.060665 
0.371408 -0.022446 -0.183946 0 0 -0.0333465 157 152 148 255 0.358354 0.060665 
-0.371407 0.022446 -0.183946 0 0 -0.0333465 157 152 148 255 0.358354 0.060665 
0.371408 -0.022446 -0.183946 0 0 -0.0333465 157 152 148 255 0.358354 0.060665 
-0.371407 -0.022446 -0.183946 0 0 -0.0333465 157 152 148 255 0.358354 0.060665 
-0.2248 -0.121475 0.156518 0 -0.109628 0 77 93 56 255 0.173045 0.289806 
0.224802 -0.121475 0.156518 0 -0.109628 0 77 93 56 255 0.173045 0.289806 
0.224802 -0.121475 0.400352 0 -0.109628 0 77 93 56 255 0.173045 0.289806 
-0.2248 -0.121475 0.156518 0 -0.109628 0 77 93 56 255 0.173045 0.289806 
0.224802 -0.121475 0.400352 0 -0.109628 0 77 93 56 255 0.173045 0.289806 
-0.2248 -0.121475 0.400352 0 -0.109628 0 77 93 56 255 0.173045 0.289806 
0.371408 -0.022446 0.608203 0.0355612 0 0 141 137 133 255 0.326315 0.060665 
0.371408 -0.022446 -0.183946 0.0355612 0 0 141 137 133 255 0.326315 0.060665 
0.371408 0.022446 -0.183946 0.0355612 0 0 141 137 133 255 0.326315 0.060665 
0.371408 -0.022446 0.608203 0.0355612 -0 0 141 137 133 255 0.326315 0.060665 
0.371408 0.022446 -0.183946 0.0355612 -0 0 141 137 133 255 0.326315 0.060665 
0.371408 0.022446 0.608203 0.0355612 -0 0 141 137 133 255 0.326315 0.060665 
-0.371407 -0.022446 -0.183946 -0.0355612 0 0 141 137 133 255 0.326315 0.060665 
-0.371407 -0.022446 0.608203 -0.0355612 0 0 141 137 133 255 0.326315 0.060665 
-0.371407 0.022446 0.608203 -0.0355612 0 0 141 137 133 255 0.326315 0.060665 
-0.371407 -0.022446 -0.183946 -0.0355612 0 0 141 137 133 255 0.326315 0.060665 
-0.371407 0.022446 0.608203 -0.0355612 0 0 141 137 133 255 0.326315 0.060665 
-0.371407 0.022446 -0.183946 -0.0355612 0 0 141 137 133 255 0.326315 0.060665 
-0.371407 0.022446 0.608203 -0 0.115995 0 172 167 162 255 0.393219 0.060665 
0.371408 0.022446 0.608203 -0 0.115995 0 172 167 162 255 0.393219 0.060665 
0.268423 0.022446 0.452047 -0 0.115995 0 172 167 162 255 0.393219 0.060665 
-0.371407 0.022446 0.608203 0 0.0838314 0 172 167 162 255 0.393219 0.060665 
0.268423 0.022446 0.452047 0 0.0838314 0 172 167 162 255 0.393219 0.060665 
-0.268421 0.022446 0.452047 0 0.0838314 0 172 167 162 255 0.393219 0.060665 
0.371408 0.022446 0.608203 0 0.0815795 0 172 167 162 255 0.393219 0.060665 
0.371408 0.022446 -0.183946 0 0.0815795 0 172 167 162 255 0.393219 0.060665 
0.268423 0.022446 0.104826 0 0.0815795 0 172 167 162 255 0.393219 0.060665 
0.371408 0.022446 0.608203 0 0.0357585 0 172 167 162 255 0.393219 0.060665 
0.268423 0.022446 0.104826 0 0.0357585 0 172 167 162 255 0.393219 0.060665 
0.268423 0.022446 0.452047 0 0.0357585 0 172 167 162 255 0.393219 0.060665 
0.371408 0.022446 -0.183946 0 0.214504 0 172 167 162 255 0.393219 0.060665 
-0.371407 0.022446 -0.183946 0 0.214504 0 172 167 162 255 0.393219 0.060665 
-0.268421 0.022446 0.104826 0 0.214504 0 172 167 162 255 0.393219 0.060665 
0.371408 0.022446 -0.183946 0 0.155025 0 172 167 162 255 0.393219 0.060665 
-0.268421 0.022446 0.104826 0 0.155025 0 172 167 162 255 0.393219 0.060665 
0.268423 0.022446 0.104826 0 0.155025 0 172 167 162 255 0.393219 0.060665 
-0.371407 0.022446 -0.183946 0 0.0815803 0 172 167 162 255 0.393219 0.060665 
-0.371407 0.022446 0.608203 0 0.0815803 0 172 167 162 255 0.393219 0.060665 
-0.268421 0.022446 0.452047 0 0.0815803 0 172 167 162 255 0.393219 0.060665 
-0.371407 0.022446 -0.183946 0 0.0357589 0 172 167 162 255 0.393219 0.060665 
-0.268421 0.022446 0.452047 0 0.0357589 0 172 167 162 255 0.393219 0.060665 
-0.268421 0.022446 0.104826 0 0.0357589 0 172 167 162 255 0.393219 0.060665 
-0.371407 -0.022446 -0.183946 0 -0.214504 0 125 121 118 255 0.293334 0.060665 
0.371408 -0.022446 -0.183946 0 -0.214504 0 125 121 118 255 0.293334 0.060665 
0.268423 -0.022446 0.104826 0 -0.214504 0 125 121 118 255 0.293334 0.060665 
-0.371407 -0.022446 -0.183946 0 -0.155026 0 125 121 118 255 0.293334 0.060665 
0.268423 -0.022446 0.104826 0 -0.155026 0 125 121 118 255 0.293334 0.060665 
-0.268421 -0.022446 0.104826 0 -0.155026 0 125 121 118 255 0.293334 0.060665 
0.371408 -0.022446 -0.183946 0 -0.0815795 0 125 121 118 255 0.293334 0.060665 
0.371408 -0.022446 0.608203 0 -0.0815795 0 125 121 118 255 0.293334 0.060665 
0.268423 -0.022446 0.452047 0 -0.0815795 0 125 121 118 255 0.293334 0.060665 
0.371408 -0.022446 -0.183946 0 -0.0357586 0 125 121 118 255 0.293334 0.060665 
0.268423 -0.022446 0.452047 0 -0.0357586 0 125 121 118 255 0.293334 0.060665 
0.268423 -0.022446 0.104826 0 -0.0357586 0 125 121 118 255 0.293334 0.060665 
0.371408 -0.022446 0.608203 -0 -0.115995 0 125 121 118 255 0.293334 0.060665 
-0.371407 -0.022446 0.608203 -0 -0.115995 0 125 121 118 255 0.293334 0.060665 
-0.268421 -0.022446 0.452047 -0 -0.115995 0 125 121 118 255 0.293334 0.060665 
0.371408 -0.022446 0.608203 0 -0.0838314 0 125 121 118 255 0.293334 0.060665 
-0.268421 -0.022446 0.452047 0 -0.0838314 0 125 121 118 255 0.293334 0.060665 
0.268423 -0.022446 0.452047 0 -0.0838314 0 125 121 118 255 0.293334 0.060665 
-0.371407 -0.022446 0.608203 0 -0.0815803 0 125 121 118 255 0.293334 0.060665 
-0.371407 -0.022446 -0.183946 0 -0.0815803 0 125 121 118 255 0.293334 0.060665 
-0.268421 -0.022446 0.104826 0 -0.0815803 0 125 121 118 255 0.293334 0.060665 
-0.371407 -0.022446 0.608203 0 -0.0357589 0 125 121 118 255 0.293334 0.060665 
-0.268421 -0.022446 0.104826 0 -0.0357589 0 125 121 118 255 0.293334 0.060665 
-0.268421 -0.022446 0.452047 0 -0.0357589 0 125 121 118 255 0.293334 0.060665 
-0.268421 0.022446 0.452047 -0 0.0277521 0.0531626 115 139 81 255 0.285945 0.289697 
0.268423 0.022446 0.452047 -0 0.0277521 0.0531626 115 139 81 255 0.285945 0.289697 
0.224802 0.121474 0.400352 -0 0.0277521 0.0531626 115 139 81 255 0.285945 0.289697 
-0.268421 0.022446 0.452047 0 0.0232422 0.0445232 115 139 81 255 0.285945 0.289697 
0.224802 0.121474 0.400352 0 0.0232422 0.0445232 115 139 81 255 0.285945 0.289697 
-0.2248 0.121474 0.400352 0 0.0232422 0.0445232 115 139 81 255 0.285945 0.289697 
0.268423 0.022446 0.452047 0.0343846 0.0151461 0 105 127 75 255 0.259347 0.289765 
0.268423 0.022446 0.104826 0.0343846 0.0151461 0 105 127 75 255 0.259347 0.289765 
0.224802 0.121474 0.156518 0.0343846 0.0151461 0 105 127 75 255 0.259347 0.289765 
0.268423 0.022446 0.452047 0.0241464 0.0106363 0 105 127 75 255 0.259347 0.289765 
0.224802 0.121474 0.156518 0.0241464 0.0106363 0 105 127 75 255 0.259347 0.289765 
0.224802 0.121474 0.400352 0.0241464 0.0106363 0 105 127 75 255 0.259347 0.289765 
0.268423 0.022446 0.104826 0 0.0277505 -0.0531626 115 139 81 255 0.285945 0.289697 
-0.268421 0.022446 0.104826 0 0.0277505 -0.0531626 115 139 81 255 0.285945 0.289697 
-0.2248 0.121474 0.156518 0 0.0277505 -0.0531626 115 139 81 255 0.285945 0.289697 
0.268423 0.022446 0.104826 0 0.0232408 -0.0445232 115 139 81 255 0.285945 0.289697 
-0.2248 0.121474 0.156518 0 0.0232408 -0.0445232 115 139 81 255 0.285945 0.289697 
0.224802 0.121474 0.156518 0 0.0232408 -0.0445232 115 139 81 255 0.285945 0.289697 
-0.268421 0.022446 0.104826 -0.0343846 0.0151461 0 105 127 75 255 0.259347 0.289765 
-0.268421 0.022446 0.452047 -0.0343846 0.0151461 0 105 127 75 255 0.259347 0.289765 
-0.2248 0.121474 0.400352 -0.0343846 0.0151461 0 105 127 75 255 0.259347 0.289765 
-0.268421 0.022446 0.104826 -0.0241464 0.0106363 0 105 127 75 255 0.259347 0.289765 
-0.2248 0.121474 0.400352 -0.0241464 0.0106363 0 105 127 75 255 0.259347 0.289765 
-0.2248 0.121474 0.156518 -0.0241464 0.0106363 0 105 127 75 255 0.259347 0.289765 
-0.268421 -0.022446 0.104826 0 -0.0277505 -0.0531631 97 115 68 255 0.232258 0.289697 
0.268423 -0.022446 0.104826 0 -0.0277505 -0.0531631 97 115 68 255 0.232258 0.289697 
0.224802 -0.121475 0.156518 0 -0.0277505 -0.0531631 97 115 68 255 0.232258 0.289697 
-0.268421 -0.022446 0.104826 0 -0.0232408 -0.0445236 97 115 68 255 0.232258 0.289697 
0.224802 -0.121475 0.156518 0 -0.0232408 -0.0445236 97 115 68 255 0.232258 0.289697 
-0.2248 -0.121475 0.156518 0 -0.0232408 -0.0445236 97 115 68 255 0.232258 0.289697 
0.268423 -0.022446 0.104826 0.0343849 -0.0151461 0 87 104 61 255 0.20566 0.289765 
0.268423 -0.022446 0.452047 0.0343849 -0.0151461 0 87 104 61 255 0.20566 0.289765 
0.224802 -0.121475 0.400352 0.0343849 -0.0151461 0 87 104 61 255 0.20566 0.289765 
0.268423 -0.022446 0.104826 0.0241466 -0.0106363 0 87 104 61 255 0.20566 0.289765 
0.224802 -0.121475 0.400352 0.0241466 -0.0106363 0 87 104 61 255 0.20566 0.289765 
0.224802 -0.121475 0.156518 0.0241466 -0.0106363 0 87 104 61 255 0.20566 0.289765 
0.268423 -0.022446 0.452047 0 -0.0277521 0.0531631 97 115 68 255 0.232258 0.289697 
-0.268421 -0.022446 0.452047 0 -0.0277521 0.0531631 97 115 68 255 0.232258 0.289697 
-0.2248 -0.121475 0.400352 0 -0.0277521 0.0531631 97 115 68 255 0.232258 0.289697 
0.268423 -0.022446 0.452047 0 -0.0232422 0.0445236 97 115 68 255 0.232258 0.289697 
-0.2248 -0.121475 0.400352 0 -0.0232422 0.0445236 97 115 68 255 0.232258 0.289697 
0.224802 -0.121475 0.400352 0 -0.0232422 0.0445236 97 115 68 255 0.232258 0.289697 
-0.268421 -0.022446 0.452047 -0.0343849 -0.0151461 -0 87 104 61 255 0.20566 0.289765 
-0.268421 -0.022446 0.104826 -0.0343849 -0.0151461 -0 87 104 61 255 0.20566 0.289765 
-0.2248 -0.121475 0.156518 -0.0343849 -0.0151461 -0 87 104 61 255 0.20566 0.289765 
-0.268421 -0.022446 0.452047 -0.0241466 -0.0106363 0 87 104 61 255 0.20566 0.289765 
-0.2248 -0.121475 0.156518 -0.0241466 -0.0106363 0 87 104 61 255 0.20566 0.289765 
-0.2248 -0.121475 0.400352 -0.0241466 -0.0106363 0 87 104 61 255 0.20566 0.289765 
-0.2248 0.121474 0.400352 -0 0.0430215 0 125 148 90 255 0.326617 0.289806 
0.224802 0.121474 0.400352 -0 0.0430215 0 125 148 90 255 0.326617 0.289806 
0.174357 0.121474 0.304664 -0 0.0430215 0 125 148 90 255 0.326617 0.289806 
-0.2248 0.121474 0.400352 0 0.0210835 0 125 148 90 255 0.326617 0.289806 
0.174357 0.121474 0.304664 0 0.0210835 0 125 148 90 255 0.326617 0.289806 
-0.045979 0.121474 0.304664 0 0.0210835 0 125 148 90 255 0.326617 0.289806 
0.224802 0.121474 0.400352 0 0.0123002 0 125 148 90 255 0.326617 0.289806 
0.224802 0.121474 0.156518 0 0.0123002 0 125 148 90 255 0.326617 0.289806 
0.174357 0.121474 0.215426 0 0.0123002 0 125 148 90 255 0.326617 0.289806 
0.224802 0.121474 0.400352 0 0.00450161 0 125 148 90 255 0.326617 0.289806 
0.174357 0.121474 0.215426 0 0.00450161 0 125 148 90 255 0.326617 0.289806 
0.174357 0.121474 0.304664 0 0.00450161 0 125 148 90 255 0.326617 0.289806 
0.224802 0.121474 0.156518 0 0.0264852 0 125 148 90 255 0.326617 0.289806 
-0.2248 0.121474 0.156518 0 0.0264852 0 125 148 90 255 0.326617 0.289806 
-0.045979 0.121474 0.215426 0 0.0264852 0 125 148 90 255 0.326617 0.289806 
0.224802 0.121474 0.156518 0 0.0129796 0 125 148 90 255 0.326617 0.289806 
-0.045979 0.121474 0.215426 0 0.0129796 0 125 148 90 255 0.326617 0.289806 
0.174357 0.121474 0.215426 0 0.0129796 0 125 148 90 255 0.326617 0.289806 
-0.2248 0.121474 0.156518 0 0.0436026 0 125 148 90 255 0.326617 0.289806 
-0.2248 0.121474 0.400352 0 0.0436026 0 125 148 90 255 0.326617 0.289806 
-0.045979 0.121474 0.304664 0 0.0436026 0 125 148 90 255 0.326617 0.289806 
-0.2248 0.121474 0.156518 0 0.0159576 0 125 148 90 255 0.326617 0.289806 
-0.045979 0.121474 0.304664 0 0.0159576 0 125 148 90 255 0.326617 0.289806 
-0.045979 0.121474 0.215426 0 0.0159576 0 125 148 90 255 0.326617 0.289806 
3 0 1 2
3 3 4 5
3 6 7 8
3 9 10 11
3 12 13 14
3 15 16 17
3 18 19 20
3 21 22 23
3 24 25 26
3 27 28 29
3 30 31 32
3 33 34 35
3 36 37 38
3 39 40 41
3 42 43 44
3 45 46 47
3 48 49 50
3 51 52 53
3 54 55 56
3 57 58 59
3 60 61 62
3 63 64 65
3 66 67 68
3 69 70 71
3 72 73 74
3 75 76 77
3 78 79 80
3 81 82 83
3 84 85 86
3 87 88 89
3 90 91 92
3 93 94 95
3 96 97 98
3 99 100 101
3 102 103 104
3 105 106 107
3 108 109 110
3 111 112 113
3 114 115 116
3 117 118 119
3 120 121 122
3 123 124 125
3 126 127 128
3 129 130 131
3 132 133 134
3 135 136 137
3 138 139 140
3 141 142 143
3 144 145 146
3 147 148 149
3 150 151 152
3 153 154 155
