ply
format ascii 1.0
comment Feeney's Flatenator generated
comment TextureFile SpaceInteriors_Texture.png
element vertex 300
property float x
property float y
property float z
property float nx
property float ny
property float nz
property float texture_u
property float texture_v
element face 100
property list uchar int vertex_indices
end_header
-0.051044 0.11943 0.06068 0 0 0.0100887 0.29991 0.085915 
0.051058 0.11943 0.06068 0 0 0.0100887 0.29991 0.085915 
0.051058 0.21824 0.06068 0 0 0.0100887 0.29991 0.085915 
-0.051044 0.11943 0.06068 0 0 0.0100887 0.29991 0.085915 
0.051058 0.21824 0.06068 0 0 0.0100887 0.29991 0.085915 
-0.051044 0.21824 0.06068 0 0 0.0100887 0.29991 0.085915 
-0.051044 0.21824 0 0 0 -0.0100887 0.293311 0.086806 
0.051058 0.21824 0 0 0 -0.0100887 0.293311 0.086806 
0.051058 0.11943 0 0 0 -0.0100887 0.293311 0.086806 
-0.051044 0.21824 0 0 0 -0.0100887 0.293311 0.086806 
0.051058 0.11943 0 0 0 -0.0100887 0.293311 0.086806 
-0.051044 0.11943 0 0 0 -0.0100887 0.293311 0.086806 
0.051058 0.11943 0.06068 0.00599579 0 0 0.264126 0.082057 
0.051058 0.11943 0 0.00599579 0 0 0.264126 0.082057 
0.051058 0.21824 0 0.00599579 0 0 0.264126 0.082057 
0.051058 0.11943 0.06068 0.00599579 -0 0 0.264126 0.082057 
0.051058 0.21824 0 0.00599579 -0 0 0.264126 0.082057 
0.051058 0.21824 0.06068 0.00599579 -0 0 0.264126 0.082057 
-0.051044 0.21824 0 -0.00599579 0 0 0.264126 0.082057 
-0.051044 0.11943 0 -0.00599579 0 0 0.264126 0.082057 
-0.051044 0.11943 0.06068 -0.00599579 0 0 0.264126 0.082057 
-0.051044 0.21824 0 -0.00599579 0 0 0.264126 0.082057 
-0.051044 0.11943 0.06068 -0.00599579 0 0 0.264126 0.082057 
-0.051044 0.21824 0.06068 -0.00599579 0 0 0.264126 0.082057 
0.051058 -0.441897 0 0 0.00300148 4.86467e-08 0.224333 0.081454 
0.051058 -0.441898 0.06068 0 0.00300148 4.86467e-08 0.224333 0.081454 
0.100522 -0.441898 0.06068 0 0.00300148 4.86467e-08 0.224333 0.081454 
0.051058 -0.441897 0 -0 0.00300148 4.86467e-08 0.224333 0.081454 
0.100522 -0.441898 0.06068 -0 0.00300148 4.86467e-08 0.224333 0.081454 
0.100522 -0.441897 0 -0 0.00300148 4.86467e-08 0.224333 0.081454 
-0.051044 -0.441898 0.06068 0 0.00300251 4.86634e-08 0.224333 0.081454 
-0.051044 -0.441897 0 0 0.00300251 4.86634e-08 0.224333 0.081454 
-0.100525 -0.441897 0 0 0.00300251 4.86634e-08 0.224333 0.081454 
-0.051044 -0.441898 0.06068 0 0.00300251 4.86634e-08 0.224333 0.081454 
-0.100525 -0.441897 0 0 0.00300251 4.86634e-08 0.224333 0.081454 
-0.100525 -0.441898 0.06068 0 0.00300251 4.86634e-08 0.224333 0.081454 
0.100522 -0.441897 0 0.0132909 0 0 0.264126 0.082057 
0.100522 -0.441898 0.06068 0.0132909 0 0 0.264126 0.082057 
0.100522 -0.660931 0.06068 0.0132909 0 0 0.264126 0.082057 
0.100522 -0.441897 0 0.013291 0 0 0.264126 0.082057 
0.100522 -0.660931 0.06068 0.013291 0 0 0.264126 0.082057 
0.100522 -0.660931 0 0.013291 0 0 0.264126 0.082057 
-0.100525 -0.441898 0.06068 -0.013291 0 -0 0.264126 0.082057 
-0.100525 -0.441897 0 -0.013291 0 -0 0.264126 0.082057 
-0.100525 -0.660931 0 -0.013291 0 -0 0.264126 0.082057 
-0.100525 -0.441898 0.06068 -0.0132909 -0 0 0.264126 0.082057 
-0.100525 -0.660931 0 -0.0132909 -0 0 0.264126 0.082057 
-0.100525 -0.660931 0.06068 -0.0132909 -0 0 0.264126 0.082057 
-0.100525 -0.660931 0.06068 0 -0.0121995 0 0.224333 0.081454 
-0.100525 -0.660931 0 0 -0.0121995 0 0.224333 0.081454 
0.100522 -0.660931 0 0 -0.0121995 0 0.224333 0.081454 
-0.100525 -0.660931 0.06068 0 -0.0121995 0 0.224333 0.081454 
0.100522 -0.660931 0 0 -0.0121995 0 0.224333 0.081454 
0.100522 -0.660931 0.06068 0 -0.0121995 0 0.224333 0.081454 
-0.051044 0.21824 0.06068 0 0 0.00396431 0.29991 0.085915 
0.051058 0.21824 0.06068 0 0 0.00396431 0.29991 0.085915 
0.106142 0.257067 0.06068 0 0 0.00396431 0.29991 0.085915 
-0.051044 0.21824 0.06068 0 0 0.00744227 0.29991 0.085915 
0.106142 0.257067 0.06068 0 0 0.00744227 0.29991 0.085915 
0.043251 0.288879 0.06068 0 0 0.00744227 0.29991 0.085915 
-0.051044 0.21824 0.06068 0 0 0.00610985 0.29991 0.085915 
0.043251 0.288879 0.06068 0 0 0.00610985 0.29991 0.085915 
-0.043243 0.288879 0.06068 0 0 0.00610985 0.29991 0.085915 
-0.051044 0.21824 0.06068 0 -0 0.00419503 0.29991 0.085915 
-0.043243 0.288879 0.06068 0 -0 0.00419503 0.29991 0.085915 
-0.106143 0.257067 0.06068 0 -0 0.00419503 0.29991 0.085915 
0.051058 0.21824 0.06068 0.00235602 -0.0033425 0 0.224333 0.081454 
0.051058 0.21824 0 0.00235602 -0.0033425 0 0.224333 0.081454 
0.106142 0.257067 0 0.00235602 -0.0033425 0 0.224333 0.081454 
0.051058 0.21824 0.06068 0.00235602 -0.0033425 0 0.224333 0.081454 
0.106142 0.257067 0 0.00235602 -0.0033425 0 0.224333 0.081454 
0.106142 0.257067 0.06068 0.00235602 -0.0033425 0 0.224333 0.081454 
0.051058 0.21824 0 0 0 -0.00396431 0.293311 0.086806 
-0.051044 0.21824 0 0 0 -0.00396431 0.293311 0.086806 
-0.106143 0.257067 0 0 0 -0.00396431 0.293311 0.086806 
0.051058 0.21824 0 0 0 -0.0074431 0.293311 0.086806 
-0.106143 0.257067 0 0 0 -0.0074431 0.293311 0.086806 
-0.043243 0.288879 0 0 0 -0.0074431 0.293311 0.086806 
0.051058 0.21824 0 0 0 -0.00610985 0.293311 0.086806 
-0.043243 0.288879 0 0 0 -0.00610985 0.293311 0.086806 
0.043251 0.288879 0 0 0 -0.00610985 0.293311 0.086806 
0.051058 0.21824 0 0 0 -0.0041942 0.293311 0.086806 
0.043251 0.288879 0 0 0 -0.0041942 0.293311 0.086806 
0.106142 0.257067 0 0 0 -0.0041942 0.293311 0.086806 
-0.051044 0.21824 0 -0.00235602 -0.00334341 0 0.224333 0.081454 
-0.051044 0.21824 0.06068 -0.00235602 -0.00334341 0 0.224333 0.081454 
-0.106143 0.257067 0.06068 -0.00235602 -0.00334341 0 0.224333 0.081454 
-0.051044 0.21824 0 -0.00235602 -0.00334341 0 0.224333 0.081454 
-0.106143 0.257067 0.06068 -0.00235602 -0.00334341 0 0.224333 0.081454 
-0.106143 0.257067 0 -0.00235602 -0.00334341 0 0.224333 0.081454 
0.106142 0.257067 0.06068 0.00909417 0 0 0.264126 0.082057 
0.106142 0.257067 0 0.00909417 0 0 0.264126 0.082057 
0.106142 0.406938 0 0.00909417 0 0 0.264126 0.082057 
0.106142 0.257067 0.06068 0.00909417 -0 0 0.264126 0.082057 
0.106142 0.406938 0 0.00909417 -0 0 0.264126 0.082057 
0.106142 0.406938 0.06068 0.00909417 -0 0 0.264126 0.082057 
-0.043243 0.406938 0 0 -0 -0.00742591 0.293311 0.086806 
-0.043243 0.288879 0 0 -0 -0.00742591 0.293311 0.086806 
-0.106143 0.257067 0 0 -0 -0.00742591 0.293311 0.086806 
-0.043243 0.406938 0 -0 0 -0.00942689 0.293311 0.086806 
-0.106143 0.257067 0 -0 0 -0.00942689 0.293311 0.086806 
-0.106143 0.406938 0 -0 0 -0.00942689 0.293311 0.086806 
-0.106143 0.257067 0 -0.00909417 0 0 0.264126 0.082057 
-0.106143 0.257067 0.06068 -0.00909417 0 0 0.264126 0.082057 
-0.106143 0.406938 0.06068 -0.00909417 0 0 0.264126 0.082057 
-0.106143 0.257067 0 -0.00909417 0 0 0.264126 0.082057 
-0.106143 0.406938 0.06068 -0.00909417 0 0 0.264126 0.082057 
-0.106143 0.406938 0 -0.00909417 0 0 0.264126 0.082057 
0.106142 0.406938 0.06068 0 0.00381623 0 0.224333 0.081454 
0.106142 0.406938 0 0 0.00381623 0 0.224333 0.081454 
0.043251 0.406938 0 0 0.00381623 0 0.224333 0.081454 
0.106142 0.406938 0.06068 0 0.00381623 0 0.224333 0.081454 
0.043251 0.406938 0 0 0.00381623 0 0.224333 0.081454 
0.043251 0.406938 0.06068 0 0.00381623 0 0.224333 0.081454 
-0.106143 0.406938 0 0 0.00381677 0 0.224333 0.081454 
-0.106143 0.406938 0.06068 0 0.00381677 0 0.224333 0.081454 
-0.043243 0.406938 0.06068 0 0.00381677 0 0.224333 0.081454 
-0.106143 0.406938 0 0 0.00381677 0 0.224333 0.081454 
-0.043243 0.406938 0.06068 0 0.00381677 0 0.224333 0.081454 
-0.043243 0.406938 0 0 0.00381677 0 0.224333 0.081454 
-0.043243 0.288879 0.06068 0 -0 0.00742591 0.29991 0.085915 
-0.043243 0.406938 0.06068 0 -0 0.00742591 0.29991 0.085915 
-0.106143 0.406938 0.06068 0 -0 0.00742591 0.29991 0.085915 
-0.043243 0.288879 0.06068 0 0 0.00942689 0.29991 0.085915 
-0.106143 0.406938 0.06068 0 0 0.00942689 0.29991 0.085915 
-0.106143 0.257067 0.06068 0 0 0.00942689 0.29991 0.085915 
0.106142 0.406938 0.06068 0 0 0.00742485 0.29991 0.085915 
0.043251 0.406938 0.06068 0 0 0.00742485 0.29991 0.085915 
0.043251 0.288879 0.06068 0 0 0.00742485 0.29991 0.085915 
0.106142 0.406938 0.06068 0 0 0.00942554 0.29991 0.085915 
0.043251 0.288879 0.06068 0 0 0.00942554 0.29991 0.085915 
0.106142 0.257067 0.06068 0 0 0.00942554 0.29991 0.085915 
0.106142 0.406938 0 0 -0 -0.00942554 0.293311 0.086806 
0.106142 0.257067 0 0 -0 -0.00942554 0.293311 0.086806 
0.043251 0.288879 0 0 -0 -0.00942554 0.293311 0.086806 
0.106142 0.406938 0 -0 0 -0.00742485 0.293311 0.086806 
0.043251 0.288879 0 -0 0 -0.00742485 0.293311 0.086806 
0.043251 0.406938 0 -0 0 -0.00742485 0.293311 0.086806 
0.043251 0.406938 0.06068 0 0 0 0.264126 0.082057 
0.043251 0.406938 0 0 0 0 0.264126 0.082057 
0.043251 0.406938 0.03034 0 0 0 0.264126 0.082057 
-0.043243 0.406938 0 0 0 0 0.264126 0.082057 
-0.043243 0.406938 0.06068 0 0 0 0.264126 0.082057 
-0.043243 0.406938 0.03034 0 0 0 0.264126 0.082057 
0.043251 0.406938 0.03034 -0.00358191 0 -0 0.264126 0.082057 
0.043251 0.406938 0 -0.00358191 0 -0 0.264126 0.082057 
0.043251 0.288879 0 -0.00358191 0 -0 0.264126 0.082057 
0.043251 0.406938 0.03034 -0.00716382 -0 0 0.264126 0.082057 
0.043251 0.288879 0 -0.00716382 -0 0 0.264126 0.082057 
0.043251 0.288879 0.06068 -0.00716382 -0 0 0.264126 0.082057 
0.043251 0.406938 0.03034 -0.00358191 0 0 0.264126 0.082057 
0.043251 0.288879 0.06068 -0.00358191 0 0 0.264126 0.082057 
0.043251 0.406938 0.06068 -0.00358191 0 0 0.264126 0.082057 
0.043251 0.288879 0.06068 0 0.00524846 0 0.224333 0.081454 
0.043251 0.288879 0 0 0.00524846 0 0.224333 0.081454 
-0.043243 0.288879 0 0 0.00524846 0 0.224333 0.081454 
0.043251 0.288879 0.06068 0 0.00524846 0 0.224333 0.081454 
-0.043243 0.288879 0 0 0.00524846 0 0.224333 0.081454 
-0.043243 0.288879 0.06068 0 0.00524846 0 0.224333 0.081454 
-0.043243 0.288879 0.06068 0.00716382 0 0 0.264126 0.082057 
-0.043243 0.288879 0 0.00716382 0 0 0.264126 0.082057 
-0.043243 0.406938 0 0.00716382 0 0 0.264126 0.082057 
-0.043243 0.288879 0.06068 0.00358191 0 0 0.264126 0.082057 
-0.043243 0.406938 0 0.00358191 0 0 0.264126 0.082057 
-0.043243 0.406938 0.03034 0.00358191 0 0 0.264126 0.082057 
-0.043243 0.288879 0.06068 0.00358191 -0 0 0.264126 0.082057 
-0.043243 0.406938 0.03034 0.00358191 -0 0 0.264126 0.082057 
-0.043243 0.406938 0.06068 0.00358191 -0 0 0.264126 0.082057 
0.051058 -0.441897 0 0 0 -0.00268352 0.293311 0.086806 
0.100522 -0.441897 0 0 0 -0.00268352 0.293311 0.086806 
0.051538 -0.496149 0 0 0 -0.00268352 0.293311 0.086806 
-0.05153 -0.496149 0 0 0 -0.00268444 0.293311 0.086806 
-0.100525 -0.441897 0 0 0 -0.00268444 0.293311 0.086806 
-0.051044 -0.441897 0 0 0 -0.00268444 0.293311 0.086806 
-0.05153 -0.496149 0 0 0 -0.00553924 0.293311 0.086806 
-0.051044 -0.441897 0 0 0 -0.00553924 0.293311 0.086806 
0.051058 -0.441897 0 0 0 -0.00553924 0.293311 0.086806 
-0.05153 -0.496149 0 0 0 -0.00559164 0.293311 0.086806 
0.051058 -0.441897 0 0 0 -0.00559164 0.293311 0.086806 
0.051538 -0.496149 0 0 0 -0.00559164 0.293311 0.086806 
0.100522 -0.441897 0 0 -0 -0.0107292 0.293311 0.086806 
0.100522 -0.660931 0 0 -0 -0.0107292 0.293311 0.086806 
0.051538 -0.609482 0 0 -0 -0.0107292 0.293311 0.086806 
0.100522 -0.441897 0 0 0 -0.0055515 0.293311 0.086806 
0.051538 -0.609482 0 0 0 -0.0055515 0.293311 0.086806 
0.051538 -0.496149 0 0 0 -0.0055515 0.293311 0.086806 
-0.100525 -0.660931 0 0 0 -0.0107316 0.293311 0.086806 
-0.100525 -0.441897 0 0 0 -0.0107316 0.293311 0.086806 
-0.05153 -0.496149 0 0 0 -0.0107316 0.293311 0.086806 
-0.100525 -0.660931 0 0 0 -0.00555275 0.293311 0.086806 
-0.05153 -0.496149 0 0 0 -0.00555275 0.293311 0.086806 
-0.05153 -0.609482 0 0 0 -0.00555275 0.293311 0.086806 
-0.05153 -0.609482 0 0 0 -0.00530275 0.293311 0.086806 
0.051538 -0.609482 0 0 0 -0.00530275 0.293311 0.086806 
0.100522 -0.660931 0 0 0 -0.00530275 0.293311 0.086806 
-0.05153 -0.609482 0 0 -0 -0.0103437 0.293311 0.086806 
0.100522 -0.660931 0 0 -0 -0.0103437 0.293311 0.086806 
-0.100525 -0.660931 0 0 -0 -0.0103437 0.293311 0.086806 
0.051538 -0.496149 0.06068 0 -0 0.00268347 0.29991 0.085915 
0.100522 -0.441898 0.06068 0 -0 0.00268347 0.29991 0.085915 
0.051058 -0.441898 0.06068 0 -0 0.00268347 0.29991 0.085915 
0.051538 -0.496149 0.06068 0 0 0.00553914 0.29991 0.085915 
0.051058 -0.441898 0.06068 0 0 0.00553914 0.29991 0.085915 
-0.051044 -0.441898 0.06068 0 0 0.00553914 0.29991 0.085915 
0.051538 -0.496149 0.06068 0 0 0.00268439 0.29991 0.085915 
-0.051044 -0.441898 0.06068 0 0 0.00268439 0.29991 0.085915 
-0.100525 -0.441898 0.06068 0 0 0.00268439 0.29991 0.085915 
0.051538 -0.496149 0.06068 0 0 0.00559154 0.29991 0.085915 
-0.100525 -0.441898 0.06068 0 0 0.00559154 0.29991 0.085915 
-0.05153 -0.496149 0.06068 0 0 0.00559154 0.29991 0.085915 
-0.100525 -0.441898 0.06068 0 0 0.0107315 0.29991 0.085915 
-0.100525 -0.660931 0.06068 0 0 0.0107315 0.29991 0.085915 
-0.05153 -0.609482 0.06068 0 0 0.0107315 0.29991 0.085915 
-0.100525 -0.441898 0.06068 0 0 0.00555275 0.29991 0.085915 
-0.05153 -0.609482 0.06068 0 0 0.00555275 0.29991 0.085915 
-0.05153 -0.496149 0.06068 0 0 0.00555275 0.29991 0.085915 
0.100522 -0.660931 0.06068 0 -0 0.0107291 0.29991 0.085915 
0.100522 -0.441898 0.06068 0 -0 0.0107291 0.29991 0.085915 
0.051538 -0.496149 0.06068 0 -0 0.0107291 0.29991 0.085915 
0.100522 -0.660931 0.06068 0 0 0.0055515 0.29991 0.085915 
0.051538 -0.496149 0.06068 0 0 0.0055515 0.29991 0.085915 
0.051538 -0.609482 0.06068 0 0 0.0055515 0.29991 0.085915 
0.051538 -0.609482 0.06068 0 0 0.00530275 0.29991 0.085915 
-0.05153 -0.609482 0.06068 0 0 0.00530275 0.29991 0.085915 
-0.100525 -0.660931 0.06068 0 0 0.00530275 0.29991 0.085915 
0.051538 -0.609482 0.06068 0 0 0.0103437 0.29991 0.085915 
-0.100525 -0.660931 0.06068 0 0 0.0103437 0.29991 0.085915 
0.100522 -0.660931 0.06068 0 0 0.0103437 0.29991 0.085915 
0.051538 -0.609482 0 0 0.00625417 0 0.224333 0.081454 
-0.05153 -0.609482 0 0 0.00625417 0 0.224333 0.081454 
-0.05153 -0.609482 0.06068 0 0.00625417 0 0.224333 0.081454 
0.051538 -0.609482 0 0 0.00625417 -0 0.224333 0.081454 
-0.05153 -0.609482 0.06068 0 0.00625417 -0 0.224333 0.081454 
0.051538 -0.609482 0.06068 0 0.00625417 -0 0.224333 0.081454 
-0.05153 -0.609482 0 0.00687705 0 0 0.264126 0.082057 
-0.05153 -0.496149 0 0.00687705 0 0 0.264126 0.082057 
-0.05153 -0.496149 0.06068 0.00687705 0 0 0.264126 0.082057 
-0.05153 -0.609482 0 0.00687705 0 0 0.264126 0.082057 
-0.05153 -0.496149 0.06068 0.00687705 0 0 0.264126 0.082057 
-0.05153 -0.609482 0.06068 0.00687705 0 0 0.264126 0.082057 
0.051538 -0.496149 0 0 -0.00625417 0 0.224333 0.081454 
0.051538 -0.496149 0.06068 0 -0.00625417 0 0.224333 0.081454 
-0.05153 -0.496149 0.06068 0 -0.00625417 0 0.224333 0.081454 
0.051538 -0.496149 0 0 -0.00625417 0 0.224333 0.081454 
-0.05153 -0.496149 0.06068 0 -0.00625417 0 0.224333 0.081454 
-0.05153 -0.496149 0 0 -0.00625417 0 0.224333 0.081454 
0.051538 -0.609482 0 -0.00687705 0 0 0.264126 0.082057 
0.051538 -0.609482 0.06068 -0.00687705 0 0 0.264126 0.082057 
0.051538 -0.496149 0.06068 -0.00687705 0 0 0.264126 0.082057 
0.051538 -0.609482 0 -0.00687705 0 0 0.264126 0.082057 
0.051538 -0.496149 0.06068 -0.00687705 0 0 0.264126 0.082057 
0.051538 -0.496149 0 -0.00687705 0 0 0.264126 0.082057 
-0.051044 0.11943 0.06068 -0.0286668 0 -0 0.175731 0.063419 
-0.051044 0.11943 0 -0.0286668 0 -0 0.175731 0.063419 
-0.051044 -0.352996 0 -0.0286668 0 -0 0.175731 0.063419 
-0.051044 0.11943 0.06068 -0.0286668 -0 0 0.175731 0.063419 
-0.051044 -0.352996 0 -0.0286668 -0 0 0.175731 0.063419 
-0.051044 -0.352996 0.06068 -0.0286668 -0 0 0.175731 0.063419 
-0.051044 -0.352996 0.06068 0 0 0.0482356 0.211515 0.063649 
0.051058 -0.352996 0.06068 0 0 0.0482356 0.211515 0.063649 
0.051058 0.11943 0.06068 0 0 0.0482356 0.211515 0.063649 
-0.051044 -0.352996 0.06068 0 0 0.0482356 0.211515 0.063649 
0.051058 0.11943 0.06068 0 0 0.0482356 0.211515 0.063649 
-0.051044 0.11943 0.06068 0 0 0.0482356 0.211515 0.063649 
0.051058 -0.352996 0.06068 0.0286668 0 0 0.175731 0.063419 
0.051058 -0.352996 0 0.0286668 0 0 0.175731 0.063419 
0.051058 0.11943 0 0.0286668 0 0 0.175731 0.063419 
0.051058 -0.352996 0.06068 0.0286668 -0 0 0.175731 0.063419 
0.051058 0.11943 0 0.0286668 -0 0 0.175731 0.063419 
0.051058 0.11943 0.06068 0.0286668 -0 0 0.175731 0.063419 
-0.051044 0.11943 0 0 0 -0.0482356 0.204916 0.063702 
0.051058 0.11943 0 0 0 -0.0482356 0.204916 0.063702 
0.051058 -0.352996 0 0 0 -0.0482356 0.204916 0.063702 
-0.051044 0.11943 0 0 0 -0.0482356 0.204916 0.063702 
0.051058 -0.352996 0 0 0 -0.0482356 0.204916 0.063702 
-0.051044 -0.352996 0 0 0 -0.0482356 0.204916 0.063702 
-0.051044 -0.352996 0.06068 -0.00539451 0 -0 0.264126 0.082057 
-0.051044 -0.352996 0 -0.00539451 0 -0 0.264126 0.082057 
-0.051044 -0.441897 0 -0.00539451 0 -0 0.264126 0.082057 
-0.051044 -0.352996 0.06068 -0.00539457 -0 0 0.264126 0.082057 
-0.051044 -0.441897 0 -0.00539457 -0 0 0.264126 0.082057 
-0.051044 -0.441898 0.06068 -0.00539457 -0 0 0.264126 0.082057 
-0.051044 -0.441898 0.06068 0 0 0.00907707 0.29991 0.085915 
0.051058 -0.441898 0.06068 0 0 0.00907707 0.29991 0.085915 
0.051058 -0.352996 0.06068 0 0 0.00907707 0.29991 0.085915 
-0.051044 -0.441898 0.06068 0 0 0.00907707 0.29991 0.085915 
0.051058 -0.352996 0.06068 0 0 0.00907707 0.29991 0.085915 
-0.051044 -0.352996 0.06068 0 0 0.00907707 0.29991 0.085915 
0.051058 -0.441897 0 0.00539451 0 0 0.264126 0.082057 
0.051058 -0.352996 0 0.00539451 0 0 0.264126 0.082057 
0.051058 -0.352996 0.06068 0.00539451 0 0 0.264126 0.082057 
0.051058 -0.441897 0 0.00539457 0 -0 0.264126 0.082057 
0.051058 -0.352996 0.06068 0.00539457 0 -0 0.264126 0.082057 
0.051058 -0.441898 0.06068 0.00539457 0 -0 0.264126 0.082057 
-0.051044 -0.352996 0 0 0 -0.00907697 0.293311 0.086806 
0.051058 -0.352996 0 0 0 -0.00907697 0.293311 0.086806 
0.051058 -0.441897 0 0 0 -0.00907697 0.293311 0.086806 
-0.051044 -0.352996 0 0 0 -0.00907697 0.293311 0.086806 
0.051058 -0.441897 0 0 0 -0.00907697 0.293311 0.086806 
-0.051044 -0.441897 0 0 0 -0.00907697 0.293311 0.086806 
3 0 1 2
3 3 4 5
3 6 7 8
3 9 10 11
3 12 13 14
3 15 16 17
3 18 19 20
3 21 22 23
3 24 25 26
3 27 28 29
3 30 31 32
3 33 34 35
3 36 37 38
3 39 40 41
3 42 43 44
3 45 46 47
3 48 49 50
3 51 52 53
3 54 55 56
3 57 58 59
3 60 61 62
3 63 64 65
3 66 67 68
3 69 70 71
3 72 73 74
3 75 76 77
3 78 79 80
3 81 82 83
3 84 85 86
3 87 88 89
3 90 91 92
3 93 94 95
3 96 97 98
3 99 100 101
3 102 103 104
3 105 106 107
3 108 109 110
3 111 112 113
3 114 115 116
3 117 118 119
3 120 121 122
3 123 124 125
3 126 127 128
3 129 130 131
3 132 133 134
3 135 136 137
3 138 139 140
3 141 142 143
3 144 145 146
3 147 148 149
3 150 151 152
3 153 154 155
3 156 157 158
3 159 160 161
3 162 163 164
3 165 166 167
3 168 169 170
3 171 172 173
3 174 175 176
3 177 178 179
3 180 181 182
3 183 184 185
3 186 187 188
3 189 190 191
3 192 193 194
3 195 196 197
3 198 199 200
3 201 202 203
3 204 205 206
3 207 208 209
3 210 211 212
3 213 214 215
3 216 217 218
3 219 220 221
3 222 223 224
3 225 226 227
3 228 229 230
3 231 232 233
3 234 235 236
3 237 238 239
3 240 241 242
3 243 244 245
3 246 247 248
3 249 250 251
3 252 253 254
3 255 256 257
3 258 259 260
3 261 262 263
3 264 265 266
3 267 268 269
3 270 271 272
3 273 274 275
3 276 277 278
3 279 280 281
3 282 283 284
3 285 286 287
3 288 289 290
3 291 292 293
3 294 295 296
3 297 298 299
