ply
format ascii 1.0
comment Feeney's Flatenator generated
comment TextureFile SpaceInteriors_Texture.png
element vertex 204
property float x
property float y
property float z
element face 68
property list uchar int vertex_indices
end_header
-0.040665 0.2012 -0.268201 
-0.040665 0.2012 -0.186876 
-0.040665 0.677214 -0.186876 
-0.040665 0.2012 -0.268201 
-0.040665 0.677214 -0.186876 
-0.040665 0.726872 -0.268201 
-0.032532 1.16986 0.321442 
-0.032532 1.10911 0.367481 
0.032532 1.10911 0.367481 
-0.032532 1.16986 0.321442 
0.032532 1.10911 0.367481 
0.032532 1.16986 0.321442 
0.040665 0.726872 -0.268201 
0.040665 0.677214 -0.186876 
0.040665 0.2012 -0.186876 
0.040665 0.726872 -0.268201 
0.040665 0.2012 -0.186876 
0.040665 0.2012 -0.268201 
-0.040665 0.2012 -0.186876 
0.040665 0.2012 -0.186876 
0.040665 0.677214 -0.186876 
-0.040665 0.2012 -0.186876 
0.040665 0.677214 -0.186876 
-0.040665 0.677214 -0.186876 
0.040665 0.2012 -0.268201 
-0.040665 0.2012 -0.268201 
-0.040665 0.726872 -0.268201 
0.040665 0.2012 -0.268201 
-0.040665 0.726872 -0.268201 
0.040665 0.726872 -0.268201 
-0.040665 0.726872 -0.268201 
-0.040665 0.677214 -0.186876 
-0.040665 0.947626 0.170157 
-0.040665 0.726872 -0.268201 
-0.040665 0.947626 0.170157 
-0.040665 1.02357 0.112603 
-0.040665 0.677214 -0.186876 
0.040665 0.677214 -0.186876 
0.040665 0.947626 0.170157 
-0.040665 0.677214 -0.186876 
0.040665 0.947626 0.170157 
-0.040665 0.947626 0.170157 
0.040665 0.677214 -0.186876 
0.040665 0.726872 -0.268201 
0.040665 1.02357 0.112603 
0.040665 0.677214 -0.186876 
0.040665 1.02357 0.112603 
0.040665 0.947626 0.170157 
0.040665 0.726872 -0.268201 
-0.040665 0.726872 -0.268201 
-0.040665 1.02357 0.112603 
0.040665 0.726872 -0.268201 
-0.040665 1.02357 0.112603 
0.040665 1.02357 0.112603 
-0.040665 1.02357 0.112603 
-0.040665 0.947626 0.170157 
-0.054214 1.06813 0.355474 
-0.040665 1.02357 0.112603 
-0.054214 1.06813 0.355474 
-0.054214 1.16939 0.278743 
-0.040665 0.947626 0.170157 
0.040665 0.947626 0.170157 
0.054214 1.06813 0.355474 
-0.040665 0.947626 0.170157 
0.054214 1.06813 0.355474 
-0.054214 1.06813 0.355474 
0.040665 0.947626 0.170157 
0.040665 1.02357 0.112603 
0.054214 1.16939 0.278743 
0.040665 0.947626 0.170157 
0.054214 1.16939 0.278743 
0.054214 1.06813 0.355474 
0.040665 1.02357 0.112603 
-0.040665 1.02357 0.112603 
-0.054214 1.16939 0.278743 
0.040665 1.02357 0.112603 
-0.054214 1.16939 0.278743 
0.054214 1.16939 0.278743 
-0.054214 1.16939 0.278743 
-0.054214 1.06813 0.355474 
-0.032532 1.10911 0.367481 
-0.054214 1.16939 0.278743 
-0.032532 1.10911 0.367481 
-0.032532 1.16986 0.321442 
-0.054214 1.06813 0.355474 
0.054214 1.06813 0.355474 
0.032532 1.10911 0.367481 
-0.054214 1.06813 0.355474 
0.032532 1.10911 0.367481 
-0.032532 1.10911 0.367481 
0.054214 1.06813 0.355474 
0.054214 1.16939 0.278743 
0.032532 1.16986 0.321442 
0.054214 1.06813 0.355474 
0.032532 1.16986 0.321442 
0.032532 1.10911 0.367481 
0.054214 1.16939 0.278743 
-0.054214 1.16939 0.278743 
-0.032532 1.16986 0.321442 
0.054214 1.16939 0.278743 
-0.032532 1.16986 0.321442 
0.032532 1.16986 0.321442 
-0.040665 0.2012 -0.186876 
-0.040665 0.2012 -0.268201 
-0.078461 0.2012 -0.305997 
-0.040665 0.2012 -0.186876 
-0.078461 0.2012 -0.305997 
-0.078461 0.2012 -0.149077 
0.040665 0.2012 -0.268201 
0.040665 0.2012 -0.186876 
0.078461 0.2012 -0.149077 
0.040665 0.2012 -0.268201 
0.078461 0.2012 -0.149077 
0.078461 0.2012 -0.305997 
-0.040665 0.2012 -0.268201 
0.040665 0.2012 -0.268201 
0.078461 0.2012 -0.305997 
-0.040665 0.2012 -0.268201 
0.078461 0.2012 -0.305997 
-0.078461 0.2012 -0.305997 
0.040665 0.2012 -0.186876 
-0.040665 0.2012 -0.186876 
-0.078461 0.2012 -0.149077 
0.040665 0.2012 -0.186876 
-0.078461 0.2012 -0.149077 
0.078461 0.2012 -0.149077 
-0.078461 0.2012 -0.149077 
-0.078461 0.2012 -0.305997 
-0.078461 0.128617 -0.305997 
-0.078461 0.2012 -0.149077 
-0.078461 0.128617 -0.305997 
-0.078461 0.128617 -0.149077 
0.078461 0.2012 -0.305997 
0.078461 0.2012 -0.149077 
0.078461 0.128617 -0.149077 
0.078461 0.2012 -0.305997 
0.078461 0.128617 -0.149077 
0.078461 0.128617 -0.305997 
-0.078461 0.2012 -0.305997 
0.078461 0.2012 -0.305997 
0.078461 0.128617 -0.305997 
-0.078461 0.2012 -0.305997 
0.078461 0.128617 -0.305997 
-0.078461 0.128617 -0.305997 
0.078461 0.2012 -0.149077 
-0.078461 0.2012 -0.149077 
-0.078461 0.128617 -0.149077 
0.078461 0.2012 -0.149077 
-0.078461 0.128617 -0.149077 
0.078461 0.128617 -0.149077 
-0.257637 0 -0.367481 
-0.257637 0 0.138445 
-0.257637 0.128617 0.138445 
-0.257637 0 -0.367481 
-0.257637 0.128617 0.138445 
-0.257637 0.128617 -0.367481 
-0.132164 0.128617 -0.077854 
-0.132164 0.128617 0.072594 
0.132164 0.128617 0.072594 
-0.132164 0.128617 -0.077854 
0.132164 0.128617 0.072594 
0.132164 0.128617 -0.077854 
0.257637 0.128617 -0.367481 
0.257637 0.128617 0.138445 
0.257637 0 0.138445 
0.257637 0.128617 -0.367481 
0.257637 0 0.138445 
0.257637 0 -0.367481 
-0.257637 0 0.138445 
0.257637 0 0.138445 
0.257637 0.128617 0.138445 
-0.257637 0 0.138445 
0.257637 0.128617 0.138445 
-0.257637 0.128617 0.138445 
0.257637 0 -0.367481 
-0.257637 0 -0.367481 
-0.257637 0.128617 -0.367481 
0.257637 0 -0.367481 
-0.257637 0.128617 -0.367481 
0.257637 0.128617 -0.367481 
-0.257637 0.128617 -0.367481 
-0.257637 0.128617 0.138445 
-0.132164 0.128617 0.072594 
-0.257637 0.128617 -0.367481 
-0.132164 0.128617 0.072594 
-0.132164 0.128617 -0.077854 
-0.257637 0.128617 0.138445 
0.257637 0.128617 0.138445 
0.132164 0.128617 0.072594 
-0.257637 0.128617 0.138445 
0.132164 0.128617 0.072594 
-0.132164 0.128617 0.072594 
0.257637 0.128617 0.138445 
0.257637 0.128617 -0.367481 
0.132164 0.128617 -0.077854 
0.257637 0.128617 0.138445 
0.132164 0.128617 -0.077854 
0.132164 0.128617 0.072594 
0.257637 0.128617 -0.367481 
-0.257637 0.128617 -0.367481 
-0.132164 0.128617 -0.077854 
0.257637 0.128617 -0.367481 
-0.132164 0.128617 -0.077854 
0.132164 0.128617 -0.077854 
3 0 1 2
3 3 4 5
3 6 7 8
3 9 10 11
3 12 13 14
3 15 16 17
3 18 19 20
3 21 22 23
3 24 25 26
3 27 28 29
3 30 31 32
3 33 34 35
3 36 37 38
3 39 40 41
3 42 43 44
3 45 46 47
3 48 49 50
3 51 52 53
3 54 55 56
3 57 58 59
3 60 61 62
3 63 64 65
3 66 67 68
3 69 70 71
3 72 73 74
3 75 76 77
3 78 79 80
3 81 82 83
3 84 85 86
3 87 88 89
3 90 91 92
3 93 94 95
3 96 97 98
3 99 100 101
3 102 103 104
3 105 106 107
3 108 109 110
3 111 112 113
3 114 115 116
3 117 118 119
3 120 121 122
3 123 124 125
3 126 127 128
3 129 130 131
3 132 133 134
3 135 136 137
3 138 139 140
3 141 142 143
3 144 145 146
3 147 148 149
3 150 151 152
3 153 154 155
3 156 157 158
3 159 160 161
3 162 163 164
3 165 166 167
3 168 169 170
3 171 172 173
3 174 175 176
3 177 178 179
3 180 181 182
3 183 184 185
3 186 187 188
3 189 190 191
3 192 193 194
3 195 196 197
3 198 199 200
3 201 202 203
