ply
format ascii 1.0
comment Feeney's Flatenator generated
comment TextureFile SpaceInteriors_Texture.png
element vertex 156
property float x
property float y
property float z
property float nx
property float ny
property float nz
property float texture_u
property float texture_v
element face 52
property list uchar int vertex_indices
end_header
-0.406568 -0.022446 0.548069 0 0 0.0365033 0.265772 0.443252 
0.406569 -0.022446 0.548069 0 0 0.0365033 0.265772 0.443252 
0.406569 0.022446 0.548069 0 0 0.0365033 0.265772 0.443252 
-0.406568 -0.022446 0.548069 0 0 0.0365033 0.265772 0.443252 
0.406569 0.022446 0.548069 0 0 0.0365033 0.265772 0.443252 
-0.406568 0.022446 0.548069 0 0 0.0365033 0.265772 0.443252 
-0.224083 0.121474 0.082337 -0 0.0359049 0 0.423193 0.480927 
0.05694 0.121474 0.082337 -0 0.0359049 0 0.423193 0.480927 
0.05694 0.121474 -0.045428 -0 0.0359049 0 0.423193 0.480927 
-0.224083 0.121474 0.082337 0 0.0359049 0 0.423193 0.480927 
0.05694 0.121474 -0.045428 0 0.0359049 0 0.423193 0.480927 
-0.224083 0.121474 -0.045428 0 0.0359049 0 0.423193 0.480927 
-0.406568 0.022446 -0.308707 0 0 -0.0365033 0.265772 0.443252 
0.406569 0.022446 -0.308707 0 0 -0.0365033 0.265772 0.443252 
0.406569 -0.022446 -0.308707 0 0 -0.0365033 0.265772 0.443252 
-0.406568 0.022446 -0.308707 0 0 -0.0365033 0.265772 0.443252 
0.406569 -0.022446 -0.308707 0 0 -0.0365033 0.265772 0.443252 
-0.406568 -0.022446 -0.308707 0 0 -0.0365033 0.265772 0.443252 
-0.272132 -0.121475 -0.087164 0 -0.240688 0 0.111371 0.443017 
0.272134 -0.121475 -0.087164 0 -0.240688 0 0.111371 0.443017 
0.272134 -0.121475 0.355061 0 -0.240688 0 0.111371 0.443017 
-0.272132 -0.121475 -0.087164 0 -0.240688 0 0.111371 0.443017 
0.272134 -0.121475 0.355061 0 -0.240688 0 0.111371 0.443017 
-0.272132 -0.121475 0.355061 0 -0.240688 0 0.111371 0.443017 
0.406569 -0.022446 0.548069 0.0384624 0 0 0.233733 0.443252 
0.406569 -0.022446 -0.308707 0.0384624 0 0 0.233733 0.443252 
0.406569 0.022446 -0.308707 0.0384624 0 0 0.233733 0.443252 
0.406569 -0.022446 0.548069 0.0384624 -0 0 0.233733 0.443252 
0.406569 0.022446 -0.308707 0.0384624 -0 0 0.233733 0.443252 
0.406569 0.022446 0.548069 0.0384624 -0 0 0.233733 0.443252 
-0.406568 -0.022446 -0.308707 -0.0384624 0 0 0.233733 0.443252 
-0.406568 -0.022446 0.548069 -0.0384624 0 0 0.233733 0.443252 
-0.406568 0.022446 0.548069 -0.0384624 0 0 0.233733 0.443252 
-0.406568 -0.022446 -0.308707 -0.0384624 0 0 0.233733 0.443252 
-0.406568 0.022446 0.548069 -0.0384624 0 0 0.233733 0.443252 
-0.406568 0.022446 -0.308707 -0.0384624 0 0 0.233733 0.443252 
-0.406568 0.022446 0.548069 -0 0.122053 0 0.300637 0.443252 
0.406569 0.022446 0.548069 -0 0.122053 0 0.300637 0.443252 
0.32494 0.022446 0.397968 -0 0.122053 0 0.300637 0.443252 
-0.406568 0.022446 0.548069 0 0.0975474 0 0.300637 0.443252 
0.32494 0.022446 0.397968 0 0.0975474 0 0.300637 0.443252 
-0.324938 0.022446 0.397968 0 0.0975474 0 0.300637 0.443252 
0.406569 0.022446 0.548069 0 0.0699378 0 0.300637 0.443252 
0.406569 0.022446 -0.308707 0 0.0699378 0 0.300637 0.443252 
0.32494 0.022446 -0.130069 0 0.0699378 0 0.300637 0.443252 
0.406569 0.022446 0.548069 0 0.0431031 0 0.300637 0.443252 
0.32494 0.022446 -0.130069 0 0.0431031 0 0.300637 0.443252 
0.32494 0.022446 0.397968 0 0.0431031 0 0.300637 0.443252 
0.406569 0.022446 -0.308707 0 0.145257 0 0.300637 0.443252 
-0.406568 0.022446 -0.308707 0 0.145257 0 0.300637 0.443252 
-0.324938 0.022446 -0.130069 0 0.145257 0 0.300637 0.443252 
0.406569 0.022446 -0.308707 0 0.116093 0 0.300637 0.443252 
-0.324938 0.022446 -0.130069 0 0.116093 0 0.300637 0.443252 
0.32494 0.022446 -0.130069 0 0.116093 0 0.300637 0.443252 
-0.406568 0.022446 -0.308707 0 0.0699386 0 0.300637 0.443252 
-0.406568 0.022446 0.548069 0 0.0699386 0 0.300637 0.443252 
-0.324938 0.022446 0.397968 0 0.0699386 0 0.300637 0.443252 
-0.406568 0.022446 -0.308707 0 0.0431037 0 0.300637 0.443252 
-0.324938 0.022446 0.397968 0 0.0431037 0 0.300637 0.443252 
-0.324938 0.022446 -0.130069 0 0.0431037 0 0.300637 0.443252 
-0.406568 -0.022446 -0.308707 0 -0.145257 0 0.200753 0.443252 
0.406569 -0.022446 -0.308707 0 -0.145257 0 0.200753 0.443252 
0.32494 -0.022446 -0.130069 0 -0.145257 0 0.200753 0.443252 
-0.406568 -0.022446 -0.308707 0 -0.116093 0 0.200753 0.443252 
0.32494 -0.022446 -0.130069 0 -0.116093 0 0.200753 0.443252 
-0.324938 -0.022446 -0.130069 0 -0.116093 0 0.200753 0.443252 
0.406569 -0.022446 -0.308707 0 -0.0699378 0 0.200753 0.443252 
0.406569 -0.022446 0.548069 0 -0.0699378 0 0.200753 0.443252 
0.32494 -0.022446 0.397968 0 -0.0699378 0 0.200753 0.443252 
0.406569 -0.022446 -0.308707 0 -0.0431031 0 0.200753 0.443252 
0.32494 -0.022446 0.397968 0 -0.0431031 0 0.200753 0.443252 
0.32494 -0.022446 -0.130069 0 -0.0431031 0 0.200753 0.443252 
0.406569 -0.022446 0.548069 -0 -0.122053 0 0.200753 0.443252 
-0.406568 -0.022446 0.548069 -0 -0.122053 0 0.200753 0.443252 
-0.324938 -0.022446 0.397968 -0 -0.122053 0 0.200753 0.443252 
0.406569 -0.022446 0.548069 0 -0.0975473 0 0.200753 0.443252 
-0.324938 -0.022446 0.397968 0 -0.0975473 0 0.200753 0.443252 
0.32494 -0.022446 0.397968 0 -0.0975473 0 0.200753 0.443252 
-0.406568 -0.022446 0.548069 0 -0.0699386 0 0.200753 0.443252 
-0.406568 -0.022446 -0.308707 0 -0.0699386 0 0.200753 0.443252 
-0.324938 -0.022446 -0.130069 0 -0.0699386 0 0.200753 0.443252 
-0.406568 -0.022446 0.548069 0 -0.0431037 0 0.200753 0.443252 
-0.324938 -0.022446 -0.130069 0 -0.0431037 0 0.200753 0.443252 
-0.324938 -0.022446 0.397968 0 -0.0431037 0 0.200753 0.443252 
-0.324938 0.022446 0.397968 -0 0.0278843 0.0643561 0.22427 0.443037 
0.32494 0.022446 0.397968 -0 0.0278843 0.0643561 0.22427 0.443037 
0.272134 0.121474 0.355061 -0 0.0278843 0.0643561 0.22427 0.443037 
-0.324938 0.022446 0.397968 0 0.0233528 0.0538976 0.22427 0.443037 
0.272134 0.121474 0.355061 0 0.0233528 0.0538976 0.22427 0.443037 
-0.272132 0.121474 0.355061 0 0.0233528 0.0538976 0.22427 0.443037 
0.32494 0.022446 0.397968 0.0522904 0.0278835 0 0.197672 0.443024 
0.32494 0.022446 -0.130069 0.0522904 0.0278835 0 0.197672 0.443024 
0.272134 0.121474 -0.087164 0.0522904 0.0278835 0 0.197672 0.443024 
0.32494 0.022446 0.397968 0.0437927 0.0233521 0 0.197672 0.443024 
0.272134 0.121474 -0.087164 0.0437927 0.0233521 0 0.197672 0.443024 
0.272134 0.121474 0.355061 0.0437927 0.0233521 0 0.197672 0.443024 
0.32494 0.022446 -0.130069 0 0.027883 -0.0643561 0.22427 0.443037 
-0.324938 0.022446 -0.130069 0 0.027883 -0.0643561 0.22427 0.443037 
-0.272132 0.121474 -0.087164 0 0.027883 -0.0643561 0.22427 0.443037 
0.32494 0.022446 -0.130069 0 0.0233517 -0.0538976 0.22427 0.443037 
-0.272132 0.121474 -0.087164 0 0.0233517 -0.0538976 0.22427 0.443037 
0.272134 0.121474 -0.087164 0 0.0233517 -0.0538976 0.22427 0.443037 
-0.324938 0.022446 -0.130069 -0.0522904 0.0278835 0 0.197672 0.443024 
-0.324938 0.022446 0.397968 -0.0522904 0.0278835 0 0.197672 0.443024 
-0.272132 0.121474 0.355061 -0.0522904 0.0278835 0 0.197672 0.443024 
-0.324938 0.022446 -0.130069 -0.0437927 0.0233521 0 0.197672 0.443024 
-0.272132 0.121474 0.355061 -0.0437927 0.0233521 0 0.197672 0.443024 
-0.272132 0.121474 -0.087164 -0.0437927 0.0233521 0 0.197672 0.443024 
-0.324938 -0.022446 -0.130069 0 -0.027883 -0.0643568 0.170584 0.443037 
0.32494 -0.022446 -0.130069 0 -0.027883 -0.0643568 0.170584 0.443037 
0.272134 -0.121475 -0.087164 0 -0.027883 -0.0643568 0.170584 0.443037 
-0.324938 -0.022446 -0.130069 0 -0.0233517 -0.0538981 0.170584 0.443037 
0.272134 -0.121475 -0.087164 0 -0.0233517 -0.0538981 0.170584 0.443037 
-0.272132 -0.121475 -0.087164 0 -0.0233517 -0.0538981 0.170584 0.443037 
0.32494 -0.022446 -0.130069 0.052291 -0.0278835 0 0.143986 0.443024 
0.32494 -0.022446 0.397968 0.052291 -0.0278835 0 0.143986 0.443024 
0.272134 -0.121475 0.355061 0.052291 -0.0278835 0 0.143986 0.443024 
0.32494 -0.022446 -0.130069 0.0437931 -0.0233521 0 0.143986 0.443024 
0.272134 -0.121475 0.355061 0.0437931 -0.0233521 0 0.143986 0.443024 
0.272134 -0.121475 -0.087164 0.0437931 -0.0233521 0 0.143986 0.443024 
0.32494 -0.022446 0.397968 0 -0.0278843 0.0643568 0.170584 0.443037 
-0.324938 -0.022446 0.397968 0 -0.0278843 0.0643568 0.170584 0.443037 
-0.272132 -0.121475 0.355061 0 -0.0278843 0.0643568 0.170584 0.443037 
0.32494 -0.022446 0.397968 0 -0.0233528 0.0538981 0.170584 0.443037 
-0.272132 -0.121475 0.355061 0 -0.0233528 0.0538981 0.170584 0.443037 
0.272134 -0.121475 0.355061 0 -0.0233528 0.0538981 0.170584 0.443037 
-0.324938 -0.022446 0.397968 -0.052291 -0.0278835 -0 0.143986 0.443024 
-0.324938 -0.022446 -0.130069 -0.052291 -0.0278835 -0 0.143986 0.443024 
-0.272132 -0.121475 -0.087164 -0.052291 -0.0278835 -0 0.143986 0.443024 
-0.324938 -0.022446 0.397968 -0.0437931 -0.0233521 0 0.143986 0.443024 
-0.272132 -0.121475 -0.087164 -0.0437931 -0.0233521 0 0.143986 0.443024 
-0.272132 -0.121475 0.355061 -0.0437931 -0.0233521 0 0.143986 0.443024 
-0.272132 0.121474 0.355061 -0 0.148434 0 0.264942 0.443017 
0.272134 0.121474 0.355061 -0 0.148434 0 0.264942 0.443017 
0.05694 0.121474 0.082337 -0 0.148434 0 0.264942 0.443017 
-0.272132 0.121474 0.355061 0 0.0766417 0 0.264942 0.443017 
0.05694 0.121474 0.082337 0 0.0766417 0 0.264942 0.443017 
-0.224083 0.121474 0.082337 0 0.0766417 0 0.264942 0.443017 
0.272134 0.121474 0.355061 0 0.0951642 0 0.264942 0.443017 
0.272134 0.121474 -0.087164 0 0.0951642 0 0.264942 0.443017 
0.05694 0.121474 -0.045428 0 0.0951642 0 0.264942 0.443017 
0.272134 0.121474 0.355061 0 0.0274943 0 0.264942 0.443017 
0.05694 0.121474 -0.045428 0 0.0274943 0 0.264942 0.443017 
0.05694 0.121474 0.082337 0 0.0274943 0 0.264942 0.443017 
0.272134 0.121474 -0.087164 0 0.0227155 0 0.264942 0.443017 
-0.272132 0.121474 -0.087164 0 0.0227155 0 0.264942 0.443017 
-0.224083 0.121474 -0.045428 0 0.0227155 0 0.264942 0.443017 
0.272134 0.121474 -0.087164 0 0.0117288 0 0.264942 0.443017 
-0.224083 0.121474 -0.045428 0 0.0117288 0 0.264942 0.443017 
0.05694 0.121474 -0.045428 0 0.0117288 0 0.264942 0.443017 
-0.272132 0.121474 -0.087164 0 0.0212485 0 0.264942 0.443017 
-0.272132 0.121474 0.355061 0 0.0212485 0 0.264942 0.443017 
-0.224083 0.121474 0.082337 0 0.0212485 0 0.264942 0.443017 
-0.272132 0.121474 -0.087164 0 0.00613898 0 0.264942 0.443017 
-0.224083 0.121474 0.082337 0 0.00613898 0 0.264942 0.443017 
-0.224083 0.121474 -0.045428 0 0.00613898 0 0.264942 0.443017 
3 0 1 2
3 3 4 5
3 6 7 8
3 9 10 11
3 12 13 14
3 15 16 17
3 18 19 20
3 21 22 23
3 24 25 26
3 27 28 29
3 30 31 32
3 33 34 35
3 36 37 38
3 39 40 41
3 42 43 44
3 45 46 47
3 48 49 50
3 51 52 53
3 54 55 56
3 57 58 59
3 60 61 62
3 63 64 65
3 66 67 68
3 69 70 71
3 72 73 74
3 75 76 77
3 78 79 80
3 81 82 83
3 84 85 86
3 87 88 89
3 90 91 92
3 93 94 95
3 96 97 98
3 99 100 101
3 102 103 104
3 105 106 107
3 108 109 110
3 111 112 113
3 114 115 116
3 117 118 119
3 120 121 122
3 123 124 125
3 126 127 128
3 129 130 131
3 132 133 134
3 135 136 137
3 138 139 140
3 141 142 143
3 144 145 146
3 147 148 149
3 150 151 152
3 153 154 155
