ply
format ascii 1.0
comment Feeney's Flatenator generated
comment TextureFile SpaceInteriors_Texture.png
element vertex 180
property float x
property float y
property float z
property float nx
property float ny
property float nz
property float texture_u
property float texture_v
element face 60
property list uchar int vertex_indices
end_header
0.051044 -0.119428 0.06068 0 0 0.0100889 0.29991 0.085915 
-0.051059 -0.119428 0.06068 0 0 0.0100889 0.29991 0.085915 
-0.051059 -0.218239 0.06068 0 0 0.0100889 0.29991 0.085915 
0.051044 -0.119428 0.06068 0 0 0.0100889 0.29991 0.085915 
-0.051059 -0.218239 0.06068 0 0 0.0100889 0.29991 0.085915 
0.051044 -0.218239 0.06068 0 0 0.0100889 0.29991 0.085915 
0.051044 -0.218239 0 0 0 -0.0100889 0.293311 0.086806 
-0.051059 -0.218239 0 0 0 -0.0100889 0.293311 0.086806 
-0.051059 -0.119428 0 0 0 -0.0100889 0.293311 0.086806 
0.051044 -0.218239 0 0 0 -0.0100889 0.293311 0.086806 
-0.051059 -0.119428 0 0 0 -0.0100889 0.293311 0.086806 
0.051044 -0.119428 0 0 0 -0.0100889 0.293311 0.086806 
-0.051059 -0.119428 0.06068 -0.00599585 0 -0 0.264126 0.082057 
-0.051059 -0.119428 0 -0.00599585 0 -0 0.264126 0.082057 
-0.051059 -0.218239 0 -0.00599585 0 -0 0.264126 0.082057 
-0.051059 -0.119428 0.06068 -0.00599585 -0 0 0.264126 0.082057 
-0.051059 -0.218239 0 -0.00599585 -0 0 0.264126 0.082057 
-0.051059 -0.218239 0.06068 -0.00599585 -0 0 0.264126 0.082057 
0.051044 -0.218239 0 0.00599585 0 0 0.264126 0.082057 
0.051044 -0.119428 0 0.00599585 0 0 0.264126 0.082057 
0.051044 -0.119428 0.06068 0.00599585 0 0 0.264126 0.082057 
0.051044 -0.218239 0 0.00599585 0 0 0.264126 0.082057 
0.051044 -0.119428 0.06068 0.00599585 0 0 0.264126 0.082057 
0.051044 -0.218239 0.06068 0.00599585 0 0 0.264126 0.082057 
-0.051059 0.441899 -0.019865 0 -0.0165119 0 0.235557 0.084874 
-0.051059 0.441899 0.080544 0 -0.0165119 0 0.235557 0.084874 
-0.215505 0.441899 0.125762 0 -0.0165119 0 0.235557 0.084874 
-0.051059 0.441899 -0.019865 -0 -0.0313835 0 0.235557 0.084874 
-0.215505 0.441899 0.125762 -0 -0.0313835 0 0.235557 0.084874 
-0.215505 0.441899 -0.065082 -0 -0.0313835 0 0.235557 0.084874 
0.051044 0.441899 0.080544 0 -0.0165137 0 0.235557 0.084874 
0.051044 0.441899 -0.019865 0 -0.0165137 0 0.235557 0.084874 
0.215508 0.441899 -0.065082 0 -0.0165137 0 0.235557 0.084874 
0.051044 0.441899 0.080544 0 -0.031387 0 0.235557 0.084874 
0.215508 0.441899 -0.065082 0 -0.031387 0 0.235557 0.084874 
0.215508 0.441899 0.125762 0 -0.031387 0 0.235557 0.084874 
-0.215505 0.441899 -0.065082 -0.0389902 -3.81069e-07 0 0.25879 0.084874 
-0.215505 0.441899 0.125762 -0.0389902 -3.81069e-07 0 0.25879 0.084874 
-0.215507 0.646203 0.125762 -0.0389902 -3.81069e-07 0 0.25879 0.084874 
-0.215505 0.441899 -0.065082 -0.0389902 -3.81069e-07 0 0.25879 0.084874 
-0.215507 0.646203 0.125762 -0.0389902 -3.81069e-07 0 0.25879 0.084874 
-0.215507 0.646203 -0.065082 -0.0389902 -3.81069e-07 0 0.25879 0.084874 
0.215508 0.441899 0.125762 0.0389902 0 0 0.25879 0.084874 
0.215508 0.441899 -0.065082 0.0389902 0 0 0.25879 0.084874 
0.215508 0.646203 -0.065082 0.0389902 0 0 0.25879 0.084874 
0.215508 0.441899 0.125762 0.0389902 -0 0 0.25879 0.084874 
0.215508 0.646203 -0.065082 0.0389902 -0 0 0.25879 0.084874 
0.215508 0.646203 0.125762 0.0389902 -0 0 0.25879 0.084874 
0.215508 0.646203 0.125762 0 0.0822566 0 0.329739 0.084874 
0.215508 0.646203 -0.065082 0 0.0822566 0 0.329739 0.084874 
-0.215507 0.646203 -0.065082 0 0.0822566 0 0.329739 0.084874 
0.215508 0.646203 0.125762 0 0.0822566 0 0.329739 0.084874 
-0.215507 0.646203 -0.065082 0 0.0822566 0 0.329739 0.084874 
-0.215507 0.646203 0.125762 0 0.0822566 0 0.329739 0.084874 
-0.051059 -0.218239 0.06068 0 0.00176809 0 0.224333 0.081454 
-0.051059 -0.218239 0 0 0.00176809 0 0.224333 0.081454 
-0.080197 -0.218239 0 0 0.00176809 0 0.224333 0.081454 
-0.051059 -0.218239 0.06068 0 0.00176809 0 0.224333 0.081454 
-0.080197 -0.218239 0 0 0.00176809 0 0.224333 0.081454 
-0.080197 -0.218239 0.06068 0 0.00176809 0 0.224333 0.081454 
-0.080197 -0.218239 0 0 0 0 0.293311 0.086806 
-0.051059 -0.218239 0 0 0 0 0.293311 0.086806 
0.051044 -0.218239 0 0 0 0 0.293311 0.086806 
-0.080197 -0.218239 0 0 0 0 0.293311 0.086806 
0.051044 -0.218239 0 0 0 0 0.293311 0.086806 
0.080197 -0.218239 0 0 0 0 0.293311 0.086806 
-0.080197 -0.218239 0 0 0 -0.017327 0.293311 0.086806 
0.080197 -0.218239 0 0 0 -0.017327 0.293311 0.086806 
0.080197 -0.326267 0 0 0 -0.017327 0.293311 0.086806 
-0.080197 -0.218239 0 0 0 -0.017327 0.293311 0.086806 
0.080197 -0.326267 0 0 0 -0.017327 0.293311 0.086806 
-0.080197 -0.326267 0 0 0 -0.017327 0.293311 0.086806 
0.051044 -0.218239 0 0 0.001769 0 0.224333 0.081454 
0.051044 -0.218239 0.06068 0 0.001769 0 0.224333 0.081454 
0.080197 -0.218239 0.06068 0 0.001769 0 0.224333 0.081454 
0.051044 -0.218239 0 0 0.001769 0 0.224333 0.081454 
0.080197 -0.218239 0.06068 0 0.001769 0 0.224333 0.081454 
0.080197 -0.218239 0 0 0.001769 0 0.224333 0.081454 
-0.080197 -0.218239 0.06068 -0.00655514 0 -0 0.264126 0.082057 
-0.080197 -0.218239 0 -0.00655514 0 -0 0.264126 0.082057 
-0.080197 -0.326267 0 -0.00655514 0 -0 0.264126 0.082057 
-0.080197 -0.218239 0.06068 -0.00655514 -0 0 0.264126 0.082057 
-0.080197 -0.326267 0 -0.00655514 -0 0 0.264126 0.082057 
-0.080197 -0.326267 0.06068 -0.00655514 -0 0 0.264126 0.082057 
0.080197 -0.218239 0 0.00655514 0 -0 0.264126 0.082057 
0.080197 -0.218239 0.06068 0.00655514 0 -0 0.264126 0.082057 
0.080197 -0.326267 0.06068 0.00655514 0 -0 0.264126 0.082057 
0.080197 -0.218239 0 0.00655514 0 0 0.264126 0.082057 
0.080197 -0.326267 0.06068 0.00655514 0 0 0.264126 0.082057 
0.080197 -0.326267 0 0.00655514 0 0 0.264126 0.082057 
-0.080197 -0.218239 0.06068 0 0 0.017327 0.29991 0.085915 
-0.080197 -0.326267 0.06068 0 0 0.017327 0.29991 0.085915 
0.080197 -0.326267 0.06068 0 0 0.017327 0.29991 0.085915 
-0.080197 -0.218239 0.06068 -0 0 0.017327 0.29991 0.085915 
0.080197 -0.326267 0.06068 -0 0 0.017327 0.29991 0.085915 
0.080197 -0.218239 0.06068 -0 0 0.017327 0.29991 0.085915 
-0.080197 -0.218239 0.06068 0 0 0 0.29991 0.085915 
0.080197 -0.218239 0.06068 0 0 0 0.29991 0.085915 
0.051044 -0.218239 0.06068 0 0 0 0.29991 0.085915 
-0.080197 -0.218239 0.06068 0 0 0 0.29991 0.085915 
0.051044 -0.218239 0.06068 0 0 0 0.29991 0.085915 
-0.051059 -0.218239 0.06068 0 0 0 0.29991 0.085915 
-0.080197 -0.326267 0.06068 0 -0.00973271 0 0.224333 0.081454 
-0.080197 -0.326267 0 0 -0.00973271 0 0.224333 0.081454 
0.080197 -0.326267 0 0 -0.00973271 0 0.224333 0.081454 
-0.080197 -0.326267 0.06068 0 -0.00973271 0 0.224333 0.081454 
0.080197 -0.326267 0 0 -0.00973271 0 0.224333 0.081454 
0.080197 -0.326267 0.06068 0 -0.00973271 0 0.224333 0.081454 
-0.215505 0.441899 -0.065082 0 0 -0.0880581 0.295643 0.084874 
-0.215507 0.646203 -0.065082 0 0 -0.0880581 0.295643 0.084874 
0.215508 0.646203 -0.065082 0 0 -0.0880581 0.295643 0.084874 
-0.215505 0.441899 -0.065082 0 0 -0.0880577 0.295643 0.084874 
0.215508 0.646203 -0.065082 0 0 -0.0880577 0.295643 0.084874 
0.215508 0.441899 -0.065082 0 0 -0.0880577 0.295643 0.084874 
-0.215507 0.646203 0.125762 0 0 0.0880577 0.293086 0.084874 
-0.215505 0.441899 0.125762 0 0 0.0880577 0.293086 0.084874 
0.215508 0.441899 0.125762 0 0 0.0880577 0.293086 0.084874 
-0.215507 0.646203 0.125762 -0 0 0.0880581 0.293086 0.084874 
0.215508 0.441899 0.125762 -0 0 0.0880581 0.293086 0.084874 
0.215508 0.646203 0.125762 -0 0 0.0880581 0.293086 0.084874 
0.051044 -0.119428 0.06068 0.0286667 0 0 0.175731 0.063419 
0.051044 -0.119428 0 0.0286667 0 0 0.175731 0.063419 
0.051044 0.352997 0 0.0286667 0 0 0.175731 0.063419 
0.051044 -0.119428 0.06068 0.0286667 -0 0 0.175731 0.063419 
0.051044 0.352997 0 0.0286667 -0 0 0.175731 0.063419 
0.051044 0.352997 0.06068 0.0286667 -0 0 0.175731 0.063419 
0.051044 0.352997 0.06068 0 0 0.048236 0.211515 0.063649 
-0.051059 0.352997 0.06068 0 0 0.048236 0.211515 0.063649 
-0.051059 -0.119428 0.06068 0 0 0.048236 0.211515 0.063649 
0.051044 0.352997 0.06068 0 0 0.048236 0.211515 0.063649 
-0.051059 -0.119428 0.06068 0 0 0.048236 0.211515 0.063649 
0.051044 -0.119428 0.06068 0 0 0.048236 0.211515 0.063649 
-0.051059 0.352997 0.06068 -0.0286667 0 -0 0.175731 0.063419 
-0.051059 0.352997 0 -0.0286667 0 -0 0.175731 0.063419 
-0.051059 -0.119428 0 -0.0286667 0 -0 0.175731 0.063419 
-0.051059 0.352997 0.06068 -0.0286667 -0 0 0.175731 0.063419 
-0.051059 -0.119428 0 -0.0286667 -0 0 0.175731 0.063419 
-0.051059 -0.119428 0.06068 -0.0286667 -0 0 0.175731 0.063419 
0.051044 -0.119428 0 0 0 -0.048236 0.204916 0.063702 
-0.051059 -0.119428 0 0 0 -0.048236 0.204916 0.063702 
-0.051059 0.352997 0 0 0 -0.048236 0.204916 0.063702 
0.051044 -0.119428 0 0 0 -0.048236 0.204916 0.063702 
-0.051059 0.352997 0 0 0 -0.048236 0.204916 0.063702 
0.051044 0.352997 0 0 0 -0.048236 0.204916 0.063702 
0.051044 0.352997 0.06068 0.00539457 0 0 0.264126 0.082057 
0.051044 0.352997 0 0.00539457 0 0 0.264126 0.082057 
0.051044 0.441899 -0.019865 0.00539457 0 0 0.264126 0.082057 
0.051044 0.352997 0.06068 0.00892656 -0 0 0.264126 0.082057 
0.051044 0.441899 -0.019865 0.00892656 -0 0 0.264126 0.082057 
0.051044 0.441899 0.080544 0.00892656 -0 0 0.264126 0.082057 
0.051044 0.441899 0.080544 0 -0.00202817 0.00907716 0.29991 0.085915 
-0.051059 0.441899 0.080544 0 -0.00202817 0.00907716 0.29991 0.085915 
-0.051059 0.352997 0.06068 0 -0.00202817 0.00907716 0.29991 0.085915 
0.051044 0.441899 0.080544 0 -0.00202817 0.00907716 0.29991 0.085915 
-0.051059 0.352997 0.06068 0 -0.00202817 0.00907716 0.29991 0.085915 
0.051044 0.352997 0.06068 0 -0.00202817 0.00907716 0.29991 0.085915 
-0.051059 0.441899 -0.019865 -0.00539457 0 0 0.264126 0.082057 
-0.051059 0.352997 0 -0.00539457 0 0 0.264126 0.082057 
-0.051059 0.352997 0.06068 -0.00539457 0 0 0.264126 0.082057 
-0.051059 0.441899 -0.019865 -0.00892656 0 0 0.264126 0.082057 
-0.051059 0.352997 0.06068 -0.00892656 0 0 0.264126 0.082057 
-0.051059 0.441899 0.080544 -0.00892656 0 0 0.264126 0.082057 
0.051044 0.352997 0 -0 -0.00202828 -0.00907716 0.293311 0.086806 
-0.051059 0.352997 0 -0 -0.00202828 -0.00907716 0.293311 0.086806 
-0.051059 0.441899 -0.019865 -0 -0.00202828 -0.00907716 0.293311 0.086806 
0.051044 0.352997 0 0 -0.00202828 -0.00907716 0.293311 0.086806 
-0.051059 0.441899 -0.019865 0 -0.00202828 -0.00907716 0.293311 0.086806 
0.051044 0.441899 -0.019865 0 -0.00202828 -0.00907716 0.293311 0.086806 
0.051044 0.441899 -0.019865 -0 -0.00461679 0 0.235557 0.084874 
-0.051059 0.441899 -0.019865 -0 -0.00461679 0 0.235557 0.084874 
-0.215505 0.441899 -0.065082 -0 -0.00461679 0 0.235557 0.084874 
0.051044 0.441899 -0.019865 0 -0.0194891 -0 0.235557 0.084874 
-0.215505 0.441899 -0.065082 0 -0.0194891 -0 0.235557 0.084874 
0.215508 0.441899 -0.065082 0 -0.0194891 -0 0.235557 0.084874 
-0.051059 0.441899 0.080544 0 -0.00461689 0 0.235557 0.084874 
0.051044 0.441899 0.080544 0 -0.00461689 0 0.235557 0.084874 
0.215508 0.441899 0.125762 0 -0.00461689 0 0.235557 0.084874 
-0.051059 0.441899 0.080544 0 -0.0194895 0 0.235557 0.084874 
0.215508 0.441899 0.125762 0 -0.0194895 0 0.235557 0.084874 
-0.215505 0.441899 0.125762 0 -0.0194895 0 0.235557 0.084874 
3 0 1 2
3 3 4 5
3 6 7 8
3 9 10 11
3 12 13 14
3 15 16 17
3 18 19 20
3 21 22 23
3 24 25 26
3 27 28 29
3 30 31 32
3 33 34 35
3 36 37 38
3 39 40 41
3 42 43 44
3 45 46 47
3 48 49 50
3 51 52 53
3 54 55 56
3 57 58 59
3 60 61 62
3 63 64 65
3 66 67 68
3 69 70 71
3 72 73 74
3 75 76 77
3 78 79 80
3 81 82 83
3 84 85 86
3 87 88 89
3 90 91 92
3 93 94 95
3 96 97 98
3 99 100 101
3 102 103 104
3 105 106 107
3 108 109 110
3 111 112 113
3 114 115 116
3 117 118 119
3 120 121 122
3 123 124 125
3 126 127 128
3 129 130 131
3 132 133 134
3 135 136 137
3 138 139 140
3 141 142 143
3 144 145 146
3 147 148 149
3 150 151 152
3 153 154 155
3 156 157 158
3 159 160 161
3 162 163 164
3 165 166 167
3 168 169 170
3 171 172 173
3 174 175 176
3 177 178 179
