ply
format ascii 1.0
comment Feeney's Flatenator generated
comment TextureFile SpaceInteriors_Texture.png
element vertex 828
property float x
property float y
property float z
property float nx
property float ny
property float nz
element face 276
property list uchar int vertex_indices
end_header
-0.089826 1.36028 0.031777 5.83128e-07 9.07814e-08 0.0123579 
-0.027951 1.37106 0.031774 5.83128e-07 9.07814e-08 0.0123579 
-0.058223 1.56551 0.031774 5.83128e-07 9.07814e-08 0.0123579 
-0.089826 1.36028 0.031777 0 1.90613e-07 0.0130448 
-0.058223 1.56551 0.031774 0 1.90613e-07 0.0130448 
-0.121785 1.56551 0.031774 0 1.90613e-07 0.0130448 
0.099656 1.49207 0.024991 0.000416858 -0.0011807 0 
0.076034 1.48373 0.024991 0.000416858 -0.0011807 0 
0.076034 1.48373 -0.024992 0.000416858 -0.0011807 0 
0.099656 1.49207 0.024991 0.000416858 -0.0011807 0 
0.076034 1.48373 -0.024992 0.000416858 -0.0011807 0 
0.099656 1.49207 -0.024992 0.000416858 -0.0011807 0 
-0.121785 1.56551 -0.031775 0 0 -0.0123596 
-0.058223 1.56551 -0.031775 0 0 -0.0123596 
-0.027951 1.37106 -0.031775 0 0 -0.0123596 
-0.121785 1.56551 -0.031775 0 0 -0.0130431 
-0.027951 1.37106 -0.031775 0 0 -0.0130431 
-0.089826 1.36028 -0.031775 0 0 -0.0130431 
-0.027951 1.37106 0.031774 0.0123571 0.00192376 0 
-0.027951 1.37106 -0.031775 0.0123571 0.00192376 0 
-0.058223 1.56551 -0.031775 0.0123571 0.00192376 0 
-0.027951 1.37106 0.031774 0.0123571 0.00192376 0 
-0.058223 1.56551 -0.031775 0.0123571 0.00192376 0 
-0.058223 1.56551 0.031774 0.0123571 0.00192376 0 
-0.089826 1.36028 -0.031775 -0.0130428 -0.00203106 0 
-0.089826 1.36028 0.031777 -0.0130428 -0.00203106 0 
-0.121785 1.56551 0.031774 -0.0130428 -0.00203106 0 
-0.089826 1.36028 -0.031775 -0.0130422 -0.00203096 0 
-0.121785 1.56551 0.031774 -0.0130422 -0.00203096 0 
-0.121785 1.56551 -0.031775 -0.0130422 -0.00203096 0 
-0.121785 1.56551 0.031774 0 0 0.00458663 
-0.058223 1.56551 0.031774 0 0 0.00458663 
-0.058223 1.63767 0.031774 0 0 0.00458663 
-0.121785 1.56551 0.031774 0 0 0.00627039 
-0.058223 1.63767 0.031774 0 0 0.00627039 
-0.121785 1.66416 0.031774 0 0 0.00627039 
-0.058223 1.56551 0.031774 0.0045857 0 0 
-0.058223 1.56551 -0.031775 0.0045857 0 0 
-0.058223 1.63767 -0.031775 0.0045857 0 0 
-0.058223 1.56551 0.031774 0.0045857 -0 0 
-0.058223 1.63767 -0.031775 0.0045857 -0 0 
-0.058223 1.63767 0.031774 0.0045857 -0 0 
-0.058223 1.56551 -0.031775 0 0 -0.00627039 
-0.121785 1.56551 -0.031775 0 0 -0.00627039 
-0.121785 1.66416 -0.031775 0 0 -0.00627039 
-0.058223 1.56551 -0.031775 0 0 -0.00458663 
-0.121785 1.66416 -0.031775 0 0 -0.00458663 
-0.058223 1.63767 -0.031775 0 0 -0.00458663 
-0.121785 1.56551 -0.031775 -0.00626911 0 0 
-0.121785 1.56551 0.031774 -0.00626911 0 0 
-0.121785 1.66416 0.031774 -0.00626911 0 0 
-0.121785 1.56551 -0.031775 -0.00626911 0 0 
-0.121785 1.66416 0.031774 -0.00626911 0 0 
-0.121785 1.66416 -0.031775 -0.00626911 0 0 
-0.121785 1.66416 0.031774 0 0 0.00269938 
-0.058223 1.63767 0.031774 0 0 0.00269938 
-0.019355 1.66394 0.031774 0 0 0.00269938 
-0.121785 1.66416 0.031774 -0 0 0.00688517 
-0.019355 1.66394 0.031774 -0 0 0.00688517 
-0.03411 1.73119 0.031774 -0 0 0.00688517 
-0.058223 1.63767 0.031774 0.00166943 -0.00247002 0 
-0.058223 1.63767 -0.031775 0.00166943 -0.00247002 0 
-0.019355 1.66394 -0.031775 0.00166943 -0.00247002 0 
-0.058223 1.63767 0.031774 0.00166943 -0.00247002 0 
-0.019355 1.66394 -0.031775 0.00166943 -0.00247002 0 
-0.019355 1.66394 0.031774 0.00166943 -0.00247002 0 
-0.058223 1.63767 -0.031775 0 0 -0.00658307 
-0.121785 1.66416 -0.031775 0 0 -0.00658307 
-0.03411 1.73119 -0.031775 0 0 -0.00658307 
-0.058223 1.63767 -0.031775 0 0 -0.00300149 
-0.03411 1.73119 -0.031775 0 0 -0.00300149 
-0.019355 1.66394 -0.031775 0 0 -0.00300149 
-0.121785 1.66416 -0.031775 -0.00425969 0.00557166 0 
-0.121785 1.66416 0.031774 -0.00425969 0.00557166 0 
-0.03411 1.73119 0.031774 -0.00425969 0.00557166 0 
-0.121785 1.66416 -0.031775 -0.00425969 0.00557166 0 
-0.03411 1.73119 0.031774 -0.00425969 0.00557166 0 
-0.03411 1.73119 -0.031775 -0.00425969 0.00557166 0 
-0.03411 1.73119 0.031774 0 0 0.00311988 
-0.019355 1.66394 0.031774 0 0 0.00311988 
0.027871 1.66014 0.031774 0 0 0.00311988 
-0.03411 1.73119 0.031774 0 0 0.00649147 
0.027871 1.66014 0.031774 0 0 0.00649147 
0.079186 1.70605 0.031774 0 0 0.00649147 
-0.019355 1.66394 0.031774 -0.000241481 -0.00300116 -0 
-0.019355 1.66394 -0.031775 -0.000241481 -0.00300116 -0 
0.027871 1.66014 -0.031775 -0.000241481 -0.00300116 -0 
-0.019355 1.66394 0.031774 -0.000241481 -0.00300116 0 
0.027871 1.66014 -0.031775 -0.000241481 -0.00300116 0 
0.027871 1.66014 0.031774 -0.000241481 -0.00300116 0 
-0.019355 1.66394 -0.031775 0 0 -0.00724822 
-0.03411 1.73119 -0.031775 0 0 -0.00724822 
0.079186 1.70605 -0.031775 0 0 -0.00724822 
-0.019355 1.66394 -0.031775 0 0 -0.00236314 
0.079186 1.70605 -0.031775 0 0 -0.00236314 
0.027871 1.66014 -0.031775 0 0 -0.00236314 
-0.03411 1.73119 -0.031775 0.00159762 0.00719985 -0 
-0.03411 1.73119 0.031774 0.00159762 0.00719985 -0 
0.079186 1.70605 0.031774 0.00159762 0.00719985 -0 
-0.03411 1.73119 -0.031775 0.00159762 0.00719985 0 
0.079186 1.70605 0.031774 0.00159762 0.00719985 0 
0.079186 1.70605 -0.031775 0.00159762 0.00719985 0 
0.079186 1.70605 0.031774 0 0 0.00300503 
0.027871 1.66014 0.031774 0 0 0.00300503 
0.052987 1.62405 0.031774 0 0 0.00300503 
0.079186 1.70605 0.031774 0 0 0.00564144 
0.052987 1.62405 0.031774 0 0 0.00564144 
0.121785 1.62405 0.031774 0 0 0.00564144 
0.027871 1.66014 0.031774 -0.00229348 -0.0015961 -0 
0.027871 1.66014 -0.031775 -0.00229348 -0.0015961 -0 
0.052987 1.62405 -0.031775 -0.00229348 -0.0015961 -0 
0.027871 1.66014 0.031774 -0.00229348 -0.0015961 0 
0.052987 1.62405 -0.031775 -0.00229348 -0.0015961 0 
0.052987 1.62405 0.031774 -0.00229348 -0.0015961 0 
0.027871 1.66014 -0.031775 0 0 -0.00616355 
0.079186 1.70605 -0.031775 0 0 -0.00616355 
0.121785 1.62405 -0.031775 0 0 -0.00616355 
0.027871 1.66014 -0.031775 0 0 -0.00248292 
0.121785 1.62405 -0.031775 0 0 -0.00248292 
0.052987 1.62405 -0.031775 0 0 -0.00248292 
0.079186 1.70605 -0.031775 0.00521102 0.00270712 -0 
0.079186 1.70605 0.031774 0.00521102 0.00270712 -0 
0.121785 1.62405 0.031774 0.00521102 0.00270712 -0 
0.079186 1.70605 -0.031775 0.00521102 0.00270712 0 
0.121785 1.62405 0.031774 0.00521102 0.00270712 0 
0.121785 1.62405 -0.031775 0.00521102 0.00270712 0 
0.121785 1.62405 0.031774 0 0 0.00513027 
0.052987 1.62405 0.031774 0 0 0.00513027 
0.05086 1.54948 0.031774 0 0 0.00513027 
0.121785 1.62405 0.031774 0 0 0.00286901 
0.05086 1.54948 0.031774 0 0 0.00286901 
0.089334 1.54948 0.031774 0 0 0.00286901 
0.052987 1.62405 0.031774 -0.00473885 0.000135169 0 
0.052987 1.62405 -0.031775 -0.00473885 0.000135169 0 
0.05086 1.54948 -0.031775 -0.00473885 0.000135169 0 
0.052987 1.62405 0.031774 -0.00473885 0.000135169 0 
0.05086 1.54948 -0.031775 -0.00473885 0.000135169 0 
0.05086 1.54948 0.031774 -0.00473885 0.000135169 0 
0.052987 1.62405 -0.031775 0 0 -0.00513027 
0.121785 1.62405 -0.031775 0 0 -0.00513027 
0.089334 1.54948 -0.031775 0 0 -0.00513027 
0.052987 1.62405 -0.031775 0 -0 -0.00286901 
0.089334 1.54948 -0.031775 0 -0 -0.00286901 
0.05086 1.54948 -0.031775 0 -0 -0.00286901 
0.121785 1.62405 -0.031775 0.00473885 -0.00206223 0 
0.121785 1.62405 0.031774 0.00473885 -0.00206223 0 
0.089334 1.54948 0.031774 0.00473885 -0.00206223 0 
0.121785 1.62405 -0.031775 0.00473885 -0.00206223 0 
0.089334 1.54948 0.031774 0.00473885 -0.00206223 0 
0.089334 1.54948 -0.031775 0.00473885 -0.00206223 0 
0.089334 1.54948 0.031774 0 -0.000260969 0.00252967 
0.05086 1.54948 0.031774 0 -0.000260969 0.00252967 
0.076034 1.48373 0.024991 0 -0.000260969 0.00252967 
0.089334 1.54948 0.031774 5.65702e-05 -0.000160228 0.00144222 
0.076034 1.48373 0.024991 5.65702e-05 -0.000160228 0.00144222 
0.099656 1.49207 0.024991 5.65702e-05 -0.000160228 0.00144222 
0.05086 1.54948 0.031774 -0.00417835 -0.00159978 -0 
0.05086 1.54948 -0.031775 -0.00417835 -0.00159978 -0 
0.076034 1.48373 -0.024992 -0.00417835 -0.00159978 -0 
0.05086 1.54948 0.031774 -0.00328638 -0.00125827 0 
0.076034 1.48373 -0.024992 -0.00328638 -0.00125827 0 
0.076034 1.48373 0.024991 -0.00328638 -0.00125827 0 
0.05086 1.54948 -0.031775 0 -0.000260969 -0.00220879 
0.089334 1.54948 -0.031775 0 -0.000260969 -0.00220879 
0.099656 1.49207 -0.024992 0 -0.000260969 -0.00220879 
0.05086 1.54948 -0.031775 5.65703e-05 -0.000160228 -0.0017631 
0.099656 1.49207 -0.024992 5.65703e-05 -0.000160228 -0.0017631 
0.076034 1.48373 -0.024992 5.65703e-05 -0.000160228 -0.0017631 
0.089334 1.54948 -0.031775 0.00364835 0.000655953 -0 
0.089334 1.54948 0.031774 0.00364835 0.000655953 -0 
0.099656 1.49207 0.024991 0.00364835 0.000655953 -0 
0.089334 1.54948 -0.031775 0.00286952 0.000515924 0 
0.099656 1.49207 0.024991 0.00286952 0.000515924 0 
0.099656 1.49207 -0.024992 0.00286952 0.000515924 0 
-0.089826 1.28945 -0.031775 0 0 -0.0178416 
0.026984 1.28945 -0.031775 0 0 -0.0178416 
-0.026269 1.13671 -0.031775 0 0 -0.0178416 
-0.089826 1.28945 -0.031775 0 0 -0.0097077 
-0.026269 1.13671 -0.031775 0 0 -0.0097077 
-0.089826 1.13671 -0.031775 0 0 -0.0097077 
0.026984 1.28945 -0.031775 0.00970647 -0.00338418 0 
0.026984 1.28945 0.031774 0.00970647 -0.00338418 0 
-0.026269 1.13671 0.031774 0.00970647 -0.00338418 0 
0.026984 1.28945 -0.031775 0.00970647 -0.00338418 0 
-0.026269 1.13671 0.031774 0.00970647 -0.00338418 0 
-0.026269 1.13671 -0.031775 0.00970647 -0.00338418 0 
0.026984 1.28945 0.031774 3.05553e-07 0 0.0178416 
-0.089826 1.28945 0.031776 3.05553e-07 0 0.0178416 
-0.089826 1.13671 0.031776 3.05553e-07 0 0.0178416 
0.026984 1.28945 0.031774 3.05553e-07 -1.06532e-07 0.00970769 
-0.089826 1.13671 0.031776 3.05553e-07 -1.06532e-07 0.00970769 
-0.026269 1.13671 0.031774 3.05553e-07 -1.06532e-07 0.00970769 
-0.089826 1.28945 0.031776 -0.00970678 0 -0 
-0.089826 1.28945 -0.031775 -0.00970678 0 -0 
-0.089826 1.13671 -0.031775 -0.00970678 0 -0 
-0.089826 1.28945 0.031776 -0.00970678 -0 0 
-0.089826 1.13671 -0.031775 -0.00970678 -0 0 
-0.089826 1.13671 0.031776 -0.00970678 -0 0 
-0.089826 1.36028 0.031777 3.23276e-08 1.64742e-07 0.00125921 
0.026984 1.36028 0.031774 3.23276e-08 1.64742e-07 0.00125921 
-0.027951 1.37106 0.031774 3.23276e-08 1.64742e-07 0.00125921 
0.078095 1.49641 0.018263 0.0011046 0.000401625 0 
0.078095 1.49641 -0.018265 0.0011046 0.000401625 0 
0.0671 1.52665 -0.018265 0.0011046 0.000401625 0 
0.078095 1.49641 0.018263 0.0011046 0.000401625 0 
0.0671 1.52665 -0.018265 0.0011046 0.000401625 0 
0.0671 1.52665 0.018263 0.0011046 0.000401625 0 
-0.089826 1.36028 -0.031775 0 0 -0.00125921 
-0.027951 1.37106 -0.031775 0 0 -0.00125921 
0.026984 1.36028 -0.031775 0 0 -0.00125921 
0.026984 1.36028 -0.031775 0.00450117 0 -0 
0.026984 1.36028 0.031774 0.00450117 0 -0 
0.026984 1.28945 0.031774 0.00450117 0 -0 
0.026984 1.36028 -0.031775 0.00450117 0 0 
0.026984 1.28945 0.031774 0.00450117 0 0 
0.026984 1.28945 -0.031775 0.00450117 0 0 
0.026984 1.36028 0.031774 2.12409e-07 -1.16621e-07 0.00827365 
-0.089826 1.36028 0.031777 2.12409e-07 -1.16621e-07 0.00827365 
-0.089826 1.28945 0.031776 2.12409e-07 -1.16621e-07 0.00827365 
0.026984 1.36028 0.031774 1.41694e-07 0 0.00827365 
-0.089826 1.28945 0.031776 1.41694e-07 0 0.00827365 
0.026984 1.28945 0.031774 1.41694e-07 0 0.00827365 
-0.089826 1.36028 0.031777 -0.00450139 0 -0 
-0.089826 1.36028 -0.031775 -0.00450139 0 -0 
-0.089826 1.28945 -0.031775 -0.00450139 0 -0 
-0.089826 1.36028 0.031777 -0.00450132 0 0 
-0.089826 1.28945 -0.031775 -0.00450132 0 0 
-0.089826 1.28945 0.031776 -0.00450132 0 0 
-0.089826 1.36028 -0.031775 0 0 -0.00827365 
0.026984 1.36028 -0.031775 0 0 -0.00827365 
0.026984 1.28945 -0.031775 0 0 -0.00827365 
-0.089826 1.36028 -0.031775 0 0 -0.00827365 
0.026984 1.28945 -0.031775 0 0 -0.00827365 
-0.089826 1.28945 -0.031775 0 0 -0.00827365 
-0.026269 1.13671 0.031774 4.4751e-08 0.00109664 0.00142178 
-0.089826 1.13671 0.031776 4.4751e-08 0.00109664 0.00142178 
-0.107081 1.11434 0.049031 4.4751e-08 0.00109664 0.00142178 
-0.026269 1.13671 0.031774 8.94943e-08 0.001692 0.00219375 
-0.107081 1.11434 0.049031 8.94943e-08 0.001692 0.00219375 
-0.009015 1.11434 0.049027 8.94943e-08 0.001692 0.00219375 
-0.026269 1.13671 -0.031775 0.0014216 0.00109647 -0 
-0.026269 1.13671 0.031774 0.0014216 0.00109647 -0 
-0.009015 1.11434 0.049027 0.0014216 0.00109647 -0 
-0.026269 1.13671 -0.031775 0.00219357 0.00169189 0 
-0.009015 1.11434 0.049027 0.00219357 0.00169189 0 
-0.009015 1.11434 -0.049031 0.00219357 0.00169189 0 
-0.089826 1.13671 -0.031775 0 0.00109674 -0.00142178 
-0.026269 1.13671 -0.031775 0 0.00109674 -0.00142178 
-0.009015 1.11434 -0.049031 0 0.00109674 -0.00142178 
-0.089826 1.13671 -0.031775 -4.47326e-08 0.00169207 -0.00219375 
-0.009015 1.11434 -0.049031 -4.47326e-08 0.00169207 -0.00219375 
-0.107081 1.11434 -0.049029 -4.47326e-08 0.00169207 -0.00219375 
-0.089826 1.13671 0.031776 -0.00142164 0.00109657 0 
-0.089826 1.13671 -0.031775 -0.00142164 0.00109657 0 
-0.107081 1.11434 -0.049029 -0.00142164 0.00109657 0 
-0.089826 1.13671 0.031776 -0.00219361 0.00169203 0 
-0.107081 1.11434 -0.049029 -0.00219361 0.00169203 0 
-0.107081 1.11434 0.049031 -0.00219361 0.00169203 0 
0.026984 1.36028 0.031774 0.000145528 0.000742252 0 
0.026984 1.36028 -0.031775 0.000145528 0.000742252 0 
0.015304 1.36257 -0.018265 0.000145528 0.000742252 0 
0.026984 1.36028 0.031774 8.36495e-05 0.000426647 0 
0.015304 1.36257 -0.018265 8.36495e-05 0.000426647 0 
0.015304 1.36257 0.018263 8.36495e-05 0.000426647 0 
0.026984 1.36028 -0.031775 0.000145638 0.000742172 -1.08383e-07 
-0.027951 1.37106 -0.031775 0.000145638 0.000742172 -1.08383e-07 
-0.016271 1.36877 -0.018265 0.000145638 0.000742172 -1.08383e-07 
0.026984 1.36028 -0.031775 8.37614e-05 0.000426578 1.08404e-07 
-0.016271 1.36877 -0.018265 8.37614e-05 0.000426578 1.08404e-07 
0.015304 1.36257 -0.018265 8.37614e-05 0.000426578 1.08404e-07 
-0.027951 1.37106 -0.031775 0.000145528 0.000742252 -0 
-0.027951 1.37106 0.031774 0.000145528 0.000742252 -0 
-0.016271 1.36877 0.018263 0.000145528 0.000742252 -0 
-0.027951 1.37106 -0.031775 8.36495e-05 0.000426647 0 
-0.016271 1.36877 0.018263 8.36495e-05 0.000426647 0 
-0.016271 1.36877 -0.018265 8.36495e-05 0.000426647 0 
-0.027951 1.37106 0.031774 0.000145648 0.000742227 -1.08383e-07 
0.026984 1.36028 0.031774 0.000145648 0.000742227 -1.08383e-07 
0.015304 1.36257 0.018263 0.000145648 0.000742227 -1.08383e-07 
-0.027951 1.37106 0.031774 8.37676e-05 0.00042661 1.08397e-07 
0.015304 1.36257 0.018263 8.37676e-05 0.00042661 1.08397e-07 
-0.016271 1.36877 0.018263 8.37676e-05 0.00042661 1.08397e-07 
0.015304 1.36257 0.018263 0.00488891 -0.00229363 0 
0.015304 1.36257 -0.018265 0.00488891 -0.00229363 0 
0.078095 1.49641 -0.018265 0.00488891 -0.00229363 0 
0.015304 1.36257 0.018263 0.00488891 -0.00229363 0 
0.078095 1.49641 -0.018265 0.00488891 -0.00229363 0 
0.078095 1.49641 0.018263 0.00488891 -0.00229363 0 
0.015304 1.36257 -0.018265 0 0 -0.00550196 
-0.016271 1.36877 -0.018265 0 0 -0.00550196 
0.0671 1.52665 -0.018265 0 0 -0.00550196 
0.015304 1.36257 -0.018265 0 0 -0.00337037 
0.0671 1.52665 -0.018265 0 0 -0.00337037 
0.078095 1.49641 -0.018265 0 0 -0.00337037 
-0.016271 1.36877 -0.018265 -0.00576704 0.00304538 0 
-0.016271 1.36877 0.018263 -0.00576704 0.00304538 0 
0.0671 1.52665 0.018263 -0.00576704 0.00304538 0 
-0.016271 1.36877 -0.018265 -0.00576704 0.00304538 0 
0.0671 1.52665 0.018263 -0.00576704 0.00304538 0 
0.0671 1.52665 -0.018265 -0.00576704 0.00304538 0 
-0.016271 1.36877 0.018263 -0 0 0.0046153 
0.015304 1.36257 0.018263 -0 0 0.0046153 
0.078095 1.49641 0.018263 -0 0 0.0046153 
-0.016271 1.36877 0.018263 0 0 0.00425702 
0.078095 1.49641 0.018263 0 0 0.00425702 
0.0671 1.52665 0.018263 0 0 0.00425702 
-0.009015 0.934871 0.049027 6.32712e-08 -0.001692 0.00310163 
-0.107081 0.934871 0.049029 6.32712e-08 -0.001692 0.00310163 
-0.089826 0.903243 0.031775 6.32712e-08 -0.001692 0.00310163 
-0.009015 0.934871 0.049027 3.17232e-08 -0.00109657 0.00201018 
-0.089826 0.903243 0.031775 3.17232e-08 -0.00109657 0.00201018 
-0.026269 0.903243 0.031774 3.17232e-08 -0.00109657 0.00201018 
-0.009015 0.934871 -0.049031 0.00310138 -0.00169189 0 
-0.009015 0.934871 0.049027 0.00310138 -0.00169189 0 
-0.026269 0.903243 0.031774 0.00310138 -0.00169189 0 
-0.009015 0.934871 -0.049031 0.00200993 -0.00109647 0 
-0.026269 0.903243 0.031774 0.00200993 -0.00109647 0 
-0.026269 0.903243 -0.031775 0.00200993 -0.00109647 0 
-0.107081 0.934871 -0.04903 -3.16945e-08 -0.00169221 -0.00310163 
-0.009015 0.934871 -0.049031 -3.16945e-08 -0.00169221 -0.00310163 
-0.026269 0.903243 -0.031775 -3.16945e-08 -0.00169221 -0.00310163 
-0.107081 0.934871 -0.04903 0 -0.00109668 -0.00201018 
-0.026269 0.903243 -0.031775 0 -0.00109668 -0.00201018 
-0.089826 0.903243 -0.031775 0 -0.00109668 -0.00201018 
-0.107081 0.934871 0.049029 -0.00310141 -0.00169201 -0 
-0.107081 0.934871 -0.04903 -0.00310141 -0.00169201 -0 
-0.089826 0.903243 -0.031775 -0.00310141 -0.00169201 -0 
-0.107081 0.934871 0.049029 -0.00200996 -0.00109656 0 
-0.089826 0.903243 -0.031775 -0.00200996 -0.00109656 0 
-0.089826 0.903243 0.031775 -0.00200996 -0.00109656 0 
-0.089826 0.67603 0.031775 -0.00235618 -0.000805496 -0 
-0.089826 0.67603 -0.031775 -0.00235618 -0.000805496 -0 
-0.077151 0.638954 -0.019101 -0.00235618 -0.000805496 -0 
-0.089826 0.67603 0.031775 -0.0014163 -0.000484185 0 
-0.077151 0.638954 -0.019101 -0.0014163 -0.000484185 0 
-0.077151 0.638954 0.019099 -0.0014163 -0.000484185 0 
-0.026269 0.67603 0.031774 3.7154e-08 -0.000805636 0.00235644 
-0.089826 0.67603 0.031775 3.7154e-08 -0.000805636 0.00235644 
-0.077151 0.638954 0.019099 3.7154e-08 -0.000805636 0.00235644 
-0.026269 0.67603 0.031774 0 -0.000484261 0.00141653 
-0.077151 0.638954 0.019099 0 -0.000484261 0.00141653 
-0.038945 0.638954 0.019099 0 -0.000484261 0.00141653 
-0.026269 0.67603 -0.031775 0.00235614 -0.000805547 0 
-0.026269 0.67603 0.031774 0.00235614 -0.000805547 0 
-0.038945 0.638954 0.019099 0.00235614 -0.000805547 0 
-0.026269 0.67603 -0.031775 0.0014163 -0.000484223 0 
-0.038945 0.638954 0.019099 0.0014163 -0.000484223 0 
-0.038945 0.638954 -0.019101 0.0014163 -0.000484223 0 
-0.089826 0.67603 -0.031775 0 -0.000805522 -0.00235644 
-0.026269 0.67603 -0.031775 0 -0.000805522 -0.00235644 
-0.038945 0.638954 -0.019101 0 -0.000805522 -0.00235644 
-0.089826 0.67603 -0.031775 0 -0.000484223 -0.00141653 
-0.038945 0.638954 -0.019101 0 -0.000484223 -0.00141653 
-0.077151 0.638954 -0.019101 0 -0.000484223 -0.00141653 
-0.009015 1.11434 0.049027 7.18048e-07 -1.96179e-07 0.0175998 
-0.107081 1.11434 0.049031 7.18048e-07 -1.96179e-07 0.0175998 
-0.107081 0.934871 0.049029 7.18048e-07 -1.96179e-07 0.0175998 
-0.009015 1.11434 0.049027 3.59024e-07 0 0.0175998 
-0.107081 0.934871 0.049029 3.59024e-07 0 0.0175998 
-0.009015 0.934871 0.049027 3.59024e-07 0 0.0175998 
-0.107081 1.11434 0.049031 -0.0175987 0 -0 
-0.107081 1.11434 -0.049029 -0.0175987 0 -0 
-0.107081 0.934871 -0.04903 -0.0175987 0 -0 
-0.107081 1.11434 0.049031 -0.0175985 0 0 
-0.107081 0.934871 -0.04903 -0.0175985 0 0 
-0.107081 0.934871 0.049029 -0.0175985 0 0 
-0.107081 1.11434 -0.049029 -3.59024e-07 0 -0.0175998 
-0.009015 1.11434 -0.049031 -3.59024e-07 0 -0.0175998 
-0.009015 0.934871 -0.049031 -3.59024e-07 0 -0.0175998 
-0.107081 1.11434 -0.049029 -1.79846e-07 9.79069e-08 -0.0175998 
-0.009015 0.934871 -0.049031 -1.79846e-07 9.79069e-08 -0.0175998 
-0.107081 0.934871 -0.04903 -1.79846e-07 9.79069e-08 -0.0175998 
-0.009015 1.11434 -0.049031 0.0175984 0 -0 
-0.009015 1.11434 0.049027 0.0175984 0 -0 
-0.009015 0.934871 0.049027 0.0175984 0 -0 
-0.009015 1.11434 -0.049031 0.0175984 0 0 
-0.009015 0.934871 0.049027 0.0175984 0 0 
-0.009015 0.934871 -0.049031 0.0175984 0 0 
-0.077151 0.638954 0.019099 -0.0012496 0.000484185 0 
-0.077151 0.638954 -0.019101 -0.0012496 0.000484185 0 
-0.089826 0.606242 -0.031775 -0.0012496 0.000484185 0 
-0.077151 0.638954 0.019099 -0.00207885 0.000805496 0 
-0.089826 0.606242 -0.031775 -0.00207885 0.000805496 0 
-0.089826 0.606242 0.031775 -0.00207885 0.000805496 0 
-0.038945 0.638954 0.019099 0 0.000484299 0.00124979 
-0.077151 0.638954 0.019099 0 0.000484299 0.00124979 
-0.089826 0.606242 0.031775 0 0.000484299 0.00124979 
-0.038945 0.638954 0.019099 3.27709e-08 0.000805598 0.00207908 
-0.089826 0.606242 0.031775 3.27709e-08 0.000805598 0.00207908 
-0.026269 0.606242 0.031774 3.27709e-08 0.000805598 0.00207908 
-0.038945 0.638954 -0.019101 0.0012496 0.000484223 -0 
-0.038945 0.638954 0.019099 0.0012496 0.000484223 -0 
-0.026269 0.606242 0.031774 0.0012496 0.000484223 -0 
-0.038945 0.638954 -0.019101 0.00207881 0.000805547 0 
-0.026269 0.606242 0.031774 0.00207881 0.000805547 0 
-0.026269 0.606242 -0.031775 0.00207881 0.000805547 0 
-0.077151 0.638954 -0.019101 0 0.000484223 -0.00124979 
-0.038945 0.638954 -0.019101 0 0.000484223 -0.00124979 
-0.026269 0.606242 -0.031775 0 0.000484223 -0.00124979 
-0.077151 0.638954 -0.019101 0 0.000805522 -0.00207908 
-0.026269 0.606242 -0.031775 0 0.000805522 -0.00207908 
-0.089826 0.606242 -0.031775 0 0.000805522 -0.00207908 
-0.089826 0.358715 0.031775 -0.00208139 -0.000805496 -0 
-0.089826 0.358715 -0.031775 -0.00208139 -0.000805496 -0 
-0.077151 0.325963 -0.019101 -0.00208139 -0.000805496 -0 
-0.089826 0.358715 0.031775 -0.00125113 -0.000484185 0 
-0.077151 0.325963 -0.019101 -0.00125113 -0.000484185 0 
-0.077151 0.325963 0.019099 -0.00125113 -0.000484185 0 
-0.026269 0.358715 0.031774 3.28209e-08 -0.000805636 0.00208162 
-0.089826 0.358715 0.031775 3.28209e-08 -0.000805636 0.00208162 
-0.077151 0.325963 0.019099 3.28209e-08 -0.000805636 0.00208162 
-0.026269 0.358715 0.031774 0 -0.000484261 0.00125132 
-0.077151 0.325963 0.019099 0 -0.000484261 0.00125132 
-0.038945 0.325963 0.019099 0 -0.000484261 0.00125132 
-0.026269 0.358715 -0.031775 0.00208136 -0.000805547 0 
-0.026269 0.358715 0.031774 0.00208136 -0.000805547 0 
-0.038945 0.325963 0.019099 0.00208136 -0.000805547 0 
-0.026269 0.358715 -0.031775 0.00125113 -0.000484223 0 
-0.038945 0.325963 0.019099 0.00125113 -0.000484223 0 
-0.038945 0.325963 -0.019101 0.00125113 -0.000484223 0 
-0.089826 0.358715 -0.031775 0 -0.000805522 -0.00208162 
-0.026269 0.358715 -0.031775 0 -0.000805522 -0.00208162 
-0.038945 0.325963 -0.019101 0 -0.000805522 -0.00208162 
-0.089826 0.358715 -0.031775 0 -0.000484223 -0.00125132 
-0.038945 0.325963 -0.019101 0 -0.000484223 -0.00125132 
-0.077151 0.325963 -0.019101 0 -0.000484223 -0.00125132 
-0.026269 0.903243 0.031774 2.27691e-07 0 0.014441 
-0.089826 0.903243 0.031775 2.27691e-07 0 0.014441 
-0.089826 0.67603 0.031775 2.27691e-07 0 0.014441 
-0.026269 0.903243 0.031774 2.27691e-07 0 0.014441 
-0.089826 0.67603 0.031775 2.27691e-07 0 0.014441 
-0.026269 0.67603 0.031774 2.27691e-07 0 0.014441 
-0.089826 0.903243 0.031775 -0.0144394 0 -0 
-0.089826 0.903243 -0.031775 -0.0144394 0 -0 
-0.089826 0.67603 -0.031775 -0.0144394 0 -0 
-0.089826 0.903243 0.031775 -0.0144394 -0 0 
-0.089826 0.67603 -0.031775 -0.0144394 -0 0 
-0.089826 0.67603 0.031775 -0.0144394 -0 0 
-0.089826 0.903243 -0.031775 0 0 -0.014441 
-0.026269 0.903243 -0.031775 0 0 -0.014441 
-0.026269 0.67603 -0.031775 0 0 -0.014441 
-0.089826 0.903243 -0.031775 0 0 -0.014441 
-0.026269 0.67603 -0.031775 0 0 -0.014441 
-0.089826 0.67603 -0.031775 0 0 -0.014441 
-0.026269 0.903243 -0.031775 0.0144392 0 -0 
-0.026269 0.903243 0.031774 0.0144392 0 -0 
-0.026269 0.67603 0.031774 0.0144392 0 -0 
-0.026269 0.903243 -0.031775 0.0144392 0 0 
-0.026269 0.67603 0.031774 0.0144392 0 0 
-0.026269 0.67603 -0.031775 0.0144392 0 0 
-0.089826 0.295389 0.031774 -0.00387064 0 -0 
-0.089826 0.295389 -0.031775 -0.00387064 0 -0 
-0.089826 0.234481 -0.031775 -0.00387064 0 -0 
-0.089826 0.295389 0.031774 -0.00387064 -0 0 
-0.089826 0.234481 -0.031775 -0.00387064 -0 0 
-0.089826 0.234481 0.031774 -0.00387064 -0 0 
-0.026269 0.295389 0.031774 0 0 0.00387113 
-0.089826 0.295389 0.031774 0 0 0.00387113 
-0.089826 0.234481 0.031774 0 0 0.00387113 
-0.026269 0.295389 0.031774 0 0 0.00387113 
-0.089826 0.234481 0.031774 0 0 0.00387113 
-0.026269 0.234481 0.031774 0 0 0.00387113 
-0.026269 0.295389 -0.031775 0.00387064 0 -0 
-0.026269 0.295389 0.031774 0.00387064 0 -0 
-0.026269 0.234481 0.031774 0.00387064 0 -0 
-0.026269 0.295389 -0.031775 0.00387064 0 0 
-0.026269 0.234481 0.031774 0.00387064 0 0 
-0.026269 0.234481 -0.031775 0.00387064 0 0 
-0.089826 0.295389 -0.031775 0 0 -0.00387113 
-0.026269 0.295389 -0.031775 0 0 -0.00387113 
-0.026269 0.234481 -0.031775 0 0 -0.00387113 
-0.089826 0.295389 -0.031775 0 0 -0.00387113 
-0.026269 0.234481 -0.031775 0 0 -0.00387113 
-0.089826 0.234481 -0.031775 0 0 -0.00387113 
-0.026269 0.606242 0.031774 2.48048e-07 0 0.0157321 
-0.089826 0.606242 0.031775 2.48048e-07 0 0.0157321 
-0.089826 0.358715 0.031775 2.48048e-07 0 0.0157321 
-0.026269 0.606242 0.031774 2.48048e-07 0 0.0157321 
-0.089826 0.358715 0.031775 2.48048e-07 0 0.0157321 
-0.026269 0.358715 0.031774 2.48048e-07 0 0.0157321 
-0.089826 0.606242 0.031775 -0.0157303 0 -0 
-0.089826 0.606242 -0.031775 -0.0157303 0 -0 
-0.089826 0.358715 -0.031775 -0.0157303 0 -0 
-0.089826 0.606242 0.031775 -0.0157303 -0 0 
-0.089826 0.358715 -0.031775 -0.0157303 -0 0 
-0.089826 0.358715 0.031775 -0.0157303 -0 0 
-0.089826 0.606242 -0.031775 0 0 -0.0157321 
-0.026269 0.606242 -0.031775 0 0 -0.0157321 
-0.026269 0.358715 -0.031775 0 0 -0.0157321 
-0.089826 0.606242 -0.031775 0 0 -0.0157321 
-0.026269 0.358715 -0.031775 0 0 -0.0157321 
-0.089826 0.358715 -0.031775 0 0 -0.0157321 
-0.026269 0.606242 -0.031775 0.0157301 0 -0 
-0.026269 0.606242 0.031774 0.0157301 0 -0 
-0.026269 0.358715 0.031774 0.0157301 0 -0 
-0.026269 0.606242 -0.031775 0.0157301 0 0 
-0.026269 0.358715 0.031774 0.0157301 0 0 
-0.026269 0.358715 -0.031775 0.0157301 0 0 
-0.077151 0.325963 0.019099 -0.00116793 0.000484185 0 
-0.077151 0.325963 -0.019101 -0.00116793 0.000484185 0 
-0.089826 0.295389 -0.031775 -0.00116793 0.000484185 0 
-0.077151 0.325963 0.019099 -0.00194295 0.000805484 0 
-0.089826 0.295389 -0.031775 -0.00194295 0.000805484 0 
-0.089826 0.295389 0.031774 -0.00194295 0.000805484 0 
-0.038945 0.325963 0.019099 0 0.000484261 0.00116811 
-0.077151 0.325963 0.019099 0 0.000484261 0.00116811 
-0.089826 0.295389 0.031774 0 0.000484261 0.00116811 
-0.038945 0.325963 0.019099 0 0.000805585 0.00194319 
-0.089826 0.295389 0.031774 0 0.000805585 0.00194319 
-0.026269 0.295389 0.031774 0 0.000805585 0.00194319 
-0.038945 0.325963 -0.019101 0.00116793 0.000484223 -0 
-0.038945 0.325963 0.019099 0.00116793 0.000484223 -0 
-0.026269 0.295389 0.031774 0.00116793 0.000484223 -0 
-0.038945 0.325963 -0.019101 0.00194295 0.000805547 0 
-0.026269 0.295389 0.031774 0.00194295 0.000805547 0 
-0.026269 0.295389 -0.031775 0.00194295 0.000805547 0 
-0.077151 0.325963 -0.019101 0 0.000484223 -0.00116811 
-0.038945 0.325963 -0.019101 0 0.000484223 -0.00116811 
-0.026269 0.295389 -0.031775 0 0.000484223 -0.00116811 
-0.077151 0.325963 -0.019101 0 0.000805522 -0.00194319 
-0.026269 0.295389 -0.031775 0 0.000805522 -0.00194319 
-0.089826 0.295389 -0.031775 0 0.000805522 -0.00194319 
-0.089826 0.234481 -0.031775 0 -0.000922721 0 
-0.026269 0.234481 -0.031775 0 -0.000922721 0 
-0.04079 0.234481 -0.017257 0 -0.000922721 0 
-0.089826 0.234481 -0.031775 0 -0.000500991 0 
-0.04079 0.234481 -0.017257 0 -0.000500991 0 
-0.075305 0.234481 -0.017259 0 -0.000500991 0 
-0.04079 0.234481 0.017256 0 -0.000501163 0 
-0.04079 0.234481 -0.017257 0 -0.000501163 0 
-0.026269 0.234481 -0.031775 0 -0.000501163 0 
-0.04079 0.234481 0.017256 0 -0.000922795 0 
-0.026269 0.234481 -0.031775 0 -0.000922795 0 
-0.026269 0.234481 0.031774 0 -0.000922795 0 
-0.075305 0.234481 0.017256 0 -0.000501089 0 
-0.04079 0.234481 0.017256 0 -0.000501089 0 
-0.026269 0.234481 0.031774 0 -0.000501089 0 
-0.075305 0.234481 0.017256 0 -0.000922721 0 
-0.026269 0.234481 0.031774 0 -0.000922721 0 
-0.089826 0.234481 0.031774 0 -0.000922721 0 
-0.089826 0.234481 0.031774 0 -0.000922795 0 
-0.089826 0.234481 -0.031775 0 -0.000922795 0 
-0.075305 0.234481 -0.017259 0 -0.000922795 0 
-0.089826 0.234481 0.031774 0 -0.000501192 0 
-0.075305 0.234481 -0.017259 0 -0.000501192 0 
-0.075305 0.234481 0.017256 0 -0.000501192 0 
-0.075305 0.15831 -0.01726 1.70276e-07 -4.93379e-08 -0.00200314 
-0.041701 0.152454 -0.017257 1.70276e-07 -4.93379e-08 -0.00200314 
-0.058143 0.095709 -0.017257 1.70276e-07 -4.93379e-08 -0.00200314 
-0.075305 0.15831 -0.01726 0 -1.03576e-07 -0.0021608 
-0.058143 0.095709 -0.017257 0 -1.03576e-07 -0.0021608 
-0.09266 0.095709 -0.017257 0 -1.03576e-07 -0.0021608 
0.027598 0.117 -0.013574 0.000122944 0.000348229 0 
0.01477 0.121529 -0.013574 0.000122944 0.000348229 0 
0.01477 0.121529 0.013572 0.000122944 0.000348229 0 
0.027598 0.117 -0.013574 0.000122944 0.000348229 -0 
0.01477 0.121529 0.013572 0.000122944 0.000348229 -0 
0.027598 0.117 0.013572 0.000122944 0.000348229 -0 
-0.09266 0.095709 0.017256 0 0 0.00195867 
-0.058143 0.095709 0.017256 0 0 0.00195867 
-0.041701 0.152454 0.017256 0 0 0.00195867 
-0.09266 0.095709 0.017256 0 0 0.00220527 
-0.041701 0.152454 0.017256 0 0 0.00220527 
-0.075305 0.15831 0.017256 0 0 0.00220527 
-0.041701 0.152454 -0.017257 0.00195844 -0.000567463 0 
-0.041701 0.152454 0.017256 0.00195844 -0.000567463 0 
-0.058143 0.095709 0.017256 0.00195844 -0.000567463 0 
-0.041701 0.152454 -0.017257 0.00195844 -0.000567463 0 
-0.058143 0.095709 0.017256 0.00195844 -0.000567463 0 
-0.058143 0.095709 -0.017257 0.00195844 -0.000567463 0 
-0.075305 0.15831 0.017256 -0.00216074 0.000599025 0 
-0.075305 0.15831 -0.01726 -0.00216074 0.000599025 0 
-0.09266 0.095709 -0.017257 -0.00216074 0.000599025 0 
-0.075305 0.15831 0.017256 -0.00216055 0.000598973 0 
-0.09266 0.095709 -0.017257 -0.00216055 0.000598973 0 
-0.09266 0.095709 0.017256 -0.00216055 0.000598973 0 
-0.09266 0.095709 -0.017257 0 0 -0.00155054 
-0.058143 0.095709 -0.017257 0 0 -0.00155054 
-0.058143 0.050788 -0.017257 0 0 -0.00155054 
-0.09266 0.095709 -0.017257 0 0 -0.00204707 
-0.058143 0.050788 -0.017257 0 0 -0.00204707 
-0.09266 0.036403 -0.017257 0 0 -0.00204707 
-0.058143 0.095709 -0.017257 0.00155036 0 -0 
-0.058143 0.095709 0.017256 0.00155036 0 -0 
-0.058143 0.050788 0.017256 0.00155036 0 -0 
-0.058143 0.095709 -0.017257 0.00155036 0 0 
-0.058143 0.050788 0.017256 0.00155036 0 0 
-0.058143 0.050788 -0.017257 0.00155036 0 0 
-0.058143 0.095709 0.017256 0 0 0.00204707 
-0.09266 0.095709 0.017256 0 0 0.00204707 
-0.09266 0.036403 0.017256 0 0 0.00204707 
-0.058143 0.095709 0.017256 0 0 0.00155054 
-0.09266 0.036403 0.017256 0 0 0.00155054 
-0.058143 0.050788 0.017256 0 0 0.00155054 
-0.09266 0.095709 0.017256 -0.00204683 0 -0 
-0.09266 0.095709 -0.017257 -0.00204683 0 -0 
-0.09266 0.036403 -0.017257 -0.00204683 0 -0 
-0.09266 0.095709 0.017256 -0.00204683 -0 0 
-0.09266 0.036403 -0.017257 -0.00204683 -0 0 
-0.09266 0.036403 0.017256 -0.00204683 -0 0 
-0.09266 0.036403 -0.017257 0 0 -0.000796038 
-0.058143 0.050788 -0.017257 0 0 -0.000796038 
-0.037034 0.036523 -0.017257 0 0 -0.000796038 
-0.09266 0.036403 -0.017257 0 0 -0.00203067 
-0.037034 0.036523 -0.017257 0 0 -0.00203067 
-0.045047 0 -0.017257 0 0 -0.00203067 
-0.058143 0.050788 -0.017257 0.000492328 0.000728535 -0 
-0.058143 0.050788 0.017256 0.000492328 0.000728535 -0 
-0.037034 0.036523 0.017256 0.000492328 0.000728535 -0 
-0.058143 0.050788 -0.017257 0.000492328 0.000728535 0 
-0.037034 0.036523 0.017256 0.000492328 0.000728535 0 
-0.037034 0.036523 -0.017257 0.000492328 0.000728535 0 
-0.058143 0.050788 0.017256 0 0 0.00194144 
-0.09266 0.036403 0.017256 0 0 0.00194144 
-0.045047 0 0.017256 0 0 0.00194144 
-0.058143 0.050788 0.017256 0 0 0.000885269 
-0.045047 0 0.017256 0 0 0.000885269 
-0.037034 0.036523 0.017256 0 0 0.000885269 
-0.09266 0.036403 0.017256 -0.00125638 -0.00164327 -0 
-0.09266 0.036403 -0.017257 -0.00125638 -0.00164327 -0 
-0.045047 0 -0.017257 -0.00125638 -0.00164327 -0 
-0.09266 0.036403 0.017256 -0.00125638 -0.00164327 0 
-0.045047 0 -0.017257 -0.00125638 -0.00164327 0 
-0.045047 0 0.017256 -0.00125638 -0.00164327 0 
-0.045047 0 -0.017257 0 0 -0.000920219 
-0.037034 0.036523 -0.017257 0 0 -0.000920219 
-0.011386 0.038585 -0.017257 0 0 -0.000920219 
-0.045047 0 -0.017257 0 0 -0.00191446 
-0.011386 0.038585 -0.017257 0 0 -0.00191446 
0.016482 0.013655 -0.017257 0 0 -0.00191446 
-0.037034 0.036523 -0.017257 -7.11658e-05 0.000885189 0 
-0.037034 0.036523 0.017256 -7.11658e-05 0.000885189 0 
-0.011386 0.038585 0.017256 -7.11658e-05 0.000885189 0 
-0.037034 0.036523 -0.017257 -7.11658e-05 0.000885189 0 
-0.011386 0.038585 0.017256 -7.11658e-05 0.000885189 0 
-0.011386 0.038585 -0.017257 -7.11658e-05 0.000885189 0 
-0.037034 0.036523 0.017256 0 0 0.00213781 
-0.045047 0 0.017256 0 0 0.00213781 
0.016482 0.013655 0.017256 0 0 0.00213781 
-0.037034 0.036523 0.017256 -0 0 0.000696869 
0.016482 0.013655 0.017256 -0 0 0.000696869 
-0.011386 0.038585 0.017256 -0 0 0.000696869 
-0.045047 0 0.017256 0.000471275 -0.00212355 0 
-0.045047 0 -0.017257 0.000471275 -0.00212355 0 
0.016482 0.013655 -0.017257 0.000471275 -0.00212355 0 
-0.045047 0 0.017256 0.000471275 -0.00212355 0 
0.016482 0.013655 -0.017257 0.000471275 -0.00212355 0 
0.016482 0.013655 0.017256 0.000471275 -0.00212355 0 
0.016482 0.013655 -0.017257 0 0 -0.000886258 
-0.011386 0.038585 -0.017257 0 0 -0.000886258 
0.002254 0.058185 -0.017257 0 0 -0.000886258 
0.016482 0.013655 -0.017257 0 0 -0.00166377 
0.002254 0.058185 -0.017257 0 0 -0.00166377 
0.039617 0.058185 -0.017257 0 0 -0.00166377 
-0.011386 0.038585 -0.017257 -0.000676455 0.000470757 0 
-0.011386 0.038585 0.017256 -0.000676455 0.000470757 0 
0.002254 0.058185 0.017256 -0.000676455 0.000470757 0 
-0.011386 0.038585 -0.017257 -0.000676455 0.000470757 0 
0.002254 0.058185 0.017256 -0.000676455 0.000470757 0 
0.002254 0.058185 -0.017257 -0.000676455 0.000470757 0 
-0.011386 0.038585 0.017256 -0 0 0.00181772 
0.016482 0.013655 0.017256 -0 0 0.00181772 
0.039617 0.058185 0.017256 -0 0 0.00181772 
-0.011386 0.038585 0.017256 0 0 0.000732315 
0.039617 0.058185 0.017256 0 0 0.000732315 
0.002254 0.058185 0.017256 0 0 0.000732315 
0.016482 0.013655 0.017256 0.00153686 -0.000798458 0 
0.016482 0.013655 -0.017257 0.00153686 -0.000798458 0 
0.039617 0.058185 -0.017257 0.00153686 -0.000798458 0 
0.016482 0.013655 0.017256 0.00153686 -0.000798458 0 
0.039617 0.058185 -0.017257 0.00153686 -0.000798458 0 
0.039617 0.058185 0.017256 0.00153686 -0.000798458 0 
0.039617 0.058185 -0.017257 0 0 -0.00103271 
0.002254 0.058185 -0.017257 0 0 -0.00103271 
0.001098 0.085825 -0.017257 0 0 -0.00103271 
0.039617 0.058185 -0.017257 0 0 -0.000577538 
0.001098 0.085825 -0.017257 0 0 -0.000577538 
0.021993 0.085825 -0.017257 0 0 -0.000577538 
0.002254 0.058185 -0.017257 -0.000953939 -3.9897e-05 0 
0.002254 0.058185 0.017256 -0.000953939 -3.9897e-05 0 
0.001098 0.085825 0.017256 -0.000953939 -3.9897e-05 0 
0.002254 0.058185 -0.017257 -0.000953939 -3.9897e-05 0 
0.001098 0.085825 0.017256 -0.000953939 -3.9897e-05 0 
0.001098 0.085825 -0.017257 -0.000953939 -3.9897e-05 0 
0.002254 0.058185 0.017256 0 0 0.00103271 
0.039617 0.058185 0.017256 0 0 0.00103271 
0.021993 0.085825 0.017256 0 0 0.00103271 
0.002254 0.058185 0.017256 0 -0 0.000577538 
0.021993 0.085825 0.017256 0 -0 0.000577538 
0.001098 0.085825 0.017256 0 -0 0.000577538 
0.039617 0.058185 0.017256 0.000953939 0.000608257 0 
0.039617 0.058185 -0.017257 0.000953939 0.000608257 0 
0.021993 0.085825 -0.017257 0.000953939 0.000608257 0 
0.039617 0.058185 0.017256 0.000953939 0.000608257 0 
0.021993 0.085825 -0.017257 0.000953939 0.000608257 0 
0.021993 0.085825 0.017256 0.000953939 0.000608257 0 
0.021993 0.085825 -0.017257 0 7.69563e-05 -0.000746035 
0.001098 0.085825 -0.017257 0 7.69563e-05 -0.000746035 
0.01477 0.121529 -0.013574 0 7.69563e-05 -0.000746035 
0.021993 0.085825 -0.017257 1.66803e-05 4.72455e-05 -0.000425298 
0.01477 0.121529 -0.013574 1.66803e-05 4.72455e-05 -0.000425298 
0.027598 0.117 -0.013574 1.66803e-05 4.72455e-05 -0.000425298 
0.001098 0.085825 -0.017257 -0.00123225 0.000471862 0 
0.001098 0.085825 0.017256 -0.00123225 0.000471862 0 
0.01477 0.121529 0.013572 -0.00123225 0.000471862 0 
0.001098 0.085825 -0.017257 -0.000969221 0.00037114 0 
0.01477 0.121529 0.013572 -0.000969221 0.00037114 0 
0.01477 0.121529 -0.013574 -0.000969221 0.00037114 0 
0.001098 0.085825 0.017256 -0 7.69772e-05 0.000651402 
0.021993 0.085825 0.017256 -0 7.69772e-05 0.000651402 
0.027598 0.117 0.013572 -0 7.69772e-05 0.000651402 
0.001098 0.085825 0.017256 1.66848e-05 4.72583e-05 0.000519931 
0.027598 0.117 0.013572 1.66848e-05 4.72583e-05 0.000519931 
0.01477 0.121529 0.013572 1.66848e-05 4.72583e-05 0.000519931 
0.021993 0.085825 0.017256 0.00107594 -0.000193445 0 
0.021993 0.085825 -0.017257 0.00107594 -0.000193445 0 
0.027598 0.117 -0.013574 0.00107594 -0.000193445 0 
0.021993 0.085825 0.017256 0.000846276 -0.000152153 0 
0.027598 0.117 -0.013574 0.000846276 -0.000152153 0 
0.027598 0.117 0.013572 0.000846276 -0.000152153 0 
-0.075305 0.190867 0.017256 0 0 0.00276674 
-0.011868 0.190867 0.017256 0 0 0.00276674 
-0.04079 0.234481 0.017256 0 0 0.00276674 
-0.075305 0.190867 0.017256 0 0 0.00150534 
-0.04079 0.234481 0.017256 0 0 0.00150534 
-0.075305 0.234481 0.017256 0 0 0.00150534 
-0.011868 0.190867 0.017256 0.00150525 0.000998185 0 
-0.011868 0.190867 -0.017257 0.00150525 0.000998185 0 
-0.04079 0.234481 -0.017257 0.00150525 0.000998185 0 
-0.011868 0.190867 0.017256 0.00150525 0.000998185 0 
-0.04079 0.234481 -0.017257 0.00150525 0.000998185 0 
-0.04079 0.234481 0.017256 0.00150525 0.000998185 0 
-0.011868 0.190867 -0.017257 8.7249e-08 0 -0.00276674 
-0.075305 0.190867 -0.017259 8.7249e-08 0 -0.00276674 
-0.075305 0.234481 -0.017259 8.7249e-08 0 -0.00276674 
-0.011868 0.190867 -0.017257 8.7249e-08 5.78579e-08 -0.00150534 
-0.075305 0.234481 -0.017259 8.7249e-08 5.78579e-08 -0.00150534 
-0.04079 0.234481 -0.017257 8.7249e-08 5.78579e-08 -0.00150534 
-0.075305 0.190867 -0.017259 -0.00150534 0 0 
-0.075305 0.190867 0.017256 -0.00150534 0 0 
-0.075305 0.234481 0.017256 -0.00150534 0 0 
-0.075305 0.190867 -0.017259 -0.00150534 0 0 
-0.075305 0.234481 0.017256 -0.00150534 0 0 
-0.075305 0.234481 -0.017259 -0.00150534 0 0 
-0.075305 0.15831 -0.01726 1.75722e-08 -8.95205e-08 -0.000371487 
-0.011868 0.15831 -0.017257 1.75722e-08 -8.95205e-08 -0.000371487 
-0.041701 0.152454 -0.017257 1.75722e-08 -8.95205e-08 -0.000371487 
0.015889 0.114643 -0.009919 0.000325747 -0.000118461 0 
0.015889 0.114643 0.009917 0.000325747 -0.000118461 0 
0.009917 0.098221 0.009917 0.000325747 -0.000118461 0 
0.015889 0.114643 -0.009919 0.000325747 -0.000118461 0 
0.009917 0.098221 0.009917 0.000325747 -0.000118461 0 
0.009917 0.098221 -0.009919 0.000325747 -0.000118461 0 
-0.075305 0.15831 0.017256 -0 0 0.000371487 
-0.041701 0.152454 0.017256 -0 0 0.000371487 
-0.011868 0.15831 0.017256 -0 0 0.000371487 
-0.011868 0.15831 0.017256 0.00112364 0 0 
-0.011868 0.15831 -0.017257 0.00112364 0 0 
-0.011868 0.190867 -0.017257 0.00112364 0 0 
-0.011868 0.15831 0.017256 0.00112364 -0 0 
-0.011868 0.190867 -0.017257 0.00112364 -0 0 
-0.011868 0.190867 0.017256 0.00112364 -0 0 
-0.011868 0.15831 -0.017257 9.76945e-08 6.34522e-08 -0.00206532 
-0.075305 0.15831 -0.01726 9.76945e-08 6.34522e-08 -0.00206532 
-0.075305 0.190867 -0.017259 9.76945e-08 6.34522e-08 -0.00206532 
-0.011868 0.15831 -0.017257 6.51297e-08 0 -0.00206532 
-0.075305 0.190867 -0.017259 6.51297e-08 0 -0.00206532 
-0.011868 0.190867 -0.017257 6.51297e-08 0 -0.00206532 
-0.075305 0.15831 -0.01726 -0.00112374 0 0 
-0.075305 0.15831 0.017256 -0.00112374 0 0 
-0.075305 0.190867 0.017256 -0.00112374 0 0 
-0.075305 0.15831 -0.01726 -0.00112371 0 0 
-0.075305 0.190867 0.017256 -0.00112371 0 0 
-0.075305 0.190867 -0.017259 -0.00112371 0 0 
-0.075305 0.15831 0.017256 0 0 0.00206532 
-0.011868 0.15831 0.017256 0 0 0.00206532 
-0.011868 0.190867 0.017256 0 0 0.00206532 
-0.075305 0.15831 0.017256 0 0 0.00206532 
-0.011868 0.190867 0.017256 0 0 0.00206532 
-0.075305 0.190867 0.017256 0 0 0.00206532 
-0.011868 0.15831 -0.017257 4.29684e-05 -0.00021895 0 
-0.011868 0.15831 0.017256 4.29684e-05 -0.00021895 0 
-0.018212 0.157065 0.009917 4.29684e-05 -0.00021895 0 
-0.011868 0.15831 -0.017257 2.46957e-05 -0.00012584 0 
-0.018212 0.157065 0.009917 2.46957e-05 -0.00012584 0 
-0.018212 0.157065 -0.009919 2.46957e-05 -0.00012584 0 
-0.011868 0.15831 0.017256 4.29771e-05 -0.000218944 -3.12866e-09 
-0.041701 0.152454 0.017256 4.29771e-05 -0.000218944 -3.12866e-09 
-0.035359 0.153699 0.009917 4.29771e-05 -0.000218944 -3.12866e-09 
-0.011868 0.15831 0.017256 2.47031e-05 -0.000125842 -6.07906e-09 
-0.035359 0.153699 0.009917 2.47031e-05 -0.000125842 -6.07906e-09 
-0.018212 0.157065 0.009917 2.47031e-05 -0.000125842 -6.07906e-09 
-0.041701 0.152454 0.017256 4.29684e-05 -0.000218881 0 
-0.041701 0.152454 -0.017257 4.29684e-05 -0.000218881 0 
-0.035359 0.153699 -0.009919 4.29684e-05 -0.000218881 0 
-0.041701 0.152454 0.017256 2.46957e-05 -0.0001258 0 
-0.035359 0.153699 -0.009919 2.46957e-05 -0.0001258 0 
-0.035359 0.153699 0.009917 2.46957e-05 -0.0001258 0 
-0.041701 0.152454 -0.017257 4.29713e-05 -0.000218915 8.57108e-09 
-0.011868 0.15831 -0.017257 4.29713e-05 -0.000218915 8.57108e-09 
-0.018212 0.157065 -0.009919 4.29713e-05 -0.000218915 8.57108e-09 
-0.041701 0.152454 -0.017257 2.46998e-05 -0.000125825 6.4756e-10 
-0.018212 0.157065 -0.009919 2.46998e-05 -0.000125825 6.4756e-10 
-0.035359 0.153699 -0.009919 2.46998e-05 -0.000125825 6.4756e-10 
-0.018212 0.157065 -0.009919 0.000841483 0.000676428 -0 
-0.018212 0.157065 0.009917 0.000841483 0.000676428 -0 
0.015889 0.114643 0.009917 0.000841483 0.000676428 -0 
-0.018212 0.157065 -0.009919 0.000841483 0.000676428 0 
0.015889 0.114643 0.009917 0.000841483 0.000676428 0 
0.015889 0.114643 -0.009919 0.000841483 0.000676428 0 
-0.018212 0.157065 0.009917 0 0 0.00110368 
-0.035359 0.153699 0.009917 0 0 0.00110368 
0.009917 0.098221 0.009917 0 0 0.00110368 
-0.018212 0.157065 0.009917 0 0 0.000813351 
0.009917 0.098221 0.009917 0 0 0.000813351 
0.015889 0.114643 0.009917 0 0 0.000813351 
-0.035359 0.153699 0.009917 -0.00110046 -0.000898095 -0 
-0.035359 0.153699 -0.009919 -0.00110046 -0.000898095 -0 
0.009917 0.098221 -0.009919 -0.00110046 -0.000898095 -0 
-0.035359 0.153699 0.009917 -0.00110046 -0.000898095 0 
0.009917 0.098221 -0.009919 -0.00110046 -0.000898095 0 
0.009917 0.098221 0.009917 -0.00110046 -0.000898095 0 
-0.035359 0.153699 -0.009919 0 0 -0.000842194 
-0.018212 0.157065 -0.009919 0 0 -0.000842194 
0.015889 0.114643 -0.009919 0 0 -0.000842194 
-0.035359 0.153699 -0.009919 0 0 -0.00107484 
0.015889 0.114643 -0.009919 0 0 -0.00107484 
0.009917 0.098221 -0.009919 0 0 -0.00107484 
3 0 1 2
3 3 4 5
3 6 7 8
3 9 10 11
3 12 13 14
3 15 16 17
3 18 19 20
3 21 22 23
3 24 25 26
3 27 28 29
3 30 31 32
3 33 34 35
3 36 37 38
3 39 40 41
3 42 43 44
3 45 46 47
3 48 49 50
3 51 52 53
3 54 55 56
3 57 58 59
3 60 61 62
3 63 64 65
3 66 67 68
3 69 70 71
3 72 73 74
3 75 76 77
3 78 79 80
3 81 82 83
3 84 85 86
3 87 88 89
3 90 91 92
3 93 94 95
3 96 97 98
3 99 100 101
3 102 103 104
3 105 106 107
3 108 109 110
3 111 112 113
3 114 115 116
3 117 118 119
3 120 121 122
3 123 124 125
3 126 127 128
3 129 130 131
3 132 133 134
3 135 136 137
3 138 139 140
3 141 142 143
3 144 145 146
3 147 148 149
3 150 151 152
3 153 154 155
3 156 157 158
3 159 160 161
3 162 163 164
3 165 166 167
3 168 169 170
3 171 172 173
3 174 175 176
3 177 178 179
3 180 181 182
3 183 184 185
3 186 187 188
3 189 190 191
3 192 193 194
3 195 196 197
3 198 199 200
3 201 202 203
3 204 205 206
3 207 208 209
3 210 211 212
3 213 214 215
3 216 217 218
3 219 220 221
3 222 223 224
3 225 226 227
3 228 229 230
3 231 232 233
3 234 235 236
3 237 238 239
3 240 241 242
3 243 244 245
3 246 247 248
3 249 250 251
3 252 253 254
3 255 256 257
3 258 259 260
3 261 262 263
3 264 265 266
3 267 268 269
3 270 271 272
3 273 274 275
3 276 277 278
3 279 280 281
3 282 283 284
3 285 286 287
3 288 289 290
3 291 292 293
3 294 295 296
3 297 298 299
3 300 301 302
3 303 304 305
3 306 307 308
3 309 310 311
3 312 313 314
3 315 316 317
3 318 319 320
3 321 322 323
3 324 325 326
3 327 328 329
3 330 331 332
3 333 334 335
3 336 337 338
3 339 340 341
3 342 343 344
3 345 346 347
3 348 349 350
3 351 352 353
3 354 355 356
3 357 358 359
3 360 361 362
3 363 364 365
3 366 367 368
3 369 370 371
3 372 373 374
3 375 376 377
3 378 379 380
3 381 382 383
3 384 385 386
3 387 388 389
3 390 391 392
3 393 394 395
3 396 397 398
3 399 400 401
3 402 403 404
3 405 406 407
3 408 409 410
3 411 412 413
3 414 415 416
3 417 418 419
3 420 421 422
3 423 424 425
3 426 427 428
3 429 430 431
3 432 433 434
3 435 436 437
3 438 439 440
3 441 442 443
3 444 445 446
3 447 448 449
3 450 451 452
3 453 454 455
3 456 457 458
3 459 460 461
3 462 463 464
3 465 466 467
3 468 469 470
3 471 472 473
3 474 475 476
3 477 478 479
3 480 481 482
3 483 484 485
3 486 487 488
3 489 490 491
3 492 493 494
3 495 496 497
3 498 499 500
3 501 502 503
3 504 505 506
3 507 508 509
3 510 511 512
3 513 514 515
3 516 517 518
3 519 520 521
3 522 523 524
3 525 526 527
3 528 529 530
3 531 532 533
3 534 535 536
3 537 538 539
3 540 541 542
3 543 544 545
3 546 547 548
3 549 550 551
3 552 553 554
3 555 556 557
3 558 559 560
3 561 562 563
3 564 565 566
3 567 568 569
3 570 571 572
3 573 574 575
3 576 577 578
3 579 580 581
3 582 583 584
3 585 586 587
3 588 589 590
3 591 592 593
3 594 595 596
3 597 598 599
3 600 601 602
3 603 604 605
3 606 607 608
3 609 610 611
3 612 613 614
3 615 616 617
3 618 619 620
3 621 622 623
3 624 625 626
3 627 628 629
3 630 631 632
3 633 634 635
3 636 637 638
3 639 640 641
3 642 643 644
3 645 646 647
3 648 649 650
3 651 652 653
3 654 655 656
3 657 658 659
3 660 661 662
3 663 664 665
3 666 667 668
3 669 670 671
3 672 673 674
3 675 676 677
3 678 679 680
3 681 682 683
3 684 685 686
3 687 688 689
3 690 691 692
3 693 694 695
3 696 697 698
3 699 700 701
3 702 703 704
3 705 706 707
3 708 709 710
3 711 712 713
3 714 715 716
3 717 718 719
3 720 721 722
3 723 724 725
3 726 727 728
3 729 730 731
3 732 733 734
3 735 736 737
3 738 739 740
3 741 742 743
3 744 745 746
3 747 748 749
3 750 751 752
3 753 754 755
3 756 757 758
3 759 760 761
3 762 763 764
3 765 766 767
3 768 769 770
3 771 772 773
3 774 775 776
3 777 778 779
3 780 781 782
3 783 784 785
3 786 787 788
3 789 790 791
3 792 793 794
3 795 796 797
3 798 799 800
3 801 802 803
3 804 805 806
3 807 808 809
3 810 811 812
3 813 814 815
3 816 817 818
3 819 820 821
3 822 823 824
3 825 826 827
