ply
format ascii 1.0
comment Feeney's Flatenator generated
comment TextureFile SpaceInteriors_Texture.png
element vertex 156
property float x
property float y
property float z
property float nx
property float ny
property float nz
property float texture_u
property float texture_v
element face 52
property list uchar int vertex_indices
end_header
-0.469685 -0.028386 0.337975 0 0 0.05333 0.358354 0.060665 
0.469687 -0.028386 0.337975 0 0 0.05333 0.358354 0.060665 
0.469687 0.028386 0.337975 0 0 0.05333 0.358354 0.060665 
-0.469685 -0.028386 0.337975 0 0 0.05333 0.358354 0.060665 
0.469687 0.028386 0.337975 0 0 0.05333 0.358354 0.060665 
-0.469685 0.028386 0.337975 0 0 0.05333 0.358354 0.060665 
-0.157555 0.153618 -0.076019 -0 0.0300226 0 0.42446 0.480927 
0.157557 0.153618 -0.076019 -0 0.0300226 0 0.42446 0.480927 
0.157557 0.153618 -0.171295 -0 0.0300226 0 0.42446 0.480927 
-0.157555 0.153618 -0.076019 0 0.0300226 0 0.42446 0.480927 
0.157557 0.153618 -0.171295 0 0.0300226 0 0.42446 0.480927 
-0.157555 0.153618 -0.171295 0 0.0300226 0 0.42446 0.480927 
-0.469685 0.028386 -0.337975 0 0 -0.05333 0.358354 0.060665 
0.469687 0.028386 -0.337975 0 0 -0.05333 0.358354 0.060665 
0.469687 -0.028386 -0.337975 0 0 -0.05333 0.358354 0.060665 
-0.469685 0.028386 -0.337975 0 0 -0.05333 0.358354 0.060665 
0.469687 -0.028386 -0.337975 0 0 -0.05333 0.358354 0.060665 
-0.469685 -0.028386 -0.337975 0 0 -0.05333 0.358354 0.060665 
-0.327617 -0.153618 -0.235747 0 -0.308939 0 0.239648 0.060665 
0.327619 -0.153618 -0.235747 0 -0.308939 0 0.239648 0.060665 
0.327619 -0.153618 0.235745 0 -0.308939 0 0.239648 0.060665 
-0.327617 -0.153618 -0.235747 0 -0.308939 0 0.239648 0.060665 
0.327619 -0.153618 0.235745 0 -0.308939 0 0.239648 0.060665 
-0.327617 -0.153618 0.235745 0 -0.308939 0 0.239648 0.060665 
0.469687 -0.028386 0.337975 0.038375 0 0 0.326315 0.060665 
0.469687 -0.028386 -0.337975 0.038375 0 0 0.326315 0.060665 
0.469687 0.028386 -0.337975 0.038375 0 0 0.326315 0.060665 
0.469687 -0.028386 0.337975 0.038375 -0 0 0.326315 0.060665 
0.469687 0.028386 -0.337975 0.038375 -0 0 0.326315 0.060665 
0.469687 0.028386 0.337975 0.038375 -0 0 0.326315 0.060665 
-0.469685 -0.028386 -0.337975 -0.038375 0 0 0.326315 0.060665 
-0.469685 -0.028386 0.337975 -0.038375 0 0 0.326315 0.060665 
-0.469685 0.028386 0.337975 -0.038375 0 0 0.326315 0.060665 
-0.469685 -0.028386 -0.337975 -0.038375 0 0 0.326315 0.060665 
-0.469685 0.028386 0.337975 -0.038375 0 0 0.326315 0.060665 
-0.469685 0.028386 -0.337975 -0.038375 0 0 0.326315 0.060665 
-0.469685 0.028386 0.337975 -0 0.0530595 0 0.393219 0.060665 
0.469687 0.028386 0.337975 -0 0.0530595 0 0.393219 0.060665 
0.39119 0.028386 0.281491 -0 0.0530595 0 0.393219 0.060665 
-0.469685 0.028386 0.337975 0 0.0441919 0 0.393219 0.060665 
0.39119 0.028386 0.281491 0 0.0441919 0 0.393219 0.060665 
-0.391189 0.028386 0.281491 0 0.0441919 0 0.393219 0.060665 
0.469687 0.028386 0.337975 0 0.0530601 0 0.393219 0.060665 
0.469687 0.028386 -0.337975 0 0.0530601 0 0.393219 0.060665 
0.39119 0.028386 -0.281491 0 0.0530601 0 0.393219 0.060665 
0.469687 0.028386 0.337975 0 0.0441924 0 0.393219 0.060665 
0.39119 0.028386 -0.281491 0 0.0441924 0 0.393219 0.060665 
0.39119 0.028386 0.281491 0 0.0441924 0 0.393219 0.060665 
0.469687 0.028386 -0.337975 0 0.0530595 0 0.393219 0.060665 
-0.469685 0.028386 -0.337975 0 0.0530595 0 0.393219 0.060665 
-0.391189 0.028386 -0.281491 0 0.0530595 0 0.393219 0.060665 
0.469687 0.028386 -0.337975 0 0.0441919 0 0.393219 0.060665 
-0.391189 0.028386 -0.281491 0 0.0441919 0 0.393219 0.060665 
0.39119 0.028386 -0.281491 0 0.0441919 0 0.393219 0.060665 
-0.469685 0.028386 -0.337975 0 0.0530594 0 0.393219 0.060665 
-0.469685 0.028386 0.337975 0 0.0530594 0 0.393219 0.060665 
-0.391189 0.028386 0.281491 0 0.0530594 0 0.393219 0.060665 
-0.469685 0.028386 -0.337975 0 0.0441918 0 0.393219 0.060665 
-0.391189 0.028386 0.281491 0 0.0441918 0 0.393219 0.060665 
-0.391189 0.028386 -0.281491 0 0.0441918 0 0.393219 0.060665 
-0.469685 -0.028386 -0.337975 0 -0.0530595 0 0.293334 0.060665 
0.469687 -0.028386 -0.337975 0 -0.0530595 0 0.293334 0.060665 
0.39119 -0.028386 -0.281491 0 -0.0530595 0 0.293334 0.060665 
-0.469685 -0.028386 -0.337975 0 -0.0441919 0 0.293334 0.060665 
0.39119 -0.028386 -0.281491 0 -0.0441919 0 0.293334 0.060665 
-0.391189 -0.028386 -0.281491 0 -0.0441919 0 0.293334 0.060665 
0.469687 -0.028386 -0.337975 0 -0.0530601 0 0.293334 0.060665 
0.469687 -0.028386 0.337975 0 -0.0530601 0 0.293334 0.060665 
0.39119 -0.028386 0.281491 0 -0.0530601 0 0.293334 0.060665 
0.469687 -0.028386 -0.337975 0 -0.0441924 0 0.293334 0.060665 
0.39119 -0.028386 0.281491 0 -0.0441924 0 0.293334 0.060665 
0.39119 -0.028386 -0.281491 0 -0.0441924 0 0.293334 0.060665 
0.469687 -0.028386 0.337975 -0 -0.0530595 0 0.293334 0.060665 
-0.469685 -0.028386 0.337975 -0 -0.0530595 0 0.293334 0.060665 
-0.391189 -0.028386 0.281491 -0 -0.0530595 0 0.293334 0.060665 
0.469687 -0.028386 0.337975 0 -0.0441919 0 0.293334 0.060665 
-0.391189 -0.028386 0.281491 0 -0.0441919 0 0.293334 0.060665 
0.39119 -0.028386 0.281491 0 -0.0441919 0 0.293334 0.060665 
-0.469685 -0.028386 0.337975 0 -0.0530594 0 0.293334 0.060665 
-0.469685 -0.028386 -0.337975 0 -0.0530594 0 0.293334 0.060665 
-0.391189 -0.028386 -0.281491 0 -0.0530594 0 0.293334 0.060665 
-0.469685 -0.028386 0.337975 0 -0.0441918 0 0.293334 0.060665 
-0.391189 -0.028386 -0.281491 0 -0.0441918 0 0.293334 0.060665 
-0.391189 -0.028386 0.281491 0 -0.0441918 0 0.293334 0.060665 
-0.391189 0.028386 0.281491 -0 0.0357907 0.0979789 0.352547 0.060555 
0.39119 0.028386 0.281491 -0 0.0357907 0.0979789 0.352547 0.060555 
0.327619 0.153618 0.235745 -0 0.0357907 0.0979789 0.352547 0.060555 
-0.391189 0.028386 0.281491 0 0.0299744 0.0820565 0.352547 0.060555 
0.327619 0.153618 0.235745 0 0.0299744 0.0820565 0.352547 0.060555 
-0.327617 0.153618 0.235745 0 0.0299744 0.0820565 0.352547 0.060555 
0.39119 0.028386 0.281491 0.0705034 0.0357893 0 0.325949 0.060623 
0.39119 0.028386 -0.281491 0.0705034 0.0357893 0 0.325949 0.060623 
0.327619 0.153618 -0.235747 0.0705034 0.0357893 0 0.325949 0.060623 
0.39119 0.028386 0.281491 0.0590459 0.0299732 0 0.325949 0.060623 
0.327619 0.153618 -0.235747 0.0590459 0.0299732 0 0.325949 0.060623 
0.327619 0.153618 0.235745 0.0590459 0.0299732 0 0.325949 0.060623 
0.39119 0.028386 -0.281491 0 0.0357892 -0.0979789 0.352547 0.060555 
-0.391189 0.028386 -0.281491 0 0.0357892 -0.0979789 0.352547 0.060555 
-0.327617 0.153618 -0.235747 0 0.0357892 -0.0979789 0.352547 0.060555 
0.39119 0.028386 -0.281491 0 0.0299731 -0.0820565 0.352547 0.060555 
-0.327617 0.153618 -0.235747 0 0.0299731 -0.0820565 0.352547 0.060555 
0.327619 0.153618 -0.235747 0 0.0299731 -0.0820565 0.352547 0.060555 
-0.391189 0.028386 -0.281491 -0.0705034 0.0357899 0 0.325949 0.060623 
-0.391189 0.028386 0.281491 -0.0705034 0.0357899 0 0.325949 0.060623 
-0.327617 0.153618 0.235745 -0.0705034 0.0357899 0 0.325949 0.060623 
-0.391189 0.028386 -0.281491 -0.0590459 0.0299737 0 0.325949 0.060623 
-0.327617 0.153618 0.235745 -0.0590459 0.0299737 0 0.325949 0.060623 
-0.327617 0.153618 -0.235747 -0.0590459 0.0299737 0 0.325949 0.060623 
-0.391189 -0.028386 -0.281491 0 -0.0357892 -0.0979789 0.298861 0.060555 
0.39119 -0.028386 -0.281491 0 -0.0357892 -0.0979789 0.298861 0.060555 
0.327619 -0.153618 -0.235747 0 -0.0357892 -0.0979789 0.298861 0.060555 
-0.391189 -0.028386 -0.281491 0 -0.0299731 -0.0820565 0.298861 0.060555 
0.327619 -0.153618 -0.235747 0 -0.0299731 -0.0820565 0.298861 0.060555 
-0.327617 -0.153618 -0.235747 0 -0.0299731 -0.0820565 0.298861 0.060555 
0.39119 -0.028386 -0.281491 0.0705034 -0.0357893 0 0.272263 0.060623 
0.39119 -0.028386 0.281491 0.0705034 -0.0357893 0 0.272263 0.060623 
0.327619 -0.153618 0.235745 0.0705034 -0.0357893 0 0.272263 0.060623 
0.39119 -0.028386 -0.281491 0.0590459 -0.0299732 0 0.272263 0.060623 
0.327619 -0.153618 0.235745 0.0590459 -0.0299732 0 0.272263 0.060623 
0.327619 -0.153618 -0.235747 0.0590459 -0.0299732 0 0.272263 0.060623 
0.39119 -0.028386 0.281491 0 -0.0357907 0.0979789 0.298861 0.060555 
-0.391189 -0.028386 0.281491 0 -0.0357907 0.0979789 0.298861 0.060555 
-0.327617 -0.153618 0.235745 0 -0.0357907 0.0979789 0.298861 0.060555 
0.39119 -0.028386 0.281491 0 -0.0299744 0.0820565 0.298861 0.060555 
-0.327617 -0.153618 0.235745 0 -0.0299744 0.0820565 0.298861 0.060555 
0.327619 -0.153618 0.235745 0 -0.0299744 0.0820565 0.298861 0.060555 
-0.391189 -0.028386 0.281491 -0.0705034 -0.0357899 -0 0.272263 0.060623 
-0.391189 -0.028386 -0.281491 -0.0705034 -0.0357899 -0 0.272263 0.060623 
-0.327617 -0.153618 -0.235747 -0.0705034 -0.0357899 -0 0.272263 0.060623 
-0.391189 -0.028386 0.281491 -0.0590459 -0.0299737 0 0.272263 0.060623 
-0.327617 -0.153618 -0.235747 -0.0590459 -0.0299737 0 0.272263 0.060623 
-0.327617 -0.153618 0.235745 -0.0590459 -0.0299737 0 0.272263 0.060623 
-0.327617 0.153618 0.235745 -0 0.204279 0 0.393219 0.060665 
0.327619 0.153618 0.235745 -0 0.204279 0 0.393219 0.060665 
0.157557 0.153618 -0.076019 -0 0.204279 0 0.393219 0.060665 
-0.327617 0.153618 0.235745 0 0.0982406 0 0.393219 0.060665 
0.157557 0.153618 -0.076019 0 0.0982406 0 0.393219 0.060665 
-0.157555 0.153618 -0.076019 0 0.0982406 0 0.393219 0.060665 
0.327619 0.153618 0.235745 0 0.0801829 0 0.393219 0.060665 
0.327619 0.153618 -0.235747 0 0.0801829 0 0.393219 0.060665 
0.157557 0.153618 -0.171295 0 0.0801829 0 0.393219 0.060665 
0.327619 0.153618 0.235745 0 0.0162028 0 0.393219 0.060665 
0.157557 0.153618 -0.171295 0 0.0162028 0 0.393219 0.060665 
0.157557 0.153618 -0.076019 0 0.0162028 0 0.393219 0.060665 
0.327619 0.153618 -0.235747 0 0.0422313 0 0.393219 0.060665 
-0.327617 0.153618 -0.235747 0 0.0422313 0 0.393219 0.060665 
-0.157555 0.153618 -0.171295 0 0.0422313 0 0.393219 0.060665 
0.327619 0.153618 -0.235747 0 0.0203096 0 0.393219 0.060665 
-0.157555 0.153618 -0.171295 0 0.0203096 0 0.393219 0.060665 
0.157557 0.153618 -0.171295 0 0.0203096 0 0.393219 0.060665 
-0.327617 0.153618 -0.235747 0 0.0801829 0 0.393219 0.060665 
-0.327617 0.153618 0.235745 0 0.0801829 0 0.393219 0.060665 
-0.157555 0.153618 -0.076019 0 0.0801829 0 0.393219 0.060665 
-0.327617 0.153618 -0.235747 0 0.0162028 0 0.393219 0.060665 
-0.157555 0.153618 -0.076019 0 0.0162028 0 0.393219 0.060665 
-0.157555 0.153618 -0.171295 0 0.0162028 0 0.393219 0.060665 
3 0 1 2
3 3 4 5
3 6 7 8
3 9 10 11
3 12 13 14
3 15 16 17
3 18 19 20
3 21 22 23
3 24 25 26
3 27 28 29
3 30 31 32
3 33 34 35
3 36 37 38
3 39 40 41
3 42 43 44
3 45 46 47
3 48 49 50
3 51 52 53
3 54 55 56
3 57 58 59
3 60 61 62
3 63 64 65
3 66 67 68
3 69 70 71
3 72 73 74
3 75 76 77
3 78 79 80
3 81 82 83
3 84 85 86
3 87 88 89
3 90 91 92
3 93 94 95
3 96 97 98
3 99 100 101
3 102 103 104
3 105 106 107
3 108 109 110
3 111 112 113
3 114 115 116
3 117 118 119
3 120 121 122
3 123 124 125
3 126 127 128
3 129 130 131
3 132 133 134
3 135 136 137
3 138 139 140
3 141 142 143
3 144 145 146
3 147 148 149
3 150 151 152
3 153 154 155
