ply
format ascii 1.0
comment Feeney's Flatenator generated
comment TextureFile SpaceInteriors_Texture.png
element vertex 750
property float x
property float y
property float z
element face 250
property list uchar int vertex_indices
end_header
0.072143 0.077783 0.355145 
0.072143 0.077783 0.64818 
0.112214 0.077783 0.64818 
0.072143 0.077783 0.355145 
0.112214 0.077783 0.64818 
0.112214 0.077783 0.355145 
0.072143 0.077783 0.64818 
0.072143 -0.175992 0.794698 
0.112214 -0.175992 0.794698 
0.072143 0.077783 0.64818 
0.112214 -0.175992 0.794698 
0.112214 0.077783 0.64818 
0.072143 -0.175992 0.150446 
0.072143 -0.096881 0.150446 
0.112214 -0.096881 0.150446 
0.072143 -0.175992 0.150446 
0.112214 -0.096881 0.150446 
0.112214 -0.175992 0.150446 
0.072143 0.077783 0.64818 
0.072143 0.077783 0.355145 
0.072143 -0.048398 0.424713 
0.072143 0.077783 0.64818 
0.072143 -0.048398 0.424713 
0.072143 -0.048397 0.578612 
0.072143 -0.175992 0.794698 
0.072143 0.077783 0.64818 
0.072143 -0.048397 0.578612 
0.072143 -0.175992 0.794698 
0.072143 -0.048397 0.578612 
0.072143 -0.175696 0.655563 
0.072143 0.077783 0.355145 
0.072143 -0.175991 0.208629 
0.072143 -0.175696 0.347764 
0.072143 0.077783 0.355145 
0.072143 -0.175696 0.347764 
0.072143 -0.048398 0.424713 
0.112214 -0.048397 0.578612 
0.112214 -0.048398 0.424713 
0.112214 0.077783 0.355145 
0.112214 -0.048397 0.578612 
0.112214 0.077783 0.355145 
0.112214 0.077783 0.64818 
0.112214 -0.048397 0.578612 
0.112214 0.077783 0.64818 
0.112214 -0.175992 0.794698 
0.112214 -0.048397 0.578612 
0.112214 -0.175992 0.794698 
0.112214 -0.175696 0.655561 
0.112214 -0.048398 0.424713 
0.112214 -0.175696 0.347763 
0.112215 -0.175991 0.208628 
0.112214 -0.048398 0.424713 
0.112215 -0.175991 0.208628 
0.112214 0.077783 0.355145 
0.112214 -0.175992 0.794698 
0.072143 -0.175992 0.794698 
0.072143 -0.175696 0.655563 
0.112214 -0.175992 0.794698 
0.072143 -0.175696 0.655563 
0.112214 -0.175696 0.655561 
0.072143 -0.175991 0.208629 
0.112215 -0.175991 0.208628 
0.112214 -0.175696 0.347763 
0.072143 -0.175991 0.208629 
0.112214 -0.175696 0.347763 
0.072143 -0.175696 0.347764 
0.072143 -0.048397 0.578612 
0.072143 -0.048398 0.424713 
0.112214 -0.048398 0.424713 
0.072143 -0.048397 0.578612 
0.112214 -0.048398 0.424713 
0.112214 -0.048397 0.578612 
0.072143 -0.048398 0.424713 
0.072143 -0.175696 0.347764 
0.112214 -0.175696 0.347763 
0.072143 -0.048398 0.424713 
0.112214 -0.175696 0.347763 
0.112214 -0.048398 0.424713 
0.072143 -0.048397 0.578612 
0.112214 -0.048397 0.578612 
0.112214 -0.175696 0.655561 
0.072143 -0.048397 0.578612 
0.112214 -0.175696 0.655561 
0.072143 -0.175696 0.655563 
0.072143 -0.175991 0.208629 
0.072143 0.077783 0.355145 
0.072143 -0.09688 0.254304 
0.072143 0.077783 0.355145 
0.112214 0.077783 0.355145 
0.112214 -0.09688 0.254302 
0.072143 0.077783 0.355145 
0.112214 -0.09688 0.254302 
0.072143 -0.09688 0.254304 
0.112214 0.077783 0.355145 
0.112215 -0.175991 0.208628 
0.112214 -0.09688 0.254302 
0.072143 -0.175991 0.208629 
0.072143 -0.09688 0.254304 
0.072143 -0.096881 0.150446 
0.072143 -0.175991 0.208629 
0.072143 -0.096881 0.150446 
0.072143 -0.175992 0.150446 
0.072143 -0.09688 0.254304 
0.112214 -0.09688 0.254302 
0.112214 -0.096881 0.150446 
0.072143 -0.09688 0.254304 
0.112214 -0.096881 0.150446 
0.072143 -0.096881 0.150446 
0.112214 -0.175992 0.150446 
0.112214 -0.096881 0.150446 
0.112214 -0.09688 0.254302 
0.112214 -0.175992 0.150446 
0.112214 -0.09688 0.254302 
0.112215 -0.175991 0.208628 
0.072143 -0.175992 0.150446 
0.112214 -0.175992 0.150446 
0.112215 -0.175991 0.208628 
0.072143 -0.175992 0.150446 
0.112215 -0.175991 0.208628 
0.072143 -0.175991 0.208629 
0.08604 -0.037915 0.389712 
0.08604 -0.037915 0.613614 
0.098317 -0.037915 0.613614 
0.08604 -0.037915 0.389712 
0.098317 -0.037915 0.613614 
0.098317 -0.037915 0.389713 
0.08604 -0.037915 0.613614 
0.08604 -0.231818 0.725564 
0.098317 -0.231818 0.725564 
0.08604 -0.037915 0.613614 
0.098317 -0.231818 0.725564 
0.098317 -0.037915 0.613614 
0.08604 -0.231818 0.725564 
0.08604 -0.425721 0.613614 
0.098317 -0.425721 0.613614 
0.08604 -0.231818 0.725564 
0.098317 -0.425721 0.613614 
0.098317 -0.231818 0.725564 
0.08604 -0.425721 0.613614 
0.08604 -0.425721 0.389713 
0.098317 -0.425721 0.389713 
0.08604 -0.425721 0.613614 
0.098317 -0.425721 0.389713 
0.098317 -0.425721 0.613614 
0.08604 -0.425721 0.389713 
0.08604 -0.231818 0.277762 
0.098317 -0.231818 0.277762 
0.08604 -0.425721 0.389713 
0.098317 -0.231818 0.277762 
0.098317 -0.425721 0.389713 
0.08604 -0.231818 0.277762 
0.08604 -0.037915 0.389712 
0.098317 -0.037915 0.389713 
0.08604 -0.231818 0.277762 
0.098317 -0.037915 0.389713 
0.098317 -0.231818 0.277762 
0.08604 -0.113491 0.56998 
0.08604 -0.113491 0.433347 
0.08604 -0.231818 0.501663 
0.08604 -0.231818 0.638297 
0.08604 -0.113491 0.56998 
0.08604 -0.231818 0.501663 
0.08604 -0.350146 0.56998 
0.08604 -0.231818 0.638297 
0.08604 -0.231818 0.501663 
0.08604 -0.350146 0.433347 
0.08604 -0.350146 0.56998 
0.08604 -0.231818 0.501663 
0.08604 -0.231818 0.365029 
0.08604 -0.350146 0.433347 
0.08604 -0.231818 0.501663 
0.08604 -0.113491 0.433347 
0.08604 -0.231818 0.365029 
0.08604 -0.231818 0.501663 
0.098317 -0.186759 0.475648 
0.098317 -0.186759 0.527678 
0.098317 -0.231818 0.501663 
0.098317 -0.186759 0.527678 
0.098317 -0.231818 0.553692 
0.098317 -0.231818 0.501663 
0.098317 -0.231818 0.553692 
0.098317 -0.276877 0.527678 
0.098317 -0.231818 0.501663 
0.098317 -0.276877 0.527678 
0.098317 -0.276877 0.475648 
0.098317 -0.231818 0.501663 
0.098317 -0.276877 0.475648 
0.098317 -0.231817 0.449633 
0.098317 -0.231818 0.501663 
0.098317 -0.231817 0.449633 
0.098317 -0.186759 0.475648 
0.098317 -0.231818 0.501663 
0.098317 -0.037915 0.389713 
0.098317 -0.037915 0.613614 
0.098317 -0.116654 0.568152 
0.098317 -0.037915 0.389713 
0.098317 -0.116654 0.568152 
0.098317 -0.116654 0.435173 
0.098317 -0.037915 0.613614 
0.098317 -0.231818 0.725564 
0.098317 -0.231817 0.634642 
0.098317 -0.037915 0.613614 
0.098317 -0.231817 0.634642 
0.098317 -0.116654 0.568152 
0.098317 -0.231818 0.725564 
0.098317 -0.425721 0.613614 
0.098317 -0.346982 0.568152 
0.098317 -0.231818 0.725564 
0.098317 -0.346982 0.568152 
0.098317 -0.231817 0.634642 
0.098317 -0.425721 0.613614 
0.098317 -0.425721 0.389713 
0.098317 -0.346982 0.435175 
0.098317 -0.425721 0.613614 
0.098317 -0.346982 0.435175 
0.098317 -0.346982 0.568152 
0.098317 -0.425721 0.389713 
0.098317 -0.231818 0.277762 
0.098317 -0.231815 0.368684 
0.098317 -0.425721 0.389713 
0.098317 -0.231815 0.368684 
0.098317 -0.346982 0.435175 
0.098317 -0.231818 0.277762 
0.098317 -0.037915 0.389713 
0.098317 -0.116654 0.435173 
0.098317 -0.231818 0.277762 
0.098317 -0.116654 0.435173 
0.098317 -0.231815 0.368684 
0.076793 -0.114942 0.012853 
0.076793 -0.114943 0.439973 
0.076793 -0.164761 0.439974 
0.076793 -0.114942 0.012853 
0.076793 -0.164761 0.439974 
0.076793 -0.294267 0.439974 
0.076793 -0.114942 0.012853 
0.076793 -0.294267 0.439974 
0.076793 -0.294266 0.012853 
0.076793 -0.114943 0.439973 
0.076793 -0.114942 0.012853 
-0.102531 -0.114942 0.012853 
0.076793 -0.114943 0.439973 
-0.102531 -0.114942 0.012853 
-0.102531 -0.114943 0.439973 
-0.102531 -0.114943 0.439973 
-0.102531 -0.114942 0.012853 
-0.102531 -0.294266 0.012853 
-0.102531 -0.114943 0.439973 
-0.102531 -0.294266 0.012853 
-0.102531 -0.294267 0.439974 
-0.102531 -0.294267 0.439974 
-0.102531 -0.294266 0.012853 
0.076793 -0.294266 0.012853 
-0.102531 -0.294267 0.439974 
0.076793 -0.294266 0.012853 
0.076793 -0.294267 0.439974 
0.076793 -0.294266 -0.151233 
-0.102531 -0.294266 -0.151233 
-0.102531 -0.114942 -0.151233 
0.076793 -0.294266 -0.151233 
-0.102531 -0.114942 -0.151233 
0.076793 -0.114942 -0.151233 
0.046414 -0.194936 0.677523 
0.046414 -0.14532 0.677523 
-0.072154 -0.14532 0.677523 
0.046414 -0.194936 0.677523 
-0.072154 -0.14532 0.677523 
-0.072154 -0.263889 0.677523 
0.046414 -0.194936 0.677523 
-0.072154 -0.263889 0.677523 
0.046414 -0.263889 0.677523 
0.076793 -0.294267 0.439974 
0.076793 -0.294267 0.584121 
-0.102531 -0.294267 0.584122 
0.076793 -0.294267 0.439974 
-0.102531 -0.294267 0.584122 
-0.102531 -0.294267 0.439974 
0.076793 -0.294267 0.439974 
0.076793 -0.164761 0.439974 
0.076793 -0.17804 0.584122 
0.076793 -0.294267 0.439974 
0.076793 -0.17804 0.584122 
0.076793 -0.294267 0.584121 
0.014365 0.234943 0.490155 
-0.040105 0.234943 0.490155 
-0.040105 0.234943 0.53394 
0.014365 0.234943 0.490155 
-0.040105 0.234943 0.53394 
0.014365 0.234943 0.53394 
-0.102531 -0.146293 0.465175 
-0.102531 -0.262916 0.465175 
-0.102531 -0.262916 0.558921 
-0.102531 -0.146293 0.465175 
-0.102531 -0.262916 0.558921 
-0.102531 -0.146293 0.558921 
0.076793 -0.294266 0.012853 
-0.102531 -0.294266 0.012853 
-0.102531 -0.294266 -0.151233 
0.076793 -0.294266 0.012853 
-0.102531 -0.294266 -0.151233 
0.076793 -0.294266 -0.151233 
-0.102531 -0.294266 0.012853 
-0.102531 -0.114942 0.012853 
-0.102531 -0.114942 -0.151233 
-0.102531 -0.294266 0.012853 
-0.102531 -0.114942 -0.151233 
-0.102531 -0.294266 -0.151233 
0.076793 -0.294266 0.012853 
0.076793 -0.294266 -0.151233 
0.076793 -0.114942 -0.151233 
0.076793 -0.294266 0.012853 
0.076793 -0.114942 -0.151233 
0.076793 -0.114942 0.012853 
-0.102531 -0.114942 0.012853 
0.076793 -0.114942 0.012853 
0.038128 -0.054913 -0.022527 
-0.102531 -0.114942 0.012853 
0.038128 -0.054913 -0.022527 
-0.063869 -0.054913 -0.022527 
0.038128 -0.054913 -0.022527 
0.076793 -0.114942 0.012853 
0.076793 -0.114942 -0.151233 
0.038128 -0.054913 -0.022527 
0.076793 -0.114942 -0.151233 
0.038128 -0.054913 -0.115855 
0.076793 -0.114942 -0.151233 
-0.102531 -0.114942 -0.151233 
-0.063869 -0.054913 -0.115855 
0.076793 -0.114942 -0.151233 
-0.063869 -0.054913 -0.115855 
0.038128 -0.054913 -0.115855 
-0.102531 -0.114942 -0.151233 
-0.102531 -0.114942 0.012853 
-0.063869 -0.054913 -0.022527 
-0.102531 -0.114942 -0.151233 
-0.063869 -0.054913 -0.022527 
-0.063869 -0.054913 -0.115855 
-0.063869 0.07449 0.088882 
0.038128 0.07449 0.088882 
0.038128 0.102902 0.113345 
-0.063869 0.07449 0.088882 
0.038128 0.102902 0.113345 
-0.063869 0.102902 0.113345 
0.038128 0.07449 0.088882 
0.038128 0.141042 0.049972 
0.038128 0.184066 0.086382 
0.038128 0.07449 0.088882 
0.038128 0.184066 0.086382 
0.038128 0.102902 0.113345 
0.038128 0.141042 0.049972 
-0.063869 0.141042 0.049972 
-0.063869 0.184066 0.086382 
0.038128 0.141042 0.049972 
-0.063869 0.184066 0.086382 
0.038128 0.184066 0.086382 
-0.063869 0.141042 0.049972 
-0.063869 0.07449 0.088882 
-0.063869 0.102902 0.113345 
-0.063869 0.141042 0.049972 
-0.063869 0.102902 0.113345 
-0.063869 0.184066 0.086382 
-0.064985 0.102902 0.171662 
0.039245 0.102902 0.171662 
0.042823 0.102902 0.401397 
-0.064985 0.102902 0.171662 
0.042823 0.102902 0.401397 
-0.068562 0.102902 0.401397 
0.039245 0.184066 0.171662 
0.042823 0.184066 0.401397 
0.042823 0.102902 0.401397 
0.039245 0.184066 0.171662 
0.042823 0.102902 0.401397 
0.039245 0.102902 0.171662 
0.039245 0.184066 0.171662 
-0.064985 0.184066 0.171662 
-0.068562 0.184066 0.401397 
0.039245 0.184066 0.171662 
-0.068562 0.184066 0.401397 
0.042823 0.184066 0.401397 
-0.064985 0.184066 0.171662 
-0.064985 0.102902 0.171662 
-0.068562 0.102902 0.401397 
-0.064985 0.184066 0.171662 
-0.068562 0.102902 0.401397 
-0.068562 0.184066 0.401397 
0.076793 -0.114943 0.439973 
-0.102531 -0.114943 0.439973 
-0.069673 -0.04706 0.466387 
0.076793 -0.114943 0.439973 
-0.069673 -0.04706 0.466387 
0.043933 -0.04706 0.466387 
-0.102531 -0.114943 0.439973 
-0.102531 -0.114941 0.584122 
-0.069673 -0.04706 0.557709 
-0.102531 -0.114943 0.439973 
-0.069673 -0.04706 0.557709 
-0.069673 -0.04706 0.466387 
-0.102531 -0.114941 0.584122 
0.076793 -0.114941 0.584121 
0.043933 -0.04706 0.557708 
-0.102531 -0.114941 0.584122 
0.043933 -0.04706 0.557708 
-0.069673 -0.04706 0.557709 
0.076793 -0.114941 0.584121 
0.076793 -0.114943 0.439973 
0.043933 -0.04706 0.466387 
0.076793 -0.114941 0.584121 
0.043933 -0.04706 0.466387 
0.043933 -0.04706 0.557708 
-0.069576 0.102902 0.466538 
-0.069673 0.102616 0.557709 
-0.069673 0.184118 0.55771 
-0.069576 0.102902 0.466538 
-0.069673 0.184118 0.55771 
-0.069576 0.184066 0.466538 
-0.069673 0.102616 0.557709 
0.043933 0.102616 0.557708 
0.043933 0.184118 0.55771 
-0.069673 0.102616 0.557709 
0.043933 0.184118 0.55771 
-0.069673 0.184118 0.55771 
0.043933 0.102616 0.557708 
0.043836 0.102902 0.466538 
0.043836 0.184066 0.466538 
0.043933 0.102616 0.557708 
0.043836 0.184066 0.466538 
0.043933 0.184118 0.55771 
-0.072154 -0.263889 0.677523 
-0.102531 -0.294267 0.584122 
0.076793 -0.294267 0.584121 
-0.072154 -0.263889 0.677523 
0.076793 -0.294267 0.584121 
0.046414 -0.263889 0.677523 
0.046414 -0.194936 0.677523 
0.076793 -0.17804 0.584122 
0.076793 -0.114941 0.584121 
0.046414 -0.194936 0.677523 
0.076793 -0.114941 0.584121 
0.046414 -0.14532 0.677523 
0.076793 -0.114941 0.584121 
-0.102531 -0.114941 0.584122 
-0.072154 -0.14532 0.677523 
0.076793 -0.114941 0.584121 
-0.072154 -0.14532 0.677523 
0.046414 -0.14532 0.677523 
-0.102531 -0.114941 0.584122 
-0.102531 -0.294267 0.584122 
-0.072154 -0.263889 0.677523 
-0.102531 -0.114941 0.584122 
-0.072154 -0.263889 0.677523 
-0.072154 -0.14532 0.677523 
0.043933 -0.04706 0.557708 
0.043933 -0.04706 0.466387 
0.043836 0.102902 0.466538 
0.043933 -0.04706 0.557708 
0.043836 0.102902 0.466538 
0.043933 0.102616 0.557708 
-0.001611 0.036116 0.433702 
-0.024129 0.036116 0.433702 
-0.02411 0.092089 0.433747 
-0.001611 0.036116 0.433702 
-0.02411 0.092089 0.433747 
-0.00163 0.092089 0.433747 
-0.069673 -0.04706 0.466387 
-0.069673 -0.04706 0.557709 
-0.069673 0.102616 0.557709 
-0.069673 -0.04706 0.466387 
-0.069673 0.102616 0.557709 
-0.069576 0.102902 0.466538 
-0.069673 -0.04706 0.557709 
0.043933 -0.04706 0.557708 
0.043933 0.102616 0.557708 
-0.069673 -0.04706 0.557709 
0.043933 0.102616 0.557708 
-0.069673 0.102616 0.557709 
0.043836 0.184066 0.466538 
-0.069576 0.184066 0.466538 
-0.040105 0.234943 0.490155 
0.043836 0.184066 0.466538 
-0.040105 0.234943 0.490155 
0.014365 0.234943 0.490155 
0.043933 0.184118 0.55771 
0.043836 0.184066 0.466538 
0.014365 0.234943 0.490155 
0.043933 0.184118 0.55771 
0.014365 0.234943 0.490155 
0.014365 0.234943 0.53394 
0.014365 0.234943 0.53394 
-0.040105 0.234943 0.53394 
-0.069673 0.184118 0.55771 
0.014365 0.234943 0.53394 
-0.069673 0.184118 0.55771 
0.043933 0.184118 0.55771 
-0.069576 0.184066 0.466538 
-0.069673 0.184118 0.55771 
-0.040105 0.234943 0.53394 
-0.069576 0.184066 0.466538 
-0.040105 0.234943 0.53394 
-0.040105 0.234943 0.490155 
-0.102531 -0.114943 0.439973 
-0.102531 -0.294267 0.439974 
-0.102531 -0.262916 0.465175 
-0.102531 -0.114943 0.439973 
-0.102531 -0.262916 0.465175 
-0.102531 -0.146293 0.465175 
-0.102531 -0.294267 0.439974 
-0.102531 -0.294267 0.584122 
-0.102531 -0.262916 0.558921 
-0.102531 -0.294267 0.439974 
-0.102531 -0.262916 0.558921 
-0.102531 -0.262916 0.465175 
-0.102531 -0.294267 0.584122 
-0.102531 -0.114941 0.584122 
-0.102531 -0.146293 0.558921 
-0.102531 -0.294267 0.584122 
-0.102531 -0.146293 0.558921 
-0.102531 -0.262916 0.558921 
-0.102531 -0.114941 0.584122 
-0.102531 -0.114943 0.439973 
-0.102531 -0.146293 0.465175 
-0.102531 -0.114941 0.584122 
-0.102531 -0.146293 0.465175 
-0.102531 -0.146293 0.558921 
0.043933 -0.04706 0.466387 
-0.069673 -0.04706 0.466387 
-0.024129 0.036115 0.466439 
0.043933 -0.04706 0.466387 
-0.024129 0.036115 0.466439 
-0.001611 0.036115 0.466439 
-0.069673 -0.04706 0.466387 
-0.069576 0.102902 0.466538 
-0.02411 0.092089 0.466486 
-0.069673 -0.04706 0.466387 
-0.02411 0.092089 0.466486 
-0.024129 0.036115 0.466439 
-0.069576 0.102902 0.466538 
0.043836 0.102902 0.466538 
-0.00163 0.092089 0.466486 
-0.069576 0.102902 0.466538 
-0.00163 0.092089 0.466486 
-0.02411 0.092089 0.466486 
0.043836 0.102902 0.466538 
0.043933 -0.04706 0.466387 
-0.001611 0.036115 0.466439 
0.043836 0.102902 0.466538 
-0.001611 0.036115 0.466439 
-0.00163 0.092089 0.466486 
-0.001611 0.036115 0.466439 
-0.024129 0.036115 0.466439 
-0.024129 0.036116 0.433702 
-0.001611 0.036115 0.466439 
-0.024129 0.036116 0.433702 
-0.001611 0.036116 0.433702 
-0.024129 0.036115 0.466439 
-0.02411 0.092089 0.466486 
-0.02411 0.092089 0.433747 
-0.024129 0.036115 0.466439 
-0.02411 0.092089 0.433747 
-0.024129 0.036116 0.433702 
-0.02411 0.092089 0.466486 
-0.00163 0.092089 0.466486 
-0.00163 0.092089 0.433747 
-0.02411 0.092089 0.466486 
-0.00163 0.092089 0.433747 
-0.02411 0.092089 0.433747 
-0.00163 0.092089 0.466486 
-0.001611 0.036115 0.466439 
-0.001611 0.036116 0.433702 
-0.00163 0.092089 0.466486 
-0.001611 0.036116 0.433702 
-0.00163 0.092089 0.433747 
0.039245 0.184066 0.171662 
0.039245 0.102902 0.171662 
0.038128 0.102902 0.113345 
0.039245 0.184066 0.171662 
0.038128 0.102902 0.113345 
0.038128 0.184066 0.086382 
0.039245 0.184066 0.171662 
0.038128 0.184066 0.086382 
-0.063869 0.184066 0.086382 
0.039245 0.184066 0.171662 
-0.063869 0.184066 0.086382 
-0.064985 0.184066 0.171662 
-0.063869 0.184066 0.086382 
-0.063869 0.102902 0.113345 
-0.064985 0.102902 0.171662 
-0.063869 0.184066 0.086382 
-0.064985 0.102902 0.171662 
-0.064985 0.184066 0.171662 
-0.063869 0.102902 0.113345 
0.038128 0.102902 0.113345 
0.039245 0.102902 0.171662 
-0.063869 0.102902 0.113345 
0.039245 0.102902 0.171662 
-0.064985 0.102902 0.171662 
0.042823 0.184066 0.401397 
-0.068562 0.184066 0.401397 
-0.069576 0.184066 0.466538 
0.042823 0.184066 0.401397 
-0.069576 0.184066 0.466538 
0.043836 0.184066 0.466538 
0.042823 0.102902 0.401397 
0.042823 0.184066 0.401397 
0.043836 0.184066 0.466538 
0.042823 0.102902 0.401397 
0.043836 0.184066 0.466538 
0.043836 0.102902 0.466538 
-0.068562 0.102902 0.401397 
0.042823 0.102902 0.401397 
0.043836 0.102902 0.466538 
-0.068562 0.102902 0.401397 
0.043836 0.102902 0.466538 
-0.069576 0.102902 0.466538 
-0.068562 0.184066 0.401397 
-0.068562 0.102902 0.401397 
-0.069576 0.102902 0.466538 
-0.068562 0.184066 0.401397 
-0.069576 0.102902 0.466538 
-0.069576 0.184066 0.466538 
0.038128 -0.024259 0.003863 
0.038128 -0.008495 -0.076574 
0.038128 0.141042 0.049972 
0.038128 -0.024259 0.003863 
0.038128 0.141042 0.049972 
0.038128 0.07449 0.088882 
0.038128 -0.008495 -0.076574 
-0.063869 -0.008495 -0.076573 
-0.063869 0.141042 0.049972 
0.038128 -0.008495 -0.076574 
-0.063869 0.141042 0.049972 
0.038128 0.141042 0.049972 
-0.063869 -0.008495 -0.076573 
-0.063869 -0.024259 0.003863 
-0.063869 0.07449 0.088882 
-0.063869 -0.008495 -0.076573 
-0.063869 0.07449 0.088882 
-0.063869 0.141042 0.049972 
-0.063869 -0.024259 0.003863 
0.038128 -0.024259 0.003863 
0.038128 0.07449 0.088882 
-0.063869 -0.024259 0.003863 
0.038128 0.07449 0.088882 
-0.063869 0.07449 0.088882 
0.038128 -0.054913 -0.022527 
0.038128 -0.054913 -0.115855 
0.038128 -0.008495 -0.076574 
0.038128 -0.054913 -0.022527 
0.038128 -0.008495 -0.076574 
0.038128 -0.024259 0.003863 
0.038128 -0.054913 -0.115855 
-0.063869 -0.054913 -0.115855 
-0.063869 -0.008495 -0.076573 
0.038128 -0.054913 -0.115855 
-0.063869 -0.008495 -0.076573 
0.038128 -0.008495 -0.076574 
-0.063869 -0.054913 -0.115855 
-0.063869 -0.054913 -0.022527 
-0.063869 -0.024259 0.003863 
-0.063869 -0.054913 -0.115855 
-0.063869 -0.024259 0.003863 
-0.063869 -0.008495 -0.076573 
-0.063869 -0.054913 -0.022527 
0.038128 -0.054913 -0.022527 
0.038128 -0.024259 0.003863 
-0.063869 -0.054913 -0.022527 
0.038128 -0.024259 0.003863 
-0.063869 -0.024259 0.003863 
0.098317 -0.116654 0.435173 
0.098317 -0.116654 0.568152 
0.098317 -0.186759 0.527678 
0.098317 -0.116654 0.435173 
0.098317 -0.186759 0.527678 
0.098317 -0.186759 0.475648 
0.098317 -0.116654 0.568152 
0.098317 -0.231817 0.634642 
0.098317 -0.231818 0.553692 
0.098317 -0.116654 0.568152 
0.098317 -0.231818 0.553692 
0.098317 -0.186759 0.527678 
0.098317 -0.231817 0.634642 
0.098317 -0.346982 0.568152 
0.098317 -0.276877 0.527678 
0.098317 -0.231817 0.634642 
0.098317 -0.276877 0.527678 
0.098317 -0.231818 0.553692 
0.098317 -0.346982 0.568152 
0.098317 -0.346982 0.435175 
0.098317 -0.276877 0.475648 
0.098317 -0.346982 0.568152 
0.098317 -0.276877 0.475648 
0.098317 -0.276877 0.527678 
0.098317 -0.346982 0.435175 
0.098317 -0.231815 0.368684 
0.098317 -0.231817 0.449633 
0.098317 -0.346982 0.435175 
0.098317 -0.231817 0.449633 
0.098317 -0.276877 0.475648 
0.098317 -0.231815 0.368684 
0.098317 -0.116654 0.435173 
0.098317 -0.186759 0.475648 
0.098317 -0.231815 0.368684 
0.098317 -0.186759 0.475648 
0.098317 -0.231817 0.449633 
0.08604 -0.037915 0.613614 
0.08604 -0.037915 0.389712 
0.08604 -0.113491 0.433347 
0.08604 -0.037915 0.613614 
0.08604 -0.113491 0.433347 
0.08604 -0.113491 0.56998 
0.08604 -0.231818 0.725564 
0.08604 -0.037915 0.613614 
0.08604 -0.113491 0.56998 
0.08604 -0.231818 0.725564 
0.08604 -0.113491 0.56998 
0.08604 -0.231818 0.638297 
0.08604 -0.425721 0.613614 
0.08604 -0.231818 0.725564 
0.08604 -0.231818 0.638297 
0.08604 -0.425721 0.613614 
0.08604 -0.231818 0.638297 
0.08604 -0.350146 0.56998 
0.08604 -0.425721 0.389713 
0.08604 -0.425721 0.613614 
0.08604 -0.350146 0.56998 
0.08604 -0.425721 0.389713 
0.08604 -0.350146 0.56998 
0.08604 -0.350146 0.433347 
0.08604 -0.231818 0.277762 
0.08604 -0.425721 0.389713 
0.08604 -0.350146 0.433347 
0.08604 -0.231818 0.277762 
0.08604 -0.350146 0.433347 
0.08604 -0.231818 0.365029 
0.08604 -0.037915 0.389712 
0.08604 -0.231818 0.277762 
0.08604 -0.231818 0.365029 
0.08604 -0.037915 0.389712 
0.08604 -0.231818 0.365029 
0.08604 -0.113491 0.433347 
0.076793 -0.294267 0.584121 
0.076793 -0.17804 0.584122 
0.046414 -0.194936 0.677523 
0.076793 -0.294267 0.584121 
0.046414 -0.194936 0.677523 
0.046414 -0.263889 0.677523 
0.076793 -0.17804 0.584122 
0.076793 -0.164761 0.439974 
0.076793 -0.114943 0.439973 
0.076793 -0.17804 0.584122 
0.076793 -0.114943 0.439973 
0.076793 -0.114941 0.584121 
3 0 1 2
3 3 4 5
3 6 7 8
3 9 10 11
3 12 13 14
3 15 16 17
3 18 19 20
3 21 22 23
3 24 25 26
3 27 28 29
3 30 31 32
3 33 34 35
3 36 37 38
3 39 40 41
3 42 43 44
3 45 46 47
3 48 49 50
3 51 52 53
3 54 55 56
3 57 58 59
3 60 61 62
3 63 64 65
3 66 67 68
3 69 70 71
3 72 73 74
3 75 76 77
3 78 79 80
3 81 82 83
3 84 85 86
3 87 88 89
3 90 91 92
3 93 94 95
3 96 97 98
3 99 100 101
3 102 103 104
3 105 106 107
3 108 109 110
3 111 112 113
3 114 115 116
3 117 118 119
3 120 121 122
3 123 124 125
3 126 127 128
3 129 130 131
3 132 133 134
3 135 136 137
3 138 139 140
3 141 142 143
3 144 145 146
3 147 148 149
3 150 151 152
3 153 154 155
3 156 157 158
3 159 160 161
3 162 163 164
3 165 166 167
3 168 169 170
3 171 172 173
3 174 175 176
3 177 178 179
3 180 181 182
3 183 184 185
3 186 187 188
3 189 190 191
3 192 193 194
3 195 196 197
3 198 199 200
3 201 202 203
3 204 205 206
3 207 208 209
3 210 211 212
3 213 214 215
3 216 217 218
3 219 220 221
3 222 223 224
3 225 226 227
3 228 229 230
3 231 232 233
3 234 235 236
3 237 238 239
3 240 241 242
3 243 244 245
3 246 247 248
3 249 250 251
3 252 253 254
3 255 256 257
3 258 259 260
3 261 262 263
3 264 265 266
3 267 268 269
3 270 271 272
3 273 274 275
3 276 277 278
3 279 280 281
3 282 283 284
3 285 286 287
3 288 289 290
3 291 292 293
3 294 295 296
3 297 298 299
3 300 301 302
3 303 304 305
3 306 307 308
3 309 310 311
3 312 313 314
3 315 316 317
3 318 319 320
3 321 322 323
3 324 325 326
3 327 328 329
3 330 331 332
3 333 334 335
3 336 337 338
3 339 340 341
3 342 343 344
3 345 346 347
3 348 349 350
3 351 352 353
3 354 355 356
3 357 358 359
3 360 361 362
3 363 364 365
3 366 367 368
3 369 370 371
3 372 373 374
3 375 376 377
3 378 379 380
3 381 382 383
3 384 385 386
3 387 388 389
3 390 391 392
3 393 394 395
3 396 397 398
3 399 400 401
3 402 403 404
3 405 406 407
3 408 409 410
3 411 412 413
3 414 415 416
3 417 418 419
3 420 421 422
3 423 424 425
3 426 427 428
3 429 430 431
3 432 433 434
3 435 436 437
3 438 439 440
3 441 442 443
3 444 445 446
3 447 448 449
3 450 451 452
3 453 454 455
3 456 457 458
3 459 460 461
3 462 463 464
3 465 466 467
3 468 469 470
3 471 472 473
3 474 475 476
3 477 478 479
3 480 481 482
3 483 484 485
3 486 487 488
3 489 490 491
3 492 493 494
3 495 496 497
3 498 499 500
3 501 502 503
3 504 505 506
3 507 508 509
3 510 511 512
3 513 514 515
3 516 517 518
3 519 520 521
3 522 523 524
3 525 526 527
3 528 529 530
3 531 532 533
3 534 535 536
3 537 538 539
3 540 541 542
3 543 544 545
3 546 547 548
3 549 550 551
3 552 553 554
3 555 556 557
3 558 559 560
3 561 562 563
3 564 565 566
3 567 568 569
3 570 571 572
3 573 574 575
3 576 577 578
3 579 580 581
3 582 583 584
3 585 586 587
3 588 589 590
3 591 592 593
3 594 595 596
3 597 598 599
3 600 601 602
3 603 604 605
3 606 607 608
3 609 610 611
3 612 613 614
3 615 616 617
3 618 619 620
3 621 622 623
3 624 625 626
3 627 628 629
3 630 631 632
3 633 634 635
3 636 637 638
3 639 640 641
3 642 643 644
3 645 646 647
3 648 649 650
3 651 652 653
3 654 655 656
3 657 658 659
3 660 661 662
3 663 664 665
3 666 667 668
3 669 670 671
3 672 673 674
3 675 676 677
3 678 679 680
3 681 682 683
3 684 685 686
3 687 688 689
3 690 691 692
3 693 694 695
3 696 697 698
3 699 700 701
3 702 703 704
3 705 706 707
3 708 709 710
3 711 712 713
3 714 715 716
3 717 718 719
3 720 721 722
3 723 724 725
3 726 727 728
3 729 730 731
3 732 733 734
3 735 736 737
3 738 739 740
3 741 742 743
3 744 745 746
3 747 748 749
