ply
format ascii 1.0
comment Feeney's Flatenator generated
comment TextureFile SpaceInteriors_Texture.png
element vertex 528
property float x
property float y
property float z
property float nx
property float ny
property float nz
element face 176
property list uchar int vertex_indices
end_header
-0.24969 0.159307 0.484475 0 0 0.0348345 
-0.062856 0.159307 0.484475 0 0 0.0348345 
-0.062856 0.345753 0.484475 0 0 0.0348345 
-0.24969 0.159307 0.484475 0 0 0.0348345 
-0.062856 0.345753 0.484475 0 0 0.0348345 
-0.24969 0.345753 0.484475 0 0 0.0348345 
-0.198417 0.540448 -0.26333 -0 0.00956354 0 
-0.11413 0.540448 -0.26333 -0 0.00956354 0 
-0.11413 0.540448 -0.376794 -0 0.00956354 0 
-0.198417 0.540448 -0.26333 0 0.00956354 0 
-0.11413 0.540448 -0.376794 0 0.00956354 0 
-0.198417 0.540448 -0.376794 0 0.00956354 0 
-0.255073 0.329065 -0.630397 0 0 -0.0503728 
-0.057473 0.329065 -0.630397 0 0 -0.0503728 
-0.057473 0.074142 -0.630397 0 0 -0.0503728 
-0.255073 0.329065 -0.630397 0 0 -0.0503728 
-0.057473 0.074142 -0.630397 0 0 -0.0503728 
-0.255073 0.074142 -0.630397 0 0 -0.0503728 
-0.270478 -0.129541 -0.488755 0 -0.097749 0 
-0.042067 -0.129541 -0.488755 0 -0.097749 0 
-0.042067 -0.129541 -0.060803 0 -0.097749 0 
-0.270478 -0.129541 -0.488755 0 -0.097749 0 
-0.042067 -0.129541 -0.060803 0 -0.097749 0 
-0.270478 -0.129541 -0.060803 0 -0.097749 0 
-2e-06 0.255003 -0.074862 0.0277961 0 0 
-2e-06 0.255003 -0.474696 0.0277961 0 0 
-2e-06 0.324522 -0.474696 0.0277961 0 0 
-2e-06 0.255003 -0.074862 0.0277961 -0 0 
-2e-06 0.324522 -0.474696 0.0277961 -0 0 
-2e-06 0.324522 -0.074862 0.0277961 -0 0 
-0.312544 0.255003 -0.474696 -0.0277961 0 0 
-0.312544 0.255003 -0.074862 -0.0277961 0 0 
-0.312544 0.324522 -0.074862 -0.0277961 0 0 
-0.312544 0.255003 -0.474696 -0.0277961 0 0 
-0.312544 0.324522 -0.074862 -0.0277961 0 0 
-0.312544 0.324522 -0.474696 -0.0277961 0 0 
-0.312544 0 -1e-06 0 0 0.0453727 
-2e-06 0 -1e-06 0 0 0.0453727 
-0.048693 0.145173 -1e-06 0 0 0.0453727 
-0.312544 0 -1e-06 0 0 0.0312357 
-0.048693 0.145173 -1e-06 0 0 0.0312357 
-0.263855 0.145173 -1e-06 0 0 0.0312357 
-2e-06 0 -1e-06 0 -0 0.0196326 
-2e-06 0.403208 -1e-06 0 -0 0.0196326 
-0.048693 0.359887 -1e-06 0 -0 0.0196326 
-2e-06 0 -1e-06 0 0 0.0104546 
-0.048693 0.359887 -1e-06 0 0 0.0104546 
-0.048693 0.145173 -1e-06 0 0 0.0104546 
-2e-06 0.403208 -1e-06 0 0 0.0135396 
-0.312544 0.403208 -1e-06 0 0 0.0135396 
-0.263855 0.359887 -1e-06 0 0 0.0135396 
-2e-06 0.403208 -1e-06 0 0 0.00932103 
-0.263855 0.359887 -1e-06 0 0 0.00932103 
-0.048693 0.359887 -1e-06 0 0 0.00932103 
-0.312544 0.403208 -1e-06 0 0 0.0196318 
-0.312544 0 -1e-06 0 0 0.0196318 
-0.263855 0.145173 -1e-06 0 0 0.0196318 
-0.312544 0.403208 -1e-06 0 0 0.0104542 
-0.263855 0.145173 -1e-06 0 0 0.0104542 
-0.263855 0.359887 -1e-06 0 0 0.0104542 
-0.263855 0.145173 -1e-06 0 -0.0496695 0 
-0.048693 0.145173 -1e-06 0 -0.0496695 0 
-0.048693 0.145173 0.230846 0 -0.0496695 0 
-0.263855 0.145173 -1e-06 0 -0.0496695 0 
-0.048693 0.145173 0.230846 0 -0.0496695 0 
-0.263855 0.145173 0.230846 0 -0.0496695 0 
-0.048693 0.145173 -1e-06 0.0495661 0 0 
-0.048693 0.359887 -1e-06 0.0495661 0 0 
-0.048693 0.359887 0.230846 0.0495661 0 0 
-0.048693 0.145173 -1e-06 0.0495661 0 0 
-0.048693 0.359887 0.230846 0.0495661 0 0 
-0.048693 0.145173 0.230846 0.0495661 0 0 
-0.048693 0.359887 -1e-06 0 0.0496695 0 
-0.263855 0.359887 -1e-06 0 0.0496695 0 
-0.263855 0.359887 0.230846 0 0.0496695 0 
-0.048693 0.359887 -1e-06 0 0.0496695 -0 
-0.263855 0.359887 0.230846 0 0.0496695 -0 
-0.048693 0.359887 0.230846 0 0.0496695 -0 
-0.263855 0.359887 -1e-06 -0.0495661 0 0 
-0.263855 0.145173 -1e-06 -0.0495661 0 0 
-0.263855 0.145173 0.230846 -0.0495661 0 0 
-0.263855 0.359887 -1e-06 -0.0495661 0 0 
-0.263855 0.145173 0.230846 -0.0495661 0 0 
-0.263855 0.359887 0.230846 -0.0495661 0 0 
-0.312544 0.403208 -1e-06 -0 0.0438818 0 
-2e-06 0.403208 -1e-06 -0 0.0438818 0 
-0.049553 0.403208 -0.140404 -0 0.0438818 0 
-0.312544 0.403208 -1e-06 0 0.0299676 0 
-0.049553 0.403208 -0.140404 0 0.0299676 0 
-0.262993 0.403208 -0.140404 0 0.0299676 0 
-2e-06 0.403208 -1e-06 0 0.0272311 0 
-2e-06 0.403208 -0.549558 0 0.0272311 0 
-0.049553 0.403208 -0.376794 0 0.0272311 0 
-2e-06 0.403208 -1e-06 0 0.0117134 0 
-0.049553 0.403208 -0.376794 0 0.0117134 0 
-0.049553 0.403208 -0.140404 0 0.0117134 0 
-2e-06 0.403208 -0.549558 0 0.053996 0 
-0.312544 0.403208 -0.549558 0 0.053996 0 
-0.262993 0.403208 -0.376794 0 0.053996 0 
-2e-06 0.403208 -0.549558 0 0.0368747 0 
-0.262993 0.403208 -0.376794 0 0.0368747 0 
-0.049553 0.403208 -0.376794 0 0.0368747 0 
-0.312544 0.403208 -0.549558 0 0.0272311 0 
-0.312544 0.403208 -1e-06 0 0.0272311 0 
-0.262993 0.403208 -0.140404 0 0.0272311 0 
-0.312544 0.403208 -0.549558 0 0.0117134 0 
-0.262993 0.403208 -0.140404 0 0.0117134 0 
-0.262993 0.403208 -0.376794 0 0.0117134 0 
-0.262993 0.403208 -0.140404 0 0 0.0150864 
-0.049553 0.403208 -0.140404 0 0 0.0150864 
-0.049553 0.47389 -0.140404 0 0 0.0150864 
-0.262993 0.403208 -0.140404 0 0 0.0150864 
-0.049553 0.47389 -0.140404 0 0 0.0150864 
-0.262993 0.47389 -0.140404 0 0 0.0150864 
-0.049553 0.403208 -0.140404 0.0167085 0 0 
-0.049553 0.403208 -0.376794 0.0167085 0 0 
-0.049553 0.47389 -0.376794 0.0167085 0 0 
-0.049553 0.403208 -0.140404 0.0167085 -0 0 
-0.049553 0.47389 -0.376794 0.0167085 -0 0 
-0.049553 0.47389 -0.140404 0.0167085 -0 0 
-0.198417 0.47389 -0.376794 -0 0 -0.00456436 
-0.262993 0.403208 -0.376794 -0 0 -0.00456436 
-0.262993 0.47389 -0.376794 -0 0 -0.00456436 
-0.262993 0.403208 -0.376794 -0.0167085 0 0 
-0.262993 0.403208 -0.140404 -0.0167085 0 0 
-0.262993 0.47389 -0.140404 -0.0167085 0 0 
-0.262993 0.403208 -0.376794 -0.0167085 0 0 
-0.262993 0.47389 -0.140404 -0.0167085 0 0 
-0.262993 0.47389 -0.376794 -0.0167085 0 0 
-0.262993 0.47389 -0.140404 -0 0.0262373 0.0142061 
-0.049553 0.47389 -0.140404 -0 0.0262373 0.0142061 
-0.11413 0.540448 -0.26333 -0 0.0262373 0.0142061 
-0.262993 0.47389 -0.140404 0 0.0103611 0.00560997 
-0.11413 0.540448 -0.26333 0 0.0103611 0.00560997 
-0.198417 0.540448 -0.26333 0 0.0103611 0.00560997 
-0.049553 0.47389 -0.140404 0.0157336 0.0152654 0 
-0.049553 0.47389 -0.376794 0.0157336 0.0152654 0 
-0.11413 0.540448 -0.376794 0.0157336 0.0152654 0 
-0.049553 0.47389 -0.140404 0.00755194 0.00732716 0 
-0.11413 0.540448 -0.376794 0.00755194 0.00732716 0 
-0.11413 0.540448 -0.26333 0.00755194 0.00732716 0 
-0.198417 0.540448 -0.376794 0 -0 -0.00429805 
-0.198417 0.47389 -0.376794 0 -0 -0.00429805 
-0.262993 0.47389 -0.376794 0 -0 -0.00429805 
-0.262993 0.47389 -0.376794 -0.0157336 0.0152651 0 
-0.262993 0.47389 -0.140404 -0.0157336 0.0152651 0 
-0.198417 0.540448 -0.26333 -0.0157336 0.0152651 0 
-0.262993 0.47389 -0.376794 -0.00755194 0.00732705 0 
-0.198417 0.540448 -0.26333 -0.00755194 0.00732705 0 
-0.198417 0.540448 -0.376794 -0.00755194 0.00732705 0 
-0.114421 0.540219 -0.665441 0 -0 -0.0055331 
-0.114421 0.474119 -0.665441 0 -0 -0.0055331 
-0.198129 0.474119 -0.665441 0 -0 -0.0055331 
-0.114421 0.540219 -0.665441 -0 0 -0.0055331 
-0.198129 0.474119 -0.665441 -0 0 -0.0055331 
-0.198129 0.540219 -0.665441 -0 0 -0.0055331 
-0.049553 0.403208 -0.376794 0 0 -0.0150864 
-0.262993 0.403208 -0.376794 0 0 -0.0150864 
-0.198417 0.47389 -0.376794 0 0 -0.0150864 
-0.049553 0.403208 -0.376794 0 0 -0.00595758 
-0.198417 0.47389 -0.376794 0 0 -0.00595758 
-0.11413 0.47389 -0.376794 0 0 -0.00595758 
-0.049553 0.47389 -0.376794 0 0 -0.00429812 
-0.11413 0.47389 -0.376794 0 0 -0.00429812 
-0.11413 0.540448 -0.376794 0 0 -0.00429812 
-0.049553 0.403208 -0.376794 0 0 -0.00456443 
-0.11413 0.47389 -0.376794 0 0 -0.00456443 
-0.049553 0.47389 -0.376794 0 0 -0.00456443 
-0.11413 0.540448 -0.376794 0.00934507 0 0 
-0.11413 0.47389 -0.376794 0.00934507 0 0 
-0.11413 0.47389 -0.517199 0.00934507 0 0 
-0.11413 0.540448 -0.376794 0.00934507 0 0 
-0.11413 0.47389 -0.517199 0.00934507 0 0 
-0.11413 0.540448 -0.517199 0.00934507 0 0 
-0.11413 0.47389 -0.376794 -0 -0.0118343 0 
-0.198417 0.47389 -0.376794 -0 -0.0118343 0 
-0.198417 0.47389 -0.517199 -0 -0.0118343 0 
-0.11413 0.47389 -0.376794 0 -0.0118343 -0 
-0.198417 0.47389 -0.517199 0 -0.0118343 -0 
-0.11413 0.47389 -0.517199 0 -0.0118343 -0 
-0.198417 0.47389 -0.376794 -0.00934507 0 0 
-0.198417 0.540448 -0.376794 -0.00934507 0 0 
-0.198417 0.540448 -0.517199 -0.00934507 0 0 
-0.198417 0.47389 -0.376794 -0.00934507 0 0 
-0.198417 0.540448 -0.517199 -0.00934507 0 0 
-0.198417 0.47389 -0.517199 -0.00934507 0 0 
-0.198417 0.540448 -0.376794 -0 0.0118343 0 
-0.11413 0.540448 -0.376794 -0 0.0118343 0 
-0.11413 0.540448 -0.517199 -0 0.0118343 0 
-0.198417 0.540448 -0.376794 0 0.0118343 0 
-0.11413 0.540448 -0.517199 0 0.0118343 0 
-0.198417 0.540448 -0.517199 0 0.0118343 0 
-0.11413 0.540448 -0.517199 0.0014109 0 0.00149503 
-0.11413 0.47389 -0.517199 0.0014109 0 0.00149503 
-0.091668 0.456152 -0.538397 0.0014109 0 0.00149503 
-0.11413 0.540448 -0.517199 0.00216292 0 0.00229189 
-0.091668 0.456152 -0.538397 0.00216292 0 0.00229189 
-0.091668 0.558186 -0.538397 0.00216292 0 0.00229189 
-0.11413 0.47389 -0.517199 0 -0.00178672 0.00149508 
-0.198417 0.47389 -0.517199 0 -0.00178672 0.00149508 
-0.220881 0.456152 -0.538397 0 -0.00178672 0.00149508 
-0.11413 0.47389 -0.517199 0 -0.00273906 0.00229198 
-0.220881 0.456152 -0.538397 0 -0.00273906 0.00229198 
-0.091668 0.456152 -0.538397 0 -0.00273906 0.00229198 
-0.198417 0.47389 -0.517199 -0.0014109 0 0.00149516 
-0.198417 0.540448 -0.517199 -0.0014109 0 0.00149516 
-0.220881 0.558186 -0.538397 -0.0014109 0 0.00149516 
-0.198417 0.47389 -0.517199 -0.00216292 0 0.00229209 
-0.220881 0.558186 -0.538397 -0.00216292 0 0.00229209 
-0.220881 0.456152 -0.538397 -0.00216292 0 0.00229209 
-0.198417 0.540448 -0.517199 -0 0.00178672 0.00149508 
-0.11413 0.540448 -0.517199 -0 0.00178672 0.00149508 
-0.091668 0.558186 -0.538397 -0 0.00178672 0.00149508 
-0.198417 0.540448 -0.517199 0 0.00273906 0.00229198 
-0.091668 0.558186 -0.538397 0 0.00273906 0.00229198 
-0.220881 0.558186 -0.538397 0 0.00273906 0.00229198 
-0.091668 0.558186 -0.538397 0.0129628 0 0 
-0.091668 0.456152 -0.538397 0.0129628 0 0 
-0.091668 0.456152 -0.665441 0.0129628 0 0 
-0.091668 0.558186 -0.538397 0.0129628 0 0 
-0.091668 0.456152 -0.665441 0.0129628 0 0 
-0.091668 0.558186 -0.665441 0.0129628 0 0 
-0.091668 0.456152 -0.538397 -0 -0.0164157 0 
-0.220881 0.456152 -0.538397 -0 -0.0164157 0 
-0.220881 0.456152 -0.665441 -0 -0.0164157 0 
-0.091668 0.456152 -0.538397 0 -0.0164157 -0 
-0.220881 0.456152 -0.665441 0 -0.0164157 -0 
-0.091668 0.456152 -0.665441 0 -0.0164157 -0 
-0.220881 0.456152 -0.538397 -0.0129628 0 0 
-0.220881 0.558186 -0.538397 -0.0129628 0 0 
-0.220881 0.558186 -0.665441 -0.0129628 0 0 
-0.220881 0.456152 -0.538397 -0.0129628 0 0 
-0.220881 0.558186 -0.665441 -0.0129628 0 0 
-0.220881 0.456152 -0.665441 -0.0129628 0 0 
-0.220881 0.558186 -0.538397 -0 0.0164157 0 
-0.091668 0.558186 -0.538397 -0 0.0164157 0 
-0.091668 0.558186 -0.665441 -0 0.0164157 0 
-0.220881 0.558186 -0.538397 0 0.0164157 0 
-0.091668 0.558186 -0.665441 0 0.0164157 0 
-0.220881 0.558186 -0.665441 0 0.0164157 0 
-0.312544 0.403208 -0.549558 0 0.0252656 -0.0231728 
-2e-06 0.403208 -0.549558 0 0.0252656 -0.0231728 
-0.057473 0.329065 -0.630397 0 0.0252656 -0.0231728 
-0.312544 0.403208 -0.549558 0 0.0159738 -0.0146507 
-0.057473 0.329065 -0.630397 0 0.0159738 -0.0146507 
-0.255073 0.329065 -0.630397 0 0.0159738 -0.0146507 
-2e-06 0.403208 -0.549558 0.0325949 0 -0.0231728 
-2e-06 0 -0.549558 0.0325949 0 -0.0231728 
-0.057473 0.074142 -0.630397 0.0325949 0 -0.0231728 
-2e-06 0.403208 -0.549558 0.0206077 0 -0.0146507 
-0.057473 0.074142 -0.630397 0.0206077 0 -0.0146507 
-0.057473 0.329065 -0.630397 0.0206077 0 -0.0146507 
-2e-06 0 -0.549558 -0 -0.0252656 -0.0231725 
-0.312544 0 -0.549558 -0 -0.0252656 -0.0231725 
-0.255073 0.074142 -0.630397 -0 -0.0252656 -0.0231725 
-2e-06 0 -0.549558 0 -0.0159738 -0.0146505 
-0.255073 0.074142 -0.630397 0 -0.0159738 -0.0146505 
-0.057473 0.074142 -0.630397 0 -0.0159738 -0.0146505 
-0.312544 0 -0.549558 -0.0325949 0 -0.0231728 
-0.312544 0.403208 -0.549558 -0.0325949 0 -0.0231728 
-0.255073 0.329065 -0.630397 -0.0325949 0 -0.0231728 
-0.312544 0 -0.549558 -0.0206077 0 -0.0146507 
-0.255073 0.329065 -0.630397 -0.0206077 0 -0.0146507 
-0.255073 0.074142 -0.630397 -0.0206077 0 -0.0146507 
-0.263855 0.145173 0.230846 0 0 0.00346217 
-0.048693 0.145173 0.230846 0 0 0.00346217 
-0.064817 0.161264 0.230846 0 0 0.00346217 
-0.263855 0.145173 0.230846 0 0 0.00294322 
-0.064817 0.161264 0.230846 0 0 0.00294322 
-0.247728 0.161264 0.230846 0 0 0.00294322 
-0.048693 0.145173 0.230846 0 -0 0.00346205 
-0.048693 0.359887 0.230846 0 -0 0.00346205 
-0.064817 0.343796 0.230846 0 -0 0.00346205 
-0.048693 0.145173 0.230846 0 0 0.00294315 
-0.064817 0.343796 0.230846 0 0 0.00294315 
-0.064817 0.161264 0.230846 0 0 0.00294315 
-0.048693 0.359887 0.230846 0 0 0.00346217 
-0.263855 0.359887 0.230846 0 0 0.00346217 
-0.247728 0.343796 0.230846 0 0 0.00346217 
-0.048693 0.359887 0.230846 0 0 0.00294322 
-0.247728 0.343796 0.230846 0 0 0.00294322 
-0.064817 0.343796 0.230846 0 0 0.00294322 
-0.263855 0.359887 0.230846 0 0 0.00346269 
-0.263855 0.145173 0.230846 0 0 0.00346269 
-0.247728 0.161264 0.230846 0 0 0.00346269 
-0.263855 0.359887 0.230846 0 0 0.00294369 
-0.247728 0.161264 0.230846 0 0 0.00294369 
-0.247728 0.343796 0.230846 0 0 0.00294369 
-0.275645 0.133405 0.38516 0 -0.028991 0 
-0.0369 0.133405 0.38516 0 -0.028991 0 
-0.0369 0.133405 0.506591 0 -0.028991 0 
-0.275645 0.133405 0.38516 0 -0.028991 0 
-0.0369 0.133405 0.506591 0 -0.028991 0 
-0.275645 0.133405 0.506591 0 -0.028991 0 
-0.0369 0.133405 0.38516 0.0289309 0 0 
-0.0369 0.371655 0.38516 0.0289309 0 0 
-0.0369 0.371655 0.506591 0.0289309 0 0 
-0.0369 0.133405 0.38516 0.0289309 0 0 
-0.0369 0.371655 0.506591 0.0289309 0 0 
-0.0369 0.133405 0.506591 0.0289309 0 0 
-0.0369 0.371655 0.38516 0 0.028991 0 
-0.275645 0.371655 0.38516 0 0.028991 0 
-0.275645 0.371655 0.506591 0 0.028991 0 
-0.0369 0.371655 0.38516 0 0.028991 -0 
-0.275645 0.371655 0.506591 0 0.028991 -0 
-0.0369 0.371655 0.506591 0 0.028991 -0 
-0.275645 0.371655 0.38516 -0.0289309 0 0 
-0.275645 0.133405 0.38516 -0.0289309 0 0 
-0.275645 0.133405 0.506591 -0.0289309 0 0 
-0.275645 0.371655 0.38516 -0.0289309 0 0 
-0.275645 0.133405 0.506591 -0.0289309 0 0 
-0.275645 0.371655 0.506591 -0.0289309 0 0 
-0.275645 0.133405 0.506591 0 0 0.00618397 
-0.0369 0.133405 0.506591 0 0 0.00618397 
-0.062856 0.159307 0.506591 0 0 0.00618397 
-0.275645 0.133405 0.506591 0 0 0.00483937 
-0.062856 0.159307 0.506591 0 0 0.00483937 
-0.24969 0.159307 0.506591 0 0 0.00483937 
-0.0369 0.133405 0.506591 0 -0 0.00618402 
-0.0369 0.371655 0.506591 0 -0 0.00618402 
-0.062856 0.345753 0.506591 0 -0 0.00618402 
-0.0369 0.133405 0.506591 0 0 0.00483939 
-0.062856 0.345753 0.506591 0 0 0.00483939 
-0.062856 0.159307 0.506591 0 0 0.00483939 
-0.0369 0.371655 0.506591 0 0 0.00618397 
-0.275645 0.371655 0.506591 0 0 0.00618397 
-0.24969 0.345753 0.506591 0 0 0.00618397 
-0.0369 0.371655 0.506591 0 0 0.00483937 
-0.24969 0.345753 0.506591 0 0 0.00483937 
-0.062856 0.345753 0.506591 0 0 0.00483937 
-0.275645 0.371655 0.506591 0 0 0.00618378 
-0.275645 0.133405 0.506591 0 0 0.00618378 
-0.24969 0.159307 0.506591 0 0 0.00618378 
-0.275645 0.371655 0.506591 0 0 0.0048392 
-0.24969 0.159307 0.506591 0 0 0.0048392 
-0.24969 0.345753 0.506591 0 0 0.0048392 
-0.24969 0.159307 0.506591 -0 0.00413203 0 
-0.062856 0.159307 0.506591 -0 0.00413203 0 
-0.062856 0.159307 0.484475 -0 0.00413203 0 
-0.24969 0.159307 0.506591 0 0.00413203 0 
-0.062856 0.159307 0.484475 0 0.00413203 0 
-0.24969 0.159307 0.484475 0 0.00413203 0 
-0.062856 0.159307 0.506591 -0.00412345 0 0 
-0.062856 0.345753 0.506591 -0.00412345 0 0 
-0.062856 0.345753 0.484475 -0.00412345 0 0 
-0.062856 0.159307 0.506591 -0.00412345 0 0 
-0.062856 0.345753 0.484475 -0.00412345 0 0 
-0.062856 0.159307 0.484475 -0.00412345 0 0 
-0.062856 0.345753 0.506591 -0 -0.00413203 0 
-0.24969 0.345753 0.506591 -0 -0.00413203 0 
-0.24969 0.345753 0.484475 -0 -0.00413203 0 
-0.062856 0.345753 0.506591 0 -0.00413203 -0 
-0.24969 0.345753 0.484475 0 -0.00413203 -0 
-0.062856 0.345753 0.484475 0 -0.00413203 -0 
-0.24969 0.345753 0.506591 0.00412345 0 0 
-0.24969 0.159307 0.506591 0.00412345 0 0 
-0.24969 0.159307 0.484475 0.00412345 0 0 
-0.24969 0.345753 0.506591 0.00412345 0 0 
-0.24969 0.159307 0.484475 0.00412345 0 0 
-0.24969 0.345753 0.484475 0.00412345 0 0 
-0.312544 0 -0.549558 0 -0.0190035 0 
-2e-06 0 -0.549558 0 -0.0190035 0 
-0.042067 0 -0.488755 0 -0.0190035 0 
-0.312544 0 -0.549558 0 -0.0138881 0 
-0.042067 0 -0.488755 0 -0.0138881 0 
-0.270478 0 -0.488755 0 -0.0138881 0 
-2e-06 0 -0.549558 0 -0.0231171 0 
-2e-06 0 -1e-06 0 -0.0231171 0 
-0.042067 0 -0.060803 0 -0.0231171 0 
-2e-06 0 -0.549558 0 -0.0180018 0 
-0.042067 0 -0.060803 0 -0.0180018 0 
-0.042067 0 -0.488755 0 -0.0180018 0 
-2e-06 0 -1e-06 -0 -0.0190032 0 
-0.312544 0 -1e-06 -0 -0.0190032 0 
-0.270478 0 -0.060803 -0 -0.0190032 0 
-2e-06 0 -1e-06 0 -0.0138878 0 
-0.270478 0 -0.060803 0 -0.0138878 0 
-0.042067 0 -0.060803 0 -0.0138878 0 
-0.312544 0 -1e-06 0 -0.0231177 0 
-0.312544 0 -0.549558 0 -0.0231177 0 
-0.270478 0 -0.488755 0 -0.0231177 0 
-0.312544 0 -1e-06 0 -0.0180022 0 
-0.270478 0 -0.488755 0 -0.0180022 0 
-0.270478 0 -0.060803 0 -0.0180022 0 
-0.270478 0 -0.488755 0 0 -0.0295886 
-0.042067 0 -0.488755 0 0 -0.0295886 
-0.042067 -0.129541 -0.488755 0 0 -0.0295886 
-0.270478 0 -0.488755 0 0 -0.0295886 
-0.042067 -0.129541 -0.488755 0 0 -0.0295886 
-0.270478 -0.129541 -0.488755 0 0 -0.0295886 
-0.042067 0 -0.488755 0.0554373 0 -0 
-0.042067 0 -0.060803 0.0554373 0 -0 
-0.042067 -0.129541 -0.060803 0.0554373 0 -0 
-0.042067 0 -0.488755 0.0554373 0 0 
-0.042067 -0.129541 -0.060803 0.0554373 0 0 
-0.042067 -0.129541 -0.488755 0.0554373 0 0 
-0.042067 0 -0.060803 0 0 0.0295886 
-0.270478 0 -0.060803 0 0 0.0295886 
-0.270478 -0.129541 -0.060803 0 0 0.0295886 
-0.042067 0 -0.060803 0 0 0.0295886 
-0.270478 -0.129541 -0.060803 0 0 0.0295886 
-0.042067 -0.129541 -0.060803 0 0 0.0295886 
-0.270478 0 -0.060803 -0.0554373 0 -0 
-0.270478 0 -0.488755 -0.0554373 0 -0 
-0.270478 -0.129541 -0.488755 -0.0554373 0 -0 
-0.270478 0 -0.060803 -0.0554373 -0 0 
-0.270478 -0.129541 -0.488755 -0.0554373 -0 0 
-0.270478 -0.129541 -0.060803 -0.0554373 -0 0 
-2e-06 0 -1e-06 0.140139 0 0 
-2e-06 0 -0.549558 0.140139 0 0 
-2e-06 0.255003 -0.474696 0.140139 0 0 
-2e-06 0 -1e-06 0.101959 0 0 
-2e-06 0.255003 -0.474696 0.101959 0 0 
-2e-06 0.255003 -0.074862 0.101959 0 0 
-2e-06 0 -0.549558 0.0301849 0 0 
-2e-06 0.403208 -0.549558 0.0301849 0 0 
-2e-06 0.324522 -0.474696 0.0301849 0 0 
-2e-06 0 -0.549558 0.00520433 0 0 
-2e-06 0.324522 -0.474696 0.00520433 0 0 
-2e-06 0.255003 -0.474696 0.00520433 0 0 
-2e-06 0.403208 -0.549558 0.0432424 0 -0 
-2e-06 0.403208 -1e-06 0.0432424 0 -0 
-2e-06 0.324522 -0.074862 0.0432424 0 -0 
-2e-06 0.403208 -0.549558 0.0314613 0 0 
-2e-06 0.324522 -0.074862 0.0314613 0 0 
-2e-06 0.324522 -0.474696 0.0314613 0 0 
-2e-06 0.403208 -1e-06 0.0301846 0 0 
-2e-06 0 -1e-06 0.0301846 0 0 
-2e-06 0.255003 -0.074862 0.0301846 0 0 
-2e-06 0.403208 -1e-06 0.00520426 0 0 
-2e-06 0.255003 -0.074862 0.00520426 0 0 
-2e-06 0.324522 -0.074862 0.00520426 0 0 
-0.312544 0 -0.549558 -0.140139 0 0 
-0.312544 0 -1e-06 -0.140139 0 0 
-0.312544 0.255003 -0.074862 -0.140139 0 0 
-0.312544 0 -0.549558 -0.101959 0 0 
-0.312544 0.255003 -0.074862 -0.101959 0 0 
-0.312544 0.255003 -0.474696 -0.101959 0 0 
-0.312544 0 -1e-06 -0.0301846 0 0 
-0.312544 0.403208 -1e-06 -0.0301846 0 0 
-0.312544 0.324522 -0.074862 -0.0301846 0 0 
-0.312544 0 -1e-06 -0.00520426 0 0 
-0.312544 0.324522 -0.074862 -0.00520426 0 0 
-0.312544 0.255003 -0.074862 -0.00520426 0 0 
-0.312544 0.403208 -1e-06 -0.0432424 0 -0 
-0.312544 0.403208 -0.549558 -0.0432424 0 -0 
-0.312544 0.324522 -0.474696 -0.0432424 0 -0 
-0.312544 0.403208 -1e-06 -0.0314613 0 0 
-0.312544 0.324522 -0.474696 -0.0314613 0 0 
-0.312544 0.324522 -0.074862 -0.0314613 0 0 
-0.312544 0.403208 -0.549558 -0.0301849 0 0 
-0.312544 0 -0.549558 -0.0301849 0 0 
-0.312544 0.255003 -0.474696 -0.0301849 0 0 
-0.312544 0.403208 -0.549558 -0.00520433 0 0 
-0.312544 0.255003 -0.474696 -0.00520433 0 0 
-0.312544 0.324522 -0.474696 -0.00520433 0 0 
-0.064817 0.161264 0.38516 0 0 -0.00509575 
-0.064817 0.343796 0.38516 0 0 -0.00509575 
-0.0369 0.371655 0.38516 0 0 -0.00509575 
-0.064817 0.161264 0.38516 0 0 -0.00665122 
-0.0369 0.371655 0.38516 0 0 -0.00665122 
-0.0369 0.133405 0.38516 0 0 -0.00665122 
-0.064817 0.343796 0.38516 0 0 -0.00509571 
-0.247728 0.343796 0.38516 0 0 -0.00509571 
-0.275645 0.371655 0.38516 0 0 -0.00509571 
-0.064817 0.343796 0.38516 0 0 -0.00665119 
-0.275645 0.371655 0.38516 0 0 -0.00665119 
-0.0369 0.371655 0.38516 0 0 -0.00665119 
-0.247728 0.343796 0.38516 0 -0 -0.00509574 
-0.247728 0.161264 0.38516 0 -0 -0.00509574 
-0.275645 0.133405 0.38516 0 -0 -0.00509574 
-0.247728 0.343796 0.38516 -0 0 -0.00665122 
-0.275645 0.133405 0.38516 -0 0 -0.00665122 
-0.275645 0.371655 0.38516 -0 0 -0.00665122 
-0.247728 0.161264 0.38516 0 0 -0.00509572 
-0.064817 0.161264 0.38516 0 0 -0.00509572 
-0.0369 0.133405 0.38516 0 0 -0.00509572 
-0.247728 0.161264 0.38516 0 -0 -0.0066512 
-0.0369 0.133405 0.38516 0 -0 -0.0066512 
-0.275645 0.133405 0.38516 0 -0 -0.0066512 
-0.064817 0.161264 0.230846 0.0281672 0 0 
-0.064817 0.343796 0.230846 0.0281672 0 0 
-0.064817 0.343796 0.38516 0.0281672 0 0 
-0.064817 0.161264 0.230846 0.0281672 0 0 
-0.064817 0.343796 0.38516 0.0281672 0 0 
-0.064817 0.161264 0.38516 0.0281672 0 0 
-0.064817 0.343796 0.230846 0 0.0282257 0 
-0.247728 0.343796 0.230846 0 0.0282257 0 
-0.247728 0.343796 0.38516 0 0.0282257 0 
-0.064817 0.343796 0.230846 0 0.0282257 -0 
-0.247728 0.343796 0.38516 0 0.0282257 -0 
-0.064817 0.343796 0.38516 0 0.0282257 -0 
-0.247728 0.343796 0.230846 -0.0281672 0 0 
-0.247728 0.161264 0.230846 -0.0281672 0 0 
-0.247728 0.161264 0.38516 -0.0281672 0 0 
-0.247728 0.343796 0.230846 -0.0281672 0 0 
-0.247728 0.161264 0.38516 -0.0281672 0 0 
-0.247728 0.343796 0.38516 -0.0281672 0 0 
-0.247728 0.161264 0.230846 0 -0.0282257 0 
-0.064817 0.161264 0.230846 0 -0.0282257 0 
-0.064817 0.161264 0.38516 0 -0.0282257 0 
-0.247728 0.161264 0.230846 0 -0.0282257 0 
-0.064817 0.161264 0.38516 0 -0.0282257 0 
-0.247728 0.161264 0.38516 0 -0.0282257 0 
-0.091668 0.558186 -0.665441 0 -0 -0.00232158 
-0.091668 0.456152 -0.665441 0 -0 -0.00232158 
-0.114421 0.474119 -0.665441 0 -0 -0.00232158 
-0.091668 0.558186 -0.665441 0 0 -0.00150397 
-0.114421 0.474119 -0.665441 0 0 -0.00150397 
-0.114421 0.540219 -0.665441 0 0 -0.00150397 
-0.091668 0.456152 -0.665441 0 0 -0.00232157 
-0.220881 0.456152 -0.665441 0 0 -0.00232157 
-0.198129 0.474119 -0.665441 0 0 -0.00232157 
-0.091668 0.456152 -0.665441 0 0 -0.00150398 
-0.198129 0.474119 -0.665441 0 0 -0.00150398 
-0.114421 0.474119 -0.665441 0 0 -0.00150398 
-0.220881 0.456152 -0.665441 0 0 -0.00232148 
-0.220881 0.558186 -0.665441 0 0 -0.00232148 
-0.198129 0.540219 -0.665441 0 0 -0.00232148 
-0.220881 0.456152 -0.665441 0 0 -0.00150391 
-0.198129 0.540219 -0.665441 0 0 -0.00150391 
-0.198129 0.474119 -0.665441 0 0 -0.00150391 
-0.220881 0.558186 -0.665441 0 0 -0.00232157 
-0.091668 0.558186 -0.665441 0 0 -0.00232157 
-0.114421 0.540219 -0.665441 0 0 -0.00232157 
-0.220881 0.558186 -0.665441 0 0 -0.00150398 
-0.114421 0.540219 -0.665441 0 0 -0.00150398 
-0.198129 0.540219 -0.665441 0 0 -0.00150398 
3 0 1 2
3 3 4 5
3 6 7 8
3 9 10 11
3 12 13 14
3 15 16 17
3 18 19 20
3 21 22 23
3 24 25 26
3 27 28 29
3 30 31 32
3 33 34 35
3 36 37 38
3 39 40 41
3 42 43 44
3 45 46 47
3 48 49 50
3 51 52 53
3 54 55 56
3 57 58 59
3 60 61 62
3 63 64 65
3 66 67 68
3 69 70 71
3 72 73 74
3 75 76 77
3 78 79 80
3 81 82 83
3 84 85 86
3 87 88 89
3 90 91 92
3 93 94 95
3 96 97 98
3 99 100 101
3 102 103 104
3 105 106 107
3 108 109 110
3 111 112 113
3 114 115 116
3 117 118 119
3 120 121 122
3 123 124 125
3 126 127 128
3 129 130 131
3 132 133 134
3 135 136 137
3 138 139 140
3 141 142 143
3 144 145 146
3 147 148 149
3 150 151 152
3 153 154 155
3 156 157 158
3 159 160 161
3 162 163 164
3 165 166 167
3 168 169 170
3 171 172 173
3 174 175 176
3 177 178 179
3 180 181 182
3 183 184 185
3 186 187 188
3 189 190 191
3 192 193 194
3 195 196 197
3 198 199 200
3 201 202 203
3 204 205 206
3 207 208 209
3 210 211 212
3 213 214 215
3 216 217 218
3 219 220 221
3 222 223 224
3 225 226 227
3 228 229 230
3 231 232 233
3 234 235 236
3 237 238 239
3 240 241 242
3 243 244 245
3 246 247 248
3 249 250 251
3 252 253 254
3 255 256 257
3 258 259 260
3 261 262 263
3 264 265 266
3 267 268 269
3 270 271 272
3 273 274 275
3 276 277 278
3 279 280 281
3 282 283 284
3 285 286 287
3 288 289 290
3 291 292 293
3 294 295 296
3 297 298 299
3 300 301 302
3 303 304 305
3 306 307 308
3 309 310 311
3 312 313 314
3 315 316 317
3 318 319 320
3 321 322 323
3 324 325 326
3 327 328 329
3 330 331 332
3 333 334 335
3 336 337 338
3 339 340 341
3 342 343 344
3 345 346 347
3 348 349 350
3 351 352 353
3 354 355 356
3 357 358 359
3 360 361 362
3 363 364 365
3 366 367 368
3 369 370 371
3 372 373 374
3 375 376 377
3 378 379 380
3 381 382 383
3 384 385 386
3 387 388 389
3 390 391 392
3 393 394 395
3 396 397 398
3 399 400 401
3 402 403 404
3 405 406 407
3 408 409 410
3 411 412 413
3 414 415 416
3 417 418 419
3 420 421 422
3 423 424 425
3 426 427 428
3 429 430 431
3 432 433 434
3 435 436 437
3 438 439 440
3 441 442 443
3 444 445 446
3 447 448 449
3 450 451 452
3 453 454 455
3 456 457 458
3 459 460 461
3 462 463 464
3 465 466 467
3 468 469 470
3 471 472 473
3 474 475 476
3 477 478 479
3 480 481 482
3 483 484 485
3 486 487 488
3 489 490 491
3 492 493 494
3 495 496 497
3 498 499 500
3 501 502 503
3 504 505 506
3 507 508 509
3 510 511 512
3 513 514 515
3 516 517 518
3 519 520 521
3 522 523 524
3 525 526 527
