ply
format ascii 1.0
comment Feeney's Flatenator generated
comment TextureFile SpaceInteriors_Texture.png
element vertex 612
property float x
property float y
property float z
property float nx
property float ny
property float nz
element face 204
property list uchar int vertex_indices
end_header
-0.010843 0.565247 0.702239 0 0 0.000503567 
0.010841 0.565247 0.702239 0 0 0.000503567 
0.010841 0.58847 0.702239 0 0 0.000503567 
-0.010843 0.565247 0.702239 0 0 0.000503567 
0.010841 0.58847 0.702239 0 0 0.000503567 
-0.010843 0.58847 0.702239 0 0 0.000503567 
-0.084596 0.665719 -0.152131 -0 0.072663 0 
0.084595 0.665719 -0.152131 -0 0.072663 0 
0.084595 0.665719 -0.581604 -0 0.072663 0 
-0.084596 0.665719 -0.152131 0 0.072663 0 
0.084595 0.665719 -0.581604 0 0.072663 0 
-0.084596 0.665719 -0.581604 0 0.072663 0 
-0.046998 0.627192 -0.702239 0 0 -0.00946199 
0.046995 0.627192 -0.702239 0 0 -0.00946199 
0.046995 0.526525 -0.702239 0 0 -0.00946199 
-0.046998 0.627192 -0.702239 0 0 -0.00946199 
0.046995 0.526525 -0.702239 0 0 -0.00946199 
-0.046998 0.526525 -0.702239 0 0 -0.00946199 
-0.029236 0.017331 -0.425515 0 -0.00497076 0 
0.029236 0.017331 -0.425515 0 -0.00497076 0 
0.029236 0.017331 -0.340504 0 -0.00497076 0 
-0.029236 0.017331 -0.425515 0 -0.00497076 0 
0.029236 0.017331 -0.340504 0 -0.00497076 0 
-0.029236 0.017331 -0.340504 0 -0.00497076 0 
0.116144 0.614979 -0.383496 0.00943772 0 0 
0.116144 0.538738 -0.383496 0.00943772 0 0 
0.116144 0.538738 -0.507284 0.00943772 0 0 
0.116144 0.614979 -0.383496 0.00943772 0 0 
0.116144 0.538738 -0.507284 0.00943772 0 0 
0.116144 0.614979 -0.507284 0.00943772 0 0 
-0.116144 0.614979 -0.507284 -0.00943772 0 0 
-0.116144 0.538738 -0.507284 -0.00943772 0 0 
-0.116144 0.538738 -0.383496 -0.00943772 0 0 
-0.116144 0.614979 -0.507284 -0.00943772 0 0 
-0.116144 0.538738 -0.383496 -0.00943772 0 0 
-0.116144 0.614979 -0.383496 -0.00943772 0 0 
-0.060087 0.641211 0.017264 -0.0197799 0 0 
-0.060087 0.512507 0.017264 -0.0197799 0 0 
-0.060087 0.512507 0.170949 -0.0197799 0 0 
-0.060087 0.641211 0.017264 -0.0197799 0 0 
-0.060087 0.512507 0.170949 -0.0197799 0 0 
-0.060087 0.641211 0.170949 -0.0197799 0 0 
-0.060087 0.641211 0.170949 -0 0.0184689 0 
0.060087 0.641211 0.170949 -0 0.0184689 0 
0.060087 0.641211 0.017264 -0 0.0184689 0 
-0.060087 0.641211 0.170949 0 0.0184689 0 
0.060087 0.641211 0.017264 0 0.0184689 0 
-0.060087 0.641211 0.017264 0 0.0184689 0 
0.060087 0.641211 0.170949 0.0197799 0 0 
0.060087 0.512507 0.170949 0.0197799 0 0 
0.060087 0.512507 0.017264 0.0197799 0 0 
0.060087 0.641211 0.170949 0.0197799 0 0 
0.060087 0.512507 0.017264 0.0197799 0 0 
0.060087 0.641211 0.017264 0.0197799 0 0 
-0.060087 0.512507 0.017264 0 -0.0184689 0 
0.060087 0.512507 0.017264 0 -0.0184689 0 
0.060087 0.512507 0.170949 0 -0.0184689 0 
-0.060087 0.512507 0.017264 0 -0.0184689 0 
0.060087 0.512507 0.170949 0 -0.0184689 0 
-0.060087 0.512507 0.170949 0 -0.0184689 0 
-0.060087 0.641211 -0.581604 0 0.0144972 -0.00168471 
0.060087 0.641211 -0.581604 0 0.0144972 -0.00168471 
0.046995 0.627192 -0.702239 0 0.0144972 -0.00168471 
-0.060087 0.641211 -0.581604 0 0.0113388 -0.00131768 
0.046995 0.627192 -0.702239 0 0.0113388 -0.00131768 
-0.046998 0.627192 -0.702239 0 0.0113388 -0.00131768 
-0.046998 0.526525 -0.702239 -0.0155262 0 -0.00168461 
-0.060087 0.512507 -0.581604 -0.0155262 0 -0.00168461 
-0.060087 0.641211 -0.581604 -0.0155262 0 -0.00168461 
-0.046998 0.526525 -0.702239 -0.012144 0 -0.00131763 
-0.060087 0.641211 -0.581604 -0.012144 0 -0.00131763 
-0.046998 0.627192 -0.702239 -0.012144 0 -0.00131763 
-0.046998 0.526525 -0.702239 0 -0.0113388 -0.00131759 
0.046995 0.526525 -0.702239 0 -0.0113388 -0.00131759 
0.060087 0.512507 -0.581604 0 -0.0113388 -0.00131759 
-0.046998 0.526525 -0.702239 0 -0.0144972 -0.0016846 
0.060087 0.512507 -0.581604 0 -0.0144972 -0.0016846 
-0.060087 0.512507 -0.581604 0 -0.0144972 -0.0016846 
0.060087 0.641211 -0.581604 0.0155262 0 -0.00168499 
0.060087 0.512507 -0.581604 0.0155262 0 -0.00168499 
0.046995 0.526525 -0.702239 0.0155262 0 -0.00168499 
0.060087 0.641211 -0.581604 0.012144 0 -0.00131793 
0.046995 0.526525 -0.702239 0.012144 0 -0.00131793 
0.046995 0.627192 -0.702239 0.012144 0 -0.00131793 
-0.060087 0.641211 -0.152131 0 0 0.00294522 
0.060087 0.641211 -0.152131 0 0 0.00294522 
0.084595 0.665719 -0.152131 0 0 0.00294522 
-0.060087 0.641211 -0.152131 0 -0 0.00414653 
0.084595 0.665719 -0.152131 0 -0 0.00414653 
-0.084596 0.665719 -0.152131 0 -0 0.00414653 
0.060087 0.641211 -0.581604 0 0 -0.00294522 
-0.060087 0.641211 -0.581604 0 0 -0.00294522 
-0.084596 0.665719 -0.581604 0 0 -0.00294522 
0.060087 0.641211 -0.581604 0 0 -0.00414653 
-0.084596 0.665719 -0.581604 0 0 -0.00414653 
0.084595 0.665719 -0.581604 0 0 -0.00414653 
-0.060087 0.512507 -0.581604 0 0 -0.00294535 
0.060087 0.512507 -0.581604 0 0 -0.00294535 
0.084595 0.487998 -0.581604 0 0 -0.00294535 
-0.060087 0.512507 -0.581604 0 -0 -0.0041467 
0.084595 0.487998 -0.581604 0 -0 -0.0041467 
-0.084596 0.487998 -0.581604 0 -0 -0.0041467 
0.060087 0.512507 -0.152131 0 0 0.00294535 
-0.060087 0.512507 -0.152131 0 0 0.00294535 
-0.084596 0.487998 -0.152131 0 0 0.00294535 
0.060087 0.512507 -0.152131 0 0 0.0041467 
-0.084596 0.487998 -0.152131 0 0 0.0041467 
0.084595 0.487998 -0.152131 0 0 0.0041467 
0.060087 0.641211 -0.152131 0 0 0.00315428 
0.060087 0.512507 -0.152131 0 0 0.00315428 
0.084595 0.487998 -0.152131 0 0 0.00315428 
0.060087 0.641211 -0.152131 -0 0 0.00435559 
0.084595 0.487998 -0.152131 -0 0 0.00435559 
0.084595 0.665719 -0.152131 -0 0 0.00435559 
0.060087 0.512507 -0.581604 0 0 -0.00315428 
0.060087 0.641211 -0.581604 0 0 -0.00315428 
0.084595 0.665719 -0.581604 0 0 -0.00315428 
0.060087 0.512507 -0.581604 0 0 -0.00435559 
0.084595 0.665719 -0.581604 0 0 -0.00435559 
0.084595 0.487998 -0.581604 0 0 -0.00435559 
-0.060087 0.641211 -0.581604 0 -0 -0.00315441 
-0.060087 0.512507 -0.581604 0 -0 -0.00315441 
-0.084596 0.487998 -0.581604 0 -0 -0.00315441 
-0.060087 0.641211 -0.581604 -0 0 -0.00435576 
-0.084596 0.487998 -0.581604 -0 0 -0.00435576 
-0.084596 0.665719 -0.581604 -0 0 -0.00435576 
-0.060087 0.512507 -0.152131 0 -0 0.00315441 
-0.060087 0.641211 -0.152131 0 -0 0.00315441 
-0.084596 0.665719 -0.152131 0 -0 0.00315441 
-0.060087 0.512507 -0.152131 0 0 0.00435576 
-0.084596 0.665719 -0.152131 0 0 0.00435576 
-0.084596 0.487998 -0.152131 0 0 0.00435576 
-0.060087 0.512507 0.225799 0 0 0.00393209 
0.060087 0.512507 0.225799 0 0 0.00393209 
0.029535 0.545227 0.225799 0 0 0.00393209 
-0.060087 0.512507 0.225799 0 0 0.00193283 
0.029535 0.545227 0.225799 0 0 0.00193283 
-0.029537 0.545227 0.225799 0 0 0.00193283 
0.060087 0.512507 0.225799 0 -0 0.00393216 
0.060087 0.641211 0.225799 0 -0 0.00393216 
0.029535 0.608491 0.225799 0 -0 0.00393216 
0.060087 0.512507 0.225799 0 0 0.00193284 
0.029535 0.608491 0.225799 0 0 0.00193284 
0.029535 0.545227 0.225799 0 0 0.00193284 
0.060087 0.641211 0.225799 0 0 0.00393209 
-0.060087 0.641211 0.225799 0 0 0.00393209 
-0.029537 0.608491 0.225799 0 0 0.00393209 
0.060087 0.641211 0.225799 0 0 0.00193283 
-0.029537 0.608491 0.225799 0 0 0.00193283 
0.029535 0.608491 0.225799 0 0 0.00193283 
-0.060087 0.641211 0.225799 0 0 0.00393191 
-0.060087 0.512507 0.225799 0 0 0.00393191 
-0.029537 0.545227 0.225799 0 0 0.00393191 
-0.060087 0.641211 0.225799 0 0 0.00193272 
-0.029537 0.545227 0.225799 0 0 0.00193272 
-0.029537 0.608491 0.225799 0 0 0.00193272 
-0.029537 0.545227 0.225799 0 -0.00709142 0 
0.029535 0.545227 0.225799 0 -0.00709142 0 
0.029535 0.545227 0.345846 0 -0.00709142 0 
-0.029537 0.545227 0.225799 0 -0.00709142 0 
0.029535 0.545227 0.345846 0 -0.00709142 0 
-0.029537 0.545227 0.345846 0 -0.00709142 0 
0.029535 0.545227 0.225799 0.00759466 0 0 
0.029535 0.608491 0.225799 0.00759466 0 0 
0.029535 0.608491 0.345846 0.00759466 0 0 
0.029535 0.545227 0.225799 0.00759466 0 0 
0.029535 0.608491 0.345846 0.00759466 0 0 
0.029535 0.545227 0.345846 0.00759466 0 0 
0.029535 0.608491 0.225799 0 0.00709142 0 
-0.029537 0.608491 0.225799 0 0.00709142 0 
-0.029537 0.608491 0.345846 0 0.00709142 0 
0.029535 0.608491 0.225799 0 0.00709142 -0 
-0.029537 0.608491 0.345846 0 0.00709142 -0 
0.029535 0.608491 0.345846 0 0.00709142 -0 
-0.029537 0.608491 0.225799 -0.00759466 0 0 
-0.029537 0.545227 0.225799 -0.00759466 0 0 
-0.029537 0.545227 0.345846 -0.00759466 0 0 
-0.029537 0.608491 0.225799 -0.00759466 0 0 
-0.029537 0.545227 0.345846 -0.00759466 0 0 
-0.029537 0.608491 0.345846 -0.00759466 0 0 
-0.029537 0.545227 0.345846 0 0 0.00115238 
0.029535 0.545227 0.345846 0 0 0.00115238 
0.01132 0.564735 0.345846 0 0 0.00115238 
-0.029537 0.545227 0.345846 0 0 0.0004417 
0.01132 0.564735 0.345846 0 0 0.0004417 
-0.011322 0.564735 0.345846 0 0 0.0004417 
0.029535 0.545227 0.345846 0 -0 0.00115235 
0.029535 0.608491 0.345846 0 -0 0.00115235 
0.01132 0.588983 0.345846 0 -0 0.00115235 
0.029535 0.545227 0.345846 0 0 0.000441677 
0.01132 0.588983 0.345846 0 0 0.000441677 
0.01132 0.564735 0.345846 0 0 0.000441677 
0.029535 0.608491 0.345846 0 0 0.00115238 
-0.029537 0.608491 0.345846 0 0 0.00115238 
-0.011322 0.588983 0.345846 0 0 0.00115238 
0.029535 0.608491 0.345846 0 0 0.0004417 
-0.011322 0.588983 0.345846 0 0 0.0004417 
0.01132 0.588983 0.345846 0 0 0.0004417 
-0.029537 0.608491 0.345846 0 0 0.00115235 
-0.029537 0.545227 0.345846 0 0 0.00115235 
-0.011322 0.564735 0.345846 0 0 0.00115235 
-0.029537 0.608491 0.345846 0 0 0.000441677 
-0.011322 0.564735 0.345846 0 0 0.000441677 
-0.011322 0.588983 0.345846 0 0 0.000441677 
-0.011322 0.564735 0.628185 0 -0.000603161 -0.00013549 
0.01132 0.564735 0.628185 0 -0.000603161 -0.00013549 
0.016909 0.558751 0.654824 0 -0.000603161 -0.00013549 
-0.011322 0.564735 0.628185 0 -0.000900879 -0.000202367 
0.016909 0.558751 0.654824 0 -0.000900879 -0.000202367 
-0.016909 0.558751 0.654824 0 -0.000900879 -0.000202367 
0.01132 0.564735 0.628185 0.000645944 0 -0.000135522 
0.01132 0.588983 0.628185 0.000645944 0 -0.000135522 
0.016909 0.594966 0.654824 0.000645944 0 -0.000135522 
0.01132 0.564735 0.628185 0.000964733 0 -0.000202406 
0.016909 0.594966 0.654824 0.000964733 0 -0.000202406 
0.016909 0.558751 0.654824 0.000964733 0 -0.000202406 
0.01132 0.588983 0.628185 0 0.000603161 -0.000135467 
-0.011322 0.588983 0.628185 0 0.000603161 -0.000135467 
-0.016909 0.594966 0.654824 0 0.000603161 -0.000135467 
0.01132 0.588983 0.628185 0 0.000900879 -0.000202333 
-0.016909 0.594966 0.654824 0 0.000900879 -0.000202333 
0.016909 0.594966 0.654824 0 0.000900879 -0.000202333 
-0.011322 0.588983 0.628185 -0.000645944 -0 -0.000135474 
-0.011322 0.564735 0.628185 -0.000645944 -0 -0.000135474 
-0.016909 0.558751 0.654824 -0.000645944 -0 -0.000135474 
-0.011322 0.588983 0.628185 -0.000964733 0 -0.000202333 
-0.016909 0.558751 0.654824 -0.000964733 0 -0.000202333 
-0.016909 0.594966 0.654824 -0.000964733 0 -0.000202333 
0.01132 0.588983 0.345846 0 0.00639272 0 
-0.011322 0.588983 0.345846 0 0.00639272 0 
-0.011322 0.588983 0.628185 0 0.00639272 0 
0.01132 0.588983 0.345846 0 0.00639272 -0 
-0.011322 0.588983 0.628185 0 0.00639272 -0 
0.01132 0.588983 0.628185 0 0.00639272 -0 
-0.011322 0.588983 0.345846 -0.00684616 0 0 
-0.011322 0.564735 0.345846 -0.00684616 0 0 
-0.011322 0.564735 0.628185 -0.00684616 0 0 
-0.011322 0.588983 0.345846 -0.00684616 0 0 
-0.011322 0.564735 0.628185 -0.00684616 0 0 
-0.011322 0.588983 0.628185 -0.00684616 0 0 
-0.011322 0.564735 0.345846 0 -0.00639272 0 
0.01132 0.564735 0.345846 0 -0.00639272 0 
0.01132 0.564735 0.628185 0 -0.00639272 0 
-0.011322 0.564735 0.345846 0 -0.00639272 0 
0.01132 0.564735 0.628185 0 -0.00639272 0 
-0.011322 0.564735 0.628185 0 -0.00639272 0 
0.01132 0.564735 0.345846 0.00684616 0 0 
0.01132 0.588983 0.345846 0.00684616 0 0 
0.01132 0.588983 0.628185 0.00684616 0 0 
0.01132 0.564735 0.345846 0.00684616 0 0 
0.01132 0.588983 0.628185 0.00684616 0 0 
0.01132 0.564735 0.628185 0.00684616 0 0 
-0.016909 0.594966 0.654824 -0.00171713 0 0 
-0.016909 0.558751 0.654824 -0.00171713 0 0 
-0.016909 0.558751 0.702239 -0.00171713 0 0 
-0.016909 0.594966 0.654824 -0.00171713 0 0 
-0.016909 0.558751 0.702239 -0.00171713 0 0 
-0.016909 0.594966 0.702239 -0.00171713 0 0 
0.016909 0.594966 0.654824 0 0.00160348 0 
-0.016909 0.594966 0.654824 0 0.00160348 0 
-0.016909 0.594966 0.702239 0 0.00160348 0 
0.016909 0.594966 0.654824 0 0.00160348 -0 
-0.016909 0.594966 0.702239 0 0.00160348 -0 
0.016909 0.594966 0.702239 0 0.00160348 -0 
0.016909 0.558751 0.654824 0.00171713 0 0 
0.016909 0.594966 0.654824 0.00171713 0 0 
0.016909 0.594966 0.702239 0.00171713 0 0 
0.016909 0.558751 0.654824 0.00171713 0 0 
0.016909 0.594966 0.702239 0.00171713 0 0 
0.016909 0.558751 0.702239 0.00171713 0 0 
-0.016909 0.558751 0.654824 0 -0.00160348 0 
0.016909 0.558751 0.654824 0 -0.00160348 0 
0.016909 0.558751 0.702239 0 -0.00160348 0 
-0.016909 0.558751 0.654824 0 -0.00160348 0 
0.016909 0.558751 0.702239 0 -0.00160348 0 
-0.016909 0.558751 0.702239 0 -0.00160348 0 
0.084595 0.665719 -0.152131 0.0411184 0 0 
0.084595 0.487998 -0.152131 0.0411184 0 0 
0.084595 0.538738 -0.383496 0.0411184 0 0 
0.084595 0.665719 -0.152131 0.0176395 0 0 
0.084595 0.538738 -0.383496 0.0176395 0 0 
0.084595 0.614979 -0.383496 0.0176395 0 0 
0.084595 0.487998 -0.152131 0.0217915 0 0 
0.084595 0.487998 -0.581604 0.0217915 0 0 
0.084595 0.538738 -0.507284 0.0217915 0 0 
0.084595 0.487998 -0.152131 0.006281 0 0 
0.084595 0.538738 -0.507284 0.006281 0 0 
0.084595 0.538738 -0.383496 0.006281 0 0 
0.084595 0.487998 -0.581604 0.0132082 0 0 
0.084595 0.665719 -0.581604 0.0132082 0 0 
0.084595 0.614979 -0.507284 0.0132082 0 0 
0.084595 0.487998 -0.581604 0.00566623 0 0 
0.084595 0.614979 -0.507284 0.00566623 0 0 
0.084595 0.538738 -0.507284 0.00566623 0 0 
0.084595 0.665719 -0.581604 0.0217914 0 -0 
0.084595 0.665719 -0.152131 0.0217914 0 -0 
0.084595 0.614979 -0.383496 0.0217914 0 -0 
0.084595 0.665719 -0.581604 0.006281 0 0 
0.084595 0.614979 -0.383496 0.006281 0 0 
0.084595 0.614979 -0.507284 0.006281 0 0 
-0.084596 0.665719 -0.581604 -0.0132082 0 0 
-0.084596 0.487998 -0.581604 -0.0132082 0 0 
-0.084596 0.538738 -0.507284 -0.0132082 0 0 
-0.084596 0.665719 -0.581604 -0.00566623 0 0 
-0.084596 0.538738 -0.507284 -0.00566623 0 0 
-0.084596 0.614979 -0.507284 -0.00566623 0 0 
-0.084596 0.487998 -0.581604 -0.0217915 0 0 
-0.084596 0.487998 -0.152131 -0.0217915 0 0 
-0.084596 0.538738 -0.383496 -0.0217915 0 0 
-0.084596 0.487998 -0.581604 -0.006281 0 0 
-0.084596 0.538738 -0.383496 -0.006281 0 0 
-0.084596 0.538738 -0.507284 -0.006281 0 0 
-0.084596 0.487998 -0.152131 -0.0411184 0 0 
-0.084596 0.665719 -0.152131 -0.0411184 0 0 
-0.084596 0.614979 -0.383496 -0.0411184 0 0 
-0.084596 0.487998 -0.152131 -0.0176395 0 0 
-0.084596 0.614979 -0.383496 -0.0176395 0 0 
-0.084596 0.538738 -0.383496 -0.0176395 0 0 
-0.084596 0.665719 -0.152131 -0.0217914 0 -0 
-0.084596 0.665719 -0.581604 -0.0217914 0 -0 
-0.084596 0.614979 -0.507284 -0.0217914 0 -0 
-0.084596 0.665719 -0.152131 -0.006281 0 0 
-0.084596 0.614979 -0.507284 -0.006281 0 0 
-0.084596 0.614979 -0.383496 -0.006281 0 0 
0.084595 0.614979 -0.383496 0 0 0.00240533 
0.084595 0.538738 -0.383496 0 0 0.00240533 
0.116144 0.538738 -0.383496 0 0 0.00240533 
0.084595 0.614979 -0.383496 -0 0 0.00240533 
0.116144 0.538738 -0.383496 -0 0 0.00240533 
0.116144 0.614979 -0.383496 -0 0 0.00240533 
0.084595 0.538738 -0.383496 0 -0.00390539 0 
0.084595 0.538738 -0.507284 0 -0.00390539 0 
0.116144 0.538738 -0.507284 0 -0.00390539 0 
0.084595 0.538738 -0.383496 0 -0.00390539 0 
0.116144 0.538738 -0.507284 0 -0.00390539 0 
0.116144 0.538738 -0.383496 0 -0.00390539 0 
0.084595 0.538738 -0.507284 0 0 -0.00240533 
0.084595 0.614979 -0.507284 0 0 -0.00240533 
0.116144 0.614979 -0.507284 0 0 -0.00240533 
0.084595 0.538738 -0.507284 0 0 -0.00240533 
0.116144 0.614979 -0.507284 0 0 -0.00240533 
0.116144 0.538738 -0.507284 0 0 -0.00240533 
0.084595 0.614979 -0.507284 0 0.00390539 0 
0.084595 0.614979 -0.383496 0 0.00390539 0 
0.116144 0.614979 -0.383496 0 0.00390539 0 
0.084595 0.614979 -0.507284 0 0.00390539 0 
0.116144 0.614979 -0.383496 0 0.00390539 0 
0.116144 0.614979 -0.507284 0 0.00390539 0 
-0.084596 0.614979 -0.507284 0 -0 -0.00240525 
-0.084596 0.538738 -0.507284 0 -0 -0.00240525 
-0.116144 0.538738 -0.507284 0 -0 -0.00240525 
-0.084596 0.614979 -0.507284 -0 0 -0.00240525 
-0.116144 0.538738 -0.507284 -0 0 -0.00240525 
-0.116144 0.614979 -0.507284 -0 0 -0.00240525 
-0.084596 0.538738 -0.507284 0 -0.00390526 0 
-0.084596 0.538738 -0.383496 0 -0.00390526 0 
-0.116144 0.538738 -0.383496 0 -0.00390526 0 
-0.084596 0.538738 -0.507284 0 -0.00390526 0 
-0.116144 0.538738 -0.383496 0 -0.00390526 0 
-0.116144 0.538738 -0.507284 0 -0.00390526 0 
-0.084596 0.538738 -0.383496 0 -0 0.00240525 
-0.084596 0.614979 -0.383496 0 -0 0.00240525 
-0.116144 0.614979 -0.383496 0 -0 0.00240525 
-0.084596 0.538738 -0.383496 0 0 0.00240525 
-0.116144 0.614979 -0.383496 0 0 0.00240525 
-0.116144 0.538738 -0.383496 0 0 0.00240525 
-0.084596 0.614979 -0.383496 0 0.00390526 0 
-0.084596 0.614979 -0.507284 0 0.00390526 0 
-0.116144 0.614979 -0.507284 0 0.00390526 0 
-0.084596 0.614979 -0.383496 0 0.00390526 0 
-0.116144 0.614979 -0.507284 0 0.00390526 0 
-0.116144 0.614979 -0.383496 0 0.00390526 0 
-0.084596 0.487998 -0.581604 0 -0.0168705 0 
0.084595 0.487998 -0.581604 0 -0.0168705 0 
0.057337 0.487998 -0.481891 0 -0.0168705 0 
-0.084596 0.487998 -0.581604 0 -0.0114347 0 
0.057337 0.487998 -0.481891 0 -0.0114347 0 
-0.057339 0.487998 -0.481891 0 -0.0114347 0 
0.084595 0.487998 -0.581604 0 -0.0117066 0 
0.084595 0.487998 -0.152131 0 -0.0117066 0 
0.057337 0.487998 -0.284128 0 -0.0117066 0 
0.084595 0.487998 -0.581604 0 -0.00539062 0 
0.057337 0.487998 -0.284128 0 -0.00539062 0 
0.057337 0.487998 -0.481891 0 -0.00539062 0 
0.084595 0.487998 -0.152131 -0 -0.0223327 0 
-0.084596 0.487998 -0.152131 -0 -0.0223327 0 
-0.057339 0.487998 -0.284128 -0 -0.0223327 0 
0.084595 0.487998 -0.152131 0 -0.0151369 0 
-0.057339 0.487998 -0.284128 0 -0.0151369 0 
0.057337 0.487998 -0.284128 0 -0.0151369 0 
-0.084596 0.487998 -0.152131 0 -0.0117061 0 
-0.084596 0.487998 -0.581604 0 -0.0117061 0 
-0.057339 0.487998 -0.481891 0 -0.0117061 0 
-0.084596 0.487998 -0.152131 0 -0.00539043 0 
-0.057339 0.487998 -0.481891 0 -0.00539043 0 
-0.057339 0.487998 -0.284128 0 -0.00539043 0 
-0.057339 0.487998 -0.481891 0 -1.16199e-07 -0.00602852 
0.057337 0.487998 -0.481891 0 -1.16199e-07 -0.00602852 
0.057339 0.435428 -0.48189 0 -1.16199e-07 -0.00602852 
-0.057339 0.487998 -0.481891 0 -1.16201e-07 -0.00602862 
0.057339 0.435428 -0.48189 0 -1.16201e-07 -0.00602862 
-0.057339 0.435428 -0.48189 0 -1.16201e-07 -0.00602862 
0.057337 0.487998 -0.481891 0.0103964 3.95621e-07 -0 
0.057337 0.487998 -0.284128 0.0103964 3.95621e-07 -0 
0.057339 0.435428 -0.284128 0.0103964 3.95621e-07 -0 
0.057337 0.487998 -0.481891 0.0103964 3.95619e-07 0 
0.057339 0.435428 -0.284128 0.0103964 3.95619e-07 0 
0.057339 0.435428 -0.48189 0.0103964 3.95619e-07 0 
0.057337 0.487998 -0.284128 0 0 0.00602852 
-0.057339 0.487998 -0.284128 0 0 0.00602852 
-0.057339 0.435428 -0.284128 0 0 0.00602852 
0.057337 0.487998 -0.284128 0 0 0.00602862 
-0.057339 0.435428 -0.284128 0 0 0.00602862 
0.057339 0.435428 -0.284128 0 0 0.00602862 
-0.057339 0.487998 -0.284128 -0.0103964 0 -0 
-0.057339 0.487998 -0.481891 -0.0103964 0 -0 
-0.057339 0.435428 -0.48189 -0.0103964 0 -0 
-0.057339 0.487998 -0.284128 -0.0103964 -0 0 
-0.057339 0.435428 -0.48189 -0.0103964 -0 0 
-0.057339 0.435428 -0.284128 -0.0103964 -0 0 
-0.057339 0.435428 -0.48189 0 -0.0072043 -0.0047479 
0.057339 0.435428 -0.48189 0 -0.0072043 -0.0047479 
0.02602 0.394026 -0.419068 0 -0.0072043 -0.0047479 
-0.057339 0.435428 -0.48189 0 -0.00326944 -0.00215468 
0.02602 0.394026 -0.419068 0 -0.00326944 -0.00215468 
-0.026023 0.394026 -0.419068 0 -0.00326944 -0.00215468 
0.057339 0.435428 -0.48189 0.00818774 -0.00619371 0 
0.057339 0.435428 -0.284128 0.00818774 -0.00619371 0 
0.02602 0.394026 -0.346951 0.00818774 -0.00619371 0 
0.057339 0.435428 -0.48189 0.00298579 -0.00225863 0 
0.02602 0.394026 -0.346951 0.00298579 -0.00225863 0 
0.02602 0.394026 -0.419068 0.00298579 -0.00225863 0 
0.057339 0.435428 -0.284128 0 -0.00720442 0.0047479 
-0.057339 0.435428 -0.284128 0 -0.00720442 0.0047479 
-0.026023 0.394026 -0.346951 0 -0.00720442 0.0047479 
0.057339 0.435428 -0.284128 0 -0.0032695 0.00215468 
-0.026023 0.394026 -0.346951 0 -0.0032695 0.00215468 
0.02602 0.394026 -0.346951 0 -0.0032695 0.00215468 
-0.057339 0.435428 -0.284128 -0.00818774 -0.00619311 -0 
-0.057339 0.435428 -0.48189 -0.00818774 -0.00619311 -0 
-0.026023 0.394026 -0.419068 -0.00818774 -0.00619311 -0 
-0.057339 0.435428 -0.284128 -0.00298579 -0.00225842 0 
-0.026023 0.394026 -0.419068 -0.00298579 -0.00225842 0 
-0.026023 0.394026 -0.346951 -0.00298579 -0.00225842 0 
-0.026023 0.394026 -0.419068 0 0 -0.0128974 
0.02602 0.394026 -0.419068 0 0 -0.0128974 
0.02602 0.146204 -0.419068 0 0 -0.0128974 
-0.026023 0.394026 -0.419068 0 0 -0.0128974 
0.02602 0.146204 -0.419068 0 0 -0.0128974 
-0.026023 0.146204 -0.419068 0 0 -0.0128974 
0.02602 0.394026 -0.419068 0.0178722 0 -0 
0.02602 0.394026 -0.346951 0.0178722 0 -0 
0.02602 0.146204 -0.346951 0.0178722 0 -0 
0.02602 0.394026 -0.419068 0.0178722 0 0 
0.02602 0.146204 -0.346951 0.0178722 0 0 
0.02602 0.146204 -0.419068 0.0178722 0 0 
0.02602 0.394026 -0.346951 0 0 0.0128974 
-0.026023 0.394026 -0.346951 0 0 0.0128974 
-0.026023 0.146204 -0.346951 0 0 0.0128974 
0.02602 0.394026 -0.346951 0 0 0.0128974 
-0.026023 0.146204 -0.346951 0 0 0.0128974 
0.02602 0.146204 -0.346951 0 0 0.0128974 
-0.026023 0.394026 -0.346951 -0.0178722 0 -0 
-0.026023 0.394026 -0.419068 -0.0178722 0 -0 
-0.026023 0.146204 -0.419068 -0.0178722 0 -0 
-0.026023 0.394026 -0.346951 -0.0178722 -0 0 
-0.026023 0.146204 -0.419068 -0.0178722 -0 0 
-0.026023 0.146204 -0.346951 -0.0178722 -0 0 
-0.026023 0.146204 -0.419068 0 0.00158497 -0.00179106 
0.02602 0.146204 -0.419068 0 0.00158497 -0.00179106 
0.041203 0.111789 -0.449523 0 0.00158497 -0.00179106 
-0.026023 0.146204 -0.419068 0 0.0025097 -0.00283604 
0.041203 0.111789 -0.449523 0 0.0025097 -0.00283604 
-0.041204 0.111789 -0.449523 0 0.0025097 -0.00283604 
0.02602 0.146204 -0.419068 0.00248191 0.00109495 -0 
0.02602 0.146204 -0.346951 0.00248191 0.00109495 -0 
0.041203 0.111789 -0.316495 0.00248191 0.00109495 -0 
0.02602 0.146204 -0.419068 0.00457816 0.00201976 0 
0.041203 0.111789 -0.316495 0.00457816 0.00201976 0 
0.041203 0.111789 -0.449523 0.00457816 0.00201976 0 
0.02602 0.146204 -0.346951 0 0.00158502 0.00179106 
-0.026023 0.146204 -0.346951 0 0.00158502 0.00179106 
-0.041204 0.111789 -0.316495 0 0.00158502 0.00179106 
0.02602 0.146204 -0.346951 0 0.00250979 0.00283604 
-0.041204 0.111789 -0.316495 0 0.00250979 0.00283604 
0.041203 0.111789 -0.316495 0 0.00250979 0.00283604 
-0.026023 0.146204 -0.346951 -0.00248191 0.00109481 0 
-0.026023 0.146204 -0.419068 -0.00248191 0.00109481 0 
-0.041204 0.111789 -0.449523 -0.00248191 0.00109481 0 
-0.026023 0.146204 -0.346951 -0.00457816 0.0020195 0 
-0.041204 0.111789 -0.449523 -0.00457816 0.0020195 0 
-0.041204 0.111789 -0.316495 -0.00457816 0.0020195 0 
-0.041204 0.111789 -0.449523 0 0 -0.00538769 
0.041203 0.111789 -0.449523 0 0 -0.00538769 
0.041203 0.04641 -0.449523 0 0 -0.00538769 
-0.041204 0.111789 -0.449523 0 0 -0.00538769 
0.041203 0.04641 -0.449523 0 0 -0.00538769 
-0.041204 0.04641 -0.449523 0 0 -0.00538769 
0.041203 0.111789 -0.449523 0.00869724 0 -0 
0.041203 0.111789 -0.316495 0.00869724 0 -0 
0.041203 0.04641 -0.316495 0.00869724 0 -0 
0.041203 0.111789 -0.449523 0.00869724 0 0 
0.041203 0.04641 -0.316495 0.00869724 0 0 
0.041203 0.04641 -0.449523 0.00869724 0 0 
0.041203 0.111789 -0.316495 0 0 0.00538769 
-0.041204 0.111789 -0.316495 0 0 0.00538769 
-0.041204 0.04641 -0.316495 0 0 0.00538769 
0.041203 0.111789 -0.316495 0 0 0.00538769 
-0.041204 0.04641 -0.316495 0 0 0.00538769 
0.041203 0.04641 -0.316495 0 0 0.00538769 
-0.041204 0.111789 -0.316495 -0.00869724 0 -0 
-0.041204 0.111789 -0.449523 -0.00869724 0 -0 
-0.041204 0.04641 -0.449523 -0.00869724 0 -0 
-0.041204 0.111789 -0.316495 -0.00869724 -0 0 
-0.041204 0.04641 -0.449523 -0.00869724 -0 0 
-0.041204 0.04641 -0.316495 -0.00869724 -0 0 
-0.041204 0.04641 -0.449523 0 -0.00197843 -0.00239631 
0.041203 0.04641 -0.449523 0 -0.00197843 -0.00239631 
0.029236 0.017331 -0.425515 0 -0.00197843 -0.00239631 
-0.041204 0.04641 -0.449523 0 -0.0014038 -0.00170031 
0.029236 0.017331 -0.425515 0 -0.0014038 -0.00170031 
-0.029236 0.017331 -0.425515 0 -0.0014038 -0.00170031 
0.041203 0.04641 -0.449523 0.00386832 -0.00159195 0 
0.041203 0.04641 -0.316495 0.00386832 -0.00159195 0 
0.029236 0.017331 -0.340504 0.00386832 -0.00159195 0 
0.041203 0.04641 -0.449523 0.00247204 -0.00101733 0 
0.029236 0.017331 -0.340504 0.00247204 -0.00101733 0 
0.029236 0.017331 -0.425515 0.00247204 -0.00101733 0 
0.041203 0.04641 -0.316495 0 -0.00197851 0.00239631 
-0.041204 0.04641 -0.316495 0 -0.00197851 0.00239631 
-0.029236 0.017331 -0.340504 0 -0.00197851 0.00239631 
0.041203 0.04641 -0.316495 0 -0.00140385 0.00170031 
-0.029236 0.017331 -0.340504 0 -0.00140385 0.00170031 
0.029236 0.017331 -0.340504 0 -0.00140385 0.00170031 
-0.041204 0.04641 -0.316495 -0.00386832 -0.00159208 -0 
-0.041204 0.04641 -0.449523 -0.00386832 -0.00159208 -0 
-0.029236 0.017331 -0.425515 -0.00386832 -0.00159208 -0 
-0.041204 0.04641 -0.316495 -0.00247204 -0.00101741 0 
-0.029236 0.017331 -0.425515 -0.00247204 -0.00101741 0 
-0.029236 0.017331 -0.340504 -0.00247204 -0.00101741 0 
-0.016909 0.558751 0.702239 0 0 0.000219682 
0.016909 0.558751 0.702239 0 0 0.000219682 
0.010841 0.565247 0.702239 0 0 0.000219682 
-0.016909 0.558751 0.702239 0 0 0.00014086 
0.010841 0.565247 0.702239 0 0 0.00014086 
-0.010843 0.565247 0.702239 0 0 0.00014086 
0.016909 0.558751 0.702239 0 -0 0.000219753 
0.016909 0.594966 0.702239 0 -0 0.000219753 
0.010841 0.58847 0.702239 0 -0 0.000219753 
0.016909 0.558751 0.702239 0 0 0.000140917 
0.010841 0.58847 0.702239 0 0 0.000140917 
0.010841 0.565247 0.702239 0 0 0.000140917 
0.016909 0.594966 0.702239 0 0 0.000219682 
-0.016909 0.594966 0.702239 0 0 0.000219682 
-0.010843 0.58847 0.702239 0 0 0.000219682 
0.016909 0.594966 0.702239 0 0 0.00014086 
-0.010843 0.58847 0.702239 0 0 0.00014086 
0.010841 0.58847 0.702239 0 0 0.00014086 
-0.016909 0.594966 0.702239 0 0 0.00021968 
-0.016909 0.558751 0.702239 0 0 0.00021968 
-0.010843 0.565247 0.702239 0 0 0.00021968 
-0.016909 0.594966 0.702239 0 0 0.000140871 
-0.010843 0.565247 0.702239 0 0 0.000140871 
-0.010843 0.58847 0.702239 0 0 0.000140871 
-0.060087 0.641211 0.170949 -0.00705941 0 0 
-0.060087 0.512507 0.170949 -0.00705941 0 0 
-0.060087 0.512507 0.225799 -0.00705941 0 0 
-0.060087 0.641211 0.170949 -0.00705941 0 0 
-0.060087 0.512507 0.225799 -0.00705941 0 0 
-0.060087 0.641211 0.225799 -0.00705941 0 0 
-0.060087 0.641211 0.225799 -0 0.00659154 0 
0.060087 0.641211 0.225799 -0 0.00659154 0 
0.060087 0.641211 0.170949 -0 0.00659154 0 
-0.060087 0.641211 0.225799 0 0.00659154 0 
0.060087 0.641211 0.170949 0 0.00659154 0 
-0.060087 0.641211 0.170949 0 0.00659154 0 
0.060087 0.512507 0.225799 0.00705941 0 0 
0.060087 0.512507 0.170949 0.00705941 0 0 
0.060087 0.641211 0.170949 0.00705941 0 0 
0.060087 0.512507 0.225799 0.00705941 -0 0 
0.060087 0.641211 0.170949 0.00705941 -0 0 
0.060087 0.641211 0.225799 0.00705941 -0 0 
-0.060087 0.512507 0.170949 0 -0.00659154 0 
0.060087 0.512507 0.170949 0 -0.00659154 0 
0.060087 0.512507 0.225799 0 -0.00659154 0 
-0.060087 0.512507 0.170949 0 -0.00659154 0 
0.060087 0.512507 0.225799 0 -0.00659154 0 
-0.060087 0.512507 0.225799 0 -0.00659154 0 
-0.060087 0.641211 0.017264 -0 0.0203569 0 
0.060087 0.641211 0.017264 -0 0.0203569 0 
0.060087 0.641211 -0.152131 -0 0.0203569 0 
-0.060087 0.641211 0.017264 0 0.0203569 0 
0.060087 0.641211 -0.152131 0 0.0203569 0 
-0.060087 0.641211 -0.152131 0 0.0203569 0 
-0.060087 0.641211 -0.152131 -0.0218018 0 0 
-0.060087 0.512507 -0.152131 -0.0218018 0 0 
-0.060087 0.512507 0.017264 -0.0218018 0 0 
-0.060087 0.641211 -0.152131 -0.0218018 0 0 
-0.060087 0.512507 0.017264 -0.0218018 0 0 
-0.060087 0.641211 0.017264 -0.0218018 0 0 
-0.060087 0.512507 -0.152131 0 -0.0203569 0 
0.060087 0.512507 -0.152131 0 -0.0203569 0 
0.060087 0.512507 0.017264 0 -0.0203569 0 
-0.060087 0.512507 -0.152131 0 -0.0203569 0 
0.060087 0.512507 0.017264 0 -0.0203569 0 
-0.060087 0.512507 0.017264 0 -0.0203569 0 
0.060087 0.641211 0.017264 0.0218018 0 0 
0.060087 0.512507 0.017264 0.0218018 0 0 
0.060087 0.512507 -0.152131 0.0218018 0 0 
0.060087 0.641211 0.017264 0.0218018 0 0 
0.060087 0.512507 -0.152131 0.0218018 0 0 
0.060087 0.641211 -0.152131 0.0218018 0 0 
3 0 1 2
3 3 4 5
3 6 7 8
3 9 10 11
3 12 13 14
3 15 16 17
3 18 19 20
3 21 22 23
3 24 25 26
3 27 28 29
3 30 31 32
3 33 34 35
3 36 37 38
3 39 40 41
3 42 43 44
3 45 46 47
3 48 49 50
3 51 52 53
3 54 55 56
3 57 58 59
3 60 61 62
3 63 64 65
3 66 67 68
3 69 70 71
3 72 73 74
3 75 76 77
3 78 79 80
3 81 82 83
3 84 85 86
3 87 88 89
3 90 91 92
3 93 94 95
3 96 97 98
3 99 100 101
3 102 103 104
3 105 106 107
3 108 109 110
3 111 112 113
3 114 115 116
3 117 118 119
3 120 121 122
3 123 124 125
3 126 127 128
3 129 130 131
3 132 133 134
3 135 136 137
3 138 139 140
3 141 142 143
3 144 145 146
3 147 148 149
3 150 151 152
3 153 154 155
3 156 157 158
3 159 160 161
3 162 163 164
3 165 166 167
3 168 169 170
3 171 172 173
3 174 175 176
3 177 178 179
3 180 181 182
3 183 184 185
3 186 187 188
3 189 190 191
3 192 193 194
3 195 196 197
3 198 199 200
3 201 202 203
3 204 205 206
3 207 208 209
3 210 211 212
3 213 214 215
3 216 217 218
3 219 220 221
3 222 223 224
3 225 226 227
3 228 229 230
3 231 232 233
3 234 235 236
3 237 238 239
3 240 241 242
3 243 244 245
3 246 247 248
3 249 250 251
3 252 253 254
3 255 256 257
3 258 259 260
3 261 262 263
3 264 265 266
3 267 268 269
3 270 271 272
3 273 274 275
3 276 277 278
3 279 280 281
3 282 283 284
3 285 286 287
3 288 289 290
3 291 292 293
3 294 295 296
3 297 298 299
3 300 301 302
3 303 304 305
3 306 307 308
3 309 310 311
3 312 313 314
3 315 316 317
3 318 319 320
3 321 322 323
3 324 325 326
3 327 328 329
3 330 331 332
3 333 334 335
3 336 337 338
3 339 340 341
3 342 343 344
3 345 346 347
3 348 349 350
3 351 352 353
3 354 355 356
3 357 358 359
3 360 361 362
3 363 364 365
3 366 367 368
3 369 370 371
3 372 373 374
3 375 376 377
3 378 379 380
3 381 382 383
3 384 385 386
3 387 388 389
3 390 391 392
3 393 394 395
3 396 397 398
3 399 400 401
3 402 403 404
3 405 406 407
3 408 409 410
3 411 412 413
3 414 415 416
3 417 418 419
3 420 421 422
3 423 424 425
3 426 427 428
3 429 430 431
3 432 433 434
3 435 436 437
3 438 439 440
3 441 442 443
3 444 445 446
3 447 448 449
3 450 451 452
3 453 454 455
3 456 457 458
3 459 460 461
3 462 463 464
3 465 466 467
3 468 469 470
3 471 472 473
3 474 475 476
3 477 478 479
3 480 481 482
3 483 484 485
3 486 487 488
3 489 490 491
3 492 493 494
3 495 496 497
3 498 499 500
3 501 502 503
3 504 505 506
3 507 508 509
3 510 511 512
3 513 514 515
3 516 517 518
3 519 520 521
3 522 523 524
3 525 526 527
3 528 529 530
3 531 532 533
3 534 535 536
3 537 538 539
3 540 541 542
3 543 544 545
3 546 547 548
3 549 550 551
3 552 553 554
3 555 556 557
3 558 559 560
3 561 562 563
3 564 565 566
3 567 568 569
3 570 571 572
3 573 574 575
3 576 577 578
3 579 580 581
3 582 583 584
3 585 586 587
3 588 589 590
3 591 592 593
3 594 595 596
3 597 598 599
3 600 601 602
3 603 604 605
3 606 607 608
3 609 610 611
