ply
format ascii 1.0
comment Feeney's Flatenator generated
comment TextureFile SpaceInteriors_Texture.png
element vertex 216
property float x
property float y
property float z
property float nx
property float ny
property float nz
property uchar red
property uchar green
property uchar blue
property uchar alpha
element face 72
property list uchar int vertex_indices
end_header
0.018349 0.677193 0.012829 0 0 0.0139076 185 61 58 255 
0.018349 0.638206 0.012829 0 0 0.0139076 185 61 58 255 
0.375074 0.638206 0.012829 0 0 0.0139076 185 61 58 255 
0.018349 0.677193 0.012829 -0 0 0.0139076 185 61 58 255 
0.375074 0.638206 0.012829 -0 0 0.0139076 185 61 58 255 
0.375074 0.677193 0.012829 -0 0 0.0139076 185 61 58 255 
0.177112 0.867877 -0.010225 0 0.00366012 0 19 65 98 255 
0.018349 0.867877 -0.010225 0 0.00366012 0 19 65 98 255 
0.018349 0.867877 0.012829 0 0.00366012 0 19 65 98 255 
0.177112 0.867877 -0.010225 0 0.00366012 -0 19 65 98 255 
0.018349 0.867877 0.012829 0 0.00366012 -0 19 65 98 255 
0.177112 0.867877 0.012829 0 0.00366012 -0 19 65 98 255 
0.375074 0.638206 -0.010225 0 0 -0.0139076 185 61 58 255 
0.018349 0.638206 -0.010225 0 0 -0.0139076 185 61 58 255 
0.018349 0.677193 -0.010225 0 0 -0.0139076 185 61 58 255 
0.375074 0.638206 -0.010225 0 0 -0.0139076 185 61 58 255 
0.018349 0.677193 -0.010225 0 0 -0.0139076 185 61 58 255 
0.375074 0.677193 -0.010225 0 0 -0.0139076 185 61 58 255 
0.018349 0.638206 0.012829 0 -0.00822394 0 156 49 49 255 
0.018349 0.638206 -0.010225 0 -0.00822394 0 156 49 49 255 
0.375074 0.638206 -0.010225 0 -0.00822394 0 156 49 49 255 
0.018349 0.638206 0.012829 0 -0.00822394 0 156 49 49 255 
0.375074 0.638206 -0.010225 0 -0.00822394 0 156 49 49 255 
0.375074 0.638206 0.012829 0 -0.00822394 0 156 49 49 255 
0.375074 0.638206 0.012829 0.000898806 0 0 156 49 49 255 
0.375074 0.638206 -0.010225 0.000898806 0 0 156 49 49 255 
0.375074 0.677193 -0.010225 0.000898806 0 0 156 49 49 255 
0.375074 0.638206 0.012829 0.000898806 -0 0 156 49 49 255 
0.375074 0.677193 -0.010225 0.000898806 -0 0 156 49 49 255 
0.375074 0.677193 0.012829 0.000898806 -0 0 156 49 49 255 
0.018349 0.867877 0.012829 0 0 0.014821 23 80 118 255 
0.018349 0.774524 0.012829 0 0 0.014821 23 80 118 255 
0.177112 0.774524 0.012829 0 0 0.014821 23 80 118 255 
0.018349 0.867877 0.012829 0 0 0.00741059 23 80 118 255 
0.177112 0.774524 0.012829 0 0 0.00741059 23 80 118 255 
0.177112 0.821201 0.012829 0 0 0.00741059 23 80 118 255 
0.177112 0.821201 -0.010225 0 0 -0.00741042 23 80 118 255 
0.018349 0.867877 -0.010225 0 0 -0.00741042 23 80 118 255 
0.177112 0.867877 -0.010225 0 0 -0.00741042 23 80 118 255 
0.375074 0.774524 -0.010225 0 0 -0.00924028 219 219 219 255 
0.177112 0.774524 -0.010225 0 0 -0.00924028 219 219 219 255 
0.177112 0.821201 -0.010225 0 0 -0.00924028 219 219 219 255 
0.375074 0.774524 -0.010225 0 0 -0.00924028 219 219 219 255 
0.177112 0.821201 -0.010225 0 0 -0.00924028 219 219 219 255 
0.375074 0.821201 -0.010225 0 0 -0.00924028 219 219 219 255 
0.375074 0.774524 0.012829 0.00107609 0 0 185 185 185 255 
0.375074 0.774524 -0.010225 0.00107609 0 0 185 185 185 255 
0.375074 0.821201 -0.010225 0.00107609 0 0 185 185 185 255 
0.375074 0.774524 0.012829 0.00107609 -0 0 185 185 185 255 
0.375074 0.821201 -0.010225 0.00107609 -0 0 185 185 185 255 
0.375074 0.821201 0.012829 0.00107609 -0 0 185 185 185 255 
0.375074 0.821201 0.012829 0 0 0.00924028 219 219 219 255 
0.177112 0.821201 0.012829 0 0 0.00924028 219 219 219 255 
0.177112 0.774524 0.012829 0 0 0.00924028 219 219 219 255 
0.375074 0.821201 0.012829 0 0 0.00924028 219 219 219 255 
0.177112 0.774524 0.012829 0 0 0.00924028 219 219 219 255 
0.375074 0.774524 0.012829 0 0 0.00924028 219 219 219 255 
0.375074 0.821201 -0.010225 0 0 -0.00924007 185 61 58 255 
0.177112 0.821201 -0.010225 0 0 -0.00924007 185 61 58 255 
0.177112 0.867877 -0.010225 0 0 -0.00924007 185 61 58 255 
0.375074 0.821201 -0.010225 0 0 -0.00924007 185 61 58 255 
0.177112 0.867877 -0.010225 0 0 -0.00924007 185 61 58 255 
0.375074 0.867877 -0.010225 0 0 -0.00924007 185 61 58 255 
0.375074 0.821201 0.012829 0.00107607 0 0 156 49 49 255 
0.375074 0.821201 -0.010225 0.00107607 0 0 156 49 49 255 
0.375074 0.867877 -0.010225 0.00107607 0 0 156 49 49 255 
0.375074 0.821201 0.012829 0.00107607 -0 0 156 49 49 255 
0.375074 0.867877 -0.010225 0.00107607 -0 0 156 49 49 255 
0.375074 0.867877 0.012829 0.00107607 -0 0 156 49 49 255 
0.177112 0.867877 0.012829 0 0 0.00924007 185 61 58 255 
0.177112 0.821201 0.012829 0 0 0.00924007 185 61 58 255 
0.375074 0.821201 0.012829 0 0 0.00924007 185 61 58 255 
0.177112 0.867877 0.012829 -0 0 0.00924007 185 61 58 255 
0.375074 0.821201 0.012829 -0 0 0.00924007 185 61 58 255 
0.375074 0.867877 0.012829 -0 0 0.00924007 185 61 58 255 
0.018349 0.725222 0.012829 0 0 0.0171331 219 219 219 255 
0.018349 0.677193 0.012829 0 0 0.0171331 219 219 219 255 
0.375074 0.677193 0.012829 0 0 0.0171331 219 219 219 255 
0.018349 0.725222 0.012829 -0 0 0.0171331 219 219 219 255 
0.375074 0.677193 0.012829 -0 0 0.0171331 219 219 219 255 
0.375074 0.725222 0.012829 -0 0 0.0171331 219 219 219 255 
0.375074 0.677193 -0.010225 0 0 -0.0171331 219 219 219 255 
0.018349 0.677193 -0.010225 0 0 -0.0171331 219 219 219 255 
0.018349 0.725222 -0.010225 0 0 -0.0171331 219 219 219 255 
0.375074 0.677193 -0.010225 0 0 -0.0171331 219 219 219 255 
0.018349 0.725222 -0.010225 0 0 -0.0171331 219 219 219 255 
0.375074 0.725222 -0.010225 0 0 -0.0171331 219 219 219 255 
0.375074 0.677193 0.012829 0.00110726 0 0 185 185 185 255 
0.375074 0.677193 -0.010225 0.00110726 0 0 185 185 185 255 
0.375074 0.725222 -0.010225 0.00110726 0 0 185 185 185 255 
0.375074 0.677193 0.012829 0.00110726 -0 0 185 185 185 255 
0.375074 0.725222 -0.010225 0.00110726 -0 0 185 185 185 255 
0.375074 0.725222 0.012829 0.00110726 -0 0 185 185 185 255 
0.177112 0.774524 0.012829 -0 0 0.00975992 185 61 58 255 
0.375074 0.725222 0.012829 -0 0 0.00975992 185 61 58 255 
0.375074 0.774524 0.012829 -0 0 0.00975992 185 61 58 255 
0.375074 0.725222 -0.010225 0 0 -0.00975992 185 61 58 255 
0.177112 0.774524 -0.010225 0 0 -0.00975992 185 61 58 255 
0.375074 0.774524 -0.010225 0 0 -0.00975992 185 61 58 255 
0.375074 0.725222 0.012829 0.00113661 0 0 156 49 49 255 
0.375074 0.725222 -0.010225 0.00113661 0 0 156 49 49 255 
0.375074 0.774524 -0.010225 0.00113661 0 0 156 49 49 255 
0.375074 0.725222 0.012829 0.00113661 -0 0 156 49 49 255 
0.375074 0.774524 -0.010225 0.00113661 -0 0 156 49 49 255 
0.375074 0.774524 0.012829 0.00113661 -0 0 156 49 49 255 
-0.089142 0 0.088983 0 0 0.0145468 121 131 134 255 
0.088824 0 0.088983 0 0 0.0145468 121 131 134 255 
0.088824 0.081739 0.088983 0 0 0.0145468 121 131 134 255 
-0.089142 0 0.088983 0 0 0.0145468 121 131 134 255 
0.088824 0.081739 0.088983 0 0 0.0145468 121 131 134 255 
-0.089142 0.081739 0.088983 0 0 0.0145468 121 131 134 255 
-0.018669 0.900118 0.018509 0 0.00137037 0 135 147 148 255 
0.018349 0.900118 0.018508 0 0.00137037 0 135 147 148 255 
0.018349 0.900118 -0.018511 0 0.00137037 0 135 147 148 255 
-0.018669 0.900118 0.018509 0 0.00137041 0 135 147 148 255 
0.018349 0.900118 -0.018511 0 0.00137041 0 135 147 148 255 
-0.018669 0.900118 -0.018511 0 0.00137041 0 135 147 148 255 
-0.089142 0.081739 -0.088985 0 0 -0.0145468 121 131 134 255 
0.088824 0.081739 -0.088985 0 0 -0.0145468 121 131 134 255 
0.088824 0 -0.088985 0 0 -0.0145468 121 131 134 255 
-0.089142 0.081739 -0.088985 0 0 -0.0145468 121 131 134 255 
0.088824 0 -0.088985 0 0 -0.0145468 121 131 134 255 
-0.089142 0 -0.088985 0 0 -0.0145468 121 131 134 255 
-0.089142 0 -0.088985 0 -0.0316723 0 85 94 97 255 
0.088824 0 -0.088985 0 -0.0316723 0 85 94 97 255 
0.088824 0 0.088983 0 -0.0316723 0 85 94 97 255 
-0.089142 0 -0.088985 0 -0.0316723 0 85 94 97 255 
0.088824 0 0.088983 0 -0.0316723 0 85 94 97 255 
-0.089142 0 0.088983 0 -0.0316723 0 85 94 97 255 
0.088824 0 0.088983 0.0145469 0 0 95 104 105 255 
0.088824 0 -0.088985 0.0145469 0 0 95 104 105 255 
0.088824 0.081739 -0.088985 0.0145469 0 0 95 104 105 255 
0.088824 0 0.088983 0.0145469 -0 0 95 104 105 255 
0.088824 0.081739 -0.088985 0.0145469 -0 0 95 104 105 255 
0.088824 0.081739 0.088983 0.0145469 -0 0 95 104 105 255 
-0.089142 0 -0.088985 -0.0145469 0 0 95 104 105 255 
-0.089142 0 0.088983 -0.0145469 0 0 95 104 105 255 
-0.089142 0.081739 0.088983 -0.0145469 0 0 95 104 105 255 
-0.089142 0 -0.088985 -0.0145469 0 0 95 104 105 255 
-0.089142 0.081739 0.088983 -0.0145469 0 0 95 104 105 255 
-0.089142 0.081739 -0.088985 -0.0145469 0 0 95 104 105 255 
-0.089142 0.081739 0.088983 -0 0.0125422 0 135 147 148 255 
0.088824 0.081739 0.088983 -0 0.0125422 0 135 147 148 255 
0.018349 0.081739 0.018508 -0 0.0125422 0 135 147 148 255 
-0.089142 0.081739 0.088983 0 0.00260874 0 135 147 148 255 
0.018349 0.081739 0.018508 0 0.00260874 0 135 147 148 255 
-0.018669 0.081739 0.018509 0 0.00260874 0 135 147 148 255 
0.088824 0.081739 0.088983 0 0.0125423 0 135 147 148 255 
0.088824 0.081739 -0.088985 0 0.0125423 0 135 147 148 255 
0.018349 0.081739 -0.018511 0 0.0125423 0 135 147 148 255 
0.088824 0.081739 0.088983 0 0.00260891 0 135 147 148 255 
0.018349 0.081739 -0.018511 0 0.00260891 0 135 147 148 255 
0.018349 0.081739 0.018508 0 0.00260891 0 135 147 148 255 
0.088824 0.081739 -0.088985 0 0.012542 0 135 147 148 255 
-0.089142 0.081739 -0.088985 0 0.012542 0 135 147 148 255 
-0.018669 0.081739 -0.018511 0 0.012542 0 135 147 148 255 
0.088824 0.081739 -0.088985 0 0.00260881 0 135 147 148 255 
-0.018669 0.081739 -0.018511 0 0.00260881 0 135 147 148 255 
0.018349 0.081739 -0.018511 0 0.00260881 0 135 147 148 255 
-0.089142 0.081739 -0.088985 0 0.0125419 0 135 147 148 255 
-0.089142 0.081739 0.088983 0 0.0125419 0 135 147 148 255 
-0.018669 0.081739 0.018509 0 0.0125419 0 135 147 148 255 
-0.089142 0.081739 -0.088985 0 0.00260891 0 135 147 148 255 
-0.018669 0.081739 0.018509 0 0.00260891 0 135 147 148 255 
-0.018669 0.081739 -0.018511 0 0.00260891 0 135 147 148 255 
-0.018669 0.081739 0.018509 8.18576e-07 0 0.0302948 121 131 134 255 
0.018349 0.081739 0.018508 8.18576e-07 0 0.0302948 121 131 134 255 
0.018349 0.900118 0.018508 8.18576e-07 0 0.0302948 121 131 134 255 
-0.018669 0.081739 0.018509 8.18576e-07 -0 0.0302948 121 131 134 255 
0.018349 0.900118 0.018508 8.18576e-07 -0 0.0302948 121 131 134 255 
-0.018669 0.900118 0.018509 8.18576e-07 -0 0.0302948 121 131 134 255 
0.018349 0.081739 0.018508 0.0302956 0 0 95 104 105 255 
0.018349 0.081739 -0.018511 0.0302956 0 0 95 104 105 255 
0.018349 0.900118 -0.018511 0.0302956 0 0 95 104 105 255 
0.018349 0.081739 0.018508 0.0302956 -0 0 95 104 105 255 
0.018349 0.900118 -0.018511 0.0302956 -0 0 95 104 105 255 
0.018349 0.900118 0.018508 0.0302956 -0 0 95 104 105 255 
0.018349 0.081739 -0.018511 0 0 -0.0302948 121 131 134 255 
-0.018669 0.081739 -0.018511 0 0 -0.0302948 121 131 134 255 
-0.018669 0.900118 -0.018511 0 0 -0.0302948 121 131 134 255 
0.018349 0.081739 -0.018511 0 0 -0.0302948 121 131 134 255 
-0.018669 0.900118 -0.018511 0 0 -0.0302948 121 131 134 255 
0.018349 0.900118 -0.018511 0 0 -0.0302948 121 131 134 255 
-0.018669 0.081739 -0.018511 -0.0302964 0 0 95 104 105 255 
-0.018669 0.081739 0.018509 -0.0302964 0 0 95 104 105 255 
-0.018669 0.900118 0.018509 -0.0302964 0 0 95 104 105 255 
-0.018669 0.081739 -0.018511 -0.0302964 0 0 95 104 105 255 
-0.018669 0.900118 0.018509 -0.0302964 0 0 95 104 105 255 
-0.018669 0.900118 -0.018511 -0.0302964 0 0 95 104 105 255 
0.177112 0.774524 0.012829 0 0 0.00782733 185 61 58 255 
0.018349 0.774524 0.012829 0 0 0.00782733 185 61 58 255 
0.018349 0.725222 0.012829 0 0 0.00782733 185 61 58 255 
0.177112 0.774524 0.012829 0 0 0.0175872 185 61 58 255 
0.018349 0.725222 0.012829 0 0 0.0175872 185 61 58 255 
0.375074 0.725222 0.012829 0 0 0.0175872 185 61 58 255 
0.018349 0.867877 0.012829 -0 0 0.00741042 23 80 118 255 
0.177112 0.821201 0.012829 -0 0 0.00741042 23 80 118 255 
0.177112 0.867877 0.012829 -0 0 0.00741042 23 80 118 255 
0.018349 0.725222 -0.010225 0 0 -0.00782733 185 61 58 255 
0.018349 0.774524 -0.010225 0 0 -0.00782733 185 61 58 255 
0.177112 0.774524 -0.010225 0 0 -0.00782733 185 61 58 255 
0.018349 0.725222 -0.010225 0 0 -0.0175873 185 61 58 255 
0.177112 0.774524 -0.010225 0 0 -0.0175873 185 61 58 255 
0.375074 0.725222 -0.010225 0 0 -0.0175873 185 61 58 255 
0.177112 0.821201 -0.010225 0 -0 -0.00741059 23 80 118 255 
0.177112 0.774524 -0.010225 0 -0 -0.00741059 23 80 118 255 
0.018349 0.774524 -0.010225 0 -0 -0.00741059 23 80 118 255 
0.177112 0.821201 -0.010225 -0 0 -0.014821 23 80 118 255 
0.018349 0.774524 -0.010225 -0 0 -0.014821 23 80 118 255 
0.018349 0.867877 -0.010225 -0 0 -0.014821 23 80 118 255 
0.177112 0.867877 -0.010225 0 0.00456382 0 156 49 49 255 
0.177112 0.867877 0.012829 0 0.00456382 0 156 49 49 255 
0.375074 0.867877 0.012829 0 0.00456382 0 156 49 49 255 
0.177112 0.867877 -0.010225 0 0.00456382 0 156 49 49 255 
0.375074 0.867877 0.012829 0 0.00456382 0 156 49 49 255 
0.375074 0.867877 -0.010225 0 0.00456382 0 156 49 49 255 
3 0 1 2
3 3 4 5
3 6 7 8
3 9 10 11
3 12 13 14
3 15 16 17
3 18 19 20
3 21 22 23
3 24 25 26
3 27 28 29
3 30 31 32
3 33 34 35
3 36 37 38
3 39 40 41
3 42 43 44
3 45 46 47
3 48 49 50
3 51 52 53
3 54 55 56
3 57 58 59
3 60 61 62
3 63 64 65
3 66 67 68
3 69 70 71
3 72 73 74
3 75 76 77
3 78 79 80
3 81 82 83
3 84 85 86
3 87 88 89
3 90 91 92
3 93 94 95
3 96 97 98
3 99 100 101
3 102 103 104
3 105 106 107
3 108 109 110
3 111 112 113
3 114 115 116
3 117 118 119
3 120 121 122
3 123 124 125
3 126 127 128
3 129 130 131
3 132 133 134
3 135 136 137
3 138 139 140
3 141 142 143
3 144 145 146
3 147 148 149
3 150 151 152
3 153 154 155
3 156 157 158
3 159 160 161
3 162 163 164
3 165 166 167
3 168 169 170
3 171 172 173
3 174 175 176
3 177 178 179
3 180 181 182
3 183 184 185
3 186 187 188
3 189 190 191
3 192 193 194
3 195 196 197
3 198 199 200
3 201 202 203
3 204 205 206
3 207 208 209
3 210 211 212
3 213 214 215
