ply
format ascii 1.0
comment Feeney's Flatenator generated
comment TextureFile SpaceInteriors_Texture.png
element vertex 210
property float x
property float y
property float z
property float nx
property float ny
property float nz
property float texture_u
property float texture_v
element face 70
property list uchar int vertex_indices
end_header
-0.218826 0 0.260568 0 0 0.0882552 0.168265 0.483111 
0.218826 0 0.260568 0 0 0.0882552 0.168265 0.483111 
0.218826 0.201656 0.260568 0 0 0.0882552 0.168265 0.483111 
-0.218826 0 0.260568 0 0 0.0882552 0.168265 0.483111 
0.218826 0.201656 0.260568 0 0 0.0882552 0.168265 0.483111 
-0.218826 0.201656 0.260568 0 0 0.0882552 0.168265 0.483111 
-0.218826 0.201656 0.260568 -0 0.400773 0 0.231953 0.483111 
0.218826 0.201656 0.260568 -0 0.400773 0 0.231953 0.483111 
0.218826 0.201656 -0.655167 -0 0.400773 0 0.231953 0.483111 
-0.218826 0.201656 0.260568 0 0.400773 0 0.231953 0.483111 
0.218826 0.201656 -0.655167 0 0.400773 0 0.231953 0.483111 
-0.218826 0.201656 -0.655167 0 0.400773 0 0.231953 0.483111 
-0.218826 0.201656 -0.655167 0 0 -0.0882552 0.266859 0.482499 
0.218826 0.201656 -0.655167 0 0 -0.0882552 0.266859 0.482499 
0.218826 0 -0.655167 0 0 -0.0882552 0.266859 0.482499 
-0.218826 0.201656 -0.655167 0 0 -0.0882552 0.266859 0.482499 
0.218826 0 -0.655167 0 0 -0.0882552 0.266859 0.482499 
-0.218826 0 -0.655167 0 0 -0.0882552 0.266859 0.482499 
-0.218826 0 -0.655167 0 -0.400773 0 0.170714 0.479437 
0.218826 0 -0.655167 0 -0.400773 0 0.170714 0.479437 
0.218826 0 0.260568 0 -0.400773 0 0.170714 0.479437 
-0.218826 0 -0.655167 0 -0.400773 0 0.170714 0.479437 
0.218826 0 0.260568 0 -0.400773 0 0.170714 0.479437 
-0.218826 0 0.260568 0 -0.400773 0 0.170714 0.479437 
0.218826 0 0.260568 0.184663 0 0 0.196434 0.484336 
0.218826 0 -0.655167 0.184663 0 0 0.196434 0.484336 
0.218826 0.201656 -0.655167 0.184663 0 0 0.196434 0.484336 
0.218826 0 0.260568 0.184663 -0 0 0.196434 0.484336 
0.218826 0.201656 -0.655167 0.184663 -0 0 0.196434 0.484336 
0.218826 0.201656 0.260568 0.184663 -0 0 0.196434 0.484336 
-0.218826 0 -0.655167 -0.184663 0 0 0.196434 0.484336 
-0.218826 0 0.260568 -0.184663 0 0 0.196434 0.484336 
-0.218826 0.201656 0.260568 -0.184663 0 0 0.196434 0.484336 
-0.218826 0 -0.655167 -0.184663 0 0 0.196434 0.484336 
-0.218826 0.201656 0.260568 -0.184663 0 0 0.196434 0.484336 
-0.218826 0.201656 -0.655167 -0.184663 0 0 0.196434 0.484336 
-0.077667 0.392881 0.166199 -0 0.108813 0 0.231953 0.483111 
0.077606 0.392881 0.166199 -0 0.108813 0 0.231953 0.483111 
0.077606 0.392881 -0.534586 -0 0.108813 0 0.231953 0.483111 
-0.077667 0.392881 0.166199 0 0.108813 0 0.231953 0.483111 
0.077606 0.392881 -0.534586 0 0.108813 0 0.231953 0.483111 
-0.077667 0.392881 -0.534586 0 0.108813 0 0.231953 0.483111 
-0.077667 0.308729 -0.363945 0 -0.0558213 0 0.231953 0.483111 
0.077606 0.308729 -0.363945 0 -0.0558213 0 0.231953 0.483111 
0.077606 0.308729 -0.004441 0 -0.0558213 0 0.231953 0.483111 
-0.077667 0.308729 -0.363945 0 -0.0558213 0 0.231953 0.483111 
0.077606 0.308729 -0.004441 0 -0.0558213 0 0.231953 0.483111 
-0.077667 0.308729 -0.004441 0 -0.0558213 0 0.231953 0.483111 
0.077606 0.308729 -0.004441 0.030253 0 0 0.196434 0.484336 
0.077606 0.308729 -0.363945 0.030253 0 0 0.196434 0.484336 
0.077606 0.392881 -0.534586 0.030253 0 0 0.196434 0.484336 
0.077606 0.308729 -0.004441 0.0589725 -0 0 0.196434 0.484336 
0.077606 0.392881 -0.534586 0.0589725 -0 0 0.196434 0.484336 
0.077606 0.392881 0.166199 0.0589725 -0 0 0.196434 0.484336 
-0.077667 0.308729 -0.363945 -0.030253 0 0 0.196434 0.484336 
-0.077667 0.308729 -0.004441 -0.030253 0 0 0.196434 0.484336 
-0.077667 0.392881 0.166199 -0.030253 0 0 0.196434 0.484336 
-0.077667 0.308729 -0.363945 -0.0589725 0 0 0.196434 0.484336 
-0.077667 0.392881 0.166199 -0.0589725 0 0 0.196434 0.484336 
-0.077667 0.392881 -0.534586 -0.0589725 0 0 0.196434 0.484336 
-0.077667 0.19751 -0.004441 0 -0.0264958 0 0.231953 0.483111 
0.077606 0.19751 -0.004441 0 -0.0264958 0 0.231953 0.483111 
0.077606 0.19751 0.166199 0 -0.0264958 0 0.231953 0.483111 
-0.077667 0.19751 -0.004441 0 -0.0264958 0 0.231953 0.483111 
0.077606 0.19751 0.166199 0 -0.0264958 0 0.231953 0.483111 
-0.077667 0.19751 0.166199 0 -0.0264958 0 0.231953 0.483111 
-0.077667 0.392881 0.166199 -0.0189784 0 0 0.196434 0.484336 
-0.077667 0.308729 -0.004441 -0.0189784 0 0 0.196434 0.484336 
-0.077667 0.19751 -0.004441 -0.0189784 0 0 0.196434 0.484336 
-0.077667 0.392881 0.166199 -0.0333381 -0 0 0.196434 0.484336 
-0.077667 0.19751 -0.004441 -0.0333381 -0 0 0.196434 0.484336 
-0.077667 0.19751 0.166199 -0.0333381 -0 0 0.196434 0.484336 
0.077606 0.392881 -0.534586 0.0189785 0 0 0.196434 0.484336 
0.077606 0.308729 -0.363945 0.0189785 0 0 0.196434 0.484336 
0.077606 0.19751 -0.363945 0.0189785 0 0 0.196434 0.484336 
0.077606 0.392881 -0.534586 0.0333383 0 0 0.196434 0.484336 
0.077606 0.19751 -0.363945 0.0333383 0 0 0.196434 0.484336 
0.077606 0.19751 -0.534586 0.0333383 0 0 0.196434 0.484336 
0.077606 0.19751 -0.363945 -0 -0.0264959 0 0.231953 0.483111 
-0.077667 0.19751 -0.363945 -0 -0.0264959 0 0.231953 0.483111 
-0.077667 0.19751 -0.534586 -0 -0.0264959 0 0.231953 0.483111 
0.077606 0.19751 -0.363945 0 -0.0264959 -0 0.231953 0.483111 
-0.077667 0.19751 -0.534586 0 -0.0264959 -0 0.231953 0.483111 
0.077606 0.19751 -0.534586 0 -0.0264959 -0 0.231953 0.483111 
-0.077667 0.308729 -0.004441 0 0 -0.0172693 0.266859 0.482499 
0.077606 0.308729 -0.004441 0 0 -0.0172693 0.266859 0.482499 
0.077606 0.19751 -0.004441 0 0 -0.0172693 0.266859 0.482499 
-0.077667 0.308729 -0.004441 0 0 -0.0172693 0.266859 0.482499 
0.077606 0.19751 -0.004441 0 0 -0.0172693 0.266859 0.482499 
-0.077667 0.19751 -0.004441 0 0 -0.0172693 0.266859 0.482499 
0.077606 0.19751 0.166199 0.0189784 0 0 0.196434 0.484336 
0.077606 0.19751 -0.004441 0.0189784 0 0 0.196434 0.484336 
0.077606 0.308729 -0.004441 0.0189784 0 0 0.196434 0.484336 
0.077606 0.19751 0.166199 0.0333381 -0 0 0.196434 0.484336 
0.077606 0.308729 -0.004441 0.0333381 -0 0 0.196434 0.484336 
0.077606 0.392881 0.166199 0.0333381 -0 0 0.196434 0.484336 
0.077606 0.308729 -0.363945 0 0 0.0172693 0.231953 0.483111 
-0.077667 0.308729 -0.363945 0 0 0.0172693 0.231953 0.483111 
-0.077667 0.19751 -0.363945 0 0 0.0172693 0.231953 0.483111 
0.077606 0.308729 -0.363945 0 0 0.0172693 0.231953 0.483111 
-0.077667 0.19751 -0.363945 0 0 0.0172693 0.231953 0.483111 
0.077606 0.19751 -0.363945 0 0 0.0172693 0.231953 0.483111 
-0.077667 0.392881 -0.534586 -0.0333383 0 0 0.196434 0.484336 
-0.077667 0.19751 -0.534586 -0.0333383 0 0 0.196434 0.484336 
-0.077667 0.19751 -0.363945 -0.0333383 0 0 0.196434 0.484336 
-0.077667 0.392881 -0.534586 -0.0189785 0 0 0.196434 0.484336 
-0.077667 0.19751 -0.363945 -0.0189785 0 0 0.196434 0.484336 
-0.077667 0.308729 -0.363945 -0.0189785 0 0 0.196434 0.484336 
0.077606 0.392881 -0.534586 0 -0 -0.0303358 0.266859 0.482499 
0.077606 0.19751 -0.534586 0 -0 -0.0303358 0.266859 0.482499 
-0.077667 0.19751 -0.534586 0 -0 -0.0303358 0.266859 0.482499 
0.077606 0.392881 -0.534586 -0 0 -0.0303358 0.266859 0.482499 
-0.077667 0.19751 -0.534586 -0 0 -0.0303358 0.266859 0.482499 
-0.077667 0.392881 -0.534586 -0 0 -0.0303358 0.266859 0.482499 
0.077606 0.392881 0.166199 0 0 0.00907881 0.168265 0.483111 
-0.077667 0.392881 0.166199 0 0 0.00907881 0.168265 0.483111 
-0.031982 0.334411 0.166199 0 0 0.00907881 0.168265 0.483111 
0.077606 0.392881 0.166199 0 0 0.00373641 0.168265 0.483111 
-0.031982 0.334411 0.166199 0 0 0.00373641 0.168265 0.483111 
0.031921 0.334411 0.166199 0 0 0.00373641 0.168265 0.483111 
-0.031982 0.334411 0.166199 0 0 0.00892552 0.168265 0.483111 
-0.077667 0.392881 0.166199 0 0 0.00892552 0.168265 0.483111 
-0.077667 0.19751 0.166199 0 0 0.00892552 0.168265 0.483111 
-0.031982 0.334411 0.166199 0 0 0.00358307 0.168265 0.483111 
-0.077667 0.19751 0.166199 0 0 0.00358307 0.168265 0.483111 
-0.031982 0.255981 0.166199 0 0 0.00358307 0.168265 0.483111 
-0.077667 0.19751 0.166199 0 0 0.00907897 0.168265 0.483111 
0.077606 0.19751 0.166199 0 0 0.00907897 0.168265 0.483111 
0.031921 0.255981 0.166199 0 0 0.00907897 0.168265 0.483111 
-0.077667 0.19751 0.166199 0 0 0.00373647 0.168265 0.483111 
0.031921 0.255981 0.166199 0 0 0.00373647 0.168265 0.483111 
-0.031982 0.255981 0.166199 0 0 0.00373647 0.168265 0.483111 
0.031921 0.255981 0.166199 -0 0 0.00892552 0.168265 0.483111 
0.077606 0.19751 0.166199 -0 0 0.00892552 0.168265 0.483111 
0.077606 0.392881 0.166199 -0 0 0.00892552 0.168265 0.483111 
0.031921 0.255981 0.166199 0 0 0.00358307 0.168265 0.483111 
0.077606 0.392881 0.166199 0 0 0.00358307 0.168265 0.483111 
0.031921 0.334411 0.166199 0 0 0.00358307 0.168265 0.483111 
0.031921 0.334411 0.166199 0 0.0312465 0 0.140503 0.472773 
-0.031982 0.334411 0.166199 0 0.0312465 0 0.140503 0.472773 
-0.031982 0.334411 0.655167 0 0.0312465 0 0.140503 0.472773 
0.031921 0.334411 0.166199 0 0.0312465 -0 0.140503 0.472773 
-0.031982 0.334411 0.655167 0 0.0312465 -0 0.140503 0.472773 
0.031921 0.334411 0.655167 0 0.0312465 -0 0.140503 0.472773 
-0.031982 0.334411 0.655167 -0.0383498 0 -0 0.104985 0.473997 
-0.031982 0.334411 0.166199 -0.0383498 0 -0 0.104985 0.473997 
-0.031982 0.255981 0.166199 -0.0383498 0 -0 0.104985 0.473997 
-0.031982 0.334411 0.655167 -0.0323736 0 0 0.104985 0.473997 
-0.031982 0.255981 0.166199 -0.0323736 0 0 0.104985 0.473997 
-0.031982 0.255981 0.578969 -0.0323736 0 0 0.104985 0.473997 
-0.031982 0.255981 0.166199 0 -0.0263772 0 0.140503 0.472773 
0.031921 0.255981 0.166199 0 -0.0263772 0 0.140503 0.472773 
0.031921 0.255981 0.578969 0 -0.0263772 0 0.140503 0.472773 
-0.031982 0.255981 0.166199 0 -0.0263772 0 0.140503 0.472773 
0.031921 0.255981 0.578969 0 -0.0263772 0 0.140503 0.472773 
-0.031982 0.255981 0.578969 0 -0.0263772 0 0.140503 0.472773 
0.031921 0.255981 0.578969 0.0323736 0 0 0.104985 0.473997 
0.031921 0.255981 0.166199 0.0323736 0 0 0.104985 0.473997 
0.031921 0.334411 0.166199 0.0323736 0 0 0.104985 0.473997 
0.031921 0.255981 0.578969 0.0383498 -0 0 0.104985 0.473997 
0.031921 0.334411 0.166199 0.0383498 -0 0 0.104985 0.473997 
0.031921 0.334411 0.655167 0.0383498 -0 0 0.104985 0.473997 
-0.031982 0.255981 0.578969 0 0 -0.00830784 0.140503 0.472773 
0.031921 0.255981 0.578969 0 0 -0.00830784 0.140503 0.472773 
0.031921 0.125974 0.578969 0 0 -0.00830784 0.140503 0.472773 
-0.031982 0.255981 0.578969 0 0 -0.00830784 0.140503 0.472773 
0.031921 0.125974 0.578969 0 0 -0.00830784 0.140503 0.472773 
-0.031982 0.125974 0.578969 0 0 -0.00830784 0.140503 0.472773 
0.031921 0.334411 0.655167 0 0 0.0183841 0.140503 0.472773 
-0.031982 0.334411 0.655167 0 0 0.0183841 0.140503 0.472773 
-0.031982 0.046723 0.655167 0 0 0.0183841 0.140503 0.472773 
0.031921 0.334411 0.655167 0 0 0.0183841 0.140503 0.472773 
-0.031982 0.046723 0.655167 0 0 0.0183841 0.140503 0.472773 
0.031921 0.046723 0.655167 0 0 0.0183841 0.140503 0.472773 
-0.031982 0.334411 0.655167 -0.00990627 0 0 0.104985 0.473997 
-0.031982 0.255981 0.578969 -0.00990627 0 0 0.104985 0.473997 
-0.031982 0.125974 0.578969 -0.00990627 0 0 0.104985 0.473997 
-0.031982 0.334411 0.655167 -0.0219212 -0 0 0.104985 0.473997 
-0.031982 0.125974 0.578969 -0.0219212 -0 0 0.104985 0.473997 
-0.031982 0.046723 0.655167 -0.0219212 -0 0 0.104985 0.473997 
0.031921 0.334411 0.655167 0.0219212 0 0 0.104985 0.473997 
0.031921 0.046723 0.655167 0.0219212 0 0 0.104985 0.473997 
0.031921 0.125974 0.578969 0.0219212 0 0 0.104985 0.473997 
0.031921 0.334411 0.655167 0.00990627 0 0 0.104985 0.473997 
0.031921 0.125974 0.578969 0.00990627 0 0 0.104985 0.473997 
0.031921 0.255981 0.578969 0.00990627 0 0 0.104985 0.473997 
-0.031982 0.125974 0.578969 -0 0.0203467 0 0.140503 0.472773 
0.031921 0.125974 0.578969 -0 0.0203467 0 0.140503 0.472773 
0.031921 0.125974 0.260569 -0 0.0203467 0 0.140503 0.472773 
-0.031982 0.125974 0.578969 0 0.0203467 0 0.140503 0.472773 
0.031921 0.125974 0.260569 0 0.0203467 0 0.140503 0.472773 
-0.031982 0.125974 0.260569 0 0.0203467 0 0.140503 0.472773 
0.031921 0.125974 0.578969 0.0312723 0 0 0.104985 0.473997 
0.031921 0.046723 0.655167 0.0312723 0 0 0.104985 0.473997 
0.031921 0.046723 0.260569 0.0312723 0 0 0.104985 0.473997 
0.031921 0.125974 0.578969 0.0252335 0 0 0.104985 0.473997 
0.031921 0.046723 0.260569 0.0252335 0 0 0.104985 0.473997 
0.031921 0.125974 0.260569 0.0252335 0 0 0.104985 0.473997 
0.031921 0.046723 0.655167 -0 -0.025216 0 0.140503 0.472773 
-0.031982 0.046723 0.655167 -0 -0.025216 0 0.140503 0.472773 
-0.031982 0.046723 0.260569 -0 -0.025216 0 0.140503 0.472773 
0.031921 0.046723 0.655167 0 -0.025216 -0 0.140503 0.472773 
-0.031982 0.046723 0.260569 0 -0.025216 -0 0.140503 0.472773 
0.031921 0.046723 0.260569 0 -0.025216 -0 0.140503 0.472773 
-0.031982 0.046723 0.655167 -0.0252335 0 0 0.104985 0.473997 
-0.031982 0.125974 0.578969 -0.0252335 0 0 0.104985 0.473997 
-0.031982 0.125974 0.260569 -0.0252335 0 0 0.104985 0.473997 
-0.031982 0.046723 0.655167 -0.0312723 0 0 0.104985 0.473997 
-0.031982 0.125974 0.260569 -0.0312723 0 0 0.104985 0.473997 
-0.031982 0.046723 0.260569 -0.0312723 0 0 0.104985 0.473997 
3 0 1 2
3 3 4 5
3 6 7 8
3 9 10 11
3 12 13 14
3 15 16 17
3 18 19 20
3 21 22 23
3 24 25 26
3 27 28 29
3 30 31 32
3 33 34 35
3 36 37 38
3 39 40 41
3 42 43 44
3 45 46 47
3 48 49 50
3 51 52 53
3 54 55 56
3 57 58 59
3 60 61 62
3 63 64 65
3 66 67 68
3 69 70 71
3 72 73 74
3 75 76 77
3 78 79 80
3 81 82 83
3 84 85 86
3 87 88 89
3 90 91 92
3 93 94 95
3 96 97 98
3 99 100 101
3 102 103 104
3 105 106 107
3 108 109 110
3 111 112 113
3 114 115 116
3 117 118 119
3 120 121 122
3 123 124 125
3 126 127 128
3 129 130 131
3 132 133 134
3 135 136 137
3 138 139 140
3 141 142 143
3 144 145 146
3 147 148 149
3 150 151 152
3 153 154 155
3 156 157 158
3 159 160 161
3 162 163 164
3 165 166 167
3 168 169 170
3 171 172 173
3 174 175 176
3 177 178 179
3 180 181 182
3 183 184 185
3 186 187 188
3 189 190 191
3 192 193 194
3 195 196 197
3 198 199 200
3 201 202 203
3 204 205 206
3 207 208 209
