ply
format ascii 1.0
comment Feeney's Flatenator generated
comment TextureFile SpaceInteriors_Texture.png
element vertex 96
property float x
property float y
property float z
property float nx
property float ny
property float nz
property uchar red
property uchar green
property uchar blue
property uchar alpha
property float texture_u
property float texture_v
element face 32
property list uchar int vertex_indices
end_header
-1 0 0 0 -1 0 75 72 70 255 0.200168 0.061667 
-1 0 -1 0 -1 0 75 72 70 255 0.200168 0.061667 
0 0 -1 0 -1 0 75 72 70 255 0.200168 0.061667 
-1 0 0 0 -1 0 75 72 70 255 0.200168 0.061667 
0 0 -1 0 -1 0 75 72 70 255 0.200168 0.061667 
0 0 0 0 -1 0 75 72 70 255 0.200168 0.061667 
0 0 -1 0.379218 0 0 91 88 86 255 0.233148 0.061667 
0 1 -1 0.379218 0 0 91 88 86 255 0.233148 0.061667 
0 1 -0.620782 0.379218 0 0 91 88 86 255 0.233148 0.061667 
0 0 -1 0.803112 0 0 91 88 86 255 0.233148 0.061667 
0 1 -0.620782 0.803112 0 0 91 88 86 255 0.233148 0.061667 
0 0.519194 0 0.803112 0 0 91 88 86 255 0.233148 0.061667 
0 0 -1 0.519194 0 0 91 88 86 255 0.233148 0.061667 
0 0.519194 0 0.519194 0 0 91 88 86 255 0.233148 0.061667 
0 0 0 0.519194 0 0 91 88 86 255 0.233148 0.061667 
-0.86638 0.44982 -0.070731 0 0 0.278776 108 105 102 255 0.509012 0.990932 
-0.86638 0.069374 -0.070731 0 0 0.278776 108 105 102 255 0.509012 0.937253 
-0.133619 0.069374 -0.070731 0 0 0.278776 108 105 102 255 0.645066 0.937253 
-0.86638 0.44982 -0.070731 -0 0 0.278776 108 105 102 255 0.509012 0.990932 
-0.133619 0.069374 -0.070731 -0 0 0.278776 108 105 102 255 0.645066 0.937253 
-0.133619 0.44982 -0.070731 -0 0 0.278776 108 105 102 255 0.645066 0.990932 
-1 1 -0.620782 0 0.620782 0.480806 108 105 102 255 0.750511 0.880844 
-1 0.519194 0 0 0.620782 0.480806 108 105 102 255 0.750511 0.672591 
0 0.519194 0 0 0.620782 0.480806 108 105 102 255 0.506956 0.672591 
-1 1 -0.620782 -0 0.620782 0.480806 108 105 102 255 0.750511 0.880844 
0 0.519194 0 -0 0.620782 0.480806 108 105 102 255 0.506956 0.672591 
0 1 -0.620782 -0 0.620782 0.480806 108 105 102 255 0.506956 0.880844 
-1 1 -1 0 0.379218 0 125 121 118 255 0.300052 0.061667 
-1 1 -0.620782 0 0.379218 0 125 121 118 255 0.300052 0.061667 
0 1 -0.620782 0 0.379218 0 125 121 118 255 0.300052 0.061667 
-1 1 -1 0 0.379218 0 125 121 118 255 0.300052 0.061667 
0 1 -0.620782 0 0.379218 0 125 121 118 255 0.300052 0.061667 
0 1 -1 0 0.379218 0 125 121 118 255 0.300052 0.061667 
-1 0 -1 0 0 -1 108 105 102 255 0.265187 0.061667 
-1 1 -1 0 0 -1 108 105 102 255 0.265187 0.061667 
0 1 -1 0 0 -1 108 105 102 255 0.265187 0.061667 
-1 0 -1 0 0 -1 108 105 102 255 0.265187 0.061667 
0 1 -1 0 0 -1 108 105 102 255 0.265187 0.061667 
0 0 -1 0 0 -1 108 105 102 255 0.265187 0.061667 
-1 1 -0.620782 -0.379218 0 -0 91 88 86 255 0.236477 0.060738 
-1 1 -1 -0.379218 0 -0 91 88 86 255 0.236477 0.060738 
-1 0 -1 -0.379218 0 -0 91 88 86 255 0.236477 0.060739 
-1 1 -0.620782 -1 -0 0 91 88 86 255 0.236477 0.060738 
-1 0 -1 -1 -0 0 91 88 86 255 0.236477 0.060739 
-1 0 0 -1 -0 0 91 88 86 255 0.236477 0.060739 
-1 1 -0.620782 -0.322306 0 0 91 88 86 255 0.236477 0.060738 
-1 0 0 -0.322306 0 0 91 88 86 255 0.236477 0.060739 
-1 0.519194 0 -0.322306 0 0 91 88 86 255 0.236477 0.060738 
-1 0.519194 0 0 0 0.0693747 108 105 102 255 0.265187 0.061667 
-1 0 0 0 0 0.0693747 108 105 102 255 0.265187 0.061667 
-0.86638 0.069374 0 0 0 0.0693747 108 105 102 255 0.265187 0.061667 
-1 0.519194 0 0 0 0.0508352 108 105 102 255 0.265187 0.061667 
-0.86638 0.069374 0 0 0 0.0508352 108 105 102 255 0.265187 0.061667 
-0.86638 0.44982 0 0 0 0.0508352 108 105 102 255 0.265187 0.061667 
-1 0 0 0 0 0.069374 108 105 102 255 0.265187 0.061667 
0 0 0 0 0 0.069374 108 105 102 255 0.265187 0.061667 
-0.133619 0.069374 0 0 0 0.069374 108 105 102 255 0.265187 0.061667 
-1 0 0 0 0 0.0508346 108 105 102 255 0.265187 0.061667 
-0.133619 0.069374 0 0 0 0.0508346 108 105 102 255 0.265187 0.061667 
-0.86638 0.069374 0 0 0 0.0508346 108 105 102 255 0.265187 0.061667 
0 0 0 0 -0 0.0693742 108 105 102 255 0.265187 0.061667 
0 0.519194 0 0 -0 0.0693742 108 105 102 255 0.265187 0.061667 
-0.133619 0.44982 0 0 -0 0.0693742 108 105 102 255 0.265187 0.061667 
0 0 0 0 0 0.0508348 108 105 102 255 0.265187 0.061667 
-0.133619 0.44982 0 0 0 0.0508348 108 105 102 255 0.265187 0.061667 
-0.133619 0.069374 0 0 0 0.0508348 108 105 102 255 0.265187 0.061667 
0 0.519194 0 0 0 0.069374 108 105 102 255 0.265187 0.061667 
-1 0.519194 0 0 0 0.069374 108 105 102 255 0.265187 0.061667 
-0.86638 0.44982 0 0 0 0.069374 108 105 102 255 0.265187 0.061667 
0 0.519194 0 0 0 0.0508346 108 105 102 255 0.265187 0.061667 
-0.86638 0.44982 0 0 0 0.0508346 108 105 102 255 0.265187 0.061667 
-0.133619 0.44982 0 0 0 0.0508346 108 105 102 255 0.265187 0.061667 
-0.86638 0.44982 0 0.0269093 0 0 75 72 70 255 0.205902 0.061667 
-0.86638 0.069374 0 0.0269093 0 0 75 72 70 255 0.205902 0.061667 
-0.86638 0.069374 -0.070731 0.0269093 0 0 75 72 70 255 0.205902 0.061667 
-0.86638 0.44982 0 0.0269093 0 0 75 72 70 255 0.205902 0.061667 
-0.86638 0.069374 -0.070731 0.0269093 0 0 75 72 70 255 0.205902 0.061667 
-0.86638 0.44982 -0.070731 0.0269093 0 0 75 72 70 255 0.205902 0.061667 
-0.86638 0.069374 0 -0 0.0518289 0 125 121 118 255 0.297794 0.061667 
-0.133619 0.069374 0 -0 0.0518289 0 125 121 118 255 0.297794 0.061667 
-0.133619 0.069374 -0.070731 -0 0.0518289 0 125 121 118 255 0.297794 0.061667 
-0.86638 0.069374 0 0 0.0518289 0 125 121 118 255 0.297794 0.061667 
-0.133619 0.069374 -0.070731 0 0.0518289 0 125 121 118 255 0.297794 0.061667 
-0.86638 0.069374 -0.070731 0 0.0518289 0 125 121 118 255 0.297794 0.061667 
-0.133619 0.069374 0 -0.0269093 0 0 75 72 70 255 0.205902 0.061667 
-0.133619 0.44982 0 -0.0269093 0 0 75 72 70 255 0.205902 0.061667 
-0.133619 0.44982 -0.070731 -0.0269093 0 0 75 72 70 255 0.205902 0.061667 
-0.133619 0.069374 0 -0.0269093 0 0 75 72 70 255 0.205902 0.061667 
-0.133619 0.44982 -0.070731 -0.0269093 0 0 75 72 70 255 0.205902 0.061667 
-0.133619 0.069374 -0.070731 -0.0269093 0 0 75 72 70 255 0.205902 0.061667 
-0.133619 0.44982 0 -0 -0.0518289 0 58 57 55 255 0.169343 0.061667 
-0.86638 0.44982 0 -0 -0.0518289 0 58 57 55 255 0.169343 0.061667 
-0.86638 0.44982 -0.070731 -0 -0.0518289 0 58 57 55 255 0.169343 0.061667 
-0.133619 0.44982 0 0 -0.0518289 -0 58 57 55 255 0.169343 0.061667 
-0.86638 0.44982 -0.070731 0 -0.0518289 -0 58 57 55 255 0.169343 0.061667 
-0.133619 0.44982 -0.070731 0 -0.0518289 -0 58 57 55 255 0.169343 0.061667 
3 0 1 2
3 3 4 5
3 6 7 8
3 9 10 11
3 12 13 14
3 15 16 17
3 18 19 20
3 21 22 23
3 24 25 26
3 27 28 29
3 30 31 32
3 33 34 35
3 36 37 38
3 39 40 41
3 42 43 44
3 45 46 47
3 48 49 50
3 51 52 53
3 54 55 56
3 57 58 59
3 60 61 62
3 63 64 65
3 66 67 68
3 69 70 71
3 72 73 74
3 75 76 77
3 78 79 80
3 81 82 83
3 84 85 86
3 87 88 89
3 90 91 92
3 93 94 95
