ply
format ascii 1.0
comment Feeney's Flatenator generated
comment TextureFile SpaceInteriors_Texture.png
element vertex 84
property float x
property float y
property float z
property float nx
property float ny
property float nz
property float texture_u
property float texture_v
element face 28
property list uchar int vertex_indices
end_header
-0.134798 0 0.134796 0 0 0.11054 0.326183 0.476807 
0.134798 0 0.134796 0 0 0.11054 0.326183 0.476807 
0.134798 0.410021 0.134796 0 0 0.11054 0.326183 0.476807 
-0.134798 0 0.134796 0 0 0.11054 0.326183 0.476807 
0.134798 0.410021 0.134796 0 0 0.11054 0.326183 0.476807 
-0.134798 0.410021 0.134796 0 0 0.11054 0.326183 0.476807 
-0.070309 0.691158 0.070309 -0 0.0197737 0 0.292565 0.332252 
0.070311 0.691158 0.070309 -0 0.0197737 0 0.292565 0.332252 
0.070311 0.691158 -0.070309 -0 0.0197737 0 0.292565 0.332252 
-0.070309 0.691158 0.070309 0 0.0197737 0 0.292565 0.332252 
0.070311 0.691158 -0.070309 0 0.0197737 0 0.292565 0.332252 
-0.070309 0.691158 -0.070309 0 0.0197737 0 0.292565 0.332252 
-0.134798 0.410021 -0.134796 0 0 -0.11054 0.326183 0.476807 
0.134798 0.410021 -0.134796 0 0 -0.11054 0.326183 0.476807 
0.134798 0 -0.134796 0 0 -0.11054 0.326183 0.476807 
-0.134798 0.410021 -0.134796 0 0 -0.11054 0.326183 0.476807 
0.134798 0 -0.134796 0 0 -0.11054 0.326183 0.476807 
-0.134798 0 -0.134796 0 0 -0.11054 0.326183 0.476807 
-0.134798 0 -0.134796 0 -0.0726809 0 0.359507 0.475389 
0.134798 0 -0.134796 0 -0.0726809 0 0.359507 0.475389 
0.134798 0 0.134796 0 -0.0726809 0 0.359507 0.475389 
-0.134798 0 -0.134796 0 -0.0726809 0 0.359507 0.475389 
0.134798 0 0.134796 0 -0.0726809 0 0.359507 0.475389 
-0.134798 0 0.134796 0 -0.0726809 0 0.359507 0.475389 
0.134798 0 0.134796 0.110538 0 0 0.290023 0.476807 
0.134798 0 -0.134796 0.110538 0 0 0.290023 0.476807 
0.134798 0.410021 -0.134796 0.110538 0 0 0.290023 0.476807 
0.134798 0 0.134796 0.110538 -0 0 0.290023 0.476807 
0.134798 0.410021 -0.134796 0.110538 -0 0 0.290023 0.476807 
0.134798 0.410021 0.134796 0.110538 -0 0 0.290023 0.476807 
-0.134798 0 -0.134796 -0.110538 0 0 0.290023 0.476807 
-0.134798 0 0.134796 -0.110538 0 0 0.290023 0.476807 
-0.134798 0.410021 0.134796 -0.110538 0 0 0.290023 0.476807 
-0.134798 0 -0.134796 -0.110538 0 0 0.290023 0.476807 
-0.134798 0.410021 0.134796 -0.110538 0 0 0.290023 0.476807 
-0.134798 0.410021 -0.134796 -0.110538 0 0 0.290023 0.476807 
-0.134798 0.410021 0.134796 -0 0.0173854 0.0585813 0.359507 0.475389 
0.134798 0.410021 0.134796 -0 0.0173854 0.0585813 0.359507 0.475389 
0.070311 0.627314 0.070309 -0 0.0173854 0.0585813 0.359507 0.475389 
-0.134798 0.410021 0.134796 0 0.00906816 0.0305557 0.359507 0.475389 
0.070311 0.627314 0.070309 0 0.00906816 0.0305557 0.359507 0.475389 
-0.070309 0.627314 0.070309 0 0.00906816 0.0305557 0.359507 0.475389 
0.134798 0.410021 0.134796 0.0585804 0.0173852 0 0.323347 0.475389 
0.134798 0.410021 -0.134796 0.0585804 0.0173852 0 0.323347 0.475389 
0.070311 0.627314 -0.070309 0.0585804 0.0173852 0 0.323347 0.475389 
0.134798 0.410021 0.134796 0.0305553 0.00906803 0 0.323347 0.475389 
0.070311 0.627314 -0.070309 0.0305553 0.00906803 0 0.323347 0.475389 
0.070311 0.627314 0.070309 0.0305553 0.00906803 0 0.323347 0.475389 
0.134798 0.410021 -0.134796 0 0.0173854 -0.0585813 0.359507 0.475389 
-0.134798 0.410021 -0.134796 0 0.0173854 -0.0585813 0.359507 0.475389 
-0.070309 0.627314 -0.070309 0 0.0173854 -0.0585813 0.359507 0.475389 
0.134798 0.410021 -0.134796 0 0.00906816 -0.0305557 0.359507 0.475389 
-0.070309 0.627314 -0.070309 0 0.00906816 -0.0305557 0.359507 0.475389 
0.070311 0.627314 -0.070309 0 0.00906816 -0.0305557 0.359507 0.475389 
-0.134798 0.410021 -0.134796 -0.0585804 0.0173857 0 0.323347 0.475389 
-0.134798 0.410021 0.134796 -0.0585804 0.0173857 0 0.323347 0.475389 
-0.070309 0.627314 0.070309 -0.0585804 0.0173857 0 0.323347 0.475389 
-0.134798 0.410021 -0.134796 -0.0305553 0.00906832 0 0.323347 0.475389 
-0.070309 0.627314 0.070309 -0.0305553 0.00906832 0 0.323347 0.475389 
-0.070309 0.627314 -0.070309 -0.0305553 0.00906832 0 0.323347 0.475389 
-0.070309 0.627314 0.070309 0 0 0.00897775 0.264204 0.332252 
0.070311 0.627314 0.070309 0 0 0.00897775 0.264204 0.332252 
0.070311 0.691158 0.070309 0 0 0.00897775 0.264204 0.332252 
-0.070309 0.627314 0.070309 0 0 0.00897775 0.264204 0.332252 
0.070311 0.691158 0.070309 0 0 0.00897775 0.264204 0.332252 
-0.070309 0.691158 0.070309 0 0 0.00897775 0.264204 0.332252 
0.070311 0.627314 0.070309 0.00897762 0 0 0.228044 0.332252 
0.070311 0.627314 -0.070309 0.00897762 0 0 0.228044 0.332252 
0.070311 0.691158 -0.070309 0.00897762 0 0 0.228044 0.332252 
0.070311 0.627314 0.070309 0.00897762 -0 0 0.228044 0.332252 
0.070311 0.691158 -0.070309 0.00897762 -0 0 0.228044 0.332252 
0.070311 0.691158 0.070309 0.00897762 -0 0 0.228044 0.332252 
0.070311 0.627314 -0.070309 0 0 -0.00897775 0.264204 0.332252 
-0.070309 0.627314 -0.070309 0 0 -0.00897775 0.264204 0.332252 
-0.070309 0.691158 -0.070309 0 0 -0.00897775 0.264204 0.332252 
0.070311 0.627314 -0.070309 0 0 -0.00897775 0.264204 0.332252 
-0.070309 0.691158 -0.070309 0 0 -0.00897775 0.264204 0.332252 
0.070311 0.691158 -0.070309 0 0 -0.00897775 0.264204 0.332252 
-0.070309 0.627314 -0.070309 -0.00897762 0 0 0.228044 0.332252 
-0.070309 0.627314 0.070309 -0.00897762 0 0 0.228044 0.332252 
-0.070309 0.691158 0.070309 -0.00897762 0 0 0.228044 0.332252 
-0.070309 0.627314 -0.070309 -0.00897762 0 0 0.228044 0.332252 
-0.070309 0.691158 0.070309 -0.00897762 0 0 0.228044 0.332252 
-0.070309 0.691158 -0.070309 -0.00897762 0 0 0.228044 0.332252 
3 0 1 2
3 3 4 5
3 6 7 8
3 9 10 11
3 12 13 14
3 15 16 17
3 18 19 20
3 21 22 23
3 24 25 26
3 27 28 29
3 30 31 32
3 33 34 35
3 36 37 38
3 39 40 41
3 42 43 44
3 45 46 47
3 48 49 50
3 51 52 53
3 54 55 56
3 57 58 59
3 60 61 62
3 63 64 65
3 66 67 68
3 69 70 71
3 72 73 74
3 75 76 77
3 78 79 80
3 81 82 83
