ply
format ascii 1.0
comment Feeney's Flatenator generated
comment TextureFile SpaceInteriors_Texture.png
element vertex 324
property float x
property float y
property float z
property float nx
property float ny
property float nz
property uchar red
property uchar green
property uchar blue
property uchar alpha
element face 108
property list uchar int vertex_indices
end_header
0.846605 0.385485 0.083121 0 -0 0.189981 172 167 162 255 
1.00006 0.385485 0.083121 0 -0 0.189981 172 167 162 255 
0.64342 1.62351 0.083121 0 -0 0.189981 172 167 162 255 
0.846605 0.385485 0.083121 0 0 0.164953 172 167 162 255 
0.64342 1.62351 0.083121 0 0 0.164953 172 167 162 255 
0.510181 1.62351 0.083121 0 0 0.164953 172 167 162 255 
0.510181 1.62351 0.083121 -0 0.02215 0 186 180 175 255 
0.64342 1.62351 0.083121 -0 0.02215 0 186 180 175 255 
0.64342 1.62351 -0.083122 -0 0.02215 0 186 180 175 255 
0.510181 1.62351 0.083121 0 0.02215 0 186 180 175 255 
0.64342 1.62351 -0.083122 0 0.02215 0 186 180 175 255 
0.510181 1.62351 -0.083122 0 0.02215 0 186 180 175 255 
0.510181 1.62351 -0.083122 0 0 -0.164953 172 167 162 255 
0.64342 1.62351 -0.083122 0 0 -0.164953 172 167 162 255 
1.00006 0.385485 -0.083122 0 0 -0.164953 172 167 162 255 
0.510181 1.62351 -0.083122 0 0 -0.189981 172 167 162 255 
1.00006 0.385485 -0.083122 0 0 -0.189981 172 167 162 255 
0.846605 0.385485 -0.083122 0 0 -0.189981 172 167 162 255 
0.846605 0.385485 -0.083122 0 -0.0255108 0 141 137 133 255 
1.00006 0.385485 -0.083122 0 -0.0255108 0 141 137 133 255 
1.00006 0.385485 0.083121 0 -0.0255108 0 141 137 133 255 
0.846605 0.385485 -0.083122 0 -0.0255108 0 141 137 133 255 
1.00006 0.385485 0.083121 0 -0.0255108 0 141 137 133 255 
0.846605 0.385485 0.083121 0 -0.0255108 0 141 137 133 255 
1.00006 0.385485 0.083121 0.205813 0.0592889 0 186 180 175 255 
1.00006 0.385485 -0.083122 0.205813 0.0592889 0 186 180 175 255 
0.64342 1.62351 -0.083122 0.205813 0.0592889 0 186 180 175 255 
1.00006 0.385485 0.083121 0.205813 0.0592889 0 186 180 175 255 
0.64342 1.62351 -0.083122 0.205813 0.0592889 0 186 180 175 255 
0.64342 1.62351 0.083121 0.205813 0.0592889 0 186 180 175 255 
0.846605 0.385485 -0.083122 -0.205813 -0.0559281 0 157 152 148 255 
0.846605 0.385485 0.083121 -0.205813 -0.0559281 0 157 152 148 255 
0.510181 1.62351 0.083121 -0.205813 -0.0559281 0 157 152 148 255 
0.846605 0.385485 -0.083122 -0.205813 -0.0559281 0 157 152 148 255 
0.510181 1.62351 0.083121 -0.205813 -0.0559281 0 157 152 148 255 
0.510181 1.62351 -0.083122 -0.205813 -0.0559281 0 157 152 148 255 
-1.00006 0.385485 0.083121 0 0 0.189981 172 167 162 255 
-0.846605 0.385485 0.083121 0 0 0.189981 172 167 162 255 
-0.510182 1.62351 0.083121 0 0 0.189981 172 167 162 255 
-1.00006 0.385485 0.083121 0 0 0.164953 172 167 162 255 
-0.510182 1.62351 0.083121 0 0 0.164953 172 167 162 255 
-0.643421 1.62351 0.083121 0 0 0.164953 172 167 162 255 
-0.643421 1.62351 0.083121 -0 0.02215 0 186 180 175 255 
-0.510182 1.62351 0.083121 -0 0.02215 0 186 180 175 255 
-0.510182 1.62351 -0.083122 -0 0.02215 0 186 180 175 255 
-0.643421 1.62351 0.083121 0 0.02215 0 186 180 175 255 
-0.510182 1.62351 -0.083122 0 0.02215 0 186 180 175 255 
-0.643421 1.62351 -0.083122 0 0.02215 0 186 180 175 255 
-0.643421 1.62351 -0.083122 0 -0 -0.164953 172 167 162 255 
-0.510182 1.62351 -0.083122 0 -0 -0.164953 172 167 162 255 
-0.846605 0.385485 -0.083122 0 -0 -0.164953 172 167 162 255 
-0.643421 1.62351 -0.083122 0 0 -0.189981 172 167 162 255 
-0.846605 0.385485 -0.083122 0 0 -0.189981 172 167 162 255 
-1.00006 0.385485 -0.083122 0 0 -0.189981 172 167 162 255 
-1.00006 0.385485 -0.083122 0 -0.0255108 0 141 137 133 255 
-0.846605 0.385485 -0.083122 0 -0.0255108 0 141 137 133 255 
-0.846605 0.385485 0.083121 0 -0.0255108 0 141 137 133 255 
-1.00006 0.385485 -0.083122 0 -0.0255108 0 141 137 133 255 
-0.846605 0.385485 0.083121 0 -0.0255108 0 141 137 133 255 
-1.00006 0.385485 0.083121 0 -0.0255108 0 141 137 133 255 
-0.846605 0.385485 0.083121 0.205813 -0.055928 0 157 152 148 255 
-0.846605 0.385485 -0.083122 0.205813 -0.055928 0 157 152 148 255 
-0.510182 1.62351 -0.083122 0.205813 -0.055928 0 157 152 148 255 
-0.846605 0.385485 0.083121 0.205813 -0.055928 0 157 152 148 255 
-0.510182 1.62351 -0.083122 0.205813 -0.055928 0 157 152 148 255 
-0.510182 1.62351 0.083121 0.205813 -0.055928 0 157 152 148 255 
-1.00006 0.385485 -0.083122 -0.205813 0.0592887 0 186 180 175 255 
-1.00006 0.385485 0.083121 -0.205813 0.0592887 0 186 180 175 255 
-0.643421 1.62351 0.083121 -0.205813 0.0592887 0 186 180 175 255 
-1.00006 0.385485 -0.083122 -0.205813 0.0592887 0 186 180 175 255 
-0.643421 1.62351 0.083121 -0.205813 0.0592887 0 186 180 175 255 
-0.643421 1.62351 -0.083122 -0.205813 0.0592887 0 186 180 175 255 
-0.643421 1.62351 0.5 0 0 0.193026 172 167 162 255 
0.64342 1.62351 0.5 0 0 0.193026 172 167 162 255 
0.64342 1.77351 0.5 0 0 0.193026 172 167 162 255 
-0.643421 1.62351 0.5 0 0 0.193026 172 167 162 255 
0.64342 1.77351 0.5 0 0 0.193026 172 167 162 255 
-0.643421 1.77351 0.5 0 0 0.193026 172 167 162 255 
-0.643421 1.77351 -0.5 0 0 -0.193026 172 167 162 255 
0.64342 1.77351 -0.5 0 0 -0.193026 172 167 162 255 
0.64342 1.62351 -0.5 0 0 -0.193026 172 167 162 255 
-0.643421 1.77351 -0.5 0 0 -0.193026 172 167 162 255 
0.64342 1.62351 -0.5 0 0 -0.193026 172 167 162 255 
-0.643421 1.62351 -0.5 0 0 -0.193026 172 167 162 255 
0.64342 1.62351 0.5 0.15 0 0 157 152 148 255 
0.64342 1.62351 -0.5 0.15 0 0 157 152 148 255 
0.64342 1.77351 -0.5 0.15 0 0 157 152 148 255 
0.64342 1.62351 0.5 0.15 -0 0 157 152 148 255 
0.64342 1.77351 -0.5 0.15 -0 0 157 152 148 255 
0.64342 1.77351 0.5 0.15 -0 0 157 152 148 255 
-0.643421 1.62351 -0.5 -0.15 0 0 157 152 148 255 
-0.643421 1.62351 0.5 -0.15 0 0 157 152 148 255 
-0.643421 1.77351 0.5 -0.15 0 0 157 152 148 255 
-0.643421 1.62351 -0.5 -0.15 0 0 157 152 148 255 
-0.643421 1.77351 0.5 -0.15 0 0 157 152 148 255 
-0.643421 1.77351 -0.5 -0.15 0 0 157 152 148 255 
-0.643421 1.77351 0.5 -0 0.171457 0 186 180 175 255 
0.64342 1.77351 0.5 -0 0.171457 0 186 180 175 255 
0.510181 1.77351 0.366761 -0 0.171457 0 186 180 175 255 
-0.643421 1.77351 0.5 0 0.135952 0 186 180 175 255 
0.510181 1.77351 0.366761 0 0.135952 0 186 180 175 255 
-0.510182 1.77351 0.366761 0 0.135952 0 186 180 175 255 
0.64342 1.77351 0.5 0 0.133239 0 186 180 175 255 
0.64342 1.77351 -0.5 0 0.133239 0 186 180 175 255 
0.510181 1.77351 -0.366762 0 0.133239 0 186 180 175 255 
0.64342 1.77351 0.5 0 0.0977339 0 186 180 175 255 
0.510181 1.77351 -0.366762 0 0.0977339 0 186 180 175 255 
0.510181 1.77351 0.366761 0 0.0977339 0 186 180 175 255 
0.64342 1.77351 -0.5 0 0.171456 0 186 180 175 255 
-0.643421 1.77351 -0.5 0 0.171456 0 186 180 175 255 
-0.510182 1.77351 -0.366762 0 0.171456 0 186 180 175 255 
0.64342 1.77351 -0.5 0 0.135951 0 186 180 175 255 
-0.510182 1.77351 -0.366762 0 0.135951 0 186 180 175 255 
0.510181 1.77351 -0.366762 0 0.135951 0 186 180 175 255 
-0.643421 1.77351 -0.5 0 0.133239 0 186 180 175 255 
-0.643421 1.77351 0.5 0 0.133239 0 186 180 175 255 
-0.510182 1.77351 0.366761 0 0.133239 0 186 180 175 255 
-0.643421 1.77351 -0.5 0 0.0977338 0 186 180 175 255 
-0.510182 1.77351 0.366761 0 0.0977338 0 186 180 175 255 
-0.510182 1.77351 -0.366762 0 0.0977338 0 186 180 175 255 
-0.643421 1.62351 -0.5 0 -0.171456 0 141 137 133 255 
0.64342 1.62351 -0.5 0 -0.171456 0 141 137 133 255 
0.510181 1.62351 -0.366762 0 -0.171456 0 141 137 133 255 
-0.643421 1.62351 -0.5 0 -0.135951 0 141 137 133 255 
0.510181 1.62351 -0.366762 0 -0.135951 0 141 137 133 255 
-0.510182 1.62351 -0.366762 0 -0.135951 0 141 137 133 255 
0.64342 1.62351 -0.5 0 -0.133239 0 141 137 133 255 
0.64342 1.62351 0.5 0 -0.133239 0 141 137 133 255 
0.510181 1.62351 0.366761 0 -0.133239 0 141 137 133 255 
0.64342 1.62351 -0.5 0 -0.0977338 0 141 137 133 255 
0.510181 1.62351 0.366761 0 -0.0977338 0 141 137 133 255 
0.510181 1.62351 -0.366762 0 -0.0977338 0 141 137 133 255 
0.64342 1.62351 0.5 -0 -0.171457 0 141 137 133 255 
-0.643421 1.62351 0.5 -0 -0.171457 0 141 137 133 255 
-0.510182 1.62351 0.366761 -0 -0.171457 0 141 137 133 255 
0.64342 1.62351 0.5 0 -0.135952 0 141 137 133 255 
-0.510182 1.62351 0.366761 0 -0.135952 0 141 137 133 255 
0.510181 1.62351 0.366761 0 -0.135952 0 141 137 133 255 
-0.643421 1.62351 0.5 0 -0.133239 0 141 137 133 255 
-0.643421 1.62351 -0.5 0 -0.133239 0 141 137 133 255 
-0.510182 1.62351 -0.366762 0 -0.133239 0 141 137 133 255 
-0.643421 1.62351 0.5 0 -0.0977339 0 141 137 133 255 
-0.510182 1.62351 -0.366762 0 -0.0977339 0 141 137 133 255 
-0.510182 1.62351 0.366761 0 -0.0977339 0 141 137 133 255 
0.510181 1.77351 -0.366762 0 0 0.153054 157 152 148 255 
-0.510182 1.77351 -0.366762 0 0 0.153054 157 152 148 255 
-0.510182 1.62351 -0.366762 0 0 0.153054 157 152 148 255 
0.510181 1.77351 -0.366762 0 0 0.153054 157 152 148 255 
-0.510182 1.62351 -0.366762 0 0 0.153054 157 152 148 255 
0.510181 1.62351 -0.366762 0 0 0.153054 157 152 148 255 
-0.510182 1.77351 -0.366762 0.110028 0 -0 141 137 133 255 
-0.510182 1.77351 0.366761 0.110028 0 -0 141 137 133 255 
-0.510182 1.62351 0.366761 0.110028 0 -0 141 137 133 255 
-0.510182 1.77351 -0.366762 0.110028 0 0 141 137 133 255 
-0.510182 1.62351 0.366761 0.110028 0 0 141 137 133 255 
-0.510182 1.62351 -0.366762 0.110028 0 0 141 137 133 255 
0.510181 1.77351 -0.366762 -0.110028 0 0 141 137 133 255 
0.510181 1.62351 -0.366762 -0.110028 0 0 141 137 133 255 
0.510181 1.62351 0.366761 -0.110028 0 0 141 137 133 255 
0.510181 1.77351 -0.366762 -0.110028 0 0 141 137 133 255 
0.510181 1.62351 0.366761 -0.110028 0 0 141 137 133 255 
0.510181 1.77351 0.366761 -0.110028 0 0 141 137 133 255 
0.510181 1.77351 0.366761 0 -0 -0.153054 157 152 148 255 
0.510181 1.62351 0.366761 0 -0 -0.153054 157 152 148 255 
-0.510182 1.62351 0.366761 0 -0 -0.153054 157 152 148 255 
0.510181 1.77351 0.366761 -0 0 -0.153054 157 152 148 255 
-0.510182 1.62351 0.366761 -0 0 -0.153054 157 152 148 255 
-0.510182 1.77351 0.366761 -0 0 -0.153054 157 152 148 255 
0.692499 0.061909 1.63222 0 -0 0.181203 85 89 94 255 
0.692499 0.323575 1.63222 0 -0 0.181203 85 89 94 255 
0 0.323575 1.63222 0 -0 0.181203 85 89 94 255 
0.692499 0.061909 1.63222 0 0 0.181204 85 89 94 255 
0 0.323575 1.63222 0 0 0.181204 85 89 94 255 
-0.6925 0.323575 1.63222 0 0 0.181204 85 89 94 255 
0.692499 0.061909 1.63222 0 0 0.362407 85 89 94 255 
-0.6925 0.323575 1.63222 0 0 0.362407 85 89 94 255 
-0.6925 0.061909 1.63222 0 0 0.362407 85 89 94 255 
0.692499 0.323575 1.63222 0 4.52125 0 85 89 94 255 
0.692499 0.323575 -1.63222 0 4.52125 0 85 89 94 255 
-0.6925 0.323575 -1.63222 0 4.52125 0 85 89 94 255 
0.692499 0.323575 1.63222 0 4.52125 0 85 89 94 255 
-0.6925 0.323575 -1.63222 0 4.52125 0 85 89 94 255 
-0.6925 0.323575 1.63222 0 4.52125 0 85 89 94 255 
0.692499 0.323575 1.63222 0 0 0 85 89 94 255 
-0.6925 0.323575 1.63222 0 0 0 85 89 94 255 
0 0.323575 1.63222 0 0 0 85 89 94 255 
0.692499 0.323575 -1.63222 0 -0 -0.362407 85 89 94 255 
0.692499 0.061909 -1.63222 0 -0 -0.362407 85 89 94 255 
-0.6925 0.061909 -1.63222 0 -0 -0.362407 85 89 94 255 
0.692499 0.323575 -1.63222 -0 0 -0.362407 85 89 94 255 
-0.6925 0.061909 -1.63222 -0 0 -0.362407 85 89 94 255 
-0.6925 0.323575 -1.63222 -0 0 -0.362407 85 89 94 255 
0.692499 0.061909 -1.63222 0 -4.52125 0 75 72 70 255 
0.692499 0.061909 1.63222 0 -4.52125 0 75 72 70 255 
-0.6925 0.061909 1.63222 0 -4.52125 0 75 72 70 255 
0.692499 0.061909 -1.63222 0 -4.52125 0 75 72 70 255 
-0.6925 0.061909 1.63222 0 -4.52125 0 75 72 70 255 
-0.6925 0.061909 -1.63222 0 -4.52125 0 75 72 70 255 
1.15417 0 1.69412 1.30612 0 0 91 88 86 255 
1.15417 0 -1.69413 1.30612 0 0 91 88 86 255 
1.15417 0.385485 -1.69413 1.30612 0 0 91 88 86 255 
1.15417 0 1.69412 1.30612 -0 0 91 88 86 255 
1.15417 0.385485 -1.69413 1.30612 -0 0 91 88 86 255 
1.15417 0.385485 1.69412 1.30612 -0 0 91 88 86 255 
-1.15417 0 -1.69413 -1.30612 0 0 91 88 86 255 
-1.15417 0 1.69412 -1.30612 0 0 91 88 86 255 
-1.15417 0.385485 1.69412 -1.30612 0 0 91 88 86 255 
-1.15417 0 -1.69413 -0.653058 0 0 91 88 86 255 
-1.15417 0.385485 1.69412 -0.653058 0 0 91 88 86 255 
-1.15417 0.385485 0 -0.653058 0 0 91 88 86 255 
-1.15417 0 -1.69413 -0.653062 0 0 91 88 86 255 
-1.15417 0.385485 0 -0.653062 0 0 91 88 86 255 
-1.15417 0.385485 -1.69413 -0.653062 0 0 91 88 86 255 
-1.15417 0.385485 1.69412 0 2.28395e-06 0 125 121 118 255 
-0.923333 0.385485 1.69413 0 2.28395e-06 0 125 121 118 255 
-0.6925 0.385485 1.69413 0 2.28395e-06 0 125 121 118 255 
-1.15417 0.385485 1.69412 -0 1.56426 0 125 121 118 255 
-0.6925 0.385485 1.69413 -0 1.56426 0 125 121 118 255 
-0.6925 0.385485 -1.69413 -0 1.56426 0 125 121 118 255 
-1.15417 0.385485 1.69412 0 1.56425 0 125 121 118 255 
-0.6925 0.385485 -1.69413 0 1.56425 0 125 121 118 255 
-1.15417 0.385485 -1.69413 0 1.56425 0 125 121 118 255 
-1.15417 0.385485 1.69412 0 0 0 125 121 118 255 
-1.15417 0.385485 -1.69413 0 0 0 125 121 118 255 
-1.15417 0.385485 0 0 0 0 125 121 118 255 
-1.15417 0 1.69412 -3.81413e-06 0 0.177967 108 105 102 255 
-0.6925 0 1.69413 -3.81413e-06 0 0.177967 108 105 102 255 
-0.6925 0.385485 1.69413 -3.81413e-06 0 0.177967 108 105 102 255 
-1.15417 0 1.69412 0 -2.28395e-06 0.0889827 108 105 102 255 
-0.6925 0.385485 1.69413 0 -2.28395e-06 0.0889827 108 105 102 255 
-0.923333 0.385485 1.69413 0 -2.28395e-06 0.0889827 108 105 102 255 
-1.15417 0 1.69412 -3.81413e-06 0 0.0889842 108 105 102 255 
-0.923333 0.385485 1.69413 -3.81413e-06 0 0.0889842 108 105 102 255 
-1.15417 0.385485 1.69412 -3.81413e-06 0 0.0889842 108 105 102 255 
-1.15417 0 -1.69413 0 -1.56426 0 75 72 70 255 
-0.6925 0 -1.69413 0 -1.56426 0 75 72 70 255 
-0.6925 0 1.69413 0 -1.56426 0 75 72 70 255 
-1.15417 0 -1.69413 0 -1.56425 0 75 72 70 255 
-0.6925 0 1.69413 0 -1.56425 0 75 72 70 255 
-1.15417 0 1.69412 0 -1.56425 0 75 72 70 255 
-1.15417 0.385485 -1.69413 0 0 -0.177967 108 105 102 255 
-0.6925 0.385485 -1.69413 0 0 -0.177967 108 105 102 255 
-0.6925 0 -1.69413 0 0 -0.177967 108 105 102 255 
-1.15417 0.385485 -1.69413 0 0 -0.177967 108 105 102 255 
-0.6925 0 -1.69413 0 0 -0.177967 108 105 102 255 
-1.15417 0 -1.69413 0 0 -0.177967 108 105 102 255 
0.692499 0.385485 1.69412 0 0 0.177967 108 105 102 255 
0.692499 0 1.69412 0 0 0.177967 108 105 102 255 
1.15417 0 1.69412 0 0 0.177967 108 105 102 255 
0.692499 0.385485 1.69412 -0 0 0.177967 108 105 102 255 
1.15417 0 1.69412 -0 0 0.177967 108 105 102 255 
1.15417 0.385485 1.69412 -0 0 0.177967 108 105 102 255 
0.692499 0.385485 1.69412 0 0 0 108 105 102 255 
1.15417 0.385485 1.69412 0 0 0 108 105 102 255 
0.923333 0.385485 1.69412 0 0 0 108 105 102 255 
0.692499 0.385485 -1.69413 0 0.782123 0 125 121 118 255 
0.692499 0.385485 1.69412 0 0.782123 0 125 121 118 255 
0.923333 0.385485 1.69412 0 0.782123 0 125 121 118 255 
0.692499 0.385485 -1.69413 0 0.782134 0 125 121 118 255 
0.923333 0.385485 1.69412 0 0.782134 0 125 121 118 255 
1.15417 0.385485 1.69412 0 0.782134 0 125 121 118 255 
0.692499 0.385485 -1.69413 0 1.56426 0 125 121 118 255 
1.15417 0.385485 1.69412 0 1.56426 0 125 121 118 255 
1.15417 0.385485 -1.69413 0 1.56426 0 125 121 118 255 
0.692499 0 -1.69413 0 0 -0.177967 108 105 102 255 
0.692499 0.385485 -1.69413 0 0 -0.177967 108 105 102 255 
1.15417 0.385485 -1.69413 0 0 -0.177967 108 105 102 255 
0.692499 0 -1.69413 0 0 -0.177967 108 105 102 255 
1.15417 0.385485 -1.69413 0 0 -0.177967 108 105 102 255 
1.15417 0 -1.69413 0 0 -0.177967 108 105 102 255 
0.692499 0 1.69412 0 -1.56426 0 75 72 70 255 
0.692499 0 -1.69413 0 -1.56426 0 75 72 70 255 
1.15417 0 -1.69413 0 -1.56426 0 75 72 70 255 
0.692499 0 1.69412 0 -1.56426 0 75 72 70 255 
1.15417 0 -1.69413 0 -1.56426 0 75 72 70 255 
1.15417 0 1.69412 0 -1.56426 0 75 72 70 255 
0.692499 0 1.69412 -0.0238615 0 0 91 88 86 255 
0.692499 0.385485 1.69412 -0.0238615 0 0 91 88 86 255 
0.692499 0.323575 1.63222 -0.0238615 0 0 91 88 86 255 
0.692499 0 1.69412 -0.0161971 0 0 91 88 86 255 
0.692499 0.323575 1.63222 -0.0161971 0 0 91 88 86 255 
0.692499 0.061909 1.63222 -0.0161971 0 0 91 88 86 255 
-0.6925 0.385485 1.69413 0.0238653 0 0 91 88 86 255 
-0.6925 0 1.69413 0.0238653 0 0 91 88 86 255 
-0.6925 0.061909 1.63222 0.0238653 0 0 91 88 86 255 
-0.6925 0.385485 1.69413 0.0161997 0 0 91 88 86 255 
-0.6925 0.061909 1.63222 0.0161997 0 0 91 88 86 255 
-0.6925 0.323575 1.63222 0.0161997 0 0 91 88 86 255 
0.692499 0.385485 1.69412 -0.209767 0 -0 91 88 86 255 
0.692499 0.385485 -1.69413 -0.209767 0 -0 91 88 86 255 
0.692499 0.323575 -1.63222 -0.209767 0 -0 91 88 86 255 
0.692499 0.385485 1.69412 -0.202101 0 0 91 88 86 255 
0.692499 0.323575 -1.63222 -0.202101 0 0 91 88 86 255 
0.692499 0.323575 1.63222 -0.202101 0 0 91 88 86 255 
-0.6925 0.385485 -1.69413 0.209767 0 -0 91 88 86 255 
-0.6925 0.385485 1.69413 0.209767 0 -0 91 88 86 255 
-0.6925 0.323575 1.63222 0.209767 0 -0 91 88 86 255 
-0.6925 0.385485 -1.69413 0.202101 0 0 91 88 86 255 
-0.6925 0.323575 1.63222 0.202101 0 0 91 88 86 255 
-0.6925 0.323575 -1.63222 0.202101 0 0 91 88 86 255 
0.692499 0.385485 -1.69413 -0.0238653 0 0 91 88 86 255 
0.692499 0 -1.69413 -0.0238653 0 0 91 88 86 255 
0.692499 0.061909 -1.63222 -0.0238653 0 0 91 88 86 255 
0.692499 0.385485 -1.69413 -0.0161997 0 0 91 88 86 255 
0.692499 0.061909 -1.63222 -0.0161997 0 0 91 88 86 255 
0.692499 0.323575 -1.63222 -0.0161997 0 0 91 88 86 255 
-0.6925 0 -1.69413 0.0238653 0 0 91 88 86 255 
-0.6925 0.385485 -1.69413 0.0238653 0 0 91 88 86 255 
-0.6925 0.323575 -1.63222 0.0238653 0 0 91 88 86 255 
-0.6925 0 -1.69413 0.0161997 0 0 91 88 86 255 
-0.6925 0.323575 -1.63222 0.0161997 0 0 91 88 86 255 
-0.6925 0.061909 -1.63222 0.0161997 0 0 91 88 86 255 
0.692499 0 -1.69413 -0.209763 0 0 91 88 86 255 
0.692499 0 1.69412 -0.209763 0 0 91 88 86 255 
0.692499 0.061909 1.63222 -0.209763 0 0 91 88 86 255 
0.692499 0 -1.69413 -0.202098 0 0 91 88 86 255 
0.692499 0.061909 1.63222 -0.202098 0 0 91 88 86 255 
0.692499 0.061909 -1.63222 -0.202098 0 0 91 88 86 255 
-0.6925 0 1.69413 0.209764 0 0 91 88 86 255 
-0.6925 0 -1.69413 0.209764 0 0 91 88 86 255 
-0.6925 0.061909 -1.63222 0.209764 0 0 91 88 86 255 
-0.6925 0 1.69413 0.202098 0 0 91 88 86 255 
-0.6925 0.061909 -1.63222 0.202098 0 0 91 88 86 255 
-0.6925 0.061909 1.63222 0.202098 0 0 91 88 86 255 
3 0 1 2
3 3 4 5
3 6 7 8
3 9 10 11
3 12 13 14
3 15 16 17
3 18 19 20
3 21 22 23
3 24 25 26
3 27 28 29
3 30 31 32
3 33 34 35
3 36 37 38
3 39 40 41
3 42 43 44
3 45 46 47
3 48 49 50
3 51 52 53
3 54 55 56
3 57 58 59
3 60 61 62
3 63 64 65
3 66 67 68
3 69 70 71
3 72 73 74
3 75 76 77
3 78 79 80
3 81 82 83
3 84 85 86
3 87 88 89
3 90 91 92
3 93 94 95
3 96 97 98
3 99 100 101
3 102 103 104
3 105 106 107
3 108 109 110
3 111 112 113
3 114 115 116
3 117 118 119
3 120 121 122
3 123 124 125
3 126 127 128
3 129 130 131
3 132 133 134
3 135 136 137
3 138 139 140
3 141 142 143
3 144 145 146
3 147 148 149
3 150 151 152
3 153 154 155
3 156 157 158
3 159 160 161
3 162 163 164
3 165 166 167
3 168 169 170
3 171 172 173
3 174 175 176
3 177 178 179
3 180 181 182
3 183 184 185
3 186 187 188
3 189 190 191
3 192 193 194
3 195 196 197
3 198 199 200
3 201 202 203
3 204 205 206
3 207 208 209
3 210 211 212
3 213 214 215
3 216 217 218
3 219 220 221
3 222 223 224
3 225 226 227
3 228 229 230
3 231 232 233
3 234 235 236
3 237 238 239
3 240 241 242
3 243 244 245
3 246 247 248
3 249 250 251
3 252 253 254
3 255 256 257
3 258 259 260
3 261 262 263
3 264 265 266
3 267 268 269
3 270 271 272
3 273 274 275
3 276 277 278
3 279 280 281
3 282 283 284
3 285 286 287
3 288 289 290
3 291 292 293
3 294 295 296
3 297 298 299
3 300 301 302
3 303 304 305
3 306 307 308
3 309 310 311
3 312 313 314
3 315 316 317
3 318 319 320
3 321 322 323
