ply
format ascii 1.0
comment Feeney's Flatenator generated
comment TextureFile SpaceInteriors_Texture.png
element vertex 504
property float x
property float y
property float z
property float nx
property float ny
property float nz
property uchar red
property uchar green
property uchar blue
property uchar alpha
property float texture_u
property float texture_v
element face 168
property list uchar int vertex_indices
end_header
-0.815811 0.991287 0.605385 -0 0.0493191 0 157 152 148 255 0.367151 0.061667 
-0.531113 0.991287 0.605385 -0 0.0493191 0 157 152 148 255 0.367151 0.061667 
-0.531113 0.991287 0.432152 -0 0.0493191 0 157 152 148 255 0.367151 0.061667 
-0.815811 0.991287 0.605385 0 0.0493191 0 157 152 148 255 0.367151 0.061667 
-0.531113 0.991287 0.432152 0 0.0493191 0 157 152 148 255 0.367151 0.061667 
-0.815811 0.991287 0.432152 0 0.0493191 0 157 152 148 255 0.367151 0.061667 
-0.815811 0.991287 0.432152 0 0 -0.0472989 172 167 162 255 0.402016 0.061667 
-0.531113 0.991287 0.432152 0 0 -0.0472989 172 167 162 255 0.402016 0.061667 
-0.531113 0.82515 0.432152 0 0 -0.0472989 172 167 162 255 0.402016 0.061667 
-0.815811 0.991287 0.432152 0 0 -0.0472989 172 167 162 255 0.402016 0.061667 
-0.531113 0.82515 0.432152 0 0 -0.0472989 172 167 162 255 0.402016 0.061667 
-0.815811 0.82515 0.432152 0 0 -0.0472989 172 167 162 255 0.402016 0.061667 
-0.815811 0.82515 0.605385 0 0 0.0472989 125 121 118 255 0.302131 0.061667 
-0.531113 0.82515 0.605385 0 0 0.0472989 125 121 118 255 0.302131 0.061667 
-0.531113 0.991287 0.605385 0 0 0.0472989 125 121 118 255 0.302131 0.061667 
-0.815811 0.82515 0.605385 0 0 0.0472989 125 121 118 255 0.302131 0.061667 
-0.531113 0.991287 0.605385 0 0 0.0472989 125 121 118 255 0.302131 0.061667 
-0.815811 0.991287 0.605385 0 0 0.0472989 125 121 118 255 0.302131 0.061667 
-0.531113 0.991287 0.605385 0.0287804 0 0 141 137 133 255 0.335112 0.061667 
-0.531113 0.82515 0.605385 0.0287804 0 0 141 137 133 255 0.335112 0.061667 
-0.531113 0.82515 0.432152 0.0287804 0 0 141 137 133 255 0.335112 0.061667 
-0.531113 0.991287 0.605385 0.0287804 0 0 141 137 133 255 0.335112 0.061667 
-0.531113 0.82515 0.432152 0.0287804 0 0 141 137 133 255 0.335112 0.061667 
-0.531113 0.991287 0.432152 0.0287804 0 0 141 137 133 255 0.335112 0.061667 
-0.815811 0.82515 0.605385 -0.0287804 0 0 141 137 133 255 0.335112 0.061667 
-0.815811 0.991287 0.605385 -0.0287804 0 0 141 137 133 255 0.335112 0.061667 
-0.815811 0.991287 0.432152 -0.0287804 0 0 141 137 133 255 0.335112 0.061667 
-0.815811 0.82515 0.605385 -0.0287804 0 0 141 137 133 255 0.335112 0.061667 
-0.815811 0.991287 0.432152 -0.0287804 0 0 141 137 133 255 0.335112 0.061667 
-0.815811 0.82515 0.432152 -0.0287804 0 0 141 137 133 255 0.335112 0.061667 
-0.815811 0.991287 -0.406582 -0 0.0493191 0 157 152 148 255 0.367151 0.061667 
-0.531113 0.991287 -0.406582 -0 0.0493191 0 157 152 148 255 0.367151 0.061667 
-0.531113 0.991287 -0.579815 -0 0.0493191 0 157 152 148 255 0.367151 0.061667 
-0.815811 0.991287 -0.406582 0 0.0493191 0 157 152 148 255 0.367151 0.061667 
-0.531113 0.991287 -0.579815 0 0.0493191 0 157 152 148 255 0.367151 0.061667 
-0.815811 0.991287 -0.579815 0 0.0493191 0 157 152 148 255 0.367151 0.061667 
-0.815811 0.991287 -0.579815 0 0 -0.0472989 172 167 162 255 0.402016 0.061667 
-0.531113 0.991287 -0.579815 0 0 -0.0472989 172 167 162 255 0.402016 0.061667 
-0.531113 0.82515 -0.579815 0 0 -0.0472989 172 167 162 255 0.402016 0.061667 
-0.815811 0.991287 -0.579815 0 0 -0.0472989 172 167 162 255 0.402016 0.061667 
-0.531113 0.82515 -0.579815 0 0 -0.0472989 172 167 162 255 0.402016 0.061667 
-0.815811 0.82515 -0.579815 0 0 -0.0472989 172 167 162 255 0.402016 0.061667 
-0.815811 0.82515 -0.406582 0 0 0.0472989 125 121 118 255 0.302131 0.061667 
-0.531113 0.82515 -0.406582 0 0 0.0472989 125 121 118 255 0.302131 0.061667 
-0.531113 0.991287 -0.406582 0 0 0.0472989 125 121 118 255 0.302131 0.061667 
-0.815811 0.82515 -0.406582 0 0 0.0472989 125 121 118 255 0.302131 0.061667 
-0.531113 0.991287 -0.406582 0 0 0.0472989 125 121 118 255 0.302131 0.061667 
-0.815811 0.991287 -0.406582 0 0 0.0472989 125 121 118 255 0.302131 0.061667 
-0.531113 0.991287 -0.406582 0.0287804 0 0 141 137 133 255 0.335112 0.061667 
-0.531113 0.82515 -0.406582 0.0287804 0 0 141 137 133 255 0.335112 0.061667 
-0.531113 0.82515 -0.579815 0.0287804 0 0 141 137 133 255 0.335112 0.061667 
-0.531113 0.991287 -0.406582 0.0287804 0 0 141 137 133 255 0.335112 0.061667 
-0.531113 0.82515 -0.579815 0.0287804 0 0 141 137 133 255 0.335112 0.061667 
-0.531113 0.991287 -0.579815 0.0287804 0 0 141 137 133 255 0.335112 0.061667 
-0.815811 0.82515 -0.406582 -0.0287804 0 0 141 137 133 255 0.335112 0.061667 
-0.815811 0.991287 -0.406582 -0.0287804 0 0 141 137 133 255 0.335112 0.061667 
-0.815811 0.991287 -0.579815 -0.0287804 0 0 141 137 133 255 0.335112 0.061667 
-0.815811 0.82515 -0.406582 -0.0287804 0 0 141 137 133 255 0.335112 0.061667 
-0.815811 0.991287 -0.579815 -0.0287804 0 0 141 137 133 255 0.335112 0.061667 
-0.815811 0.82515 -0.579815 -0.0287804 0 0 141 137 133 255 0.335112 0.061667 
-0.300095 1.03596 0.300076 0 0 0.0534022 108 105 102 255 0.265363 0.061977 
0.300064 1.03596 0.300076 0 0 0.0534022 108 105 102 255 0.265363 0.061977 
0.300064 1.12494 0.300076 0 0 0.0534022 108 105 102 255 0.265363 0.061977 
-0.300095 1.03596 0.300076 0 0 0.0534022 108 105 102 255 0.265363 0.061977 
0.300064 1.12494 0.300076 0 0 0.0534022 108 105 102 255 0.265363 0.061977 
-0.300095 1.12494 0.300076 0 0 0.0534022 108 105 102 255 0.265363 0.061977 
-0.300095 1.12494 -0.30006 0 0 -0.0534022 108 105 102 255 0.265363 0.061977 
0.300064 1.12494 -0.30006 0 0 -0.0534022 108 105 102 255 0.265363 0.061977 
0.300064 1.03596 -0.30006 0 0 -0.0534022 108 105 102 255 0.265363 0.061977 
-0.300095 1.12494 -0.30006 0 0 -0.0534022 108 105 102 255 0.265363 0.061977 
0.300064 1.03596 -0.30006 0 0 -0.0534022 108 105 102 255 0.265363 0.061977 
-0.300095 1.03596 -0.30006 0 0 -0.0534022 108 105 102 255 0.265363 0.061977 
0.300064 1.03596 0.300076 0.0534002 0 0 91 88 86 255 0.233324 0.061977 
0.300064 1.03596 -0.30006 0.0534002 0 0 91 88 86 255 0.233324 0.061977 
0.300064 1.12494 -0.30006 0.0534002 0 0 91 88 86 255 0.233324 0.061977 
0.300064 1.03596 0.300076 0.0534002 -0 0 91 88 86 255 0.233324 0.061977 
0.300064 1.12494 -0.30006 0.0534002 -0 0 91 88 86 255 0.233324 0.061977 
0.300064 1.12494 0.300076 0.0534002 -0 0 91 88 86 255 0.233324 0.061977 
-0.300095 1.03596 -0.30006 -0.0534002 0 0 91 88 86 255 0.233324 0.061977 
-0.300095 1.03596 0.300076 -0.0534002 0 0 91 88 86 255 0.233324 0.061977 
-0.300095 1.12494 0.300076 -0.0534002 0 0 91 88 86 255 0.233324 0.061977 
-0.300095 1.03596 -0.30006 -0.0534002 0 0 91 88 86 255 0.233324 0.061977 
-0.300095 1.12494 0.300076 -0.0534002 0 0 91 88 86 255 0.233324 0.061977 
-0.300095 1.12494 -0.30006 -0.0534002 0 0 91 88 86 255 0.233324 0.061977 
-0.300095 1.12494 0.300076 -0 0.0424072 0 125 121 118 255 0.300228 0.061977 
0.300064 1.12494 0.300076 -0 0.0424072 0 125 121 118 255 0.300228 0.061977 
0.229385 1.12494 0.229416 -0 0.0424072 0 125 121 118 255 0.300228 0.061977 
-0.300095 1.12494 0.300076 0 0.032421 0 125 121 118 255 0.300228 0.061977 
0.229385 1.12494 0.229416 0 0.032421 0 125 121 118 255 0.300228 0.061977 
-0.229446 1.12494 0.229416 0 0.032421 0 125 121 118 255 0.300228 0.061977 
0.300064 1.12494 0.300076 0 0.042417 0 125 121 118 255 0.300228 0.061977 
0.300064 1.12494 -0.30006 0 0.042417 0 125 121 118 255 0.300228 0.061977 
0.229385 1.12494 -0.229404 0 0.042417 0 125 121 118 255 0.300228 0.061977 
0.300064 1.12494 0.300076 0 0.0324289 0 125 121 118 255 0.300228 0.061977 
0.229385 1.12494 -0.229404 0 0.0324289 0 125 121 118 255 0.300228 0.061977 
0.229385 1.12494 0.229416 0 0.0324289 0 125 121 118 255 0.300228 0.061977 
0.300064 1.12494 -0.30006 0 0.0424048 0 125 121 118 255 0.300228 0.061977 
-0.300095 1.12494 -0.30006 0 0.0424048 0 125 121 118 255 0.300228 0.061977 
-0.229446 1.12494 -0.229404 0 0.0424048 0 125 121 118 255 0.300228 0.061977 
0.300064 1.12494 -0.30006 0 0.0324192 0 125 121 118 255 0.300228 0.061977 
-0.229446 1.12494 -0.229404 0 0.0324192 0 125 121 118 255 0.300228 0.061977 
0.229385 1.12494 -0.229404 0 0.0324192 0 125 121 118 255 0.300228 0.061977 
-0.300095 1.12494 -0.30006 0 0.042399 0 125 121 118 255 0.300228 0.061977 
-0.300095 1.12494 0.300076 0 0.042399 0 125 121 118 255 0.300228 0.061977 
-0.229446 1.12494 0.229416 0 0.042399 0 125 121 118 255 0.300228 0.061977 
-0.300095 1.12494 -0.30006 0 0.0324152 0 125 121 118 255 0.300228 0.061977 
-0.229446 1.12494 0.229416 0 0.0324152 0 125 121 118 255 0.300228 0.061977 
-0.229446 1.12494 -0.229404 0 0.0324152 0 125 121 118 255 0.300228 0.061977 
-0.300095 1.03596 -0.30006 0 -0.0424048 0 75 72 70 255 0.200343 0.061977 
0.300064 1.03596 -0.30006 0 -0.0424048 0 75 72 70 255 0.200343 0.061977 
0.229385 1.03596 -0.229404 0 -0.0424048 0 75 72 70 255 0.200343 0.061977 
-0.300095 1.03596 -0.30006 0 -0.0324192 0 75 72 70 255 0.200343 0.061977 
0.229385 1.03596 -0.229404 0 -0.0324192 0 75 72 70 255 0.200343 0.061977 
-0.229446 1.03596 -0.229404 0 -0.0324192 0 75 72 70 255 0.200343 0.061977 
0.300064 1.03596 -0.30006 0 -0.042417 0 75 72 70 255 0.200343 0.061977 
0.300064 1.03596 0.300076 0 -0.042417 0 75 72 70 255 0.200343 0.061977 
0.229385 1.03596 0.229416 0 -0.042417 0 75 72 70 255 0.200343 0.061977 
0.300064 1.03596 -0.30006 0 -0.0324289 0 75 72 70 255 0.200343 0.061977 
0.229385 1.03596 0.229416 0 -0.0324289 0 75 72 70 255 0.200343 0.061977 
0.229385 1.03596 -0.229404 0 -0.0324289 0 75 72 70 255 0.200343 0.061977 
0.300064 1.03596 0.300076 -0 -0.0424072 0 75 72 70 255 0.200343 0.061977 
-0.300095 1.03596 0.300076 -0 -0.0424072 0 75 72 70 255 0.200343 0.061977 
-0.229446 1.03596 0.229416 -0 -0.0424072 0 75 72 70 255 0.200343 0.061977 
0.300064 1.03596 0.300076 0 -0.032421 0 75 72 70 255 0.200343 0.061977 
-0.229446 1.03596 0.229416 0 -0.032421 0 75 72 70 255 0.200343 0.061977 
0.229385 1.03596 0.229416 0 -0.032421 0 75 72 70 255 0.200343 0.061977 
-0.300095 1.03596 0.300076 0 -0.042399 0 75 72 70 255 0.200343 0.061977 
-0.300095 1.03596 -0.30006 0 -0.042399 0 75 72 70 255 0.200343 0.061977 
-0.229446 1.03596 -0.229404 0 -0.042399 0 75 72 70 255 0.200343 0.061977 
-0.300095 1.03596 0.300076 0 -0.0324152 0 75 72 70 255 0.200343 0.061977 
-0.229446 1.03596 -0.229404 0 -0.0324152 0 75 72 70 255 0.200343 0.061977 
-0.229446 1.03596 0.229416 0 -0.0324152 0 75 72 70 255 0.200343 0.061977 
0.229385 1.12494 -0.229404 0 0 0.0408268 108 105 102 255 0.270981 0.061977 
-0.229446 1.12494 -0.229404 0 0 0.0408268 108 105 102 255 0.270981 0.061977 
-0.229446 1.03596 -0.229404 0 0 0.0408268 108 105 102 255 0.270981 0.061977 
0.229385 1.12494 -0.229404 0 0 0.0408268 108 105 102 255 0.270981 0.061977 
-0.229446 1.03596 -0.229404 0 0 0.0408268 108 105 102 255 0.270981 0.061977 
0.229385 1.03596 -0.229404 0 0 0.0408268 108 105 102 255 0.270981 0.061977 
-0.229446 1.12494 -0.229404 0.0408258 0 -0 91 88 86 255 0.229481 0.061977 
-0.229446 1.12494 0.229416 0.0408258 0 -0 91 88 86 255 0.229481 0.061977 
-0.229446 1.03596 0.229416 0.0408258 0 -0 91 88 86 255 0.229481 0.061977 
-0.229446 1.12494 -0.229404 0.0408258 0 0 91 88 86 255 0.229481 0.061977 
-0.229446 1.03596 0.229416 0.0408258 0 0 91 88 86 255 0.229481 0.061977 
-0.229446 1.03596 -0.229404 0.0408258 0 0 91 88 86 255 0.229481 0.061977 
0.229385 1.12494 -0.229404 -0.0408258 0 0 91 88 86 255 0.229481 0.061977 
0.229385 1.03596 -0.229404 -0.0408258 0 0 91 88 86 255 0.229481 0.061977 
0.229385 1.03596 0.229416 -0.0408258 0 0 91 88 86 255 0.229481 0.061977 
0.229385 1.12494 -0.229404 -0.0408258 0 0 91 88 86 255 0.229481 0.061977 
0.229385 1.03596 0.229416 -0.0408258 0 0 91 88 86 255 0.229481 0.061977 
0.229385 1.12494 0.229416 -0.0408258 0 0 91 88 86 255 0.229481 0.061977 
0.229385 1.12494 0.229416 0 -0 -0.0408268 108 105 102 255 0.270981 0.061977 
0.229385 1.03596 0.229416 0 -0 -0.0408268 108 105 102 255 0.270981 0.061977 
-0.229446 1.03596 0.229416 0 -0 -0.0408268 108 105 102 255 0.270981 0.061977 
0.229385 1.12494 0.229416 -0 0 -0.0408268 108 105 102 255 0.270981 0.061977 
-0.229446 1.03596 0.229416 -0 0 -0.0408268 108 105 102 255 0.270981 0.061977 
-0.229446 1.12494 0.229416 -0 0 -0.0408268 108 105 102 255 0.270981 0.061977 
-0.879601 0.82515 0.879601 -0 0.31378 0 108 105 102 255 0.269275 0.063036 
0.879608 0.82515 0.879601 -0 0.31378 0 108 105 102 255 0.269275 0.063036 
0.701241 0.82515 0.701237 -0 0.31378 0 108 105 102 255 0.269275 0.063036 
-0.879601 0.82515 0.879601 0 0.250148 0 108 105 102 255 0.269275 0.063036 
0.701241 0.82515 0.701237 0 0.250148 0 108 105 102 255 0.269275 0.063036 
-0.701218 0.82515 0.701237 0 0.250148 0 108 105 102 255 0.269275 0.063036 
-0.034195 1.14056 0.034191 -0 0.00467302 0 125 121 118 255 0.293294 0.061973 
0.034157 1.14056 0.034191 -0 0.00467302 0 125 121 118 255 0.293294 0.061973 
0.034157 1.14056 -0.034176 -0 0.00467302 0 125 121 118 255 0.293294 0.061973 
-0.034195 1.14056 0.034191 0 0.00467302 0 125 121 118 255 0.293294 0.061973 
0.034157 1.14056 -0.034176 0 0.00467302 0 125 121 118 255 0.293294 0.061973 
-0.034195 1.14056 -0.034176 0 0.00467302 0 125 121 118 255 0.293294 0.061973 
-0.701218 0.82515 -0.701229 -0 0.250164 0 108 105 102 255 0.269275 0.063036 
0.701241 0.82515 -0.701229 -0 0.250164 0 108 105 102 255 0.269275 0.063036 
0.879608 0.82515 -0.879604 -0 0.250164 0 108 105 102 255 0.269275 0.063036 
-0.701218 0.82515 -0.701229 0 0.313799 0 108 105 102 255 0.269275 0.063036 
0.879608 0.82515 -0.879604 0 0.313799 0 108 105 102 255 0.269275 0.063036 
-0.879601 0.82515 -0.879604 0 0.313799 0 108 105 102 255 0.269275 0.063036 
-0.879601 0 -0.879604 0 -3.09481 0 58 57 55 255 0.172088 0.062686 
0.879608 0 -0.879604 0 -3.09481 0 58 57 55 255 0.172088 0.062686 
0.879608 0 0.879604 0 -3.09481 0 58 57 55 255 0.172088 0.062686 
-0.879601 0 -0.879604 0 -3.09481 0 58 57 55 255 0.172088 0.062686 
0.879608 0 0.879604 0 -3.09481 0 58 57 55 255 0.172088 0.062686 
-0.879601 0 0.879604 0 -3.09481 0 58 57 55 255 0.172088 0.062686 
0.879608 0.82515 0.879601 0 0.313784 0 108 105 102 255 0.269275 0.063036 
0.879608 0.82515 -0.879604 0 0.313784 0 108 105 102 255 0.269275 0.063036 
0.701241 0.82515 -0.701229 0 0.313784 0 108 105 102 255 0.269275 0.063036 
0.879608 0.82515 0.879601 0 0.250154 0 108 105 102 255 0.269275 0.063036 
0.701241 0.82515 -0.701229 0 0.250154 0 108 105 102 255 0.269275 0.063036 
0.701241 0.82515 0.701237 0 0.250154 0 108 105 102 255 0.269275 0.063036 
-0.879601 0.82515 -0.879604 0 0.313812 0 108 105 102 255 0.269275 0.063036 
-0.879601 0.82515 0.879601 0 0.313812 0 108 105 102 255 0.269275 0.063036 
-0.701218 0.82515 0.701237 0 0.313812 0 108 105 102 255 0.269275 0.063036 
-0.879601 0.82515 -0.879604 0 0.250176 0 108 105 102 255 0.269275 0.063036 
-0.701218 0.82515 0.701237 0 0.250176 0 108 105 102 255 0.269275 0.063036 
-0.701218 0.82515 -0.701229 0 0.250176 0 108 105 102 255 0.269275 0.063036 
-0.879601 0.577747 -0.879604 -0.435233 0 0 75 72 70 255 0.205069 0.062686 
-0.879601 0.577747 0.879601 -0.435233 0 0 75 72 70 255 0.205069 0.062686 
-0.879601 0.82515 0.879601 -0.435233 0 0 75 72 70 255 0.205069 0.062686 
-0.879601 0.577747 -0.879604 -0.435233 0 0 75 72 70 255 0.205069 0.062686 
-0.879601 0.82515 0.879601 -0.435233 0 0 75 72 70 255 0.205069 0.062686 
-0.879601 0.82515 -0.879604 -0.435233 0 0 75 72 70 255 0.205069 0.062686 
-0.879601 0.577747 0.879601 0 0 0.435234 91 88 86 255 0.237107 0.062686 
0.879608 0.577747 0.879601 0 0 0.435234 91 88 86 255 0.237107 0.062686 
0.879608 0.82515 0.879601 0 0 0.435234 91 88 86 255 0.237107 0.062686 
-0.879601 0.577747 0.879601 0 0 0.435234 91 88 86 255 0.237107 0.062686 
0.879608 0.82515 0.879601 0 0 0.435234 91 88 86 255 0.237107 0.062686 
-0.879601 0.82515 0.879601 0 0 0.435234 91 88 86 255 0.237107 0.062686 
0.879608 0.577747 0.879601 0.435233 0 0 75 72 70 255 0.205069 0.062686 
0.879608 0.577747 -0.879604 0.435233 0 0 75 72 70 255 0.205069 0.062686 
0.879608 0.82515 -0.879604 0.435233 0 0 75 72 70 255 0.205069 0.062686 
0.879608 0.577747 0.879601 0.435233 -0 0 75 72 70 255 0.205069 0.062686 
0.879608 0.82515 -0.879604 0.435233 -0 0 75 72 70 255 0.205069 0.062686 
0.879608 0.82515 0.879601 0.435233 -0 0 75 72 70 255 0.205069 0.062686 
-0.879601 0.82515 -0.879604 0 0 -0.435234 91 88 86 255 0.237107 0.062686 
0.879608 0.82515 -0.879604 0 0 -0.435234 91 88 86 255 0.237107 0.062686 
0.879608 0.577747 -0.879604 0 0 -0.435234 91 88 86 255 0.237107 0.062686 
-0.879601 0.82515 -0.879604 0 0 -0.435234 91 88 86 255 0.237107 0.062686 
0.879608 0.577747 -0.879604 0 0 -0.435234 91 88 86 255 0.237107 0.062686 
-0.879601 0.577747 -0.879604 0 0 -0.435234 91 88 86 255 0.237107 0.062686 
-0.701218 0.82515 0.701237 0 0 0.173188 91 88 86 255 0.236718 0.061667 
0.701241 0.82515 0.701237 0 0 0.173188 91 88 86 255 0.236718 0.061667 
0.701241 0.948639 0.701237 0 0 0.173188 91 88 86 255 0.236718 0.061667 
-0.701218 0.82515 0.701237 0 0 0.173188 91 88 86 255 0.236718 0.061667 
0.701241 0.948639 0.701237 0 0 0.173188 91 88 86 255 0.236718 0.061667 
-0.701218 0.948639 0.701237 0 0 0.173188 91 88 86 255 0.236718 0.061667 
-0.701218 0.82515 -0.701229 -0.173189 0 0 91 88 86 255 0.236144 0.061667 
-0.701218 0.82515 0.701237 -0.173189 0 0 91 88 86 255 0.236144 0.061667 
-0.701218 0.948639 0.701237 -0.173189 0 0 91 88 86 255 0.236144 0.061667 
-0.701218 0.82515 -0.701229 -0.173189 0 0 91 88 86 255 0.236144 0.061667 
-0.701218 0.948639 0.701237 -0.173189 0 0 91 88 86 255 0.236144 0.061667 
-0.701218 0.948639 -0.701229 -0.173189 0 0 91 88 86 255 0.236144 0.061667 
-0.701218 0.948639 -0.701229 0 0 -0.173188 91 88 86 255 0.238957 0.061667 
0.701241 0.948639 -0.701229 0 0 -0.173188 91 88 86 255 0.238957 0.061667 
0.701241 0.82515 -0.701229 0 0 -0.173188 91 88 86 255 0.238957 0.061667 
-0.701218 0.948639 -0.701229 0 0 -0.173188 91 88 86 255 0.238957 0.061667 
0.701241 0.82515 -0.701229 0 0 -0.173188 91 88 86 255 0.238957 0.061667 
-0.701218 0.82515 -0.701229 0 0 -0.173188 91 88 86 255 0.238957 0.061667 
0.701241 0.82515 0.701237 0.173189 0 0 91 88 86 255 0.236144 0.061667 
0.701241 0.82515 -0.701229 0.173189 0 0 91 88 86 255 0.236143 0.061667 
0.701241 0.948639 -0.701229 0.173189 0 0 91 88 86 255 0.236143 0.061667 
0.701241 0.82515 0.701237 0.173189 -0 0 91 88 86 255 0.236144 0.061667 
0.701241 0.948639 -0.701229 0.173189 -0 0 91 88 86 255 0.236143 0.061667 
0.701241 0.948639 0.701237 0.173189 -0 0 91 88 86 255 0.236144 0.061667 
-0.701218 0.948639 0.701237 -0 0.859841 0 108 105 102 255 0.920264 0.639789 
0.701241 0.948639 0.701237 -0 0.859841 0 108 105 102 255 0.991121 0.639789 
0.08812 0.948639 0.088142 -0 0.859841 0 143 136 130 255 0.960144 0.667547 
-0.701218 0.948639 0.701237 0 0.10807 0 108 105 102 255 0.920264 0.639789 
0.08812 0.948639 0.088142 0 0.10807 0 143 136 130 255 0.960144 0.667547 
-0.08815 0.948639 0.088142 0 0.10807 0 143 136 130 255 0.951238 0.667547 
0.701241 0.948639 0.701237 0 0.859881 0 108 105 102 255 0.991121 0.639789 
0.701241 0.948639 -0.701229 0 0.859881 0 108 105 102 255 0.991121 0.703285 
0.08812 0.948639 -0.088135 0 0.859881 0 143 136 130 255 0.960144 0.675527 
0.701241 0.948639 0.701237 0 0.108079 0 108 105 102 255 0.991121 0.639789 
0.08812 0.948639 -0.088135 0 0.108079 0 143 136 130 255 0.960144 0.675527 
0.08812 0.948639 0.088142 0 0.108079 0 143 136 130 255 0.960144 0.667547 
0.701241 0.948639 -0.701229 0 0.859839 0 108 105 102 255 0.991121 0.703285 
-0.701218 0.948639 -0.701229 0 0.859839 0 108 105 102 255 0.920264 0.703285 
-0.08815 0.948639 -0.088135 0 0.859839 0 143 136 130 255 0.951238 0.675527 
0.701241 0.948639 -0.701229 0 0.10807 0 108 105 102 255 0.991121 0.703285 
-0.08815 0.948639 -0.088135 0 0.10807 0 143 136 130 255 0.951238 0.675527 
0.08812 0.948639 -0.088135 0 0.10807 0 143 136 130 255 0.960144 0.675527 
-0.701218 0.948639 -0.701229 0 0.859807 0 108 105 102 255 0.920264 0.703285 
-0.701218 0.948639 0.701237 0 0.859807 0 108 105 102 255 0.920264 0.639789 
-0.08815 0.948639 0.088142 0 0.859807 0 143 136 130 255 0.951238 0.667547 
-0.701218 0.948639 -0.701229 0 0.10807 0 108 105 102 255 0.920264 0.703285 
-0.08815 0.948639 0.088142 0 0.10807 0 143 136 130 255 0.951238 0.667547 
-0.08815 0.948639 -0.088135 0 0.10807 0 143 136 130 255 0.951238 0.675527 
0.08812 0.948639 0.088142 0 0.00372818 0.0109834 91 88 86 255 0.230297 0.061973 
0.052872 1.05247 0.052898 0 0.00372818 0.0109834 91 88 86 255 0.230297 0.061973 
-0.05291 1.05247 0.052898 0 0.00372818 0.0109834 91 88 86 255 0.230297 0.061973 
0.08812 0.948639 0.088142 0 0.00621246 0.0183023 91 88 86 255 0.230297 0.061973 
-0.05291 1.05247 0.052898 0 0.00621246 0.0183023 91 88 86 255 0.230297 0.061973 
-0.08815 0.948639 0.088142 0 0.00621246 0.0183023 91 88 86 255 0.230297 0.061973 
0.08812 0.948639 -0.088135 0.0109842 0.00372885 0 75 72 70 255 0.193207 0.061973 
0.052872 1.05247 -0.052891 0.0109842 0.00372885 0 75 72 70 255 0.193207 0.061973 
0.052872 1.05247 0.052898 0.0109842 0.00372885 0 75 72 70 255 0.193207 0.061973 
0.08812 0.948639 -0.088135 0.018303 0.00621341 -0 75 72 70 255 0.193207 0.061973 
0.052872 1.05247 0.052898 0.018303 0.00621341 -0 75 72 70 255 0.193207 0.061973 
0.08812 0.948639 0.088142 0.018303 0.00621341 -0 75 72 70 255 0.193207 0.061973 
-0.08815 0.948639 -0.088135 0 0.00372818 -0.0109834 91 88 86 255 0.230297 0.061973 
-0.05291 1.05247 -0.052891 0 0.00372818 -0.0109834 91 88 86 255 0.230297 0.061973 
0.052872 1.05247 -0.052891 0 0.00372818 -0.0109834 91 88 86 255 0.230297 0.061973 
-0.08815 0.948639 -0.088135 0 0.00621246 -0.0183023 91 88 86 255 0.230297 0.061973 
0.052872 1.05247 -0.052891 0 0.00621246 -0.0183023 91 88 86 255 0.230297 0.061973 
0.08812 0.948639 -0.088135 0 0.00621246 -0.0183023 91 88 86 255 0.230297 0.061973 
-0.08815 0.948639 0.088142 -0.0109842 0.003728 0 75 72 70 255 0.193207 0.061973 
-0.05291 1.05247 0.052898 -0.0109842 0.003728 0 75 72 70 255 0.193207 0.061973 
-0.05291 1.05247 -0.052891 -0.0109842 0.003728 0 75 72 70 255 0.193207 0.061973 
-0.08815 0.948639 0.088142 -0.018303 0.006212 0 75 72 70 255 0.193207 0.061973 
-0.05291 1.05247 -0.052891 -0.018303 0.006212 0 75 72 70 255 0.193207 0.061973 
-0.08815 0.948639 -0.088135 -0.018303 0.006212 0 75 72 70 255 0.193207 0.061973 
-0.05291 1.11301 0.052898 -0 0.00197886 0.00291429 91 88 86 255 0.230297 0.061973 
0.052872 1.11301 0.052898 -0 0.00197886 0.00291429 91 88 86 255 0.230297 0.061973 
0.034157 1.14056 0.034191 -0 0.00197886 0.00291429 91 88 86 255 0.230297 0.061973 
-0.05291 1.11301 0.052898 0 0.00127866 0.0018831 91 88 86 255 0.230297 0.061973 
0.034157 1.14056 0.034191 0 0.00127866 0.0018831 91 88 86 255 0.230297 0.061973 
-0.034195 1.14056 0.034191 0 0.00127866 0.0018831 91 88 86 255 0.230297 0.061973 
-0.05291 1.11301 -0.052891 -0.00291449 0.00197984 0 75 72 70 255 0.193207 0.061973 
-0.05291 1.11301 0.052898 -0.00291449 0.00197984 0 75 72 70 255 0.193207 0.061973 
-0.034195 1.14056 0.034191 -0.00291449 0.00197984 0 75 72 70 255 0.193207 0.061973 
-0.05291 1.11301 -0.052891 -0.00188351 0.00127949 0 75 72 70 255 0.193207 0.061973 
-0.034195 1.14056 0.034191 -0.00188351 0.00127949 0 75 72 70 255 0.193207 0.061973 
-0.034195 1.14056 -0.034176 -0.00188351 0.00127949 0 75 72 70 255 0.193207 0.061973 
0.052872 1.11301 -0.052891 0 0.00197971 -0.00291429 91 88 86 255 0.230297 0.061973 
-0.05291 1.11301 -0.052891 0 0.00197971 -0.00291429 91 88 86 255 0.230297 0.061973 
-0.034195 1.14056 -0.034176 0 0.00197971 -0.00291429 91 88 86 255 0.230297 0.061973 
0.052872 1.11301 -0.052891 0 0.00127921 -0.0018831 91 88 86 255 0.230297 0.061973 
-0.034195 1.14056 -0.034176 0 0.00127921 -0.0018831 91 88 86 255 0.230297 0.061973 
0.034157 1.14056 -0.034176 0 0.00127921 -0.0018831 91 88 86 255 0.230297 0.061973 
0.052872 1.11301 0.052898 0.00291449 0.00197984 0 75 72 70 255 0.193207 0.061973 
0.052872 1.11301 -0.052891 0.00291449 0.00197984 0 75 72 70 255 0.193207 0.061973 
0.034157 1.14056 -0.034176 0.00291449 0.00197984 0 75 72 70 255 0.193207 0.061973 
0.052872 1.11301 0.052898 0.00188351 0.00127949 0 75 72 70 255 0.193207 0.061973 
0.034157 1.14056 -0.034176 0.00188351 0.00127949 0 75 72 70 255 0.193207 0.061973 
0.034157 1.14056 0.034191 0.00188351 0.00127949 0 75 72 70 255 0.193207 0.061973 
-0.05291 1.05247 -0.052891 0 -0.0186732 0 75 72 70 255 0.193207 0.061973 
-0.05291 1.05247 0.052898 0 -0.0186732 0 75 72 70 255 0.193207 0.061973 
-0.229424 1.05247 0.052898 0 -0.0186732 0 75 72 70 255 0.193207 0.061973 
-0.05291 1.05247 -0.052891 0 -0.0186732 0 75 72 70 255 0.193207 0.061973 
-0.229424 1.05247 0.052898 0 -0.0186732 0 75 72 70 255 0.193207 0.061973 
-0.229424 1.05247 -0.052891 0 -0.0186732 0 75 72 70 255 0.193207 0.061973 
-0.05291 1.05247 0.052898 0 -0 0.0106862 91 88 86 255 0.231366 0.061973 
-0.05291 1.11301 0.052898 0 -0 0.0106862 91 88 86 255 0.231366 0.061973 
-0.229424 1.11301 0.052898 0 -0 0.0106862 91 88 86 255 0.231366 0.061973 
-0.05291 1.05247 0.052898 0 0 0.0106862 91 88 86 255 0.231366 0.061973 
-0.229424 1.11301 0.052898 0 0 0.0106862 91 88 86 255 0.231366 0.061973 
-0.229424 1.05247 0.052898 0 0 0.0106862 91 88 86 255 0.231366 0.061973 
-0.05291 1.11301 0.052898 0 0.0186732 0 125 121 118 255 0.294796 0.061971 
-0.05291 1.11301 -0.052891 0 0.0186732 0 125 121 118 255 0.294796 0.061971 
-0.229424 1.11301 -0.052891 0 0.0186732 0 125 121 118 255 0.294796 0.061971 
-0.05291 1.11301 0.052898 0 0.0186732 0 125 121 118 255 0.294796 0.061971 
-0.229424 1.11301 -0.052891 0 0.0186732 0 125 121 118 255 0.294796 0.061971 
-0.229424 1.11301 0.052898 0 0.0186732 0 125 121 118 255 0.294796 0.061971 
-0.05291 1.11301 -0.052891 0 -0 -0.0106862 91 88 86 255 0.231366 0.061973 
-0.05291 1.05247 -0.052891 0 -0 -0.0106862 91 88 86 255 0.231366 0.061973 
-0.229424 1.05247 -0.052891 0 -0 -0.0106862 91 88 86 255 0.231366 0.061973 
-0.05291 1.11301 -0.052891 -0 0 -0.0106862 91 88 86 255 0.231366 0.061973 
-0.229424 1.05247 -0.052891 -0 0 -0.0106862 91 88 86 255 0.231366 0.061973 
-0.229424 1.11301 -0.052891 -0 0 -0.0106862 91 88 86 255 0.231366 0.061973 
0.052872 1.05247 0.052898 0 -0.0186731 0 75 72 70 255 0.193207 0.061973 
0.052872 1.05247 -0.052891 0 -0.0186731 0 75 72 70 255 0.193207 0.061973 
0.229385 1.05247 -0.052891 0 -0.0186731 0 75 72 70 255 0.193207 0.061973 
0.052872 1.05247 0.052898 0 -0.0186731 0 75 72 70 255 0.193207 0.061973 
0.229385 1.05247 -0.052891 0 -0.0186731 0 75 72 70 255 0.193207 0.061973 
0.229385 1.05247 0.052898 0 -0.0186731 0 75 72 70 255 0.193207 0.061973 
0.052872 1.05247 -0.052891 0 0 -0.0106861 91 88 86 255 0.231366 0.061973 
0.052872 1.11301 -0.052891 0 0 -0.0106861 91 88 86 255 0.231366 0.061973 
0.229385 1.11301 -0.052891 0 0 -0.0106861 91 88 86 255 0.231366 0.061973 
0.052872 1.05247 -0.052891 0 0 -0.0106861 91 88 86 255 0.231366 0.061973 
0.229385 1.11301 -0.052891 0 0 -0.0106861 91 88 86 255 0.231366 0.061973 
0.229385 1.05247 -0.052891 0 0 -0.0106861 91 88 86 255 0.231366 0.061973 
0.052872 1.11301 -0.052891 0 0.0186731 0 125 121 118 255 0.294796 0.061971 
0.052872 1.11301 0.052898 0 0.0186731 0 125 121 118 255 0.294796 0.061971 
0.229385 1.11301 0.052898 0 0.0186731 0 125 121 118 255 0.294796 0.061971 
0.052872 1.11301 -0.052891 0 0.0186731 0 125 121 118 255 0.294796 0.061971 
0.229385 1.11301 0.052898 0 0.0186731 0 125 121 118 255 0.294796 0.061971 
0.229385 1.11301 -0.052891 0 0.0186731 0 125 121 118 255 0.294796 0.061971 
0.052872 1.11301 0.052898 0 0 0.0106861 91 88 86 255 0.231366 0.061973 
0.052872 1.05247 0.052898 0 0 0.0106861 91 88 86 255 0.231366 0.061973 
0.229385 1.05247 0.052898 0 0 0.0106861 91 88 86 255 0.231366 0.061973 
0.052872 1.11301 0.052898 -0 0 0.0106861 91 88 86 255 0.231366 0.061973 
0.229385 1.05247 0.052898 -0 0 0.0106861 91 88 86 255 0.231366 0.061973 
0.229385 1.11301 0.052898 -0 0 0.0106861 91 88 86 255 0.231366 0.061973 
-0.05291 1.05247 0.052898 0 -0.0186724 0 91 88 86 255 0.230297 0.061973 
0.052872 1.05247 0.052898 0 -0.0186724 0 91 88 86 255 0.230297 0.061973 
0.052872 1.05247 0.229416 0 -0.0186724 0 91 88 86 255 0.230297 0.061973 
-0.05291 1.05247 0.052898 0 -0.0186724 0 91 88 86 255 0.230297 0.061973 
0.052872 1.05247 0.229416 0 -0.0186724 0 91 88 86 255 0.230297 0.061973 
-0.05291 1.05247 0.229416 0 -0.0186724 0 91 88 86 255 0.230297 0.061973 
0.052872 1.05247 0.052898 0.0106864 0 0 75 72 70 255 0.198871 0.061973 
0.052872 1.11301 0.052898 0.0106864 0 0 75 72 70 255 0.198871 0.061973 
0.052872 1.11301 0.229416 0.0106864 0 0 75 72 70 255 0.198871 0.061973 
0.052872 1.05247 0.052898 0.0106864 0 0 75 72 70 255 0.198871 0.061973 
0.052872 1.11301 0.229416 0.0106864 0 0 75 72 70 255 0.198871 0.061973 
0.052872 1.05247 0.229416 0.0106864 0 0 75 72 70 255 0.198871 0.061973 
0.052872 1.11301 0.052898 0 0.0186724 0 125 121 118 255 0.294796 0.061971 
-0.05291 1.11301 0.052898 0 0.0186724 0 125 121 118 255 0.294796 0.061971 
-0.05291 1.11301 0.229416 0 0.0186724 0 125 121 118 255 0.294796 0.061971 
0.052872 1.11301 0.052898 0 0.0186724 -0 125 121 118 255 0.294796 0.061971 
-0.05291 1.11301 0.229416 0 0.0186724 -0 125 121 118 255 0.294796 0.061971 
0.052872 1.11301 0.229416 0 0.0186724 -0 125 121 118 255 0.294796 0.061971 
-0.05291 1.11301 0.052898 -0.0106864 0 0 75 72 70 255 0.198871 0.061973 
-0.05291 1.05247 0.052898 -0.0106864 0 0 75 72 70 255 0.198871 0.061973 
-0.05291 1.05247 0.229416 -0.0106864 0 0 75 72 70 255 0.198871 0.061973 
-0.05291 1.11301 0.052898 -0.0106864 0 0 75 72 70 255 0.198871 0.061973 
-0.05291 1.05247 0.229416 -0.0106864 0 0 75 72 70 255 0.198871 0.061973 
-0.05291 1.11301 0.229416 -0.0106864 0 0 75 72 70 255 0.198871 0.061973 
0.052872 1.05247 -0.052891 -0 -0.0186719 0 91 88 86 255 0.230297 0.061973 
-0.05291 1.05247 -0.052891 -0 -0.0186719 0 91 88 86 255 0.230297 0.061973 
-0.05291 1.05247 -0.229404 -0 -0.0186719 0 91 88 86 255 0.230297 0.061973 
0.052872 1.05247 -0.052891 0 -0.0186719 -0 91 88 86 255 0.230297 0.061973 
-0.05291 1.05247 -0.229404 0 -0.0186719 -0 91 88 86 255 0.230297 0.061973 
0.052872 1.05247 -0.229404 0 -0.0186719 -0 91 88 86 255 0.230297 0.061973 
-0.05291 1.05247 -0.052891 -0.0106861 0 0 75 72 70 255 0.198871 0.061973 
-0.05291 1.11301 -0.052891 -0.0106861 0 0 75 72 70 255 0.198871 0.061973 
-0.05291 1.11301 -0.229404 -0.0106861 0 0 75 72 70 255 0.198871 0.061973 
-0.05291 1.05247 -0.052891 -0.0106861 0 0 75 72 70 255 0.198871 0.061973 
-0.05291 1.11301 -0.229404 -0.0106861 0 0 75 72 70 255 0.198871 0.061973 
-0.05291 1.05247 -0.229404 -0.0106861 0 0 75 72 70 255 0.198871 0.061973 
-0.05291 1.11301 -0.052891 -0 0.0186719 0 125 121 118 255 0.294796 0.061971 
0.052872 1.11301 -0.052891 -0 0.0186719 0 125 121 118 255 0.294796 0.061971 
0.052872 1.11301 -0.229404 -0 0.0186719 0 125 121 118 255 0.294796 0.061971 
-0.05291 1.11301 -0.052891 0 0.0186719 0 125 121 118 255 0.294796 0.061971 
0.052872 1.11301 -0.229404 0 0.0186719 0 125 121 118 255 0.294796 0.061971 
-0.05291 1.11301 -0.229404 0 0.0186719 0 125 121 118 255 0.294796 0.061971 
0.052872 1.11301 -0.052891 0.0106861 0 0 75 72 70 255 0.198871 0.061973 
0.052872 1.05247 -0.052891 0.0106861 0 0 75 72 70 255 0.198871 0.061973 
0.052872 1.05247 -0.229404 0.0106861 0 0 75 72 70 255 0.198871 0.061973 
0.052872 1.11301 -0.052891 0.0106861 0 0 75 72 70 255 0.198871 0.061973 
0.052872 1.05247 -0.229404 0.0106861 0 0 75 72 70 255 0.198871 0.061973 
0.052872 1.11301 -0.229404 0.0106861 0 0 75 72 70 255 0.198871 0.061973 
-0.830437 0.577747 -0.830444 0 0 -0.478108 75 72 70 255 0.199963 0.062686 
0.830444 0.577747 -0.830444 0 0 -0.478108 75 72 70 255 0.199963 0.062686 
0.830444 0.289883 -0.830444 0 0 -0.478108 75 72 70 255 0.199963 0.062686 
-0.830437 0.577747 -0.830444 0 0 -0.478108 75 72 70 255 0.199963 0.062686 
0.830444 0.289883 -0.830444 0 0 -0.478108 75 72 70 255 0.199963 0.062686 
-0.830437 0.289883 -0.830444 0 0 -0.478108 75 72 70 255 0.199963 0.062686 
-0.830437 0.289883 -0.830444 -0.478109 0 0 58 57 55 255 0.167925 0.062686 
-0.830437 0.289883 0.830441 -0.478109 0 0 58 57 55 255 0.167925 0.062686 
-0.830437 0.577747 0.830437 -0.478109 0 0 58 57 55 255 0.167925 0.062686 
-0.830437 0.289883 -0.830444 -0.478108 0 0 58 57 55 255 0.167925 0.062686 
-0.830437 0.577747 0.830437 -0.478108 0 0 58 57 55 255 0.167925 0.062686 
-0.830437 0.577747 -0.830444 -0.478108 0 0 58 57 55 255 0.167925 0.062686 
-0.830437 0.289883 0.830441 -0 6.63275e-06 0.478108 75 72 70 255 0.199963 0.062686 
0.830444 0.289883 0.830441 -0 6.63275e-06 0.478108 75 72 70 255 0.199963 0.062686 
0.830444 0.577747 0.830437 -0 6.63275e-06 0.478108 75 72 70 255 0.199963 0.062686 
-0.830437 0.289883 0.830441 0 6.63275e-06 0.478108 75 72 70 255 0.199963 0.062686 
0.830444 0.577747 0.830437 0 6.63275e-06 0.478108 75 72 70 255 0.199963 0.062686 
-0.830437 0.577747 0.830437 0 6.63275e-06 0.478108 75 72 70 255 0.199963 0.062686 
0.830444 0.289883 0.830441 0.478109 0 0 58 57 55 255 0.167925 0.062686 
0.830444 0.289883 -0.830444 0.478109 0 0 58 57 55 255 0.167925 0.062686 
0.830444 0.577747 -0.830444 0.478109 0 0 58 57 55 255 0.167925 0.062686 
0.830444 0.289883 0.830441 0.478108 0 0 58 57 55 255 0.167925 0.062686 
0.830444 0.577747 -0.830444 0.478108 0 0 58 57 55 255 0.167925 0.062686 
0.830444 0.577747 0.830437 0.478108 0 0 58 57 55 255 0.167925 0.062686 
-0.879601 0.289883 -0.879604 0 0 -0.509965 91 88 86 255 0.237107 0.062686 
0.879608 0.289883 -0.879604 0 0 -0.509965 91 88 86 255 0.237107 0.062686 
0.879608 0 -0.879604 0 0 -0.509965 91 88 86 255 0.237107 0.062686 
-0.879601 0.289883 -0.879604 0 0 -0.509965 91 88 86 255 0.237107 0.062686 
0.879608 0 -0.879604 0 0 -0.509965 91 88 86 255 0.237107 0.062686 
-0.879601 0 -0.879604 0 0 -0.509965 91 88 86 255 0.237107 0.062686 
-0.879601 0 -0.879604 -0.509964 0 0 75 72 70 255 0.205069 0.062686 
-0.879601 0 0.879604 -0.509964 0 0 75 72 70 255 0.205069 0.062686 
-0.879601 0.289883 0.879604 -0.509964 0 0 75 72 70 255 0.205069 0.062686 
-0.879601 0 -0.879604 -0.509964 0 0 75 72 70 255 0.205069 0.062686 
-0.879601 0.289883 0.879604 -0.509964 0 0 75 72 70 255 0.205069 0.062686 
-0.879601 0.289883 -0.879604 -0.509964 0 0 75 72 70 255 0.205069 0.062686 
-0.879601 0 0.879604 0 0 0.509965 91 88 86 255 0.237107 0.062686 
0.879608 0 0.879604 0 0 0.509965 91 88 86 255 0.237107 0.062686 
0.879608 0.289883 0.879604 0 0 0.509965 91 88 86 255 0.237107 0.062686 
-0.879601 0 0.879604 0 0 0.509965 91 88 86 255 0.237107 0.062686 
0.879608 0.289883 0.879604 0 0 0.509965 91 88 86 255 0.237107 0.062686 
-0.879601 0.289883 0.879604 0 0 0.509965 91 88 86 255 0.237107 0.062686 
0.879608 0 0.879604 0.509964 0 0 75 72 70 255 0.205069 0.062686 
0.879608 0 -0.879604 0.509964 0 0 75 72 70 255 0.205069 0.062686 
0.879608 0.289883 -0.879604 0.509964 0 0 75 72 70 255 0.205069 0.062686 
0.879608 0 0.879604 0.509964 -0 0 75 72 70 255 0.205069 0.062686 
0.879608 0.289883 -0.879604 0.509964 -0 0 75 72 70 255 0.205069 0.062686 
0.879608 0.289883 0.879604 0.509964 -0 0 75 72 70 255 0.205069 0.062686 
-0.879601 0.577747 -0.879604 0 -0.0864827 0 58 57 55 255 0.171928 0.060914 
0.879608 0.577747 -0.879604 0 -0.0864827 0 58 57 55 255 0.171928 0.060914 
0.830444 0.577747 -0.830444 0 -0.0864827 0 58 57 55 255 0.171928 0.060914 
-0.879601 0.577747 -0.879604 0 -0.0816489 0 58 57 55 255 0.171928 0.060914 
0.830444 0.577747 -0.830444 0 -0.0816489 0 58 57 55 255 0.171928 0.060914 
-0.830437 0.577747 -0.830444 0 -0.0816489 0 58 57 55 255 0.171928 0.060914 
0.879608 0.289883 -0.879604 0 0.0864827 0 108 105 102 255 0.266222 0.0652 
-0.879601 0.289883 -0.879604 0 0.0864827 0 108 105 102 255 0.266222 0.0652 
-0.830437 0.289883 -0.830444 0 0.0864827 0 108 105 102 255 0.266222 0.0652 
0.879608 0.289883 -0.879604 0 0.0816489 0 108 105 102 255 0.266222 0.0652 
-0.830437 0.289883 -0.830444 0 0.0816489 0 108 105 102 255 0.266222 0.0652 
0.830444 0.289883 -0.830444 0 0.0816489 0 108 105 102 255 0.266222 0.0652 
-0.879601 0.289883 -0.879604 0 0.0864897 0 108 105 102 255 0.266222 0.0652 
-0.879601 0.289883 0.879604 0 0.0864897 0 108 105 102 255 0.266222 0.0652 
-0.830437 0.289883 0.830441 0 0.0864897 0 108 105 102 255 0.266222 0.0652 
-0.879601 0.289883 -0.879604 0 0.0816557 0 108 105 102 255 0.266222 0.0652 
-0.830437 0.289883 0.830441 0 0.0816557 0 108 105 102 255 0.266222 0.0652 
-0.830437 0.289883 -0.830444 0 0.0816557 0 108 105 102 255 0.266222 0.0652 
-0.879601 0.577747 0.879601 0 -0.0864896 0 58 57 55 255 0.171928 0.060914 
-0.879601 0.577747 -0.879604 0 -0.0864896 0 58 57 55 255 0.171928 0.060914 
-0.830437 0.577747 -0.830444 0 -0.0864896 0 58 57 55 255 0.171928 0.060914 
-0.879601 0.577747 0.879601 0 -0.0816555 0 58 57 55 255 0.171928 0.060914 
-0.830437 0.577747 -0.830444 0 -0.0816555 0 58 57 55 255 0.171928 0.060914 
-0.830437 0.577747 0.830437 0 -0.0816555 0 58 57 55 255 0.171928 0.060914 
-0.879601 0.289883 0.879604 -0 0.086488 0 108 105 102 255 0.266222 0.0652 
0.879608 0.289883 0.879604 -0 0.086488 0 108 105 102 255 0.266222 0.0652 
0.830444 0.289883 0.830441 -0 0.086488 0 108 105 102 255 0.266222 0.0652 
-0.879601 0.289883 0.879604 0 0.0816539 0 108 105 102 255 0.266222 0.0652 
0.830444 0.289883 0.830441 0 0.0816539 0 108 105 102 255 0.266222 0.0652 
-0.830437 0.289883 0.830441 0 0.0816539 0 108 105 102 255 0.266222 0.0652 
0.879608 0.577747 0.879601 -0 -0.0864897 0 58 57 55 255 0.171928 0.060914 
-0.879601 0.577747 0.879601 -0 -0.0864897 0 58 57 55 255 0.171928 0.060914 
-0.830437 0.577747 0.830437 -0 -0.0864897 0 58 57 55 255 0.171928 0.060914 
0.879608 0.577747 0.879601 0 -0.0816555 0 58 57 55 255 0.171928 0.060914 
-0.830437 0.577747 0.830437 0 -0.0816555 0 58 57 55 255 0.171928 0.060914 
0.830444 0.577747 0.830437 0 -0.0816555 0 58 57 55 255 0.171928 0.060914 
0.879608 0.289883 0.879604 0 0.0864897 0 108 105 102 255 0.266222 0.0652 
0.879608 0.289883 -0.879604 0 0.0864897 0 108 105 102 255 0.266222 0.0652 
0.830444 0.289883 -0.830444 0 0.0864897 0 108 105 102 255 0.266222 0.0652 
0.879608 0.289883 0.879604 0 0.0816557 0 108 105 102 255 0.266222 0.0652 
0.830444 0.289883 -0.830444 0 0.0816557 0 108 105 102 255 0.266222 0.0652 
0.830444 0.289883 0.830441 0 0.0816557 0 108 105 102 255 0.266222 0.0652 
0.879608 0.577747 -0.879604 0 -0.0864896 0 58 57 55 255 0.171928 0.060914 
0.879608 0.577747 0.879601 0 -0.0864896 0 58 57 55 255 0.171928 0.060914 
0.830444 0.577747 0.830437 0 -0.0864896 0 58 57 55 255 0.171928 0.060914 
0.879608 0.577747 -0.879604 0 -0.0816556 0 58 57 55 255 0.171928 0.060914 
0.830444 0.577747 0.830437 0 -0.0816556 0 58 57 55 255 0.171928 0.060914 
0.830444 0.577747 -0.830444 0 -0.0816556 0 58 57 55 255 0.171928 0.060914 
3 0 1 2
3 3 4 5
3 6 7 8
3 9 10 11
3 12 13 14
3 15 16 17
3 18 19 20
3 21 22 23
3 24 25 26
3 27 28 29
3 30 31 32
3 33 34 35
3 36 37 38
3 39 40 41
3 42 43 44
3 45 46 47
3 48 49 50
3 51 52 53
3 54 55 56
3 57 58 59
3 60 61 62
3 63 64 65
3 66 67 68
3 69 70 71
3 72 73 74
3 75 76 77
3 78 79 80
3 81 82 83
3 84 85 86
3 87 88 89
3 90 91 92
3 93 94 95
3 96 97 98
3 99 100 101
3 102 103 104
3 105 106 107
3 108 109 110
3 111 112 113
3 114 115 116
3 117 118 119
3 120 121 122
3 123 124 125
3 126 127 128
3 129 130 131
3 132 133 134
3 135 136 137
3 138 139 140
3 141 142 143
3 144 145 146
3 147 148 149
3 150 151 152
3 153 154 155
3 156 157 158
3 159 160 161
3 162 163 164
3 165 166 167
3 168 169 170
3 171 172 173
3 174 175 176
3 177 178 179
3 180 181 182
3 183 184 185
3 186 187 188
3 189 190 191
3 192 193 194
3 195 196 197
3 198 199 200
3 201 202 203
3 204 205 206
3 207 208 209
3 210 211 212
3 213 214 215
3 216 217 218
3 219 220 221
3 222 223 224
3 225 226 227
3 228 229 230
3 231 232 233
3 234 235 236
3 237 238 239
3 240 241 242
3 243 244 245
3 246 247 248
3 249 250 251
3 252 253 254
3 255 256 257
3 258 259 260
3 261 262 263
3 264 265 266
3 267 268 269
3 270 271 272
3 273 274 275
3 276 277 278
3 279 280 281
3 282 283 284
3 285 286 287
3 288 289 290
3 291 292 293
3 294 295 296
3 297 298 299
3 300 301 302
3 303 304 305
3 306 307 308
3 309 310 311
3 312 313 314
3 315 316 317
3 318 319 320
3 321 322 323
3 324 325 326
3 327 328 329
3 330 331 332
3 333 334 335
3 336 337 338
3 339 340 341
3 342 343 344
3 345 346 347
3 348 349 350
3 351 352 353
3 354 355 356
3 357 358 359
3 360 361 362
3 363 364 365
3 366 367 368
3 369 370 371
3 372 373 374
3 375 376 377
3 378 379 380
3 381 382 383
3 384 385 386
3 387 388 389
3 390 391 392
3 393 394 395
3 396 397 398
3 399 400 401
3 402 403 404
3 405 406 407
3 408 409 410
3 411 412 413
3 414 415 416
3 417 418 419
3 420 421 422
3 423 424 425
3 426 427 428
3 429 430 431
3 432 433 434
3 435 436 437
3 438 439 440
3 441 442 443
3 444 445 446
3 447 448 449
3 450 451 452
3 453 454 455
3 456 457 458
3 459 460 461
3 462 463 464
3 465 466 467
3 468 469 470
3 471 472 473
3 474 475 476
3 477 478 479
3 480 481 482
3 483 484 485
3 486 487 488
3 489 490 491
3 492 493 494
3 495 496 497
3 498 499 500
3 501 502 503
