ply
format ascii 1.0
comment Feeney's Flatenator generated
comment TextureFile SpaceInteriors_Texture.png
element vertex 300
property float x
property float y
property float z
property float nx
property float ny
property float nz
property uchar red
property uchar green
property uchar blue
property uchar alpha
element face 100
property list uchar int vertex_indices
end_header
-0.239911 0.22676 0.264118 0 0 0.184919 27 94 141 255 
0.23991 0.22676 0.264118 0 0 0.184919 27 94 141 255 
0.23991 0.612152 0.264118 0 0 0.184919 27 94 141 255 
-0.239911 0.22676 0.264118 0 0 0.184919 27 94 141 255 
0.23991 0.612152 0.264118 0 0 0.184919 27 94 141 255 
-0.239911 0.612152 0.264118 0 0 0.184919 27 94 141 255 
-0.410905 2.9772 0.264118 -0 0.512913 0 30 101 150 255 
0.410905 2.9772 0.264118 -0 0.512913 0 30 101 150 255 
0.410905 2.9772 -0.360008 -0 0.512913 0 30 101 150 255 
-0.410905 2.9772 0.264118 0 0.512913 0 30 101 150 255 
0.410905 2.9772 -0.360008 0 0.512913 0 30 101 150 255 
-0.410905 2.9772 -0.360008 0 0.512913 0 30 101 150 255 
-0.410905 1.4886 -0.360008 0 0 -1.22335 27 94 141 255 
0.410905 1.4886 -0.360008 0 0 -1.22335 27 94 141 255 
0.410905 0 -0.360008 0 0 -1.22335 27 94 141 255 
-0.410905 1.4886 -0.360008 0 0 -1.22335 27 94 141 255 
0.410905 0 -0.360008 0 0 -1.22335 27 94 141 255 
-0.410905 0 -0.360008 0 0 -1.22335 27 94 141 255 
-0.410905 0 -0.360008 0 -0.512913 0 27 94 141 255 
0.410905 0 -0.360008 0 -0.512913 0 27 94 141 255 
0.410905 0 0.264118 0 -0.512913 0 27 94 141 255 
-0.410905 0 -0.360008 0 -0.512913 0 27 94 141 255 
0.410905 0 0.264118 0 -0.512913 0 27 94 141 255 
-0.410905 0 0.264118 0 -0.512913 0 27 94 141 255 
0.410905 0 0.264118 0.929074 0 0 26 87 129 255 
0.410905 0 -0.360008 0.929074 0 0 26 87 129 255 
0.410905 1.4886 -0.360008 0.929074 0 0 26 87 129 255 
0.410905 0 0.264118 0.929074 -0 0 26 87 129 255 
0.410905 1.4886 -0.360008 0.929074 -0 0 26 87 129 255 
0.410905 1.4886 0.264118 0.929074 -0 0 26 87 129 255 
-0.410905 0 -0.360008 -0.929074 0 0 26 87 129 255 
-0.410905 0 0.264118 -0.929074 0 0 26 87 129 255 
-0.410905 1.4886 0.264118 -0.929074 0 0 26 87 129 255 
-0.410905 0 -0.360008 -0.929074 0 0 26 87 129 255 
-0.410905 1.4886 0.264118 -0.929074 0 0 26 87 129 255 
-0.410905 1.4886 -0.360008 -0.929074 0 0 26 87 129 255 
-0.410905 0 0.264118 0 0 0.0619883 27 94 141 255 
0.410905 0 0.264118 0 0 0.0619883 27 94 141 255 
0.340427 0.075429 0.264118 0 0 0.0619883 27 94 141 255 
-0.410905 0 0.264118 0 0 0.0513561 27 94 141 255 
0.340427 0.075429 0.264118 0 0 0.0513561 27 94 141 255 
-0.340427 0.075429 0.264118 0 0 0.0513561 27 94 141 255 
0.410905 0 0.264118 0 -0 0.104914 27 94 141 255 
0.410905 1.4886 0.264118 0 -0 0.104914 27 94 141 255 
0.340427 1.4886 0.264118 0 -0 0.104914 27 94 141 255 
0.410905 0 0.264118 0 0 0.0995975 27 94 141 255 
0.340427 1.4886 0.264118 0 0 0.0995975 27 94 141 255 
0.340427 0.075429 0.264118 0 0 0.0995975 27 94 141 255 
0.410905 2.9772 0.264118 0 0 0.0619891 27 94 141 255 
-0.410905 2.9772 0.264118 0 0 0.0619891 27 94 141 255 
-0.340427 2.90177 0.264118 0 0 0.0619891 27 94 141 255 
0.410905 2.9772 0.264118 0 0 0.0513568 27 94 141 255 
-0.340427 2.90177 0.264118 0 0 0.0513568 27 94 141 255 
0.340427 2.90177 0.264118 0 0 0.0513568 27 94 141 255 
-0.410905 1.4886 0.264118 0 0 0.104914 27 94 141 255 
-0.410905 0 0.264118 0 0 0.104914 27 94 141 255 
-0.340427 0.075429 0.264118 0 0 0.104914 27 94 141 255 
-0.410905 1.4886 0.264118 -0 0 0.0995975 27 94 141 255 
-0.340427 0.075429 0.264118 -0 0 0.0995975 27 94 141 255 
-0.340427 1.4886 0.264118 -0 0 0.0995975 27 94 141 255 
-0.340427 0.075429 0.264118 0 0 0.0311109 35 35 35 255 
0.340427 0.075429 0.264118 0 0 0.0311109 35 35 35 255 
0.300847 0.121123 0.264118 0 0 0.0311109 35 35 35 255 
-0.340427 0.075429 0.264118 0 0 0.0274939 35 35 35 255 
0.300847 0.121123 0.264118 0 0 0.0274939 35 35 35 255 
-0.300848 0.121123 0.264118 0 0 0.0274939 35 35 35 255 
0.340427 0.075429 0.264118 0 -0 0.0559333 35 35 35 255 
0.340427 1.4886 0.264118 0 -0 0.0559333 35 35 35 255 
0.300847 1.4886 0.264118 0 -0 0.0559333 35 35 35 255 
0.340427 0.075429 0.264118 0 0 0.0541248 35 35 35 255 
0.300847 1.4886 0.264118 0 0 0.0541248 35 35 35 255 
0.300847 0.121123 0.264118 0 0 0.0541248 35 35 35 255 
0.340427 2.90177 0.264118 0 0 0.0311083 35 35 35 255 
-0.340427 2.90177 0.264118 0 0 0.0311083 35 35 35 255 
-0.300848 2.85608 0.264118 0 0 0.0311083 35 35 35 255 
0.340427 2.90177 0.264118 0 0 0.0274915 35 35 35 255 
-0.300848 2.85608 0.264118 0 0 0.0274915 35 35 35 255 
0.300847 2.85608 0.264118 0 0 0.0274915 35 35 35 255 
-0.340427 1.4886 0.264118 0 0 0.0559319 35 35 35 255 
-0.340427 0.075429 0.264118 0 0 0.0559319 35 35 35 255 
-0.300848 0.121123 0.264118 0 0 0.0559319 35 35 35 255 
-0.340427 1.4886 0.264118 -0 0 0.0541234 35 35 35 255 
-0.300848 0.121123 0.264118 -0 0 0.0541234 35 35 35 255 
-0.300848 1.4886 0.264118 -0 0 0.0541234 35 35 35 255 
-0.300848 0.121123 0.264118 0 0 0.0635613 27 94 141 255 
0.300847 0.121123 0.264118 0 0 0.0635613 27 94 141 255 
0.23991 0.22676 0.264118 0 0 0.0635613 27 94 141 255 
-0.300848 0.121123 0.264118 0 0 0.0506869 27 94 141 255 
0.23991 0.22676 0.264118 0 0 0.0506869 27 94 141 255 
-0.239911 0.22676 0.264118 0 0 0.0506869 27 94 141 255 
0.300847 0.121123 0.264118 0 -0 0.0833299 27 94 141 255 
0.300847 1.4886 0.264118 0 -0 0.0833299 27 94 141 255 
0.23991 0.612152 0.264118 0 -0 0.0833299 27 94 141 255 
0.300847 0.121123 0.264118 0 0 0.0234846 27 94 141 255 
0.23991 0.612152 0.264118 0 0 0.0234846 27 94 141 255 
0.23991 0.22676 0.264118 0 0 0.0234846 27 94 141 255 
0.300847 2.85608 0.264118 0 0 0.0635632 27 94 141 255 
-0.300848 2.85608 0.264118 0 0 0.0635632 27 94 141 255 
-0.239911 2.75044 0.264118 0 0 0.0635632 27 94 141 255 
0.300847 2.85608 0.264118 0 0 0.0506884 27 94 141 255 
-0.239911 2.75044 0.264118 0 0 0.0506884 27 94 141 255 
0.23991 2.75044 0.264118 0 0 0.0506884 27 94 141 255 
-0.300848 1.4886 0.264118 0 0 0.08333 27 94 141 255 
-0.300848 0.121123 0.264118 0 0 0.08333 27 94 141 255 
-0.239911 0.22676 0.264118 0 0 0.08333 27 94 141 255 
-0.300848 1.4886 0.264118 0 0 0.0234846 27 94 141 255 
-0.239911 0.22676 0.264118 0 0 0.0234846 27 94 141 255 
-0.239911 0.612152 0.264118 0 0 0.0234846 27 94 141 255 
0.410905 1.4886 0.264118 0 -0 0.104914 27 94 141 255 
0.410905 2.9772 0.264118 0 -0 0.104914 27 94 141 255 
0.340427 2.90177 0.264118 0 -0 0.104914 27 94 141 255 
0.410905 1.4886 0.264118 0 0 0.0995974 27 94 141 255 
0.340427 2.90177 0.264118 0 0 0.0995974 27 94 141 255 
0.340427 1.4886 0.264118 0 0 0.0995974 27 94 141 255 
0.300847 1.4886 0.264118 0 0 0.0559333 35 35 35 255 
0.340427 1.4886 0.264118 0 0 0.0559333 35 35 35 255 
0.340427 2.90177 0.264118 0 0 0.0559333 35 35 35 255 
0.300847 1.4886 0.264118 0 0 0.0541249 35 35 35 255 
0.340427 2.90177 0.264118 0 0 0.0541249 35 35 35 255 
0.300847 2.85608 0.264118 0 0 0.0541249 35 35 35 255 
0.23991 2.36505 0.264118 -0 0 0.0833301 27 94 141 255 
0.300847 1.4886 0.264118 -0 0 0.0833301 27 94 141 255 
0.300847 2.85608 0.264118 -0 0 0.0833301 27 94 141 255 
0.23991 2.36505 0.264118 0 0 0.0234845 27 94 141 255 
0.300847 2.85608 0.264118 0 0 0.0234845 27 94 141 255 
0.23991 2.75044 0.264118 0 0 0.0234845 27 94 141 255 
-0.239911 2.36505 0.264118 0 0 0.184918 27 94 141 255 
0.23991 2.36505 0.264118 0 0 0.184918 27 94 141 255 
0.23991 2.75044 0.264118 0 0 0.184918 27 94 141 255 
-0.239911 2.36505 0.264118 0 0 0.184918 27 94 141 255 
0.23991 2.75044 0.264118 0 0 0.184918 27 94 141 255 
-0.239911 2.75044 0.264118 0 0 0.184918 27 94 141 255 
-0.300848 2.85608 0.264118 0 0 0.0833301 27 94 141 255 
-0.300848 1.4886 0.264118 0 0 0.0833301 27 94 141 255 
-0.239911 2.36505 0.264118 0 0 0.0833301 27 94 141 255 
-0.300848 2.85608 0.264118 0 0 0.0234845 27 94 141 255 
-0.239911 2.36505 0.264118 0 0 0.0234845 27 94 141 255 
-0.239911 2.75044 0.264118 0 0 0.0234845 27 94 141 255 
-0.340427 2.90177 0.264118 0 0 0.0559319 35 35 35 255 
-0.340427 1.4886 0.264118 0 0 0.0559319 35 35 35 255 
-0.300848 1.4886 0.264118 0 0 0.0559319 35 35 35 255 
-0.340427 2.90177 0.264118 0 0 0.0541235 35 35 35 255 
-0.300848 1.4886 0.264118 0 0 0.0541235 35 35 35 255 
-0.300848 2.85608 0.264118 0 0 0.0541235 35 35 35 255 
-0.410905 2.9772 0.264118 0 0 0.104914 27 94 141 255 
-0.410905 1.4886 0.264118 0 0 0.104914 27 94 141 255 
-0.340427 1.4886 0.264118 0 0 0.104914 27 94 141 255 
-0.410905 2.9772 0.264118 0 0 0.0995974 27 94 141 255 
-0.340427 1.4886 0.264118 0 0 0.0995974 27 94 141 255 
-0.340427 2.90177 0.264118 0 0 0.0995974 27 94 141 255 
-0.410905 1.4886 -0.360008 -0.929074 0 0 26 87 129 255 
-0.410905 1.4886 0.264118 -0.929074 0 0 26 87 129 255 
-0.410905 2.9772 0.264118 -0.929074 0 0 26 87 129 255 
-0.410905 1.4886 -0.360008 -0.929074 0 0 26 87 129 255 
-0.410905 2.9772 0.264118 -0.929074 0 0 26 87 129 255 
-0.410905 2.9772 -0.360008 -0.929074 0 0 26 87 129 255 
-0.410905 2.9772 -0.360008 0 0 -1.22335 27 94 141 255 
0.410905 2.9772 -0.360008 0 0 -1.22335 27 94 141 255 
0.410905 1.4886 -0.360008 0 0 -1.22335 27 94 141 255 
-0.410905 2.9772 -0.360008 0 0 -1.22335 27 94 141 255 
0.410905 1.4886 -0.360008 0 0 -1.22335 27 94 141 255 
-0.410905 1.4886 -0.360008 0 0 -1.22335 27 94 141 255 
0.410905 1.4886 0.264118 0.929074 0 0 26 87 129 255 
0.410905 1.4886 -0.360008 0.929074 0 0 26 87 129 255 
0.410905 2.9772 -0.360008 0.929074 0 0 26 87 129 255 
0.410905 1.4886 0.264118 0.929074 -0 0 26 87 129 255 
0.410905 2.9772 -0.360008 0.929074 -0 0 26 87 129 255 
0.410905 2.9772 0.264118 0.929074 -0 0 26 87 129 255 
0.23991 0.612152 0.264118 0 0 0.106816 27 94 141 255 
0.300847 1.4886 0.264118 0 0 0.106816 27 94 141 255 
0.23991 2.36505 0.264118 0 0 0.106816 27 94 141 255 
-0.239911 0.612152 0.264118 0 0 0.841077 27 94 141 255 
0.23991 0.612152 0.264118 0 0 0.841077 27 94 141 255 
0.23991 2.36505 0.264118 0 0 0.841077 27 94 141 255 
-0.239911 0.612152 0.264118 0 0 0.841077 27 94 141 255 
0.23991 2.36505 0.264118 0 0 0.841077 27 94 141 255 
-0.239911 2.36505 0.264118 0 0 0.841077 27 94 141 255 
-0.300848 1.4886 0.264118 -0 0 0.106816 27 94 141 255 
-0.239911 0.612152 0.264118 -0 0 0.106816 27 94 141 255 
-0.239911 2.36505 0.264118 -0 0 0.106816 27 94 141 255 
-0.242681 1.3172 0.317986 0 0 0.018956 121 131 134 255 
-0.188815 1.3172 0.317986 0 0 0.018956 121 131 134 255 
-0.188815 1.66911 0.317986 0 0 0.018956 121 131 134 255 
-0.242681 1.3172 0.317986 0 0 0.018956 121 131 134 255 
-0.188815 1.66911 0.317986 0 0 0.018956 121 131 134 255 
-0.242681 1.66911 0.317986 0 0 0.018956 121 131 134 255 
-0.242681 1.66911 0.317986 -0 0.00290144 0 128 139 142 255 
-0.188815 1.66911 0.317986 -0 0.00290144 0 128 139 142 255 
-0.188815 1.66911 0.264122 -0 0.00290144 0 128 139 142 255 
-0.242681 1.66911 0.317986 0 0.00290144 0 128 139 142 255 
-0.188815 1.66911 0.264122 0 0.00290144 0 128 139 142 255 
-0.242681 1.66911 0.264122 0 0.00290144 0 128 139 142 255 
-0.242681 1.66911 0.264122 0 0 -0.018956 121 131 134 255 
-0.188815 1.66911 0.264122 0 0 -0.018956 121 131 134 255 
-0.188815 1.3172 0.264122 0 0 -0.018956 121 131 134 255 
-0.242681 1.66911 0.264122 0 0 -0.018956 121 131 134 255 
-0.188815 1.3172 0.264122 0 0 -0.018956 121 131 134 255 
-0.242681 1.3172 0.264122 0 0 -0.018956 121 131 134 255 
-0.242681 1.3172 0.264122 0 -0.00290144 0 121 131 134 255 
-0.188815 1.3172 0.264122 0 -0.00290144 0 121 131 134 255 
-0.188815 1.3172 0.317986 0 -0.00290144 0 121 131 134 255 
-0.242681 1.3172 0.264122 0 -0.00290144 0 121 131 134 255 
-0.188815 1.3172 0.317986 0 -0.00290144 0 121 131 134 255 
-0.242681 1.3172 0.317986 0 -0.00290144 0 121 131 134 255 
-0.188815 1.3172 0.317986 0.0189553 0 0 112 122 125 255 
-0.188815 1.3172 0.264122 0.0189553 0 0 112 122 125 255 
-0.188815 1.66911 0.264122 0.0189553 0 0 112 122 125 255 
-0.188815 1.3172 0.317986 0.0189553 -0 0 112 122 125 255 
-0.188815 1.66911 0.264122 0.0189553 -0 0 112 122 125 255 
-0.188815 1.66911 0.317986 0.0189553 -0 0 112 122 125 255 
-0.242681 1.3172 0.264122 -0.0189553 0 0 112 122 125 255 
-0.242681 1.3172 0.317986 -0.0189553 0 0 112 122 125 255 
-0.242681 1.66911 0.317986 -0.0189553 0 0 112 122 125 255 
-0.242681 1.3172 0.264122 -0.0189553 0 0 112 122 125 255 
-0.242681 1.66911 0.317986 -0.0189553 0 0 112 122 125 255 
-0.242681 1.66911 0.264122 -0.0189553 0 0 112 122 125 255 
-0.09147 1.70538 0.360008 0 0 0.00357832 52 52 52 255 
-0.031652 1.70538 0.360008 0 0 0.00357832 52 52 52 255 
-0.031652 1.7652 0.360008 0 0 0.00357832 52 52 52 255 
-0.09147 1.70538 0.360008 0 0 0.00357832 52 52 52 255 
-0.031652 1.7652 0.360008 0 0 0.00357832 52 52 52 255 
-0.09147 1.7652 0.360008 0 0 0.00357832 52 52 52 255 
-0.09147 1.7652 0.360008 -0 0.00350791 0.00065979 69 69 69 255 
-0.031652 1.7652 0.360008 -0 0.00350791 0.00065979 69 69 69 255 
-0.020622 1.77623 0.301365 -0 0.00350791 0.00065979 69 69 69 255 
-0.09147 1.7652 0.360008 0 0.00480157 0.000903111 69 69 69 255 
-0.020622 1.77623 0.301365 0 0.00480157 0.000903111 69 69 69 255 
-0.1025 1.77623 0.301365 0 0.00480157 0.000903111 69 69 69 255 
-0.121161 1.79489 0.264122 0 0 -0.0142086 121 131 134 255 
-0.001961 1.79489 0.264122 0 0 -0.0142086 121 131 134 255 
-0.001961 1.67569 0.264122 0 0 -0.0142086 121 131 134 255 
-0.121161 1.79489 0.264122 0 0 -0.0142086 121 131 134 255 
-0.001961 1.67569 0.264122 0 0 -0.0142086 121 131 134 255 
-0.121161 1.67569 0.264122 0 0 -0.0142086 121 131 134 255 
-0.1025 1.69435 0.301365 0 -0.00480157 0.000903111 52 52 52 255 
-0.020622 1.69435 0.301365 0 -0.00480157 0.000903111 52 52 52 255 
-0.031652 1.70538 0.360008 0 -0.00480157 0.000903111 52 52 52 255 
-0.1025 1.69435 0.301365 0 -0.00350791 0.00065979 52 52 52 255 
-0.031652 1.70538 0.360008 0 -0.00350791 0.00065979 52 52 52 255 
-0.09147 1.70538 0.360008 0 -0.00350791 0.00065979 52 52 52 255 
-0.031652 1.70538 0.360008 0.00480169 0 0.000903136 52 52 52 255 
-0.020622 1.69435 0.301365 0.00480169 0 0.000903136 52 52 52 255 
-0.020622 1.77623 0.301365 0.00480169 0 0.000903136 52 52 52 255 
-0.031652 1.70538 0.360008 0.00350803 -0 0.000659815 52 52 52 255 
-0.020622 1.77623 0.301365 0.00350803 -0 0.000659815 52 52 52 255 
-0.031652 1.7652 0.360008 0.00350803 -0 0.000659815 52 52 52 255 
-0.1025 1.69435 0.301365 -0.00350803 0 0.000659815 52 52 52 255 
-0.09147 1.70538 0.360008 -0.00350803 0 0.000659815 52 52 52 255 
-0.09147 1.7652 0.360008 -0.00350803 0 0.000659815 52 52 52 255 
-0.1025 1.69435 0.301365 -0.00480169 0 0.000903136 52 52 52 255 
-0.09147 1.7652 0.360008 -0.00480169 0 0.000903136 52 52 52 255 
-0.1025 1.77623 0.301365 -0.00480169 0 0.000903136 52 52 52 255 
-0.121161 1.79489 0.301365 -0 0.00443936 0 128 139 142 255 
-0.001961 1.79489 0.301365 -0 0.00443936 0 128 139 142 255 
-0.001961 1.79489 0.264122 -0 0.00443936 0 128 139 142 255 
-0.121161 1.79489 0.301365 0 0.00443936 0 128 139 142 255 
-0.001961 1.79489 0.264122 0 0.00443936 0 128 139 142 255 
-0.121161 1.79489 0.264122 0 0.00443936 0 128 139 142 255 
-0.121161 1.67569 0.264122 -0.00443936 0 0 112 122 125 255 
-0.121161 1.67569 0.301365 -0.00443936 0 0 112 122 125 255 
-0.121161 1.79489 0.301365 -0.00443936 0 0 112 122 125 255 
-0.121161 1.67569 0.264122 -0.00443936 0 0 112 122 125 255 
-0.121161 1.79489 0.301365 -0.00443936 0 0 112 122 125 255 
-0.121161 1.79489 0.264122 -0.00443936 0 0 112 122 125 255 
-0.121161 1.67569 0.264122 0 -0.00443936 0 121 131 134 255 
-0.001961 1.67569 0.264122 0 -0.00443936 0 121 131 134 255 
-0.001961 1.67569 0.301365 0 -0.00443936 0 121 131 134 255 
-0.121161 1.67569 0.264122 0 -0.00443936 0 121 131 134 255 
-0.001961 1.67569 0.301365 0 -0.00443936 0 121 131 134 255 
-0.121161 1.67569 0.301365 0 -0.00443936 0 121 131 134 255 
-0.001961 1.79489 0.301365 0.00443936 0 0 112 122 125 255 
-0.001961 1.67569 0.301365 0.00443936 0 0 112 122 125 255 
-0.001961 1.67569 0.264122 0.00443936 0 0 112 122 125 255 
-0.001961 1.79489 0.301365 0.00443936 0 0 112 122 125 255 
-0.001961 1.67569 0.264122 0.00443936 0 0 112 122 125 255 
-0.001961 1.79489 0.264122 0.00443936 0 0 112 122 125 255 
-0.1025 1.77623 0.301365 0 0 0.00152785 121 131 134 255 
-0.020622 1.77623 0.301365 0 0 0.00152785 121 131 134 255 
-0.001961 1.79489 0.301365 0 0 0.00152785 121 131 134 255 
-0.1025 1.77623 0.301365 0 -0 0.00222428 121 131 134 255 
-0.001961 1.79489 0.301365 0 -0 0.00222428 121 131 134 255 
-0.121161 1.79489 0.301365 0 -0 0.00222428 121 131 134 255 
-0.1025 1.69435 0.301365 0 -0 0.00152796 121 131 134 255 
-0.1025 1.77623 0.301365 0 -0 0.00152796 121 131 134 255 
-0.121161 1.79489 0.301365 0 -0 0.00152796 121 131 134 255 
-0.1025 1.69435 0.301365 0 0 0.00222439 121 131 134 255 
-0.121161 1.79489 0.301365 0 0 0.00222439 121 131 134 255 
-0.121161 1.67569 0.301365 0 0 0.00222439 121 131 134 255 
-0.020622 1.69435 0.301365 0 0 0.00152784 121 131 134 255 
-0.1025 1.69435 0.301365 0 0 0.00152784 121 131 134 255 
-0.121161 1.67569 0.301365 0 0 0.00152784 121 131 134 255 
-0.020622 1.69435 0.301365 0 0 0.00222427 121 131 134 255 
-0.121161 1.67569 0.301365 0 0 0.00222427 121 131 134 255 
-0.001961 1.67569 0.301365 0 0 0.00222427 121 131 134 255 
-0.020622 1.77623 0.301365 0 0 0.00152796 121 131 134 255 
-0.020622 1.69435 0.301365 0 0 0.00152796 121 131 134 255 
-0.001961 1.67569 0.301365 0 0 0.00152796 121 131 134 255 
-0.020622 1.77623 0.301365 -0 0 0.00222439 121 131 134 255 
-0.001961 1.67569 0.301365 -0 0 0.00222439 121 131 134 255 
-0.001961 1.79489 0.301365 -0 0 0.00222439 121 131 134 255 
3 0 1 2
3 3 4 5
3 6 7 8
3 9 10 11
3 12 13 14
3 15 16 17
3 18 19 20
3 21 22 23
3 24 25 26
3 27 28 29
3 30 31 32
3 33 34 35
3 36 37 38
3 39 40 41
3 42 43 44
3 45 46 47
3 48 49 50
3 51 52 53
3 54 55 56
3 57 58 59
3 60 61 62
3 63 64 65
3 66 67 68
3 69 70 71
3 72 73 74
3 75 76 77
3 78 79 80
3 81 82 83
3 84 85 86
3 87 88 89
3 90 91 92
3 93 94 95
3 96 97 98
3 99 100 101
3 102 103 104
3 105 106 107
3 108 109 110
3 111 112 113
3 114 115 116
3 117 118 119
3 120 121 122
3 123 124 125
3 126 127 128
3 129 130 131
3 132 133 134
3 135 136 137
3 138 139 140
3 141 142 143
3 144 145 146
3 147 148 149
3 150 151 152
3 153 154 155
3 156 157 158
3 159 160 161
3 162 163 164
3 165 166 167
3 168 169 170
3 171 172 173
3 174 175 176
3 177 178 179
3 180 181 182
3 183 184 185
3 186 187 188
3 189 190 191
3 192 193 194
3 195 196 197
3 198 199 200
3 201 202 203
3 204 205 206
3 207 208 209
3 210 211 212
3 213 214 215
3 216 217 218
3 219 220 221
3 222 223 224
3 225 226 227
3 228 229 230
3 231 232 233
3 234 235 236
3 237 238 239
3 240 241 242
3 243 244 245
3 246 247 248
3 249 250 251
3 252 253 254
3 255 256 257
3 258 259 260
3 261 262 263
3 264 265 266
3 267 268 269
3 270 271 272
3 273 274 275
3 276 277 278
3 279 280 281
3 282 283 284
3 285 286 287
3 288 289 290
3 291 292 293
3 294 295 296
3 297 298 299
