ply
format ascii 1.0
comment Feeney's Flatenator generated
comment TextureFile SpaceInteriors_Texture.png
element vertex 216
property float x
property float y
property float z
property float nx
property float ny
property float nz
property uchar red
property uchar green
property uchar blue
property uchar alpha
property float texture_u
property float texture_v
element face 72
property list uchar int vertex_indices
end_header
1.22431 -0.690854 1e-06 0 0 -1.02107 108 105 102 255 0.265187 0.061667 
1.05993 -0.690854 1e-06 0 0 -1.02107 108 105 102 255 0.265187 0.061667 
1.05993 5.5208 1e-06 0 0 -1.02107 108 105 102 255 0.265187 0.061667 
1.22431 -0.690854 1e-06 0 0 -1.02107 108 105 102 255 0.265187 0.061667 
1.05993 5.5208 1e-06 0 0 -1.02107 108 105 102 255 0.265187 0.061667 
1.22431 5.5208 1e-06 0 0 -1.02107 108 105 102 255 0.265187 0.061667 
1.22431 5.5208 1e-06 0 0.0270198 0 125 121 118 255 0.300052 0.061667 
1.05993 5.5208 1e-06 0 0.0270198 0 125 121 118 255 0.300052 0.061667 
1.05993 5.5208 0.164375 0 0.0270198 0 125 121 118 255 0.300052 0.061667 
1.22431 5.5208 1e-06 0 0.0270198 -0 125 121 118 255 0.300052 0.061667 
1.05993 5.5208 0.164375 0 0.0270198 -0 125 121 118 255 0.300052 0.061667 
1.22431 5.5208 0.164375 0 0.0270198 -0 125 121 118 255 0.300052 0.061667 
1.22431 5.5208 0.164375 0 0 1.02107 108 105 102 255 0.265187 0.061667 
1.05993 5.5208 0.164375 0 0 1.02107 108 105 102 255 0.265187 0.061667 
1.05993 -0.690854 0.164375 0 0 1.02107 108 105 102 255 0.265187 0.061667 
1.22431 5.5208 0.164375 0 0 1.02107 108 105 102 255 0.265187 0.061667 
1.05993 -0.690854 0.164375 0 0 1.02107 108 105 102 255 0.265187 0.061667 
1.22431 -0.690854 0.164375 0 0 1.02107 108 105 102 255 0.265187 0.061667 
1.22431 -0.690854 0.164375 -0 -0.0270198 0 75 72 70 255 0.200168 0.061667 
1.05993 -0.690854 0.164375 -0 -0.0270198 0 75 72 70 255 0.200168 0.061667 
1.05993 -0.690854 1e-06 -0 -0.0270198 0 75 72 70 255 0.200168 0.061667 
1.22431 -0.690854 0.164375 0 -0.0270198 -0 75 72 70 255 0.200168 0.061667 
1.05993 -0.690854 1e-06 0 -0.0270198 -0 75 72 70 255 0.200168 0.061667 
1.22431 -0.690854 1e-06 0 -0.0270198 -0 75 72 70 255 0.200168 0.061667 
1.05993 -0.690854 1e-06 -1.02103 0 0 91 88 86 255 0.233148 0.061667 
1.05993 -0.690854 0.164375 -1.02103 0 0 91 88 86 255 0.233148 0.061667 
1.05993 5.5208 0.164375 -1.02103 0 0 91 88 86 255 0.233148 0.061667 
1.05993 -0.690854 1e-06 -1.02103 0 0 91 88 86 255 0.233148 0.061667 
1.05993 5.5208 0.164375 -1.02103 0 0 91 88 86 255 0.233148 0.061667 
1.05993 5.5208 1e-06 -1.02103 0 0 91 88 86 255 0.233148 0.061667 
1.22431 -0.690854 0.164375 1.02103 0 0 91 88 86 255 0.233148 0.061667 
1.22431 -0.690854 1e-06 1.02103 0 0 91 88 86 255 0.233148 0.061667 
1.22431 5.5208 1e-06 1.02103 0 0 91 88 86 255 0.233148 0.061667 
1.22431 -0.690854 0.164375 1.02103 -0 0 91 88 86 255 0.233148 0.061667 
1.22431 5.5208 1e-06 1.02103 -0 0 91 88 86 255 0.233148 0.061667 
1.22431 5.5208 0.164375 1.02103 -0 0 91 88 86 255 0.233148 0.061667 
1.05993 -0.170055 0 0 0 -0.152294 108 105 102 255 0.265187 0.061667 
0.164371 -0.170055 0 0 0 -0.152294 108 105 102 255 0.265187 0.061667 
0.164371 0 0 0 0 -0.152294 108 105 102 255 0.265187 0.061667 
1.05993 -0.170055 0 0 0 -0.152294 108 105 102 255 0.265187 0.061667 
0.164371 0 0 0 0 -0.152294 108 105 102 255 0.265187 0.061667 
1.05993 0 0 0 0 -0.152294 108 105 102 255 0.265187 0.061667 
1.05993 0 0 0 0.147208 0 125 121 118 255 0.300052 0.061667 
0.164371 0 0 0 0.147208 0 125 121 118 255 0.300052 0.061667 
0.164371 0 0.164375 0 0.147208 0 125 121 118 255 0.300052 0.061667 
1.05993 0 0 0 0.147208 -0 125 121 118 255 0.300052 0.061667 
0.164371 0 0.164375 0 0.147208 -0 125 121 118 255 0.300052 0.061667 
1.05993 0 0.164375 0 0.147208 -0 125 121 118 255 0.300052 0.061667 
1.05993 0 0.164375 0 0 0.152294 108 105 102 255 0.265187 0.061667 
0.164371 0 0.164375 0 0 0.152294 108 105 102 255 0.265187 0.061667 
0.164371 -0.170055 0.164375 0 0 0.152294 108 105 102 255 0.265187 0.061667 
1.05993 0 0.164375 0 0 0.152294 108 105 102 255 0.265187 0.061667 
0.164371 -0.170055 0.164375 0 0 0.152294 108 105 102 255 0.265187 0.061667 
1.05993 -0.170055 0.164375 0 0 0.152294 108 105 102 255 0.265187 0.061667 
1.05993 -0.170055 0.164375 -0 -0.147208 0 75 72 70 255 0.200168 0.061667 
0.164371 -0.170055 0.164375 -0 -0.147208 0 75 72 70 255 0.200168 0.061667 
0.164371 -0.170055 0 -0 -0.147208 0 75 72 70 255 0.200168 0.061667 
1.05993 -0.170055 0.164375 0 -0.147208 -0 75 72 70 255 0.200168 0.061667 
0.164371 -0.170055 0 0 -0.147208 -0 75 72 70 255 0.200168 0.061667 
1.05993 -0.170055 0 0 -0.147208 -0 75 72 70 255 0.200168 0.061667 
1.05993 0.829945 0 0 0 -0.152294 108 105 102 255 0.265187 0.061667 
0.164371 0.829945 0 0 0 -0.152294 108 105 102 255 0.265187 0.061667 
0.164371 1 0 0 0 -0.152294 108 105 102 255 0.265187 0.061667 
1.05993 0.829945 0 0 0 -0.152294 108 105 102 255 0.265187 0.061667 
0.164371 1 0 0 0 -0.152294 108 105 102 255 0.265187 0.061667 
1.05993 1 0 0 0 -0.152294 108 105 102 255 0.265187 0.061667 
1.05993 1 0 0 0.147208 0 125 121 118 255 0.300052 0.061667 
0.164371 1 0 0 0.147208 0 125 121 118 255 0.300052 0.061667 
0.164371 1 0.164375 0 0.147208 0 125 121 118 255 0.300052 0.061667 
1.05993 1 0 0 0.147208 -0 125 121 118 255 0.300052 0.061667 
0.164371 1 0.164375 0 0.147208 -0 125 121 118 255 0.300052 0.061667 
1.05993 1 0.164375 0 0.147208 -0 125 121 118 255 0.300052 0.061667 
1.05993 1 0.164375 0 0 0.152294 108 105 102 255 0.265187 0.061667 
0.164371 1 0.164375 0 0 0.152294 108 105 102 255 0.265187 0.061667 
0.164371 0.829945 0.164375 0 0 0.152294 108 105 102 255 0.265187 0.061667 
1.05993 1 0.164375 0 0 0.152294 108 105 102 255 0.265187 0.061667 
0.164371 0.829945 0.164375 0 0 0.152294 108 105 102 255 0.265187 0.061667 
1.05993 0.829945 0.164375 0 0 0.152294 108 105 102 255 0.265187 0.061667 
1.05993 0.829945 0.164375 -0 -0.147208 0 75 72 70 255 0.200168 0.061667 
0.164371 0.829945 0.164375 -0 -0.147208 0 75 72 70 255 0.200168 0.061667 
0.164371 0.829945 0 -0 -0.147208 0 75 72 70 255 0.200168 0.061667 
1.05993 0.829945 0.164375 0 -0.147208 -0 75 72 70 255 0.200168 0.061667 
0.164371 0.829945 0 0 -0.147208 -0 75 72 70 255 0.200168 0.061667 
1.05993 0.829945 0 0 -0.147208 -0 75 72 70 255 0.200168 0.061667 
1.05993 1.82994 0 0 0 -0.152299 108 105 102 255 0.265187 0.061667 
0.164371 1.82994 0 0 0 -0.152299 108 105 102 255 0.265187 0.061667 
0.164371 2 0 0 0 -0.152299 108 105 102 255 0.265187 0.061667 
1.05993 1.82994 0 0 0 -0.152299 108 105 102 255 0.265187 0.061667 
0.164371 2 0 0 0 -0.152299 108 105 102 255 0.265187 0.061667 
1.05993 2 0 0 0 -0.152299 108 105 102 255 0.265187 0.061667 
1.05993 2 0 0 0.147208 0 125 121 118 255 0.300052 0.061667 
0.164371 2 0 0 0.147208 0 125 121 118 255 0.300052 0.061667 
0.164371 2 0.164375 0 0.147208 0 125 121 118 255 0.300052 0.061667 
1.05993 2 0 0 0.147208 -0 125 121 118 255 0.300052 0.061667 
0.164371 2 0.164375 0 0.147208 -0 125 121 118 255 0.300052 0.061667 
1.05993 2 0.164375 0 0.147208 -0 125 121 118 255 0.300052 0.061667 
1.05993 2 0.164375 0 0 0.152299 108 105 102 255 0.265187 0.061667 
0.164371 2 0.164375 0 0 0.152299 108 105 102 255 0.265187 0.061667 
0.164371 1.82994 0.164375 0 0 0.152299 108 105 102 255 0.265187 0.061667 
1.05993 2 0.164375 0 0 0.152299 108 105 102 255 0.265187 0.061667 
0.164371 1.82994 0.164375 0 0 0.152299 108 105 102 255 0.265187 0.061667 
1.05993 1.82994 0.164375 0 0 0.152299 108 105 102 255 0.265187 0.061667 
1.05993 1.82994 0.164375 -0 -0.147208 0 75 72 70 255 0.200168 0.061667 
0.164371 1.82994 0.164375 -0 -0.147208 0 75 72 70 255 0.200168 0.061667 
0.164371 1.82994 0 -0 -0.147208 0 75 72 70 255 0.200168 0.061667 
1.05993 1.82994 0.164375 0 -0.147208 -0 75 72 70 255 0.200168 0.061667 
0.164371 1.82994 0 0 -0.147208 -0 75 72 70 255 0.200168 0.061667 
1.05993 1.82994 0 0 -0.147208 -0 75 72 70 255 0.200168 0.061667 
1.05993 2.82995 0 0 0 -0.15229 108 105 102 255 0.265187 0.061667 
0.164371 2.82995 0 0 0 -0.15229 108 105 102 255 0.265187 0.061667 
0.164371 3 0 0 0 -0.15229 108 105 102 255 0.265187 0.061667 
1.05993 2.82995 0 0 0 -0.15229 108 105 102 255 0.265187 0.061667 
0.164371 3 0 0 0 -0.15229 108 105 102 255 0.265187 0.061667 
1.05993 3 0 0 0 -0.15229 108 105 102 255 0.265187 0.061667 
1.05993 3 0 0 0.147208 0 125 121 118 255 0.300052 0.061667 
0.164371 3 0 0 0.147208 0 125 121 118 255 0.300052 0.061667 
0.164371 3 0.164375 0 0.147208 0 125 121 118 255 0.300052 0.061667 
1.05993 3 0 0 0.147208 -0 125 121 118 255 0.300052 0.061667 
0.164371 3 0.164375 0 0.147208 -0 125 121 118 255 0.300052 0.061667 
1.05993 3 0.164375 0 0.147208 -0 125 121 118 255 0.300052 0.061667 
1.05993 3 0.164375 0 0 0.15229 108 105 102 255 0.265187 0.061667 
0.164371 3 0.164375 0 0 0.15229 108 105 102 255 0.265187 0.061667 
0.164371 2.82995 0.164375 0 0 0.15229 108 105 102 255 0.265187 0.061667 
1.05993 3 0.164375 0 0 0.15229 108 105 102 255 0.265187 0.061667 
0.164371 2.82995 0.164375 0 0 0.15229 108 105 102 255 0.265187 0.061667 
1.05993 2.82995 0.164375 0 0 0.15229 108 105 102 255 0.265187 0.061667 
1.05993 2.82995 0.164375 -0 -0.147208 0 75 72 70 255 0.200168 0.061667 
0.164371 2.82995 0.164375 -0 -0.147208 0 75 72 70 255 0.200168 0.061667 
0.164371 2.82995 0 -0 -0.147208 0 75 72 70 255 0.200168 0.061667 
1.05993 2.82995 0.164375 0 -0.147208 -0 75 72 70 255 0.200168 0.061667 
0.164371 2.82995 0 0 -0.147208 -0 75 72 70 255 0.200168 0.061667 
1.05993 2.82995 0 0 -0.147208 -0 75 72 70 255 0.200168 0.061667 
1.05993 3.82995 0 0 0 -0.15229 108 105 102 255 0.265187 0.061667 
0.164371 3.82995 0 0 0 -0.15229 108 105 102 255 0.265187 0.061667 
0.164371 4 0 0 0 -0.15229 108 105 102 255 0.265187 0.061667 
1.05993 3.82995 0 0 0 -0.15229 108 105 102 255 0.265187 0.061667 
0.164371 4 0 0 0 -0.15229 108 105 102 255 0.265187 0.061667 
1.05993 4 0 0 0 -0.15229 108 105 102 255 0.265187 0.061667 
1.05993 4 0 0 0.147208 0 125 121 118 255 0.300052 0.061667 
0.164371 4 0 0 0.147208 0 125 121 118 255 0.300052 0.061667 
0.164371 4 0.164375 0 0.147208 0 125 121 118 255 0.300052 0.061667 
1.05993 4 0 0 0.147208 -0 125 121 118 255 0.300052 0.061667 
0.164371 4 0.164375 0 0.147208 -0 125 121 118 255 0.300052 0.061667 
1.05993 4 0.164375 0 0.147208 -0 125 121 118 255 0.300052 0.061667 
1.05993 4 0.164375 0 0 0.15229 108 105 102 255 0.265187 0.061667 
0.164371 4 0.164375 0 0 0.15229 108 105 102 255 0.265187 0.061667 
0.164371 3.82995 0.164375 0 0 0.15229 108 105 102 255 0.265187 0.061667 
1.05993 4 0.164375 0 0 0.15229 108 105 102 255 0.265187 0.061667 
0.164371 3.82995 0.164375 0 0 0.15229 108 105 102 255 0.265187 0.061667 
1.05993 3.82995 0.164375 0 0 0.15229 108 105 102 255 0.265187 0.061667 
1.05993 3.82995 0.164375 -0 -0.147208 0 75 72 70 255 0.200168 0.061667 
0.164371 3.82995 0.164375 -0 -0.147208 0 75 72 70 255 0.200168 0.061667 
0.164371 3.82995 0 -0 -0.147208 0 75 72 70 255 0.200168 0.061667 
1.05993 3.82995 0.164375 0 -0.147208 -0 75 72 70 255 0.200168 0.061667 
0.164371 3.82995 0 0 -0.147208 -0 75 72 70 255 0.200168 0.061667 
1.05993 3.82995 0 0 -0.147208 -0 75 72 70 255 0.200168 0.061667 
1.05993 4.82995 0 0 0 -0.15229 108 105 102 255 0.265187 0.061667 
0.164371 4.82995 0 0 0 -0.15229 108 105 102 255 0.265187 0.061667 
0.164371 5 0 0 0 -0.15229 108 105 102 255 0.265187 0.061667 
1.05993 4.82995 0 0 0 -0.15229 108 105 102 255 0.265187 0.061667 
0.164371 5 0 0 0 -0.15229 108 105 102 255 0.265187 0.061667 
1.05993 5 0 0 0 -0.15229 108 105 102 255 0.265187 0.061667 
1.05993 5 0 0 0.147208 0 125 121 118 255 0.300052 0.061667 
0.164371 5 0 0 0.147208 0 125 121 118 255 0.300052 0.061667 
0.164371 5 0.164375 0 0.147208 0 125 121 118 255 0.300052 0.061667 
1.05993 5 0 0 0.147208 -0 125 121 118 255 0.300052 0.061667 
0.164371 5 0.164375 0 0.147208 -0 125 121 118 255 0.300052 0.061667 
1.05993 5 0.164375 0 0.147208 -0 125 121 118 255 0.300052 0.061667 
1.05993 5 0.164375 0 0 0.15229 108 105 102 255 0.265187 0.061667 
0.164371 5 0.164375 0 0 0.15229 108 105 102 255 0.265187 0.061667 
0.164371 4.82995 0.164375 0 0 0.15229 108 105 102 255 0.265187 0.061667 
1.05993 5 0.164375 0 0 0.15229 108 105 102 255 0.265187 0.061667 
0.164371 4.82995 0.164375 0 0 0.15229 108 105 102 255 0.265187 0.061667 
1.05993 4.82995 0.164375 0 0 0.15229 108 105 102 255 0.265187 0.061667 
1.05993 4.82995 0.164375 -0 -0.147208 0 75 72 70 255 0.200168 0.061667 
0.164371 4.82995 0.164375 -0 -0.147208 0 75 72 70 255 0.200168 0.061667 
0.164371 4.82995 0 -0 -0.147208 0 75 72 70 255 0.200168 0.061667 
1.05993 4.82995 0.164375 0 -0.147208 -0 75 72 70 255 0.200168 0.061667 
0.164371 4.82995 0 0 -0.147208 -0 75 72 70 255 0.200168 0.061667 
1.05993 4.82995 0 0 -0.147208 -0 75 72 70 255 0.200168 0.061667 
0.164371 -0.690854 1e-06 0 0 -1.02103 108 105 102 255 0.265187 0.061667 
-2e-06 -0.690854 1e-06 0 0 -1.02103 108 105 102 255 0.265187 0.061667 
-2e-06 5.5208 1e-06 0 0 -1.02103 108 105 102 255 0.265187 0.061667 
0.164371 -0.690854 1e-06 0 0 -1.02103 108 105 102 255 0.265187 0.061667 
-2e-06 5.5208 1e-06 0 0 -1.02103 108 105 102 255 0.265187 0.061667 
0.164371 5.5208 1e-06 0 0 -1.02103 108 105 102 255 0.265187 0.061667 
0.164371 5.5208 1e-06 0 0.0270186 0 125 121 118 255 0.300052 0.061667 
-2e-06 5.5208 1e-06 0 0.0270186 0 125 121 118 255 0.300052 0.061667 
-2e-06 5.5208 0.164375 0 0.0270186 0 125 121 118 255 0.300052 0.061667 
0.164371 5.5208 1e-06 0 0.0270186 -0 125 121 118 255 0.300052 0.061667 
-2e-06 5.5208 0.164375 0 0.0270186 -0 125 121 118 255 0.300052 0.061667 
0.164371 5.5208 0.164375 0 0.0270186 -0 125 121 118 255 0.300052 0.061667 
0.164371 5.5208 0.164375 0 0 1.02103 108 105 102 255 0.265187 0.061667 
-2e-06 5.5208 0.164375 0 0 1.02103 108 105 102 255 0.265187 0.061667 
-2e-06 -0.690854 0.164375 0 0 1.02103 108 105 102 255 0.265187 0.061667 
0.164371 5.5208 0.164375 0 0 1.02103 108 105 102 255 0.265187 0.061667 
-2e-06 -0.690854 0.164375 0 0 1.02103 108 105 102 255 0.265187 0.061667 
0.164371 -0.690854 0.164375 0 0 1.02103 108 105 102 255 0.265187 0.061667 
0.164371 -0.690854 0.164375 -0 -0.0270186 0 75 72 70 255 0.200168 0.061667 
-2e-06 -0.690854 0.164375 -0 -0.0270186 0 75 72 70 255 0.200168 0.061667 
-2e-06 -0.690854 1e-06 -0 -0.0270186 0 75 72 70 255 0.200168 0.061667 
0.164371 -0.690854 0.164375 0 -0.0270186 -0 75 72 70 255 0.200168 0.061667 
-2e-06 -0.690854 1e-06 0 -0.0270186 -0 75 72 70 255 0.200168 0.061667 
0.164371 -0.690854 1e-06 0 -0.0270186 -0 75 72 70 255 0.200168 0.061667 
-2e-06 -0.690854 1e-06 -1.02103 0 0 91 88 86 255 0.233148 0.061667 
-2e-06 -0.690854 0.164375 -1.02103 0 0 91 88 86 255 0.233148 0.061667 
-2e-06 5.5208 0.164375 -1.02103 0 0 91 88 86 255 0.233148 0.061667 
-2e-06 -0.690854 1e-06 -1.02103 0 0 91 88 86 255 0.233148 0.061667 
-2e-06 5.5208 0.164375 -1.02103 0 0 91 88 86 255 0.233148 0.061667 
-2e-06 5.5208 1e-06 -1.02103 0 0 91 88 86 255 0.233148 0.061667 
0.164371 -0.690854 0.164375 1.02103 0 0 91 88 86 255 0.233148 0.061667 
0.164371 -0.690854 1e-06 1.02103 0 0 91 88 86 255 0.233148 0.061667 
0.164371 5.5208 1e-06 1.02103 0 0 91 88 86 255 0.233148 0.061667 
0.164371 -0.690854 0.164375 1.02103 -0 0 91 88 86 255 0.233148 0.061667 
0.164371 5.5208 1e-06 1.02103 -0 0 91 88 86 255 0.233148 0.061667 
0.164371 5.5208 0.164375 1.02103 -0 0 91 88 86 255 0.233148 0.061667 
3 0 1 2
3 3 4 5
3 6 7 8
3 9 10 11
3 12 13 14
3 15 16 17
3 18 19 20
3 21 22 23
3 24 25 26
3 27 28 29
3 30 31 32
3 33 34 35
3 36 37 38
3 39 40 41
3 42 43 44
3 45 46 47
3 48 49 50
3 51 52 53
3 54 55 56
3 57 58 59
3 60 61 62
3 63 64 65
3 66 67 68
3 69 70 71
3 72 73 74
3 75 76 77
3 78 79 80
3 81 82 83
3 84 85 86
3 87 88 89
3 90 91 92
3 93 94 95
3 96 97 98
3 99 100 101
3 102 103 104
3 105 106 107
3 108 109 110
3 111 112 113
3 114 115 116
3 117 118 119
3 120 121 122
3 123 124 125
3 126 127 128
3 129 130 131
3 132 133 134
3 135 136 137
3 138 139 140
3 141 142 143
3 144 145 146
3 147 148 149
3 150 151 152
3 153 154 155
3 156 157 158
3 159 160 161
3 162 163 164
3 165 166 167
3 168 169 170
3 171 172 173
3 174 175 176
3 177 178 179
3 180 181 182
3 183 184 185
3 186 187 188
3 189 190 191
3 192 193 194
3 195 196 197
3 198 199 200
3 201 202 203
3 204 205 206
3 207 208 209
3 210 211 212
3 213 214 215
