ply
format ascii 1.0
comment Feeney's Flatenator generated
comment TextureFile SpaceInteriors_Texture.png
element vertex 132
property float x
property float y
property float z
property float nx
property float ny
property float nz
property float texture_u
property float texture_v
element face 44
property list uchar int vertex_indices
end_header
-0.049481 0.053909 0.049481 0 0 0.0373179 0.419792 0.085437 
0.049481 0.053909 0.049481 0 0 0.0373179 0.419792 0.085437 
0.049481 0.431002 0.049481 0 0 0.0373179 0.419792 0.085437 
-0.049481 0.053909 0.049481 0 0 0.0373179 0.419792 0.085437 
0.049481 0.431002 0.049481 0 0 0.0373179 0.419792 0.085437 
-0.049481 0.431002 0.049481 0 0 0.0373179 0.419792 0.085437 
-0.04306 0.469296 0.04306 -0 0.00741665 0 0.299222 0.083264 
0.043061 0.469296 0.04306 -0 0.00741665 0 0.299222 0.083264 
0.043061 0.469296 -0.043059 -0 0.00741665 0 0.299222 0.083264 
-0.04306 0.469296 0.04306 0 0.00741665 0 0.299222 0.083264 
0.043061 0.469296 -0.043059 0 0.00741665 0 0.299222 0.083264 
-0.04306 0.469296 -0.043059 0 0.00741665 0 0.299222 0.083264 
-0.049481 0.431002 -0.049481 0 0 -0.0373179 0.419792 0.085437 
0.049481 0.431002 -0.049481 0 0 -0.0373179 0.419792 0.085437 
0.049481 0.053909 -0.049481 0 0 -0.0373179 0.419792 0.085437 
-0.049481 0.431002 -0.049481 0 0 -0.0373179 0.419792 0.085437 
0.049481 0.053909 -0.049481 0 0 -0.0373179 0.419792 0.085437 
-0.049481 0.053909 -0.049481 0 0 -0.0373179 0.419792 0.085437 
-0.03028 0 -0.03028 0 -0.00366751 0 0.419792 0.085437 
0.03028 0 -0.03028 0 -0.00366751 0 0.419792 0.085437 
0.03028 0 0.03028 0 -0.00366751 0 0.419792 0.085437 
-0.03028 0 -0.03028 0 -0.00366751 0 0.419792 0.085437 
0.03028 0 0.03028 0 -0.00366751 0 0.419792 0.085437 
-0.03028 0 0.03028 0 -0.00366751 0 0.419792 0.085437 
0.049481 0.053909 0.049481 0.0373179 0 0 0.387177 0.087564 
0.049481 0.053909 -0.049481 0.0373179 0 0 0.387177 0.087564 
0.049481 0.431002 -0.049481 0.0373179 0 0 0.387177 0.087564 
0.049481 0.053909 0.049481 0.0373179 -0 0 0.387177 0.087564 
0.049481 0.431002 -0.049481 0.0373179 -0 0 0.387177 0.087564 
0.049481 0.431002 0.049481 0.0373179 -0 0 0.387177 0.087564 
-0.049481 0.053909 -0.049481 -0.0373179 0 0 0.387177 0.087564 
-0.049481 0.053909 0.049481 -0.0373179 0 0 0.387177 0.087564 
-0.049481 0.431002 0.049481 -0.0373179 0 0 0.387177 0.087564 
-0.049481 0.053909 -0.049481 -0.0373179 0 0 0.387177 0.087564 
-0.049481 0.431002 0.049481 -0.0373179 0 0 0.387177 0.087564 
-0.049481 0.431002 -0.049481 -0.0373179 0 0 0.387177 0.087564 
-0.049481 0.431002 0.049481 0 -0.00179369 0 0.358816 0.084728 
0.049481 0.431002 0.049481 0 -0.00179369 0 0.358816 0.084728 
0.067605 0.431002 0.067606 0 -0.00179369 0 0.358816 0.084728 
-0.049481 0.431002 0.049481 0 -0.00245068 0 0.358816 0.084728 
0.067605 0.431002 0.067606 0 -0.00245068 0 0.358816 0.084728 
-0.067605 0.431002 0.067606 0 -0.00245068 0 0.358816 0.084728 
0.049481 0.431002 0.049481 0 -0.00179359 0 0.358816 0.084728 
0.049481 0.431002 -0.049481 0 -0.00179359 0 0.358816 0.084728 
0.067605 0.431002 -0.067606 0 -0.00179359 0 0.358816 0.084728 
0.049481 0.431002 0.049481 0 -0.00245058 0 0.358816 0.084728 
0.067605 0.431002 -0.067606 0 -0.00245058 0 0.358816 0.084728 
0.067605 0.431002 0.067606 0 -0.00245058 0 0.358816 0.084728 
0.049481 0.431002 -0.049481 -0 -0.00179369 0 0.358816 0.084728 
-0.049481 0.431002 -0.049481 -0 -0.00179369 0 0.358816 0.084728 
-0.067605 0.431002 -0.067606 -0 -0.00179369 0 0.358816 0.084728 
0.049481 0.431002 -0.049481 0 -0.00245068 -0 0.358816 0.084728 
-0.067605 0.431002 -0.067606 0 -0.00245068 -0 0.358816 0.084728 
0.067605 0.431002 -0.067606 0 -0.00245068 -0 0.358816 0.084728 
-0.049481 0.431002 -0.049481 0 -0.00179359 0 0.358816 0.084728 
-0.049481 0.431002 0.049481 0 -0.00179359 0 0.358816 0.084728 
-0.067605 0.431002 0.067606 0 -0.00179359 0 0.358816 0.084728 
-0.049481 0.431002 -0.049481 -0 -0.00245058 0 0.358816 0.084728 
-0.067605 0.431002 0.067606 -0 -0.00245058 0 0.358816 0.084728 
-0.067605 0.431002 -0.067606 -0 -0.00245058 0 0.358816 0.084728 
-0.067605 0.431002 0.067606 0 0 0.00517773 0.419792 0.085437 
0.067605 0.431002 0.067606 0 0 0.00517773 0.419792 0.085437 
0.067605 0.469296 0.067606 0 0 0.00517773 0.419792 0.085437 
-0.067605 0.431002 0.067606 0 0 0.00517773 0.419792 0.085437 
0.067605 0.469296 0.067606 0 0 0.00517773 0.419792 0.085437 
-0.067605 0.469296 0.067606 0 0 0.00517773 0.419792 0.085437 
0.067605 0.431002 0.067606 0.00517781 0 0 0.387177 0.087564 
0.067605 0.431002 -0.067606 0.00517781 0 0 0.387177 0.087564 
0.067605 0.469296 -0.067606 0.00517781 0 0 0.387177 0.087564 
0.067605 0.431002 0.067606 0.00517781 -0 0 0.387177 0.087564 
0.067605 0.469296 -0.067606 0.00517781 -0 0 0.387177 0.087564 
0.067605 0.469296 0.067606 0.00517781 -0 0 0.387177 0.087564 
0.067605 0.431002 -0.067606 0 0 -0.00517773 0.419792 0.085437 
-0.067605 0.431002 -0.067606 0 0 -0.00517773 0.419792 0.085437 
-0.067605 0.469296 -0.067606 0 0 -0.00517773 0.419792 0.085437 
0.067605 0.431002 -0.067606 0 0 -0.00517773 0.419792 0.085437 
-0.067605 0.469296 -0.067606 0 0 -0.00517773 0.419792 0.085437 
0.067605 0.469296 -0.067606 0 0 -0.00517773 0.419792 0.085437 
-0.067605 0.431002 -0.067606 -0.00517781 0 0 0.387177 0.087564 
-0.067605 0.431002 0.067606 -0.00517781 0 0 0.387177 0.087564 
-0.067605 0.469296 0.067606 -0.00517781 0 0 0.387177 0.087564 
-0.067605 0.431002 -0.067606 -0.00517781 0 0 0.387177 0.087564 
-0.067605 0.469296 0.067606 -0.00517781 0 0 0.387177 0.087564 
-0.067605 0.469296 -0.067606 -0.00517781 0 0 0.387177 0.087564 
-0.067605 0.469296 0.067606 -0 0.00331887 0 0.448862 0.086855 
0.067605 0.469296 0.067606 -0 0.00331887 0 0.448862 0.086855 
0.043061 0.469296 0.04306 -0 0.00331887 0 0.448862 0.086855 
-0.067605 0.469296 0.067606 0 0.00211393 0 0.448862 0.086855 
0.043061 0.469296 0.04306 0 0.00211393 0 0.448862 0.086855 
-0.04306 0.469296 0.04306 0 0.00211393 0 0.448862 0.086855 
0.067605 0.469296 0.067606 0 0.00331864 0 0.448862 0.086855 
0.067605 0.469296 -0.067606 0 0.00331864 0 0.448862 0.086855 
0.043061 0.469296 -0.043059 0 0.00331864 0 0.448862 0.086855 
0.067605 0.469296 0.067606 0 0.00211371 0 0.448862 0.086855 
0.043061 0.469296 -0.043059 0 0.00211371 0 0.448862 0.086855 
0.043061 0.469296 0.04306 0 0.00211371 0 0.448862 0.086855 
0.067605 0.469296 -0.067606 0 0.003319 0 0.448862 0.086855 
-0.067605 0.469296 -0.067606 0 0.003319 0 0.448862 0.086855 
-0.04306 0.469296 -0.043059 0 0.003319 0 0.448862 0.086855 
0.067605 0.469296 -0.067606 0 0.00211401 0 0.448862 0.086855 
-0.04306 0.469296 -0.043059 0 0.00211401 0 0.448862 0.086855 
0.043061 0.469296 -0.043059 0 0.00211401 0 0.448862 0.086855 
-0.067605 0.469296 -0.067606 0 0.00331878 0 0.448862 0.086855 
-0.067605 0.469296 0.067606 0 0.00331878 0 0.448862 0.086855 
-0.04306 0.469296 0.04306 0 0.00331878 0 0.448862 0.086855 
-0.067605 0.469296 -0.067606 0 0.00211379 0 0.448862 0.086855 
-0.04306 0.469296 0.04306 0 0.00211379 0 0.448862 0.086855 
-0.04306 0.469296 -0.043059 0 0.00211379 0 0.448862 0.086855 
-0.049481 0.053909 -0.049481 0 -0.00190017 -0.00533494 0.419792 0.085437 
0.049481 0.053909 -0.049481 0 -0.00190017 -0.00533494 0.419792 0.085437 
0.03028 0 -0.03028 0 -0.00190017 -0.00533494 0.419792 0.085437 
-0.049481 0.053909 -0.049481 0 -0.00116281 -0.00326473 0.419792 0.085437 
0.03028 0 -0.03028 0 -0.00116281 -0.00326473 0.419792 0.085437 
-0.03028 0 -0.03028 0 -0.00116281 -0.00326473 0.419792 0.085437 
0.049481 0.053909 -0.049481 0.00533494 -0.00190017 0 0.387177 0.087564 
0.049481 0.053909 0.049481 0.00533494 -0.00190017 0 0.387177 0.087564 
0.03028 0 0.03028 0.00533494 -0.00190017 0 0.387177 0.087564 
0.049481 0.053909 -0.049481 0.00326473 -0.00116281 0 0.387177 0.087564 
0.03028 0 0.03028 0.00326473 -0.00116281 0 0.387177 0.087564 
0.03028 0 -0.03028 0.00326473 -0.00116281 0 0.387177 0.087564 
0.049481 0.053909 0.049481 0 -0.00190017 0.00533494 0.419792 0.085437 
-0.049481 0.053909 0.049481 0 -0.00190017 0.00533494 0.419792 0.085437 
-0.03028 0 0.03028 0 -0.00190017 0.00533494 0.419792 0.085437 
0.049481 0.053909 0.049481 0 -0.00116281 0.00326473 0.419792 0.085437 
-0.03028 0 0.03028 0 -0.00116281 0.00326473 0.419792 0.085437 
0.03028 0 0.03028 0 -0.00116281 0.00326473 0.419792 0.085437 
-0.049481 0.053909 0.049481 -0.00533494 -0.00190017 -0 0.387177 0.087564 
-0.049481 0.053909 -0.049481 -0.00533494 -0.00190017 -0 0.387177 0.087564 
-0.03028 0 -0.03028 -0.00533494 -0.00190017 -0 0.387177 0.087564 
-0.049481 0.053909 0.049481 -0.00326473 -0.00116281 0 0.387177 0.087564 
-0.03028 0 -0.03028 -0.00326473 -0.00116281 0 0.387177 0.087564 
-0.03028 0 0.03028 -0.00326473 -0.00116281 0 0.387177 0.087564 
3 0 1 2
3 3 4 5
3 6 7 8
3 9 10 11
3 12 13 14
3 15 16 17
3 18 19 20
3 21 22 23
3 24 25 26
3 27 28 29
3 30 31 32
3 33 34 35
3 36 37 38
3 39 40 41
3 42 43 44
3 45 46 47
3 48 49 50
3 51 52 53
3 54 55 56
3 57 58 59
3 60 61 62
3 63 64 65
3 66 67 68
3 69 70 71
3 72 73 74
3 75 76 77
3 78 79 80
3 81 82 83
3 84 85 86
3 87 88 89
3 90 91 92
3 93 94 95
3 96 97 98
3 99 100 101
3 102 103 104
3 105 106 107
3 108 109 110
3 111 112 113
3 114 115 116
3 117 118 119
3 120 121 122
3 123 124 125
3 126 127 128
3 129 130 131
