ply
format ascii 1.0
comment Feeney's Flatenator generated
comment TextureFile SpaceInteriors_Texture.png
element vertex 30
property float x
property float y
property float z
property float nx
property float ny
property float nz
property uchar red
property uchar green
property uchar blue
property uchar alpha
property float texture_u
property float texture_v
element face 10
property list uchar int vertex_indices
end_header
0.292953 0.123591 -0.206228 0 0.24166 0 93 90 74 255 0.503043 0.287859 
-0.292953 0.123591 -0.206228 0 0.24166 0 93 90 74 255 0.642114 0.287859 
-0.292953 0.123591 0.206228 0 0.24166 0 93 90 74 255 0.642114 0.37374 
0.292953 0.123591 -0.206228 0 0.24166 -0 93 90 74 255 0.503043 0.287859 
-0.292953 0.123591 0.206228 0 0.24166 -0 93 90 74 255 0.642114 0.37374 
0.292953 0.123591 0.206228 0 0.24166 -0 93 90 74 255 0.503043 0.37374 
-0.292953 0.123591 -0.206228 0 0 -0.0724127 80 77 64 255 0.877579 0.406055 
0.292953 0.123591 -0.206228 0 0 -0.0724127 80 77 64 255 0.877579 0.406055 
0.292953 0 -0.206228 0 0 -0.0724127 80 77 64 255 0.877579 0.406055 
-0.292953 0.123591 -0.206228 0 0 -0.0724127 80 77 64 255 0.877579 0.406055 
0.292953 0 -0.206228 0 0 -0.0724127 80 77 64 255 0.877579 0.406055 
-0.292953 0 -0.206228 0 0 -0.0724127 80 77 64 255 0.877579 0.406055 
-0.292953 0.123591 0.206228 -0.0509758 0 -0 69 67 55 255 0.892889 0.406055 
-0.292953 0.123591 -0.206228 -0.0509758 0 -0 69 67 55 255 0.892889 0.406055 
-0.292953 0 -0.206228 -0.0509758 0 -0 69 67 55 255 0.892889 0.406055 
-0.292953 0.123591 0.206228 -0.0509758 -0 0 69 67 55 255 0.892889 0.406055 
-0.292953 0 -0.206228 -0.0509758 -0 0 69 67 55 255 0.892889 0.406055 
-0.292953 0 0.206228 -0.0509758 -0 0 69 67 55 255 0.892889 0.406055 
0.292953 0.123591 0.206228 0 0 0.0724127 80 77 64 255 0.877579 0.406055 
-0.292953 0.123591 0.206228 0 0 0.0724127 80 77 64 255 0.877579 0.406055 
-0.292953 0 0.206228 0 0 0.0724127 80 77 64 255 0.877579 0.406055 
0.292953 0.123591 0.206228 0 0 0.0724127 80 77 64 255 0.877579 0.406055 
-0.292953 0 0.206228 0 0 0.0724127 80 77 64 255 0.877579 0.406055 
0.292953 0 0.206228 0 0 0.0724127 80 77 64 255 0.877579 0.406055 
0.292953 0.123591 -0.206228 0.0509758 0 -0 69 67 55 255 0.892889 0.406055 
0.292953 0.123591 0.206228 0.0509758 0 -0 69 67 55 255 0.892889 0.406055 
0.292953 0 0.206228 0.0509758 0 -0 69 67 55 255 0.892889 0.406055 
0.292953 0.123591 -0.206228 0.0509758 0 0 69 67 55 255 0.892889 0.406055 
0.292953 0 0.206228 0.0509758 0 0 69 67 55 255 0.892889 0.406055 
0.292953 0 -0.206228 0.0509758 0 0 69 67 55 255 0.892889 0.406055 
3 0 1 2
3 3 4 5
3 6 7 8
3 9 10 11
3 12 13 14
3 15 16 17
3 18 19 20
3 21 22 23
3 24 25 26
3 27 28 29
