ply
format ascii 1.0
comment Feeney's Flatenator generated
comment TextureFile SpaceInteriors_Texture.png
element vertex 84
property float x
property float y
property float z
property float nx
property float ny
property float nz
property uchar red
property uchar green
property uchar blue
property uchar alpha
element face 28
property list uchar int vertex_indices
end_header
0 0 -1 0 0 -0.264526 108 105 102 255 
-1 0 -1 0 0 -0.264526 108 105 102 255 
-1 0.264526 -1 0 0 -0.264526 108 105 102 255 
0 0 -1 0 0 -0.264526 108 105 102 255 
-1 0.264526 -1 0 0 -0.264526 108 105 102 255 
0 0.264526 -1 0 0 -0.264526 108 105 102 255 
-0.148447 0.175764 -0.851553 0 0.494359 0 108 105 102 255 
-0.851554 0.175764 -0.851553 0 0.494359 0 108 105 102 255 
-0.851554 0.175764 -0.148447 0 0.494359 0 108 105 102 255 
-0.148447 0.175764 -0.851553 0 0.494359 -0 108 105 102 255 
-0.851554 0.175764 -0.148447 0 0.494359 -0 108 105 102 255 
-0.148447 0.175764 -0.148447 0 0.494359 -0 108 105 102 255 
0 0.264526 0 0 0 0.264526 108 105 102 255 
-1 0.264526 0 0 0 0.264526 108 105 102 255 
-1 0 0 0 0 0.264526 108 105 102 255 
0 0.264526 0 0 0 0.264526 108 105 102 255 
-1 0 0 0 0 0.264526 108 105 102 255 
0 0 0 0 0 0.264526 108 105 102 255 
0 0 0 -0 -1 0 75 72 70 255 
-1 0 0 -0 -1 0 75 72 70 255 
-1 0 -1 -0 -1 0 75 72 70 255 
0 0 0 0 -1 -0 75 72 70 255 
-1 0 -1 0 -1 -0 75 72 70 255 
0 0 -1 0 -1 -0 75 72 70 255 
-1 0 -1 -0.264526 0 0 91 88 86 255 
-1 0 0 -0.264526 0 0 91 88 86 255 
-1 0.264526 0 -0.264526 0 0 91 88 86 255 
-1 0 -1 -0.264526 0 0 91 88 86 255 
-1 0.264526 0 -0.264526 0 0 91 88 86 255 
-1 0.264526 -1 -0.264526 0 0 91 88 86 255 
0 0 0 0.264526 0 0 91 88 86 255 
0 0 -1 0.264526 0 0 91 88 86 255 
0 0.264526 -1 0.264526 0 0 91 88 86 255 
0 0 0 0.264526 -0 0 91 88 86 255 
0 0.264526 -1 0.264526 -0 0 91 88 86 255 
0 0.264526 0 0.264526 -0 0 91 88 86 255 
0 0.264526 -1 0 0.148447 0 125 121 118 255 
-1 0.264526 -1 0 0.148447 0 125 121 118 255 
-0.851554 0.264526 -0.851553 0 0.148447 0 125 121 118 255 
0 0.264526 -1 0 0.104374 0 125 121 118 255 
-0.851554 0.264526 -0.851553 0 0.104374 0 125 121 118 255 
-0.148447 0.264526 -0.851553 0 0.104374 0 125 121 118 255 
-1 0.264526 -1 0 0.148446 0 125 121 118 255 
-1 0.264526 0 0 0.148446 0 125 121 118 255 
-0.851554 0.264526 -0.148447 0 0.148446 0 125 121 118 255 
-1 0.264526 -1 0 0.104373 0 125 121 118 255 
-0.851554 0.264526 -0.148447 0 0.104373 0 125 121 118 255 
-0.851554 0.264526 -0.851553 0 0.104373 0 125 121 118 255 
-1 0.264526 0 -0 0.148447 0 125 121 118 255 
0 0.264526 0 -0 0.148447 0 125 121 118 255 
-0.148447 0.264526 -0.148447 -0 0.148447 0 125 121 118 255 
-1 0.264526 0 0 0.104374 0 125 121 118 255 
-0.148447 0.264526 -0.148447 0 0.104374 0 125 121 118 255 
-0.851554 0.264526 -0.148447 0 0.104374 0 125 121 118 255 
0 0.264526 0 0 0.148447 0 125 121 118 255 
0 0.264526 -1 0 0.148447 0 125 121 118 255 
-0.148447 0.264526 -0.851553 0 0.148447 0 125 121 118 255 
0 0.264526 0 0 0.104374 0 125 121 118 255 
-0.148447 0.264526 -0.851553 0 0.104374 0 125 121 118 255 
-0.148447 0.264526 -0.148447 0 0.104374 0 125 121 118 255 
-0.148447 0.264526 -0.851553 0 0 0.0624092 108 105 102 255 
-0.851554 0.264526 -0.851553 0 0 0.0624092 108 105 102 255 
-0.851554 0.175764 -0.851553 0 0 0.0624092 108 105 102 255 
-0.148447 0.264526 -0.851553 0 0 0.0624092 108 105 102 255 
-0.851554 0.175764 -0.851553 0 0 0.0624092 108 105 102 255 
-0.148447 0.175764 -0.851553 0 0 0.0624092 108 105 102 255 
-0.851554 0.264526 -0.851553 0.0624091 0 -0 91 88 86 255 
-0.851554 0.264526 -0.148447 0.0624091 0 -0 91 88 86 255 
-0.851554 0.175764 -0.148447 0.0624091 0 -0 91 88 86 255 
-0.851554 0.264526 -0.851553 0.0624091 0 0 91 88 86 255 
-0.851554 0.175764 -0.148447 0.0624091 0 0 91 88 86 255 
-0.851554 0.175764 -0.851553 0.0624091 0 0 91 88 86 255 
-0.851554 0.264526 -0.148447 0 0 -0.0624092 108 105 102 255 
-0.148447 0.264526 -0.148447 0 0 -0.0624092 108 105 102 255 
-0.148447 0.175764 -0.148447 0 0 -0.0624092 108 105 102 255 
-0.851554 0.264526 -0.148447 0 0 -0.0624092 108 105 102 255 
-0.148447 0.175764 -0.148447 0 0 -0.0624092 108 105 102 255 
-0.851554 0.175764 -0.148447 0 0 -0.0624092 108 105 102 255 
-0.148447 0.264526 -0.148447 -0.0624091 0 -0 91 88 86 255 
-0.148447 0.264526 -0.851553 -0.0624091 0 -0 91 88 86 255 
-0.148447 0.175764 -0.851553 -0.0624091 0 -0 91 88 86 255 
-0.148447 0.264526 -0.148447 -0.0624091 -0 0 91 88 86 255 
-0.148447 0.175764 -0.851553 -0.0624091 -0 0 91 88 86 255 
-0.148447 0.175764 -0.148447 -0.0624091 -0 0 91 88 86 255 
3 0 1 2
3 3 4 5
3 6 7 8
3 9 10 11
3 12 13 14
3 15 16 17
3 18 19 20
3 21 22 23
3 24 25 26
3 27 28 29
3 30 31 32
3 33 34 35
3 36 37 38
3 39 40 41
3 42 43 44
3 45 46 47
3 48 49 50
3 51 52 53
3 54 55 56
3 57 58 59
3 60 61 62
3 63 64 65
3 66 67 68
3 69 70 71
3 72 73 74
3 75 76 77
3 78 79 80
3 81 82 83
