ply
format ascii 1.0
comment Feeney's Flatenator generated
comment TextureFile SpaceInteriors_Texture.png
element vertex 348
property float x
property float y
property float z
property float nx
property float ny
property float nz
property uchar red
property uchar green
property uchar blue
property uchar alpha
element face 116
property list uchar int vertex_indices
end_header
-0.300102 0.387338 0.300072 0 0 0.0534002 105 111 119 255 
0.300056 0.387338 0.300072 0 0 0.0534002 105 111 119 255 
0.300056 0.476315 0.300072 0 0 0.0534002 105 111 119 255 
-0.300102 0.387338 0.300072 0 0 0.0534002 105 111 119 255 
0.300056 0.476315 0.300072 0 0 0.0534002 105 111 119 255 
-0.300102 0.476315 0.300072 0 0 0.0534002 105 111 119 255 
-0.300102 0.476315 -0.300064 0 0 -0.0534002 105 111 119 255 
0.300056 0.476315 -0.300064 0 0 -0.0534002 105 111 119 255 
0.300056 0.387338 -0.300064 0 0 -0.0534002 105 111 119 255 
-0.300102 0.476315 -0.300064 0 0 -0.0534002 105 111 119 255 
0.300056 0.387338 -0.300064 0 0 -0.0534002 105 111 119 255 
-0.300102 0.387338 -0.300064 0 0 -0.0534002 105 111 119 255 
0.300056 0.387338 0.300072 0.0533983 0 0 89 93 100 255 
0.300056 0.387338 -0.300064 0.0533983 0 0 89 93 100 255 
0.300056 0.476315 -0.300064 0.0533983 0 0 89 93 100 255 
0.300056 0.387338 0.300072 0.0533983 -0 0 89 93 100 255 
0.300056 0.476315 -0.300064 0.0533983 -0 0 89 93 100 255 
0.300056 0.476315 0.300072 0.0533983 -0 0 89 93 100 255 
-0.300102 0.387338 -0.300064 -0.0533983 0 0 89 93 100 255 
-0.300102 0.387338 0.300072 -0.0533983 0 0 89 93 100 255 
-0.300102 0.476315 0.300072 -0.0533983 0 0 89 93 100 255 
-0.300102 0.387338 -0.300064 -0.0533983 0 0 89 93 100 255 
-0.300102 0.476315 0.300072 -0.0533983 0 0 89 93 100 255 
-0.300102 0.476315 -0.300064 -0.0533983 0 0 89 93 100 255 
-0.300102 0.476315 0.300072 -0 0.0424048 0 122 128 138 255 
0.300056 0.476315 0.300072 -0 0.0424048 0 122 128 138 255 
0.229393 0.476315 0.229416 -0 0.0424048 0 122 128 138 255 
-0.300102 0.476315 0.300072 0 0.0324192 0 122 128 138 255 
0.229393 0.476315 0.229416 0 0.0324192 0 122 128 138 255 
-0.229439 0.476315 0.229416 0 0.0324192 0 122 128 138 255 
0.300056 0.476315 0.300072 0 0.0424074 0 122 128 138 255 
0.300056 0.476315 -0.300064 0 0.0424074 0 122 128 138 255 
0.229393 0.476315 -0.229404 0 0.0424074 0 122 128 138 255 
0.300056 0.476315 0.300072 0 0.0324216 0 122 128 138 255 
0.229393 0.476315 -0.229404 0 0.0324216 0 122 128 138 255 
0.229393 0.476315 0.229416 0 0.0324216 0 122 128 138 255 
0.300056 0.476315 -0.300064 0 0.0424072 0 122 128 138 255 
-0.300102 0.476315 -0.300064 0 0.0424072 0 122 128 138 255 
-0.229439 0.476315 -0.229404 0 0.0424072 0 122 128 138 255 
0.300056 0.476315 -0.300064 0 0.0324211 0 122 128 138 255 
-0.229439 0.476315 -0.229404 0 0.0324211 0 122 128 138 255 
0.229393 0.476315 -0.229404 0 0.0324211 0 122 128 138 255 
-0.300102 0.476315 -0.300064 0 0.0424074 0 122 128 138 255 
-0.300102 0.476315 0.300072 0 0.0424074 0 122 128 138 255 
-0.229439 0.476315 0.229416 0 0.0424074 0 122 128 138 255 
-0.300102 0.476315 -0.300064 0 0.0324216 0 122 128 138 255 
-0.229439 0.476315 0.229416 0 0.0324216 0 122 128 138 255 
-0.229439 0.476315 -0.229404 0 0.0324216 0 122 128 138 255 
-0.300102 0.387338 -0.300064 0 -0.0424072 0 73 77 82 255 
0.300056 0.387338 -0.300064 0 -0.0424072 0 73 77 82 255 
0.229393 0.387338 -0.229404 0 -0.0424072 0 73 77 82 255 
-0.300102 0.387338 -0.300064 0 -0.0324211 0 73 77 82 255 
0.229393 0.387338 -0.229404 0 -0.0324211 0 73 77 82 255 
-0.229439 0.387338 -0.229404 0 -0.0324211 0 73 77 82 255 
0.300056 0.387338 -0.300064 0 -0.0424074 0 73 77 82 255 
0.300056 0.387338 0.300072 0 -0.0424074 0 73 77 82 255 
0.229393 0.387338 0.229416 0 -0.0424074 0 73 77 82 255 
0.300056 0.387338 -0.300064 0 -0.0324216 0 73 77 82 255 
0.229393 0.387338 0.229416 0 -0.0324216 0 73 77 82 255 
0.229393 0.387338 -0.229404 0 -0.0324216 0 73 77 82 255 
0.300056 0.387338 0.300072 -0 -0.0424048 0 73 77 82 255 
-0.300102 0.387338 0.300072 -0 -0.0424048 0 73 77 82 255 
-0.229439 0.387338 0.229416 -0 -0.0424048 0 73 77 82 255 
0.300056 0.387338 0.300072 0 -0.0324192 0 73 77 82 255 
-0.229439 0.387338 0.229416 0 -0.0324192 0 73 77 82 255 
0.229393 0.387338 0.229416 0 -0.0324192 0 73 77 82 255 
-0.300102 0.387338 0.300072 0 -0.0424074 0 73 77 82 255 
-0.300102 0.387338 -0.300064 0 -0.0424074 0 73 77 82 255 
-0.229439 0.387338 -0.229404 0 -0.0424074 0 73 77 82 255 
-0.300102 0.387338 0.300072 0 -0.0324216 0 73 77 82 255 
-0.229439 0.387338 -0.229404 0 -0.0324216 0 73 77 82 255 
-0.229439 0.387338 0.229416 0 -0.0324216 0 73 77 82 255 
0.229393 0.476315 -0.229404 0 0 0.0408255 105 111 119 255 
-0.229439 0.476315 -0.229404 0 0 0.0408255 105 111 119 255 
-0.229439 0.387338 -0.229404 0 0 0.0408255 105 111 119 255 
0.229393 0.476315 -0.229404 0 0 0.0408255 105 111 119 255 
-0.229439 0.387338 -0.229404 0 0 0.0408255 105 111 119 255 
0.229393 0.387338 -0.229404 0 0 0.0408255 105 111 119 255 
-0.229439 0.476315 -0.229404 0.0408244 0 -0 89 93 100 255 
-0.229439 0.476315 0.229416 0.0408244 0 -0 89 93 100 255 
-0.229439 0.387338 0.229416 0.0408244 0 -0 89 93 100 255 
-0.229439 0.476315 -0.229404 0.0408244 0 0 89 93 100 255 
-0.229439 0.387338 0.229416 0.0408244 0 0 89 93 100 255 
-0.229439 0.387338 -0.229404 0.0408244 0 0 89 93 100 255 
0.229393 0.476315 -0.229404 -0.0408244 0 0 89 93 100 255 
0.229393 0.387338 -0.229404 -0.0408244 0 0 89 93 100 255 
0.229393 0.387338 0.229416 -0.0408244 0 0 89 93 100 255 
0.229393 0.476315 -0.229404 -0.0408244 0 0 89 93 100 255 
0.229393 0.387338 0.229416 -0.0408244 0 0 89 93 100 255 
0.229393 0.476315 0.229416 -0.0408244 0 0 89 93 100 255 
0.229393 0.476315 0.229416 0 -0 -0.0408255 105 111 119 255 
0.229393 0.387338 0.229416 0 -0 -0.0408255 105 111 119 255 
-0.229439 0.387338 0.229416 0 -0 -0.0408255 105 111 119 255 
0.229393 0.476315 0.229416 -0 0 -0.0408255 105 111 119 255 
-0.229439 0.387338 0.229416 -0 0 -0.0408255 105 111 119 255 
-0.229439 0.476315 0.229416 -0 0 -0.0408255 105 111 119 255 
-0.879608 0.176528 0.879601 -0 0.313788 0 105 111 119 255 
0.879608 0.176528 0.879601 -0 0.313788 0 105 111 119 255 
0.701233 0.176528 0.701233 -0 0.313788 0 105 111 119 255 
-0.879608 0.176528 0.879601 0 0.250154 0 105 111 119 255 
0.701233 0.176528 0.701233 0 0.250154 0 105 111 119 255 
-0.701225 0.176528 0.701233 0 0.250154 0 105 111 119 255 
-0.034203 0.491944 0.034187 -0 0.00467405 0 122 128 138 255 
0.034164 0.491944 0.034187 -0 0.00467405 0 122 128 138 255 
0.034164 0.491944 -0.03418 -0 0.00467405 0 122 128 138 255 
-0.034203 0.491944 0.034187 0 0.00467405 0 122 128 138 255 
0.034164 0.491944 -0.03418 0 0.00467405 0 122 128 138 255 
-0.034203 0.491944 -0.03418 0 0.00467405 0 122 128 138 255 
-0.701225 0.176528 -0.701229 -0 0.250163 0 105 111 119 255 
0.701233 0.176528 -0.701229 -0 0.250163 0 105 111 119 255 
0.879608 0.176528 -0.879604 -0 0.250163 0 105 111 119 255 
-0.701225 0.176528 -0.701229 0 0.3138 0 105 111 119 255 
0.879608 0.176528 -0.879604 0 0.3138 0 105 111 119 255 
-0.879608 0.176528 -0.879604 0 0.3138 0 105 111 119 255 
-0.879608 0 -0.879604 0 -3.09483 0 57 60 64 255 
0.879608 0 -0.879604 0 -3.09483 0 57 60 64 255 
0.879608 0 0.879604 0 -3.09483 0 57 60 64 255 
-0.879608 0 -0.879604 0 -3.09483 0 57 60 64 255 
0.879608 0 0.879604 0 -3.09483 0 57 60 64 255 
-0.879608 0 0.879604 0 -3.09483 0 57 60 64 255 
0.879608 0.176528 0.879601 0 0.313798 0 105 111 119 255 
0.879608 0.176528 -0.879604 0 0.313798 0 105 111 119 255 
0.701233 0.176528 -0.701229 0 0.313798 0 105 111 119 255 
0.879608 0.176528 0.879601 0 0.250164 0 105 111 119 255 
0.701233 0.176528 -0.701229 0 0.250164 0 105 111 119 255 
0.701233 0.176528 0.701233 0 0.250164 0 105 111 119 255 
-0.879608 0.176528 -0.879604 0 0.313812 0 105 111 119 255 
-0.879608 0.176528 0.879601 0 0.313812 0 105 111 119 255 
-0.701225 0.176528 0.701233 0 0.313812 0 105 111 119 255 
-0.879608 0.176528 -0.879604 0 0.250175 0 105 111 119 255 
-0.701225 0.176528 0.701233 0 0.250175 0 105 111 119 255 
-0.701225 0.176528 -0.701229 0 0.250175 0 105 111 119 255 
-0.879608 0 -0.879604 -0.310549 0 0 73 77 82 255 
-0.879608 0 0.879604 -0.310549 0 0 73 77 82 255 
-0.879608 0.176528 0.879601 -0.310549 0 0 73 77 82 255 
-0.879608 0 -0.879604 -0.310549 0 0 73 77 82 255 
-0.879608 0.176528 0.879601 -0.310549 0 0 73 77 82 255 
-0.879608 0.176528 -0.879604 -0.310549 0 0 73 77 82 255 
-0.879608 0 0.879604 -0 5.24287e-06 0.310551 89 93 100 255 
0.879608 0 0.879604 -0 5.24287e-06 0.310551 89 93 100 255 
0.879608 0.176528 0.879601 -0 5.24287e-06 0.310551 89 93 100 255 
-0.879608 0 0.879604 0 5.24287e-06 0.310551 89 93 100 255 
0.879608 0.176528 0.879601 0 5.24287e-06 0.310551 89 93 100 255 
-0.879608 0.176528 0.879601 0 5.24287e-06 0.310551 89 93 100 255 
0.879608 0 0.879604 0.310549 0 0 73 77 82 255 
0.879608 0 -0.879604 0.310549 0 0 73 77 82 255 
0.879608 0.176528 -0.879604 0.310549 0 0 73 77 82 255 
0.879608 0 0.879604 0.310549 0 0 73 77 82 255 
0.879608 0.176528 -0.879604 0.310549 0 0 73 77 82 255 
0.879608 0.176528 0.879601 0.310549 0 0 73 77 82 255 
-0.879608 0.176528 -0.879604 0 0 -0.310551 89 93 100 255 
0.879608 0.176528 -0.879604 0 0 -0.310551 89 93 100 255 
0.879608 0 -0.879604 0 0 -0.310551 89 93 100 255 
-0.879608 0.176528 -0.879604 0 0 -0.310551 89 93 100 255 
0.879608 0 -0.879604 0 0 -0.310551 89 93 100 255 
-0.879608 0 -0.879604 0 0 -0.310551 89 93 100 255 
-0.701225 0.176528 0.701233 0 0 0.173191 125 121 118 255 
0.701233 0.176528 0.701233 0 0 0.173191 125 121 118 255 
0.701233 0.300019 0.701233 0 0 0.173191 125 121 118 255 
-0.701225 0.176528 0.701233 0 0 0.173191 125 121 118 255 
0.701233 0.300019 0.701233 0 0 0.173191 125 121 118 255 
-0.701225 0.300019 0.701233 0 0 0.173191 125 121 118 255 
-0.701225 0.176528 -0.701229 -0.173191 0 0 108 105 102 255 
-0.701225 0.176528 0.701233 -0.173191 0 0 108 105 102 255 
-0.701225 0.300019 0.701233 -0.173191 0 0 108 105 102 255 
-0.701225 0.176528 -0.701229 -0.173191 0 0 108 105 102 255 
-0.701225 0.300019 0.701233 -0.173191 0 0 108 105 102 255 
-0.701225 0.300019 -0.701229 -0.173191 0 0 108 105 102 255 
-0.701225 0.300019 -0.701229 0 0 -0.173191 125 121 118 255 
0.701233 0.300019 -0.701229 0 0 -0.173191 125 121 118 255 
0.701233 0.176528 -0.701229 0 0 -0.173191 125 121 118 255 
-0.701225 0.300019 -0.701229 0 0 -0.173191 125 121 118 255 
0.701233 0.176528 -0.701229 0 0 -0.173191 125 121 118 255 
-0.701225 0.176528 -0.701229 0 0 -0.173191 125 121 118 255 
0.701233 0.176528 0.701233 0.173191 0 0 108 105 102 255 
0.701233 0.176528 -0.701229 0.173191 0 0 108 105 102 255 
0.701233 0.300019 -0.701229 0.173191 0 0 108 105 102 255 
0.701233 0.176528 0.701233 0.173191 -0 0 108 105 102 255 
0.701233 0.300019 -0.701229 0.173191 -0 0 108 105 102 255 
0.701233 0.300019 0.701233 0.173191 -0 0 108 105 102 255 
-0.701225 0.300019 0.701233 -0 0.859839 0 157 152 148 255 
0.701233 0.300019 0.701233 -0 0.859839 0 157 152 148 255 
0.088127 0.300019 0.088139 -0 0.859839 0 157 152 148 255 
-0.701225 0.300019 0.701233 0 0.108079 0 157 152 148 255 
0.088127 0.300019 0.088139 0 0.108079 0 157 152 148 255 
-0.088158 0.300019 0.088139 0 0.108079 0 157 152 148 255 
0.701233 0.300019 0.701233 0 0.859858 0 157 152 148 255 
0.701233 0.300019 -0.701229 0 0.859858 0 157 152 148 255 
0.088127 0.300019 -0.088135 0 0.859858 0 157 152 148 255 
0.701233 0.300019 0.701233 0 0.108075 0 157 152 148 255 
0.088127 0.300019 -0.088135 0 0.108075 0 157 152 148 255 
0.088127 0.300019 0.088139 0 0.108075 0 157 152 148 255 
0.701233 0.300019 -0.701229 0 0.859839 0 157 152 148 255 
-0.701225 0.300019 -0.701229 0 0.859839 0 157 152 148 255 
-0.088158 0.300019 -0.088135 0 0.859839 0 157 152 148 255 
0.701233 0.300019 -0.701229 0 0.108079 0 157 152 148 255 
-0.088158 0.300019 -0.088135 0 0.108079 0 157 152 148 255 
0.088127 0.300019 -0.088135 0 0.108079 0 157 152 148 255 
-0.701225 0.300019 -0.701229 0 0.859803 0 157 152 148 255 
-0.701225 0.300019 0.701233 0 0.859803 0 157 152 148 255 
-0.088158 0.300019 0.088139 0 0.859803 0 157 152 148 255 
-0.701225 0.300019 -0.701229 0 0.108068 0 157 152 148 255 
-0.088158 0.300019 0.088139 0 0.108068 0 157 152 148 255 
-0.088158 0.300019 -0.088135 0 0.108068 0 157 152 148 255 
0.088127 0.300019 0.088139 0 0.00372836 0.0109849 89 93 100 255 
0.052879 0.40385 0.052898 0 0.00372836 0.0109849 89 93 100 255 
-0.052917 0.40385 0.052898 0 0.00372836 0.0109849 89 93 100 255 
0.088127 0.300019 0.088139 0 0.00621246 0.0183038 89 93 100 255 
-0.052917 0.40385 0.052898 0 0.00621246 0.0183038 89 93 100 255 
-0.088158 0.300019 0.088139 0 0.00621246 0.0183038 89 93 100 255 
0.088127 0.300019 -0.088135 0.0109842 0.00372885 0 73 77 82 255 
0.052879 0.40385 -0.052891 0.0109842 0.00372885 0 73 77 82 255 
0.052879 0.40385 0.052898 0.0109842 0.00372885 0 73 77 82 255 
0.088127 0.300019 -0.088135 0.0183027 0.00621331 -0 73 77 82 255 
0.052879 0.40385 0.052898 0.0183027 0.00621331 -0 73 77 82 255 
0.088127 0.300019 0.088139 0.0183027 0.00621331 -0 73 77 82 255 
-0.088158 0.300019 -0.088135 0 0.00372867 -0.0109849 89 93 100 255 
-0.052917 0.40385 -0.052891 0 0.00372867 -0.0109849 89 93 100 255 
0.052879 0.40385 -0.052891 0 0.00372867 -0.0109849 89 93 100 255 
-0.088158 0.300019 -0.088135 0 0.00621299 -0.0183038 89 93 100 255 
0.052879 0.40385 -0.052891 0 0.00621299 -0.0183038 89 93 100 255 
0.088127 0.300019 -0.088135 0 0.00621299 -0.0183038 89 93 100 255 
-0.088158 0.300019 0.088139 -0.0109842 0.00372811 0 73 77 82 255 
-0.052917 0.40385 0.052898 -0.0109842 0.00372811 0 73 77 82 255 
-0.052917 0.40385 -0.052891 -0.0109842 0.00372811 0 73 77 82 255 
-0.088158 0.300019 0.088139 -0.0183027 0.00621207 0 73 77 82 255 
-0.052917 0.40385 -0.052891 -0.0183027 0.00621207 0 73 77 82 255 
-0.088158 0.300019 -0.088135 -0.0183027 0.00621207 0 73 77 82 255 
-0.052917 0.464388 0.052898 -0 0.00197955 0.00291531 89 93 100 255 
0.052879 0.464388 0.052898 -0 0.00197955 0.00291531 89 93 100 255 
0.034164 0.491944 0.034187 -0 0.00197955 0.00291531 89 93 100 255 
-0.052917 0.464388 0.052898 0 0.00127922 0.00188392 89 93 100 255 
0.034164 0.491944 0.034187 0 0.00127922 0.00188392 89 93 100 255 
-0.034203 0.491944 0.034187 0 0.00127922 0.00188392 89 93 100 255 
-0.052917 0.464388 -0.052891 -0.00291512 0.00197974 0 73 77 82 255 
-0.052917 0.464388 0.052898 -0.00291512 0.00197974 0 73 77 82 255 
-0.034203 0.491944 0.034187 -0.00291512 0.00197974 0 73 77 82 255 
-0.052917 0.464388 -0.052891 -0.00188392 0.00127942 0 73 77 82 255 
-0.034203 0.491944 0.034187 -0.00188392 0.00127942 0 73 77 82 255 
-0.034203 0.491944 -0.03418 -0.00188392 0.00127942 0 73 77 82 255 
0.052879 0.464388 -0.052891 0 0.00197955 -0.00291531 89 93 100 255 
-0.052917 0.464388 -0.052891 0 0.00197955 -0.00291531 89 93 100 255 
-0.034203 0.491944 -0.03418 0 0.00197955 -0.00291531 89 93 100 255 
0.052879 0.464388 -0.052891 0 0.00127921 -0.00188392 89 93 100 255 
-0.034203 0.491944 -0.03418 0 0.00127921 -0.00188392 89 93 100 255 
0.034164 0.491944 -0.03418 0 0.00127921 -0.00188392 89 93 100 255 
0.052879 0.464388 0.052898 0.00291512 0.00197984 0 73 77 82 255 
0.052879 0.464388 -0.052891 0.00291512 0.00197984 0 73 77 82 255 
0.034164 0.491944 -0.03418 0.00291512 0.00197984 0 73 77 82 255 
0.052879 0.464388 0.052898 0.00188392 0.00127949 0 73 77 82 255 
0.034164 0.491944 -0.03418 0.00188392 0.00127949 0 73 77 82 255 
0.034164 0.491944 0.034187 0.00188392 0.00127949 0 73 77 82 255 
-0.052917 0.40385 -0.052891 0 -0.0186732 0 73 77 82 255 
-0.052917 0.40385 0.052898 0 -0.0186732 0 73 77 82 255 
-0.229431 0.40385 0.052898 0 -0.0186732 0 73 77 82 255 
-0.052917 0.40385 -0.052891 0 -0.0186732 0 73 77 82 255 
-0.229431 0.40385 0.052898 0 -0.0186732 0 73 77 82 255 
-0.229431 0.40385 -0.052891 0 -0.0186732 0 73 77 82 255 
-0.052917 0.40385 0.052898 0 -0 0.0106858 89 93 100 255 
-0.052917 0.464388 0.052898 0 -0 0.0106858 89 93 100 255 
-0.229431 0.464388 0.052898 0 -0 0.0106858 89 93 100 255 
-0.052917 0.40385 0.052898 0 0 0.0106858 89 93 100 255 
-0.229431 0.464388 0.052898 0 0 0.0106858 89 93 100 255 
-0.229431 0.40385 0.052898 0 0 0.0106858 89 93 100 255 
-0.052917 0.464388 0.052898 0 0.0186732 0 122 128 138 255 
-0.052917 0.464388 -0.052891 0 0.0186732 0 122 128 138 255 
-0.229431 0.464388 -0.052891 0 0.0186732 0 122 128 138 255 
-0.052917 0.464388 0.052898 0 0.0186732 0 122 128 138 255 
-0.229431 0.464388 -0.052891 0 0.0186732 0 122 128 138 255 
-0.229431 0.464388 0.052898 0 0.0186732 0 122 128 138 255 
-0.052917 0.464388 -0.052891 0 -0 -0.0106858 89 93 100 255 
-0.052917 0.40385 -0.052891 0 -0 -0.0106858 89 93 100 255 
-0.229431 0.40385 -0.052891 0 -0 -0.0106858 89 93 100 255 
-0.052917 0.464388 -0.052891 -0 0 -0.0106858 89 93 100 255 
-0.229431 0.40385 -0.052891 -0 0 -0.0106858 89 93 100 255 
-0.229431 0.464388 -0.052891 -0 0 -0.0106858 89 93 100 255 
0.052879 0.40385 0.052898 0 -0.0186732 0 73 77 82 255 
0.052879 0.40385 -0.052891 0 -0.0186732 0 73 77 82 255 
0.229393 0.40385 -0.052891 0 -0.0186732 0 73 77 82 255 
0.052879 0.40385 0.052898 0 -0.0186732 0 73 77 82 255 
0.229393 0.40385 -0.052891 0 -0.0186732 0 73 77 82 255 
0.229393 0.40385 0.052898 0 -0.0186732 0 73 77 82 255 
0.052879 0.40385 -0.052891 0 0 -0.0106858 89 93 100 255 
0.052879 0.464388 -0.052891 0 0 -0.0106858 89 93 100 255 
0.229393 0.464388 -0.052891 0 0 -0.0106858 89 93 100 255 
0.052879 0.40385 -0.052891 0 0 -0.0106858 89 93 100 255 
0.229393 0.464388 -0.052891 0 0 -0.0106858 89 93 100 255 
0.229393 0.40385 -0.052891 0 0 -0.0106858 89 93 100 255 
0.052879 0.464388 -0.052891 0 0.0186732 0 122 128 138 255 
0.052879 0.464388 0.052898 0 0.0186732 0 122 128 138 255 
0.229393 0.464388 0.052898 0 0.0186732 0 122 128 138 255 
0.052879 0.464388 -0.052891 0 0.0186732 0 122 128 138 255 
0.229393 0.464388 0.052898 0 0.0186732 0 122 128 138 255 
0.229393 0.464388 -0.052891 0 0.0186732 0 122 128 138 255 
0.052879 0.464388 0.052898 0 0 0.0106858 89 93 100 255 
0.052879 0.40385 0.052898 0 0 0.0106858 89 93 100 255 
0.229393 0.40385 0.052898 0 0 0.0106858 89 93 100 255 
0.052879 0.464388 0.052898 -0 0 0.0106858 89 93 100 255 
0.229393 0.40385 0.052898 -0 0 0.0106858 89 93 100 255 
0.229393 0.464388 0.052898 -0 0 0.0106858 89 93 100 255 
-0.052917 0.40385 0.052898 0 -0.0186749 0 89 93 100 255 
0.052879 0.40385 0.052898 0 -0.0186749 0 89 93 100 255 
0.052879 0.40385 0.229416 0 -0.0186749 0 89 93 100 255 
-0.052917 0.40385 0.052898 0 -0.0186749 0 89 93 100 255 
0.052879 0.40385 0.229416 0 -0.0186749 0 89 93 100 255 
-0.052917 0.40385 0.229416 0 -0.0186749 0 89 93 100 255 
0.052879 0.40385 0.052898 0.0106861 0 0 73 77 82 255 
0.052879 0.464388 0.052898 0.0106861 0 0 73 77 82 255 
0.052879 0.464388 0.229416 0.0106861 0 0 73 77 82 255 
0.052879 0.40385 0.052898 0.0106861 0 0 73 77 82 255 
0.052879 0.464388 0.229416 0.0106861 0 0 73 77 82 255 
0.052879 0.40385 0.229416 0.0106861 0 0 73 77 82 255 
0.052879 0.464388 0.052898 0 0.0186749 0 122 128 138 255 
-0.052917 0.464388 0.052898 0 0.0186749 0 122 128 138 255 
-0.052917 0.464388 0.229416 0 0.0186749 0 122 128 138 255 
0.052879 0.464388 0.052898 0 0.0186749 -0 122 128 138 255 
-0.052917 0.464388 0.229416 0 0.0186749 -0 122 128 138 255 
0.052879 0.464388 0.229416 0 0.0186749 -0 122 128 138 255 
-0.052917 0.464388 0.052898 -0.0106861 0 0 73 77 82 255 
-0.052917 0.40385 0.052898 -0.0106861 0 0 73 77 82 255 
-0.052917 0.40385 0.229416 -0.0106861 0 0 73 77 82 255 
-0.052917 0.464388 0.052898 -0.0106861 0 0 73 77 82 255 
-0.052917 0.40385 0.229416 -0.0106861 0 0 73 77 82 255 
-0.052917 0.464388 0.229416 -0.0106861 0 0 73 77 82 255 
0.052879 0.40385 -0.052891 -0 -0.0186744 0 89 93 100 255 
-0.052917 0.40385 -0.052891 -0 -0.0186744 0 89 93 100 255 
-0.052917 0.40385 -0.229404 -0 -0.0186744 0 89 93 100 255 
0.052879 0.40385 -0.052891 0 -0.0186744 -0 89 93 100 255 
-0.052917 0.40385 -0.229404 0 -0.0186744 -0 89 93 100 255 
0.052879 0.40385 -0.229404 0 -0.0186744 -0 89 93 100 255 
-0.052917 0.40385 -0.052891 -0.0106857 0 0 73 77 82 255 
-0.052917 0.464388 -0.052891 -0.0106857 0 0 73 77 82 255 
-0.052917 0.464388 -0.229404 -0.0106857 0 0 73 77 82 255 
-0.052917 0.40385 -0.052891 -0.0106857 0 0 73 77 82 255 
-0.052917 0.464388 -0.229404 -0.0106857 0 0 73 77 82 255 
-0.052917 0.40385 -0.229404 -0.0106857 0 0 73 77 82 255 
-0.052917 0.464388 -0.052891 -0 0.0186744 0 122 128 138 255 
0.052879 0.464388 -0.052891 -0 0.0186744 0 122 128 138 255 
0.052879 0.464388 -0.229404 -0 0.0186744 0 122 128 138 255 
-0.052917 0.464388 -0.052891 0 0.0186744 0 122 128 138 255 
0.052879 0.464388 -0.229404 0 0.0186744 0 122 128 138 255 
-0.052917 0.464388 -0.229404 0 0.0186744 0 122 128 138 255 
0.052879 0.464388 -0.052891 0.0106857 0 0 73 77 82 255 
0.052879 0.40385 -0.052891 0.0106857 0 0 73 77 82 255 
0.052879 0.40385 -0.229404 0.0106857 0 0 73 77 82 255 
0.052879 0.464388 -0.052891 0.0106857 0 0 73 77 82 255 
0.052879 0.40385 -0.229404 0.0106857 0 0 73 77 82 255 
0.052879 0.464388 -0.229404 0.0106857 0 0 73 77 82 255 
3 0 1 2
3 3 4 5
3 6 7 8
3 9 10 11
3 12 13 14
3 15 16 17
3 18 19 20
3 21 22 23
3 24 25 26
3 27 28 29
3 30 31 32
3 33 34 35
3 36 37 38
3 39 40 41
3 42 43 44
3 45 46 47
3 48 49 50
3 51 52 53
3 54 55 56
3 57 58 59
3 60 61 62
3 63 64 65
3 66 67 68
3 69 70 71
3 72 73 74
3 75 76 77
3 78 79 80
3 81 82 83
3 84 85 86
3 87 88 89
3 90 91 92
3 93 94 95
3 96 97 98
3 99 100 101
3 102 103 104
3 105 106 107
3 108 109 110
3 111 112 113
3 114 115 116
3 117 118 119
3 120 121 122
3 123 124 125
3 126 127 128
3 129 130 131
3 132 133 134
3 135 136 137
3 138 139 140
3 141 142 143
3 144 145 146
3 147 148 149
3 150 151 152
3 153 154 155
3 156 157 158
3 159 160 161
3 162 163 164
3 165 166 167
3 168 169 170
3 171 172 173
3 174 175 176
3 177 178 179
3 180 181 182
3 183 184 185
3 186 187 188
3 189 190 191
3 192 193 194
3 195 196 197
3 198 199 200
3 201 202 203
3 204 205 206
3 207 208 209
3 210 211 212
3 213 214 215
3 216 217 218
3 219 220 221
3 222 223 224
3 225 226 227
3 228 229 230
3 231 232 233
3 234 235 236
3 237 238 239
3 240 241 242
3 243 244 245
3 246 247 248
3 249 250 251
3 252 253 254
3 255 256 257
3 258 259 260
3 261 262 263
3 264 265 266
3 267 268 269
3 270 271 272
3 273 274 275
3 276 277 278
3 279 280 281
3 282 283 284
3 285 286 287
3 288 289 290
3 291 292 293
3 294 295 296
3 297 298 299
3 300 301 302
3 303 304 305
3 306 307 308
3 309 310 311
3 312 313 314
3 315 316 317
3 318 319 320
3 321 322 323
3 324 325 326
3 327 328 329
3 330 331 332
3 333 334 335
3 336 337 338
3 339 340 341
3 342 343 344
3 345 346 347
