ply
format ascii 1.0
comment Feeney's Flatenator generated
comment TextureFile SpaceInteriors_Texture.png
element vertex 84
property float x
property float y
property float z
property float nx
property float ny
property float nz
property uchar red
property uchar green
property uchar blue
property uchar alpha
element face 28
property list uchar int vertex_indices
end_header
-0.134798 0 0.134796 0 0 0.0919527 185 185 185 255 
0.134798 0 0.134796 0 0 0.0919527 185 185 185 255 
0.134798 0.341076 0.134796 0 0 0.0919527 185 185 185 255 
-0.134798 0 0.134796 0 0 0.0919527 185 185 185 255 
0.134798 0.341076 0.134796 0 0 0.0919527 185 185 185 255 
-0.134798 0.341076 0.134796 0 0 0.0919527 185 185 185 255 
-0.07031 0.485325 0.070309 -0 0.0197737 0 192 44 38 255 
0.07031 0.485325 0.070309 -0 0.0197737 0 192 44 38 255 
0.07031 0.485325 -0.070309 -0 0.0197737 0 192 44 38 255 
-0.07031 0.485325 0.070309 0 0.0197737 0 192 44 38 255 
0.07031 0.485325 -0.070309 0 0.0197737 0 192 44 38 255 
-0.07031 0.485325 -0.070309 0 0.0197737 0 192 44 38 255 
-0.134798 0.341076 -0.134796 0 0 -0.0919527 185 185 185 255 
0.134798 0.341076 -0.134796 0 0 -0.0919527 185 185 185 255 
0.134798 0 -0.134796 0 0 -0.0919527 185 185 185 255 
-0.134798 0.341076 -0.134796 0 0 -0.0919527 185 185 185 255 
0.134798 0 -0.134796 0 0 -0.0919527 185 185 185 255 
-0.134798 0 -0.134796 0 0 -0.0919527 185 185 185 255 
-0.134798 0 -0.134796 0 -0.0726809 0 185 185 185 255 
0.134798 0 -0.134796 0 -0.0726809 0 185 185 185 255 
0.134798 0 0.134796 0 -0.0726809 0 185 185 185 255 
-0.134798 0 -0.134796 0 -0.0726809 0 185 185 185 255 
0.134798 0 0.134796 0 -0.0726809 0 185 185 185 255 
-0.134798 0 0.134796 0 -0.0726809 0 185 185 185 255 
0.134798 0 0.134796 0.0919514 0 0 166 166 166 255 
0.134798 0 -0.134796 0.0919514 0 0 166 166 166 255 
0.134798 0.341076 -0.134796 0.0919514 0 0 166 166 166 255 
0.134798 0 0.134796 0.0919514 -0 0 166 166 166 255 
0.134798 0.341076 -0.134796 0.0919514 -0 0 166 166 166 255 
0.134798 0.341076 0.134796 0.0919514 -0 0 166 166 166 255 
-0.134798 0 -0.134796 -0.0919514 0 0 166 166 166 255 
-0.134798 0 0.134796 -0.0919514 0 0 166 166 166 255 
-0.134798 0.341076 0.134796 -0.0919514 0 0 166 166 166 255 
-0.134798 0 -0.134796 -0.0919514 0 0 166 166 166 255 
-0.134798 0.341076 0.134796 -0.0919514 0 0 166 166 166 255 
-0.134798 0.341076 -0.134796 -0.0919514 0 0 166 166 166 255 
-0.134798 0.341076 0.134796 -0 0.0173854 0.0216769 203 203 203 255 
0.134798 0.341076 0.134796 -0 0.0173854 0.0216769 203 203 203 255 
0.07031 0.421481 0.070309 -0 0.0173854 0.0216769 203 203 203 255 
-0.134798 0.341076 0.134796 0 0.00906816 0.0113066 203 203 203 255 
0.07031 0.421481 0.070309 0 0.00906816 0.0113066 203 203 203 255 
-0.07031 0.421481 0.070309 0 0.00906816 0.0113066 203 203 203 255 
0.134798 0.341076 0.134796 0.0216766 0.0173855 0 185 185 185 255 
0.134798 0.341076 -0.134796 0.0216766 0.0173855 0 185 185 185 255 
0.07031 0.421481 -0.070309 0.0216766 0.0173855 0 185 185 185 255 
0.134798 0.341076 0.134796 0.0113064 0.00906817 0 185 185 185 255 
0.07031 0.421481 -0.070309 0.0113064 0.00906817 0 185 185 185 255 
0.07031 0.421481 0.070309 0.0113064 0.00906817 0 185 185 185 255 
0.134798 0.341076 -0.134796 0 0.0173854 -0.0216769 203 203 203 255 
-0.134798 0.341076 -0.134796 0 0.0173854 -0.0216769 203 203 203 255 
-0.07031 0.421481 -0.070309 0 0.0173854 -0.0216769 203 203 203 255 
0.134798 0.341076 -0.134796 0 0.00906816 -0.0113066 203 203 203 255 
-0.07031 0.421481 -0.070309 0 0.00906816 -0.0113066 203 203 203 255 
0.07031 0.421481 -0.070309 0 0.00906816 -0.0113066 203 203 203 255 
-0.134798 0.341076 -0.134796 -0.0216766 0.0173855 0 185 185 185 255 
-0.134798 0.341076 0.134796 -0.0216766 0.0173855 0 185 185 185 255 
-0.07031 0.421481 0.070309 -0.0216766 0.0173855 0 185 185 185 255 
-0.134798 0.341076 -0.134796 -0.0113064 0.00906817 0 185 185 185 255 
-0.07031 0.421481 0.070309 -0.0113064 0.00906817 0 185 185 185 255 
-0.07031 0.421481 -0.070309 -0.0113064 0.00906817 0 185 185 185 255 
-0.07031 0.421481 0.070309 0 0 0.00897774 192 44 38 255 
0.07031 0.421481 0.070309 0 0 0.00897774 192 44 38 255 
0.07031 0.485325 0.070309 0 0 0.00897774 192 44 38 255 
-0.07031 0.421481 0.070309 0 0 0.00897774 192 44 38 255 
0.07031 0.485325 0.070309 0 0 0.00897774 192 44 38 255 
-0.07031 0.485325 0.070309 0 0 0.00897774 192 44 38 255 
0.07031 0.421481 0.070309 0.00897761 0 0 178 37 35 255 
0.07031 0.421481 -0.070309 0.00897761 0 0 178 37 35 255 
0.07031 0.485325 -0.070309 0.00897761 0 0 178 37 35 255 
0.07031 0.421481 0.070309 0.00897761 -0 0 178 37 35 255 
0.07031 0.485325 -0.070309 0.00897761 -0 0 178 37 35 255 
0.07031 0.485325 0.070309 0.00897761 -0 0 178 37 35 255 
0.07031 0.421481 -0.070309 0 0 -0.00897774 192 44 38 255 
-0.07031 0.421481 -0.070309 0 0 -0.00897774 192 44 38 255 
-0.07031 0.485325 -0.070309 0 0 -0.00897774 192 44 38 255 
0.07031 0.421481 -0.070309 0 0 -0.00897774 192 44 38 255 
-0.07031 0.485325 -0.070309 0 0 -0.00897774 192 44 38 255 
0.07031 0.485325 -0.070309 0 0 -0.00897774 192 44 38 255 
-0.07031 0.421481 -0.070309 -0.00897761 0 0 178 37 35 255 
-0.07031 0.421481 0.070309 -0.00897761 0 0 178 37 35 255 
-0.07031 0.485325 0.070309 -0.00897761 0 0 178 37 35 255 
-0.07031 0.421481 -0.070309 -0.00897761 0 0 178 37 35 255 
-0.07031 0.485325 0.070309 -0.00897761 0 0 178 37 35 255 
-0.07031 0.485325 -0.070309 -0.00897761 0 0 178 37 35 255 
3 0 1 2
3 3 4 5
3 6 7 8
3 9 10 11
3 12 13 14
3 15 16 17
3 18 19 20
3 21 22 23
3 24 25 26
3 27 28 29
3 30 31 32
3 33 34 35
3 36 37 38
3 39 40 41
3 42 43 44
3 45 46 47
3 48 49 50
3 51 52 53
3 54 55 56
3 57 58 59
3 60 61 62
3 63 64 65
3 66 67 68
3 69 70 71
3 72 73 74
3 75 76 77
3 78 79 80
3 81 82 83
