ply
format ascii 1.0
comment Feeney's Flatenator generated
comment TextureFile SpaceInteriors_Texture.png
element vertex 132
property float x
property float y
property float z
property float nx
property float ny
property float nz
property uchar red
property uchar green
property uchar blue
property uchar alpha
element face 44
property list uchar int vertex_indices
end_header
-0.17231 0 -0.062344 -0.0155471 0 0 85 94 97 255 
-0.17231 0 0.062344 -0.0155471 0 0 85 94 97 255 
-0.17231 0.124688 0.062344 -0.0155471 0 0 85 94 97 255 
-0.17231 0 -0.062344 -0.0155471 0 0 85 94 97 255 
-0.17231 0.124688 0.062344 -0.0155471 0 0 85 94 97 255 
-0.17231 0.124688 -0.062344 -0.0155471 0 0 85 94 97 255 
-0.150503 0.1577 -0.040537 0 0.00800492 0 185 61 58 255 
-0.150503 0.1577 0.040537 0 0.00800492 0 185 61 58 255 
-0.051767 0.1577 0.040537 0 0.00800492 0 185 61 58 255 
-0.150503 0.1577 -0.040537 0 0.00800492 0 185 61 58 255 
-0.051767 0.1577 0.040537 0 0.00800492 0 185 61 58 255 
-0.051767 0.1577 -0.040537 0 0.00800492 0 185 61 58 255 
0.17231 0.124688 -0.062344 0.0155471 0 -0 85 94 97 255 
0.17231 0.124688 0.062344 0.0155471 0 -0 85 94 97 255 
0.17231 0 0.062344 0.0155471 0 -0 85 94 97 255 
0.17231 0.124688 -0.062344 0.0155471 0 0 85 94 97 255 
0.17231 0 0.062344 0.0155471 0 0 85 94 97 255 
0.17231 0 -0.062344 0.0155471 0 0 85 94 97 255 
-0.17231 0 0.062344 0 -0.04297 0 78 85 87 255 
-0.17231 0 -0.062344 0 -0.04297 0 78 85 87 255 
0.17231 0 -0.062344 0 -0.04297 0 78 85 87 255 
-0.17231 0 0.062344 0 -0.04297 0 78 85 87 255 
0.17231 0 -0.062344 0 -0.04297 0 78 85 87 255 
0.17231 0 0.062344 0 -0.04297 0 78 85 87 255 
-0.17231 0.124688 0.062344 0 0 0.04297 78 85 87 255 
-0.17231 0 0.062344 0 0 0.04297 78 85 87 255 
0.17231 0 0.062344 0 0 0.04297 78 85 87 255 
-0.17231 0.124688 0.062344 -0 0 0.04297 78 85 87 255 
0.17231 0 0.062344 -0 0 0.04297 78 85 87 255 
0.17231 0.124688 0.062344 -0 0 0.04297 78 85 87 255 
-0.17231 0 -0.062344 0 0 -0.04297 78 85 87 255 
-0.17231 0.124688 -0.062344 0 0 -0.04297 78 85 87 255 
0.17231 0.124688 -0.062344 0 0 -0.04297 78 85 87 255 
-0.17231 0 -0.062344 0 0 -0.04297 78 85 87 255 
0.17231 0.124688 -0.062344 0 0 -0.04297 78 85 87 255 
0.17231 0 -0.062344 0 0 -0.04297 78 85 87 255 
-0.17231 0.124688 -0.062344 0 0.00271907 0 95 104 105 255 
-0.17231 0.124688 0.062344 0 0.00271907 0 95 104 105 255 
-0.150503 0.124688 0.040537 0 0.00271907 0 95 104 105 255 
-0.17231 0.124688 -0.062344 0 0.00176798 0 95 104 105 255 
-0.150503 0.124688 0.040537 0 0.00176798 0 95 104 105 255 
-0.150503 0.124688 -0.040537 0 0.00176798 0 95 104 105 255 
-0.17231 0.124688 0.062344 0 0.00215314 0 95 104 105 255 
-0.051767 0.124688 0.040537 0 0.00215314 0 95 104 105 255 
-0.150503 0.124688 0.040537 0 0.00215314 0 95 104 105 255 
0.17231 0.124688 0.062344 0 0.00271907 0 95 104 105 255 
0.17231 0.124688 -0.062344 0 0.00271907 0 95 104 105 255 
0.150503 0.124688 -0.040537 0 0.00271907 0 95 104 105 255 
0.17231 0.124688 0.062344 0 0.00176798 0 95 104 105 255 
0.150503 0.124688 -0.040537 0 0.00176798 0 95 104 105 255 
0.150503 0.124688 0.040537 0 0.00176798 0 95 104 105 255 
-0.17231 0.124688 -0.062344 0 0.00215314 0 95 104 105 255 
-0.150503 0.124688 -0.040537 0 0.00215314 0 95 104 105 255 
-0.051767 0.124688 -0.040537 0 0.00215314 0 95 104 105 255 
-0.150503 0.124688 -0.040537 -0.00267642 0 0 156 49 49 255 
-0.150503 0.124688 0.040537 -0.00267642 0 0 156 49 49 255 
-0.150503 0.1577 0.040537 -0.00267642 0 0 156 49 49 255 
-0.150503 0.124688 -0.040537 -0.00267642 0 0 156 49 49 255 
-0.150503 0.1577 0.040537 -0.00267642 0 0 156 49 49 255 
-0.150503 0.1577 -0.040537 -0.00267642 0 0 156 49 49 255 
-0.150503 0.124688 0.040537 0 0 0.00325947 156 49 49 255 
-0.051767 0.124688 0.040537 0 0 0.00325947 156 49 49 255 
-0.051767 0.1577 0.040537 0 0 0.00325947 156 49 49 255 
-0.150503 0.124688 0.040537 0 0 0.00325947 156 49 49 255 
-0.051767 0.1577 0.040537 0 0 0.00325947 156 49 49 255 
-0.150503 0.1577 0.040537 0 0 0.00325947 156 49 49 255 
0.150503 0.124688 0.040537 0.00267642 0 0 21 71 108 255 
0.150503 0.124688 -0.040537 0.00267642 0 0 21 71 108 255 
0.150503 0.1577 -0.040537 0.00267642 0 0 21 71 108 255 
0.150503 0.124688 0.040537 0.00267642 -0 0 21 71 108 255 
0.150503 0.1577 -0.040537 0.00267642 -0 0 21 71 108 255 
0.150503 0.1577 0.040537 0.00267642 -0 0 21 71 108 255 
-0.051767 0.124688 -0.040537 0 0 -0.00325947 156 49 49 255 
-0.150503 0.124688 -0.040537 0 0 -0.00325947 156 49 49 255 
-0.150503 0.1577 -0.040537 0 0 -0.00325947 156 49 49 255 
-0.051767 0.124688 -0.040537 0 0 -0.00325947 156 49 49 255 
-0.150503 0.1577 -0.040537 0 0 -0.00325947 156 49 49 255 
-0.051767 0.1577 -0.040537 0 0 -0.00325947 156 49 49 255 
0.043455 0.1577 -0.040537 0 0.00867881 0 26 87 129 255 
0.043455 0.1577 0.040537 0 0.00867881 0 26 87 129 255 
0.150503 0.1577 0.040537 0 0.00867881 0 26 87 129 255 
0.043455 0.1577 -0.040537 0 0.00867881 0 26 87 129 255 
0.150503 0.1577 0.040537 0 0.00867881 0 26 87 129 255 
0.150503 0.1577 -0.040537 0 0.00867881 0 26 87 129 255 
0.150503 0.124688 -0.040537 0 0 -0.00353387 21 71 108 255 
0.043455 0.124688 -0.040537 0 0 -0.00353387 21 71 108 255 
0.043455 0.1577 -0.040537 0 0 -0.00353387 21 71 108 255 
0.150503 0.124688 -0.040537 0 0 -0.00353387 21 71 108 255 
0.043455 0.1577 -0.040537 0 0 -0.00353387 21 71 108 255 
0.150503 0.1577 -0.040537 0 0 -0.00353387 21 71 108 255 
0.17231 0.124688 -0.062344 0 0.0023344 0 95 104 105 255 
0.043455 0.124688 -0.040537 0 0.0023344 0 95 104 105 255 
0.150503 0.124688 -0.040537 0 0.0023344 0 95 104 105 255 
0.043455 0.124688 0.040537 0 0.0023344 0 95 104 105 255 
0.17231 0.124688 0.062344 0 0.0023344 0 95 104 105 255 
0.150503 0.124688 0.040537 0 0.0023344 0 95 104 105 255 
0.043455 0.1577 0.040537 0 0 0.00353387 21 71 108 255 
0.043455 0.124688 0.040537 0 0 0.00353387 21 71 108 255 
0.150503 0.124688 0.040537 0 0 0.00353387 21 71 108 255 
0.043455 0.1577 0.040537 -0 0 0.00353387 21 71 108 255 
0.150503 0.124688 0.040537 -0 0 0.00353387 21 71 108 255 
0.150503 0.1577 0.040537 -0 0 0.00353387 21 71 108 255 
0.043455 0.1577 -0.040537 0 0.00772003 0 34 143 105 255 
-0.051767 0.1577 -0.040537 0 0.00772003 0 34 143 105 255 
-0.051767 0.1577 0.040537 0 0.00772003 0 34 143 105 255 
0.043455 0.1577 -0.040537 0 0.00772003 -0 34 143 105 255 
-0.051767 0.1577 0.040537 0 0.00772003 -0 34 143 105 255 
0.043455 0.1577 0.040537 0 0.00772003 -0 34 143 105 255 
0.043455 0.124688 -0.040537 0 0 -0.00314347 27 120 87 255 
-0.051767 0.124688 -0.040537 0 0 -0.00314347 27 120 87 255 
-0.051767 0.1577 -0.040537 0 0 -0.00314347 27 120 87 255 
0.043455 0.124688 -0.040537 0 0 -0.00314347 27 120 87 255 
-0.051767 0.1577 -0.040537 0 0 -0.00314347 27 120 87 255 
0.043455 0.1577 -0.040537 0 0 -0.00314347 27 120 87 255 
0.17231 0.124688 -0.062344 0 0.00751513 0 95 104 105 255 
-0.17231 0.124688 -0.062344 0 0.00751513 0 95 104 105 255 
-0.051767 0.124688 -0.040537 0 0.00751513 0 95 104 105 255 
0.17231 0.124688 -0.062344 0 0.00207651 0 95 104 105 255 
-0.051767 0.124688 -0.040537 0 0.00207651 0 95 104 105 255 
0.043455 0.124688 -0.040537 0 0.00207651 0 95 104 105 255 
0.043455 0.124688 0.040537 0 0.00207651 0 95 104 105 255 
-0.051767 0.124688 0.040537 0 0.00207651 0 95 104 105 255 
-0.17231 0.124688 0.062344 0 0.00207651 0 95 104 105 255 
0.043455 0.124688 0.040537 0 0.00751513 -0 95 104 105 255 
-0.17231 0.124688 0.062344 0 0.00751513 -0 95 104 105 255 
0.17231 0.124688 0.062344 0 0.00751513 -0 95 104 105 255 
0.043455 0.1577 0.040537 0 0 0.00314347 27 120 87 255 
-0.051767 0.1577 0.040537 0 0 0.00314347 27 120 87 255 
-0.051767 0.124688 0.040537 0 0 0.00314347 27 120 87 255 
0.043455 0.1577 0.040537 0 0 0.00314347 27 120 87 255 
-0.051767 0.124688 0.040537 0 0 0.00314347 27 120 87 255 
0.043455 0.124688 0.040537 0 0 0.00314347 27 120 87 255 
3 0 1 2
3 3 4 5
3 6 7 8
3 9 10 11
3 12 13 14
3 15 16 17
3 18 19 20
3 21 22 23
3 24 25 26
3 27 28 29
3 30 31 32
3 33 34 35
3 36 37 38
3 39 40 41
3 42 43 44
3 45 46 47
3 48 49 50
3 51 52 53
3 54 55 56
3 57 58 59
3 60 61 62
3 63 64 65
3 66 67 68
3 69 70 71
3 72 73 74
3 75 76 77
3 78 79 80
3 81 82 83
3 84 85 86
3 87 88 89
3 90 91 92
3 93 94 95
3 96 97 98
3 99 100 101
3 102 103 104
3 105 106 107
3 108 109 110
3 111 112 113
3 114 115 116
3 117 118 119
3 120 121 122
3 123 124 125
3 126 127 128
3 129 130 131
