ply
format ascii 1.0
comment Feeney's Flatenator generated
comment TextureFile SpaceInteriors_Texture.png
element vertex 480
property float x
property float y
property float z
property float nx
property float ny
property float nz
property float texture_u
property float texture_v
element face 160
property list uchar int vertex_indices
end_header
-0.543124 0.448554 0.667895 0 0 0.133135 0.236468 0.061595 
0.543124 0.448554 0.667895 0 0 0.133135 0.236468 0.061595 
0.543124 0.571118 0.667895 0 0 0.133135 0.236468 0.061595 
-0.543124 0.448554 0.667895 0 0 0.133135 0.236468 0.061595 
0.543124 0.571118 0.667895 0 0 0.133135 0.236468 0.061595 
-0.543124 0.571118 0.667895 0 0 0.133135 0.236468 0.061595 
-0.5 0.439787 -0.511372 0 0.019929 -0.181089 0.200664 0.062866 
0.5 0.439787 -0.511372 0 0.019929 -0.181089 0.200664 0.062866 
0.5 0.258698 -0.531301 0 0.019929 -0.181089 0.200664 0.062866 
-0.5 0.439787 -0.511372 0 0.019929 -0.181089 0.200664 0.062866 
0.5 0.258698 -0.531301 0 0.019929 -0.181089 0.200664 0.062866 
-0.5 0.258698 -0.531301 0 0.019929 -0.181089 0.200664 0.062866 
-0.5 0.263082 0.197034 0 -0.310471 0.00360999 0.135807 0.062866 
-0.5 0.259472 -0.113437 0 -0.310471 0.00360999 0.135807 0.062866 
0.5 0.259472 -0.113437 0 -0.310471 0.00360999 0.135807 0.062866 
-0.5 0.263082 0.197034 0 -0.310471 0.00360999 0.135807 0.062866 
0.5 0.259472 -0.113437 0 -0.310471 0.00360999 0.135807 0.062866 
0.5 0.263082 0.197034 0 -0.310471 0.00360999 0.135807 0.062866 
0.5 0.571118 0.614897 0.328851 0 0 0.169732 0.062866 
0.5 0.566549 -0.497423 0.328851 0 0 0.169732 0.062866 
0.5 0.862327 -0.464874 0.328851 0 0 0.169732 0.062866 
0.5 0.571118 0.614897 0.0897697 0 0 0.169732 0.062866 
0.5 0.862327 -0.464874 0.0897697 0 0 0.169732 0.062866 
0.5 0.887234 -0.248961 0.0897697 0 0 0.169732 0.062866 
0.5 0.571118 0.614897 0.266413 -0 0 0.169732 0.062866 
0.5 0.887234 -0.248961 0.266413 -0 0 0.169732 0.062866 
0.5 0.879517 0.614897 0.266413 -0 0 0.169732 0.062866 
-0.5 0.566549 -0.497423 -0.343038 0 0 0.169732 0.062866 
-0.5 0.571118 0.614897 -0.343038 0 0 0.169732 0.062866 
-0.5 0.879517 0.614897 -0.343038 0 0 0.169732 0.062866 
-0.5 0.566549 -0.497423 -0.278944 0 0 0.169732 0.062866 
-0.5 0.879517 0.614897 -0.278944 0 0 0.169732 0.062866 
-0.5 0.887234 -0.248961 -0.278944 0 0 0.169732 0.062866 
-0.5 0.566549 -0.497423 -0.0630516 0 0 0.169732 0.062866 
-0.5 0.887234 -0.248961 -0.0630516 0 0 0.169732 0.062866 
-0.5 0.862327 -0.464874 -0.0630516 0 0 0.169732 0.062866 
-0.366727 0.879517 0.485707 -0 0.444091 0.00566002 0.207137 0.062866 
0.366726 0.879517 0.485707 -0 0.444091 0.00566002 0.207137 0.062866 
0.366726 0.887234 -0.119773 -0 0.444091 0.00566002 0.207137 0.062866 
-0.366727 0.879517 0.485707 0 0.444091 0.00566002 0.207137 0.062866 
0.366726 0.887234 -0.119773 0 0.444091 0.00566002 0.207137 0.062866 
-0.366727 0.887234 -0.119773 0 0.444091 0.00566002 0.207137 0.062866 
0.202831 2.35531 -0.667894 0 0.112244 -0.0129487 0.229601 0.062866 
-0.202831 2.35531 -0.667894 0 0.112244 -0.0129487 0.229601 0.062866 
-0.202831 2.38723 -0.391201 0 0.112244 -0.0129487 0.229601 0.062866 
0.202831 2.35531 -0.667894 0 0.112244 -0.0129487 0.229601 0.062866 
-0.202831 2.38723 -0.391201 0 0.112244 -0.0129487 0.229601 0.062866 
0.202831 2.38723 -0.391201 0 0.112244 -0.0129487 0.229601 0.062866 
0.5 0.887234 -0.248961 0.320763 0 0 0.169732 0.062866 
0.5 0.862327 -0.464874 0.320763 0 0 0.169732 0.062866 
0.5 2.32843 -0.633999 0.320763 0 0 0.169732 0.062866 
0.5 0.887234 -0.248961 0.320766 0 0 0.169732 0.062866 
0.5 2.32843 -0.633999 0.320766 0 0 0.169732 0.062866 
0.5 2.35334 -0.418085 0.320766 0 0 0.169732 0.062866 
-0.5 0.862327 -0.464874 -0.320764 0 0 0.169732 0.062866 
-0.5 0.887234 -0.248961 -0.320764 0 0 0.169732 0.062866 
-0.5 2.35334 -0.418085 -0.320764 0 0 0.169732 0.062866 
-0.5 0.862327 -0.464874 -0.320765 0 0 0.169732 0.062866 
-0.5 2.35334 -0.418085 -0.320765 0 0 0.169732 0.062866 
-0.5 2.32843 -0.633999 -0.320765 0 0 0.169732 0.062866 
-0.5 0.887234 -0.248961 -0 0.011387 0.098713 0.200664 0.062866 
0.5 0.887234 -0.248961 -0 0.011387 0.098713 0.200664 0.062866 
0.401469 0.985947 -0.260348 -0 0.011387 0.098713 0.200664 0.062866 
-0.5 0.887234 -0.248961 0 0.00914306 0.0792606 0.200664 0.062866 
0.401469 0.985947 -0.260348 0 0.00914306 0.0792606 0.200664 0.062866 
-0.40147 0.985947 -0.260348 0 0.00914306 0.0792606 0.200664 0.062866 
0.5 0.887234 -0.248961 -1.3262e-06 0.016664 0.144457 0.200664 0.062866 
0.5 2.35334 -0.418085 -1.3262e-06 0.016664 0.144457 0.200664 0.062866 
0.401469 2.25462 -0.406698 -1.3262e-06 0.016664 0.144457 0.200664 0.062866 
0.5 0.887234 -0.248961 -8.79169e-07 0.00360495 0.0312511 0.200664 0.062866 
0.401469 2.25462 -0.406698 -8.79169e-07 0.00360495 0.0312511 0.200664 0.062866 
0.401469 1.93745 -0.370111 -8.79169e-07 0.00360495 0.0312511 0.200664 0.062866 
0.5 0.887234 -0.248961 4.69387e-07 0.00721001 0.0625012 0.200664 0.062866 
0.401469 1.93745 -0.370111 4.69387e-07 0.00721001 0.0625012 0.200664 0.062866 
0.401469 1.30312 -0.296936 4.69387e-07 0.00721001 0.0625012 0.200664 0.062866 
0.5 0.887234 -0.248961 6.79865e-08 0.00360505 0.0312514 0.200664 0.062866 
0.401469 1.30312 -0.296936 6.79865e-08 0.00360505 0.0312514 0.200664 0.062866 
0.401469 0.985947 -0.260348 6.79865e-08 0.00360505 0.0312514 0.200664 0.062866 
0.202831 2.38723 -0.391201 0 0.00746336 0.064699 0.200664 0.062866 
-0.202831 2.38723 -0.391201 0 0.00746336 0.064699 0.200664 0.062866 
-0.202831 2.22774 -0.372803 0 0.00746336 0.064699 0.200664 0.062866 
0.202831 2.38723 -0.391201 0 0.00746336 0.064699 0.200664 0.062866 
-0.202831 2.22774 -0.372803 0 0.00746336 0.064699 0.200664 0.062866 
0.202831 2.22774 -0.372803 0 0.00746336 0.064699 0.200664 0.062866 
-0.5 2.35334 -0.418085 -2.08616e-07 0.0166638 0.144455 0.200664 0.062866 
-0.5 0.887234 -0.248961 -2.08616e-07 0.0166638 0.144455 0.200664 0.062866 
-0.40147 0.985947 -0.260348 -2.08616e-07 0.0166638 0.144455 0.200664 0.062866 
-0.5 2.35334 -0.418085 2.68221e-07 0.00360502 0.0312511 0.200664 0.062866 
-0.40147 0.985947 -0.260348 2.68221e-07 0.00360502 0.0312511 0.200664 0.062866 
-0.40147 1.30312 -0.296936 2.68221e-07 0.00360502 0.0312511 0.200664 0.062866 
-0.5 2.35334 -0.418085 1.37091e-06 0.00720993 0.0625005 0.200664 0.062866 
-0.40147 1.30312 -0.296936 1.37091e-06 0.00720993 0.0625005 0.200664 0.062866 
-0.40147 1.93745 -0.370111 1.37091e-06 0.00720993 0.0625005 0.200664 0.062866 
-0.5 2.35334 -0.418085 2.40747e-07 0.00360492 0.0312508 0.200664 0.062866 
-0.40147 1.93745 -0.370111 2.40747e-07 0.00360492 0.0312508 0.200664 0.062866 
-0.40147 2.25462 -0.406698 2.40747e-07 0.00360492 0.0312508 0.200664 0.062866 
0.202831 2.19582 -0.649496 -0 -0.00746336 -0.064699 0.200664 0.062866 
-0.202831 2.19582 -0.649496 -0 -0.00746336 -0.064699 0.200664 0.062866 
-0.202831 2.35531 -0.667894 -0 -0.00746336 -0.064699 0.200664 0.062866 
0.202831 2.19582 -0.649496 0 -0.00746336 -0.064699 0.200664 0.062866 
-0.202831 2.35531 -0.667894 0 -0.00746336 -0.064699 0.200664 0.062866 
0.202831 2.35531 -0.667894 0 -0.00746336 -0.064699 0.200664 0.062866 
0.5 2.32843 -0.633999 -3.42727e-07 -0.0166641 -0.144457 0.200664 0.062866 
0.5 0.862327 -0.464874 -3.42727e-07 -0.0166641 -0.144457 0.200664 0.062866 
0.401469 0.96104 -0.476261 -3.42727e-07 -0.0166641 -0.144457 0.200664 0.062866 
0.5 2.32843 -0.633999 -1.02818e-06 -0.00360496 -0.0312511 0.200664 0.062866 
0.401469 0.96104 -0.476261 -1.02818e-06 -0.00360496 -0.0312511 0.200664 0.062866 
0.401469 1.27821 -0.512848 -1.02818e-06 -0.00360496 -0.0312511 0.200664 0.062866 
0.5 2.32843 -0.633999 -1.10641e-06 -0.00721 -0.0625021 0.200664 0.062866 
0.401469 1.27821 -0.512848 -1.10641e-06 -0.00721 -0.0625021 0.200664 0.062866 
0.401469 1.91255 -0.586023 -1.10641e-06 -0.00721 -0.0625021 0.200664 0.062866 
0.5 2.32843 -0.633999 8.28877e-08 -0.00360515 -0.0312511 0.200664 0.062866 
0.401469 1.91255 -0.586023 8.28877e-08 -0.00360515 -0.0312511 0.200664 0.062866 
0.401469 2.22972 -0.622612 8.28877e-08 -0.00360515 -0.0312511 0.200664 0.062866 
0.5 0.862327 -0.464874 -0 -0.011387 -0.098713 0.200664 0.062866 
-0.5 0.862327 -0.464874 -0 -0.011387 -0.098713 0.200664 0.062866 
-0.40147 0.96104 -0.476261 -0 -0.011387 -0.098713 0.200664 0.062866 
0.5 0.862327 -0.464874 0 -0.00914306 -0.0792606 0.200664 0.062866 
-0.40147 0.96104 -0.476261 0 -0.00914306 -0.0792606 0.200664 0.062866 
0.401469 0.96104 -0.476261 0 -0.00914306 -0.0792606 0.200664 0.062866 
-0.5 0.862327 -0.464874 1.93715e-07 -0.0166639 -0.144455 0.200664 0.062866 
-0.5 2.32843 -0.633999 1.93715e-07 -0.0166639 -0.144455 0.200664 0.062866 
-0.40147 2.22972 -0.622612 1.93715e-07 -0.0166639 -0.144455 0.200664 0.062866 
-0.5 0.862327 -0.464874 1.78814e-06 -0.00360512 -0.0312508 0.200664 0.062866 
-0.40147 2.22972 -0.622612 1.78814e-06 -0.00360512 -0.0312508 0.200664 0.062866 
-0.40147 1.91255 -0.586023 1.78814e-06 -0.00360512 -0.0312508 0.200664 0.062866 
-0.5 0.862327 -0.464874 3.8743e-07 -0.00720993 -0.0625015 0.200664 0.062866 
-0.40147 1.91255 -0.586023 3.8743e-07 -0.00720993 -0.0625015 0.200664 0.062866 
-0.40147 1.27821 -0.512848 3.8743e-07 -0.00720993 -0.0625015 0.200664 0.062866 
-0.5 0.862327 -0.464874 4.65661e-09 -0.00360492 -0.0312508 0.200664 0.062866 
-0.40147 1.27821 -0.512848 4.65661e-09 -0.00360492 -0.0312508 0.200664 0.062866 
-0.40147 0.96104 -0.476261 4.65661e-09 -0.00360492 -0.0312508 0.200664 0.062866 
0.401469 1.93745 -0.370111 0 0.058755 0.509328 0.200664 0.062866 
-0.40147 1.93745 -0.370111 0 0.058755 0.509328 0.200664 0.062866 
-0.40147 1.30312 -0.296936 0 0.058755 0.509328 0.200664 0.062866 
0.401469 1.93745 -0.370111 0 0.058755 0.509328 0.200664 0.062866 
-0.40147 1.30312 -0.296936 0 0.058755 0.509328 0.200664 0.062866 
0.401469 1.30312 -0.296936 0 0.058755 0.509328 0.200664 0.062866 
-0.40147 1.27821 -0.512848 0 -0.058755 -0.509336 0.200664 0.062866 
-0.40147 1.91255 -0.586023 0 -0.058755 -0.509336 0.200664 0.062866 
0.401469 1.91255 -0.586023 0 -0.058755 -0.509336 0.200664 0.062866 
-0.40147 1.27821 -0.512848 0 -0.058755 -0.509336 0.200664 0.062866 
0.401469 1.91255 -0.586023 0 -0.058755 -0.509336 0.200664 0.062866 
0.401469 1.27821 -0.512848 0 -0.058755 -0.509336 0.200664 0.062866 
0.202831 2.22774 -0.372803 0 -0.112244 0.0129487 0.138085 0.062866 
-0.202831 2.22774 -0.372803 0 -0.112244 0.0129487 0.138085 0.062866 
-0.202831 2.19582 -0.649496 0 -0.112244 0.0129487 0.138085 0.062866 
0.202831 2.22774 -0.372803 0 -0.112244 0.0129487 0.138085 0.062866 
-0.202831 2.19582 -0.649496 0 -0.112244 0.0129487 0.138085 0.062866 
0.202831 2.19582 -0.649496 0 -0.112244 0.0129487 0.138085 0.062866 
-0.40147 2.25462 -0.406698 0.0693918 0 0 0.168385 0.062866 
-0.40147 1.93745 -0.370111 0.0693918 0 0 0.168385 0.062866 
-0.40147 1.91255 -0.586023 0.0693918 0 0 0.168385 0.062866 
-0.40147 2.25462 -0.406698 0.0693925 0 0 0.168385 0.062866 
-0.40147 1.91255 -0.586023 0.0693925 0 0 0.168385 0.062866 
-0.40147 2.22972 -0.622612 0.0693925 0 0 0.168385 0.062866 
0.401469 2.25462 -0.406698 -0.0693925 0 0 0.168385 0.062866 
0.401469 2.22972 -0.622612 -0.0693925 0 0 0.168385 0.062866 
0.401469 1.91255 -0.586023 -0.0693925 0 0 0.168385 0.062866 
0.401469 2.25462 -0.406698 -0.0693918 -0 0 0.168385 0.062866 
0.401469 1.91255 -0.586023 -0.0693918 -0 0 0.168385 0.062866 
0.401469 1.93745 -0.370111 -0.0693918 -0 0 0.168385 0.062866 
0.401469 1.93745 -0.370111 0 0.173364 -0.0199932 0.232072 0.062866 
0.401469 1.91255 -0.586023 0 0.173364 -0.0199932 0.232072 0.062866 
-0.40147 1.91255 -0.586023 0 0.173364 -0.0199932 0.232072 0.062866 
0.401469 1.93745 -0.370111 0 0.173364 -0.0199932 0.232072 0.062866 
-0.40147 1.91255 -0.586023 0 0.173364 -0.0199932 0.232072 0.062866 
-0.40147 1.93745 -0.370111 0 0.173364 -0.0199932 0.232072 0.062866 
0.401469 1.30312 -0.296936 0 -0.173364 0.0200012 0.13969 0.062866 
-0.40147 1.30312 -0.296936 0 -0.173364 0.0200012 0.13969 0.062866 
-0.40147 1.27821 -0.512848 0 -0.173364 0.0200012 0.13969 0.062866 
0.401469 1.30312 -0.296936 0 -0.173364 0.0200012 0.13969 0.062866 
-0.40147 1.27821 -0.512848 0 -0.173364 0.0200012 0.13969 0.062866 
0.401469 1.27821 -0.512848 0 -0.173364 0.0200012 0.13969 0.062866 
-0.40147 1.30312 -0.296936 0.0693931 0 0 0.168385 0.062866 
-0.40147 0.985947 -0.260348 0.0693931 0 0 0.168385 0.062866 
-0.40147 0.96104 -0.476261 0.0693931 0 0 0.168385 0.062866 
-0.40147 1.30312 -0.296936 0.0693922 0 0 0.168385 0.062866 
-0.40147 0.96104 -0.476261 0.0693922 0 0 0.168385 0.062866 
-0.40147 1.27821 -0.512848 0.0693922 0 0 0.168385 0.062866 
0.401469 1.30312 -0.296936 -0.0693922 0 0 0.168385 0.062866 
0.401469 1.27821 -0.512848 -0.0693922 0 0 0.168385 0.062866 
0.401469 0.96104 -0.476261 -0.0693922 0 0 0.168385 0.062866 
0.401469 1.30312 -0.296936 -0.0693931 -0 0 0.168385 0.062866 
0.401469 0.96104 -0.476261 -0.0693931 -0 0 0.168385 0.062866 
0.401469 0.985947 -0.260348 -0.0693931 -0 0 0.168385 0.062866 
0.401469 0.985947 -0.260348 0 0.173365 -0.0199988 0.232072 0.062866 
0.401469 0.96104 -0.476261 0 0.173365 -0.0199988 0.232072 0.062866 
-0.40147 0.96104 -0.476261 0 0.173365 -0.0199988 0.232072 0.062866 
0.401469 0.985947 -0.260348 0 0.173365 -0.0199988 0.232072 0.062866 
-0.40147 0.96104 -0.476261 0 0.173365 -0.0199988 0.232072 0.062866 
-0.40147 0.985947 -0.260348 0 0.173365 -0.0199988 0.232072 0.062866 
-0.5 0 0.614897 0 0 0.263855 0.200664 0.062866 
0.5 0 0.614897 0 0 0.263855 0.200664 0.062866 
0.5 0.263855 0.614897 0 0 0.263855 0.200664 0.062866 
-0.5 0 0.614897 0 0 0.263855 0.200664 0.062866 
0.5 0.263855 0.614897 0 0 0.263855 0.200664 0.062866 
-0.5 0.263855 0.614897 0 0 0.263855 0.200664 0.062866 
-0.5 0.258698 -0.531301 0 0.028468 -0.258698 0.200664 0.062866 
0.5 0.258698 -0.531301 0 0.028468 -0.258698 0.200664 0.062866 
0.5 0 -0.559769 0 0.028468 -0.258698 0.200664 0.062866 
-0.5 0.258698 -0.531301 0 0.028468 -0.258698 0.200664 0.062866 
0.5 0 -0.559769 0 0.028468 -0.258698 0.200664 0.062866 
-0.5 0 -0.559769 0 0.028468 -0.258698 0.200664 0.062866 
0.5 0 0.614897 0.0505181 0 0 0.169732 0.062866 
0.5 0 0.422873 0.0505181 0 0 0.169732 0.062866 
0.5 0.263082 0.197034 0.0505181 0 0 0.169732 0.062866 
0.5 0 0.614897 0.110255 -0 0 0.169732 0.062866 
0.5 0.263082 0.197034 0.110255 -0 0 0.169732 0.062866 
0.5 0.263855 0.614897 0.110255 -0 0 0.169732 0.062866 
-0.5 0 0.422873 0 -0.192024 0 0.135807 0.062866 
0.5 0 0.422873 0 -0.192024 0 0.135807 0.062866 
0.5 0 0.614897 0 -0.192024 0 0.135807 0.062866 
-0.5 0 0.422873 0 -0.192024 0 0.135807 0.062866 
0.5 0 0.614897 0 -0.192024 0 0.135807 0.062866 
-0.5 0 0.614897 0 -0.192024 0 0.135807 0.062866 
-0.5 0.263082 0.197034 -0.0505181 0 0 0.169732 0.062866 
-0.5 0 0.422873 -0.0505181 0 0 0.169732 0.062866 
-0.5 0 0.614897 -0.0505181 0 0 0.169732 0.062866 
-0.5 0.263082 0.197034 -0.110255 0 0 0.169732 0.062866 
-0.5 0 0.614897 -0.110255 0 0 0.169732 0.062866 
-0.5 0.263855 0.614897 -0.110255 0 0 0.169732 0.062866 
-0.5 0 -0.559769 -0.0498246 0 0 0.169732 0.062866 
-0.5 0 -0.367746 -0.0498246 0 0 0.169732 0.062866 
-0.5 0.259472 -0.113437 -0.0498246 0 0 0.169732 0.062866 
-0.5 0 -0.559769 -0.108079 0 0 0.169732 0.062866 
-0.5 0.259472 -0.113437 -0.108079 0 0 0.169732 0.062866 
-0.5 0.258698 -0.531301 -0.108079 0 0 0.169732 0.062866 
-0.5 0 -0.559769 0 -0.192023 0 0.135807 0.062866 
0.5 0 -0.559769 0 -0.192023 0 0.135807 0.062866 
0.5 0 -0.367746 0 -0.192023 0 0.135807 0.062866 
-0.5 0 -0.559769 0 -0.192023 0 0.135807 0.062866 
0.5 0 -0.367746 0 -0.192023 0 0.135807 0.062866 
-0.5 0 -0.367746 0 -0.192023 0 0.135807 0.062866 
0.5 0.259472 -0.113437 0.0498246 0 0 0.169732 0.062866 
0.5 0 -0.367746 0.0498246 0 0 0.169732 0.062866 
0.5 0 -0.559769 0.0498246 0 0 0.169732 0.062866 
0.5 0.259472 -0.113437 0.108079 0 0 0.169732 0.062866 
0.5 0 -0.559769 0.108079 0 0 0.169732 0.062866 
0.5 0.258698 -0.531301 0.108079 0 0 0.169732 0.062866 
-0.5 0 -0.367746 0 -0.254309 0.259472 0.135807 0.062866 
0.5 0 -0.367746 0 -0.254309 0.259472 0.135807 0.062866 
0.5 0.259472 -0.113437 0 -0.254309 0.259472 0.135807 0.062866 
-0.5 0 -0.367746 0 -0.254309 0.259472 0.135807 0.062866 
0.5 0.259472 -0.113437 0 -0.254309 0.259472 0.135807 0.062866 
-0.5 0.259472 -0.113437 0 -0.254309 0.259472 0.135807 0.062866 
0.5 0 0.422873 -0 -0.225839 -0.263082 0.135807 0.062866 
-0.5 0 0.422873 -0 -0.225839 -0.263082 0.135807 0.062866 
-0.5 0.263082 0.197034 -0 -0.225839 -0.263082 0.135807 0.062866 
0.5 0 0.422873 0 -0.225839 -0.263082 0.135807 0.062866 
-0.5 0.263082 0.197034 0 -0.225839 -0.263082 0.135807 0.062866 
0.5 0.263082 0.197034 0 -0.225839 -0.263082 0.135807 0.062866 
-0.5 0.879517 0.614897 -0 0.12919 0 0.229601 0.062866 
0.5 0.879517 0.614897 -0 0.12919 0 0.229601 0.062866 
0.366726 0.879517 0.485707 -0 0.12919 0 0.229601 0.062866 
-0.5 0.879517 0.614897 0 0.0947548 0 0.229601 0.062866 
0.366726 0.879517 0.485707 0 0.0947548 0 0.229601 0.062866 
-0.366727 0.879517 0.485707 0 0.0947548 0 0.229601 0.062866 
0.5 0.879517 0.614897 0.000996938 0.11513 0.00102847 0.229601 0.062866 
0.5 0.887234 -0.248961 0.000996938 0.11513 0.00102847 0.229601 0.062866 
0.366726 0.887234 -0.119773 0.000996938 0.11513 0.00102847 0.229601 0.062866 
0.5 0.879517 0.614897 -0.000996953 0.0806947 0.00102847 0.229601 0.062866 
0.366726 0.887234 -0.119773 -0.000996953 0.0806947 0.00102847 0.229601 0.062866 
0.366726 0.879517 0.485707 -0.000996953 0.0806947 0.00102847 0.229601 0.062866 
0.5 0.887234 -0.248961 0 0.129188 0 0.229601 0.062866 
-0.5 0.887234 -0.248961 0 0.129188 0 0.229601 0.062866 
-0.366727 0.887234 -0.119773 0 0.129188 0 0.229601 0.062866 
0.5 0.887234 -0.248961 0 0.0947533 0 0.229601 0.062866 
-0.366727 0.887234 -0.119773 0 0.0947533 0 0.229601 0.062866 
0.366726 0.887234 -0.119773 0 0.0947533 0 0.229601 0.062866 
-0.5 0.887234 -0.248961 0.000996953 0.115129 0.00102846 0.229601 0.062866 
-0.5 0.879517 0.614897 0.000996953 0.115129 0.00102846 0.229601 0.062866 
-0.366727 0.879517 0.485707 0.000996953 0.115129 0.00102846 0.229601 0.062866 
-0.5 0.887234 -0.248961 -0.000996938 0.0806941 0.00102846 0.229601 0.062866 
-0.366727 0.879517 0.485707 -0.000996938 0.0806941 0.00102846 0.229601 0.062866 
-0.366727 0.887234 -0.119773 -0.000996938 0.0806941 0.00102846 0.229601 0.062866 
-0.5 0.263855 0.614897 0 0 0.184699 0.200664 0.062866 
0.5 0.263855 0.614897 0 0 0.184699 0.200664 0.062866 
0.5 0.448554 0.614897 0 0 0.184699 0.200664 0.062866 
-0.5 0.263855 0.614897 0 0 0.184699 0.200664 0.062866 
0.5 0.448554 0.614897 0 0 0.184699 0.200664 0.062866 
-0.5 0.448554 0.614897 0 0 0.184699 0.200664 0.062866 
-0.5 0.862327 -0.464874 0 0.032549 -0.295778 0.200664 0.062866 
0.5 0.862327 -0.464874 0 0.032549 -0.295778 0.200664 0.062866 
0.5 0.566549 -0.497423 0 0.032549 -0.295778 0.200664 0.062866 
-0.5 0.862327 -0.464874 0 0.032549 -0.295778 0.200664 0.062866 
0.5 0.566549 -0.497423 0 0.032549 -0.295778 0.200664 0.062866 
-0.5 0.566549 -0.497423 0 0.032549 -0.295778 0.200664 0.062866 
-0.5 0.439787 -0.511372 -0.0756552 -0 0 0.169732 0.062866 
-0.5 0.258698 -0.531301 -0.0756552 -0 0 0.169732 0.062866 
-0.5 0.259472 -0.113437 -0.0756552 -0 0 0.169732 0.062866 
-0.5 0.439787 -0.511372 -0.0574191 0 0 0.169732 0.062866 
-0.5 0.259472 -0.113437 -0.0574191 0 0 0.169732 0.062866 
-0.5 0.263082 0.197034 -0.0574191 0 0 0.169732 0.062866 
-0.5 0.439787 -0.511372 -0.0743861 0 0 0.169732 0.062866 
-0.5 0.263082 0.197034 -0.0743861 0 0 0.169732 0.062866 
-0.5 0.263855 0.614897 -0.0743861 0 0 0.169732 0.062866 
-0.5 0.439787 -0.511372 -0.208021 0 0 0.169732 0.062866 
-0.5 0.263855 0.614897 -0.208021 0 0 0.169732 0.062866 
-0.5 0.448554 0.614897 -0.208021 0 0 0.169732 0.062866 
0.5 0.439787 -0.511372 0.208021 0 -0 0.169732 0.062866 
0.5 0.448554 0.614897 0.208021 0 -0 0.169732 0.062866 
0.5 0.263855 0.614897 0.208021 0 -0 0.169732 0.062866 
0.5 0.439787 -0.511372 0.0743861 0 0 0.169732 0.062866 
0.5 0.263855 0.614897 0.0743861 0 0 0.169732 0.062866 
0.5 0.263082 0.197034 0.0743861 0 0 0.169732 0.062866 
0.5 0.439787 -0.511372 0.0574191 0 0 0.169732 0.062866 
0.5 0.263082 0.197034 0.0574191 0 0 0.169732 0.062866 
0.5 0.259472 -0.113437 0.0574191 0 0 0.169732 0.062866 
0.5 0.439787 -0.511372 0.0756552 0 0 0.169732 0.062866 
0.5 0.259472 -0.113437 0.0756552 0 0 0.169732 0.062866 
0.5 0.258698 -0.531301 0.0756552 0 0 0.169732 0.062866 
-0.5 0.571118 0.614897 0 0 0.308399 0.200664 0.062866 
0.5 0.571118 0.614897 0 0 0.308399 0.200664 0.062866 
0.5 0.879517 0.614897 0 0 0.308399 0.200664 0.062866 
-0.5 0.571118 0.614897 0 0 0.308399 0.200664 0.062866 
0.5 0.879517 0.614897 0 0 0.308399 0.200664 0.062866 
-0.5 0.879517 0.614897 0 0 0.308399 0.200664 0.062866 
-0.543124 0.566549 -0.549456 0 0.016461 -0.137695 0.236468 0.061595 
0.543124 0.566549 -0.549456 0 0.016461 -0.137695 0.236468 0.061595 
0.543124 0.439787 -0.56461 0 0.016461 -0.137695 0.236468 0.061595 
-0.543124 0.566549 -0.549456 0 0.016461 -0.137695 0.236468 0.061595 
0.543124 0.439787 -0.56461 0 0.016461 -0.137695 0.236468 0.061595 
-0.543124 0.439787 -0.56461 0 0.016461 -0.137695 0.236468 0.061595 
0.543124 0.448554 0.667895 0.156102 0 0 0.205536 0.061595 
0.543124 0.439787 -0.56461 0.156102 0 0 0.205536 0.061595 
0.543124 0.566549 -0.549456 0.156102 0 0 0.205536 0.061595 
0.543124 0.448554 0.667895 0.149203 -0 0 0.205536 0.061595 
0.543124 0.566549 -0.549456 0.149203 -0 0 0.205536 0.061595 
0.543124 0.571118 0.667895 0.149203 -0 0 0.205536 0.061595 
-0.543124 0.439787 -0.56461 -0.151061 0 0 0.205536 0.061595 
-0.543124 0.448554 0.667895 -0.151061 0 0 0.205536 0.061595 
-0.543124 0.571118 0.667895 -0.151061 0 0 0.205536 0.061595 
-0.543124 0.439787 -0.56461 -0.154245 0 0 0.205536 0.061595 
-0.543124 0.571118 0.667895 -0.154245 0 0 0.205536 0.061595 
-0.543124 0.566549 -0.549456 -0.154245 0 0 0.205536 0.061595 
-0.5 0.448554 0.614897 0 -0.052998 0 0.168005 0.061477 
0.5 0.448554 0.614897 0 -0.052998 0 0.168005 0.061477 
0.543124 0.448554 0.667895 0 -0.052998 0 0.168005 0.061477 
-0.5 0.448554 0.614897 0 -0.057569 0 0.168005 0.061477 
0.543124 0.448554 0.667895 0 -0.057569 0 0.168005 0.061477 
-0.543124 0.448554 0.667895 0 -0.057569 0 0.168005 0.061477 
0.5 0.571118 0.614897 0 0.052998 0 0.270925 0.060901 
-0.5 0.571118 0.614897 0 0.052998 0 0.270925 0.060901 
-0.543124 0.571118 0.667895 0 0.052998 0 0.270925 0.060901 
0.5 0.571118 0.614897 0 0.057569 -0 0.270925 0.060901 
-0.543124 0.571118 0.667895 0 0.057569 -0 0.270925 0.060901 
0.543124 0.571118 0.667895 0 0.057569 -0 0.270925 0.060901 
-0.5 0.566549 -0.497423 -0 0.052033 0 0.270925 0.060901 
0.5 0.566549 -0.497423 -0 0.052033 0 0.270925 0.060901 
0.543124 0.566549 -0.549456 -0 0.052033 0 0.270925 0.060901 
-0.5 0.566549 -0.497423 0 0.0565207 0 0.270925 0.060901 
0.543124 0.566549 -0.549456 0 0.0565207 0 0.270925 0.060901 
-0.543124 0.566549 -0.549456 0 0.0565207 0 0.270925 0.060901 
0.5 0.439787 -0.511372 -0 -0.053238 0 0.168005 0.061477 
-0.5 0.439787 -0.511372 -0 -0.053238 0 0.168005 0.061477 
-0.543124 0.439787 -0.56461 -0 -0.053238 0 0.168005 0.061477 
0.5 0.439787 -0.511372 0 -0.0578296 -0 0.168005 0.061477 
-0.543124 0.439787 -0.56461 0 -0.0578296 -0 0.168005 0.061477 
0.543124 0.439787 -0.56461 0 -0.0578296 -0 0.168005 0.061477 
0.5 0.448554 0.614897 0.000466737 -0.0485693 0.000378069 0.168005 0.061477 
0.5 0.439787 -0.511372 0.000466737 -0.0485693 0.000378069 0.168005 0.061477 
0.543124 0.439787 -0.56461 0.000466737 -0.0485693 0.000378069 0.168005 0.061477 
0.5 0.448554 0.614897 -0.000464634 -0.0531506 0.000378069 0.168005 0.061477 
0.543124 0.439787 -0.56461 -0.000464634 -0.0531506 0.000378069 0.168005 0.061477 
0.543124 0.448554 0.667895 -0.000464634 -0.0531506 0.000378069 0.168005 0.061477 
0.5 0.566549 -0.497423 0.000242148 0.0479677 -0.000197033 0.270925 0.060901 
0.5 0.571118 0.614897 0.000242148 0.0479677 -0.000197033 0.270925 0.060901 
0.543124 0.571118 0.667895 0.000242148 0.0479677 -0.000197033 0.270925 0.060901 
0.5 0.566549 -0.497423 -0.000237738 0.0524971 -0.000197033 0.270925 0.060901 
0.543124 0.571118 0.667895 -0.000237738 0.0524971 -0.000197033 0.270925 0.060901 
0.543124 0.566549 -0.549456 -0.000237738 0.0524971 -0.000197033 0.270925 0.060901 
-0.5 0.439787 -0.511372 0.000464633 -0.0485693 0.000378069 0.168005 0.061477 
-0.5 0.448554 0.614897 0.000464633 -0.0485693 0.000378069 0.168005 0.061477 
-0.543124 0.448554 0.667895 0.000464633 -0.0485693 0.000378069 0.168005 0.061477 
-0.5 0.439787 -0.511372 -0.000466738 -0.0531506 0.000378069 0.168005 0.061477 
-0.543124 0.448554 0.667895 -0.000466738 -0.0531506 0.000378069 0.168005 0.061477 
-0.543124 0.439787 -0.56461 -0.000466738 -0.0531506 0.000378069 0.168005 0.061477 
-0.5 0.571118 0.614897 0.000237739 0.0479677 -0.000197033 0.270925 0.060901 
-0.5 0.566549 -0.497423 0.000237739 0.0479677 -0.000197033 0.270925 0.060901 
-0.543124 0.566549 -0.549456 0.000237739 0.0479677 -0.000197033 0.270925 0.060901 
-0.5 0.571118 0.614897 -0.000242148 0.0524971 -0.000197033 0.270925 0.060901 
-0.543124 0.566549 -0.549456 -0.000242148 0.0524971 -0.000197033 0.270925 0.060901 
-0.543124 0.571118 0.667895 -0.000242148 0.0524971 -0.000197033 0.270925 0.060901 
-0.40147 2.25462 -0.406698 -0 0.00226191 0.0196096 0.200664 0.062866 
-0.202831 2.25462 -0.406698 -0 0.00226191 0.0196096 0.200664 0.062866 
-0.202831 2.35334 -0.418085 -0 0.00226191 0.0196096 0.200664 0.062866 
-0.40147 2.25462 -0.406698 0 0.00338387 0.0293365 0.200664 0.062866 
-0.202831 2.35334 -0.418085 0 0.00338387 0.0293365 0.200664 0.062866 
-0.5 2.35334 -0.418085 0 0.00338387 0.0293365 0.200664 0.062866 
-0.40147 2.22972 -0.622612 0 -0.0428889 0.0049461 0.138085 0.062866 
-0.202831 2.22972 -0.622612 0 -0.0428889 0.0049461 0.138085 0.062866 
-0.202831 2.25462 -0.406698 0 -0.0428889 0.0049461 0.138085 0.062866 
-0.40147 2.22972 -0.622612 0 -0.0428889 0.0049461 0.138085 0.062866 
-0.202831 2.25462 -0.406698 0 -0.0428889 0.0049461 0.138085 0.062866 
-0.40147 2.25462 -0.406698 0 -0.0428889 0.0049461 0.138085 0.062866 
-0.5 2.32843 -0.633999 0 -0.00338386 -0.0293335 0.200664 0.062866 
-0.202831 2.32843 -0.633999 0 -0.00338386 -0.0293335 0.200664 0.062866 
-0.202831 2.22972 -0.622612 0 -0.00338386 -0.0293335 0.200664 0.062866 
-0.5 2.32843 -0.633999 0 -0.0022619 -0.0196076 0.200664 0.062866 
-0.202831 2.22972 -0.622612 0 -0.0022619 -0.0196076 0.200664 0.062866 
-0.40147 2.22972 -0.622612 0 -0.0022619 -0.0196076 0.200664 0.062866 
-0.5 2.35334 -0.418085 0 0.0641629 -0.00740247 0.229601 0.062866 
-0.202831 2.35334 -0.418085 0 0.0641629 -0.00740247 0.229601 0.062866 
-0.202831 2.32843 -0.633999 0 0.0641629 -0.00740247 0.229601 0.062866 
-0.5 2.35334 -0.418085 0 0.0641629 -0.00740247 0.229601 0.062866 
-0.202831 2.32843 -0.633999 0 0.0641629 -0.00740247 0.229601 0.062866 
-0.5 2.32843 -0.633999 0 0.0641629 -0.00740247 0.229601 0.062866 
0.202831 2.22972 -0.622612 0 -0.00338386 -0.0293335 0.200664 0.062866 
0.202831 2.32843 -0.633999 0 -0.00338386 -0.0293335 0.200664 0.062866 
0.5 2.32843 -0.633999 0 -0.00338386 -0.0293335 0.200664 0.062866 
0.202831 2.22972 -0.622612 0 -0.00226189 -0.0196075 0.200664 0.062866 
0.5 2.32843 -0.633999 0 -0.00226189 -0.0196075 0.200664 0.062866 
0.401469 2.22972 -0.622612 0 -0.00226189 -0.0196075 0.200664 0.062866 
0.202831 2.25462 -0.406698 0 -0.0428887 0.00494608 0.138085 0.062866 
0.202831 2.22972 -0.622612 0 -0.0428887 0.00494608 0.138085 0.062866 
0.401469 2.22972 -0.622612 0 -0.0428887 0.00494608 0.138085 0.062866 
0.202831 2.25462 -0.406698 0 -0.0428887 0.00494608 0.138085 0.062866 
0.401469 2.22972 -0.622612 0 -0.0428887 0.00494608 0.138085 0.062866 
0.401469 2.25462 -0.406698 0 -0.0428887 0.00494608 0.138085 0.062866 
0.202831 2.35334 -0.418085 0 0.00226189 0.0196095 0.200664 0.062866 
0.202831 2.25462 -0.406698 0 0.00226189 0.0196095 0.200664 0.062866 
0.401469 2.25462 -0.406698 0 0.00226189 0.0196095 0.200664 0.062866 
0.202831 2.35334 -0.418085 -0 0.00338387 0.0293365 0.200664 0.062866 
0.401469 2.25462 -0.406698 -0 0.00338387 0.0293365 0.200664 0.062866 
0.5 2.35334 -0.418085 -0 0.00338387 0.0293365 0.200664 0.062866 
0.202831 2.32843 -0.633999 0 0.0641629 -0.00740247 0.229601 0.062866 
0.202831 2.35334 -0.418085 0 0.0641629 -0.00740247 0.229601 0.062866 
0.5 2.35334 -0.418085 0 0.0641629 -0.00740247 0.229601 0.062866 
0.202831 2.32843 -0.633999 0 0.0641629 -0.00740247 0.229601 0.062866 
0.5 2.35334 -0.418085 0 0.0641629 -0.00740247 0.229601 0.062866 
0.5 2.32843 -0.633999 0 0.0641629 -0.00740247 0.229601 0.062866 
-0.202831 2.32843 -0.633999 -0.00664765 0 0 0.168092 0.065136 
-0.202831 2.35334 -0.418085 -0.00664765 0 0 0.168092 0.065136 
-0.202831 2.38723 -0.391201 -0.00664765 0 0 0.168092 0.065136 
-0.202831 2.32843 -0.633999 -0.00851944 0 0 0.168092 0.065136 
-0.202831 2.38723 -0.391201 -0.00851944 0 0 0.168092 0.065136 
-0.202831 2.35531 -0.667894 -0.00851944 0 0 0.168092 0.065136 
0.202831 2.35334 -0.418085 0.0066481 0 0 0.168092 0.065136 
0.202831 2.32843 -0.633999 0.0066481 0 0 0.168092 0.065136 
0.202831 2.35531 -0.667894 0.0066481 0 0 0.168092 0.065136 
0.202831 2.35334 -0.418085 0.00851899 -0 0 0.168092 0.065136 
0.202831 2.35531 -0.667894 0.00851899 -0 0 0.168092 0.065136 
0.202831 2.38723 -0.391201 0.00851899 -0 0 0.168092 0.065136 
-0.202831 2.35334 -0.418085 -0.00304002 0 0 0.168092 0.065136 
-0.202831 2.25462 -0.406698 -0.00304002 0 0 0.168092 0.065136 
-0.202831 2.22774 -0.372803 -0.00304002 0 0 0.168092 0.065136 
-0.202831 2.35334 -0.418085 -0.00491124 0 0 0.168092 0.065136 
-0.202831 2.22774 -0.372803 -0.00491124 0 0 0.168092 0.065136 
-0.202831 2.38723 -0.391201 -0.00491124 0 0 0.168092 0.065136 
0.202831 2.25462 -0.406698 0.00303989 -0 0 0.168092 0.065136 
0.202831 2.35334 -0.418085 0.00303989 -0 0 0.168092 0.065136 
0.202831 2.38723 -0.391201 0.00303989 -0 0 0.168092 0.065136 
0.202831 2.25462 -0.406698 0.00491137 0 -0 0.168092 0.065136 
0.202831 2.38723 -0.391201 0.00491137 0 -0 0.168092 0.065136 
0.202831 2.22774 -0.372803 0.00491137 0 -0 0.168092 0.065136 
-0.202831 2.22972 -0.622612 -0.00303969 0 0 0.168092 0.065136 
-0.202831 2.32843 -0.633999 -0.00303969 0 0 0.168092 0.065136 
-0.202831 2.35531 -0.667894 -0.00303969 0 0 0.168092 0.065136 
-0.202831 2.22972 -0.622612 -0.00491142 0 -0 0.168092 0.065136 
-0.202831 2.35531 -0.667894 -0.00491142 0 -0 0.168092 0.065136 
-0.202831 2.19582 -0.649496 -0.00491142 0 -0 0.168092 0.065136 
0.202831 2.32843 -0.633999 0.00303974 0 0 0.168092 0.065136 
0.202831 2.22972 -0.622612 0.00303974 0 0 0.168092 0.065136 
0.202831 2.19582 -0.649496 0.00303974 0 0 0.168092 0.065136 
0.202831 2.32843 -0.633999 0.00491137 0 0 0.168092 0.065136 
0.202831 2.19582 -0.649496 0.00491137 0 0 0.168092 0.065136 
0.202831 2.35531 -0.667894 0.00491137 0 0 0.168092 0.065136 
-0.202831 2.25462 -0.406698 -0.00665008 0 0 0.168092 0.065136 
-0.202831 2.22972 -0.622612 -0.00665008 0 0 0.168092 0.065136 
-0.202831 2.19582 -0.649496 -0.00665008 0 0 0.168092 0.065136 
-0.202831 2.25462 -0.406698 -0.00851944 -0 0 0.168092 0.065136 
-0.202831 2.19582 -0.649496 -0.00851944 -0 0 0.168092 0.065136 
-0.202831 2.22774 -0.372803 -0.00851944 -0 0 0.168092 0.065136 
0.202831 2.22972 -0.622612 0.00664776 0 -0 0.168092 0.065136 
0.202831 2.25462 -0.406698 0.00664776 0 -0 0.168092 0.065136 
0.202831 2.22774 -0.372803 0.00664776 0 -0 0.168092 0.065136 
0.202831 2.22972 -0.622612 0.00852176 0 0 0.168092 0.065136 
0.202831 2.22774 -0.372803 0.00852176 0 0 0.168092 0.065136 
0.202831 2.19582 -0.649496 0.00852176 0 0 0.168092 0.065136 
3 0 1 2
3 3 4 5
3 6 7 8
3 9 10 11
3 12 13 14
3 15 16 17
3 18 19 20
3 21 22 23
3 24 25 26
3 27 28 29
3 30 31 32
3 33 34 35
3 36 37 38
3 39 40 41
3 42 43 44
3 45 46 47
3 48 49 50
3 51 52 53
3 54 55 56
3 57 58 59
3 60 61 62
3 63 64 65
3 66 67 68
3 69 70 71
3 72 73 74
3 75 76 77
3 78 79 80
3 81 82 83
3 84 85 86
3 87 88 89
3 90 91 92
3 93 94 95
3 96 97 98
3 99 100 101
3 102 103 104
3 105 106 107
3 108 109 110
3 111 112 113
3 114 115 116
3 117 118 119
3 120 121 122
3 123 124 125
3 126 127 128
3 129 130 131
3 132 133 134
3 135 136 137
3 138 139 140
3 141 142 143
3 144 145 146
3 147 148 149
3 150 151 152
3 153 154 155
3 156 157 158
3 159 160 161
3 162 163 164
3 165 166 167
3 168 169 170
3 171 172 173
3 174 175 176
3 177 178 179
3 180 181 182
3 183 184 185
3 186 187 188
3 189 190 191
3 192 193 194
3 195 196 197
3 198 199 200
3 201 202 203
3 204 205 206
3 207 208 209
3 210 211 212
3 213 214 215
3 216 217 218
3 219 220 221
3 222 223 224
3 225 226 227
3 228 229 230
3 231 232 233
3 234 235 236
3 237 238 239
3 240 241 242
3 243 244 245
3 246 247 248
3 249 250 251
3 252 253 254
3 255 256 257
3 258 259 260
3 261 262 263
3 264 265 266
3 267 268 269
3 270 271 272
3 273 274 275
3 276 277 278
3 279 280 281
3 282 283 284
3 285 286 287
3 288 289 290
3 291 292 293
3 294 295 296
3 297 298 299
3 300 301 302
3 303 304 305
3 306 307 308
3 309 310 311
3 312 313 314
3 315 316 317
3 318 319 320
3 321 322 323
3 324 325 326
3 327 328 329
3 330 331 332
3 333 334 335
3 336 337 338
3 339 340 341
3 342 343 344
3 345 346 347
3 348 349 350
3 351 352 353
3 354 355 356
3 357 358 359
3 360 361 362
3 363 364 365
3 366 367 368
3 369 370 371
3 372 373 374
3 375 376 377
3 378 379 380
3 381 382 383
3 384 385 386
3 387 388 389
3 390 391 392
3 393 394 395
3 396 397 398
3 399 400 401
3 402 403 404
3 405 406 407
3 408 409 410
3 411 412 413
3 414 415 416
3 417 418 419
3 420 421 422
3 423 424 425
3 426 427 428
3 429 430 431
3 432 433 434
3 435 436 437
3 438 439 440
3 441 442 443
3 444 445 446
3 447 448 449
3 450 451 452
3 453 454 455
3 456 457 458
3 459 460 461
3 462 463 464
3 465 466 467
3 468 469 470
3 471 472 473
3 474 475 476
3 477 478 479
