ply
format ascii 1.0
comment Feeney's Flatenator generated
comment TextureFile SpaceInteriors_Texture.png
element vertex 396
property float x
property float y
property float z
property float nx
property float ny
property float nz
property uchar red
property uchar green
property uchar blue
property uchar alpha
property float texture_u
property float texture_v
element face 132
property list uchar int vertex_indices
end_header
-0.055537 0.206515 0.066165 -0 0.00406964 0.00412307 162 160 131 255 0.240323 0.44366 
0.055537 0.206515 0.066165 -0 0.00406964 0.00412307 162 160 131 255 0.240323 0.44366 
0.029524 0.243635 0.029526 -0 0.00406964 0.00412307 162 160 131 255 0.240323 0.44366 
-0.055537 0.206515 0.066165 0 0.00216346 0.00219186 162 160 131 255 0.240323 0.44366 
0.029524 0.243635 0.029526 0 0.00216346 0.00219186 162 160 131 255 0.240323 0.44366 
-0.029524 0.243635 0.029526 0 0.00216346 0.00219186 162 160 131 255 0.240323 0.44366 
-0.020646 0.510521 -0.071858 0 0.00145937 -0.000441977 108 105 102 255 0.2598 0.062866 
0.022053 0.510521 -0.071858 0 0.00145937 -0.000441977 108 105 102 255 0.2598 0.062866 
0.022053 0.50017 -0.106036 0 0.00145937 -0.000441977 108 105 102 255 0.2598 0.062866 
-0.020646 0.510521 -0.071858 0 0.00145937 -0.000441977 108 105 102 255 0.2598 0.062866 
0.022053 0.50017 -0.106036 0 0.00145937 -0.000441977 108 105 102 255 0.2598 0.062866 
-0.020646 0.50017 -0.106036 0 0.00145937 -0.000441977 108 105 102 255 0.2598 0.062866 
-0.029524 0.226518 -0.026987 0 0.00105832 -0.00118114 162 160 131 255 0.240323 0.44366 
0.029524 0.226518 -0.026987 0 0.00105832 -0.00118114 162 160 131 255 0.240323 0.44366 
0.055537 0.206515 -0.04491 0 0.00105832 -0.00118114 162 160 131 255 0.240323 0.44366 
-0.029524 0.226518 -0.026987 0 0.00199078 -0.00222181 162 160 131 255 0.240323 0.44366 
0.055537 0.206515 -0.04491 0 0.00199078 -0.00222181 162 160 131 255 0.240323 0.44366 
-0.055537 0.206515 -0.04491 0 0.00199078 -0.00222181 162 160 131 255 0.240323 0.44366 
-0.095408 0 -0.115663 0 -0.0481965 0 58 57 55 255 0.177277 0.06 
0.095408 0 -0.115663 0 -0.0481965 0 58 57 55 255 0.177277 0.06 
0.095408 0 0.136918 0 -0.0481965 0 58 57 55 255 0.177277 0.06 
-0.095408 0 -0.115663 0 -0.0481965 0 58 57 55 255 0.177277 0.06 
0.095408 0 0.136918 0 -0.0481965 0 58 57 55 255 0.177277 0.06 
-0.095408 0 0.136918 0 -0.0481965 0 58 57 55 255 0.177277 0.06 
0.055537 0.206515 0.066165 0.00222183 0.00288939 0 147 146 118 255 0.209391 0.44366 
0.055537 0.206515 -0.04491 0.00222183 0.00288939 0 147 146 118 255 0.209391 0.44366 
0.029524 0.226518 -0.026987 0.00222183 0.00288939 0 147 146 118 255 0.209391 0.44366 
0.055537 0.206515 0.066165 0.00272491 0.00147007 -0.000445264 147 146 118 255 0.209391 0.44366 
0.029524 0.226518 -0.026987 0.00272491 0.00147007 -0.000445264 147 146 118 255 0.209391 0.44366 
0.029524 0.243635 0.029526 0.00272491 0.00147007 -0.000445264 147 146 118 255 0.209391 0.44366 
-0.055537 0.206515 -0.04491 -0.0041231 0.00288939 0 147 146 118 255 0.209391 0.44366 
-0.055537 0.206515 0.066165 -0.0041231 0.00288939 0 147 146 118 255 0.209391 0.44366 
-0.029524 0.243635 0.029526 -0.0041231 0.00288939 0 147 146 118 255 0.209391 0.44366 
-0.055537 0.206515 -0.04491 -0.000823642 0.00147007 -0.000445264 147 146 118 255 0.209391 0.44366 
-0.029524 0.243635 0.029526 -0.000823642 0.00147007 -0.000445264 147 146 118 255 0.209391 0.44366 
-0.029524 0.226518 -0.026987 -0.000823642 0.00147007 -0.000445264 147 146 118 255 0.209391 0.44366 
-0.056875 0.180036 -0.046248 -0.00150605 0.00076167 0 147 146 118 255 0.202035 0.44366 
-0.056875 0.180036 0.067502 -0.00150605 0.00076167 0 147 146 118 255 0.202035 0.44366 
-0.050179 0.193276 0.060806 -0.00150605 0.00076167 0 147 146 118 255 0.202035 0.44366 
-0.056875 0.180036 -0.046248 -0.00132873 0.000671991 0 147 146 118 255 0.202035 0.44366 
-0.050179 0.193276 0.060806 -0.00132873 0.000671991 0 147 146 118 255 0.202035 0.44366 
-0.050179 0.193276 -0.039551 -0.00132873 0.000671991 0 147 146 118 255 0.202035 0.44366 
-0.056875 0.180036 0.067502 -0 0.00076167 0.00150605 162 160 131 255 0.232967 0.44366 
0.056875 0.180036 0.067502 -0 0.00076167 0.00150605 162 160 131 255 0.232967 0.44366 
0.050179 0.193276 0.060806 -0 0.00076167 0.00150605 162 160 131 255 0.232967 0.44366 
-0.056875 0.180036 0.067502 0 0.000671997 0.00132874 162 160 131 255 0.232967 0.44366 
0.050179 0.193276 0.060806 0 0.000671997 0.00132874 162 160 131 255 0.232967 0.44366 
-0.050179 0.193276 0.060806 0 0.000671997 0.00132874 162 160 131 255 0.232967 0.44366 
0.056875 0.180036 0.067502 0.00150605 0.00076167 0 147 146 118 255 0.202035 0.44366 
0.056875 0.180036 -0.046248 0.00150605 0.00076167 0 147 146 118 255 0.202035 0.44366 
0.050179 0.193276 -0.039551 0.00150605 0.00076167 0 147 146 118 255 0.202035 0.44366 
0.056875 0.180036 0.067502 0.00132873 0.000671991 0 147 146 118 255 0.202035 0.44366 
0.050179 0.193276 -0.039551 0.00132873 0.000671991 0 147 146 118 255 0.202035 0.44366 
0.050179 0.193276 0.060806 0.00132873 0.000671991 0 147 146 118 255 0.202035 0.44366 
-0.050179 0.193276 -0.039551 0 0.000672097 -0.00132874 162 160 131 255 0.232967 0.44366 
0.050179 0.193276 -0.039551 0 0.000672097 -0.00132874 162 160 131 255 0.232967 0.44366 
0.056875 0.180036 -0.046248 0 0.000672097 -0.00132874 162 160 131 255 0.232967 0.44366 
-0.050179 0.193276 -0.039551 0 0.000761784 -0.00150605 162 160 131 255 0.232967 0.44366 
0.056875 0.180036 -0.046248 0 0.000761784 -0.00150605 162 160 131 255 0.232967 0.44366 
-0.056875 0.180036 -0.046248 0 0.000761784 -0.00150605 162 160 131 255 0.232967 0.44366 
-0.029524 0.39964 -0.017725 0 -0.000222139 0.00122371 75 72 70 255 0.199028 0.062866 
0.029524 0.39964 -0.017725 0 -0.000222139 0.00122371 75 72 70 255 0.199028 0.062866 
0.039132 0.420364 -0.013963 0 -0.000222139 0.00122371 75 72 70 255 0.199028 0.062866 
-0.029524 0.39964 -0.017725 0 -0.000434255 0.00239221 75 72 70 255 0.199028 0.062866 
0.039132 0.420364 -0.013963 0 -0.000434255 0.00239221 75 72 70 255 0.199028 0.062866 
-0.0763 0.420364 -0.013963 0 -0.000434255 0.00239221 75 72 70 255 0.199028 0.062866 
-0.029524 0.382524 -0.074238 -0.00110679 -0.00264345 0.000800617 58 57 55 255 0.168096 0.062866 
-0.029524 0.39964 -0.017725 -0.00110679 -0.00264345 0.000800617 58 57 55 255 0.168096 0.062866 
-0.0763 0.420364 -0.013963 -0.00110679 -0.00264345 0.000800617 58 57 55 255 0.168096 0.062866 
-0.029524 0.382524 -0.074238 -0.00146687 -0.00350366 0.00106121 58 57 55 255 0.168096 0.062866 
-0.0763 0.420364 -0.013963 -0.00146687 -0.00350366 0.00106121 58 57 55 255 0.168096 0.062866 
-0.0763 0.397677 -0.088866 -0.00146687 -0.00350366 0.00106121 58 57 55 255 0.168096 0.062866 
-0.0763 0.397677 -0.088866 0 -0.00168854 -0.00174914 75 72 70 255 0.199028 0.062866 
0.039132 0.397677 -0.088866 0 -0.00168854 -0.00174914 75 72 70 255 0.199028 0.062866 
0.029524 0.382524 -0.074238 0 -0.00168854 -0.00174914 75 72 70 255 0.199028 0.062866 
-0.0763 0.397677 -0.088866 0 -0.000863754 -0.000894754 75 72 70 255 0.199028 0.062866 
0.029524 0.382524 -0.074238 0 -0.000863754 -0.000894754 75 72 70 255 0.199028 0.062866 
-0.029524 0.382524 -0.074238 0 -0.000863754 -0.000894754 75 72 70 255 0.199028 0.062866 
0.029524 0.39964 -0.017725 0.00110671 -0.000542977 0.00016445 58 57 55 255 0.168096 0.062866 
0.029524 0.382524 -0.074238 0.00110671 -0.000542977 0.00016445 58 57 55 255 0.168096 0.062866 
0.039132 0.397677 -0.088866 0.00110671 -0.000542977 0.00016445 58 57 55 255 0.168095 0.062866 
0.029524 0.39964 -0.017725 0.00146694 -0.000719668 0.000217977 58 57 55 255 0.168096 0.062866 
0.039132 0.397677 -0.088866 0.00146694 -0.000719668 0.000217977 58 57 55 255 0.168095 0.062866 
0.039132 0.420364 -0.013963 0.00146694 -0.000719668 0.000217977 58 57 55 255 0.168096 0.062866 
-0.0763 0.420364 -0.013963 -0 0.00169385 0.00559222 91 88 86 255 0.230864 0.062866 
0.039132 0.420364 -0.013963 -0 0.00169385 0.00559222 91 88 86 255 0.230864 0.062866 
0.039132 0.46881 -0.028637 -0 0.00169385 0.00559222 91 88 86 255 0.230864 0.062866 
-0.0763 0.420364 -0.013963 0 0.00169385 0.00559222 91 88 86 255 0.230864 0.062866 
0.039132 0.46881 -0.028637 0 0.00169385 0.00559222 91 88 86 255 0.230864 0.062866 
-0.0763 0.46881 -0.028637 0 0.00169385 0.00559222 91 88 86 255 0.230864 0.062866 
-0.0763 0.397677 -0.088866 -0.00396166 0 0 75 72 70 255 0.199932 0.062866 
-0.0763 0.420364 -0.013963 -0.00396166 0 0 75 72 70 255 0.199932 0.062866 
-0.0763 0.46881 -0.028637 -0.00396166 0 0 75 72 70 255 0.199932 0.062866 
-0.0763 0.397677 -0.088866 -0.00396172 0 0 75 72 70 255 0.199932 0.062866 
-0.0763 0.46881 -0.028637 -0.00396172 0 0 75 72 70 255 0.199932 0.062866 
-0.0763 0.446124 -0.10354 -0.00396172 0 0 75 72 70 255 0.199932 0.062866 
-0.0763 0.446124 -0.10354 0 -0.00169385 -0.00559233 91 88 86 255 0.230864 0.062866 
0.039132 0.446124 -0.10354 0 -0.00169385 -0.00559233 91 88 86 255 0.230864 0.062866 
0.039132 0.397677 -0.088866 0 -0.00169385 -0.00559233 91 88 86 255 0.230864 0.062866 
-0.0763 0.446124 -0.10354 0 -0.00169385 -0.00559233 91 88 86 255 0.230864 0.062866 
0.039132 0.397677 -0.088866 0 -0.00169385 -0.00559233 91 88 86 255 0.230864 0.062866 
-0.0763 0.397677 -0.088866 0 -0.00169385 -0.00559233 91 88 86 255 0.230864 0.062866 
0.039132 0.420364 -0.013963 0.00396173 0 0 75 72 70 255 0.199932 0.062866 
0.039132 0.397677 -0.088866 0.00396173 0 0 75 72 70 255 0.199932 0.062866 
0.039132 0.446124 -0.10354 0.00396173 0 0 75 72 70 255 0.199932 0.062866 
0.039132 0.420364 -0.013963 0.00396165 0 0 75 72 70 255 0.199932 0.062866 
0.039132 0.446124 -0.10354 0.00396165 0 0 75 72 70 255 0.199932 0.062866 
0.039132 0.46881 -0.028637 0.00396165 0 0 75 72 70 255 0.199932 0.062866 
-0.029524 0.242412 -0.031801 -0.0086445 0 0 75 72 70 255 0.199932 0.062866 
-0.029524 0.259528 0.024712 -0.0086445 0 0 75 72 70 255 0.199932 0.062866 
-0.029524 0.39964 -0.017725 -0.0086445 0 0 75 72 70 255 0.199932 0.062866 
-0.029524 0.242412 -0.031801 -0.0086445 0 0 75 72 70 255 0.199932 0.062866 
-0.029524 0.39964 -0.017725 -0.0086445 0 0 75 72 70 255 0.199932 0.062866 
-0.029524 0.382524 -0.074238 -0.0086445 0 0 75 72 70 255 0.199932 0.062866 
-0.029524 0.259528 0.024712 -0 0.00250582 0.00827333 91 88 86 255 0.230864 0.062866 
0.029524 0.259528 0.024712 -0 0.00250582 0.00827333 91 88 86 255 0.230864 0.062866 
0.029524 0.39964 -0.017725 -0 0.00250582 0.00827333 91 88 86 255 0.230864 0.062866 
-0.029524 0.259528 0.024712 0 0.00250582 0.00827333 91 88 86 255 0.230864 0.062866 
0.029524 0.39964 -0.017725 0 0.00250582 0.00827333 91 88 86 255 0.230864 0.062866 
-0.029524 0.39964 -0.017725 0 0.00250582 0.00827333 91 88 86 255 0.230864 0.062866 
0.029524 0.259528 0.024712 0.0086445 0 0 75 72 70 255 0.199932 0.062866 
0.029524 0.242412 -0.031801 0.0086445 0 0 75 72 70 255 0.199932 0.062866 
0.029524 0.382524 -0.074238 0.0086445 0 0 75 72 70 255 0.199932 0.062866 
0.029524 0.259528 0.024712 0.0086445 0 0 75 72 70 255 0.199932 0.062866 
0.029524 0.382524 -0.074238 0.0086445 0 0 75 72 70 255 0.199932 0.062866 
0.029524 0.39964 -0.017725 0.0086445 0 0 75 72 70 255 0.199932 0.062866 
-0.029524 0.382524 -0.074238 0 -0.00250582 -0.00827333 91 88 86 255 0.230864 0.062866 
0.029524 0.382524 -0.074238 0 -0.00250582 -0.00827333 91 88 86 255 0.230864 0.062866 
0.029524 0.242412 -0.031801 0 -0.00250582 -0.00827333 91 88 86 255 0.230864 0.062866 
-0.029524 0.382524 -0.074238 0 -0.00250582 -0.00827333 91 88 86 255 0.230864 0.062866 
0.029524 0.242412 -0.031801 0 -0.00250582 -0.00827333 91 88 86 255 0.230864 0.062866 
-0.029524 0.242412 -0.031801 0 -0.00250582 -0.00827333 91 88 86 255 0.230864 0.062866 
-0.0763 0.46881 -0.028637 0 0.00179047 -0.000542297 108 105 102 255 0.2598 0.062866 
0.039132 0.46881 -0.028637 0 0.00179047 -0.000542297 108 105 102 255 0.2598 0.062866 
0.032705 0.464112 -0.044148 0 0.00179047 -0.000542297 108 105 102 255 0.2598 0.062866 
-0.0763 0.46881 -0.028637 0 0.000992735 -0.00030068 108 105 102 255 0.2598 0.062866 
0.032705 0.464112 -0.044148 0 0.000992735 -0.00030068 108 105 102 255 0.2598 0.062866 
-0.031297 0.464112 -0.044148 0 0.000992735 -0.00030068 108 105 102 255 0.2598 0.062866 
0.039132 0.46881 -0.028637 2.07219e-08 0.000481401 -0.000145803 108 105 102 255 0.2598 0.062866 
0.039132 0.446124 -0.10354 2.07219e-08 0.000481401 -0.000145803 108 105 102 255 0.2598 0.062866 
0.032705 0.448596 -0.095379 2.07219e-08 0.000481401 -0.000145803 108 105 102 255 0.2598 0.062866 
0.039132 0.46881 -0.028637 -1.32422e-08 0.000329262 -9.97214e-05 108 105 102 255 0.2598 0.062866 
0.032705 0.448596 -0.095379 -1.32422e-08 0.000329262 -9.97214e-05 108 105 102 255 0.2598 0.062866 
0.032705 0.464112 -0.044148 -1.32422e-08 0.000329262 -9.97214e-05 108 105 102 255 0.2598 0.062866 
0.039132 0.446124 -0.10354 0 0.000942041 -0.000285349 108 105 102 255 0.2598 0.062866 
-0.0763 0.446124 -0.10354 0 0.000942041 -0.000285349 108 105 102 255 0.2598 0.062866 
-0.031297 0.448596 -0.095379 0 0.000942041 -0.000285349 108 105 102 255 0.2598 0.062866 
0.039132 0.446124 -0.10354 0 0.00052232 -0.000158214 108 105 102 255 0.2598 0.062866 
-0.031297 0.448596 -0.095379 0 0.00052232 -0.000158214 108 105 102 255 0.2598 0.062866 
0.032705 0.448596 -0.095379 0 0.00052232 -0.000158214 108 105 102 255 0.2598 0.062866 
-0.0763 0.446124 -0.10354 1.00117e-08 0.00337086 -0.00102094 108 105 102 255 0.2598 0.062866 
-0.0763 0.46881 -0.028637 1.00117e-08 0.00337086 -0.00102094 108 105 102 255 0.2598 0.062866 
-0.031297 0.464112 -0.044148 1.00117e-08 0.00337086 -0.00102094 108 105 102 255 0.2598 0.062866 
-0.0763 0.446124 -0.10354 -1.7506e-08 0.00230555 -0.000698267 108 105 102 255 0.2598 0.062866 
-0.031297 0.464112 -0.044148 -1.7506e-08 0.00230555 -0.000698267 108 105 102 255 0.2598 0.062866 
-0.031297 0.448596 -0.095379 -1.7506e-08 0.00230555 -0.000698267 108 105 102 255 0.2598 0.062866 
-0.00994 0.476688 -0.051657 -0 0.000235382 0.000394211 185 61 58 255 0.265504 0.169691 
0.011348 0.476688 -0.051657 -0 0.000235382 0.000394211 185 61 58 255 0.265504 0.169691 
0.011348 0.495206 -0.062714 -0 0.000235382 0.000394211 185 61 58 255 0.265504 0.169691 
-0.00994 0.476688 -0.051657 0 0.000235382 0.000394211 185 61 58 255 0.265504 0.169691 
0.011348 0.495206 -0.062714 0 0.000235382 0.000394211 185 61 58 255 0.265504 0.169691 
-0.00994 0.495206 -0.062714 0 0.000235382 0.000394211 185 61 58 255 0.265504 0.169691 
0.032705 0.464112 -0.044148 0.00280754 0.000545713 -0.000165277 75 72 70 255 0.198324 0.062866 
0.032705 0.448596 -0.095379 0.00280754 0.000545713 -0.000165277 75 72 70 255 0.198324 0.062866 
0.022053 0.50017 -0.106036 0.00280754 0.000545713 -0.000165277 75 72 70 255 0.198324 0.062866 
0.032705 0.464112 -0.044148 0.00187299 0.000364064 -0.000110259 75 72 70 255 0.198324 0.062866 
0.022053 0.50017 -0.106036 0.00187299 0.000364064 -0.000110259 75 72 70 255 0.198324 0.062866 
0.022053 0.510521 -0.071858 0.00187299 0.000364064 -0.000110259 75 72 70 255 0.198324 0.062866 
0.032705 0.448596 -0.095379 -0 -0.000682069 -0.00330084 91 88 86 255 0.232356 0.062866 
-0.031297 0.448596 -0.095379 -0 -0.000682069 -0.00330084 91 88 86 255 0.232356 0.062866 
-0.020646 0.50017 -0.106036 -0 -0.000682069 -0.00330084 91 88 86 255 0.232356 0.062866 
0.032705 0.448596 -0.095379 0 -0.000455043 -0.00220216 91 88 86 255 0.232356 0.062866 
-0.020646 0.50017 -0.106036 0 -0.000455043 -0.00220216 91 88 86 255 0.232356 0.062866 
0.022053 0.50017 -0.106036 0 -0.000455043 -0.00220216 91 88 86 255 0.232356 0.062866 
-0.031297 0.448596 -0.095379 -0.00280753 0.000545661 -0.000165261 75 72 70 255 0.198324 0.062866 
-0.031297 0.464112 -0.044148 -0.00280753 0.000545661 -0.000165261 75 72 70 255 0.198324 0.062866 
-0.020646 0.510521 -0.071858 -0.00280753 0.000545661 -0.000165261 75 72 70 255 0.198324 0.062866 
-0.031297 0.448596 -0.095379 -0.00187301 0.00036403 -0.000110249 75 72 70 255 0.198324 0.062866 
-0.020646 0.510521 -0.071858 -0.00187301 0.00036403 -0.000110249 75 72 70 255 0.198324 0.062866 
-0.020646 0.50017 -0.106036 -0.00187301 0.00036403 -0.000110249 75 72 70 255 0.198324 0.062866 
-0.031297 0.464112 -0.044148 -0 0.000480591 0.000804888 91 88 86 255 0.232356 0.062866 
0.032705 0.464112 -0.044148 -0 0.000480591 0.000804888 91 88 86 255 0.232356 0.062866 
0.011348 0.476688 -0.051657 -0 0.000480591 0.000804888 91 88 86 255 0.232356 0.062866 
-0.031297 0.464112 -0.044148 0 0.000159852 0.000267718 91 88 86 255 0.232356 0.062866 
0.011348 0.476688 -0.051657 0 0.000159852 0.000267718 91 88 86 255 0.232356 0.062866 
-0.00994 0.476688 -0.051657 0 0.000159852 0.000267718 91 88 86 255 0.232356 0.062866 
0.032705 0.464112 -0.044148 -1.50758e-08 0.000394037 0.000659944 91 88 86 255 0.232356 0.062866 
0.022053 0.510521 -0.071858 -1.50758e-08 0.000394037 0.000659944 91 88 86 255 0.232356 0.062866 
0.011348 0.495206 -0.062714 -1.50758e-08 0.000394037 0.000659944 91 88 86 255 0.232356 0.062866 
0.032705 0.464112 -0.044148 1.09139e-09 0.000236144 0.000395489 91 88 86 255 0.232356 0.062866 
0.011348 0.495206 -0.062714 1.09139e-09 0.000236144 0.000395489 91 88 86 255 0.232356 0.062866 
0.011348 0.476688 -0.051657 1.09139e-09 0.000236144 0.000395489 91 88 86 255 0.232356 0.062866 
0.022053 0.510521 -0.071858 0 0.000390439 0.000653935 91 88 86 255 0.232356 0.062866 
-0.020646 0.510521 -0.071858 0 0.000390439 0.000653935 91 88 86 255 0.232356 0.062866 
-0.00994 0.495206 -0.062714 0 0.000390439 0.000653935 91 88 86 255 0.232356 0.062866 
0.022053 0.510521 -0.071858 0 0.000194657 0.000326026 91 88 86 255 0.232356 0.062866 
-0.00994 0.495206 -0.062714 0 0.000194657 0.000326026 91 88 86 255 0.232356 0.062866 
0.011348 0.495206 -0.062714 0 0.000194657 0.000326026 91 88 86 255 0.232356 0.062866 
-0.020646 0.510521 -0.071858 4.42378e-09 0.000511824 0.00085721 91 88 86 255 0.232356 0.062866 
-0.031297 0.464112 -0.044148 4.42378e-09 0.000511824 0.00085721 91 88 86 255 0.232356 0.062866 
-0.00994 0.476688 -0.051657 4.42378e-09 0.000511824 0.00085721 91 88 86 255 0.232356 0.062866 
-0.020646 0.510521 -0.071858 9.51695e-09 0.000118376 0.000198254 91 88 86 255 0.232356 0.062866 
-0.00994 0.476688 -0.051657 9.51695e-09 0.000118376 0.000198254 91 88 86 255 0.232356 0.062866 
-0.00994 0.495206 -0.062714 9.51695e-09 0.000118376 0.000198254 91 88 86 255 0.232356 0.062866 
-0.04163 0.223009 -0.038574 -0.00138264 0 0 75 72 70 255 0.199932 0.062866 
-0.04163 0.247144 0.041112 -0.00138264 0 0 75 72 70 255 0.199932 0.062866 
-0.04163 0.263037 0.036298 -0.00138264 0 0 75 72 70 255 0.199932 0.062866 
-0.04163 0.223009 -0.038574 -0.0013826 0 0 75 72 70 255 0.199932 0.062866 
-0.04163 0.263037 0.036298 -0.0013826 0 0 75 72 70 255 0.199932 0.062866 
-0.04163 0.238902 -0.043387 -0.0013826 0 0 75 72 70 255 0.199932 0.062866 
-0.04163 0.247144 0.041112 -0 0.000400814 0.00132325 91 88 86 255 0.230864 0.062866 
0.04163 0.247144 0.041112 -0 0.000400814 0.00132325 91 88 86 255 0.230864 0.062866 
0.04163 0.263037 0.036298 -0 0.000400814 0.00132325 91 88 86 255 0.230864 0.062866 
-0.04163 0.247144 0.041112 0 0.000400814 0.00132325 91 88 86 255 0.230864 0.062866 
0.04163 0.263037 0.036298 0 0.000400814 0.00132325 91 88 86 255 0.230864 0.062866 
-0.04163 0.263037 0.036298 0 0.000400814 0.00132325 91 88 86 255 0.230864 0.062866 
0.04163 0.247144 0.041112 0.00138261 0 0 75 72 70 255 0.199932 0.062866 
0.04163 0.223009 -0.038574 0.00138261 0 0 75 72 70 255 0.199932 0.062866 
0.04163 0.238902 -0.043387 0.00138261 0 0 75 72 70 255 0.199932 0.062866 
0.04163 0.247144 0.041112 0.00138262 0 0 75 72 70 255 0.199932 0.062866 
0.04163 0.238902 -0.043387 0.00138262 0 0 75 72 70 255 0.199932 0.062866 
0.04163 0.263037 0.036298 0.00138262 0 0 75 72 70 255 0.199932 0.062866 
-0.04163 0.238902 -0.043387 0 -0.00040073 -0.00132325 91 88 86 255 0.230864 0.062866 
0.04163 0.238902 -0.043387 0 -0.00040073 -0.00132325 91 88 86 255 0.230864 0.062866 
0.04163 0.223009 -0.038574 0 -0.00040073 -0.00132325 91 88 86 255 0.230864 0.062866 
-0.04163 0.238902 -0.043387 0 -0.00040073 -0.00132325 91 88 86 255 0.230864 0.062866 
0.04163 0.223009 -0.038574 0 -0.00040073 -0.00132325 91 88 86 255 0.230864 0.062866 
-0.04163 0.223009 -0.038574 0 -0.00040073 -0.00132325 91 88 86 255 0.230864 0.062866 
-0.029524 0.226518 -0.026987 1.32713e-08 -0.000684146 0.000207218 58 57 55 255 0.173085 0.063085 
-0.029524 0.243635 0.029526 1.32713e-08 -0.000684146 0.000207218 58 57 55 255 0.173085 0.063085 
-0.04163 0.247144 0.041112 1.32713e-08 -0.000684146 0.000207218 58 57 55 255 0.173085 0.063085 
-0.029524 0.226518 -0.026987 -3.39933e-08 -0.000964679 0.000292178 58 57 55 255 0.173085 0.063085 
-0.04163 0.247144 0.041112 -3.39933e-08 -0.000964679 0.000292178 58 57 55 255 0.173085 0.063085 
-0.04163 0.223009 -0.038574 -3.39933e-08 -0.000964679 0.000292178 58 57 55 255 0.173085 0.063085 
-0.029524 0.259528 0.024712 -5.44824e-08 0.000684146 -0.000207206 108 105 102 255 0.270356 0.063085 
-0.029524 0.242412 -0.031801 -5.44824e-08 0.000684146 -0.000207206 108 105 102 255 0.270356 0.063085 
-0.04163 0.238902 -0.043387 -5.44824e-08 0.000684146 -0.000207206 108 105 102 255 0.270356 0.063085 
-0.029524 0.259528 0.024712 -1.45519e-08 0.000964667 -0.000292178 108 105 102 255 0.270356 0.063085 
-0.04163 0.238902 -0.043387 -1.45519e-08 0.000964667 -0.000292178 108 105 102 255 0.270356 0.063085 
-0.04163 0.263037 0.036298 -1.45519e-08 0.000964667 -0.000292178 108 105 102 255 0.270356 0.063085 
-0.029524 0.243635 0.029526 0 -0.00068413 0.000207199 58 57 55 255 0.173085 0.063085 
0.029524 0.243635 0.029526 0 -0.00068413 0.000207199 58 57 55 255 0.173085 0.063085 
0.04163 0.247144 0.041112 0 -0.00068413 0.000207199 58 57 55 255 0.173085 0.063085 
-0.029524 0.243635 0.029526 0 -0.00096465 0.000292159 58 57 55 255 0.173085 0.063085 
0.04163 0.247144 0.041112 0 -0.00096465 0.000292159 58 57 55 255 0.173085 0.063085 
-0.04163 0.247144 0.041112 0 -0.00096465 0.000292159 58 57 55 255 0.173085 0.063085 
0.029524 0.259528 0.024712 0 0.00068413 -0.000207199 108 105 102 255 0.270356 0.063085 
-0.029524 0.259528 0.024712 0 0.00068413 -0.000207199 108 105 102 255 0.270356 0.063085 
-0.04163 0.263037 0.036298 0 0.00068413 -0.000207199 108 105 102 255 0.270356 0.063085 
0.029524 0.259528 0.024712 0 0.00096465 -0.000292158 108 105 102 255 0.270356 0.063085 
-0.04163 0.263037 0.036298 0 0.00096465 -0.000292158 108 105 102 255 0.270356 0.063085 
0.04163 0.263037 0.036298 0 0.00096465 -0.000292158 108 105 102 255 0.270356 0.063085 
0.029524 0.243635 0.029526 3.03844e-08 -0.000684146 0.000207218 58 57 55 255 0.173085 0.063085 
0.029524 0.226518 -0.026987 3.03844e-08 -0.000684146 0.000207218 58 57 55 255 0.173085 0.063085 
0.04163 0.223009 -0.038574 3.03844e-08 -0.000684146 0.000207218 58 57 55 255 0.173085 0.063085 
0.029524 0.243635 0.029526 -9.80799e-09 -0.000964679 0.000292178 58 57 55 255 0.173085 0.063085 
0.04163 0.223009 -0.038574 -9.80799e-09 -0.000964679 0.000292178 58 57 55 255 0.173085 0.063085 
0.04163 0.247144 0.041112 -9.80799e-09 -0.000964679 0.000292178 58 57 55 255 0.173085 0.063085 
0.029524 0.242412 -0.031801 2.79397e-09 0.000684146 -0.000207206 108 105 102 255 0.270356 0.063085 
0.029524 0.259528 0.024712 2.79397e-09 0.000684146 -0.000207206 108 105 102 255 0.270356 0.063085 
0.04163 0.263037 0.036298 2.79397e-09 0.000684146 -0.000207206 108 105 102 255 0.270356 0.063085 
0.029524 0.242412 -0.031801 6.61967e-08 0.000964667 -0.000292178 108 105 102 255 0.270356 0.063085 
0.04163 0.263037 0.036298 6.61967e-08 0.000964667 -0.000292178 108 105 102 255 0.270356 0.063085 
0.04163 0.238902 -0.043387 6.61967e-08 0.000964667 -0.000292178 108 105 102 255 0.270356 0.063085 
-0.029524 0.242412 -0.031801 0 0.00068413 -0.000207258 108 105 102 255 0.270356 0.063085 
0.029524 0.242412 -0.031801 0 0.00068413 -0.000207258 108 105 102 255 0.270356 0.063085 
0.04163 0.238902 -0.043387 0 0.00068413 -0.000207258 108 105 102 255 0.270356 0.063085 
-0.029524 0.242412 -0.031801 0 0.00096465 -0.000292242 108 105 102 255 0.270356 0.063085 
0.04163 0.238902 -0.043387 0 0.00096465 -0.000292242 108 105 102 255 0.270356 0.063085 
-0.04163 0.238902 -0.043387 0 0.00096465 -0.000292242 108 105 102 255 0.270356 0.063085 
0.029524 0.226518 -0.026987 0 -0.000684189 0.000207199 58 57 55 255 0.173085 0.063085 
-0.029524 0.226518 -0.026987 0 -0.000684189 0.000207199 58 57 55 255 0.173085 0.063085 
-0.04163 0.223009 -0.038574 0 -0.000684189 0.000207199 58 57 55 255 0.173085 0.063085 
0.029524 0.226518 -0.026987 0 -0.000964734 0.000292159 58 57 55 255 0.173085 0.063085 
-0.04163 0.223009 -0.038574 0 -0.000964734 0.000292159 58 57 55 255 0.173085 0.063085 
0.04163 0.223009 -0.038574 0 -0.000964734 0.000292159 58 57 55 255 0.173085 0.063085 
-0.050179 0.166797 -0.039551 -0.00132863 -0.000671991 0 118 117 94 255 0.141754 0.44366 
-0.050179 0.166797 0.060806 -0.00132863 -0.000671991 0 118 117 94 255 0.141754 0.44366 
-0.056875 0.180036 0.067502 -0.00132863 -0.000671991 0 118 117 94 255 0.141754 0.44366 
-0.050179 0.166797 -0.039551 -0.00150594 -0.00076167 0 118 117 94 255 0.141754 0.44366 
-0.056875 0.180036 0.067502 -0.00150594 -0.00076167 0 118 117 94 255 0.141754 0.44366 
-0.056875 0.180036 -0.046248 -0.00150594 -0.00076167 0 118 117 94 255 0.141754 0.44366 
-0.050179 0.166797 0.060806 0 -0.000671997 0.00132864 132 131 107 255 0.172687 0.44366 
0.050179 0.166797 0.060806 0 -0.000671997 0.00132864 132 131 107 255 0.172687 0.44366 
0.056875 0.180036 0.067502 0 -0.000671997 0.00132864 132 131 107 255 0.172687 0.44366 
-0.050179 0.166797 0.060806 0 -0.00076167 0.00150594 132 131 107 255 0.172687 0.44366 
0.056875 0.180036 0.067502 0 -0.00076167 0.00150594 132 131 107 255 0.172687 0.44366 
-0.056875 0.180036 0.067502 0 -0.00076167 0.00150594 132 131 107 255 0.172687 0.44366 
0.050179 0.166797 0.060806 0.00132863 -0.000671991 0 118 117 94 255 0.141754 0.44366 
0.050179 0.166797 -0.039551 0.00132863 -0.000671991 0 118 117 94 255 0.141754 0.44366 
0.056875 0.180036 -0.046248 0.00132863 -0.000671991 0 118 117 94 255 0.141754 0.44366 
0.050179 0.166797 0.060806 0.00150594 -0.00076167 0 118 117 94 255 0.141754 0.44366 
0.056875 0.180036 -0.046248 0.00150594 -0.00076167 0 118 117 94 255 0.141754 0.44366 
0.056875 0.180036 0.067502 0.00150594 -0.00076167 0 118 117 94 255 0.141754 0.44366 
-0.056875 0.180036 -0.046248 0 -0.000761784 -0.00150594 132 131 107 255 0.172687 0.44366 
0.056875 0.180036 -0.046248 0 -0.000761784 -0.00150594 132 131 107 255 0.172687 0.44366 
0.050179 0.166797 -0.039551 0 -0.000761784 -0.00150594 132 131 107 255 0.172687 0.44366 
-0.056875 0.180036 -0.046248 0 -0.000672097 -0.00132864 132 131 107 255 0.172687 0.44366 
0.050179 0.166797 -0.039551 0 -0.000672097 -0.00132864 132 131 107 255 0.172687 0.44366 
-0.050179 0.166797 -0.039551 0 -0.000672097 -0.00132864 132 131 107 255 0.172687 0.44366 
-0.050179 0.193276 0.060806 0 -0.000537819 0.00132864 132 131 107 255 0.172687 0.44366 
0.050179 0.193276 0.060806 0 -0.000537819 0.00132864 132 131 107 255 0.172687 0.44366 
0.055537 0.206515 0.066165 0 -0.000537819 0.00132864 132 131 107 255 0.172687 0.44366 
-0.050179 0.193276 0.060806 0 -0.000595246 0.00147051 132 131 107 255 0.172687 0.44366 
0.055537 0.206515 0.066165 0 -0.000595246 0.00147051 132 131 107 255 0.172687 0.44366 
-0.055537 0.206515 0.066165 0 -0.000595246 0.00147051 132 131 107 255 0.172687 0.44366 
-0.050179 0.193276 -0.039551 -0.00132863 -0.000537713 0 118 117 94 255 0.141754 0.44366 
-0.050179 0.193276 0.060806 -0.00132863 -0.000537713 0 118 117 94 255 0.141754 0.44366 
-0.055537 0.206515 0.066165 -0.00132863 -0.000537713 0 118 117 94 255 0.141754 0.44366 
-0.050179 0.193276 -0.039551 -0.00147052 -0.00059514 0 118 117 94 255 0.141754 0.44366 
-0.055537 0.206515 0.066165 -0.00147052 -0.00059514 0 118 117 94 255 0.141754 0.44366 
-0.055537 0.206515 -0.04491 -0.00147052 -0.00059514 0 118 117 94 255 0.141754 0.44366 
-0.055537 0.206515 -0.04491 0 -0.000595245 -0.00147051 132 131 107 255 0.172687 0.44366 
0.055537 0.206515 -0.04491 0 -0.000595245 -0.00147051 132 131 107 255 0.172687 0.44366 
0.050179 0.193276 -0.039551 0 -0.000595245 -0.00147051 132 131 107 255 0.172687 0.44366 
-0.055537 0.206515 -0.04491 0 -0.000537818 -0.00132864 132 131 107 255 0.172687 0.44366 
0.050179 0.193276 -0.039551 0 -0.000537818 -0.00132864 132 131 107 255 0.172687 0.44366 
-0.050179 0.193276 -0.039551 0 -0.000537818 -0.00132864 132 131 107 255 0.172687 0.44366 
0.050179 0.193276 0.060806 0.00132863 -0.000537713 0 118 117 94 255 0.141754 0.44366 
0.050179 0.193276 -0.039551 0.00132863 -0.000537713 0 118 117 94 255 0.141754 0.44366 
0.055537 0.206515 -0.04491 0.00132863 -0.000537713 0 118 117 94 255 0.141754 0.44366 
0.050179 0.193276 0.060806 0.00147052 -0.00059514 0 118 117 94 255 0.141754 0.44366 
0.055537 0.206515 -0.04491 0.00147052 -0.00059514 0 118 117 94 255 0.141754 0.44366 
0.055537 0.206515 0.066165 0.00147052 -0.00059514 0 118 117 94 255 0.141754 0.44366 
-0.057562 0.153558 -0.046935 -0.00152413 0.000849961 0 147 146 118 255 0.202035 0.44366 
-0.057562 0.153558 0.068189 -0.00152413 0.000849961 0 147 146 118 255 0.202035 0.44366 
-0.050179 0.166797 0.060806 -0.00152413 0.000849961 0 147 146 118 255 0.202035 0.44366 
-0.057562 0.153558 -0.046935 -0.00132863 0.000740936 0 147 146 118 255 0.202035 0.44366 
-0.050179 0.166797 0.060806 -0.00132863 0.000740936 0 147 146 118 255 0.202035 0.44366 
-0.050179 0.166797 -0.039551 -0.00132863 0.000740936 0 147 146 118 255 0.202035 0.44366 
-0.057562 0.153558 0.068189 -0 0.000849961 0.00152413 162 160 131 255 0.232967 0.44366 
0.057562 0.153558 0.068189 -0 0.000849961 0.00152413 162 160 131 255 0.232967 0.44366 
0.050179 0.166797 0.060806 -0 0.000849961 0.00152413 162 160 131 255 0.232967 0.44366 
-0.057562 0.153558 0.068189 0 0.000740943 0.00132864 162 160 131 255 0.232967 0.44366 
0.050179 0.166797 0.060806 0 0.000740943 0.00132864 162 160 131 255 0.232967 0.44366 
-0.050179 0.166797 0.060806 0 0.000740943 0.00132864 162 160 131 255 0.232967 0.44366 
0.057562 0.153558 0.068189 0.00152413 0.000849961 0 147 146 118 255 0.202035 0.44366 
0.057562 0.153558 -0.046935 0.00152413 0.000849961 0 147 146 118 255 0.202035 0.44366 
0.050179 0.166797 -0.039551 0.00152413 0.000849961 0 147 146 118 255 0.202035 0.44366 
0.057562 0.153558 0.068189 0.00132863 0.000740936 0 147 146 118 255 0.202035 0.44366 
0.050179 0.166797 -0.039551 0.00132863 0.000740936 0 147 146 118 255 0.202035 0.44366 
0.050179 0.166797 0.060806 0.00132863 0.000740936 0 147 146 118 255 0.202035 0.44366 
-0.050179 0.166797 -0.039551 0 0.000741043 -0.00132864 162 160 131 255 0.232967 0.44366 
0.050179 0.166797 -0.039551 0 0.000741043 -0.00132864 162 160 131 255 0.232967 0.44366 
0.057562 0.153558 -0.046935 0 0.000741043 -0.00132864 162 160 131 255 0.232967 0.44366 
-0.050179 0.166797 -0.039551 0 0.000850075 -0.00152413 162 160 131 255 0.232967 0.44366 
0.057562 0.153558 -0.046935 0 0.000850075 -0.00152413 162 160 131 255 0.232967 0.44366 
-0.057562 0.153558 -0.046935 0 0.000850075 -0.00152413 162 160 131 255 0.232967 0.44366 
-0.057562 0.153558 -0.046935 -0 0.00791224 0 108 105 102 255 0.265343 0.06 
0.057562 0.153558 -0.046935 -0 0.00791224 0 108 105 102 255 0.265343 0.06 
0.095408 0.153558 -0.115663 -0 0.00791224 0 108 105 102 255 0.265343 0.06 
-0.057562 0.153558 -0.046935 0 0.0131144 0 108 105 102 255 0.265343 0.06 
0.095408 0.153558 -0.115663 0 0.0131144 0 108 105 102 255 0.265343 0.06 
-0.095408 0.153558 -0.115663 0 0.0131144 0 108 105 102 255 0.265343 0.06 
0.057562 0.153558 -0.046935 0 0.00435698 0 108 105 102 255 0.265343 0.06 
0.057562 0.153558 0.068189 0 0.00435698 0 108 105 102 255 0.265343 0.06 
0.095408 0.153558 0.136918 0 0.00435698 0 108 105 102 255 0.265343 0.06 
0.057562 0.153558 -0.046935 -0 0.00955918 0 108 105 102 255 0.265343 0.06 
0.095408 0.153558 0.136918 -0 0.00955918 0 108 105 102 255 0.265343 0.06 
0.095408 0.153558 -0.115663 -0 0.00955918 0 108 105 102 255 0.265343 0.06 
0.057562 0.153558 0.068189 0 0.00791236 0 108 105 102 255 0.265343 0.06 
-0.057562 0.153558 0.068189 0 0.00791236 0 108 105 102 255 0.265343 0.06 
-0.095408 0.153558 0.136918 0 0.00791236 0 108 105 102 255 0.265343 0.06 
0.057562 0.153558 0.068189 0 0.0131146 -0 108 105 102 255 0.265343 0.06 
-0.095408 0.153558 0.136918 0 0.0131146 -0 108 105 102 255 0.265343 0.06 
0.095408 0.153558 0.136918 0 0.0131146 -0 108 105 102 255 0.265343 0.06 
-0.057562 0.153558 0.068189 0 0.00435698 0 108 105 102 255 0.265343 0.06 
-0.057562 0.153558 -0.046935 0 0.00435698 0 108 105 102 255 0.265343 0.06 
-0.095408 0.153558 -0.115663 0 0.00435698 0 108 105 102 255 0.265343 0.06 
-0.057562 0.153558 0.068189 0 0.00955918 0 108 105 102 255 0.265343 0.06 
-0.095408 0.153558 -0.115663 0 0.00955918 0 108 105 102 255 0.265343 0.06 
-0.095408 0.153558 0.136918 0 0.00955918 0 108 105 102 255 0.265343 0.06 
-0.095408 0.153558 -0.115663 0 0 -0.0293013 91 88 86 255 0.236257 0.06 
0.095408 0.153558 -0.115663 0 0 -0.0293013 91 88 86 255 0.236257 0.06 
0.095408 0 -0.115663 0 0 -0.0293013 91 88 86 255 0.236257 0.06 
-0.095408 0.153558 -0.115663 0 0 -0.0293013 91 88 86 255 0.236257 0.06 
0.095408 0 -0.115663 0 0 -0.0293013 91 88 86 255 0.236257 0.06 
-0.095408 0 -0.115663 0 0 -0.0293013 91 88 86 255 0.236257 0.06 
0.095408 0.153558 -0.115663 0.0387858 0 -0 75 72 70 255 0.207979 0.06 
0.095408 0.153558 0.136918 0.0387858 0 -0 75 72 70 255 0.207979 0.06 
0.095408 0 0.136918 0.0387858 0 -0 75 72 70 255 0.207979 0.06 
0.095408 0.153558 -0.115663 0.0387858 0 0 75 72 70 255 0.207979 0.06 
0.095408 0 0.136918 0.0387858 0 0 75 72 70 255 0.207979 0.06 
0.095408 0 -0.115663 0.0387858 0 0 75 72 70 255 0.207979 0.06 
0.095408 0.153558 0.136918 0 0 0.0293013 91 88 86 255 0.236257 0.06 
-0.095408 0.153558 0.136918 0 0 0.0293013 91 88 86 255 0.236257 0.06 
-0.095408 0 0.136918 0 0 0.0293013 91 88 86 255 0.236257 0.06 
0.095408 0.153558 0.136918 0 0 0.0293013 91 88 86 255 0.236257 0.06 
-0.095408 0 0.136918 0 0 0.0293013 91 88 86 255 0.236257 0.06 
0.095408 0 0.136918 0 0 0.0293013 91 88 86 255 0.236257 0.06 
-0.095408 0.153558 0.136918 -0.0387858 0 -0 75 72 70 255 0.207979 0.06 
-0.095408 0.153558 -0.115663 -0.0387858 0 -0 75 72 70 255 0.207979 0.06 
-0.095408 0 -0.115663 -0.0387858 0 -0 75 72 70 255 0.207979 0.06 
-0.095408 0.153558 0.136918 -0.0387858 -0 0 75 72 70 255 0.207979 0.06 
-0.095408 0 -0.115663 -0.0387858 -0 0 75 72 70 255 0.207979 0.06 
-0.095408 0 0.136918 -0.0387858 -0 0 75 72 70 255 0.207979 0.06 
3 0 1 2
3 3 4 5
3 6 7 8
3 9 10 11
3 12 13 14
3 15 16 17
3 18 19 20
3 21 22 23
3 24 25 26
3 27 28 29
3 30 31 32
3 33 34 35
3 36 37 38
3 39 40 41
3 42 43 44
3 45 46 47
3 48 49 50
3 51 52 53
3 54 55 56
3 57 58 59
3 60 61 62
3 63 64 65
3 66 67 68
3 69 70 71
3 72 73 74
3 75 76 77
3 78 79 80
3 81 82 83
3 84 85 86
3 87 88 89
3 90 91 92
3 93 94 95
3 96 97 98
3 99 100 101
3 102 103 104
3 105 106 107
3 108 109 110
3 111 112 113
3 114 115 116
3 117 118 119
3 120 121 122
3 123 124 125
3 126 127 128
3 129 130 131
3 132 133 134
3 135 136 137
3 138 139 140
3 141 142 143
3 144 145 146
3 147 148 149
3 150 151 152
3 153 154 155
3 156 157 158
3 159 160 161
3 162 163 164
3 165 166 167
3 168 169 170
3 171 172 173
3 174 175 176
3 177 178 179
3 180 181 182
3 183 184 185
3 186 187 188
3 189 190 191
3 192 193 194
3 195 196 197
3 198 199 200
3 201 202 203
3 204 205 206
3 207 208 209
3 210 211 212
3 213 214 215
3 216 217 218
3 219 220 221
3 222 223 224
3 225 226 227
3 228 229 230
3 231 232 233
3 234 235 236
3 237 238 239
3 240 241 242
3 243 244 245
3 246 247 248
3 249 250 251
3 252 253 254
3 255 256 257
3 258 259 260
3 261 262 263
3 264 265 266
3 267 268 269
3 270 271 272
3 273 274 275
3 276 277 278
3 279 280 281
3 282 283 284
3 285 286 287
3 288 289 290
3 291 292 293
3 294 295 296
3 297 298 299
3 300 301 302
3 303 304 305
3 306 307 308
3 309 310 311
3 312 313 314
3 315 316 317
3 318 319 320
3 321 322 323
3 324 325 326
3 327 328 329
3 330 331 332
3 333 334 335
3 336 337 338
3 339 340 341
3 342 343 344
3 345 346 347
3 348 349 350
3 351 352 353
3 354 355 356
3 357 358 359
3 360 361 362
3 363 364 365
3 366 367 368
3 369 370 371
3 372 373 374
3 375 376 377
3 378 379 380
3 381 382 383
3 384 385 386
3 387 388 389
3 390 391 392
3 393 394 395
