ply
format ascii 1.0
comment Feeney's Flatenator generated
comment TextureFile SpaceInteriors_Texture.png
element vertex 30
property float x
property float y
property float z
property float nx
property float ny
property float nz
property float texture_u
property float texture_v
element face 10
property list uchar int vertex_indices
end_header
0.758219 0.151186 0.244983 0 0.743003 0 0.746282 0.37313 
0.758219 0.151186 -0.244983 0 0.743003 0 0.746282 0.45119 
-0.758219 0.151186 -0.244983 0 0.743003 0 0.505035 0.45119 
0.758219 0.151186 0.244983 0 0.743003 0 0.746282 0.37313 
-0.758219 0.151186 -0.244983 0 0.743003 0 0.505035 0.45119 
-0.758219 0.151186 0.244983 0 0.743003 0 0.505035 0.37313 
0.758219 0 -0.244983 0 0 -0.229264 0.877579 0.406055 
-0.758219 0 -0.244983 0 0 -0.229264 0.877579 0.406055 
-0.758219 0.151186 -0.244983 0 0 -0.229264 0.877579 0.406055 
0.758219 0 -0.244983 0 0 -0.229264 0.877579 0.406055 
-0.758219 0.151186 -0.244983 0 0 -0.229264 0.877579 0.406055 
0.758219 0.151186 -0.244983 0 0 -0.229264 0.877579 0.406055 
-0.758219 0 0.244983 0 0 0.229264 0.877579 0.406055 
0.758219 0 0.244983 0 0 0.229264 0.877579 0.406055 
0.758219 0.151186 0.244983 0 0 0.229264 0.877579 0.406055 
-0.758219 0 0.244983 0 0 0.229264 0.877579 0.406055 
0.758219 0.151186 0.244983 0 0 0.229264 0.877579 0.406055 
-0.758219 0.151186 0.244983 0 0 0.229264 0.877579 0.406055 
0.758219 0.151186 -0.244983 0.074076 0 -0 0.892889 0.406055 
0.758219 0.151186 0.244983 0.074076 0 -0 0.892889 0.406055 
0.758219 0 0.244983 0.074076 0 -0 0.892889 0.406055 
0.758219 0.151186 -0.244983 0.074076 0 0 0.892889 0.406055 
0.758219 0 0.244983 0.074076 0 0 0.892889 0.406055 
0.758219 0 -0.244983 0.074076 0 0 0.892889 0.406055 
-0.758219 0.151186 0.244983 -0.074076 0 -0 0.892889 0.406055 
-0.758219 0.151186 -0.244983 -0.074076 0 -0 0.892889 0.406055 
-0.758219 0 -0.244983 -0.074076 0 -0 0.892889 0.406055 
-0.758219 0.151186 0.244983 -0.074076 -0 0 0.892889 0.406055 
-0.758219 0 -0.244983 -0.074076 -0 0 0.892889 0.406055 
-0.758219 0 0.244983 -0.074076 -0 0 0.892889 0.406055 
3 0 1 2
3 3 4 5
3 6 7 8
3 9 10 11
3 12 13 14
3 15 16 17
3 18 19 20
3 21 22 23
3 24 25 26
3 27 28 29
