ply
format ascii 1.0
comment Feeney's Flatenator generated
comment TextureFile SpaceInteriors_Texture.png
element vertex 48
property float x
property float y
property float z
property float nx
property float ny
property float nz
element face 16
property list uchar int vertex_indices
end_header
-1.63282 0.999063 1.00236 0.482803 0.617945 0.482471 
-1.01714 0.522638 0.996457 0.482803 0.617945 0.482471 
0 0.519194 -0.016974 0.482803 0.617945 0.482471 
-1.63282 0.999063 1.00236 0.783923 0.999768 0.78507 
0 0.519194 -0.016974 0.783923 0.999768 0.78507 
0 1 -0.629269 0.783923 0.999768 0.78507 
-1.63282 0.999063 1.00236 -0.000347368 0.605335 0 
0 1 -0.629269 -0.000347368 0.605335 0 
0 1 -0.999999 -0.000347368 0.605335 0 
-1.63282 0.999063 1.00236 -0.00529166 0.737788 -0.00396983 
0 1 -0.999999 -0.00529166 0.737788 -0.00396983 
-2.00353 0.996419 1.00512 -0.00529166 0.737788 -0.00396983 
-2.00353 0.996419 1.00512 -2.00512 0 -2.00353 
0 1 -0.999999 -2.00512 0 -2.00353 
0 0 -0.999999 -2.00512 0 -2.00353 
-2.00353 0.996419 1.00512 -2.00228 -0.00866636 -1.99639 
0 0 -0.999999 -2.00228 -0.00866636 -1.99639 
-1.99642 -0.003551 1.00233 -2.00228 -0.00866636 -1.99639 
-1.99642 -0.003551 1.00233 0.00387818 -0.00142289 0.519179 
-0.99647 0.003581 0.99488 0.00387818 -0.00142289 0.519179 
-1.01714 0.522638 0.996457 0.00387818 -0.00142289 0.519179 
-1.99642 -0.003551 1.00233 0.00590412 -0.00216483 0.790518 
-1.01714 0.522638 0.996457 0.00590412 -0.00216483 0.790518 
-1.63282 0.999063 1.00236 0.00590412 -0.00216483 0.790518 
-1.99642 -0.003551 1.00233 0.00276735 -0.00101469 0.370718 
-1.63282 0.999063 1.00236 0.00276735 -0.00101469 0.370718 
-2.00353 0.996419 1.00512 0.00276735 -0.00101469 0.370718 
-0.99647 0.003581 0.99488 0.516596 0.0169141 0.517361 
0 0 0 0.516596 0.0169141 0.517361 
0 0.519194 -0.016974 0.516596 0.0169141 0.517361 
-0.99647 0.003581 0.99488 0.526023 0.0193437 0.527882 
0 0.519194 -0.016974 0.526023 0.0193437 0.527882 
-1.01714 0.522638 0.996457 0.526023 0.0193437 0.527882 
-1.99642 -0.003551 1.00233 0.003551 -1.99642 0 
0 0 -0.999999 0.003551 -1.99642 0 
0 0 0 0.003551 -1.99642 0 
-1.99642 -0.003551 1.00233 0.00712216 -0.987407 0.0106876 
0 0 0 0.00712216 -0.987407 0.0106876 
-0.99647 0.003581 0.99488 0.00712216 -0.987407 0.0106876 
0 0 0 0.999999 0 0 
0 0 -0.999999 0.999999 0 0 
0 1 -0.999999 0.999999 0 0 
0 0 0 0.37073 0 0 
0 1 -0.999999 0.37073 0 0 
0 1 -0.629269 0.37073 0 0 
0 0 0 0.309739 0 0 
0 1 -0.629269 0.309739 0 0 
0 0.519194 -0.016974 0.309739 0 0 
3 0 1 2
3 3 4 5
3 6 7 8
3 9 10 11
3 12 13 14
3 15 16 17
3 18 19 20
3 21 22 23
3 24 25 26
3 27 28 29
3 30 31 32
3 33 34 35
3 36 37 38
3 39 40 41
3 42 43 44
3 45 46 47
