ply
format ascii 1.0
comment Feeney's Flatenator generated
comment TextureFile SpaceInteriors_Texture.png
element vertex 498
property float x
property float y
property float z
property float nx
property float ny
property float nz
element face 166
property list uchar int vertex_indices
end_header
-0.783373 1.84723 0.221406 0 0 0.132919 
-0.693041 1.84723 0.221406 0 0 0.132919 
-0.693041 3.31868 0.221406 0 0 0.132919 
-0.783373 1.84723 0.221406 0 0 0.132919 
-0.693041 3.31868 0.221406 0 0 0.132919 
-0.783373 3.31868 0.221406 0 0 0.132919 
-0.783373 3.23027 0.135185 0 0 -0.116946 
-0.693041 3.23027 0.135185 0 0 -0.116946 
-0.693041 1.93564 0.135185 0 0 -0.116946 
-0.783373 3.23027 0.135185 0 0 -0.116946 
-0.693041 1.93564 0.135185 0 0 -0.116946 
-0.783373 1.93564 0.135185 0 0 -0.116946 
-0.693041 1.84723 0.221406 0.111624 0 0 
-0.693041 1.93564 0.135185 0.111624 0 0 
-0.693041 3.23027 0.135185 0.111624 0 0 
-0.693041 1.84723 0.221406 0.12687 -0 0 
-0.693041 3.23027 0.135185 0.12687 -0 0 
-0.693041 3.31868 0.221406 0.12687 -0 0 
-0.783373 1.93564 0.135185 -0.12687 0 0 
-0.783373 1.84723 0.221406 -0.12687 0 0 
-0.783373 3.31868 0.221406 -0.12687 0 0 
-0.783373 1.93564 0.135185 -0.111624 0 0 
-0.783373 3.31868 0.221406 -0.111624 0 0 
-0.783373 3.23027 0.135185 -0.111624 0 0 
-0.783373 3.31868 0.221406 -0 0.0202651 0 
-0.693041 3.31868 0.221406 -0 0.0202651 0 
-0.693041 3.31868 -0.002934 -0 0.0202651 0 
-0.783373 3.31868 0.221406 0 0.0202651 0 
-0.693041 3.31868 -0.002934 0 0.0202651 0 
-0.783373 3.31868 -0.002934 0 0.0202651 0 
-0.693041 3.31868 0.221406 0.0122111 0 0 
-0.693041 3.23027 0.135185 0.0122111 0 0 
-0.693041 3.23027 -0.002934 0.0122111 0 0 
-0.693041 3.31868 0.221406 0.0198339 0 0 
-0.693041 3.23027 -0.002934 0.0198339 0 0 
-0.693041 3.31868 -0.002934 0.0198339 0 0 
-0.693041 3.23027 0.135185 -0 -0.0124766 0 
-0.783373 3.23027 0.135185 -0 -0.0124766 0 
-0.783373 3.23027 -0.002934 -0 -0.0124766 0 
-0.693041 3.23027 0.135185 0 -0.0124766 -0 
-0.783373 3.23027 -0.002934 0 -0.0124766 -0 
-0.693041 3.23027 -0.002934 0 -0.0124766 -0 
-0.783373 3.23027 0.135185 -0.0198339 0 0 
-0.783373 3.31868 0.221406 -0.0198339 0 0 
-0.783373 3.31868 -0.002934 -0.0198339 0 0 
-0.783373 3.23027 0.135185 -0.0122111 0 0 
-0.783373 3.31868 -0.002934 -0.0122111 0 0 
-0.783373 3.23027 -0.002934 -0.0122111 0 0 
-0.783373 1.93564 0.135185 -0 0.0124766 0 
-0.693041 1.93564 0.135185 -0 0.0124766 0 
-0.693041 1.93564 -0.002934 -0 0.0124766 0 
-0.783373 1.93564 0.135185 0 0.0124766 0 
-0.693041 1.93564 -0.002934 0 0.0124766 0 
-0.783373 1.93564 -0.002934 0 0.0124766 0 
-0.693041 1.93564 0.135185 0.0198339 0 0 
-0.693041 1.84723 0.221406 0.0198339 0 0 
-0.693041 1.84723 -0.002934 0.0198339 0 0 
-0.693041 1.93564 0.135185 0.0122111 0 0 
-0.693041 1.84723 -0.002934 0.0122111 0 0 
-0.693041 1.93564 -0.002934 0.0122111 0 0 
-0.693041 1.84723 0.221406 -0 -0.0202651 0 
-0.783373 1.84723 0.221406 -0 -0.0202651 0 
-0.783373 1.84723 -0.002934 -0 -0.0202651 0 
-0.693041 1.84723 0.221406 0 -0.0202651 -0 
-0.783373 1.84723 -0.002934 0 -0.0202651 -0 
-0.693041 1.84723 -0.002934 0 -0.0202651 -0 
-0.783373 1.84723 0.221406 -0.0122111 0 0 
-0.783373 1.93564 0.135185 -0.0122111 0 0 
-0.783373 1.93564 -0.002934 -0.0122111 0 0 
-0.783373 1.84723 0.221406 -0.0198339 0 0 
-0.783373 1.93564 -0.002934 -0.0198339 0 0 
-0.783373 1.84723 -0.002934 -0.0198339 0 0 
-0.783373 3.31868 -0.002934 0 0 0.00257897 
-0.693041 3.31868 -0.002934 0 0 0.00257897 
-0.663868 3.34723 -0.002934 0 0 0.00257897 
-0.783373 3.31868 -0.002934 0 -0 0.00424486 
-0.663868 3.34723 -0.002934 0 -0 0.00424486 
-0.81255 3.34723 -0.002934 0 -0 0.00424486 
-0.693041 3.31868 -0.002934 0 0 0.00257919 
-0.693041 3.23027 -0.002934 0 0 0.00257919 
-0.663868 3.20172 -0.002934 0 0 0.00257919 
-0.693041 3.31868 -0.002934 -0 0 0.00424496 
-0.663868 3.20172 -0.002934 -0 0 0.00424496 
-0.663868 3.34723 -0.002934 -0 0 0.00424496 
-0.693041 3.23027 -0.002934 0 0 0.00257897 
-0.783373 3.23027 -0.002934 0 0 0.00257897 
-0.81255 3.20172 -0.002934 0 0 0.00257897 
-0.693041 3.23027 -0.002934 0 0 0.00424486 
-0.81255 3.20172 -0.002934 0 0 0.00424486 
-0.663868 3.20172 -0.002934 0 0 0.00424486 
-0.783373 3.23027 -0.002934 0 -0 0.00257954 
-0.783373 3.31868 -0.002934 0 -0 0.00257954 
-0.81255 3.34723 -0.002934 0 -0 0.00257954 
-0.783373 3.23027 -0.002934 0 0 0.00424555 
-0.81255 3.34723 -0.002934 0 0 0.00424555 
-0.81255 3.20172 -0.002934 0 0 0.00424555 
-0.783373 1.93564 -0.002934 0 0 0.00257898 
-0.693041 1.93564 -0.002934 0 0 0.00257898 
-0.663864 1.96419 -0.002934 0 0 0.00257898 
-0.783373 1.93564 -0.002934 0 -0 0.00424493 
-0.663864 1.96419 -0.002934 0 -0 0.00424493 
-0.812548 1.96419 -0.002934 0 -0 0.00424493 
-0.693041 1.93564 -0.002934 0 0 0.00257954 
-0.693041 1.84723 -0.002934 0 0 0.00257954 
-0.663864 1.81867 -0.002934 0 0 0.00257954 
-0.693041 1.93564 -0.002934 -0 0 0.00424584 
-0.663864 1.81867 -0.002934 -0 0 0.00424584 
-0.663864 1.96419 -0.002934 -0 0 0.00424584 
-0.693041 1.84723 -0.002934 0 0 0.00257987 
-0.783373 1.84723 -0.002934 0 0 0.00257987 
-0.812548 1.81867 -0.002934 0 0 0.00257987 
-0.693041 1.84723 -0.002934 0 0 0.0042464 
-0.812548 1.81867 -0.002934 0 0 0.0042464 
-0.663864 1.81867 -0.002934 0 0 0.0042464 
-0.783373 1.84723 -0.002934 0 -0 0.00257936 
-0.783373 1.93564 -0.002934 0 -0 0.00257936 
-0.812548 1.96419 -0.002934 0 -0 0.00257936 
-0.783373 1.84723 -0.002934 0 0 0.00424554 
-0.812548 1.96419 -0.002934 0 0 0.00424554 
-0.812548 1.81867 -0.002934 0 0 0.00424554 
-0.81255 3.34723 -0.002934 -0 0.00873849 0 
-0.663868 3.34723 -0.002934 -0 0.00873849 0 
-0.663868 3.34723 -0.061707 -0 0.00873849 0 
-0.81255 3.34723 -0.002934 0 0.00873849 0 
-0.663868 3.34723 -0.061707 0 0.00873849 0 
-0.81255 3.34723 -0.061707 0 0.00873849 0 
-0.663868 3.34723 -0.002934 0.00855206 0 0 
-0.663868 3.20172 -0.002934 0.00855206 0 0 
-0.663868 3.20172 -0.061707 0.00855206 0 0 
-0.663868 3.34723 -0.002934 0.00855206 0 0 
-0.663868 3.20172 -0.061707 0.00855206 0 0 
-0.663868 3.34723 -0.061707 0.00855206 0 0 
-0.663868 3.20172 -0.002934 -0 -0.00873849 0 
-0.81255 3.20172 -0.002934 -0 -0.00873849 0 
-0.81255 3.20172 -0.061707 -0 -0.00873849 0 
-0.663868 3.20172 -0.002934 0 -0.00873849 -0 
-0.81255 3.20172 -0.061707 0 -0.00873849 -0 
-0.663868 3.20172 -0.061707 0 -0.00873849 -0 
-0.81255 3.20172 -0.002934 -0.00855206 0 0 
-0.81255 3.34723 -0.002934 -0.00855206 0 0 
-0.81255 3.34723 -0.061707 -0.00855206 0 0 
-0.81255 3.20172 -0.002934 -0.00855206 0 0 
-0.81255 3.34723 -0.061707 -0.00855206 0 0 
-0.81255 3.20172 -0.061707 -0.00855206 0 0 
-0.812548 1.96419 -0.002934 -0 0.0087386 0 
-0.663864 1.96419 -0.002934 -0 0.0087386 0 
-0.663864 1.96419 -0.061707 -0 0.0087386 0 
-0.812548 1.96419 -0.002934 0 0.0087386 0 
-0.663864 1.96419 -0.061707 0 0.0087386 0 
-0.812548 1.96419 -0.061707 0 0.0087386 0 
-0.663864 1.96419 -0.002934 0.00855265 0 0 
-0.663864 1.81867 -0.002934 0.00855265 0 0 
-0.663864 1.81867 -0.061707 0.00855265 0 0 
-0.663864 1.96419 -0.002934 0.00855265 0 0 
-0.663864 1.81867 -0.061707 0.00855265 0 0 
-0.663864 1.96419 -0.061707 0.00855265 0 0 
-0.663864 1.81867 -0.002934 -0 -0.0087386 0 
-0.812548 1.81867 -0.002934 -0 -0.0087386 0 
-0.812548 1.81867 -0.061707 -0 -0.0087386 0 
-0.663864 1.81867 -0.002934 0 -0.0087386 -0 
-0.812548 1.81867 -0.061707 0 -0.0087386 -0 
-0.663864 1.81867 -0.061707 0 -0.0087386 -0 
-0.812548 1.81867 -0.002934 -0.00855265 0 0 
-0.812548 1.96419 -0.002934 -0.00855265 0 0 
-0.812548 1.96419 -0.061707 -0.00855265 0 0 
-0.812548 1.81867 -0.002934 -0.00855265 0 0 
-0.812548 1.96419 -0.061707 -0.00855265 0 0 
-0.812548 1.81867 -0.061707 -0.00855265 0 0 
0.693041 1.84723 0.221406 0 0 0.132922 
0.783375 1.84723 0.221406 0 0 0.132922 
0.783375 3.31868 0.221406 0 0 0.132922 
0.693041 1.84723 0.221406 0 0 0.132922 
0.783375 3.31868 0.221406 0 0 0.132922 
0.693041 3.31868 0.221406 0 0 0.132922 
0.693041 3.23027 0.135185 0 0 -0.116949 
0.783375 3.23027 0.135185 0 0 -0.116949 
0.783375 1.93564 0.135185 0 0 -0.116949 
0.693041 3.23027 0.135185 0 0 -0.116949 
0.783375 1.93564 0.135185 0 0 -0.116949 
0.693041 1.93564 0.135185 0 0 -0.116949 
0.783375 1.84723 0.221406 0.111624 0 0 
0.783375 1.93564 0.135185 0.111624 0 0 
0.783375 3.23027 0.135185 0.111624 0 0 
0.783375 1.84723 0.221406 0.12687 -0 0 
0.783375 3.23027 0.135185 0.12687 -0 0 
0.783375 3.31868 0.221406 0.12687 -0 0 
0.693041 1.93564 0.135185 -0.12687 0 0 
0.693041 1.84723 0.221406 -0.12687 0 0 
0.693041 3.31868 0.221406 -0.12687 0 0 
0.693041 1.93564 0.135185 -0.111624 0 0 
0.693041 3.31868 0.221406 -0.111624 0 0 
0.693041 3.23027 0.135185 -0.111624 0 0 
0.693041 3.31868 0.221406 -0 0.0202655 0 
0.783375 3.31868 0.221406 -0 0.0202655 0 
0.783375 3.31868 -0.002934 -0 0.0202655 0 
0.693041 3.31868 0.221406 0 0.0202655 0 
0.783375 3.31868 -0.002934 0 0.0202655 0 
0.693041 3.31868 -0.002934 0 0.0202655 0 
0.783375 3.31868 0.221406 0.0122111 0 0 
0.783375 3.23027 0.135185 0.0122111 0 0 
0.783375 3.23027 -0.002934 0.0122111 0 0 
0.783375 3.31868 0.221406 0.0198339 0 0 
0.783375 3.23027 -0.002934 0.0198339 0 0 
0.783375 3.31868 -0.002934 0.0198339 0 0 
0.783375 3.23027 0.135185 -0 -0.0124768 0 
0.693041 3.23027 0.135185 -0 -0.0124768 0 
0.693041 3.23027 -0.002934 -0 -0.0124768 0 
0.783375 3.23027 0.135185 0 -0.0124768 -0 
0.693041 3.23027 -0.002934 0 -0.0124768 -0 
0.783375 3.23027 -0.002934 0 -0.0124768 -0 
0.693041 3.23027 0.135185 -0.0198339 0 0 
0.693041 3.31868 0.221406 -0.0198339 0 0 
0.693041 3.31868 -0.002934 -0.0198339 0 0 
0.693041 3.23027 0.135185 -0.0122111 0 0 
0.693041 3.31868 -0.002934 -0.0122111 0 0 
0.693041 3.23027 -0.002934 -0.0122111 0 0 
0.693041 1.93564 0.135185 -0 0.0124768 0 
0.783375 1.93564 0.135185 -0 0.0124768 0 
0.783375 1.93564 -0.002934 -0 0.0124768 0 
0.693041 1.93564 0.135185 0 0.0124768 0 
0.783375 1.93564 -0.002934 0 0.0124768 0 
0.693041 1.93564 -0.002934 0 0.0124768 0 
0.783375 1.93564 0.135185 0.0198339 0 0 
0.783375 1.84723 0.221406 0.0198339 0 0 
0.783375 1.84723 -0.002934 0.0198339 0 0 
0.783375 1.93564 0.135185 0.0122111 0 0 
0.783375 1.84723 -0.002934 0.0122111 0 0 
0.783375 1.93564 -0.002934 0.0122111 0 0 
0.783375 1.84723 0.221406 -0 -0.0202655 0 
0.693041 1.84723 0.221406 -0 -0.0202655 0 
0.693041 1.84723 -0.002934 -0 -0.0202655 0 
0.783375 1.84723 0.221406 0 -0.0202655 -0 
0.693041 1.84723 -0.002934 0 -0.0202655 -0 
0.783375 1.84723 -0.002934 0 -0.0202655 -0 
0.693041 1.84723 0.221406 -0.0122111 0 0 
0.693041 1.93564 0.135185 -0.0122111 0 0 
0.693041 1.93564 -0.002934 -0.0122111 0 0 
0.693041 1.84723 0.221406 -0.0198339 0 0 
0.693041 1.93564 -0.002934 -0.0198339 0 0 
0.693041 1.84723 -0.002934 -0.0198339 0 0 
0.693041 3.31868 -0.002934 0 0 0.00257903 
0.783375 3.31868 -0.002934 0 0 0.00257903 
0.812546 3.34723 -0.002934 0 0 0.00257903 
0.693041 3.31868 -0.002934 0 -0 0.0042448 
0.812546 3.34723 -0.002934 0 -0 0.0042448 
0.663866 3.34723 -0.002934 0 -0 0.0042448 
0.783375 3.31868 -0.002934 0 0 0.00257901 
0.783375 3.23027 -0.002934 0 0 0.00257901 
0.812546 3.20172 -0.002934 0 0 0.00257901 
0.783375 3.31868 -0.002934 -0 0 0.00424467 
0.812546 3.20172 -0.002934 -0 0 0.00424467 
0.812546 3.34723 -0.002934 -0 0 0.00424467 
0.783375 3.23027 -0.002934 0 0 0.00257903 
0.693041 3.23027 -0.002934 0 0 0.00257903 
0.663866 3.20172 -0.002934 0 0 0.00257903 
0.783375 3.23027 -0.002934 0 0 0.0042448 
0.663866 3.20172 -0.002934 0 0 0.0042448 
0.812546 3.20172 -0.002934 0 0 0.0042448 
0.693041 3.23027 -0.002934 0 -0 0.00257937 
0.693041 3.31868 -0.002934 0 -0 0.00257937 
0.663866 3.34723 -0.002934 0 -0 0.00257937 
0.693041 3.23027 -0.002934 0 0 0.00424526 
0.663866 3.34723 -0.002934 0 0 0.00424526 
0.663866 3.20172 -0.002934 0 0 0.00424526 
0.693041 1.93564 -0.002934 0 0 0.00257904 
0.783375 1.93564 -0.002934 0 0 0.00257904 
0.81255 1.96419 -0.002934 0 0 0.00257904 
0.693041 1.93564 -0.002934 0 -0 0.00424488 
0.81255 1.96419 -0.002934 0 -0 0.00424488 
0.663868 1.96419 -0.002934 0 -0 0.00424488 
0.783375 1.93564 -0.002934 0 0 0.00257936 
0.783375 1.84723 -0.002934 0 0 0.00257936 
0.81255 1.81867 -0.002934 0 0 0.00257936 
0.783375 1.93564 -0.002934 -0 0 0.00424554 
0.81255 1.81867 -0.002934 -0 0 0.00424554 
0.81255 1.96419 -0.002934 -0 0 0.00424554 
0.783375 1.84723 -0.002934 0 0 0.00257993 
0.693041 1.84723 -0.002934 0 0 0.00257993 
0.663868 1.81867 -0.002934 0 0 0.00257993 
0.783375 1.84723 -0.002934 0 0 0.00424635 
0.663868 1.81867 -0.002934 0 0 0.00424635 
0.81255 1.81867 -0.002934 0 0 0.00424635 
0.693041 1.84723 -0.002934 0 -0 0.00257919 
0.693041 1.93564 -0.002934 0 -0 0.00257919 
0.663868 1.96419 -0.002934 0 -0 0.00257919 
0.693041 1.84723 -0.002934 0 0 0.00424526 
0.663868 1.96419 -0.002934 0 0 0.00424526 
0.663868 1.81867 -0.002934 0 0 0.00424526 
0.663866 3.34723 -0.002934 -0 0.00873837 0 
0.812546 3.34723 -0.002934 -0 0.00873837 0 
0.812546 3.34723 -0.061707 -0 0.00873837 0 
0.663866 3.34723 -0.002934 0 0.00873837 0 
0.812546 3.34723 -0.061707 0 0.00873837 0 
0.663866 3.34723 -0.061707 0 0.00873837 0 
0.812546 3.34723 -0.002934 0.00855206 0 0 
0.812546 3.20172 -0.002934 0.00855206 0 0 
0.812546 3.20172 -0.061707 0.00855206 0 0 
0.812546 3.34723 -0.002934 0.00855206 0 0 
0.812546 3.20172 -0.061707 0.00855206 0 0 
0.812546 3.34723 -0.061707 0.00855206 0 0 
0.812546 3.20172 -0.002934 -0 -0.00873837 0 
0.663866 3.20172 -0.002934 -0 -0.00873837 0 
0.663866 3.20172 -0.061707 -0 -0.00873837 0 
0.812546 3.20172 -0.002934 0 -0.00873837 -0 
0.663866 3.20172 -0.061707 0 -0.00873837 -0 
0.812546 3.20172 -0.061707 0 -0.00873837 -0 
0.663866 3.20172 -0.002934 -0.00855206 0 0 
0.663866 3.34723 -0.002934 -0.00855206 0 0 
0.663866 3.34723 -0.061707 -0.00855206 0 0 
0.663866 3.20172 -0.002934 -0.00855206 0 0 
0.663866 3.34723 -0.061707 -0.00855206 0 0 
0.663866 3.20172 -0.061707 -0.00855206 0 0 
0.663868 1.96419 -0.002934 -0 0.00873849 0 
0.81255 1.96419 -0.002934 -0 0.00873849 0 
0.81255 1.96419 -0.061707 -0 0.00873849 0 
0.663868 1.96419 -0.002934 0 0.00873849 0 
0.81255 1.96419 -0.061707 0 0.00873849 0 
0.663868 1.96419 -0.061707 0 0.00873849 0 
0.81255 1.96419 -0.002934 0.00855265 0 0 
0.81255 1.81867 -0.002934 0.00855265 0 0 
0.81255 1.81867 -0.061707 0.00855265 0 0 
0.81255 1.96419 -0.002934 0.00855265 0 0 
0.81255 1.81867 -0.061707 0.00855265 0 0 
0.81255 1.96419 -0.061707 0.00855265 0 0 
0.81255 1.81867 -0.002934 -0 -0.00873849 0 
0.663868 1.81867 -0.002934 -0 -0.00873849 0 
0.663868 1.81867 -0.061707 -0 -0.00873849 0 
0.81255 1.81867 -0.002934 0 -0.00873849 -0 
0.663868 1.81867 -0.061707 0 -0.00873849 -0 
0.81255 1.81867 -0.061707 0 -0.00873849 -0 
0.663868 1.81867 -0.002934 -0.00855265 0 0 
0.663868 1.96419 -0.002934 -0.00855265 0 0 
0.663868 1.96419 -0.061707 -0.00855265 0 0 
0.663868 1.81867 -0.002934 -0.00855265 0 0 
0.663868 1.96419 -0.061707 -0.00855265 0 0 
0.663868 1.81867 -0.061707 -0.00855265 0 0 
-0.498825 2.43561 0.491915 -0 0.432657 0.583614 
0.498823 2.43561 0.491915 -0 0.432657 0.583614 
0.498823 3.0206 0.058238 -0 0.432657 0.583614 
-0.498825 2.43561 0.491915 0 0.432657 0.583614 
0.498823 3.0206 0.058238 0 0.432657 0.583614 
-0.498825 3.0206 0.058238 0 0.432657 0.583614 
-0.894236 3.4186 -0.061707 0 0 0 
0 3.4186 -0.061707 0 0 0 
0.894236 3.4186 -0.061707 0 0 0 
-0.894236 3.4186 -0.061707 -0 0.285619 0 
0.894236 3.4186 -0.061707 -0 0.285619 0 
0.894236 3.4186 -0.221407 -0 0.285619 0 
-0.894236 3.4186 -0.061707 0 0.285619 0 
0.894236 3.4186 -0.221407 0 0.285619 0 
-0.894236 3.4186 -0.221407 0 0.285619 0 
-0.894236 3.4186 -0.221407 0 0 -6.11407 
0.894236 3.4186 -0.221407 0 0 -6.11407 
0.894236 0 -0.221407 0 0 -6.11407 
-0.894236 3.4186 -0.221407 0 0 -6.11407 
0.894236 0 -0.221407 0 0 -6.11407 
-0.894236 0 -0.221407 0 0 -6.11407 
-0.894236 0 -0.221407 0 -0.285619 0 
0.894236 0 -0.221407 0 -0.285619 0 
0.894236 0 -0.061707 0 -0.285619 0 
-0.894236 0 -0.221407 0 -0.285619 0 
0.894236 0 -0.061707 0 -0.285619 0 
-0.894236 0 -0.061707 0 -0.285619 0 
0.894236 0 -0.061707 0.54595 0 0 
0.894236 0 -0.221407 0.54595 0 0 
0.894236 3.4186 -0.221407 0.54595 0 0 
0.894236 0 -0.061707 0.54595 -0 0 
0.894236 3.4186 -0.221407 0.54595 -0 0 
0.894236 3.4186 -0.061707 0.54595 -0 0 
-0.894236 0 -0.221407 -0.54595 0 0 
-0.894236 0 -0.061707 -0.54595 0 0 
-0.894236 3.4186 -0.061707 -0.54595 0 0 
-0.894236 0 -0.221407 -0.54595 0 0 
-0.894236 3.4186 -0.061707 -0.54595 0 0 
-0.894236 3.4186 -0.221407 -0.54595 0 0 
-0.894236 0 -0.061707 0 0 0.39397 
0.894236 0 -0.061707 0 0 0.39397 
0.571283 0.220283 -0.061707 0 0 0.39397 
-0.894236 0 -0.061707 0 0 0.251688 
0.571283 0.220283 -0.061707 0 0 0.251688 
-0.571285 0.220283 -0.061707 0 0 0.251688 
0.894236 0 -0.061707 0 -0 1.10405 
0.894236 3.4186 -0.061707 0 -0 1.10405 
0.571283 3.08644 -0.061707 0 -0 1.10405 
0.894236 0 -0.061707 0 0 0.925634 
0.571283 3.08644 -0.061707 0 0 0.925634 
0.571283 0.220283 -0.061707 0 0 0.925634 
0.894236 3.4186 -0.061707 0 0 0 
0 3.4186 -0.061707 0 0 0 
-0.894236 3.4186 -0.061707 0 0 0 
0.894236 3.4186 -0.061707 0 0 0.594059 
-0.894236 3.4186 -0.061707 0 0 0.594059 
-0.571285 3.08644 -0.061707 0 0 0.594059 
0.894236 3.4186 -0.061707 0 0 0.379515 
-0.571285 3.08644 -0.061707 0 0 0.379515 
0.571283 3.08644 -0.061707 0 0 0.379515 
-0.894236 3.4186 -0.061707 0 0 1.10404 
-0.894236 0 -0.061707 0 0 1.10404 
-0.571285 0.220283 -0.061707 0 0 1.10404 
-0.894236 3.4186 -0.061707 0 0 0.925628 
-0.571285 0.220283 -0.061707 0 0 0.925628 
-0.571285 3.08644 -0.061707 0 0 0.925628 
-0.571285 0.220283 -0.061707 0 -0.632551 0 
0.571283 0.220283 -0.061707 0 -0.632551 0 
0.571283 0.220283 0.491915 0 -0.632551 0 
-0.571285 0.220283 -0.061707 0 -0.632551 0 
0.571283 0.220283 0.491915 0 -0.632551 0 
-0.571285 0.220283 0.491915 0 -0.632551 0 
0.571283 0.220283 -0.061707 0.343781 0 0 
0.571283 3.08644 -0.061707 0.343781 0 0 
0.571283 3.08644 0.058238 0.343781 0 0 
0.571283 0.220283 -0.061707 1.32895 0 0 
0.571283 3.08644 0.058238 1.32895 0 0 
0.571283 2.36977 0.491915 1.32895 0 0 
0.571283 0.220283 -0.061707 1.19 0 0 
0.571283 2.36977 0.491915 1.19 0 0 
0.571283 0.220283 0.491915 1.19 0 0 
0.571283 3.08644 -0.061707 0 0.137045 0 
-0.571285 3.08644 -0.061707 0 0.137045 0 
-0.571285 3.08644 0.058238 0 0.137045 0 
0.571283 3.08644 -0.061707 0 0.137045 -0 
-0.571285 3.08644 0.058238 0 0.137045 -0 
0.571283 3.08644 0.058238 0 0.137045 -0 
-0.571285 3.08644 -0.061707 -1.58677 0 0 
-0.571285 0.220283 -0.061707 -1.58677 0 0 
-0.571285 0.220283 0.491915 -1.58677 0 0 
-0.571285 3.08644 -0.061707 -1.19 0 0 
-0.571285 0.220283 0.491915 -1.19 0 0 
-0.571285 2.36977 0.491915 -1.19 0 0 
-0.571285 3.08644 -0.061707 -0.085961 0 0 
-0.571285 2.36977 0.491915 -0.085961 0 0 
-0.571285 3.08644 0.058238 -0.085961 0 0 
0.057127 2.20266 0.896307 0.634208 0 0.806351 
0.057127 0.634359 0.896307 0.634208 0 0.806351 
0.571283 0.220283 0.491915 0.634208 0 0.806351 
0.057127 2.20266 0.896307 0.869235 0 1.10517 
0.571283 0.220283 0.491915 0.869235 0 1.10517 
0.571283 2.36977 0.491915 0.869235 0 1.10517 
-0.057129 0.634359 0.896307 0 0 0.179188 
0.057127 0.634359 0.896307 0 0 0.179188 
0.057127 2.20266 0.896307 0 0 0.179188 
-0.057129 0.634359 0.896307 0 0 0.179188 
0.057127 2.20266 0.896307 0 0 0.179188 
-0.057129 2.20266 0.896307 0 0 0.179188 
-0.571285 0.220283 0.491915 -0.634208 0 0.806351 
-0.057129 0.634359 0.896307 -0.634208 0 0.806351 
-0.057129 2.20266 0.896307 -0.634208 0 0.806351 
-0.571285 0.220283 0.491915 -0.869235 0 1.10517 
-0.057129 2.20266 0.896307 -0.869235 0 1.10517 
-0.571285 2.36977 0.491915 -0.869235 0 1.10517 
-0.571285 2.36977 0.491915 -0.012683 0.0458276 0.0350633 
-0.057129 2.20266 0.896307 -0.012683 0.0458276 0.0350633 
-0.049881 2.2685 0.812876 -0.012683 0.0458276 0.0350633 
-0.571285 2.36977 0.491915 -0.0211321 0.0232568 0.0416673 
-0.049881 2.2685 0.812876 -0.0211321 0.0232568 0.0416673 
-0.498825 2.43561 0.491915 -0.0211321 0.0232568 0.0416673 
-0.049881 2.2685 0.812876 0 0.00953249 0.00752262 
-0.057129 2.20266 0.896307 0 0.00953249 0.00752262 
0.057127 2.20266 0.896307 0 0.00953249 0.00752262 
-0.049881 2.2685 0.812876 -0 0.00832291 0.00656807 
0.057127 2.20266 0.896307 -0 0.00832291 0.00656807 
0.049877 2.2685 0.812876 -0 0.00832291 0.00656807 
0.057127 2.20266 0.896307 0.0266252 0.0293022 0.0459608 
0.571283 2.36977 0.491915 0.0266252 0.0293022 0.0459608 
0.498823 2.43561 0.491915 0.0266252 0.0293022 0.0459608 
0.057127 2.20266 0.896307 0.00718992 0.039783 0.0307702 
0.498823 2.43561 0.491915 0.00718992 0.039783 0.0307702 
0.049877 2.2685 0.812876 0.00718992 0.039783 0.0307702 
0.571283 2.36977 0.491915 -0.0285533 0.0314242 0.0519299 
0.571283 3.08644 0.058238 -0.0285533 0.0314242 0.0519299 
0.498823 3.0206 0.058238 -0.0285533 0.0314242 0.0519299 
0.571283 2.36977 0.491915 0.0285533 0.0314242 0.0423884 
0.498823 3.0206 0.058238 0.0285533 0.0314242 0.0423884 
0.498823 2.43561 0.491915 0.0285533 0.0314242 0.0423884 
0.571283 3.08644 0.058238 0 0 0.0752267 
-0.571285 3.08644 0.058238 0 0 0.0752267 
-0.498825 3.0206 0.058238 0 0 0.0752267 
0.571283 3.08644 0.058238 0 0 0.0656852 
-0.498825 3.0206 0.058238 0 0 0.0656852 
0.498823 3.0206 0.058238 0 0 0.0656852 
-0.571285 3.08644 0.058238 -0.0285533 0.0314242 0.0519299 
-0.571285 2.36977 0.491915 -0.0285533 0.0314242 0.0519299 
-0.498825 2.43561 0.491915 -0.0285533 0.0314242 0.0519299 
-0.571285 3.08644 0.058238 0.0285533 0.0314242 0.0423884 
-0.498825 2.43561 0.491915 0.0285533 0.0314242 0.0423884 
-0.498825 3.0206 0.058238 0.0285533 0.0314242 0.0423884 
0.571283 0.220283 0.491915 0 -0.0462042 0.0473107 
0.057127 0.634359 0.896307 0 -0.0462042 0.0473107 
-0.057129 0.634359 0.896307 0 -0.0462042 0.0473107 
0.571283 0.220283 0.491915 0 -0.462045 0.47311 
-0.057129 0.634359 0.896307 0 -0.462045 0.47311 
-0.571285 0.220283 0.491915 0 -0.462045 0.47311 
-0.498825 2.43561 0.491915 0 0.0320184 0.0166706 
-0.049881 2.2685 0.812876 0 0.0320184 0.0166706 
0.049877 2.2685 0.812876 0 0.0320184 0.0166706 
-0.498825 2.43561 0.491915 -0 0.320206 0.166717 
0.049877 2.2685 0.812876 -0 0.320206 0.166717 
0.498823 2.43561 0.491915 -0 0.320206 0.166717 
3 0 1 2
3 3 4 5
3 6 7 8
3 9 10 11
3 12 13 14
3 15 16 17
3 18 19 20
3 21 22 23
3 24 25 26
3 27 28 29
3 30 31 32
3 33 34 35
3 36 37 38
3 39 40 41
3 42 43 44
3 45 46 47
3 48 49 50
3 51 52 53
3 54 55 56
3 57 58 59
3 60 61 62
3 63 64 65
3 66 67 68
3 69 70 71
3 72 73 74
3 75 76 77
3 78 79 80
3 81 82 83
3 84 85 86
3 87 88 89
3 90 91 92
3 93 94 95
3 96 97 98
3 99 100 101
3 102 103 104
3 105 106 107
3 108 109 110
3 111 112 113
3 114 115 116
3 117 118 119
3 120 121 122
3 123 124 125
3 126 127 128
3 129 130 131
3 132 133 134
3 135 136 137
3 138 139 140
3 141 142 143
3 144 145 146
3 147 148 149
3 150 151 152
3 153 154 155
3 156 157 158
3 159 160 161
3 162 163 164
3 165 166 167
3 168 169 170
3 171 172 173
3 174 175 176
3 177 178 179
3 180 181 182
3 183 184 185
3 186 187 188
3 189 190 191
3 192 193 194
3 195 196 197
3 198 199 200
3 201 202 203
3 204 205 206
3 207 208 209
3 210 211 212
3 213 214 215
3 216 217 218
3 219 220 221
3 222 223 224
3 225 226 227
3 228 229 230
3 231 232 233
3 234 235 236
3 237 238 239
3 240 241 242
3 243 244 245
3 246 247 248
3 249 250 251
3 252 253 254
3 255 256 257
3 258 259 260
3 261 262 263
3 264 265 266
3 267 268 269
3 270 271 272
3 273 274 275
3 276 277 278
3 279 280 281
3 282 283 284
3 285 286 287
3 288 289 290
3 291 292 293
3 294 295 296
3 297 298 299
3 300 301 302
3 303 304 305
3 306 307 308
3 309 310 311
3 312 313 314
3 315 316 317
3 318 319 320
3 321 322 323
3 324 325 326
3 327 328 329
3 330 331 332
3 333 334 335
3 336 337 338
3 339 340 341
3 342 343 344
3 345 346 347
3 348 349 350
3 351 352 353
3 354 355 356
3 357 358 359
3 360 361 362
3 363 364 365
3 366 367 368
3 369 370 371
3 372 373 374
3 375 376 377
3 378 379 380
3 381 382 383
3 384 385 386
3 387 388 389
3 390 391 392
3 393 394 395
3 396 397 398
3 399 400 401
3 402 403 404
3 405 406 407
3 408 409 410
3 411 412 413
3 414 415 416
3 417 418 419
3 420 421 422
3 423 424 425
3 426 427 428
3 429 430 431
3 432 433 434
3 435 436 437
3 438 439 440
3 441 442 443
3 444 445 446
3 447 448 449
3 450 451 452
3 453 454 455
3 456 457 458
3 459 460 461
3 462 463 464
3 465 466 467
3 468 469 470
3 471 472 473
3 474 475 476
3 477 478 479
3 480 481 482
3 483 484 485
3 486 487 488
3 489 490 491
3 492 493 494
3 495 496 497
