ply
format ascii 1.0
comment Feeney's Flatenator generated
comment TextureFile SpaceInteriors_Texture.png
element vertex 90
property float x
property float y
property float z
property float nx
property float ny
property float nz
property float texture_u
property float texture_v
element face 30
property list uchar int vertex_indices
end_header
1 0 0.099625 0.498125 0 0 0.361595 0.061667 
1 0 0 0.498125 0 0 0.361595 0.061667 
1 5 0 0.498125 0 0 0.361595 0.061667 
1 0 0.099625 0.498125 -0 0 0.361595 0.061667 
1 5 0 0.498125 -0 0 0.361595 0.061667 
1 5 0.099625 0.498125 -0 0 0.361595 0.061667 
0.074493 5 0 0 0.0654336 0 0.29916 0.086662 
0.074493 5 0.076889 0 0.0654336 0 0.29916 0.086662 
0.925507 5 0.076889 0 0.0654336 0 0.29916 0.086662 
0.074493 5 0 0 0.0654336 0 0.29916 0.086662 
0.925507 5 0.076889 0 0.0654336 0 0.29916 0.086662 
0.925507 5 0 0 0.0654336 0 0.29916 0.086662 
0 5 0.099625 -0.498125 0 -0 0.361595 0.061667 
0 5 0 -0.498125 0 -0 0.361595 0.061667 
0 0 0 -0.498125 0 -0 0.361595 0.061667 
0 5 0.099625 -0.498125 -0 0 0.361595 0.061667 
0 0 0 -0.498125 -0 0 0.361595 0.061667 
0 0 0.099625 -0.498125 -0 0 0.361595 0.061667 
0.074493 0 0.076889 0 -0.0654336 0 0.199275 0.086662 
0.074493 0 0 0 -0.0654336 0 0.199275 0.086662 
0.925507 0 0 0 -0.0654336 0 0.199275 0.086662 
0.074493 0 0.076889 0 -0.0654336 0 0.199275 0.086662 
0.925507 0 0 0 -0.0654336 0 0.199275 0.086662 
0.925507 0 0.076889 0 -0.0654336 0 0.199275 0.086662 
0.074493 5 0.076889 0 0 4.25507 0.577337 0.504958 
0.074493 0 0.076889 0 0 4.25507 0.577337 0.502072 
0.925507 0 0.076889 0 0 4.25507 0.645541 0.502072 
0.074493 5 0.076889 -0 0 4.25507 0.577337 0.504958 
0.925507 0 0.076889 -0 0 4.25507 0.645541 0.502072 
0.925507 5 0.076889 -0 0 4.25507 0.645541 0.504958 
0.925507 5 0.099625 0 0 0.372465 0.329556 0.061667 
0.925507 0 0.099625 0 0 0.372465 0.329556 0.061667 
1 0 0.099625 0 0 0.372465 0.329556 0.061667 
0.925507 5 0.099625 -0 0 0.372465 0.329556 0.061667 
1 0 0.099625 -0 0 0.372465 0.329556 0.061667 
1 5 0.099625 -0 0 0.372465 0.329556 0.061667 
0 0 0.099625 0 0 0.372465 0.329556 0.061667 
0.074493 0 0.099625 0 0 0.372465 0.329556 0.061667 
0.074493 5 0.099625 0 0 0.372465 0.329556 0.061667 
0 0 0.099625 0 0 0.372465 0.329556 0.061667 
0.074493 5 0.099625 0 0 0.372465 0.329556 0.061667 
0 5 0.099625 0 0 0.372465 0.329556 0.061667 
0 5 0.099625 -0 0.00169367 0 0.39646 0.061667 
0.074493 5 0.099625 -0 0.00169367 0 0.39646 0.061667 
0.074493 5 0.076889 -0 0.00169367 0 0.39646 0.061667 
0 5 0.099625 0 0.00572769 0 0.39646 0.061667 
0.074493 5 0.076889 0 0.00572769 0 0.39646 0.061667 
0.074493 5 0 0 0.00572769 0 0.39646 0.061667 
0 5 0.099625 0 0.00742137 0 0.39646 0.061667 
0.074493 5 0 0 0.00742137 0 0.39646 0.061667 
0 5 0 0 0.00742137 0 0.39646 0.061667 
0.074493 0 0.076889 0 -0.00169367 0 0.296575 0.061667 
0.074493 0 0.099625 0 -0.00169367 0 0.296575 0.061667 
0 0 0.099625 0 -0.00169367 0 0.296575 0.061667 
0.074493 0 0.076889 -0 -0.00742136 0 0.296575 0.061667 
0 0 0.099625 -0 -0.00742136 0 0.296575 0.061667 
0 0 0 -0 -0.00742136 0 0.296575 0.061667 
0.074493 0 0.076889 0 -0.00572769 -0 0.296575 0.061667 
0 0 0 0 -0.00572769 -0 0.296575 0.061667 
0.074493 0 0 0 -0.00572769 -0 0.296575 0.061667 
0.074493 5 0.099625 0.11368 0 0 0.269081 0.061667 
0.074493 0 0.099625 0.11368 0 0 0.269081 0.061667 
0.074493 0 0.076889 0.11368 0 0 0.269081 0.061667 
0.074493 5 0.099625 0.11368 0 0 0.269081 0.061667 
0.074493 0 0.076889 0.11368 0 0 0.269081 0.061667 
0.074493 5 0.076889 0.11368 0 0 0.269081 0.061667 
0.925507 5 0.076889 0 0.00169367 0 0.39646 0.061667 
0.925507 5 0.099625 0 0.00169367 0 0.39646 0.061667 
1 5 0.099625 0 0.00169367 0 0.39646 0.061667 
0.925507 5 0.076889 -0 0.00742136 0 0.39646 0.061667 
1 5 0.099625 -0 0.00742136 0 0.39646 0.061667 
1 5 0 -0 0.00742136 0 0.39646 0.061667 
0.925507 5 0.076889 0 0.00572769 0 0.39646 0.061667 
1 5 0 0 0.00572769 0 0.39646 0.061667 
0.925507 5 0 0 0.00572769 0 0.39646 0.061667 
1 0 0.099625 -0 -0.00169367 0 0.296575 0.061667 
0.925507 0 0.099625 -0 -0.00169367 0 0.296575 0.061667 
0.925507 0 0.076889 -0 -0.00169367 0 0.296575 0.061667 
1 0 0.099625 0 -0.00572769 0 0.296575 0.061667 
0.925507 0 0.076889 0 -0.00572769 0 0.296575 0.061667 
0.925507 0 0 0 -0.00572769 0 0.296575 0.061667 
1 0 0.099625 0 -0.00742136 -0 0.296575 0.061667 
0.925507 0 0 0 -0.00742136 -0 0.296575 0.061667 
1 0 0 0 -0.00742136 -0 0.296575 0.061667 
0.925507 0 0.099625 -0.11368 0 0 0.269081 0.061667 
0.925507 5 0.099625 -0.11368 0 0 0.269081 0.061667 
0.925507 5 0.076889 -0.11368 0 0 0.269081 0.061667 
0.925507 0 0.099625 -0.11368 0 0 0.269081 0.061667 
0.925507 5 0.076889 -0.11368 0 0 0.269081 0.061667 
0.925507 0 0.076889 -0.11368 0 0 0.269081 0.061667 
3 0 1 2
3 3 4 5
3 6 7 8
3 9 10 11
3 12 13 14
3 15 16 17
3 18 19 20
3 21 22 23
3 24 25 26
3 27 28 29
3 30 31 32
3 33 34 35
3 36 37 38
3 39 40 41
3 42 43 44
3 45 46 47
3 48 49 50
3 51 52 53
3 54 55 56
3 57 58 59
3 60 61 62
3 63 64 65
3 66 67 68
3 69 70 71
3 72 73 74
3 75 76 77
3 78 79 80
3 81 82 83
3 84 85 86
3 87 88 89
