ply
format ascii 1.0
comment Feeney's Flatenator generated
comment TextureFile SpaceInteriors_Texture.png
element vertex 192
property float x
property float y
property float z
property float nx
property float ny
property float nz
property uchar red
property uchar green
property uchar blue
property uchar alpha
property float texture_u
property float texture_v
element face 64
property list uchar int vertex_indices
end_header
-0.299468 1 -0.181151 -0.181151 0 0.049911 91 88 86 255 0.235244 0.062866 
-0.299468 0 -0.181151 -0.181151 0 0.049911 91 88 86 255 0.235244 0.062866 
-0.249557 0 0 -0.181151 0 0.049911 91 88 86 255 0.235244 0.062866 
-0.299468 1 -0.181151 -0.181151 0 0.049911 91 88 86 255 0.235244 0.062866 
-0.249557 0 0 -0.181151 0 0.049911 91 88 86 255 0.235244 0.062866 
-0.249557 1 0 -0.181151 0 0.049911 91 88 86 255 0.235244 0.062866 
-0.723071 1.08932 -0.326961 -0 0.266696 0 108 105 102 255 0.80983 0.702144 
-0.275157 1.08932 -0.326961 -0 0.266696 0 108 105 102 255 0.932625 0.702144 
-0.055752 1.08932 -0.92238 -0 0.266696 0 108 105 102 255 0.992775 0.874225 
-0.723071 1.08932 -0.326961 0 0.527972 0 108 105 102 255 0.80983 0.702144 
-0.055752 1.08932 -0.92238 0 0.527972 0 108 105 102 255 0.992775 0.874225 
-0.942475 1.08932 -0.92238 0 0.527972 0 108 105 102 255 0.74968 0.874225 
0 0 0 1 0 0 91 88 86 255 0.233113 0.062866 
0 0 -1 1 0 0 91 88 86 255 0.233113 0.062866 
0 1 -1 1 0 0 91 88 86 255 0.233113 0.062866 
0 0 0 1 -0 0 91 88 86 255 0.233113 0.062866 
0 1 -1 1 -0 0 91 88 86 255 0.233113 0.062866 
0 1 0 1 -0 0 91 88 86 255 0.233113 0.062866 
-1 0 -1 -1 0 0 91 88 86 255 0.233113 0.062866 
-1 0 0 -1 0 0 91 88 86 255 0.233113 0.062866 
-1 1 0 -1 0 0 91 88 86 255 0.233113 0.062866 
-1 0 -1 -1 0 0 91 88 86 255 0.233113 0.062866 
-1 1 0 -1 0 0 91 88 86 255 0.233113 0.062866 
-1 1 -1 -1 0 0 91 88 86 255 0.233113 0.062866 
-0.797518 1.08932 -0.088178 0 0.0532444 0 108 105 102 255 0.808095 0.788499 
-0.723071 1.08932 -0.326961 0 0.0532444 0 108 105 102 255 0.808095 0.788499 
-0.942475 1.08932 -0.338438 0 0.0532444 0 108 105 102 255 0.808095 0.788499 
-0.797518 1.08932 -0.088178 0 0.0362769 0 108 105 102 255 0.808095 0.788499 
-0.942475 1.08932 -0.338438 0 0.0362769 0 108 105 102 255 0.808095 0.788499 
-0.942475 1.08932 -0.088178 0 0.0362769 0 108 105 102 255 0.808095 0.788499 
-0.74867 1 0 0.181151 0 0.049912 91 88 86 255 0.235244 0.062866 
-0.74867 0 0 0.181151 0 0.049912 91 88 86 255 0.235244 0.062866 
-0.698758 0 -0.181151 0.181151 0 0.049912 91 88 86 255 0.235244 0.062866 
-0.74867 1 0 0.181151 0 0.049912 91 88 86 255 0.235244 0.062866 
-0.698758 0 -0.181151 0.181151 0 0.049912 91 88 86 255 0.235244 0.062866 
-0.698758 1 -0.181151 0.181151 0 0.049912 91 88 86 255 0.235244 0.062866 
-1 0 0 0 0 0.25133 108 105 102 255 0.264046 0.062866 
-0.74867 0 0 0 0 0.25133 108 105 102 255 0.264046 0.062866 
-0.74867 1 0 0 0 0.25133 108 105 102 255 0.264046 0.062866 
-1 0 0 0 0 0.25133 108 105 102 255 0.264046 0.062866 
-0.74867 1 0 0 0 0.25133 108 105 102 255 0.264046 0.062866 
-1 1 0 0 0 0.25133 108 105 102 255 0.264046 0.062866 
-0.249557 1 0 0 0 0.249557 108 105 102 255 0.264046 0.062866 
-0.249557 0 0 0 0 0.249557 108 105 102 255 0.264046 0.062866 
0 0 0 0 0 0.249557 108 105 102 255 0.264046 0.062866 
-0.249557 1 0 -0 0 0.249557 108 105 102 255 0.264046 0.062866 
0 0 0 -0 0 0.249557 108 105 102 255 0.264046 0.062866 
0 1 0 -0 0 0.249557 108 105 102 255 0.264046 0.062866 
-0.299468 0 -0.181151 0 -0 0.39929 108 105 102 255 0.264046 0.062866 
-0.299468 1 -0.181151 0 -0 0.39929 108 105 102 255 0.264046 0.062866 
-0.698758 1 -0.181151 0 -0 0.39929 108 105 102 255 0.264046 0.062866 
-0.299468 0 -0.181151 0 0 0.39929 108 105 102 255 0.264046 0.062866 
-0.698758 1 -0.181151 0 0 0.39929 108 105 102 255 0.264046 0.062866 
-0.698758 0 -0.181151 0 0 0.39929 108 105 102 255 0.264046 0.062866 
-1 0 -1 0 0 -1 108 105 102 255 0.264046 0.062866 
-1 1 -1 0 0 -1 108 105 102 255 0.264046 0.062866 
0 1 -1 0 0 -1 108 105 102 255 0.264046 0.062866 
-1 0 -1 0 0 -1 108 105 102 255 0.264046 0.062866 
0 1 -1 0 0 -1 108 105 102 255 0.264046 0.062866 
0 0 -1 0 0 -1 108 105 102 255 0.264046 0.062866 
-0.299468 1 -0.181151 0 0.0132497 0 125 121 118 255 0.292982 0.062866 
-0.249557 1 0 0 0.0132497 0 125 121 118 255 0.292982 0.062866 
-0.20071 1 -0.088178 0 0.0132497 0 125 121 118 255 0.292982 0.062866 
-0.299468 1 -0.181151 -0 0.0166602 0 125 121 118 255 0.292982 0.062866 
-0.20071 1 -0.088178 -0 0.0166602 0 125 121 118 255 0.292982 0.062866 
-0.275157 1 -0.326961 -0 0.0166602 0 125 121 118 255 0.292982 0.062866 
-0.74867 1 0 0 0.011682 0 125 121 118 255 0.292982 0.062866 
-0.698758 1 -0.181151 0 0.011682 0 125 121 118 255 0.292982 0.062866 
-0.723071 1 -0.326961 0 0.011682 0 125 121 118 255 0.292982 0.062866 
-0.74867 1 0 0 0.0182287 0 125 121 118 255 0.292982 0.062866 
-0.723071 1 -0.326961 0 0.0182287 0 125 121 118 255 0.292982 0.062866 
-0.797518 1 -0.088178 0 0.0182287 0 125 121 118 255 0.292982 0.062866 
-1 1 0 -0 0.0221618 0 125 121 118 255 0.292982 0.062866 
-0.74867 1 0 -0 0.0221618 0 125 121 118 255 0.292982 0.062866 
-0.797518 1 -0.088178 -0 0.0221618 0 125 121 118 255 0.292982 0.062866 
-1 1 0 0 0.012782 0 125 121 118 255 0.292982 0.062866 
-0.797518 1 -0.088178 0 0.012782 0 125 121 118 255 0.292982 0.062866 
-0.942475 1 -0.088178 0 0.012782 0 125 121 118 255 0.292982 0.062866 
-1 1 -1 0 0.057525 0 125 121 118 255 0.292982 0.062866 
-1 1 0 0 0.057525 0 125 121 118 255 0.292982 0.062866 
-0.942475 1 -0.088178 0 0.057525 0 125 121 118 255 0.292982 0.062866 
-1 1 -1 0 0.0479874 0 125 121 118 255 0.292982 0.062866 
-0.942475 1 -0.088178 0 0.0479874 0 125 121 118 255 0.292982 0.062866 
-0.942475 1 -0.92238 0 0.0479874 0 125 121 118 255 0.292982 0.062866 
-0.249557 1 0 -0 0.0220054 0 125 121 118 255 0.292982 0.062866 
0 1 0 -0 0.0220054 0 125 121 118 255 0.292982 0.062866 
-0.055752 1 -0.088178 -0 0.0220054 0 125 121 118 255 0.292982 0.062866 
-0.249557 1 0 0 0.0127821 0 125 121 118 255 0.292982 0.062866 
-0.055752 1 -0.088178 0 0.0127821 0 125 121 118 255 0.292982 0.062866 
-0.20071 1 -0.088178 0 0.0127821 0 125 121 118 255 0.292982 0.062866 
0 1 0 0 0.055752 0 125 121 118 255 0.292982 0.062866 
0 1 -1 0 0.055752 0 125 121 118 255 0.292982 0.062866 
-0.055752 1 -0.92238 0 0.055752 0 125 121 118 255 0.292982 0.062866 
0 1 0 0 0.0465084 0 125 121 118 255 0.292982 0.062866 
-0.055752 1 -0.92238 0 0.0465084 0 125 121 118 255 0.292982 0.062866 
-0.055752 1 -0.088178 0 0.0465084 0 125 121 118 255 0.292982 0.062866 
-0.942475 1 -0.92238 -0 0.0688275 0 125 121 118 255 0.292982 0.062866 
-0.055752 1 -0.92238 -0 0.0688275 0 125 121 118 255 0.292982 0.062866 
0 1 -1 -0 0.0688275 0 125 121 118 255 0.292982 0.062866 
-0.942475 1 -0.92238 0 0.07762 0 125 121 118 255 0.292982 0.062866 
0 1 -1 0 0.07762 0 125 121 118 255 0.292982 0.062866 
-1 1 -1 0 0.07762 0 125 121 118 255 0.292982 0.062866 
-0.723071 1 -0.326961 0 0.0582205 0 125 121 118 255 0.292982 0.062866 
-0.698758 1 -0.181151 0 0.0582205 0 125 121 118 255 0.292982 0.062866 
-0.299468 1 -0.181151 0 0.0582205 0 125 121 118 255 0.292982 0.062866 
-0.723071 1 -0.326961 0 0.0653103 0 125 121 118 255 0.292982 0.062866 
-0.299468 1 -0.181151 0 0.0653103 0 125 121 118 255 0.292982 0.062866 
-0.275157 1 -0.326961 0 0.0653103 0 125 121 118 255 0.292982 0.062866 
-0.055752 1.08932 -0.92238 0 0.12812 -0 108 105 102 255 0.992775 0.874225 
-0.275157 1.08932 -0.326961 0 0.12812 -0 108 105 102 255 0.932625 0.702144 
-0.055752 1.08932 -0.338438 0 0.12812 -0 108 105 102 255 0.992775 0.705461 
-0.942475 1.08932 -0.92238 0 0 -0.0792021 108 105 102 255 0.265609 0.058294 
-0.055752 1.08932 -0.92238 0 0 -0.0792021 108 105 102 255 0.265609 0.058294 
-0.055752 1 -0.92238 0 0 -0.0792021 108 105 102 255 0.265609 0.058294 
-0.942475 1.08932 -0.92238 0 0 -0.0792021 108 105 102 255 0.265609 0.058294 
-0.055752 1 -0.92238 0 0 -0.0792021 108 105 102 255 0.265609 0.058294 
-0.942475 1 -0.92238 0 0 -0.0792021 108 105 102 255 0.265609 0.058294 
-0.797518 1 -0.088178 0.0213281 0 0.0066496 91 88 86 255 0.233436 0.062338 
-0.723071 1 -0.326961 0.0213281 0 0.0066496 91 88 86 255 0.233436 0.062338 
-0.723071 1.08932 -0.326961 0.0213281 0 0.0066496 91 88 86 255 0.233436 0.062338 
-0.797518 1 -0.088178 0.0213281 -0 0.0066496 91 88 86 255 0.233436 0.062338 
-0.723071 1.08932 -0.326961 0.0213281 -0 0.0066496 91 88 86 255 0.233436 0.062338 
-0.797518 1.08932 -0.088178 0.0213281 -0 0.0066496 91 88 86 255 0.233436 0.062338 
-0.942475 1 -0.92238 -0.0745109 0 0 91 88 86 255 0.233436 0.062338 
-0.942475 1 -0.088178 -0.0745109 0 0 91 88 86 255 0.233436 0.062338 
-0.942475 1.08932 -0.088178 -0.0745109 0 0 91 88 86 255 0.233436 0.062338 
-0.942475 1 -0.92238 -0.0223532 0 0 91 88 86 255 0.233436 0.062338 
-0.942475 1.08932 -0.088178 -0.0223532 0 0 91 88 86 255 0.233436 0.062338 
-0.942475 1.08932 -0.338438 -0.0223532 0 0 91 88 86 255 0.233436 0.062338 
-0.942475 1 -0.92238 -0.0521577 0 0 91 88 86 255 0.233436 0.062338 
-0.942475 1.08932 -0.338438 -0.0521577 0 0 91 88 86 255 0.233436 0.062338 
-0.942475 1.08932 -0.92238 -0.0521577 0 0 91 88 86 255 0.233436 0.062338 
-0.942475 1 -0.088178 0 0 0.0129476 108 105 102 255 0.265609 0.058294 
-0.797518 1 -0.088178 0 0 0.0129476 108 105 102 255 0.265609 0.058294 
-0.797518 1.08932 -0.088178 0 0 0.0129476 108 105 102 255 0.265609 0.058294 
-0.942475 1 -0.088178 0 0 0.0129476 108 105 102 255 0.265609 0.058294 
-0.797518 1.08932 -0.088178 0 0 0.0129476 108 105 102 255 0.265609 0.058294 
-0.942475 1.08932 -0.088178 0 0 0.0129476 108 105 102 255 0.265609 0.058294 
-0.723071 1.08932 -0.326961 0 0 0.0400077 108 105 102 255 0.265609 0.058294 
-0.723071 1 -0.326961 0 0 0.0400077 108 105 102 255 0.265609 0.058294 
-0.275157 1 -0.326961 0 0 0.0400077 108 105 102 255 0.265609 0.058294 
-0.723071 1.08932 -0.326961 -0 0 0.0400077 108 105 102 255 0.265609 0.058294 
-0.275157 1 -0.326961 -0 0 0.0400077 108 105 102 255 0.265609 0.058294 
-0.275157 1.08932 -0.326961 -0 0 0.0400077 108 105 102 255 0.265609 0.058294 
-0.275157 1 -0.326961 -0.0213281 0 0.0066496 91 88 86 255 0.233436 0.062338 
-0.20071 1 -0.088178 -0.0213281 0 0.0066496 91 88 86 255 0.233436 0.062338 
-0.20071 1.08932 -0.088178 -0.0213281 0 0.0066496 91 88 86 255 0.233436 0.062338 
-0.275157 1 -0.326961 -0.0213281 0 0.0066496 91 88 86 255 0.233436 0.062338 
-0.20071 1.08932 -0.088178 -0.0213281 0 0.0066496 91 88 86 255 0.233436 0.062338 
-0.275157 1.08932 -0.326961 -0.0213281 0 0.0066496 91 88 86 255 0.233436 0.062338 
-0.20071 1 -0.088178 0 0 0.0129476 108 105 102 255 0.265609 0.058294 
-0.055752 1 -0.088178 0 0 0.0129476 108 105 102 255 0.265609 0.058294 
-0.055752 1.08932 -0.088178 0 0 0.0129476 108 105 102 255 0.265609 0.058294 
-0.20071 1 -0.088178 0 0 0.0129476 108 105 102 255 0.265609 0.058294 
-0.055752 1.08932 -0.088178 0 0 0.0129476 108 105 102 255 0.265609 0.058294 
-0.20071 1.08932 -0.088178 0 0 0.0129476 108 105 102 255 0.265609 0.058294 
-0.055752 1 -0.088178 0.0745109 0 0 91 88 86 255 0.233436 0.062338 
-0.055752 1 -0.92238 0.0745109 0 0 91 88 86 255 0.233436 0.062338 
-0.055752 1.08932 -0.92238 0.0745109 0 0 91 88 86 255 0.233436 0.062338 
-0.055752 1 -0.088178 0.0521577 0 0 91 88 86 255 0.233436 0.062338 
-0.055752 1.08932 -0.92238 0.0521577 0 0 91 88 86 255 0.233436 0.062338 
-0.055752 1.08932 -0.338438 0.0521577 0 0 91 88 86 255 0.233436 0.062338 
-0.055752 1 -0.088178 0.0223532 -0 0 91 88 86 255 0.233436 0.062338 
-0.055752 1.08932 -0.338438 0.0223532 -0 0 91 88 86 255 0.233436 0.062338 
-0.055752 1.08932 -0.088178 0.0223532 -0 0 91 88 86 255 0.233436 0.062338 
-0.942475 1.08932 -0.338438 -0 0.128119 0 108 105 102 255 0.74968 0.705461 
-0.723071 1.08932 -0.326961 -0 0.128119 0 108 105 102 255 0.80983 0.702144 
-0.942475 1.08932 -0.92238 -0 0.128119 0 108 105 102 255 0.74968 0.874225 
-0.055752 1.08932 -0.338438 0 0.0532446 0 108 105 102 255 0.808095 0.788499 
-0.275157 1.08932 -0.326961 0 0.0532446 0 108 105 102 255 0.808095 0.788499 
-0.20071 1.08932 -0.088178 0 0.0532446 0 108 105 102 255 0.808095 0.788499 
-0.055752 1.08932 -0.338438 0 0.0362772 -0 108 105 102 255 0.808095 0.788499 
-0.20071 1.08932 -0.088178 0 0.0362772 -0 108 105 102 255 0.808095 0.788499 
-0.055752 1.08932 -0.088178 0 0.0362772 -0 108 105 102 255 0.808095 0.788499 
-0.74867 0 0 -0 -0.25133 0 75 72 70 255 0.199463 0.058945 
-1 0 0 -0 -0.25133 0 75 72 70 255 0.199463 0.058945 
-1 0 -1 -0 -0.25133 0 75 72 70 255 0.199463 0.058945 
-0.74867 0 0 0 -0.0954407 -0 75 72 70 255 0.199463 0.058945 
-1 0 -1 0 -0.0954407 -0 75 72 70 255 0.199463 0.058945 
-0.698758 0 -0.181151 0 -0.0954407 -0 75 72 70 255 0.199463 0.058945 
-0.299468 0 -0.181151 0 -0.299468 0 75 72 70 255 0.199463 0.058945 
0 0 -1 0 -0.299468 0 75 72 70 255 0.199463 0.058945 
0 0 0 0 -0.299468 0 75 72 70 255 0.199463 0.058945 
-0.299468 0 -0.181151 0 -0.0452075 0 75 72 70 255 0.199463 0.058945 
0 0 0 0 -0.0452075 0 75 72 70 255 0.199463 0.058945 
-0.249557 0 0 0 -0.0452075 0 75 72 70 255 0.199463 0.058945 
-0.698758 0 -0.181151 0 -0.818849 -0 75 72 70 255 0.199463 0.058945 
-1 0 -1 0 -0.818849 -0 75 72 70 255 0.199463 0.058945 
0 0 -1 0 -0.818849 -0 75 72 70 255 0.199463 0.058945 
-0.698758 0 -0.181151 0 -0.326958 0 75 72 70 255 0.199463 0.058945 
0 0 -1 0 -0.326958 0 75 72 70 255 0.199463 0.058945 
-0.299468 0 -0.181151 0 -0.326958 0 75 72 70 255 0.199463 0.058945 
3 0 1 2
3 3 4 5
3 6 7 8
3 9 10 11
3 12 13 14
3 15 16 17
3 18 19 20
3 21 22 23
3 24 25 26
3 27 28 29
3 30 31 32
3 33 34 35
3 36 37 38
3 39 40 41
3 42 43 44
3 45 46 47
3 48 49 50
3 51 52 53
3 54 55 56
3 57 58 59
3 60 61 62
3 63 64 65
3 66 67 68
3 69 70 71
3 72 73 74
3 75 76 77
3 78 79 80
3 81 82 83
3 84 85 86
3 87 88 89
3 90 91 92
3 93 94 95
3 96 97 98
3 99 100 101
3 102 103 104
3 105 106 107
3 108 109 110
3 111 112 113
3 114 115 116
3 117 118 119
3 120 121 122
3 123 124 125
3 126 127 128
3 129 130 131
3 132 133 134
3 135 136 137
3 138 139 140
3 141 142 143
3 144 145 146
3 147 148 149
3 150 151 152
3 153 154 155
3 156 157 158
3 159 160 161
3 162 163 164
3 165 166 167
3 168 169 170
3 171 172 173
3 174 175 176
3 177 178 179
3 180 181 182
3 183 184 185
3 186 187 188
3 189 190 191
