ply
format ascii 1.0
comment Feeney's Flatenator generated
comment TextureFile SpaceInteriors_Texture.png
element vertex 84
property float x
property float y
property float z
property float nx
property float ny
property float nz
property uchar red
property uchar green
property uchar blue
property uchar alpha
property float texture_u
property float texture_v
element face 28
property list uchar int vertex_indices
end_header
-0.425505 0.251908 0.495437 0 0 0.615058 0 0 0 255 0.020451 0.514143 
0.425505 0.251908 0.495437 0 0 0.615058 0 0 0 255 0.020451 0.514143 
0.425505 0.974647 0.495437 0 0 0.615058 0 0 0 255 0.020451 0.514143 
-0.425505 0.251908 0.495437 0 0 0.615058 0 0 0 255 0.020451 0.514143 
0.425505 0.974647 0.495437 0 0 0.615058 0 0 0 255 0.020451 0.514143 
-0.425505 0.974647 0.495437 0 0 0.615058 0 0 0 255 0.020451 0.514143 
-0.538444 1.07689 0.495437 -0 1.06706 0 78 85 87 255 0.197968 0.268637 
0.538444 1.07689 0.495437 -0 1.06706 0 78 85 87 255 0.197968 0.268637 
0.538444 1.07689 -0.495437 -0 1.06706 0 78 85 87 255 0.197968 0.268637 
-0.538444 1.07689 0.495437 0 1.06706 0 78 85 87 255 0.197968 0.268637 
0.538444 1.07689 -0.495437 0 1.06706 0 78 85 87 255 0.197968 0.268637 
-0.538444 1.07689 -0.495437 0 1.06706 0 78 85 87 255 0.197968 0.268637 
-0.538444 1.07689 -0.495437 0 0 -1.15969 63 68 68 255 0.14281 0.265809 
0.538444 1.07689 -0.495437 0 0 -1.15969 63 68 68 255 0.14281 0.265809 
0.538444 0 -0.495437 0 0 -1.15969 63 68 68 255 0.14281 0.265809 
-0.538444 1.07689 -0.495437 0 0 -1.15969 63 68 68 255 0.14281 0.265809 
0.538444 0 -0.495437 0 0 -1.15969 63 68 68 255 0.14281 0.265809 
-0.538444 0 -0.495437 0 0 -1.15969 63 68 68 255 0.14281 0.265809 
-0.538444 0 -0.495437 0 -1.06706 0 48 53 54 255 0.079873 0.266516 
0.538444 0 -0.495437 0 -1.06706 0 48 53 54 255 0.079873 0.266516 
0.538444 0 0.495437 0 -1.06706 0 48 53 54 255 0.079873 0.266516 
-0.538444 0 -0.495437 0 -1.06706 0 48 53 54 255 0.079873 0.266516 
0.538444 0 0.495437 0 -1.06706 0 48 53 54 255 0.079873 0.266516 
-0.538444 0 0.495437 0 -1.06706 0 48 53 54 255 0.079873 0.266516 
0.538444 0 0.495437 1.06706 0 0 56 60 60 255 0.108159 0.265102 
0.538444 0 -0.495437 1.06706 0 0 56 60 60 255 0.108159 0.265102 
0.538444 1.07689 -0.495437 1.06706 0 0 56 60 60 255 0.108159 0.265102 
0.538444 0 0.495437 1.06706 -0 0 56 60 60 255 0.108159 0.265102 
0.538444 1.07689 -0.495437 1.06706 -0 0 56 60 60 255 0.108159 0.265102 
0.538444 1.07689 0.495437 1.06706 -0 0 56 60 60 255 0.108159 0.265102 
-0.538444 0 -0.495437 -1.06706 0 0 56 60 60 255 0.108159 0.265102 
-0.538444 0 0.495437 -1.06706 0 0 56 60 60 255 0.108159 0.265102 
-0.538444 1.07689 0.495437 -1.06706 0 0 56 60 60 255 0.108159 0.265102 
-0.538444 0 -0.495437 -1.06706 0 0 56 60 60 255 0.108159 0.265102 
-0.538444 1.07689 0.495437 -1.06706 0 0 56 60 60 255 0.108159 0.265102 
-0.538444 1.07689 -0.495437 -1.06706 0 0 56 60 60 255 0.108159 0.265102 
0.288703 0.075208 0.495437 0 0 0.0115746 171 53 53 255 0.95038 0.379541 
0.402747 0.075208 0.495437 0 0 0.0115746 171 53 53 255 0.95038 0.379541 
0.402667 0.1767 0.495437 0 0 0.0115746 171 53 53 255 0.95038 0.379541 
0.288703 0.075208 0.495437 0 -0 0.0115693 171 53 53 255 0.95038 0.379541 
0.402667 0.1767 0.495437 0 -0 0.0115693 171 53 53 255 0.95038 0.379541 
0.288675 0.1767 0.495437 0 -0 0.0115693 171 53 53 255 0.95038 0.379541 
0.538444 0 0.495437 0 -0 0.121623 63 68 68 255 0.14281 0.265809 
0.538444 1.07689 0.495437 0 -0 0.121623 63 68 68 255 0.14281 0.265809 
0.425505 0.974647 0.495437 0 -0 0.121623 63 68 68 255 0.14281 0.265809 
0.538444 0 0.495437 0 0 0.0816254 63 68 68 255 0.14281 0.265809 
0.425505 0.974647 0.495437 0 0 0.0816254 63 68 68 255 0.14281 0.265809 
0.425505 0.251908 0.495437 0 0 0.0816254 63 68 68 255 0.14281 0.265809 
0.538444 1.07689 0.495437 0 0 0.110104 63 68 68 255 0.14281 0.265809 
-0.538444 1.07689 0.495437 0 0 0.110104 63 68 68 255 0.14281 0.265809 
-0.425505 0.974647 0.495437 0 0 0.110104 63 68 68 255 0.14281 0.265809 
0.538444 1.07689 0.495437 0 0 0.0870098 63 68 68 255 0.14281 0.265809 
-0.425505 0.974647 0.495437 0 0 0.0870098 63 68 68 255 0.14281 0.265809 
0.425505 0.974647 0.495437 0 0 0.0870098 63 68 68 255 0.14281 0.265809 
-0.538444 1.07689 0.495437 0 0 0.121623 63 68 68 255 0.14281 0.265809 
-0.538444 0 0.495437 0 0 0.121623 63 68 68 255 0.14281 0.265809 
-0.425505 0.251908 0.495437 0 0 0.121623 63 68 68 255 0.14281 0.265809 
-0.538444 1.07689 0.495437 0 0 0.0816254 63 68 68 255 0.14281 0.265809 
-0.425505 0.251908 0.495437 0 0 0.0816254 63 68 68 255 0.14281 0.265809 
-0.425505 0.974647 0.495437 0 0 0.0816254 63 68 68 255 0.14281 0.265809 
-0.538444 0 0.495437 0 0 0.0809906 63 68 68 255 0.14281 0.265809 
0.538444 0 0.495437 0 0 0.0809906 63 68 68 255 0.14281 0.265809 
0.402747 0.075208 0.495437 0 0 0.0809906 63 68 68 255 0.14281 0.265809 
-0.538444 0 0.495437 0 0 0.00857702 63 68 68 255 0.14281 0.265809 
0.402747 0.075208 0.495437 0 0 0.00857702 63 68 68 255 0.14281 0.265809 
0.288703 0.075208 0.495437 0 0 0.00857702 63 68 68 255 0.14281 0.265809 
0.538444 0 0.495437 0 0 0.014247 63 68 68 255 0.14281 0.265809 
0.425505 0.251908 0.495437 0 0 0.014247 63 68 68 255 0.14281 0.265809 
0.402667 0.1767 0.495437 0 0 0.014247 63 68 68 255 0.14281 0.265809 
0.538444 0 0.495437 0 0 0.0137661 63 68 68 255 0.14281 0.265809 
0.402667 0.1767 0.495437 0 0 0.0137661 63 68 68 255 0.14281 0.265809 
0.402747 0.075208 0.495437 0 0 0.0137661 63 68 68 255 0.14281 0.265809 
0.425505 0.251908 0.495437 0 0 0.0640028 63 68 68 255 0.14281 0.265809 
-0.425505 0.251908 0.495437 0 0 0.0640028 63 68 68 255 0.14281 0.265809 
0.288675 0.1767 0.495437 0 0 0.0640028 63 68 68 255 0.14281 0.265809 
0.425505 0.251908 0.495437 0 0 0.00857311 63 68 68 255 0.14281 0.265809 
0.288675 0.1767 0.495437 0 0 0.00857311 63 68 68 255 0.14281 0.265809 
0.402667 0.1767 0.495437 0 0 0.00857311 63 68 68 255 0.14281 0.265809 
-0.425505 0.251908 0.495437 0 0 0.199871 63 68 68 255 0.14281 0.265809 
-0.538444 0 0.495437 0 0 0.199871 63 68 68 255 0.14281 0.265809 
0.288703 0.075208 0.495437 0 0 0.199871 63 68 68 255 0.14281 0.265809 
-0.425505 0.251908 0.495437 0 0 0.0724814 63 68 68 255 0.14281 0.265809 
0.288703 0.075208 0.495437 0 0 0.0724814 63 68 68 255 0.14281 0.265809 
0.288675 0.1767 0.495437 0 0 0.0724814 63 68 68 255 0.14281 0.265809 
3 0 1 2
3 3 4 5
3 6 7 8
3 9 10 11
3 12 13 14
3 15 16 17
3 18 19 20
3 21 22 23
3 24 25 26
3 27 28 29
3 30 31 32
3 33 34 35
3 36 37 38
3 39 40 41
3 42 43 44
3 45 46 47
3 48 49 50
3 51 52 53
3 54 55 56
3 57 58 59
3 60 61 62
3 63 64 65
3 66 67 68
3 69 70 71
3 72 73 74
3 75 76 77
3 78 79 80
3 81 82 83
