ply
format ascii 1.0
comment Feeney's Flatenator generated
comment TextureFile SpaceInteriors_Texture.png
element vertex 132
property float x
property float y
property float z
property float nx
property float ny
property float nz
element face 44
property list uchar int vertex_indices
end_header
-0.134798 0 0.134796 0 0 0.0152729 
0.134798 0 0.134796 0 0 0.0152729 
0.134798 0.056651 0.134796 0 0 0.0152729 
-0.134798 0 0.134796 0 0 0.0152729 
0.134798 0.056651 0.134796 0 0 0.0152729 
-0.134798 0.056651 0.134796 0 0 0.0152729 
-0.117998 0.425767 0.117996 -0 0.0556932 0 
0.117998 0.425767 0.117996 -0 0.0556932 0 
0.117998 0.425767 -0.117996 -0 0.0556932 0 
-0.117998 0.425767 0.117996 0 0.0556932 0 
0.117998 0.425767 -0.117996 0 0.0556932 0 
-0.117998 0.425767 -0.117996 0 0.0556932 0 
0.134798 0 0.134796 -0 -0.0726809 0 
-0.134798 0 0.134796 -0 -0.0726809 0 
-0.134798 0 -0.134796 -0 -0.0726809 0 
0.134798 0 0.134796 0 -0.0726809 -0 
-0.134798 0 -0.134796 0 -0.0726809 -0 
0.134798 0 -0.134796 0 -0.0726809 -0 
0.134798 0 0.134796 0.00357893 -0 0 
0.134798 0.056651 0.071621 0.00357893 -0 0 
0.134798 0.056651 0.134796 0.00357893 -0 0 
-0.134798 0 0.134796 -0.00357893 0 0 
-0.134798 0.056651 0.134796 -0.00357893 0 0 
-0.134798 0.056651 0.071621 -0.00357893 0 0 
-0.134798 0.341076 0.134796 -0 0.00452921 0.00562027 
0.134798 0.341076 0.134796 -0 0.00452921 0.00562027 
0.117998 0.361923 0.117996 -0 0.00452921 0.00562027 
-0.134798 0.341076 0.134796 0 0.00396473 0.00491981 
0.117998 0.361923 0.117996 0 0.00396473 0.00491981 
-0.117998 0.361923 0.117996 0 0.00396473 0.00491981 
0.117998 0.361923 0.117996 0.00562019 0.00452915 0 
0.134798 0.341076 0.134796 0.00562019 0.00452915 0 
0.134798 0.341076 -0.134796 0.00562019 0.00452915 0 
0.117998 0.361923 0.117996 0.00491973 0.00396467 0 
0.134798 0.341076 -0.134796 0.00491973 0.00396467 0 
0.117998 0.361923 -0.117996 0.00491973 0.00396467 0 
0.134798 0.341076 -0.134796 0 0.00452921 -0.00562027 
-0.134798 0.341076 -0.134796 0 0.00452921 -0.00562027 
-0.117998 0.361923 -0.117996 0 0.00452921 -0.00562027 
0.134798 0.341076 -0.134796 0 0.00396473 -0.00491981 
-0.117998 0.361923 -0.117996 0 0.00396473 -0.00491981 
0.117998 0.361923 -0.117996 0 0.00396473 -0.00491981 
-0.134798 0.341076 0.134796 -0.00491973 0.00396467 0 
-0.117998 0.361923 0.117996 -0.00491973 0.00396467 0 
-0.117998 0.361923 -0.117996 -0.00491973 0.00396467 0 
-0.134798 0.341076 0.134796 -0.00562019 0.00452915 0 
-0.117998 0.361923 -0.117996 -0.00562019 0.00452915 0 
-0.134798 0.341076 -0.134796 -0.00562019 0.00452915 0 
-0.117998 0.361923 0.117996 0 0 0.0150669 
0.117998 0.361923 0.117996 0 0 0.0150669 
0.117998 0.425767 0.117996 0 0 0.0150669 
-0.117998 0.361923 0.117996 0 0 0.0150669 
0.117998 0.425767 0.117996 0 0 0.0150669 
-0.117998 0.425767 0.117996 0 0 0.0150669 
0.117998 0.425767 -0.117996 0.0150667 0 -0 
0.117998 0.425767 0.117996 0.0150667 0 -0 
0.117998 0.361923 0.117996 0.0150667 0 -0 
0.117998 0.425767 -0.117996 0.0150667 0 0 
0.117998 0.361923 0.117996 0.0150667 0 0 
0.117998 0.361923 -0.117996 0.0150667 0 0 
0.117998 0.361923 -0.117996 0 0 -0.0150669 
-0.117998 0.361923 -0.117996 0 0 -0.0150669 
-0.117998 0.425767 -0.117996 0 0 -0.0150669 
0.117998 0.361923 -0.117996 0 0 -0.0150669 
-0.117998 0.425767 -0.117996 0 0 -0.0150669 
0.117998 0.425767 -0.117996 0 0 -0.0150669 
-0.117998 0.361923 0.117996 -0.0150667 0 0 
-0.117998 0.425767 0.117996 -0.0150667 0 0 
-0.117998 0.425767 -0.117996 -0.0150667 0 0 
-0.117998 0.361923 0.117996 -0.0150667 0 0 
-0.117998 0.425767 -0.117996 -0.0150667 0 0 
-0.117998 0.361923 -0.117996 -0.0150667 0 0 
-0.134798 0 -0.134796 -0.0152727 0 0 
-0.134798 0 0.134796 -0.0152727 0 0 
-0.134798 0.056651 0.071621 -0.0152727 0 0 
0.134798 0.056651 0.071621 0.0152727 0 0 
0.134798 0 0.134796 0.0152727 0 0 
0.134798 0 -0.134796 0.0152727 0 0 
-0.134798 0.284425 0.134796 0 0 0.0152729 
0.134798 0.284425 0.134796 0 0 0.0152729 
0.134798 0.341076 0.134796 0 0 0.0152729 
-0.134798 0.284425 0.134796 0 0 0.0152729 
0.134798 0.341076 0.134796 0 0 0.0152729 
-0.134798 0.341076 0.134796 0 0 0.0152729 
-0.134798 0.284425 0.071621 -0.00357893 0 0 
-0.134798 0.284425 0.134796 -0.00357893 0 0 
-0.134798 0.341076 0.134796 -0.00357893 0 0 
-0.134798 0.341076 -0.134796 -0.0152727 0 0 
-0.134798 0.284425 0.071621 -0.0152727 0 0 
-0.134798 0.341076 0.134796 -0.0152727 0 0 
0.134798 0.341076 0.134796 0.0152727 0 0 
0.134798 0.284425 0.071621 0.0152727 0 0 
0.134798 0.341076 -0.134796 0.0152727 0 0 
0.134798 0.284425 0.134796 0.00357893 -0 0 
0.134798 0.284425 0.071621 0.00357893 -0 0 
0.134798 0.341076 0.134796 0.00357893 -0 0 
-0.134798 0.056651 0.134796 0 0 0.061407 
0.134798 0.056651 0.134796 0 0 0.061407 
0.134798 0.284425 0.134796 0 0 0.061407 
-0.134798 0.056651 0.134796 0 0 0.061407 
0.134798 0.284425 0.134796 0 0 0.061407 
-0.134798 0.284425 0.134796 0 0 0.061407 
-0.134798 0.056651 0.071621 -0.0143896 0 0 
-0.134798 0.056651 0.134796 -0.0143896 0 0 
-0.134798 0.284425 0.134796 -0.0143896 0 0 
-0.134798 0.056651 0.071621 -0.0143896 0 0 
-0.134798 0.284425 0.134796 -0.0143896 0 0 
-0.134798 0.284425 0.071621 -0.0143896 0 0 
-0.134798 0 -0.134796 -0.0470164 0 0 
-0.134798 0.056651 0.071621 -0.0470164 0 0 
-0.134798 0.284425 0.071621 -0.0470164 0 0 
-0.134798 0 -0.134796 -0.0704039 0 0 
-0.134798 0.284425 0.071621 -0.0704039 0 0 
-0.134798 0.341076 -0.134796 -0.0704039 0 0 
-0.134798 0.341076 -0.134796 0 0 -0.0919527 
0.134798 0.341076 -0.134796 0 0 -0.0919527 
0.134798 0 -0.134796 0 0 -0.0919527 
-0.134798 0.341076 -0.134796 0 0 -0.0919527 
0.134798 0 -0.134796 0 0 -0.0919527 
-0.134798 0 -0.134796 0 0 -0.0919527 
0.134798 0.284425 0.071621 0.0470164 0 0 
0.134798 0.056651 0.071621 0.0470164 0 0 
0.134798 0 -0.134796 0.0470164 0 0 
0.134798 0.284425 0.071621 0.0704039 0 0 
0.134798 0 -0.134796 0.0704039 0 0 
0.134798 0.341076 -0.134796 0.0704039 0 0 
0.134798 0.056651 0.134796 0.0143896 0 0 
0.134798 0.056651 0.071621 0.0143896 0 0 
0.134798 0.284425 0.071621 0.0143896 0 0 
0.134798 0.056651 0.134796 0.0143896 -0 0 
0.134798 0.284425 0.071621 0.0143896 -0 0 
0.134798 0.284425 0.134796 0.0143896 -0 0 
3 0 1 2
3 3 4 5
3 6 7 8
3 9 10 11
3 12 13 14
3 15 16 17
3 18 19 20
3 21 22 23
3 24 25 26
3 27 28 29
3 30 31 32
3 33 34 35
3 36 37 38
3 39 40 41
3 42 43 44
3 45 46 47
3 48 49 50
3 51 52 53
3 54 55 56
3 57 58 59
3 60 61 62
3 63 64 65
3 66 67 68
3 69 70 71
3 72 73 74
3 75 76 77
3 78 79 80
3 81 82 83
3 84 85 86
3 87 88 89
3 90 91 92
3 93 94 95
3 96 97 98
3 99 100 101
3 102 103 104
3 105 106 107
3 108 109 110
3 111 112 113
3 114 115 116
3 117 118 119
3 120 121 122
3 123 124 125
3 126 127 128
3 129 130 131
