ply
format ascii 1.0
comment Feeney's Flatenator generated
comment TextureFile SpaceInteriors_Texture.png
element vertex 174
property float x
property float y
property float z
property float nx
property float ny
property float nz
element face 58
property list uchar int vertex_indices
end_header
1 2.8129 0.099625 0.0873153 0.0756058 0 
1 2.8129 0 0.0873153 0.0756058 0 
0.241096 3.68934 0 0.0873153 0.0756058 0 
1 2.8129 0.099625 0.0873153 0.0756058 0 
0.241096 3.68934 0 0.0873153 0.0756058 0 
0.241096 3.68934 0.099625 0.0873153 0.0756058 0 
-0.68441 5 0 0 0.0654335 0 
-0.68441 5 0.076889 0 0.0654335 0 
0.166603 5 0.076889 0 0.0654335 0 
-0.68441 5 0 0 0.0654335 0 
0.166603 5 0.076889 0 0.0654335 0 
0.166603 5 0 0 0.0654335 0 
-0.758904 3.35069 0.099625 -0.0873153 -0.0756058 -0 
-0.758904 3.35069 0 -0.0873153 -0.0756058 -0 
0 2.47425 0 -0.0873153 -0.0756058 -0 
-0.758904 3.35069 0.099625 -0.0873153 -0.0756058 0 
0 2.47425 0 -0.0873153 -0.0756058 0 
0 2.47425 0.099625 -0.0873153 -0.0756058 0 
0.074493 0 0.076889 0 -0.0654336 0 
0.074493 0 0 0 -0.0654336 0 
0.925507 0 0 0 -0.0654336 0 
0.074493 0 0.076889 0 -0.0654336 0 
0.925507 0 0 0 -0.0654336 0 
0.925507 0 0.076889 0 -0.0654336 0 
0.166603 3.68934 0.076889 0 0 1.00286 
-0.68441 3.35069 0.076889 0 0 1.00286 
0.074493 2.47425 0.076889 0 0 1.00286 
0.166603 3.68934 0.076889 0 0 1.00287 
0.074493 2.47425 0.076889 0 0 1.00287 
0.925507 2.8129 0.076889 0 0 1.00287 
0.241096 3.68934 0.099625 0 0 0.0652887 
0.166603 3.68934 0.099625 0 0 0.0652887 
0.925507 2.8129 0.099625 0 0 0.0652887 
0.241096 3.68934 0.099625 0 0 0.0652887 
0.925507 2.8129 0.099625 0 0 0.0652887 
1 2.8129 0.099625 0 0 0.0652887 
0 2.47425 0.099625 0 -0 0.0652886 
0.074493 2.47425 0.099625 0 -0 0.0652886 
-0.68441 3.35069 0.099625 0 -0 0.0652886 
0 2.47425 0.099625 0 0 0.0652895 
-0.68441 3.35069 0.099625 0 0 0.0652895 
-0.758904 3.35069 0.099625 0 0 0.0652895 
-0.758904 5 0.099625 -0 0.0016937 0 
-0.68441 5 0.099625 -0 0.0016937 0 
-0.68441 5 0.076889 -0 0.0016937 0 
-0.758904 5 0.099625 0 0.00572777 0 
-0.68441 5 0.076889 0 0.00572777 0 
-0.68441 5 0 0 0.00572777 0 
-0.758904 5 0.099625 0 0.00742147 0 
-0.68441 5 0 0 0.00742147 0 
-0.758904 5 0 0 0.00742147 0 
0.074493 0 0.076889 0 -0.00169367 0 
0.074493 0 0.099625 0 -0.00169367 0 
0 0 0.099625 0 -0.00169367 0 
0.074493 0 0.076889 -0 -0.00742136 0 
0 0 0.099625 -0 -0.00742136 0 
0 0 0 -0 -0.00742136 0 
0.074493 0 0.076889 0 -0.00572769 -0 
0 0 0 0 -0.00572769 -0 
0.074493 0 0 0 -0.00572769 -0 
-0.68441 3.35069 0.076889 0.0199267 0.0172544 -0 
-0.68441 3.35069 0.099625 0.0199267 0.0172544 -0 
0.074493 2.47425 0.099625 0.0199267 0.0172544 -0 
-0.68441 3.35069 0.076889 0.0199267 0.0172544 0 
0.074493 2.47425 0.099625 0.0199267 0.0172544 0 
0.074493 2.47425 0.076889 0.0199267 0.0172544 0 
0.166603 5 0.076889 0 0.00169367 0 
0.166603 5 0.099625 0 0.00169367 0 
0.241096 5 0.099625 0 0.00169367 0 
0.166603 5 0.076889 -0 0.00742137 0 
0.241096 5 0.099625 -0 0.00742137 0 
0.241096 5 0 -0 0.00742137 0 
0.166603 5 0.076889 0 0.00572769 0 
0.241096 5 0 0 0.00572769 0 
0.166603 5 0 0 0.00572769 0 
1 0 0.099625 -0 -0.00169367 0 
0.925507 0 0.099625 -0 -0.00169367 0 
0.925507 0 0.076889 -0 -0.00169367 0 
1 0 0.099625 0 -0.00572769 0 
0.925507 0 0.076889 0 -0.00572769 0 
0.925507 0 0 0 -0.00572769 0 
1 0 0.099625 0 -0.00742136 -0 
0.925507 0 0 0 -0.00742136 -0 
1 0 0 0 -0.00742136 -0 
0.925507 2.8129 0.076889 -0.0199267 -0.0172544 0 
0.925507 2.8129 0.099625 -0.0199267 -0.0172544 0 
0.166603 3.68934 0.099625 -0.0199267 -0.0172544 0 
0.925507 2.8129 0.076889 -0.0199267 -0.0172544 0 
0.166603 3.68934 0.099625 -0.0199267 -0.0172544 0 
0.166603 3.68934 0.076889 -0.0199267 -0.0172544 0 
0.241096 3.68934 0.099625 0.130574 0 0 
0.241096 3.68934 0 0.130574 0 0 
0.241096 5 0 0.130574 0 0 
0.241096 3.68934 0.099625 0.130574 -0 0 
0.241096 5 0 0.130574 -0 0 
0.241096 5 0.099625 0.130574 -0 0 
0.166603 5 0.099625 0 0 0.097635 
0.166603 3.68934 0.099625 0 0 0.097635 
0.241096 3.68934 0.099625 0 0 0.097635 
0.166603 5 0.099625 -0 0 0.097635 
0.241096 3.68934 0.099625 -0 0 0.097635 
0.241096 5 0.099625 -0 0 0.097635 
0.166603 3.68934 0.076889 -0.0297992 0 0 
0.166603 3.68934 0.099625 -0.0297992 0 0 
0.166603 5 0.099625 -0.0297992 0 0 
0.166603 3.68934 0.076889 -0.0297992 0 0 
0.166603 5 0.099625 -0.0297992 0 0 
0.166603 5 0.076889 -0.0297992 0 0 
-0.68441 5 0.076889 0 0 1.40358 
-0.68441 3.35069 0.076889 0 0 1.40358 
0.166603 3.68934 0.076889 0 0 1.40358 
-0.68441 5 0.076889 -0 0 1.11539 
0.166603 3.68934 0.076889 -0 0 1.11539 
0.166603 5 0.076889 -0 0 1.11539 
-0.68441 5 0.099625 0.0374987 0 0 
-0.68441 3.35069 0.099625 0.0374987 0 0 
-0.68441 3.35069 0.076889 0.0374987 0 0 
-0.68441 5 0.099625 0.0374987 0 0 
-0.68441 3.35069 0.076889 0.0374987 0 0 
-0.68441 5 0.076889 0.0374987 0 0 
-0.758904 3.35069 0.099625 0 0 0.122864 
-0.68441 3.35069 0.099625 0 0 0.122864 
-0.68441 5 0.099625 0 0 0.122864 
-0.758904 3.35069 0.099625 0 0 0.122864 
-0.68441 5 0.099625 0 0 0.122864 
-0.758904 5 0.099625 0 0 0.122864 
-0.758904 5 0.099625 -0.164313 0 -0 
-0.758904 5 0 -0.164313 0 -0 
-0.758904 3.35069 0 -0.164313 0 -0 
-0.758904 5 0.099625 -0.164313 -0 0 
-0.758904 3.35069 0 -0.164313 -0 0 
-0.758904 3.35069 0.099625 -0.164313 -0 0 
0 2.47425 0.099625 -0.246497 0 -0 
0 2.47425 0 -0.246497 0 -0 
0 0 0 -0.246497 0 -0 
0 2.47425 0.099625 -0.246497 -0 0 
0 0 0 -0.246497 -0 0 
0 0 0.099625 -0.246497 -0 0 
0 0 0.099625 0 0 0.184314 
0.074493 0 0.099625 0 0 0.184314 
0.074493 2.47425 0.099625 0 0 0.184314 
0 0 0.099625 0 0 0.184314 
0.074493 2.47425 0.099625 0 0 0.184314 
0 2.47425 0.099625 0 0 0.184314 
0.074493 2.47425 0.076889 0.0562545 0 -0 
0.074493 2.47425 0.099625 0.0562545 0 -0 
0.074493 0 0.099625 0.0562545 0 -0 
0.074493 2.47425 0.076889 0.0562545 0 0 
0.074493 0 0.099625 0.0562545 0 0 
0.074493 0 0.076889 0.0562545 0 0 
0.925507 2.8129 0.076889 0 0 2.10562 
0.074493 2.47425 0.076889 0 0 2.10562 
0.074493 0 0.076889 0 0 2.10562 
0.925507 2.8129 0.076889 0 0 2.39382 
0.074493 0 0.076889 0 0 2.39382 
0.925507 0 0.076889 0 0 2.39382 
0.925507 0 0.099625 -0.0639541 0 0 
0.925507 2.8129 0.099625 -0.0639541 0 0 
0.925507 2.8129 0.076889 -0.0639541 0 0 
0.925507 0 0.099625 -0.0639541 0 0 
0.925507 2.8129 0.076889 -0.0639541 0 0 
0.925507 0 0.076889 -0.0639541 0 0 
1 2.8129 0.099625 0 0 0.209541 
0.925507 2.8129 0.099625 0 0 0.209541 
0.925507 0 0.099625 0 0 0.209541 
1 2.8129 0.099625 0 0 0.209541 
0.925507 0 0.099625 0 0 0.209541 
1 0 0.099625 0 0 0.209541 
1 0 0.099625 0.280235 0 0 
1 0 0 0.280235 0 0 
1 2.8129 0 0.280235 0 0 
1 0 0.099625 0.280235 -0 0 
1 2.8129 0 0.280235 -0 0 
1 2.8129 0.099625 0.280235 -0 0 
3 0 1 2
3 3 4 5
3 6 7 8
3 9 10 11
3 12 13 14
3 15 16 17
3 18 19 20
3 21 22 23
3 24 25 26
3 27 28 29
3 30 31 32
3 33 34 35
3 36 37 38
3 39 40 41
3 42 43 44
3 45 46 47
3 48 49 50
3 51 52 53
3 54 55 56
3 57 58 59
3 60 61 62
3 63 64 65
3 66 67 68
3 69 70 71
3 72 73 74
3 75 76 77
3 78 79 80
3 81 82 83
3 84 85 86
3 87 88 89
3 90 91 92
3 93 94 95
3 96 97 98
3 99 100 101
3 102 103 104
3 105 106 107
3 108 109 110
3 111 112 113
3 114 115 116
3 117 118 119
3 120 121 122
3 123 124 125
3 126 127 128
3 129 130 131
3 132 133 134
3 135 136 137
3 138 139 140
3 141 142 143
3 144 145 146
3 147 148 149
3 150 151 152
3 153 154 155
3 156 157 158
3 159 160 161
3 162 163 164
3 165 166 167
3 168 169 170
3 171 172 173
