ply
format ascii 1.0
comment Feeney's Flatenator generated
comment TextureFile SpaceInteriors_Texture.png
element vertex 168
property float x
property float y
property float z
property float nx
property float ny
property float nz
property uchar red
property uchar green
property uchar blue
property uchar alpha
property float texture_u
property float texture_v
element face 56
property list uchar int vertex_indices
end_header
-0.04311 -0.893187 0.283113 0 0 0.154023 108 105 102 255 0.267261 0.061667 
0.043111 -0.893187 0.283113 0 0 0.154023 108 105 102 255 0.267261 0.061667 
0.043111 0.893187 0.283113 0 0 0.154023 108 105 102 255 0.267261 0.061667 
-0.04311 -0.893187 0.283113 0 0 0.154023 108 105 102 255 0.267261 0.061667 
0.043111 0.893187 0.283113 0 0 0.154023 108 105 102 255 0.267261 0.061667 
-0.04311 0.893187 0.283113 0 0 0.154023 108 105 102 255 0.267261 0.061667 
-0.04311 0.804778 0.196892 0 0 -0.138778 108 105 102 255 0.267261 0.061667 
0.043111 0.804778 0.196892 0 0 -0.138778 108 105 102 255 0.267261 0.061667 
0.043111 -0.804778 0.196892 0 0 -0.138778 108 105 102 255 0.267261 0.061667 
-0.04311 0.804778 0.196892 0 0 -0.138778 108 105 102 255 0.267261 0.061667 
0.043111 -0.804778 0.196892 0 0 -0.138778 108 105 102 255 0.267261 0.061667 
-0.04311 -0.804778 0.196892 0 0 -0.138778 108 105 102 255 0.267261 0.061667 
0.043111 -0.893187 0.283113 0.138778 0 0 91 88 86 255 0.233148 0.061667 
0.043111 -0.804778 0.196892 0.138778 0 0 91 88 86 255 0.233148 0.061667 
0.043111 0.804778 0.196892 0.138778 0 0 91 88 86 255 0.233148 0.061667 
0.043111 -0.893187 0.283113 0.154023 -0 0 91 88 86 255 0.233148 0.061667 
0.043111 0.804778 0.196892 0.154023 -0 0 91 88 86 255 0.233148 0.061667 
0.043111 0.893187 0.283113 0.154023 -0 0 91 88 86 255 0.233148 0.061667 
-0.04311 -0.804778 0.196892 -0.154023 0 0 91 88 86 255 0.233148 0.061667 
-0.04311 -0.893187 0.283113 -0.154023 0 0 91 88 86 255 0.233148 0.061667 
-0.04311 0.893187 0.283113 -0.154023 0 0 91 88 86 255 0.233148 0.061667 
-0.04311 -0.804778 0.196892 -0.138778 0 0 91 88 86 255 0.233148 0.061667 
-0.04311 0.893187 0.283113 -0.138778 0 0 91 88 86 255 0.233148 0.061667 
-0.04311 0.804778 0.196892 -0.138778 0 0 91 88 86 255 0.233148 0.061667 
-0.04311 0.893187 0.283113 -0 0.0193428 0 125 121 118 255 0.300052 0.061667 
0.043111 0.893187 0.283113 -0 0.0193428 0 125 121 118 255 0.300052 0.061667 
0.043111 0.893187 0.058773 -0 0.0193428 0 125 121 118 255 0.300052 0.061667 
-0.04311 0.893187 0.283113 0 0.0193428 0 125 121 118 255 0.300052 0.061667 
0.043111 0.893187 0.058773 0 0.0193428 0 125 121 118 255 0.300052 0.061667 
-0.04311 0.893187 0.058773 0 0.0193428 0 125 121 118 255 0.300052 0.061667 
0.043111 0.893187 0.283113 0.012211 0 0 91 88 86 255 0.240032 0.061667 
0.043111 0.804778 0.196892 0.012211 0 0 91 88 86 255 0.240032 0.061667 
0.043111 0.804778 0.058773 0.012211 0 0 91 88 86 255 0.240032 0.061667 
0.043111 0.893187 0.283113 0.0198337 0 0 91 88 86 255 0.240032 0.061667 
0.043111 0.804778 0.058773 0.0198337 0 0 91 88 86 255 0.240032 0.061667 
0.043111 0.893187 0.058773 0.0198337 0 0 91 88 86 255 0.240032 0.061667 
0.043111 0.804778 0.196892 -0 -0.0119088 0 75 72 70 255 0.198113 0.061667 
-0.04311 0.804778 0.196892 -0 -0.0119088 0 75 72 70 255 0.198113 0.061667 
-0.04311 0.804778 0.058773 -0 -0.0119088 0 75 72 70 255 0.198113 0.061667 
0.043111 0.804778 0.196892 0 -0.0119088 -0 75 72 70 255 0.198113 0.061667 
-0.04311 0.804778 0.058773 0 -0.0119088 -0 75 72 70 255 0.198113 0.061667 
0.043111 0.804778 0.058773 0 -0.0119088 -0 75 72 70 255 0.198113 0.061667 
-0.04311 0.804778 0.196892 -0.0198337 0 0 91 88 86 255 0.240032 0.061667 
-0.04311 0.893187 0.283113 -0.0198337 0 0 91 88 86 255 0.240032 0.061667 
-0.04311 0.893187 0.058773 -0.0198337 0 0 91 88 86 255 0.240032 0.061667 
-0.04311 0.804778 0.196892 -0.012211 0 0 91 88 86 255 0.240032 0.061667 
-0.04311 0.893187 0.058773 -0.012211 0 0 91 88 86 255 0.240032 0.061667 
-0.04311 0.804778 0.058773 -0.012211 0 0 91 88 86 255 0.240032 0.061667 
-0.04311 -0.804778 0.196892 -0 0.0119088 0 125 121 118 255 0.29711 0.061667 
0.043111 -0.804778 0.196892 -0 0.0119088 0 125 121 118 255 0.29711 0.061667 
0.043111 -0.804778 0.058773 -0 0.0119088 0 125 121 118 255 0.29711 0.061667 
-0.04311 -0.804778 0.196892 0 0.0119088 0 125 121 118 255 0.29711 0.061667 
0.043111 -0.804778 0.058773 0 0.0119088 0 125 121 118 255 0.29711 0.061667 
-0.04311 -0.804778 0.058773 0 0.0119088 0 125 121 118 255 0.29711 0.061667 
0.043111 -0.804778 0.196892 0.0198337 0 0 91 88 86 255 0.244197 0.061667 
0.043111 -0.893187 0.283113 0.0198337 0 0 91 88 86 255 0.244197 0.061667 
0.043111 -0.893187 0.058773 0.0198337 0 0 91 88 86 255 0.244197 0.061667 
0.043111 -0.804778 0.196892 0.012211 0 0 91 88 86 255 0.244197 0.061667 
0.043111 -0.893187 0.058773 0.012211 0 0 91 88 86 255 0.244197 0.061667 
0.043111 -0.804778 0.058773 0.012211 0 0 91 88 86 255 0.244197 0.061667 
0.043111 -0.893187 0.283113 -0 -0.0193428 0 75 72 70 255 0.200168 0.061667 
-0.04311 -0.893187 0.283113 -0 -0.0193428 0 75 72 70 255 0.200168 0.061667 
-0.04311 -0.893187 0.058773 -0 -0.0193428 0 75 72 70 255 0.200168 0.061667 
0.043111 -0.893187 0.283113 0 -0.0193428 -0 75 72 70 255 0.200168 0.061667 
-0.04311 -0.893187 0.058773 0 -0.0193428 -0 75 72 70 255 0.200168 0.061667 
0.043111 -0.893187 0.058773 0 -0.0193428 -0 75 72 70 255 0.200168 0.061667 
-0.04311 -0.893187 0.283113 -0.012211 0 0 91 88 86 255 0.244197 0.061667 
-0.04311 -0.804778 0.196892 -0.012211 0 0 91 88 86 255 0.244197 0.061667 
-0.04311 -0.804778 0.058773 -0.012211 0 0 91 88 86 255 0.244197 0.061667 
-0.04311 -0.893187 0.283113 -0.0198337 0 0 91 88 86 255 0.244197 0.061667 
-0.04311 -0.804778 0.058773 -0.0198337 0 0 91 88 86 255 0.244197 0.061667 
-0.04311 -0.893187 0.058773 -0.0198337 0 0 91 88 86 255 0.244197 0.061667 
-0.04311 0.893187 0.058773 0 0 0.00246187 108 105 102 255 0.26373 0.062198 
0.043111 0.893187 0.058773 0 0 0.00246187 108 105 102 255 0.26373 0.062198 
0.070955 0.92174 0.058773 0 0 0.00246187 108 105 102 255 0.26373 0.062198 
-0.04311 0.893187 0.058773 0 -0 0.00405201 108 105 102 255 0.26373 0.062198 
0.070955 0.92174 0.058773 0 -0 0.00405201 108 105 102 255 0.26373 0.062198 
-0.070957 0.92174 0.058773 0 -0 0.00405201 108 105 102 255 0.26373 0.062198 
0.043111 0.893187 0.058773 0 0 0.00246166 108 105 102 255 0.26373 0.062198 
0.043111 0.804778 0.058773 0 0 0.00246166 108 105 102 255 0.26373 0.062198 
0.070955 0.776225 0.058773 0 0 0.00246166 108 105 102 255 0.26373 0.062198 
0.043111 0.893187 0.058773 -0 0 0.00405172 108 105 102 255 0.26373 0.062198 
0.070955 0.776225 0.058773 -0 0 0.00405172 108 105 102 255 0.26373 0.062198 
0.070955 0.92174 0.058773 -0 0 0.00405172 108 105 102 255 0.26373 0.062198 
0.043111 0.804778 0.058773 0 0 0.00246187 108 105 102 255 0.26373 0.062198 
-0.04311 0.804778 0.058773 0 0 0.00246187 108 105 102 255 0.26373 0.062198 
-0.070957 0.776225 0.058773 0 0 0.00246187 108 105 102 255 0.26373 0.062198 
0.043111 0.804778 0.058773 0 0 0.00405201 108 105 102 255 0.26373 0.062198 
-0.070957 0.776225 0.058773 0 0 0.00405201 108 105 102 255 0.26373 0.062198 
0.070955 0.776225 0.058773 0 0 0.00405201 108 105 102 255 0.26373 0.062198 
-0.04311 0.804778 0.058773 0 -0 0.00246193 108 105 102 255 0.26373 0.062198 
-0.04311 0.893187 0.058773 0 -0 0.00246193 108 105 102 255 0.26373 0.062198 
-0.070957 0.92174 0.058773 0 -0 0.00246193 108 105 102 255 0.26373 0.062198 
-0.04311 0.804778 0.058773 0 0 0.00405216 108 105 102 255 0.26373 0.062198 
-0.070957 0.92174 0.058773 0 0 0.00405216 108 105 102 255 0.26373 0.062198 
-0.070957 0.776225 0.058773 0 0 0.00405216 108 105 102 255 0.26373 0.062198 
-0.04311 -0.804778 0.058773 0 0 0.00246187 108 105 102 255 0.26373 0.062198 
0.043111 -0.804778 0.058773 0 0 0.00246187 108 105 102 255 0.26373 0.062198 
0.070958 -0.776225 0.058773 0 0 0.00246187 108 105 102 255 0.26373 0.062198 
-0.04311 -0.804778 0.058773 0 -0 0.00405207 108 105 102 255 0.26373 0.062198 
0.070958 -0.776225 0.058773 0 -0 0.00405207 108 105 102 255 0.26373 0.062198 
-0.070956 -0.776225 0.058773 0 -0 0.00405207 108 105 102 255 0.26373 0.062198 
0.043111 -0.804778 0.058773 0 0 0.00246193 108 105 102 255 0.26373 0.062198 
0.043111 -0.893187 0.058773 0 0 0.00246193 108 105 102 255 0.26373 0.062198 
0.070958 -0.92174 0.058773 0 0 0.00246193 108 105 102 255 0.26373 0.062198 
0.043111 -0.804778 0.058773 -0 0 0.00405216 108 105 102 255 0.26373 0.062198 
0.070958 -0.92174 0.058773 -0 0 0.00405216 108 105 102 255 0.26373 0.062198 
0.070958 -0.776225 0.058773 -0 0 0.00405216 108 105 102 255 0.26373 0.062198 
0.043111 -0.893187 0.058773 0 0 0.00246187 108 105 102 255 0.26373 0.062198 
-0.04311 -0.893187 0.058773 0 0 0.00246187 108 105 102 255 0.26373 0.062198 
-0.070956 -0.92174 0.058773 0 0 0.00246187 108 105 102 255 0.26373 0.062198 
0.043111 -0.893187 0.058773 0 0 0.00405207 108 105 102 255 0.26373 0.062198 
-0.070956 -0.92174 0.058773 0 0 0.00405207 108 105 102 255 0.26373 0.062198 
0.070958 -0.92174 0.058773 0 0 0.00405207 108 105 102 255 0.26373 0.062198 
-0.04311 -0.893187 0.058773 0 -0 0.00246184 108 105 102 255 0.26373 0.062198 
-0.04311 -0.804778 0.058773 0 -0 0.00246184 108 105 102 255 0.26373 0.062198 
-0.070956 -0.776225 0.058773 0 -0 0.00246184 108 105 102 255 0.26373 0.062198 
-0.04311 -0.893187 0.058773 0 0 0.00405201 108 105 102 255 0.26373 0.062198 
-0.070956 -0.776225 0.058773 0 0 0.00405201 108 105 102 255 0.26373 0.062198 
-0.070956 -0.92174 0.058773 0 0 0.00405201 108 105 102 255 0.26373 0.062198 
-0.070957 0.92174 0.058773 -0 0.00834059 0 125 121 118 255 0.297952 0.062198 
0.070955 0.92174 0.058773 -0 0.00834059 0 125 121 118 255 0.297952 0.062198 
0.070955 0.92174 0 -0 0.00834059 0 125 121 118 255 0.297952 0.062198 
-0.070957 0.92174 0.058773 0 0.00834059 0 125 121 118 255 0.297952 0.062198 
0.070955 0.92174 0 0 0.00834059 0 125 121 118 255 0.297952 0.062198 
-0.070957 0.92174 0 0 0.00834059 0 125 121 118 255 0.297952 0.062198 
0.070955 0.92174 0.058773 0.00855235 0 0 91 88 86 255 0.235124 0.062198 
0.070955 0.776225 0.058773 0.00855235 0 0 91 88 86 255 0.235124 0.062198 
0.070955 0.776225 0 0.00855235 0 0 91 88 86 255 0.235124 0.062198 
0.070955 0.92174 0.058773 0.00855235 0 0 91 88 86 255 0.235124 0.062198 
0.070955 0.776225 0 0.00855235 0 0 91 88 86 255 0.235124 0.062198 
0.070955 0.92174 0 0.00855235 0 0 91 88 86 255 0.235124 0.062198 
0.070955 0.776225 0.058773 -0 -0.00834059 0 75 72 70 255 0.209288 0.062198 
-0.070957 0.776225 0.058773 -0 -0.00834059 0 75 72 70 255 0.209288 0.062198 
-0.070957 0.776225 0 -0 -0.00834059 0 75 72 70 255 0.209288 0.062198 
0.070955 0.776225 0.058773 0 -0.00834059 -0 75 72 70 255 0.209288 0.062198 
-0.070957 0.776225 0 0 -0.00834059 -0 75 72 70 255 0.209288 0.062198 
0.070955 0.776225 0 0 -0.00834059 -0 75 72 70 255 0.209288 0.062198 
-0.070957 0.776225 0.058773 -0.00855235 0 0 91 88 86 255 0.235124 0.062198 
-0.070957 0.92174 0.058773 -0.00855235 0 0 91 88 86 255 0.235124 0.062198 
-0.070957 0.92174 0 -0.00855235 0 0 91 88 86 255 0.235124 0.062198 
-0.070957 0.776225 0.058773 -0.00855235 0 0 91 88 86 255 0.235124 0.062198 
-0.070957 0.92174 0 -0.00855235 0 0 91 88 86 255 0.235124 0.062198 
-0.070957 0.776225 0 -0.00855235 0 0 91 88 86 255 0.235124 0.062198 
-0.070956 -0.776225 0.058773 -0 0.00834071 0 125 121 118 255 0.297952 0.062198 
0.070958 -0.776225 0.058773 -0 0.00834071 0 125 121 118 255 0.297952 0.062198 
0.070958 -0.776225 0 -0 0.00834071 0 125 121 118 255 0.297952 0.062198 
-0.070956 -0.776225 0.058773 0 0.00834071 0 125 121 118 255 0.297952 0.062198 
0.070958 -0.776225 0 0 0.00834071 0 125 121 118 255 0.297952 0.062198 
-0.070956 -0.776225 0 0 0.00834071 0 125 121 118 255 0.297952 0.062198 
0.070958 -0.776225 0.058773 0.00855235 0 0 91 88 86 255 0.235124 0.062198 
0.070958 -0.92174 0.058773 0.00855235 0 0 91 88 86 255 0.235124 0.062198 
0.070958 -0.92174 0 0.00855235 0 0 91 88 86 255 0.235124 0.062198 
0.070958 -0.776225 0.058773 0.00855235 0 0 91 88 86 255 0.235124 0.062198 
0.070958 -0.92174 0 0.00855235 0 0 91 88 86 255 0.235124 0.062198 
0.070958 -0.776225 0 0.00855235 0 0 91 88 86 255 0.235124 0.062198 
0.070958 -0.92174 0.058773 -0 -0.00834071 0 75 72 70 255 0.209288 0.062198 
-0.070956 -0.92174 0.058773 -0 -0.00834071 0 75 72 70 255 0.209288 0.062198 
-0.070956 -0.92174 0 -0 -0.00834071 0 75 72 70 255 0.209288 0.062198 
0.070958 -0.92174 0.058773 0 -0.00834071 -0 75 72 70 255 0.209288 0.062198 
-0.070956 -0.92174 0 0 -0.00834071 -0 75 72 70 255 0.209288 0.062198 
0.070958 -0.92174 0 0 -0.00834071 -0 75 72 70 255 0.209288 0.062198 
-0.070956 -0.92174 0.058773 -0.00855235 0 0 91 88 86 255 0.235124 0.062198 
-0.070956 -0.776225 0.058773 -0.00855235 0 0 91 88 86 255 0.235124 0.062198 
-0.070956 -0.776225 0 -0.00855235 0 0 91 88 86 255 0.235124 0.062198 
-0.070956 -0.92174 0.058773 -0.00855235 0 0 91 88 86 255 0.235124 0.062198 
-0.070956 -0.776225 0 -0.00855235 0 0 91 88 86 255 0.235124 0.062198 
-0.070956 -0.92174 0 -0.00855235 0 0 91 88 86 255 0.235124 0.062198 
3 0 1 2
3 3 4 5
3 6 7 8
3 9 10 11
3 12 13 14
3 15 16 17
3 18 19 20
3 21 22 23
3 24 25 26
3 27 28 29
3 30 31 32
3 33 34 35
3 36 37 38
3 39 40 41
3 42 43 44
3 45 46 47
3 48 49 50
3 51 52 53
3 54 55 56
3 57 58 59
3 60 61 62
3 63 64 65
3 66 67 68
3 69 70 71
3 72 73 74
3 75 76 77
3 78 79 80
3 81 82 83
3 84 85 86
3 87 88 89
3 90 91 92
3 93 94 95
3 96 97 98
3 99 100 101
3 102 103 104
3 105 106 107
3 108 109 110
3 111 112 113
3 114 115 116
3 117 118 119
3 120 121 122
3 123 124 125
3 126 127 128
3 129 130 131
3 132 133 134
3 135 136 137
3 138 139 140
3 141 142 143
3 144 145 146
3 147 148 149
3 150 151 152
3 153 154 155
3 156 157 158
3 159 160 161
3 162 163 164
3 165 166 167
