ply
format ascii 1.0
comment Feeney's Flatenator generated
comment TextureFile SpaceInteriors_Texture.png
element vertex 594
property float x
property float y
property float z
property float nx
property float ny
property float nz
property float texture_u
property float texture_v
element face 198
property list uchar int vertex_indices
end_header
-0.280647 0 0.409897 0 0 0.0703509 0.327495 0.472971 
0.280647 0 0.409897 0 0 0.0703509 0.327495 0.472971 
0.280647 0.125337 0.409897 0 0 0.0703509 0.327495 0.472971 
-0.280647 0 0.409897 0 0 0.0703509 0.327495 0.472971 
0.280647 0.125337 0.409897 0 0 0.0703509 0.327495 0.472971 
-0.280647 0.125337 0.409897 0 0 0.0703509 0.327495 0.472971 
-0.093132 0.846272 -0.237129 0 0.0242768 -0.0124122 0.357983 0.478643 
0.093157 0.846272 -0.237129 0 0.0242768 -0.0124122 0.357983 0.478643 
0.093157 0.779643 -0.367447 0 0.0242768 -0.0124122 0.357983 0.478643 
-0.093132 0.846272 -0.237129 0 0.0242768 -0.0124122 0.357983 0.478643 
0.093157 0.779643 -0.367447 0 0.0242768 -0.0124122 0.357983 0.478643 
-0.093132 0.779643 -0.367447 0 0.0242768 -0.0124122 0.357983 0.478643 
-0.280647 0.125337 -0.483055 0 0 -0.0703509 0.327495 0.472971 
0.280647 0.125337 -0.483055 0 0 -0.0703509 0.327495 0.472971 
0.280647 0 -0.483055 0 0 -0.0703509 0.327495 0.472971 
-0.280647 0.125337 -0.483055 0 0 -0.0703509 0.327495 0.472971 
0.280647 0 -0.483055 0 0 -0.0703509 0.327495 0.472971 
-0.280647 0 -0.483055 0 0 -0.0703509 0.327495 0.472971 
-0.280647 0 -0.483055 0 -0.501209 0 0.297007 0.474389 
0.280647 0 -0.483055 0 -0.501209 0 0.297007 0.474389 
0.280647 0 0.409897 0 -0.501209 0 0.297007 0.474389 
-0.280647 0 -0.483055 0 -0.501209 0 0.297007 0.474389 
0.280647 0 0.409897 0 -0.501209 0 0.297007 0.474389 
-0.280647 0 0.409897 0 -0.501209 0 0.297007 0.474389 
0.280647 0 0.409897 0.11192 0 0 0.299843 0.474389 
0.280647 0 -0.483055 0.11192 0 0 0.299843 0.474389 
0.280647 0.125337 -0.483055 0.11192 0 0 0.299843 0.474389 
0.280647 0 0.409897 0.11192 -0 0 0.299843 0.474389 
0.280647 0.125337 -0.483055 0.11192 -0 0 0.299843 0.474389 
0.280647 0.125337 0.409897 0.11192 -0 0 0.299843 0.474389 
-0.280647 0 -0.483055 -0.11192 0 0 0.299843 0.474389 
-0.280647 0 0.409897 -0.11192 0 0 0.299843 0.474389 
-0.280647 0.125337 0.409897 -0.11192 0 0 0.299843 0.474389 
-0.280647 0 -0.483055 -0.11192 0 0 0.299843 0.474389 
-0.280647 0.125337 0.409897 -0.11192 0 0 0.299843 0.474389 
-0.280647 0.125337 -0.483055 -0.11192 0 0 0.299843 0.474389 
-0.280647 0.125337 0.409897 -0 0.243635 0 0.357983 0.478643 
0.280647 0.125337 0.409897 -0 0.243635 0 0.357983 0.478643 
0.175526 0.125337 -0.024162 -0 0.243635 0 0.357983 0.478643 
-0.280647 0.125337 0.409897 0 0.152376 0 0.357983 0.478643 
0.175526 0.125337 -0.024162 0 0.152376 0 0.357983 0.478643 
-0.175524 0.125337 -0.024162 0 0.152376 0 0.357983 0.478643 
0.280647 0.125337 0.409897 0 0.093868 0 0.357983 0.478643 
0.280647 0.125337 -0.483055 0 0.093868 0 0.357983 0.478643 
0.175526 0.125337 -0.42104 0 0.093868 0 0.357983 0.478643 
0.280647 0.125337 0.409897 0 0.0417202 0 0.357983 0.478643 
0.175526 0.125337 -0.42104 0 0.0417202 0 0.357983 0.478643 
0.175526 0.125337 -0.024162 0 0.0417202 0 0.357983 0.478643 
0.280647 0.125337 -0.483055 0 0.0348086 0 0.357983 0.478643 
-0.280647 0.125337 -0.483055 0 0.0348086 0 0.357983 0.478643 
-0.175524 0.125337 -0.42104 0 0.0348086 0 0.357983 0.478643 
0.280647 0.125337 -0.483055 0 0.0217704 0 0.357983 0.478643 
-0.175524 0.125337 -0.42104 0 0.0217704 0 0.357983 0.478643 
0.175526 0.125337 -0.42104 0 0.0217704 0 0.357983 0.478643 
-0.280647 0.125337 -0.483055 0 0.0938698 0 0.357983 0.478643 
-0.280647 0.125337 0.409897 0 0.0938698 0 0.357983 0.478643 
-0.175524 0.125337 -0.024162 0 0.0938698 0 0.357983 0.478643 
-0.280647 0.125337 -0.483055 0 0.041721 0 0.357983 0.478643 
-0.175524 0.125337 -0.024162 0 0.041721 0 0.357983 0.478643 
-0.175524 0.125337 -0.42104 0 0.041721 0 0.357983 0.478643 
-0.175524 0.125337 -0.024162 0 0 0.102785 0.327495 0.472971 
0.175526 0.125337 -0.024162 0 0 0.102785 0.327495 0.472971 
0.175526 0.418129 -0.024162 0 0 0.102785 0.327495 0.472971 
-0.175524 0.125337 -0.024162 0 0 0.102785 0.327495 0.472971 
0.175526 0.418129 -0.024162 0 0 0.102785 0.327495 0.472971 
-0.175524 0.418129 -0.024162 0 0 0.102785 0.327495 0.472971 
0.266468 0.224979 -0.170708 0.00970509 0 0 0.079694 0.477835 
0.266468 0.224979 -0.274498 0.00970509 0 0 0.079694 0.477835 
0.266468 0.318486 -0.274498 0.00970509 0 0 0.079694 0.477835 
0.266468 0.224979 -0.170708 0.00970509 -0 0 0.079694 0.477835 
0.266468 0.318486 -0.274498 0.00970509 -0 0 0.079694 0.477835 
0.266468 0.318486 -0.170708 0.00970509 -0 0 0.079694 0.477835 
0.175526 0.125337 -0.42104 0 0 -0.102785 0.327495 0.472971 
-0.175524 0.125337 -0.42104 0 0 -0.102785 0.327495 0.472971 
-0.175524 0.418129 -0.42104 0 0 -0.102785 0.327495 0.472971 
0.175526 0.125337 -0.42104 0 0 -0.102785 0.327495 0.472971 
-0.175524 0.418129 -0.42104 0 0 -0.102785 0.327495 0.472971 
0.175526 0.418129 -0.42104 0 0 -0.102785 0.327495 0.472971 
-0.175524 0.125337 -0.42104 -0.116203 0 0 0.299843 0.474389 
-0.175524 0.125337 -0.024162 -0.116203 0 0 0.299843 0.474389 
-0.175524 0.418129 -0.024162 -0.116203 0 0 0.299843 0.474389 
-0.175524 0.125337 -0.42104 -0.116203 0 0 0.299843 0.474389 
-0.175524 0.418129 -0.024162 -0.116203 0 0 0.299843 0.474389 
-0.175524 0.418129 -0.42104 -0.116203 0 0 0.299843 0.474389 
-0.175524 0.418129 -0.024162 -0 0.0570291 0.0131567 0.327495 0.472971 
0.175526 0.418129 -0.024162 -0 0.0570291 0.0131567 0.327495 0.472971 
0.092634 0.455607 -0.186615 -0 0.0570291 0.0131567 0.327495 0.472971 
-0.175524 0.418129 -0.024162 0 0.0301001 0.00694411 0.327495 0.472971 
0.092634 0.455607 -0.186615 0 0.0301001 0.00694411 0.327495 0.472971 
-0.092651 0.455607 -0.186615 0 0.0301001 0.00694411 0.327495 0.472971 
0.175526 0.418129 -0.024162 0.0148742 0.032898 0 0.357983 0.478643 
0.175526 0.418129 -0.42104 0.0148742 0.032898 0 0.357983 0.478643 
0.092634 0.455607 -0.367447 0.0148742 0.032898 0 0.357983 0.478643 
0.175526 0.418129 -0.024162 0.00677722 0.0149895 0 0.357983 0.478643 
0.092634 0.455607 -0.367447 0.00677722 0.0149895 0 0.357983 0.478643 
0.092634 0.455607 -0.186615 0.00677722 0.0149895 0 0.357983 0.478643 
0.175526 0.418129 -0.42104 0 0.0188138 -0.0131567 0.357983 0.478643 
-0.175524 0.418129 -0.42104 0 0.0188138 -0.0131567 0.357983 0.478643 
-0.092651 0.455607 -0.367447 0 0.0188138 -0.0131567 0.357983 0.478643 
0.175526 0.418129 -0.42104 0 0.00992998 -0.00694411 0.357983 0.478643 
-0.092651 0.455607 -0.367447 0 0.00992998 -0.00694411 0.357983 0.478643 
0.092634 0.455607 -0.367447 0 0.00992998 -0.00694411 0.357983 0.478643 
-0.175524 0.418129 -0.42104 -0.0148742 0.0328905 0 0.357983 0.478643 
-0.175524 0.418129 -0.024162 -0.0148742 0.0328905 0 0.357983 0.478643 
-0.092651 0.455607 -0.186615 -0.0148742 0.0328905 0 0.357983 0.478643 
-0.175524 0.418129 -0.42104 -0.00677722 0.0149861 0 0.357983 0.478643 
-0.092651 0.455607 -0.186615 -0.00677722 0.0149861 0 0.357983 0.478643 
-0.092651 0.455607 -0.367447 -0.00677722 0.0149861 0 0.357983 0.478643 
-0.092651 0.455607 -0.186615 0 0 0.0452977 0.327495 0.472971 
0.092634 0.455607 -0.186615 0 0 0.0452977 0.327495 0.472971 
0.093157 0.700083 -0.186615 0 0 0.0452977 0.327495 0.472971 
-0.092651 0.455607 -0.186615 0 -0 0.0455432 0.327495 0.472971 
0.093157 0.700083 -0.186615 0 -0 0.0455432 0.327495 0.472971 
-0.093132 0.700083 -0.186615 0 -0 0.0455432 0.327495 0.472971 
0.092634 0.455607 -0.186615 0.0585961 -9.45753e-05 0 0.299843 0.474389 
0.092634 0.455607 -0.367447 0.0585961 -9.45753e-05 0 0.299843 0.474389 
0.093157 0.779643 -0.367447 0.0585961 -9.45753e-05 0 0.299843 0.474389 
0.092634 0.455607 -0.186615 0.0442091 -9.45753e-05 -4.161e-05 0.299843 0.474389 
0.093157 0.779643 -0.367447 0.0442091 -9.45753e-05 -4.161e-05 0.299843 0.474389 
0.093157 0.700083 -0.186615 0.0442091 -9.45753e-05 -4.161e-05 0.299843 0.474389 
0.092634 0.455607 -0.367447 0 0 -0.060039 0.327495 0.472971 
-0.092651 0.455607 -0.367447 0 0 -0.060039 0.327495 0.472971 
-0.093132 0.779643 -0.367447 0 0 -0.060039 0.327495 0.472971 
0.092634 0.455607 -0.367447 0 0 -0.0603643 0.327495 0.472971 
-0.093132 0.779643 -0.367447 0 0 -0.0603643 0.327495 0.472971 
0.093157 0.779643 -0.367447 0 0 -0.0603643 0.327495 0.472971 
-0.092651 0.455607 -0.367447 -0.0442091 -8.69792e-05 0 0.299843 0.474389 
-0.092651 0.455607 -0.186615 -0.0442091 -8.69792e-05 0 0.299843 0.474389 
-0.093132 0.700083 -0.186615 -0.0442091 -8.69792e-05 0 0.299843 0.474389 
-0.092651 0.455607 -0.367447 -0.0585961 -8.69792e-05 -3.82679e-05 0.299843 0.474389 
-0.093132 0.700083 -0.186615 -0.0585961 -8.69792e-05 -3.82679e-05 0.299843 0.474389 
-0.093132 0.779643 -0.367447 -0.0585961 -8.69792e-05 -3.82679e-05 0.299843 0.474389 
-0.172028 0.774612 0.205315 0 0 0.0255278 0.327495 0.472971 
0.17205 0.774612 0.205315 0 0 0.0255278 0.327495 0.472971 
0.17205 0.848804 0.205315 0 0 0.0255278 0.327495 0.472971 
-0.172028 0.774612 0.205315 0 0 0.0255278 0.327495 0.472971 
0.17205 0.848804 0.205315 0 0 0.0255278 0.327495 0.472971 
-0.172028 0.848804 0.205315 0 0 0.0255278 0.327495 0.472971 
0.093157 0.700083 -0.186615 0.0224167 0 0 0.299843 0.474389 
0.093157 0.779643 -0.367447 0.0224167 0 0 0.299843 0.474389 
0.093157 0.846272 -0.237129 0.0224167 0 0 0.299843 0.474389 
-0.093132 0.779643 -0.367447 -0.0224167 0 0 0.299843 0.474389 
-0.093132 0.700083 -0.186615 -0.0224167 0 0 0.299843 0.474389 
-0.093132 0.846272 -0.237129 -0.0224167 0 0 0.299843 0.474389 
-0.093132 0.700083 -0.186615 0 -0.035782 0.0134122 0.297007 0.474389 
0.093157 0.700083 -0.186615 0 -0.035782 0.0134122 0.297007 0.474389 
0.17205 0.77208 0.005463 0 -0.035782 0.0134122 0.297007 0.474389 
-0.093132 0.700083 -0.186615 0 -0.0660898 0.0247726 0.297007 0.474389 
0.17205 0.77208 0.005463 0 -0.0660898 0.0247726 0.297007 0.474389 
-0.172028 0.77208 0.005463 0 -0.0660898 0.0247726 0.297007 0.474389 
0.093157 0.700083 -0.186615 0.0354643 -0.0039852 -0.0115333 0.299843 0.474389 
0.093157 0.846272 -0.237129 0.0354643 -0.0039852 -0.0115333 0.299843 0.474389 
0.17205 0.846272 0.005463 0.0354643 -0.0039852 -0.0115333 0.299843 0.474389 
0.093157 0.700083 -0.186615 0.0142506 0 -0.00585323 0.299843 0.474389 
0.17205 0.846272 0.005463 0.0142506 0 -0.00585323 0.299843 0.474389 
0.17205 0.77208 0.005463 0.0142506 0 -0.00585323 0.299843 0.474389 
0.093157 0.846272 -0.237129 0 0.0451922 0 0.357983 0.478643 
-0.093132 0.846272 -0.237129 0 0.0451922 0 0.357983 0.478643 
-0.172028 0.846272 0.005463 0 0.0451922 0 0.357983 0.478643 
0.093157 0.846272 -0.237129 0 0.0834706 -0 0.357983 0.478643 
-0.172028 0.846272 0.005463 0 0.0834706 -0 0.357983 0.478643 
0.17205 0.846272 0.005463 0 0.0834706 -0 0.357983 0.478643 
-0.093132 0.846272 -0.237129 -0.0317165 -0.00398535 -0.0115337 0.299843 0.474389 
-0.093132 0.700083 -0.186615 -0.0317165 -0.00398535 -0.0115337 0.299843 0.474389 
-0.172028 0.77208 0.005463 -0.0317165 -0.00398535 -0.0115337 0.299843 0.474389 
-0.093132 0.846272 -0.237129 -0.0179984 0 -0.00585345 0.299843 0.474389 
-0.172028 0.77208 0.005463 -0.0179984 0 -0.00585345 0.299843 0.474389 
-0.172028 0.846272 0.005463 -0.0179984 0 -0.00585345 0.299843 0.474389 
-0.172028 0.77208 0.005463 0 -0.0687647 0.000871207 0.297007 0.474389 
0.17205 0.77208 0.005463 0 -0.0687647 0.000871207 0.297007 0.474389 
0.17205 0.774612 0.205315 0 -0.0687647 0.000871207 0.297007 0.474389 
-0.172028 0.77208 0.005463 0 -0.0687647 0.000871207 0.297007 0.474389 
0.17205 0.774612 0.205315 0 -0.0687647 0.000871207 0.297007 0.474389 
-0.172028 0.774612 0.205315 0 -0.0687647 0.000871207 0.297007 0.474389 
0.17205 0.77208 0.005463 0.0148274 0 0 0.299843 0.474389 
0.17205 0.846272 0.005463 0.0148274 0 0 0.299843 0.474389 
0.17205 0.848804 0.205315 0.0148274 0 0 0.299843 0.474389 
0.17205 0.77208 0.005463 0.0148274 0 0 0.299843 0.474389 
0.17205 0.848804 0.205315 0.0148274 0 0 0.299843 0.474389 
0.17205 0.774612 0.205315 0.0148274 0 0 0.299843 0.474389 
0.17205 0.930623 0.067604 0 0.0263719 -0.00359871 0.357983 0.478643 
-0.172028 0.930623 0.067604 0 0.0263719 -0.00359871 0.357983 0.478643 
-0.172028 0.941082 0.144249 0 0.0263719 -0.00359871 0.357983 0.478643 
0.17205 0.930623 0.067604 0 0.0263719 -0.00359871 0.357983 0.478643 
-0.172028 0.941082 0.144249 0 0.0263719 -0.00359871 0.357983 0.478643 
0.17205 0.941082 0.144249 0 0.0263719 -0.00359871 0.357983 0.478643 
-0.172028 0.846272 0.005463 -0.0148274 0 0 0.299843 0.474389 
-0.172028 0.77208 0.005463 -0.0148274 0 0 0.299843 0.474389 
-0.172028 0.774612 0.205315 -0.0148274 0 0 0.299843 0.474389 
-0.172028 0.846272 0.005463 -0.0148274 0 0 0.299843 0.474389 
-0.172028 0.774612 0.205315 -0.0148274 0 0 0.299843 0.474389 
-0.172028 0.848804 0.205315 -0.0148274 0 0 0.299843 0.474389 
0.17205 0.846272 0.005463 0 0.0213814 -0.0290233 0.357983 0.478643 
-0.172028 0.846272 0.005463 0 0.0213814 -0.0290233 0.357983 0.478643 
-0.172028 0.930623 0.067604 0 0.0213814 -0.0290233 0.357983 0.478643 
0.17205 0.846272 0.005463 0 0.0213814 -0.0290233 0.357983 0.478643 
-0.172028 0.930623 0.067604 0 0.0213814 -0.0290233 0.357983 0.478643 
0.17205 0.930623 0.067604 0 0.0213814 -0.0290233 0.357983 0.478643 
-0.172028 0.846272 0.005463 -0.0185966 0 0 0.299843 0.474389 
-0.172028 0.848804 0.205315 -0.0185966 0 0 0.299843 0.474389 
-0.172028 0.941082 0.144249 -0.0185966 0 0 0.299843 0.474389 
-0.172028 0.846272 0.005463 -0.00581515 0 0 0.299843 0.474389 
-0.172028 0.941082 0.144249 -0.00581515 0 0 0.299843 0.474389 
-0.172028 0.930623 0.067604 -0.00581515 0 0 0.299843 0.474389 
-0.172028 0.848804 0.205315 -0 0.0210115 0.0317508 0.327495 0.472971 
0.17205 0.848804 0.205315 -0 0.0210115 0.0317508 0.327495 0.472971 
0.17205 0.941082 0.144249 -0 0.0210115 0.0317508 0.327495 0.472971 
-0.172028 0.848804 0.205315 0 0.0210115 0.0317508 0.327495 0.472971 
0.17205 0.941082 0.144249 0 0.0210115 0.0317508 0.327495 0.472971 
-0.172028 0.941082 0.144249 0 0.0210115 0.0317508 0.327495 0.472971 
0.17205 0.848804 0.205315 0.0167004 0 0 0.299843 0.474389 
0.17205 0.846272 0.005463 0.0167004 0 0 0.299843 0.474389 
0.17205 0.930623 0.067604 0.0167004 0 0 0.299843 0.474389 
0.17205 0.848804 0.205315 0.00771134 0 0 0.299843 0.474389 
0.17205 0.930623 0.067604 0.00771134 0 0 0.299843 0.474389 
0.17205 0.941082 0.144249 0.00771134 0 0 0.299843 0.474389 
0.175526 0.125337 -0.024162 0.0269746 0 0 0.299843 0.474389 
0.175526 0.125337 -0.42104 0.0269746 0 0 0.299843 0.474389 
0.175526 0.193304 -0.309662 0.0269746 0 0 0.299843 0.474389 
0.175526 0.125337 -0.024162 0.0118343 0 0 0.299843 0.474389 
0.175526 0.193304 -0.309662 0.0118343 0 0 0.299843 0.474389 
0.175526 0.193304 -0.135544 0.0118343 0 0 0.299843 0.474389 
0.175526 0.125337 -0.42104 0.0326106 0 0 0.299843 0.474389 
0.175526 0.418129 -0.42104 0.0326106 0 0 0.299843 0.474389 
0.175526 0.350162 -0.309662 0.0326106 0 0 0.299843 0.474389 
0.175526 0.125337 -0.42104 0.0174705 0 0 0.299843 0.474389 
0.175526 0.350162 -0.309662 0.0174705 0 0 0.299843 0.474389 
0.175526 0.193304 -0.309662 0.0174705 0 0 0.299843 0.474389 
0.175526 0.418129 -0.42104 0.0269746 0 -0 0.299843 0.474389 
0.175526 0.418129 -0.024162 0.0269746 0 -0 0.299843 0.474389 
0.175526 0.350162 -0.135544 0.0269746 0 -0 0.299843 0.474389 
0.175526 0.418129 -0.42104 0.0118343 0 0 0.299843 0.474389 
0.175526 0.350162 -0.135544 0.0118343 0 0 0.299843 0.474389 
0.175526 0.350162 -0.309662 0.0118343 0 0 0.299843 0.474389 
0.175526 0.418129 -0.024162 0.0326118 0 0 0.299843 0.474389 
0.175526 0.125337 -0.024162 0.0326118 0 0 0.299843 0.474389 
0.175526 0.193304 -0.135544 0.0326118 0 0 0.299843 0.474389 
0.175526 0.418129 -0.024162 0.0174712 0 0 0.299843 0.474389 
0.175526 0.193304 -0.135544 0.0174712 0 0 0.299843 0.474389 
0.175526 0.350162 -0.135544 0.0174712 0 0 0.299843 0.474389 
0.175526 0.193304 -0.135544 0.00551519 -0.0158346 0 0.076858 0.477835 
0.175526 0.193304 -0.309662 0.00551519 -0.0158346 0 0.076858 0.477835 
0.266468 0.224979 -0.274498 0.00551519 -0.0158346 0 0.076858 0.477835 
0.175526 0.193304 -0.135544 0.00328755 -0.00943887 0 0.076858 0.477835 
0.266468 0.224979 -0.274498 0.00328755 -0.00943887 0 0.076858 0.477835 
0.266468 0.224979 -0.170708 0.00328755 -0.00943887 0 0.076858 0.477835 
0.175526 0.193304 -0.309662 0.00551576 0 -0.014265 0.107346 0.476417 
0.175526 0.350162 -0.309662 0.00551576 0 -0.014265 0.107346 0.476417 
0.266468 0.318486 -0.274498 0.00551576 0 -0.014265 0.107346 0.476417 
0.175526 0.193304 -0.309662 0.00328808 0 -0.00850371 0.107346 0.476417 
0.266468 0.318486 -0.274498 0.00328808 0 -0.00850371 0.107346 0.476417 
0.266468 0.224979 -0.274498 0.00328808 0 -0.00850371 0.107346 0.476417 
0.175526 0.350162 -0.309662 0.00551536 0.0158346 -0 0.137124 0.477835 
0.175526 0.350162 -0.135544 0.00551536 0.0158346 -0 0.137124 0.477835 
0.266468 0.318486 -0.170708 0.00551536 0.0158346 -0 0.137124 0.477835 
0.175526 0.350162 -0.309662 0.00328765 0.00943887 0 0.137124 0.477835 
0.266468 0.318486 -0.170708 0.00328765 0.00943887 0 0.137124 0.477835 
0.266468 0.318486 -0.274498 0.00328765 0.00943887 0 0.137124 0.477835 
0.175526 0.350162 -0.135544 0.00551575 0 0.014265 0.107346 0.476417 
0.175526 0.193304 -0.135544 0.00551575 0 0.014265 0.107346 0.476417 
0.266468 0.224979 -0.170708 0.00551575 0 0.014265 0.107346 0.476417 
0.175526 0.350162 -0.135544 0.00328808 0 0.00850371 0.107346 0.476417 
0.266468 0.224979 -0.170708 0.00328808 0 0.00850371 0.107346 0.476417 
0.266468 0.318486 -0.170708 0.00328808 0 0.00850371 0.107346 0.476417 
-0.248425 0.762334 0.257187 0 -0.00808176 0.00541194 0.076166 0.478527 
0 0.762334 0.257187 0 -0.00808176 0.00541194 0.076166 0.478527 
0 0.784119 0.289719 0 -0.00808176 0.00541194 0.076166 0.478528 
-0.248425 0.762334 0.257187 0 -0.00808176 0.00541194 0.076166 0.478527 
0 0.784119 0.289719 0 -0.00808176 0.00541194 0.076166 0.478528 
-0.248425 0.784119 0.289719 0 -0.00808176 0.00541194 0.076166 0.478528 
-0.149881 1.01019 0.463203 -0 0.00135882 0.00202852 0.198755 0.478494 
-0.098539 1.01019 0.463203 -0 0.00135882 0.00202852 0.198755 0.478494 
-0.098539 1.0497 0.436737 -0 0.00135882 0.00202852 0.198755 0.478494 
-0.149881 1.01019 0.463203 0 0.00135882 0.00202852 0.198755 0.478494 
-0.098539 1.0497 0.436737 0 0.00135882 0.00202852 0.198755 0.478494 
-0.149881 1.0497 0.436737 0 0.00135882 0.00202852 0.198755 0.478494 
-0.248425 0.975316 0.161652 0 0.00807978 -0.00541218 0.136432 0.478527 
0 0.975316 0.161652 0 0.00807978 -0.00541218 0.136432 0.478527 
0 0.95353 0.129128 0 0.00807978 -0.00541218 0.136432 0.478527 
-0.248425 0.975316 0.161652 0 0.00807978 -0.00541218 0.136432 0.478527 
0 0.95353 0.129128 0 0.00807978 -0.00541218 0.136432 0.478527 
-0.248425 0.95353 0.129128 0 0.00807978 -0.00541218 0.136432 0.478527 
-0.248425 0.95353 0.129128 0 -0.0318131 -0.0474979 0.106654 0.477109 
0 0.95353 0.129128 0 -0.0318131 -0.0474979 0.106653 0.477109 
0 0.762334 0.257187 0 -0.0318131 -0.0474979 0.106653 0.477109 
-0.248425 0.95353 0.129128 0 -0.0318131 -0.0474979 0.106654 0.477109 
0 0.762334 0.257187 0 -0.0318131 -0.0474979 0.106653 0.477109 
-0.248425 0.762334 0.257187 0 -0.0318131 -0.0474979 0.106654 0.477109 
0.248425 0.762334 0.257187 0.00900835 0 0 0.079002 0.478527 
0.248425 0.95353 0.129128 0.00900835 0 0 0.079002 0.478527 
0.248425 0.975316 0.161652 0.00900835 0 0 0.079002 0.478527 
0.248425 0.762334 0.257187 0.00900996 -0 0 0.079002 0.478527 
0.248425 0.975316 0.161652 0.00900996 -0 0 0.079002 0.478527 
0.248425 0.784119 0.289719 0.00900996 -0 0 0.079002 0.478527 
-0.248425 0.95353 0.129128 -0.00900975 0 0 0.079002 0.478527 
-0.248425 0.762334 0.257187 -0.00900975 0 0 0.079002 0.478527 
-0.248425 0.784119 0.289719 -0.00900975 0 0 0.079002 0.478527 
-0.248425 0.95353 0.129128 -0.00900856 0 0 0.079002 0.478527 
-0.248425 0.784119 0.289719 -0.00900856 0 0 0.079002 0.478527 
-0.248425 0.975316 0.161652 -0.00900856 0 0 0.079002 0.478527 
0 0.975316 0.161652 0 0.00807978 -0.00541218 0.136432 0.478527 
0.248425 0.975316 0.161652 0 0.00807978 -0.00541218 0.136432 0.478527 
0.248425 0.95353 0.129128 0 0.00807978 -0.00541218 0.136432 0.478527 
0 0.975316 0.161652 0 0.00807978 -0.00541218 0.136432 0.478527 
0.248425 0.95353 0.129128 0 0.00807978 -0.00541218 0.136432 0.478527 
0 0.95353 0.129128 0 0.00807978 -0.00541218 0.136432 0.478527 
0 0.762334 0.257187 0 -0.0318131 -0.0474979 0.106653 0.477109 
0 0.95353 0.129128 0 -0.0318131 -0.0474979 0.106653 0.477109 
0.248425 0.95353 0.129128 0 -0.0318131 -0.0474979 0.106653 0.477109 
0 0.762334 0.257187 0 -0.0318131 -0.0474979 0.106653 0.477109 
0.248425 0.95353 0.129128 0 -0.0318131 -0.0474979 0.106653 0.477109 
0.248425 0.762334 0.257187 0 -0.0318131 -0.0474979 0.106653 0.477109 
0 0.784119 0.289719 0 -0.00808176 0.00541194 0.076166 0.478528 
0 0.762334 0.257187 0 -0.00808176 0.00541194 0.076166 0.478527 
0.248425 0.762334 0.257187 0 -0.00808176 0.00541194 0.076166 0.478527 
0 0.784119 0.289719 0 -0.00808176 0.00541194 0.076166 0.478528 
0.248425 0.762334 0.257187 0 -0.00808176 0.00541194 0.076166 0.478527 
0.248425 0.784119 0.289719 0 -0.00808176 0.00541194 0.076166 0.478528 
0.098543 1.0497 0.436737 0 0.00135877 0.00202844 0.198755 0.478494 
0.098543 1.01019 0.463203 0 0.00135877 0.00202844 0.198755 0.478494 
0.149883 1.01019 0.463203 0 0.00135877 0.00202844 0.198755 0.478494 
0.098543 1.0497 0.436737 -0 0.00135877 0.00202844 0.198755 0.478494 
0.149883 1.01019 0.463203 -0 0.00135877 0.00202844 0.198755 0.478494 
0.149883 1.0497 0.436737 -0 0.00135877 0.00202844 0.198755 0.478494 
-0.248425 0.784119 0.289719 -0 0.0076895 0.0114787 0.106654 0.477109 
0 0.784119 0.289719 -0 0.0076895 0.0114787 0.106653 0.477109 
-0.060034 0.830325 0.258766 -0 0.0076895 0.0114787 0.106653 0.477109 
-0.248425 0.784119 0.289719 0 0.00397297 0.00593077 0.106654 0.477109 
-0.060034 0.830325 0.258766 0 0.00397297 0.00593077 0.106653 0.477109 
-0.188389 0.830325 0.258766 0 0.00397297 0.00593077 0.106654 0.477109 
0 0.784119 0.289719 4.67524e-07 0.00768837 0.0114783 0.106653 0.477109 
0 0.975316 0.161652 4.67524e-07 0.00768837 0.0114783 0.106653 0.477109 
-0.060034 0.92911 0.192604 4.67524e-07 0.00768837 0.0114783 0.106653 0.477109 
0 0.784119 0.289719 -6.09551e-07 0.00397197 0.00593046 0.106653 0.477109 
-0.060034 0.92911 0.192604 -6.09551e-07 0.00397197 0.00593046 0.106653 0.477109 
-0.060034 0.830325 0.258766 -6.09551e-07 0.00397197 0.00593046 0.106653 0.477109 
0 0.975316 0.161652 0 0.00768925 0.0114787 0.106653 0.477109 
-0.248425 0.975316 0.161652 0 0.00768925 0.0114787 0.106654 0.477109 
-0.188389 0.92911 0.192604 0 0.00768925 0.0114787 0.106654 0.477109 
0 0.975316 0.161652 0 0.00397285 0.00593077 0.106653 0.477109 
-0.188389 0.92911 0.192604 0 0.00397285 0.00593077 0.106654 0.477109 
-0.060034 0.92911 0.192604 0 0.00397285 0.00593077 0.106653 0.477109 
-0.248425 0.975316 0.161652 6.55651e-07 0.00768863 0.0114787 0.106654 0.477109 
-0.248425 0.784119 0.289719 6.55651e-07 0.00768863 0.0114787 0.106654 0.477109 
-0.188389 0.830325 0.258766 6.55651e-07 0.00768863 0.0114787 0.106654 0.477109 
-0.248425 0.975316 0.161652 -5.12693e-07 0.0039721 0.00593066 0.106654 0.477109 
-0.188389 0.830325 0.258766 -5.12693e-07 0.0039721 0.00593066 0.106654 0.477109 
-0.188389 0.92911 0.192604 -5.12693e-07 0.0039721 0.00593066 0.106654 0.477109 
0 0.975316 0.161652 6.55651e-07 0.00768863 0.0114787 0.106653 0.477109 
0 0.784119 0.289719 6.55651e-07 0.00768863 0.0114787 0.106653 0.477109 
0.060036 0.830325 0.258766 6.55651e-07 0.00768863 0.0114787 0.106653 0.477109 
0 0.975316 0.161652 -5.12693e-07 0.0039721 0.00593065 0.106653 0.477109 
0.060036 0.830325 0.258766 -5.12693e-07 0.0039721 0.00593065 0.106653 0.477109 
0.060036 0.92911 0.192604 -5.12693e-07 0.0039721 0.00593065 0.106653 0.477109 
0 0.784119 0.289719 -0 0.0076895 0.0114787 0.106653 0.477109 
0.248425 0.784119 0.289719 -0 0.0076895 0.0114787 0.106653 0.477109 
0.188389 0.830325 0.258766 -0 0.0076895 0.0114787 0.106653 0.477109 
0 0.784119 0.289719 0 0.00397291 0.00593068 0.106653 0.477109 
0.188389 0.830325 0.258766 0 0.00397291 0.00593068 0.106653 0.477109 
0.060036 0.830325 0.258766 0 0.00397291 0.00593068 0.106653 0.477109 
0.248425 0.784119 0.289719 4.67524e-07 0.00768863 0.0114787 0.106653 0.477109 
0.248425 0.975316 0.161652 4.67524e-07 0.00768863 0.0114787 0.106653 0.477109 
0.188389 0.92911 0.192604 4.67524e-07 0.00768863 0.0114787 0.106653 0.477109 
0.248425 0.784119 0.289719 -6.09551e-07 0.0039721 0.00593066 0.106653 0.477109 
0.188389 0.92911 0.192604 -6.09551e-07 0.0039721 0.00593066 0.106653 0.477109 
0.188389 0.830325 0.258766 -6.09551e-07 0.0039721 0.00593066 0.106653 0.477109 
0.248425 0.975316 0.161652 0 0.00768925 0.0114787 0.106653 0.477109 
0 0.975316 0.161652 0 0.00768925 0.0114787 0.106653 0.477109 
0.060036 0.92911 0.192604 0 0.00768925 0.0114787 0.106653 0.477109 
0.248425 0.975316 0.161652 0 0.00397278 0.00593068 0.106653 0.477109 
0.060036 0.92911 0.192604 0 0.00397278 0.00593068 0.106653 0.477109 
0.188389 0.92911 0.192604 0 0.00397278 0.00593068 0.106653 0.477109 
-0.188389 0.830325 0.258766 0 -0.0287886 0.0192821 0.05135 0.479237 
-0.060034 0.830325 0.258766 0 -0.0287886 0.0192821 0.05135 0.479237 
-0.060034 0.98055 0.483055 0 -0.0287886 0.0192821 0.05135 0.479237 
-0.188389 0.830325 0.258766 0 -0.0287886 0.0192821 0.05135 0.479237 
-0.060034 0.98055 0.483055 0 -0.0287886 0.0192821 0.05135 0.479237 
-0.188389 0.98055 0.483055 0 -0.0287886 0.0192821 0.05135 0.479237 
-0.060034 0.830325 0.258766 0.0320952 -0 0 0.079002 0.478527 
-0.060034 0.92911 0.192604 0.0320952 -0 0 0.079002 0.478527 
-0.060034 1.07933 0.416893 0.0320952 -0 0 0.079002 0.478527 
-0.060034 0.830325 0.258766 0.0320944 0 0 0.079002 0.478527 
-0.060034 1.07933 0.416893 0.0320944 0 0 0.079002 0.478527 
-0.060034 0.98055 0.483055 0.0320944 0 0 0.079002 0.478527 
-0.060034 0.92911 0.192604 0 0.0287886 -0.0192815 0.136432 0.478527 
-0.188389 0.92911 0.192604 0 0.0287886 -0.0192815 0.136432 0.478527 
-0.188389 1.07933 0.416893 0 0.0287886 -0.0192815 0.136432 0.478527 
-0.060034 0.92911 0.192604 0 0.0287886 -0.0192815 0.136432 0.478527 
-0.188389 1.07933 0.416893 0 0.0287886 -0.0192815 0.136432 0.478527 
-0.060034 1.07933 0.416893 0 0.0287886 -0.0192815 0.136432 0.478527 
-0.188389 0.92911 0.192604 -0.0320956 0 0 0.079002 0.478527 
-0.188389 0.830325 0.258766 -0.0320956 0 0 0.079002 0.478527 
-0.188389 0.98055 0.483055 -0.0320956 0 0 0.079002 0.478527 
-0.188389 0.92911 0.192604 -0.0320941 0 0 0.079002 0.478527 
-0.188389 0.98055 0.483055 -0.0320941 0 0 0.079002 0.478527 
-0.188389 1.07933 0.416893 -0.0320941 0 0 0.079002 0.478527 
0.060036 0.92911 0.192604 -0.0320956 0 0 0.079002 0.478527 
0.060036 0.830325 0.258766 -0.0320956 0 0 0.079002 0.478527 
0.060036 0.98055 0.483055 -0.0320956 0 0 0.079002 0.478527 
0.060036 0.92911 0.192604 -0.0320941 0 0 0.079002 0.478527 
0.060036 0.98055 0.483055 -0.0320941 0 0 0.079002 0.478527 
0.060036 1.07933 0.416893 -0.0320941 0 0 0.079002 0.478527 
0.060036 0.830325 0.258766 0 -0.0287882 0.0192818 0.05135 0.479237 
0.188389 0.830325 0.258766 0 -0.0287882 0.0192818 0.05135 0.479237 
0.188389 0.98055 0.483055 0 -0.0287882 0.0192818 0.05135 0.479237 
0.060036 0.830325 0.258766 0 -0.0287882 0.0192818 0.05135 0.479237 
0.188389 0.98055 0.483055 0 -0.0287882 0.0192818 0.05135 0.479237 
0.060036 0.98055 0.483055 0 -0.0287882 0.0192818 0.05135 0.479237 
0.188389 0.830325 0.258766 0.0320952 -0 0 0.079002 0.478527 
0.188389 0.92911 0.192604 0.0320952 -0 0 0.079002 0.478527 
0.188389 1.07933 0.416893 0.0320952 -0 0 0.079002 0.478527 
0.188389 0.830325 0.258766 0.0320944 0 0 0.079002 0.478527 
0.188389 1.07933 0.416893 0.0320944 0 0 0.079002 0.478527 
0.188389 0.98055 0.483055 0.0320944 0 0 0.079002 0.478527 
0.188389 0.92911 0.192604 0 0.0287882 -0.0192812 0.136432 0.478527 
0.060036 0.92911 0.192604 0 0.0287882 -0.0192812 0.136432 0.478527 
0.060036 1.07933 0.416893 0 0.0287882 -0.0192812 0.136432 0.478527 
0.188389 0.92911 0.192604 0 0.0287882 -0.0192812 0.136432 0.478527 
0.060036 1.07933 0.416893 0 0.0287882 -0.0192812 0.136432 0.478527 
0.188389 1.07933 0.416893 0 0.0287882 -0.0192812 0.136432 0.478527 
-0.188389 0.98055 0.483055 -0 0.0025481 0.00380444 0.136432 0.478527 
-0.060034 0.98055 0.483055 -0 0.0025481 0.00380444 0.136432 0.478527 
-0.098539 1.01019 0.463203 -0 0.0025481 0.00380444 0.136432 0.478527 
-0.188389 0.98055 0.483055 0 0.00101924 0.00152178 0.136432 0.478527 
-0.098539 1.01019 0.463203 0 0.00101924 0.00152178 0.136432 0.478527 
-0.149881 1.01019 0.463203 0 0.00101924 0.00152178 0.136432 0.478527 
-0.060034 0.98055 0.483055 -1.8673e-07 0.00254757 0.00380352 0.136432 0.478527 
-0.060034 1.07933 0.416893 -1.8673e-07 0.00254757 0.00380352 0.136432 0.478527 
-0.098539 1.0497 0.436737 -1.8673e-07 0.00254757 0.00380352 0.136432 0.478527 
-0.060034 0.98055 0.483055 1.01048e-07 0.00101907 0.00152133 0.136432 0.478527 
-0.098539 1.0497 0.436737 1.01048e-07 0.00101907 0.00152133 0.136432 0.478527 
-0.098539 1.01019 0.463203 1.01048e-07 0.00101907 0.00152133 0.136432 0.478527 
-0.060034 1.07933 0.416893 0 0.00254708 0.00380315 0.136432 0.478527 
-0.188389 1.07933 0.416893 0 0.00254708 0.00380315 0.136432 0.478527 
-0.149881 1.0497 0.436737 0 0.00254708 0.00380315 0.136432 0.478527 
-0.060034 1.07933 0.416893 0 0.00101883 0.00152126 0.136432 0.478527 
-0.149881 1.0497 0.436737 0 0.00101883 0.00152126 0.136432 0.478527 
-0.098539 1.0497 0.436737 0 0.00101883 0.00152126 0.136432 0.478527 
-0.188389 1.07933 0.416893 -6.42613e-08 0.00254777 0.00380382 0.136432 0.478527 
-0.188389 0.98055 0.483055 -6.42613e-08 0.00254777 0.00380382 0.136432 0.478527 
-0.149881 1.01019 0.463203 -6.42613e-08 0.00254777 0.00380382 0.136432 0.478527 
-0.188389 1.07933 0.416893 1.50059e-07 0.00101915 0.00152145 0.136432 0.478527 
-0.149881 1.01019 0.463203 1.50059e-07 0.00101915 0.00152145 0.136432 0.478527 
-0.149881 1.0497 0.436737 1.50059e-07 0.00101915 0.00152145 0.136432 0.478527 
0.060036 1.07933 0.416893 -6.42613e-08 0.0025477 0.00380372 0.136432 0.478527 
0.060036 0.98055 0.483055 -6.42613e-08 0.0025477 0.00380372 0.136432 0.478527 
0.098543 1.01019 0.463203 -6.42613e-08 0.0025477 0.00380372 0.136432 0.478527 
0.060036 1.07933 0.416893 1.50059e-07 0.00101913 0.00152141 0.136432 0.478527 
0.098543 1.01019 0.463203 1.50059e-07 0.00101913 0.00152141 0.136432 0.478527 
0.098543 1.0497 0.436737 1.50059e-07 0.00101913 0.00152141 0.136432 0.478527 
0.060036 0.98055 0.483055 -0 0.00254806 0.00380439 0.136432 0.478527 
0.188389 0.98055 0.483055 -0 0.00254806 0.00380439 0.136432 0.478527 
0.149883 1.01019 0.463203 -0 0.00254806 0.00380439 0.136432 0.478527 
0.060036 0.98055 0.483055 0 0.0010192 0.00152172 0.136432 0.478527 
0.149883 1.01019 0.463203 0 0.0010192 0.00152172 0.136432 0.478527 
0.098543 1.01019 0.463203 0 0.0010192 0.00152172 0.136432 0.478527 
0.188389 0.98055 0.483055 -1.8673e-07 0.00254763 0.00380362 0.136432 0.478527 
0.188389 1.07933 0.416893 -1.8673e-07 0.00254763 0.00380362 0.136432 0.478527 
0.149883 1.0497 0.436737 -1.8673e-07 0.00254763 0.00380362 0.136432 0.478527 
0.188389 0.98055 0.483055 1.01048e-07 0.0010191 0.00152137 0.136432 0.478527 
0.149883 1.0497 0.436737 1.01048e-07 0.0010191 0.00152137 0.136432 0.478527 
0.149883 1.01019 0.463203 1.01048e-07 0.0010191 0.00152137 0.136432 0.478527 
0.188389 1.07933 0.416893 0 0.00254704 0.00380309 0.136432 0.478527 
0.060036 1.07933 0.416893 0 0.00254704 0.00380309 0.136432 0.478527 
0.098543 1.0497 0.436737 0 0.00254704 0.00380309 0.136432 0.478527 
0.188389 1.07933 0.416893 0 0.00101879 0.0015212 0.136432 0.478527 
0.098543 1.0497 0.436737 0 0.00101879 0.0015212 0.136432 0.478527 
0.149883 1.0497 0.436737 0 0.00101879 0.0015212 0.136432 0.478527 
-0.238825 0.42541 0.277733 0 0 0.0199065 0.110808 0.476417 
0.238825 0.42541 0.277733 0 0 0.0199065 0.110808 0.476417 
0.238825 0.467086 0.277733 0 0 0.0199065 0.110808 0.476417 
-0.238825 0.42541 0.277733 0 0 0.0199065 0.110808 0.476417 
0.238825 0.467086 0.277733 0 0 0.0199065 0.110808 0.476417 
-0.238825 0.467086 0.277733 0 0 0.0199065 0.110808 0.476417 
-0.238825 0.467086 0.277733 -0 0.300262 0 0.140587 0.477835 
0.238825 0.467086 0.277733 -0 0.300262 0 0.140587 0.477835 
0.238825 0.467086 -0.350891 -0 0.300262 0 0.140587 0.477835 
-0.238825 0.467086 0.277733 0 0.300262 0 0.140587 0.477835 
0.238825 0.467086 -0.350891 0 0.300262 0 0.140587 0.477835 
-0.238825 0.467086 -0.350891 0 0.300262 0 0.140587 0.477835 
-0.238825 0.467086 -0.350891 0 0 -0.0199065 0.110808 0.476417 
0.238825 0.467086 -0.350891 0 0 -0.0199065 0.110808 0.476417 
0.238825 0.42541 -0.350891 0 0 -0.0199065 0.110808 0.476417 
-0.238825 0.467086 -0.350891 0 0 -0.0199065 0.110808 0.476417 
0.238825 0.42541 -0.350891 0 0 -0.0199065 0.110808 0.476417 
-0.238825 0.42541 -0.350891 0 0 -0.0199065 0.110808 0.476417 
-0.238825 0.42541 -0.350891 0 -0.300262 0 0.110808 0.476417 
0.238825 0.42541 -0.350891 0 -0.300262 0 0.110808 0.476417 
0.238825 0.42541 0.277733 0 -0.300262 0 0.110808 0.476417 
-0.238825 0.42541 -0.350891 0 -0.300262 0 0.110808 0.476417 
0.238825 0.42541 0.277733 0 -0.300262 0 0.110808 0.476417 
-0.238825 0.42541 0.277733 0 -0.300262 0 0.110808 0.476417 
0.238825 0.42541 0.277733 0.0261985 0 0 0.083157 0.477835 
0.238825 0.42541 -0.350891 0.0261985 0 0 0.083157 0.477835 
0.238825 0.467086 -0.350891 0.0261985 0 0 0.083157 0.477835 
0.238825 0.42541 0.277733 0.0261985 -0 0 0.083157 0.477835 
0.238825 0.467086 -0.350891 0.0261985 -0 0 0.083157 0.477835 
0.238825 0.467086 0.277733 0.0261985 -0 0 0.083157 0.477835 
-0.238825 0.42541 -0.350891 -0.0261985 0 0 0.083157 0.477835 
-0.238825 0.42541 0.277733 -0.0261985 0 0 0.083157 0.477835 
-0.238825 0.467086 0.277733 -0.0261985 0 0 0.083157 0.477835 
-0.238825 0.42541 -0.350891 -0.0261985 0 0 0.083157 0.477835 
-0.238825 0.467086 0.277733 -0.0261985 0 0 0.083157 0.477835 
-0.238825 0.467086 -0.350891 -0.0261985 0 0 0.083157 0.477835 
-0.029844 0.552175 0.120316 0 -0.00396179 0.00888629 0.117715 0.267317 
0.029844 0.552175 0.120316 0 -0.00396179 0.00888629 0.117715 0.267317 
0.096222 0.701054 0.186691 0 -0.00396179 0.00888629 0.117715 0.267317 
-0.029844 0.552175 0.120316 0 -0.0127735 0.0286509 0.117715 0.267317 
0.096222 0.701054 0.186691 0 -0.0127735 0.0286509 0.117715 0.267317 
-0.096222 0.701054 0.186691 0 -0.0127735 0.0286509 0.117715 0.267317 
-0.096222 0.701054 -0.005753 0 -0.0127752 -0.0286509 0.117715 0.267317 
0.096222 0.701054 -0.005753 0 -0.0127752 -0.0286509 0.117715 0.267317 
0.029844 0.552175 0.060631 0 -0.0127752 -0.0286509 0.117715 0.267317 
-0.096222 0.701054 -0.005753 0 -0.00396233 -0.00888629 0.117715 0.267317 
0.029844 0.552175 0.060631 0 -0.00396233 -0.00888629 0.117715 0.267317 
-0.029844 0.552175 0.060631 0 -0.00396233 -0.00888629 0.117715 0.267317 
-0.029844 0.552175 0.060631 0 -0.00356248 0 0.117715 0.267317 
0.029844 0.552175 0.060631 0 -0.00356248 0 0.117715 0.267317 
0.029844 0.552175 0.120316 0 -0.00356248 0 0.117715 0.267317 
-0.029844 0.552175 0.060631 0 -0.00356248 0 0.117715 0.267317 
0.029844 0.552175 0.120316 0 -0.00356248 0 0.117715 0.267317 
-0.029844 0.552175 0.120316 0 -0.00356248 0 0.117715 0.267317 
0.029844 0.552175 0.120316 0.00888584 -0.00396177 0 0.117715 0.267317 
0.029844 0.552175 0.060631 0.00888584 -0.00396177 0 0.117715 0.267317 
0.096222 0.701054 -0.005753 0.00888584 -0.00396177 0 0.117715 0.267317 
0.029844 0.552175 0.120316 0.0286509 -0.012774 0 0.117715 0.267317 
0.096222 0.701054 -0.005753 0.0286509 -0.012774 0 0.117715 0.267317 
0.096222 0.701054 0.186691 0.0286509 -0.012774 0 0.117715 0.267317 
-0.029844 0.552175 0.060631 -0.00888584 -0.00396177 0 0.117715 0.267317 
-0.029844 0.552175 0.120316 -0.00888584 -0.00396177 0 0.117715 0.267317 
-0.096222 0.701054 0.186691 -0.00888584 -0.00396177 0 0.117715 0.267317 
-0.029844 0.552175 0.060631 -0.0286509 -0.012774 0 0.117715 0.267317 
-0.096222 0.701054 0.186691 -0.0286509 -0.012774 0 0.117715 0.267317 
-0.096222 0.701054 -0.005753 -0.0286509 -0.012774 0 0.117715 0.267317 
-0.096222 0.701054 0.186691 0 0 0.0136685 0.148203 0.265898 
0.096222 0.701054 0.186691 0 0 0.0136685 0.148203 0.265898 
0.096222 0.77208 0.186691 0 0 0.0136685 0.148203 0.265898 
-0.096222 0.701054 0.186691 0 0 0.0136685 0.148203 0.265898 
0.096222 0.77208 0.186691 0 0 0.0136685 0.148203 0.265898 
-0.096222 0.77208 0.186691 0 0 0.0136685 0.148203 0.265898 
0.096222 0.701054 0.186691 0.0136685 0 0 0.148203 0.265898 
0.096222 0.701054 -0.005753 0.0136685 0 0 0.148203 0.265898 
0.096222 0.77208 -0.005753 0.0136685 0 0 0.148203 0.265898 
0.096222 0.701054 0.186691 0.0136685 -0 0 0.148203 0.265898 
0.096222 0.77208 -0.005753 0.0136685 -0 0 0.148203 0.265898 
0.096222 0.77208 0.186691 0.0136685 -0 0 0.148203 0.265898 
0.096222 0.701054 -0.005753 0 0 -0.0136685 0.148203 0.265898 
-0.096222 0.701054 -0.005753 0 0 -0.0136685 0.148203 0.265898 
-0.096222 0.77208 -0.005753 0 0 -0.0136685 0.148203 0.265898 
0.096222 0.701054 -0.005753 0 0 -0.0136685 0.148203 0.265898 
-0.096222 0.77208 -0.005753 0 0 -0.0136685 0.148203 0.265898 
0.096222 0.77208 -0.005753 0 0 -0.0136685 0.148203 0.265898 
-0.096222 0.701054 -0.005753 -0.0136685 0 0 0.148203 0.265898 
-0.096222 0.701054 0.186691 -0.0136685 0 0 0.148203 0.265898 
-0.096222 0.77208 0.186691 -0.0136685 0 0 0.148203 0.265898 
-0.096222 0.701054 -0.005753 -0.0136685 0 0 0.148203 0.265898 
-0.096222 0.77208 0.186691 -0.0136685 0 0 0.148203 0.265898 
-0.096222 0.77208 -0.005753 -0.0136685 0 0 0.148203 0.265898 
-0.116512 0.125337 0.220657 -0 0.00881623 0.0292093 0.104576 0.477109 
0.116512 0.125337 0.220657 -0 0.00881623 0.0292093 0.104576 0.477109 
0.078674 0.250686 0.182823 -0 0.00881623 0.0292093 0.104576 0.477109 
-0.116512 0.125337 0.220657 0 0.00595311 0.0197234 0.104576 0.477109 
0.078674 0.250686 0.182823 0 0.00595311 0.0197234 0.104576 0.477109 
-0.078674 0.250686 0.182823 0 0.00595311 0.0197234 0.104576 0.477109 
-0.078674 0.250686 0.182823 -0 0.0247584 0 0.134355 0.478527 
0.078674 0.250686 0.182823 -0 0.0247584 0 0.134355 0.478527 
0.078674 0.250686 0.025475 -0 0.0247584 0 0.134355 0.478527 
-0.078674 0.250686 0.182823 0 0.0247584 0 0.134355 0.478527 
0.078674 0.250686 0.025475 0 0.0247584 0 0.134355 0.478527 
-0.078674 0.250686 0.025475 0 0.0247584 0 0.134355 0.478527 
-0.078674 0.250686 0.025475 0 0.00595326 -0.0197234 0.104576 0.477109 
0.078674 0.250686 0.025475 0 0.00595326 -0.0197234 0.104576 0.477109 
0.116512 0.125337 -0.01236 0 0.00595326 -0.0197234 0.104576 0.477109 
-0.078674 0.250686 0.025475 0 0.00881646 -0.0292093 0.104576 0.477109 
0.116512 0.125337 -0.01236 0 0.00881646 -0.0292093 0.104576 0.477109 
-0.116512 0.125337 -0.01236 0 0.00881646 -0.0292093 0.104576 0.477109 
-0.116512 0.125337 -0.01236 0 -0.0542986 0 0.104576 0.477109 
0.116512 0.125337 -0.01236 0 -0.0542986 0 0.104576 0.477109 
0.116512 0.125337 0.220657 0 -0.0542986 0 0.104576 0.477109 
-0.116512 0.125337 -0.01236 0 -0.0542986 0 0.104576 0.477109 
0.116512 0.125337 0.220657 0 -0.0542986 0 0.104576 0.477109 
-0.116512 0.125337 0.220657 0 -0.0542986 0 0.104576 0.477109 
0.116512 0.125337 0.220657 0.0292084 0.0088169 0 0.076924 0.478527 
0.116512 0.125337 -0.01236 0.0292084 0.0088169 0 0.076924 0.478527 
0.078674 0.250686 0.025475 0.0292084 0.0088169 0 0.076924 0.478527 
0.116512 0.125337 0.220657 0.0197234 0.00595373 0 0.076924 0.478527 
0.078674 0.250686 0.025475 0.0197234 0.00595373 0 0.076924 0.478527 
0.078674 0.250686 0.182823 0.0197234 0.00595373 0 0.076924 0.478527 
-0.116512 0.125337 -0.01236 -0.0292084 0.0088169 0 0.076924 0.478527 
-0.116512 0.125337 0.220657 -0.0292084 0.0088169 0 0.076924 0.478527 
-0.078674 0.250686 0.182823 -0.0292084 0.0088169 0 0.076924 0.478527 
-0.116512 0.125337 -0.01236 -0.0197234 0.00595373 0 0.076924 0.478527 
-0.078674 0.250686 0.182823 -0.0197234 0.00595373 0 0.076924 0.478527 
-0.078674 0.250686 0.025475 -0.0197234 0.00595373 0 0.076924 0.478527 
3 0 1 2
3 3 4 5
3 6 7 8
3 9 10 11
3 12 13 14
3 15 16 17
3 18 19 20
3 21 22 23
3 24 25 26
3 27 28 29
3 30 31 32
3 33 34 35
3 36 37 38
3 39 40 41
3 42 43 44
3 45 46 47
3 48 49 50
3 51 52 53
3 54 55 56
3 57 58 59
3 60 61 62
3 63 64 65
3 66 67 68
3 69 70 71
3 72 73 74
3 75 76 77
3 78 79 80
3 81 82 83
3 84 85 86
3 87 88 89
3 90 91 92
3 93 94 95
3 96 97 98
3 99 100 101
3 102 103 104
3 105 106 107
3 108 109 110
3 111 112 113
3 114 115 116
3 117 118 119
3 120 121 122
3 123 124 125
3 126 127 128
3 129 130 131
3 132 133 134
3 135 136 137
3 138 139 140
3 141 142 143
3 144 145 146
3 147 148 149
3 150 151 152
3 153 154 155
3 156 157 158
3 159 160 161
3 162 163 164
3 165 166 167
3 168 169 170
3 171 172 173
3 174 175 176
3 177 178 179
3 180 181 182
3 183 184 185
3 186 187 188
3 189 190 191
3 192 193 194
3 195 196 197
3 198 199 200
3 201 202 203
3 204 205 206
3 207 208 209
3 210 211 212
3 213 214 215
3 216 217 218
3 219 220 221
3 222 223 224
3 225 226 227
3 228 229 230
3 231 232 233
3 234 235 236
3 237 238 239
3 240 241 242
3 243 244 245
3 246 247 248
3 249 250 251
3 252 253 254
3 255 256 257
3 258 259 260
3 261 262 263
3 264 265 266
3 267 268 269
3 270 271 272
3 273 274 275
3 276 277 278
3 279 280 281
3 282 283 284
3 285 286 287
3 288 289 290
3 291 292 293
3 294 295 296
3 297 298 299
3 300 301 302
3 303 304 305
3 306 307 308
3 309 310 311
3 312 313 314
3 315 316 317
3 318 319 320
3 321 322 323
3 324 325 326
3 327 328 329
3 330 331 332
3 333 334 335
3 336 337 338
3 339 340 341
3 342 343 344
3 345 346 347
3 348 349 350
3 351 352 353
3 354 355 356
3 357 358 359
3 360 361 362
3 363 364 365
3 366 367 368
3 369 370 371
3 372 373 374
3 375 376 377
3 378 379 380
3 381 382 383
3 384 385 386
3 387 388 389
3 390 391 392
3 393 394 395
3 396 397 398
3 399 400 401
3 402 403 404
3 405 406 407
3 408 409 410
3 411 412 413
3 414 415 416
3 417 418 419
3 420 421 422
3 423 424 425
3 426 427 428
3 429 430 431
3 432 433 434
3 435 436 437
3 438 439 440
3 441 442 443
3 444 445 446
3 447 448 449
3 450 451 452
3 453 454 455
3 456 457 458
3 459 460 461
3 462 463 464
3 465 466 467
3 468 469 470
3 471 472 473
3 474 475 476
3 477 478 479
3 480 481 482
3 483 484 485
3 486 487 488
3 489 490 491
3 492 493 494
3 495 496 497
3 498 499 500
3 501 502 503
3 504 505 506
3 507 508 509
3 510 511 512
3 513 514 515
3 516 517 518
3 519 520 521
3 522 523 524
3 525 526 527
3 528 529 530
3 531 532 533
3 534 535 536
3 537 538 539
3 540 541 542
3 543 544 545
3 546 547 548
3 549 550 551
3 552 553 554
3 555 556 557
3 558 559 560
3 561 562 563
3 564 565 566
3 567 568 569
3 570 571 572
3 573 574 575
3 576 577 578
3 579 580 581
3 582 583 584
3 585 586 587
3 588 589 590
3 591 592 593
