ply
format ascii 1.0
comment Feeney's Flatenator generated
comment TextureFile SpaceInteriors_Texture.png
element vertex 192
property float x
property float y
property float z
property float nx
property float ny
property float nz
property uchar red
property uchar green
property uchar blue
property uchar alpha
property float texture_u
property float texture_v
element face 64
property list uchar int vertex_indices
end_header
-0.300303 1 -0.181151 -0.181151 0 0.050051 91 88 86 255 0.235244 0.062866 
-0.300303 0 -0.181151 -0.181151 0 0.050051 91 88 86 255 0.235244 0.062866 
-0.250252 0 0 -0.181151 0 0.050051 91 88 86 255 0.235244 0.062866 
-0.300303 1 -0.181151 -0.181151 0 0.050051 91 88 86 255 0.235244 0.062866 
-0.250252 0 0 -0.181151 0 0.050051 91 88 86 255 0.235244 0.062866 
-0.250252 1 0 -0.181151 0 0.050051 91 88 86 255 0.235244 0.062866 
0 0 0 1 0 0 91 88 86 255 0.233113 0.062866 
0 0 -1 1 0 0 91 88 86 255 0.233113 0.062866 
0 1 -1 1 0 0 91 88 86 255 0.233113 0.062866 
0 0 0 1 -0 0 91 88 86 255 0.233113 0.062866 
0 1 -1 1 -0 0 91 88 86 255 0.233113 0.062866 
0 1 0 1 -0 0 91 88 86 255 0.233113 0.062866 
-1 0 -1 -1 0 0 91 88 86 255 0.233113 0.062866 
-1 0 0 -1 0 0 91 88 86 255 0.233113 0.062866 
-1 1 0 -1 0 0 91 88 86 255 0.233113 0.062866 
-1 0 -1 -1 0 0 91 88 86 255 0.233113 0.062866 
-1 1 0 -1 0 0 91 88 86 255 0.233113 0.062866 
-1 1 -1 -1 0 0 91 88 86 255 0.233113 0.062866 
-0.799741 1.08932 -0.088178 0 0.0533929 0 108 105 102 255 0.750668 0.869189 
-0.725086 1.08932 -0.326961 0 0.0533929 0 108 105 102 255 0.750668 0.869189 
-0.945102 1.08932 -0.338438 0 0.0533929 0 108 105 102 255 0.750668 0.869189 
-0.799741 1.08932 -0.088178 0 0.036378 0 108 105 102 255 0.750668 0.869189 
-0.945102 1.08932 -0.338438 0 0.036378 0 108 105 102 255 0.750668 0.869189 
-0.945102 1.08932 -0.088178 0 0.036378 0 108 105 102 255 0.750668 0.869189 
-0.750756 1 0 0.181151 0 0.05005 91 88 86 255 0.235244 0.062866 
-0.750756 0 0 0.181151 0 0.05005 91 88 86 255 0.235244 0.062866 
-0.700706 0 -0.181151 0.181151 0 0.05005 91 88 86 255 0.235244 0.062866 
-0.750756 1 0 0.181151 0 0.05005 91 88 86 255 0.235244 0.062866 
-0.700706 0 -0.181151 0.181151 0 0.05005 91 88 86 255 0.235244 0.062866 
-0.700706 1 -0.181151 0.181151 0 0.05005 91 88 86 255 0.235244 0.062866 
-1 0 0 0 0 0.249244 108 105 102 255 0.264046 0.062866 
-0.750756 0 0 0 0 0.249244 108 105 102 255 0.264046 0.062866 
-0.750756 1 0 0 0 0.249244 108 105 102 255 0.264046 0.062866 
-1 0 0 0 0 0.249244 108 105 102 255 0.264046 0.062866 
-0.750756 1 0 0 0 0.249244 108 105 102 255 0.264046 0.062866 
-1 1 0 0 0 0.249244 108 105 102 255 0.264046 0.062866 
-0.250252 1 0 0 0 0.250252 108 105 102 255 0.264046 0.062866 
-0.250252 0 0 0 0 0.250252 108 105 102 255 0.264046 0.062866 
0 0 0 0 0 0.250252 108 105 102 255 0.264046 0.062866 
-0.250252 1 0 -0 0 0.250252 108 105 102 255 0.264046 0.062866 
0 0 0 -0 0 0.250252 108 105 102 255 0.264046 0.062866 
0 1 0 -0 0 0.250252 108 105 102 255 0.264046 0.062866 
-0.300303 0 -0.181151 0 -0 0.400403 108 105 102 255 0.264046 0.062866 
-0.300303 1 -0.181151 0 -0 0.400403 108 105 102 255 0.264046 0.062866 
-0.700706 1 -0.181151 0 -0 0.400403 108 105 102 255 0.264046 0.062866 
-0.300303 0 -0.181151 0 0 0.400403 108 105 102 255 0.264046 0.062866 
-0.700706 1 -0.181151 0 0 0.400403 108 105 102 255 0.264046 0.062866 
-0.700706 0 -0.181151 0 0 0.400403 108 105 102 255 0.264046 0.062866 
-1 0 -1 0 0 -1 108 105 102 255 0.264046 0.062866 
-1 1 -1 0 0 -1 108 105 102 255 0.264046 0.062866 
0 1 -1 0 0 -1 108 105 102 255 0.264046 0.062866 
-1 0 -1 0 0 -1 108 105 102 255 0.264046 0.062866 
0 1 -1 0 0 -1 108 105 102 255 0.264046 0.062866 
0 0 -1 0 0 -1 108 105 102 255 0.264046 0.062866 
-0.300303 1 -0.181151 0 0.0132865 0 125 121 118 255 0.292982 0.062866 
-0.250252 1 0 0 0.0132865 0 125 121 118 255 0.292982 0.062866 
-0.20127 1 -0.088178 0 0.0132865 0 125 121 118 255 0.292982 0.062866 
-0.300303 1 -0.181151 -0 0.0167065 0 125 121 118 255 0.292982 0.062866 
-0.20127 1 -0.088178 -0 0.0167065 0 125 121 118 255 0.292982 0.062866 
-0.275925 1 -0.326961 -0 0.0167065 0 125 121 118 255 0.292982 0.062866 
-0.750756 1 0 0 0.0117142 0 125 121 118 255 0.292982 0.062866 
-0.700706 1 -0.181151 0 0.0117142 0 125 121 118 255 0.292982 0.062866 
-0.725086 1 -0.326961 0 0.0117142 0 125 121 118 255 0.292982 0.062866 
-0.750756 1 0 0 0.0182797 0 125 121 118 255 0.292982 0.062866 
-0.725086 1 -0.326961 0 0.0182797 0 125 121 118 255 0.292982 0.062866 
-0.799741 1 -0.088178 0 0.0182797 0 125 121 118 255 0.292982 0.062866 
-1 1 0 -0 0.0219778 0 125 121 118 255 0.292982 0.062866 
-0.750756 1 0 -0 0.0219778 0 125 121 118 255 0.292982 0.062866 
-0.799741 1 -0.088178 -0 0.0219778 0 125 121 118 255 0.292982 0.062866 
-1 1 0 0 0.0128176 0 125 121 118 255 0.292982 0.062866 
-0.799741 1 -0.088178 0 0.0128176 0 125 121 118 255 0.292982 0.062866 
-0.945102 1 -0.088178 0 0.0128176 0 125 121 118 255 0.292982 0.062866 
-1 1 -1 0 0.054898 0 125 121 118 255 0.292982 0.062866 
-1 1 0 0 0.054898 0 125 121 118 255 0.292982 0.062866 
-0.945102 1 -0.088178 0 0.054898 0 125 121 118 255 0.292982 0.062866 
-1 1 -1 0 0.045796 0 125 121 118 255 0.292982 0.062866 
-0.945102 1 -0.088178 0 0.045796 0 125 121 118 255 0.292982 0.062866 
-0.945102 1 -0.92238 0 0.045796 0 125 121 118 255 0.292982 0.062866 
-0.250252 1 0 -0 0.0220667 0 125 121 118 255 0.292982 0.062866 
0 1 0 -0 0.0220667 0 125 121 118 255 0.292982 0.062866 
-0.055907 1 -0.088178 -0 0.0220667 0 125 121 118 255 0.292982 0.062866 
-0.250252 1 0 0 0.0128178 0 125 121 118 255 0.292982 0.062866 
-0.055907 1 -0.088178 0 0.0128178 0 125 121 118 255 0.292982 0.062866 
-0.20127 1 -0.088178 0 0.0128178 0 125 121 118 255 0.292982 0.062866 
0 1 0 0 0.055907 0 125 121 118 255 0.292982 0.062866 
0 1 -1 0 0.055907 0 125 121 118 255 0.292982 0.062866 
-0.055907 1 -0.92238 0 0.055907 0 125 121 118 255 0.292982 0.062866 
0 1 0 0 0.0466377 0 125 121 118 255 0.292982 0.062866 
-0.055907 1 -0.92238 0 0.0466377 0 125 121 118 255 0.292982 0.062866 
-0.055907 1 -0.088178 0 0.0466377 0 125 121 118 255 0.292982 0.062866 
-0.945102 1 -0.92238 -0 0.0690193 0 125 121 118 255 0.292982 0.062866 
-0.055907 1 -0.92238 -0 0.0690193 0 125 121 118 255 0.292982 0.062866 
0 1 -1 -0 0.0690193 0 125 121 118 255 0.292982 0.062866 
-0.945102 1 -0.92238 0 0.07762 0 125 121 118 255 0.292982 0.062866 
0 1 -1 0 0.07762 0 125 121 118 255 0.292982 0.062866 
-1 1 -1 0 0.07762 0 125 121 118 255 0.292982 0.062866 
-0.725086 1 -0.326961 0 0.0583828 0 125 121 118 255 0.292982 0.062866 
-0.700706 1 -0.181151 0 0.0583828 0 125 121 118 255 0.292982 0.062866 
-0.300303 1 -0.181151 0 0.0583828 0 125 121 118 255 0.292982 0.062866 
-0.725086 1 -0.326961 0 0.0654922 0 125 121 118 255 0.292982 0.062866 
-0.300303 1 -0.181151 0 0.0654922 0 125 121 118 255 0.292982 0.062866 
-0.275925 1 -0.326961 0 0.0654922 0 125 121 118 255 0.292982 0.062866 
-0.945102 1.08932 -0.92238 0 0.267439 0 108 105 102 255 0.74968 0.992054 
-0.725086 1.08932 -0.326961 0 0.267439 0 108 105 102 255 0.80983 0.874589 
-0.275925 1.08932 -0.326961 0 0.267439 0 108 105 102 255 0.932625 0.874589 
-0.945102 1.08932 -0.92238 0 0.529444 0 108 105 102 255 0.74968 0.992054 
-0.275925 1.08932 -0.326961 0 0.529444 0 108 105 102 255 0.932625 0.874589 
-0.055907 1.08932 -0.92238 0 0.529444 0 108 105 102 255 0.992775 0.992054 
-0.055907 1.08932 -0.92238 0 0.128478 -0 108 105 102 255 0.992775 0.992054 
-0.275925 1.08932 -0.326961 0 0.128478 -0 108 105 102 255 0.932625 0.874589 
-0.055907 1.08932 -0.338438 0 0.128478 -0 108 105 102 255 0.992775 0.876853 
-0.945102 1.08932 -0.92238 0 0 -0.0794228 108 105 102 255 0.265609 0.058294 
-0.055907 1.08932 -0.92238 0 0 -0.0794228 108 105 102 255 0.265609 0.058294 
-0.055907 1 -0.92238 0 0 -0.0794228 108 105 102 255 0.265609 0.058294 
-0.945102 1.08932 -0.92238 0 0 -0.0794228 108 105 102 255 0.265609 0.058294 
-0.055907 1 -0.92238 0 0 -0.0794228 108 105 102 255 0.265609 0.058294 
-0.945102 1 -0.92238 0 0 -0.0794228 108 105 102 255 0.265609 0.058294 
-0.799741 1 -0.088178 0.0213281 0 0.00666819 91 88 86 255 0.233436 0.062338 
-0.725086 1 -0.326961 0.0213281 0 0.00666819 91 88 86 255 0.233436 0.062338 
-0.725086 1.08932 -0.326961 0.0213281 0 0.00666819 91 88 86 255 0.233436 0.062338 
-0.799741 1 -0.088178 0.0213281 -0 0.00666819 91 88 86 255 0.233436 0.062338 
-0.725086 1.08932 -0.326961 0.0213281 -0 0.00666819 91 88 86 255 0.233436 0.062338 
-0.799741 1.08932 -0.088178 0.0213281 -0 0.00666819 91 88 86 255 0.233436 0.062338 
-0.945102 1 -0.92238 -0.0745109 0 0 91 88 86 255 0.233436 0.062338 
-0.945102 1 -0.088178 -0.0745109 0 0 91 88 86 255 0.233436 0.062338 
-0.945102 1.08932 -0.088178 -0.0745109 0 0 91 88 86 255 0.233436 0.062338 
-0.945102 1 -0.92238 -0.0223532 0 0 91 88 86 255 0.233436 0.062338 
-0.945102 1.08932 -0.088178 -0.0223532 0 0 91 88 86 255 0.233436 0.062338 
-0.945102 1.08932 -0.338438 -0.0223532 0 0 91 88 86 255 0.233436 0.062338 
-0.945102 1 -0.92238 -0.0521577 0 0 91 88 86 255 0.233436 0.062338 
-0.945102 1.08932 -0.338438 -0.0521577 0 0 91 88 86 255 0.233436 0.062338 
-0.945102 1.08932 -0.92238 -0.0521577 0 0 91 88 86 255 0.233436 0.062338 
-0.945102 1 -0.088178 0 0 0.0129836 108 105 102 255 0.265609 0.058294 
-0.799741 1 -0.088178 0 0 0.0129836 108 105 102 255 0.265609 0.058294 
-0.799741 1.08932 -0.088178 0 0 0.0129836 108 105 102 255 0.265609 0.058294 
-0.945102 1 -0.088178 0 0 0.0129836 108 105 102 255 0.265609 0.058294 
-0.799741 1.08932 -0.088178 0 0 0.0129836 108 105 102 255 0.265609 0.058294 
-0.945102 1.08932 -0.088178 0 0 0.0129836 108 105 102 255 0.265609 0.058294 
-0.725086 1.08932 -0.326961 0 0 0.040119 108 105 102 255 0.265609 0.058294 
-0.725086 1 -0.326961 0 0 0.040119 108 105 102 255 0.265609 0.058294 
-0.275925 1 -0.326961 0 0 0.040119 108 105 102 255 0.265609 0.058294 
-0.725086 1.08932 -0.326961 -0 0 0.040119 108 105 102 255 0.265609 0.058294 
-0.275925 1 -0.326961 -0 0 0.040119 108 105 102 255 0.265609 0.058294 
-0.275925 1.08932 -0.326961 -0 0 0.040119 108 105 102 255 0.265609 0.058294 
-0.275925 1 -0.326961 -0.0213281 0 0.00666818 91 88 86 255 0.233436 0.062338 
-0.20127 1 -0.088178 -0.0213281 0 0.00666818 91 88 86 255 0.233436 0.062338 
-0.20127 1.08932 -0.088178 -0.0213281 0 0.00666818 91 88 86 255 0.233436 0.062338 
-0.275925 1 -0.326961 -0.0213281 0 0.00666818 91 88 86 255 0.233436 0.062338 
-0.20127 1.08932 -0.088178 -0.0213281 0 0.00666818 91 88 86 255 0.233436 0.062338 
-0.275925 1.08932 -0.326961 -0.0213281 0 0.00666818 91 88 86 255 0.233436 0.062338 
-0.20127 1 -0.088178 0 0 0.0129838 108 105 102 255 0.265609 0.058294 
-0.055907 1 -0.088178 0 0 0.0129838 108 105 102 255 0.265609 0.058294 
-0.055907 1.08932 -0.088178 0 0 0.0129838 108 105 102 255 0.265609 0.058294 
-0.20127 1 -0.088178 0 0 0.0129838 108 105 102 255 0.265609 0.058294 
-0.055907 1.08932 -0.088178 0 0 0.0129838 108 105 102 255 0.265609 0.058294 
-0.20127 1.08932 -0.088178 0 0 0.0129838 108 105 102 255 0.265609 0.058294 
-0.055907 1 -0.088178 0.0745109 0 0 91 88 86 255 0.233436 0.062338 
-0.055907 1 -0.92238 0.0745109 0 0 91 88 86 255 0.233436 0.062338 
-0.055907 1.08932 -0.92238 0.0745109 0 0 91 88 86 255 0.233436 0.062338 
-0.055907 1 -0.088178 0.0521577 0 0 91 88 86 255 0.233436 0.062338 
-0.055907 1.08932 -0.92238 0.0521577 0 0 91 88 86 255 0.233436 0.062338 
-0.055907 1.08932 -0.338438 0.0521577 0 0 91 88 86 255 0.233436 0.062338 
-0.055907 1 -0.088178 0.0223532 -0 0 91 88 86 255 0.233436 0.062338 
-0.055907 1.08932 -0.338438 0.0223532 -0 0 91 88 86 255 0.233436 0.062338 
-0.055907 1.08932 -0.088178 0.0223532 -0 0 91 88 86 255 0.233436 0.062338 
-0.945102 1.08932 -0.338438 -0 0.128477 0 108 105 102 255 0.74968 0.876853 
-0.725086 1.08932 -0.326961 -0 0.128477 0 108 105 102 255 0.80983 0.874589 
-0.945102 1.08932 -0.92238 -0 0.128477 0 108 105 102 255 0.74968 0.992054 
-0.055907 1.08932 -0.338438 0 0.0533934 0 108 105 102 255 0.750668 0.869189 
-0.275925 1.08932 -0.326961 0 0.0533934 0 108 105 102 255 0.750668 0.869189 
-0.20127 1.08932 -0.088178 0 0.0533934 0 108 105 102 255 0.750668 0.869189 
-0.055907 1.08932 -0.338438 0 0.0363785 -0 108 105 102 255 0.750668 0.869189 
-0.20127 1.08932 -0.088178 0 0.0363785 -0 108 105 102 255 0.750668 0.869189 
-0.055907 1.08932 -0.088178 0 0.0363785 -0 108 105 102 255 0.750668 0.869189 
-0.300303 0 -0.181151 0 -0.300303 0 75 72 70 255 0.203405 0.061572 
0 0 -1 0 -0.300303 0 75 72 70 255 0.203405 0.061572 
0 0 0 0 -0.300303 0 75 72 70 255 0.203405 0.061572 
-0.300303 0 -0.181151 0 -0.0453334 0 75 72 70 255 0.203405 0.061572 
0 0 0 0 -0.0453334 0 75 72 70 255 0.203405 0.061572 
-0.250252 0 0 0 -0.0453334 0 75 72 70 255 0.203405 0.061572 
-0.750756 0 0 -0 -0.249244 0 75 72 70 255 0.203405 0.061572 
-1 0 0 -0 -0.249244 0 75 72 70 255 0.203405 0.061572 
-1 0 -1 -0 -0.249244 0 75 72 70 255 0.203405 0.061572 
-0.750756 0 0 0 -0.0952008 -0 75 72 70 255 0.203405 0.061572 
-1 0 -1 0 -0.0952008 -0 75 72 70 255 0.203405 0.061572 
-0.700706 0 -0.181151 0 -0.0952008 -0 75 72 70 255 0.203405 0.061572 
-0.700706 0 -0.181151 0 -0.818849 -0 75 72 70 255 0.203405 0.061572 
-1 0 -1 0 -0.818849 -0 75 72 70 255 0.203405 0.061572 
0 0 -1 0 -0.818849 -0 75 72 70 255 0.203405 0.061572 
-0.700706 0 -0.181151 0 -0.32787 0 75 72 70 255 0.203405 0.061572 
0 0 -1 0 -0.32787 0 75 72 70 255 0.203405 0.061572 
-0.300303 0 -0.181151 0 -0.32787 0 75 72 70 255 0.203405 0.061572 
3 0 1 2
3 3 4 5
3 6 7 8
3 9 10 11
3 12 13 14
3 15 16 17
3 18 19 20
3 21 22 23
3 24 25 26
3 27 28 29
3 30 31 32
3 33 34 35
3 36 37 38
3 39 40 41
3 42 43 44
3 45 46 47
3 48 49 50
3 51 52 53
3 54 55 56
3 57 58 59
3 60 61 62
3 63 64 65
3 66 67 68
3 69 70 71
3 72 73 74
3 75 76 77
3 78 79 80
3 81 82 83
3 84 85 86
3 87 88 89
3 90 91 92
3 93 94 95
3 96 97 98
3 99 100 101
3 102 103 104
3 105 106 107
3 108 109 110
3 111 112 113
3 114 115 116
3 117 118 119
3 120 121 122
3 123 124 125
3 126 127 128
3 129 130 131
3 132 133 134
3 135 136 137
3 138 139 140
3 141 142 143
3 144 145 146
3 147 148 149
3 150 151 152
3 153 154 155
3 156 157 158
3 159 160 161
3 162 163 164
3 165 166 167
3 168 169 170
3 171 172 173
3 174 175 176
3 177 178 179
3 180 181 182
3 183 184 185
3 186 187 188
3 189 190 191
