ply
format ascii 1.0
comment Feeney's Flatenator generated
comment TextureFile SpaceInteriors_Texture.png
element vertex 318
property float x
property float y
property float z
element face 106
property list uchar int vertex_indices
end_header
-4.89905 1.8744 -3.3985 
-4.89905 1.8744 -4.01791 
-5 1.8744 -4.01791 
-4.89905 1.8744 -3.3985 
-5 1.8744 -4.01791 
-5 1.8744 -3.3985 
-5 1.25498 -3.3985 
-5 1.25498 -4.01791 
-4.89905 1.25498 -4.01791 
-5 1.25498 -3.3985 
-4.89905 1.25498 -4.01791 
-4.89905 1.25498 -3.3985 
-4.89905 1.25498 -4.01791 
-5 1.25498 -4.01791 
-5 1.8744 -4.01791 
-4.89905 1.25498 -4.01791 
-5 1.8744 -4.01791 
-4.89905 1.8744 -4.01791 
-5 1.25498 -3.3985 
-4.89905 1.25498 -3.3985 
-4.89905 1.8744 -3.3985 
-5 1.25498 -3.3985 
-4.89905 1.8744 -3.3985 
-5 1.8744 -3.3985 
-4.89905 1.25498 -3.3985 
-4.89905 1.25498 -4.01791 
-4.89904 1.38825 -3.88464 
-4.89905 1.25498 -3.3985 
-4.89904 1.38825 -3.88464 
-4.89904 1.38825 -3.53176 
-4.89905 1.25498 -4.01791 
-4.89905 1.8744 -4.01791 
-4.89904 1.74113 -3.88464 
-4.89905 1.25498 -4.01791 
-4.89904 1.74113 -3.88464 
-4.89904 1.38825 -3.88464 
-4.89905 1.8744 -4.01791 
-4.89905 1.8744 -3.3985 
-4.89904 1.74113 -3.53176 
-4.89905 1.8744 -4.01791 
-4.89904 1.74113 -3.53176 
-4.89904 1.74113 -3.88464 
-4.89905 1.8744 -3.3985 
-4.89905 1.25498 -3.3985 
-4.89904 1.38825 -3.53176 
-4.89905 1.8744 -3.3985 
-4.89904 1.38825 -3.53176 
-4.89904 1.74113 -3.53176 
-0.444763 0 0 
0 0 0 
0 0.182176 0 
-0.444763 0 0 
0 0.182176 0 
-0.444763 0.182176 0 
-0.444763 0.182176 -0.444765 
0 0.182176 -0.444765 
0 0 -0.444765 
-0.444763 0.182176 -0.444765 
0 0 -0.444765 
-0.444763 0 -0.444765 
-0.444763 0 -0.444765 
0 0 -0.444765 
0 0 0 
-0.444763 0 -0.444765 
0 0 0 
-0.444763 0 0 
0 0 0 
0 0 -0.444765 
0 0.182176 -0.444765 
0 0 0 
0 0.182176 -0.444765 
0 0.182176 0 
-0.444763 0 -0.444765 
-0.444763 0 0 
-0.444763 0.182176 0 
-0.444763 0 -0.444765 
-0.444763 0.182176 0 
-0.444763 0.182176 -0.444765 
-0.444763 0.182176 0 
0 0.182176 0 
-0.09094 0.182176 -0.090942 
-0.444763 0.182176 0 
-0.09094 0.182176 -0.090942 
-0.353823 0.182176 -0.090942 
0 0.182176 0 
0 0.182176 -0.444765 
-0.09094 0.182176 -0.353822 
0 0.182176 0 
-0.09094 0.182176 -0.353822 
-0.09094 0.182176 -0.090942 
0 0.182176 -0.444765 
-0.444763 0.182176 -0.444765 
-0.353823 0.182176 -0.353822 
0 0.182176 -0.444765 
-0.353823 0.182176 -0.353822 
-0.09094 0.182176 -0.353822 
-0.444763 0.182176 -0.444765 
-0.444763 0.182176 0 
-0.353823 0.182176 -0.090942 
-0.444763 0.182176 -0.444765 
-0.353823 0.182176 -0.090942 
-0.353823 0.182176 -0.353822 
-0.353823 0.182176 -0.090942 
-0.09094 0.182176 -0.090942 
-0.293041 0.562353 -0.162948 
-0.353823 0.182176 -0.090942 
-0.293041 0.562353 -0.162948 
-0.46199 0.361437 -0.148888 
-0.09094 0.182176 -0.090942 
-0.09094 0.182176 -0.353822 
-0.239006 0.499457 -0.412408 
-0.09094 0.182176 -0.090942 
-0.239006 0.499457 -0.412408 
-0.293041 0.562353 -0.162948 
-0.09094 0.182176 -0.353822 
-0.353823 0.182176 -0.353822 
-0.407949 0.298541 -0.398346 
-0.09094 0.182176 -0.353822 
-0.407949 0.298541 -0.398346 
-0.239006 0.499457 -0.412408 
-0.353823 0.182176 -0.353822 
-0.353823 0.182176 -0.090942 
-0.46199 0.361437 -0.148888 
-0.353823 0.182176 -0.353822 
-0.46199 0.361437 -0.148888 
-0.407949 0.298541 -0.398346 
-0.46199 0.361437 -0.148888 
-0.293041 0.562353 -0.162948 
-0.779175 0.578454 -0.31705 
-0.46199 0.361437 -0.148888 
-0.779175 0.578454 -0.31705 
-0.757935 0.317492 -0.340636 
-0.293041 0.562353 -0.162948 
-0.239006 0.499457 -0.412408 
-0.705713 0.607099 -0.567827 
-0.293041 0.562353 -0.162948 
-0.705713 0.607099 -0.567827 
-0.779175 0.578454 -0.31705 
-0.239006 0.499457 -0.412408 
-0.407949 0.298541 -0.398346 
-0.684471 0.346141 -0.591411 
-0.239006 0.499457 -0.412408 
-0.684471 0.346141 -0.591411 
-0.705713 0.607099 -0.567827 
-0.407949 0.298541 -0.398346 
-0.46199 0.361437 -0.148888 
-0.757935 0.317492 -0.340636 
-0.407949 0.298541 -0.398346 
-0.757935 0.317492 -0.340636 
-0.684471 0.346141 -0.591411 
-0.757935 0.317492 -0.340636 
-0.779175 0.578454 -0.31705 
-1.38418 0.274341 -0.488805 
-0.757935 0.317492 -0.340636 
-1.38418 0.274341 -0.488805 
-1.33861 0.015508 -0.48269 
-0.779175 0.578454 -0.31705 
-0.705713 0.607099 -0.567827 
-1.29983 0.283311 -0.737622 
-0.779175 0.578454 -0.31705 
-1.29983 0.283311 -0.737622 
-1.38418 0.274341 -0.488805 
-0.705713 0.607099 -0.567827 
-0.684471 0.346141 -0.591411 
-1.25426 0.02448 -0.731508 
-0.705713 0.607099 -0.567827 
-1.25426 0.02448 -0.731508 
-1.29983 0.283311 -0.737622 
-0.684471 0.346141 -0.591411 
-0.757935 0.317492 -0.340636 
-1.33861 0.015508 -0.48269 
-0.684471 0.346141 -0.591411 
-1.33861 0.015508 -0.48269 
-1.25426 0.02448 -0.731508 
-1.33861 0.015508 -0.48269 
-1.38418 0.274341 -0.488805 
-2.47077 0.298332 -1.47536 
-1.33861 0.015508 -0.48269 
-2.47077 0.298332 -1.47536 
-2.52153 0.041548 -1.49971 
-1.38418 0.274341 -0.488805 
-1.29983 0.283311 -0.737622 
-2.26869 0.274163 -1.64175 
-1.38418 0.274341 -0.488805 
-2.26869 0.274163 -1.64175 
-2.47077 0.298332 -1.47536 
-1.29983 0.283311 -0.737622 
-1.25426 0.02448 -0.731508 
-2.31946 0.017381 -1.66611 
-1.29983 0.283311 -0.737622 
-2.31946 0.017381 -1.66611 
-2.26869 0.274163 -1.64175 
-1.25426 0.02448 -0.731508 
-1.33861 0.015508 -0.48269 
-2.52153 0.041548 -1.49971 
-1.25426 0.02448 -0.731508 
-2.52153 0.041548 -1.49971 
-2.31946 0.017381 -1.66611 
-2.52153 0.041548 -1.49971 
-2.47077 0.298332 -1.47536 
-2.96087 0.287086 -2.82306 
-2.52153 0.041548 -1.49971 
-2.96087 0.287086 -2.82306 
-2.99858 0.030303 -2.86486 
-2.47077 0.298332 -1.47536 
-2.26869 0.274163 -1.64175 
-2.71074 0.262917 -2.90024 
-2.47077 0.298332 -1.47536 
-2.71074 0.262917 -2.90024 
-2.96087 0.287086 -2.82306 
-2.26869 0.274163 -1.64175 
-2.31946 0.017381 -1.66611 
-2.74845 0.006135 -2.94205 
-2.26869 0.274163 -1.64175 
-2.74845 0.006135 -2.94205 
-2.71074 0.262917 -2.90024 
-2.31946 0.017381 -1.66611 
-2.52153 0.041548 -1.49971 
-2.99858 0.030303 -2.86486 
-2.31946 0.017381 -1.66611 
-2.99858 0.030303 -2.86486 
-2.74845 0.006135 -2.94205 
-2.99858 0.030303 -2.86486 
-2.96087 0.287086 -2.82306 
-3.72458 0.375277 -3.45401 
-2.99858 0.030303 -2.86486 
-3.72458 0.375277 -3.45401 
-3.78072 0.118493 -3.4582 
-2.96087 0.287086 -2.82306 
-2.71074 0.262917 -2.90024 
-3.59697 0.351108 -3.68256 
-2.96087 0.287086 -2.82306 
-3.59697 0.351108 -3.68256 
-3.72458 0.375277 -3.45401 
-2.71074 0.262917 -2.90024 
-2.74845 0.006135 -2.94205 
-3.65312 0.094326 -3.68676 
-2.71074 0.262917 -2.90024 
-3.65312 0.094326 -3.68676 
-3.59697 0.351108 -3.68256 
-2.74845 0.006135 -2.94205 
-2.99858 0.030303 -2.86486 
-3.78072 0.118493 -3.4582 
-2.74845 0.006135 -2.94205 
-3.78072 0.118493 -3.4582 
-3.65312 0.094326 -3.68676 
-3.78072 0.118493 -3.4582 
-3.72458 0.375277 -3.45401 
-4.23201 0.785909 -3.60659 
-3.78072 0.118493 -3.4582 
-4.23201 0.785909 -3.60659 
-4.36714 0.562156 -3.57863 
-3.72458 0.375277 -3.45401 
-3.59697 0.351108 -3.68256 
-4.25505 0.767176 -3.86779 
-3.72458 0.375277 -3.45401 
-4.25505 0.767176 -3.86779 
-4.23201 0.785909 -3.60659 
-3.59697 0.351108 -3.68256 
-3.65312 0.094326 -3.68676 
-4.39018 0.543425 -3.83982 
-3.59697 0.351108 -3.68256 
-4.39018 0.543425 -3.83982 
-4.25505 0.767176 -3.86779 
-3.65312 0.094326 -3.68676 
-3.78072 0.118493 -3.4582 
-4.36714 0.562156 -3.57863 
-3.65312 0.094326 -3.68676 
-4.36714 0.562156 -3.57863 
-4.39018 0.543425 -3.83982 
-4.36714 0.562156 -3.57863 
-4.23201 0.785909 -3.60659 
-4.40475 1.45516 -3.5936 
-4.36714 0.562156 -3.57863 
-4.40475 1.45516 -3.5936 
-4.64334 1.29707 -3.56298 
-4.23201 0.785909 -3.60659 
-4.25505 0.767176 -3.86779 
-4.43633 1.44743 -3.87961 
-4.23201 0.785909 -3.60659 
-4.43633 1.44743 -3.87961 
-4.40475 1.45516 -3.5936 
-4.25505 0.767176 -3.86779 
-4.39018 0.543425 -3.83982 
-4.67492 1.28933 -3.84898 
-4.25505 0.767176 -3.86779 
-4.67492 1.28933 -3.84898 
-4.43633 1.44743 -3.87961 
-4.39018 0.543425 -3.83982 
-4.36714 0.562156 -3.57863 
-4.64334 1.29707 -3.56298 
-4.39018 0.543425 -3.83982 
-4.64334 1.29707 -3.56298 
-4.67492 1.28933 -3.84898 
-4.64334 1.29707 -3.56298 
-4.40475 1.45516 -3.5936 
-4.89904 1.74113 -3.53176 
-4.64334 1.29707 -3.56298 
-4.89904 1.74113 -3.53176 
-4.89904 1.38825 -3.53176 
-4.40475 1.45516 -3.5936 
-4.43633 1.44743 -3.87961 
-4.89904 1.74113 -3.88464 
-4.40475 1.45516 -3.5936 
-4.89904 1.74113 -3.88464 
-4.89904 1.74113 -3.53176 
-4.43633 1.44743 -3.87961 
-4.67492 1.28933 -3.84898 
-4.89904 1.38825 -3.88464 
-4.43633 1.44743 -3.87961 
-4.89904 1.38825 -3.88464 
-4.89904 1.74113 -3.88464 
-4.67492 1.28933 -3.84898 
-4.64334 1.29707 -3.56298 
-4.89904 1.38825 -3.53176 
-4.67492 1.28933 -3.84898 
-4.89904 1.38825 -3.53176 
-4.89904 1.38825 -3.88464 
3 0 1 2
3 3 4 5
3 6 7 8
3 9 10 11
3 12 13 14
3 15 16 17
3 18 19 20
3 21 22 23
3 24 25 26
3 27 28 29
3 30 31 32
3 33 34 35
3 36 37 38
3 39 40 41
3 42 43 44
3 45 46 47
3 48 49 50
3 51 52 53
3 54 55 56
3 57 58 59
3 60 61 62
3 63 64 65
3 66 67 68
3 69 70 71
3 72 73 74
3 75 76 77
3 78 79 80
3 81 82 83
3 84 85 86
3 87 88 89
3 90 91 92
3 93 94 95
3 96 97 98
3 99 100 101
3 102 103 104
3 105 106 107
3 108 109 110
3 111 112 113
3 114 115 116
3 117 118 119
3 120 121 122
3 123 124 125
3 126 127 128
3 129 130 131
3 132 133 134
3 135 136 137
3 138 139 140
3 141 142 143
3 144 145 146
3 147 148 149
3 150 151 152
3 153 154 155
3 156 157 158
3 159 160 161
3 162 163 164
3 165 166 167
3 168 169 170
3 171 172 173
3 174 175 176
3 177 178 179
3 180 181 182
3 183 184 185
3 186 187 188
3 189 190 191
3 192 193 194
3 195 196 197
3 198 199 200
3 201 202 203
3 204 205 206
3 207 208 209
3 210 211 212
3 213 214 215
3 216 217 218
3 219 220 221
3 222 223 224
3 225 226 227
3 228 229 230
3 231 232 233
3 234 235 236
3 237 238 239
3 240 241 242
3 243 244 245
3 246 247 248
3 249 250 251
3 252 253 254
3 255 256 257
3 258 259 260
3 261 262 263
3 264 265 266
3 267 268 269
3 270 271 272
3 273 274 275
3 276 277 278
3 279 280 281
3 282 283 284
3 285 286 287
3 288 289 290
3 291 292 293
3 294 295 296
3 297 298 299
3 300 301 302
3 303 304 305
3 306 307 308
3 309 310 311
3 312 313 314
3 315 316 317
