ply
format ascii 1.0
comment Feeney's Flatenator generated
comment TextureFile SpaceInteriors_Texture.png
element vertex 318
property float x
property float y
property float z
element face 106
property list uchar int vertex_indices
end_header
-0.151155 15.829 -1.06457 
-0.151155 15.829 -1.68398 
-0.151155 15.9299 -1.68398 
-0.151155 15.829 -1.06457 
-0.151155 15.9299 -1.68398 
-0.151155 15.9299 -1.06457 
-0.770573 15.9299 -1.06457 
-0.770573 15.9299 -1.68398 
-0.770575 15.829 -1.68398 
-0.770573 15.9299 -1.06457 
-0.770575 15.829 -1.68398 
-0.770575 15.829 -1.06457 
-0.770575 15.829 -1.68398 
-0.770573 15.9299 -1.68398 
-0.151155 15.9299 -1.68398 
-0.770575 15.829 -1.68398 
-0.151155 15.9299 -1.68398 
-0.151155 15.829 -1.68398 
-0.770573 15.9299 -1.06457 
-0.770575 15.829 -1.06457 
-0.151155 15.829 -1.06457 
-0.770573 15.9299 -1.06457 
-0.151155 15.829 -1.06457 
-0.151155 15.9299 -1.06457 
-0.770575 15.829 -1.06457 
-0.770575 15.829 -1.68398 
-0.637304 15.829 -1.55071 
-0.770575 15.829 -1.06457 
-0.637304 15.829 -1.55071 
-0.637304 15.829 -1.19783 
-0.770575 15.829 -1.68398 
-0.151155 15.829 -1.68398 
-0.284424 15.829 -1.55071 
-0.770575 15.829 -1.68398 
-0.284424 15.829 -1.55071 
-0.637304 15.829 -1.55071 
-0.151155 15.829 -1.68398 
-0.151155 15.829 -1.06457 
-0.284424 15.829 -1.19783 
-0.151155 15.829 -1.68398 
-0.284424 15.829 -1.19783 
-0.284424 15.829 -1.55071 
-0.151155 15.829 -1.06457 
-0.770575 15.829 -1.06457 
-0.637304 15.829 -1.19783 
-0.151155 15.829 -1.06457 
-0.637304 15.829 -1.19783 
-0.284424 15.829 -1.19783 
1.14109 0 1.76735 
1.18075 0.444762 1.76735 
1.01325 0.444763 1.76735 
1.14109 0 1.76735 
1.01325 0.444763 1.76735 
0.970665 0 1.76735 
1.00212 0 1.32259 
1.05193 0.444763 1.32259 
1.21705 0.444762 1.32259 
1.00212 0 1.32259 
1.21705 0.444762 1.32259 
1.17034 0 1.32259 
1.17034 0 1.32259 
1.21705 0.444762 1.32259 
1.18075 0.444762 1.76735 
1.17034 0 1.32259 
1.18075 0.444762 1.76735 
1.14109 0 1.76735 
1.18075 0.444762 1.76735 
1.21705 0.444762 1.32259 
1.05193 0.444763 1.32259 
1.18075 0.444762 1.76735 
1.05193 0.444763 1.32259 
1.01325 0.444763 1.76735 
1.17034 0 1.32259 
1.14109 0 1.76735 
0.970665 0 1.76735 
1.17034 0 1.32259 
0.970665 0 1.76735 
1.00212 0 1.32259 
0.970665 0 1.76735 
1.01325 0.444763 1.76735 
1.01197 0.353823 1.67641 
0.970665 0 1.76735 
1.01197 0.353823 1.67641 
0.985834 0.090941 1.67641 
1.01325 0.444763 1.76735 
1.05193 0.444763 1.32259 
1.03402 0.353823 1.41353 
1.01325 0.444763 1.76735 
1.03402 0.353823 1.41353 
1.01197 0.353823 1.67641 
1.05193 0.444763 1.32259 
1.00212 0 1.32259 
1.00536 0.090941 1.41353 
1.05193 0.444763 1.32259 
1.00536 0.090941 1.41353 
1.03402 0.353823 1.41353 
1.00212 0 1.32259 
0.970665 0 1.76735 
0.985834 0.090941 1.67641 
1.00212 0 1.32259 
0.985834 0.090941 1.67641 
1.00536 0.090941 1.41353 
0.985834 0.090941 1.67641 
1.01197 0.353823 1.67641 
0.556791 0.390656 1.6044 
0.985834 0.090941 1.67641 
0.556791 0.390656 1.6044 
0.564381 0.131656 1.61846 
1.01197 0.353823 1.67641 
1.03402 0.353823 1.41353 
0.65723 0.390805 1.35495 
1.01197 0.353823 1.67641 
0.65723 0.390805 1.35495 
0.556791 0.390656 1.6044 
1.03402 0.353823 1.41353 
1.00536 0.090941 1.41353 
0.662796 0.131809 1.36901 
1.03402 0.353823 1.41353 
0.662796 0.131809 1.36901 
0.65723 0.390805 1.35495 
1.00536 0.090941 1.41353 
0.985834 0.090941 1.67641 
0.564381 0.131656 1.61846 
1.00536 0.090941 1.41353 
0.564381 0.131656 1.61846 
0.662796 0.131809 1.36901 
0.564381 0.131656 1.61846 
0.556791 0.390656 1.6044 
-0.127277 0.312935 1.28134 
0.564381 0.131656 1.61846 
-0.127277 0.312935 1.28134 
-0.204803 0.053408 1.27167 
0.556791 0.390656 1.6044 
0.65723 0.390805 1.35495 
-0.035618 0.311462 1.02782 
0.556791 0.390656 1.6044 
-0.035618 0.311462 1.02782 
-0.127277 0.312935 1.28134 
0.65723 0.390805 1.35495 
0.662796 0.131809 1.36901 
-0.11504 0.051939 1.01816 
0.65723 0.390805 1.35495 
-0.11504 0.051939 1.01816 
-0.035618 0.311462 1.02782 
0.662796 0.131809 1.36901 
0.564381 0.131656 1.61846 
-0.204803 0.053408 1.27167 
0.662796 0.131809 1.36901 
-0.204803 0.053408 1.27167 
-0.11504 0.051939 1.01816 
-0.204803 0.053408 1.27167 
-0.127277 0.312935 1.28134 
-0.836643 0.655229 1.00068 
-0.204803 0.053408 1.27167 
-0.836643 0.655229 1.00068 
-0.837776 0.396396 1.0068 
-0.127277 0.312935 1.28134 
-0.035618 0.311462 1.02782 
-0.724241 0.6642 0.751865 
-0.127277 0.312935 1.28134 
-0.724241 0.6642 0.751865 
-0.836643 0.655229 1.00068 
-0.035618 0.311462 1.02782 
-0.11504 0.051939 1.01816 
-0.72753 0.405368 0.75798 
-0.035618 0.311462 1.02782 
-0.72753 0.405368 0.75798 
-0.724241 0.6642 0.751865 
-0.11504 0.051939 1.01816 
-0.204803 0.053408 1.27167 
-0.837776 0.396396 1.0068 
-0.11504 0.051939 1.01816 
-0.837776 0.396396 1.0068 
-0.72753 0.405368 0.75798 
-0.837776 0.396396 1.0068 
-0.836643 0.655229 1.00068 
-1.11729 1.48793 0.085501 
-0.837776 0.396396 1.0068 
-1.11729 1.48793 0.085501 
-1.21705 1.23884 -0.132236 
-0.836643 0.655229 1.00068 
-0.724241 0.6642 0.751865 
-0.845997 1.48798 0.0452 
-0.836643 0.655229 1.00068 
-0.845997 1.48798 0.0452 
-1.11729 1.48793 0.085501 
-0.724241 0.6642 0.751865 
-0.72753 0.405368 0.75798 
-0.947016 1.23808 -0.174194 
-0.724241 0.6642 0.751865 
-0.947016 1.23808 -0.174194 
-0.845997 1.48798 0.0452 
-0.72753 0.405368 0.75798 
-0.837776 0.396396 1.0068 
-1.21705 1.23884 -0.132236 
-0.72753 0.405368 0.75798 
-1.21705 1.23884 -0.132236 
-0.947016 1.23808 -0.174194 
-1.21705 1.23884 -0.132236 
-1.11729 1.48793 0.085501 
-0.582205 3.14625 -0.804251 
-1.21705 1.23884 -0.132236 
-0.582205 3.14625 -0.804251 
-0.756445 2.92291 -0.982195 
-1.11729 1.48793 0.085501 
-0.845997 1.48798 0.0452 
-0.388937 3.09287 -0.970367 
-1.11729 1.48793 0.085501 
-0.388937 3.09287 -0.970367 
-0.582205 3.14625 -0.804251 
-0.845997 1.48798 0.0452 
-0.947016 1.23808 -0.174194 
-0.561741 2.87101 -1.14763 
-0.845997 1.48798 0.0452 
-0.561741 2.87101 -1.14763 
-0.388937 3.09287 -0.970367 
-0.947016 1.23808 -0.174194 
-1.21705 1.23884 -0.132236 
-0.756445 2.92291 -0.982195 
-0.947016 1.23808 -0.174194 
-0.756445 2.92291 -0.982195 
-0.561741 2.87101 -1.14763 
-0.756445 2.92291 -0.982195 
-0.582205 3.14625 -0.804251 
-0.643801 5.7566 -0.936977 
-0.756445 2.92291 -0.982195 
-0.643801 5.7566 -0.936977 
-0.922298 5.8496 -1.29199 
-0.582205 3.14625 -0.804251 
-0.388937 3.09287 -0.970367 
-0.478079 5.74568 -1.15594 
-0.582205 3.14625 -0.804251 
-0.478079 5.74568 -1.15594 
-0.643801 5.7566 -0.936977 
-0.388937 3.09287 -0.970367 
-0.561741 2.87101 -1.14763 
-0.754675 5.83789 -1.50796 
-0.388937 3.09287 -0.970367 
-0.754675 5.83789 -1.50796 
-0.478079 5.74568 -1.15594 
-0.561741 2.87101 -1.14763 
-0.756445 2.92291 -0.982195 
-0.922298 5.8496 -1.29199 
-0.561741 2.87101 -1.14763 
-0.922298 5.8496 -1.29199 
-0.754675 5.83789 -1.50796 
-0.922298 5.8496 -1.29199 
-0.643801 5.7566 -0.936977 
-0.273088 9.09394 -1.2778 
-0.922298 5.8496 -1.29199 
-0.273088 9.09394 -1.2778 
-0.525385 8.91837 -1.53803 
-0.643801 5.7566 -0.936977 
-0.478079 5.74568 -1.15594 
-0.134342 9.13935 -1.49647 
-0.643801 5.7566 -0.936977 
-0.134342 9.13935 -1.49647 
-0.273088 9.09394 -1.2778 
-0.478079 5.74568 -1.15594 
-0.754675 5.83789 -1.50796 
-0.392889 8.95923 -1.76735 
-0.478079 5.74568 -1.15594 
-0.392889 8.95923 -1.76735 
-0.134342 9.13935 -1.49647 
-0.754675 5.83789 -1.50796 
-0.922298 5.8496 -1.29199 
-0.525385 8.91837 -1.53803 
-0.754675 5.83789 -1.50796 
-0.525385 8.91837 -1.53803 
-0.392889 8.95923 -1.76735 
-0.525385 8.91837 -1.53803 
-0.273088 9.09394 -1.2778 
-0.412643 11.1169 -1.31297 
-0.525385 8.91837 -1.53803 
-0.412643 11.1169 -1.31297 
-0.726946 11.0379 -1.33404 
-0.273088 9.09394 -1.2778 
-0.134342 9.13935 -1.49647 
-0.430578 11.1607 -1.56281 
-0.273088 9.09394 -1.2778 
-0.430578 11.1607 -1.56281 
-0.412643 11.1169 -1.31297 
-0.134342 9.13935 -1.49647 
-0.392889 8.95923 -1.76735 
-0.744682 11.0818 -1.5838 
-0.134342 9.13935 -1.49647 
-0.744682 11.0818 -1.5838 
-0.430578 11.1607 -1.56281 
-0.392889 8.95923 -1.76735 
-0.525385 8.91837 -1.53803 
-0.726946 11.0379 -1.33404 
-0.392889 8.95923 -1.76735 
-0.726946 11.0379 -1.33404 
-0.744682 11.0818 -1.5838 
-0.726946 11.0379 -1.33404 
-0.412643 11.1169 -1.31297 
-0.284424 15.829 -1.19783 
-0.726946 11.0379 -1.33404 
-0.284424 15.829 -1.19783 
-0.637304 15.829 -1.19783 
-0.412643 11.1169 -1.31297 
-0.430578 11.1607 -1.56281 
-0.284424 15.829 -1.55071 
-0.412643 11.1169 -1.31297 
-0.284424 15.829 -1.55071 
-0.284424 15.829 -1.19783 
-0.430578 11.1607 -1.56281 
-0.744682 11.0818 -1.5838 
-0.637304 15.829 -1.55071 
-0.430578 11.1607 -1.56281 
-0.637304 15.829 -1.55071 
-0.284424 15.829 -1.55071 
-0.744682 11.0818 -1.5838 
-0.726946 11.0379 -1.33404 
-0.637304 15.829 -1.19783 
-0.744682 11.0818 -1.5838 
-0.637304 15.829 -1.19783 
-0.637304 15.829 -1.55071 
3 0 1 2
3 3 4 5
3 6 7 8
3 9 10 11
3 12 13 14
3 15 16 17
3 18 19 20
3 21 22 23
3 24 25 26
3 27 28 29
3 30 31 32
3 33 34 35
3 36 37 38
3 39 40 41
3 42 43 44
3 45 46 47
3 48 49 50
3 51 52 53
3 54 55 56
3 57 58 59
3 60 61 62
3 63 64 65
3 66 67 68
3 69 70 71
3 72 73 74
3 75 76 77
3 78 79 80
3 81 82 83
3 84 85 86
3 87 88 89
3 90 91 92
3 93 94 95
3 96 97 98
3 99 100 101
3 102 103 104
3 105 106 107
3 108 109 110
3 111 112 113
3 114 115 116
3 117 118 119
3 120 121 122
3 123 124 125
3 126 127 128
3 129 130 131
3 132 133 134
3 135 136 137
3 138 139 140
3 141 142 143
3 144 145 146
3 147 148 149
3 150 151 152
3 153 154 155
3 156 157 158
3 159 160 161
3 162 163 164
3 165 166 167
3 168 169 170
3 171 172 173
3 174 175 176
3 177 178 179
3 180 181 182
3 183 184 185
3 186 187 188
3 189 190 191
3 192 193 194
3 195 196 197
3 198 199 200
3 201 202 203
3 204 205 206
3 207 208 209
3 210 211 212
3 213 214 215
3 216 217 218
3 219 220 221
3 222 223 224
3 225 226 227
3 228 229 230
3 231 232 233
3 234 235 236
3 237 238 239
3 240 241 242
3 243 244 245
3 246 247 248
3 249 250 251
3 252 253 254
3 255 256 257
3 258 259 260
3 261 262 263
3 264 265 266
3 267 268 269
3 270 271 272
3 273 274 275
3 276 277 278
3 279 280 281
3 282 283 284
3 285 286 287
3 288 289 290
3 291 292 293
3 294 295 296
3 297 298 299
3 300 301 302
3 303 304 305
3 306 307 308
3 309 310 311
3 312 313 314
3 315 316 317
