ply
format ascii 1.0
comment Feeney's Flatenator generated
comment TextureFile SpaceInteriors_Texture.png
element vertex 588
property float x
property float y
property float z
element face 196
property list uchar int vertex_indices
end_header
-0.988018 0.076337 0 
-0.988018 0.411726 0 
-1.23304 0.411726 0 
-0.988018 0.076337 0 
-1.23304 0.411726 0 
-1.23304 0.076337 0 
-2.04061 0.278218 -0.172706 
-0.180452 0.278218 -0.172706 
-0.180452 0.278218 -1.24615 
-2.04061 0.278218 -0.172706 
-0.180452 0.278218 -1.24615 
-2.04061 0.278218 -1.24615 
-0.988018 0.076337 -1.41886 
-1.23304 0.076337 -1.41886 
-1.23304 0.411726 -1.41886 
-0.988018 0.076337 -1.41886 
-1.23304 0.411726 -1.41886 
-0.988018 0.411726 -1.41886 
-2.22106 0 -1.41886 
2e-06 0 -1.41886 
2e-06 0 0 
-2.22106 0 -1.41886 
2e-06 0 0 
-2.22106 0 0 
2e-06 0 0 
2e-06 0 -1.41886 
2e-06 0.488063 -1.41886 
2e-06 0 0 
2e-06 0.488063 -1.41886 
2e-06 0.488063 0 
-2.22106 0 -1.41886 
-2.22106 0 0 
-2.22106 0.488063 0 
-2.22106 0 -1.41886 
-2.22106 0.488063 0 
-2.22106 0.488063 -1.41886 
-2.22106 0.488063 0 
2e-06 0.488063 0 
-0.180452 0.488063 -0.172706 
-2.22106 0.488063 0 
-0.180452 0.488063 -0.172706 
-2.04061 0.488063 -0.172706 
2e-06 0.488063 0 
2e-06 0.488063 -1.41886 
-0.180452 0.488063 -1.24615 
2e-06 0.488063 0 
-0.180452 0.488063 -1.24615 
-0.180452 0.488063 -0.172706 
2e-06 0.488063 -1.41886 
-2.22106 0.488063 -1.41886 
-2.04061 0.488063 -1.24615 
2e-06 0.488063 -1.41886 
-2.04061 0.488063 -1.24615 
-0.180452 0.488063 -1.24615 
-2.22106 0.488063 -1.41886 
-2.22106 0.488063 0 
-2.04061 0.488063 -0.172706 
-2.22106 0.488063 -1.41886 
-2.04061 0.488063 -0.172706 
-2.04061 0.488063 -1.24615 
-2.04061 0.488063 -0.172706 
-0.180452 0.488063 -0.172706 
-0.180452 0.278218 -0.172706 
-2.04061 0.488063 -0.172706 
-0.180452 0.278218 -0.172706 
-2.04061 0.278218 -0.172706 
-0.180452 0.488063 -0.172706 
-0.180452 0.488063 -1.24615 
-0.180452 0.278218 -1.24615 
-0.180452 0.488063 -0.172706 
-0.180452 0.278218 -1.24615 
-0.180452 0.278218 -0.172706 
-0.180452 0.488063 -1.24615 
-2.04061 0.488063 -1.24615 
-2.04061 0.278218 -1.24615 
-0.180452 0.488063 -1.24615 
-2.04061 0.278218 -1.24615 
-0.180452 0.278218 -1.24615 
-2.04061 0.488063 -1.24615 
-2.04061 0.488063 -0.172706 
-2.04061 0.278218 -0.172706 
-2.04061 0.488063 -1.24615 
-2.04061 0.278218 -0.172706 
-2.04061 0.278218 -1.24615 
-2.22106 0 0 
2e-06 0 0 
-0.130436 0.076337 0 
-2.22106 0 0 
-0.130436 0.076337 0 
-0.375462 0.076337 0 
-2.22106 0 0 
-0.375462 0.076337 0 
-0.988018 0.076337 0 
-2.22106 0 0 
-0.988018 0.076337 0 
-1.23304 0.076337 0 
-2.22106 0 0 
-1.23304 0.076337 0 
-1.8456 0.076337 0 
-2.22106 0 0 
-1.8456 0.076337 0 
-2.09062 0.076337 0 
2e-06 0 0 
2e-06 0.488063 0 
-0.130436 0.411726 0 
2e-06 0 0 
-0.130436 0.411726 0 
-0.130436 0.076337 0 
2e-06 0.488063 0 
-2.22106 0.488063 0 
-2.09062 0.411726 0 
2e-06 0.488063 0 
-2.09062 0.411726 0 
-1.8456 0.411726 0 
2e-06 0.488063 0 
-1.8456 0.411726 0 
-1.23304 0.411726 0 
2e-06 0.488063 0 
-1.23304 0.411726 0 
-0.988018 0.411726 0 
2e-06 0.488063 0 
-0.988018 0.411726 0 
-0.375462 0.411726 0 
2e-06 0.488063 0 
-0.375462 0.411726 0 
-0.130436 0.411726 0 
-2.22106 0.488063 0 
-2.22106 0 0 
-2.09062 0.076337 0 
-2.22106 0.488063 0 
-2.09062 0.076337 0 
-2.09062 0.411726 0 
-2.22106 0.488063 -1.41886 
2e-06 0.488063 -1.41886 
-0.130436 0.411726 -1.41886 
-2.22106 0.488063 -1.41886 
-0.130436 0.411726 -1.41886 
-0.375462 0.411726 -1.41886 
-2.22106 0.488063 -1.41886 
-0.375462 0.411726 -1.41886 
-0.988018 0.411726 -1.41886 
-2.22106 0.488063 -1.41886 
-0.988018 0.411726 -1.41886 
-1.23304 0.411726 -1.41886 
-2.22106 0.488063 -1.41886 
-1.23304 0.411726 -1.41886 
-1.8456 0.411726 -1.41886 
-2.22106 0.488063 -1.41886 
-1.8456 0.411726 -1.41886 
-2.09062 0.411726 -1.41886 
2e-06 0.488063 -1.41886 
2e-06 0 -1.41886 
-0.130436 0.076337 -1.41886 
2e-06 0.488063 -1.41886 
-0.130436 0.076337 -1.41886 
-0.130436 0.411726 -1.41886 
2e-06 0 -1.41886 
-2.22106 0 -1.41886 
-2.09062 0.076337 -1.41886 
2e-06 0 -1.41886 
-2.09062 0.076337 -1.41886 
-1.8456 0.076337 -1.41886 
2e-06 0 -1.41886 
-1.8456 0.076337 -1.41886 
-1.23304 0.076337 -1.41886 
2e-06 0 -1.41886 
-1.23304 0.076337 -1.41886 
-0.988018 0.076337 -1.41886 
2e-06 0 -1.41886 
-0.988018 0.076337 -1.41886 
-0.375462 0.076337 -1.41886 
2e-06 0 -1.41886 
-0.375462 0.076337 -1.41886 
-0.130436 0.076337 -1.41886 
-2.22106 0 -1.41886 
-2.22106 0.488063 -1.41886 
-2.09062 0.411726 -1.41886 
-2.22106 0 -1.41886 
-2.09062 0.411726 -1.41886 
-2.09062 0.076337 -1.41886 
-2.09062 0.076337 0 
-1.8456 0.076337 0 
-1.8456 0.411726 0 
-2.09062 0.076337 0 
-1.8456 0.411726 0 
-2.09062 0.411726 0 
-0.375462 0.076337 -1.41886 
-0.375462 0.411726 -1.41886 
-0.130436 0.411726 -1.41886 
-0.375462 0.076337 -1.41886 
-0.130436 0.411726 -1.41886 
-0.130436 0.076337 -1.41886 
-0.375462 0.411726 -1.41886 
-0.375462 0.076337 -1.41886 
-0.988018 0.076337 -1.41886 
-0.375462 0.411726 -1.41886 
-0.988018 0.076337 -1.41886 
-0.988018 0.411726 -1.41886 
-1.8456 0.411726 -1.41886 
-1.23304 0.411726 -1.41886 
-1.23304 0.076337 -1.41886 
-1.8456 0.411726 -1.41886 
-1.23304 0.076337 -1.41886 
-1.8456 0.076337 -1.41886 
-2.09062 0.411726 -1.41886 
-1.8456 0.411726 -1.41886 
-1.8456 0.076337 -1.41886 
-2.09062 0.411726 -1.41886 
-1.8456 0.076337 -1.41886 
-2.09062 0.076337 -1.41886 
-0.375462 0.411726 0 
-0.375462 0.076337 0 
-0.130436 0.076337 0 
-0.375462 0.411726 0 
-0.130436 0.076337 0 
-0.130436 0.411726 0 
-1.8456 0.411726 0 
-1.8456 0.076337 0 
-1.23304 0.076337 0 
-1.8456 0.411726 0 
-1.23304 0.076337 0 
-1.23304 0.411726 0 
-0.375462 0.411726 0 
-0.988018 0.411726 0 
-0.988018 0.076337 0 
-0.375462 0.411726 0 
-0.988018 0.076337 0 
-0.375462 0.076337 0 
-0.944828 0.663658 -1.12843 
-1.04053 0.619589 -1.15656 
-1.07117 0.608784 -1.06806 
-0.944828 0.663658 -1.12843 
-1.07117 0.608784 -1.06806 
-0.975473 0.652854 -1.03992 
-0.834229 0.256135 -1.17284 
-1.05603 0.256136 -1.20423 
-1.04053 0.619589 -1.15656 
-0.834229 0.256135 -1.17284 
-1.04053 0.619589 -1.15656 
-0.944828 0.663658 -1.12843 
-1.05603 0.256136 -1.20423 
-1.15054 0.256136 -1.02171 
-1.07117 0.608784 -1.06806 
-1.05603 0.256136 -1.20423 
-1.07117 0.608784 -1.06806 
-1.04053 0.619589 -1.15656 
-1.15054 0.256136 -1.02171 
-0.910948 0.256135 -0.951264 
-0.975473 0.652854 -1.03992 
-1.15054 0.256136 -1.02171 
-0.975473 0.652854 -1.03992 
-1.07117 0.608784 -1.06806 
-0.910948 0.256135 -0.951264 
-0.834229 0.256135 -1.17284 
-0.944828 0.663658 -1.12843 
-0.910948 0.256135 -0.951264 
-0.944828 0.663658 -1.12843 
-0.975473 0.652854 -1.03992 
-0.884043 0.86854 -0.879137 
-1.01847 0.89581 -0.824831 
-0.959143 0.879107 -0.702095 
-0.884043 0.86854 -0.879137 
-0.959143 0.879107 -0.702095 
-0.82472 0.851837 -0.7564 
-0.838516 0.256135 -1.01357 
-1.17505 0.256135 -0.877613 
-1.01847 0.89581 -0.824831 
-0.838516 0.256135 -1.01357 
-1.01847 0.89581 -0.824831 
-0.884043 0.86854 -0.879137 
-1.17505 0.256135 -0.877613 
-1.02653 0.256135 -0.570339 
-0.959143 0.879107 -0.702095 
-1.17505 0.256135 -0.877613 
-0.959143 0.879107 -0.702095 
-1.01847 0.89581 -0.824831 
-1.02653 0.256135 -0.570339 
-0.690002 0.256135 -0.706292 
-0.82472 0.851837 -0.7564 
-1.02653 0.256135 -0.570339 
-0.82472 0.851837 -0.7564 
-0.959143 0.879107 -0.702095 
-0.690002 0.256135 -0.706292 
-0.838516 0.256135 -1.01357 
-0.884043 0.86854 -0.879137 
-0.690002 0.256135 -0.706292 
-0.884043 0.86854 -0.879137 
-0.82472 0.851837 -0.7564 
-0.268978 0.715034 -1.11306 
-0.367699 0.713985 -1.08961 
-0.341976 0.694742 -0.999992 
-0.268978 0.715034 -1.11306 
-0.341976 0.694742 -0.999992 
-0.243256 0.695791 -1.02345 
-0.215427 0.256135 -1.20399 
-0.462578 0.256135 -1.14528 
-0.367699 0.713985 -1.08961 
-0.215427 0.256135 -1.20399 
-0.367699 0.713985 -1.08961 
-0.268978 0.715034 -1.11306 
-0.462578 0.256135 -1.14528 
-0.398178 0.256135 -0.920924 
-0.341976 0.694742 -0.999992 
-0.462578 0.256135 -1.14528 
-0.341976 0.694742 -0.999992 
-0.367699 0.713985 -1.08961 
-0.398178 0.256135 -0.920924 
-0.151028 0.256135 -0.979636 
-0.243256 0.695791 -1.02345 
-0.398178 0.256135 -0.920924 
-0.243256 0.695791 -1.02345 
-0.341976 0.694742 -0.999992 
-0.151028 0.256135 -0.979636 
-0.215427 0.256135 -1.20399 
-0.268978 0.715034 -1.11306 
-0.151028 0.256135 -0.979636 
-0.268978 0.715034 -1.11306 
-0.243256 0.695791 -1.02345 
-1.48877 0.79237 -1.00562 
-1.52611 0.794693 -0.903116 
-1.41398 0.82328 -0.869347 
-1.48877 0.79237 -1.00562 
-1.41398 0.82328 -0.869347 
-1.37663 0.820957 -0.971853 
-1.5359 0.256135 -1.10455 
-1.62938 0.256135 -0.847926 
-1.52611 0.794693 -0.903116 
-1.5359 0.256135 -1.10455 
-1.52611 0.794693 -0.903116 
-1.48877 0.79237 -1.00562 
-1.62938 0.256135 -0.847926 
-1.34863 0.256135 -0.763385 
-1.41398 0.82328 -0.869347 
-1.62938 0.256135 -0.847926 
-1.41398 0.82328 -0.869347 
-1.52611 0.794693 -0.903116 
-1.34863 0.256135 -0.763385 
-1.25515 0.256135 -1.02001 
-1.37663 0.820957 -0.971853 
-1.34863 0.256135 -0.763385 
-1.37663 0.820957 -0.971853 
-1.41398 0.82328 -0.869347 
-1.25515 0.256135 -1.02001 
-1.5359 0.256135 -1.10455 
-1.48877 0.79237 -1.00562 
-1.25515 0.256135 -1.02001 
-1.48877 0.79237 -1.00562 
-1.37663 0.820957 -0.971853 
-1.83617 0.737643 -0.403058 
-1.93538 0.723788 -0.38193 
-1.912 0.716632 -0.291562 
-1.83617 0.737643 -0.403058 
-1.912 0.716632 -0.291562 
-1.81279 0.730487 -0.312689 
-1.77508 0.256135 -0.490057 
-2.02344 0.256135 -0.437167 
-1.93538 0.723788 -0.38193 
-1.77508 0.256135 -0.490057 
-1.93538 0.723788 -0.38193 
-1.83617 0.737643 -0.403058 
-2.02344 0.256135 -0.437167 
-1.96492 0.256135 -0.210926 
-1.912 0.716632 -0.291562 
-2.02344 0.256135 -0.437167 
-1.912 0.716632 -0.291562 
-1.93538 0.723788 -0.38193 
-1.96492 0.256135 -0.210926 
-1.71655 0.256135 -0.263817 
-1.81279 0.730487 -0.312689 
-1.96492 0.256135 -0.210926 
-1.81279 0.730487 -0.312689 
-1.912 0.716632 -0.291562 
-1.71655 0.256135 -0.263817 
-1.77508 0.256135 -0.490057 
-1.83617 0.737643 -0.403058 
-1.71655 0.256135 -0.263817 
-1.83617 0.737643 -0.403058 
-1.81279 0.730487 -0.312689 
-1.35283 0.80632 -0.43103 
-1.40748 0.71598 -0.31056 
-1.29083 0.703491 -0.294056 
-1.35283 0.80632 -0.43103 
-1.29083 0.703491 -0.294056 
-1.2159 0.763657 -0.383595 
-1.41689 0.256135 -0.588561 
-1.55369 0.256136 -0.286963 
-1.40748 0.71598 -0.31056 
-1.41689 0.256135 -0.588561 
-1.40748 0.71598 -0.31056 
-1.35283 0.80632 -0.43103 
-1.55369 0.256136 -0.286963 
-1.27397 0.256135 -0.222955 
-1.29083 0.703491 -0.294056 
-1.55369 0.256136 -0.286963 
-1.29083 0.703491 -0.294056 
-1.40748 0.71598 -0.31056 
-1.27397 0.256135 -0.222955 
-1.07408 0.256135 -0.469809 
-1.2159 0.763657 -0.383595 
-1.27397 0.256135 -0.222955 
-1.2159 0.763657 -0.383595 
-1.29083 0.703491 -0.294056 
-1.07408 0.256135 -0.469809 
-1.41689 0.256135 -0.588561 
-1.35283 0.80632 -0.43103 
-1.07408 0.256135 -0.469809 
-1.35283 0.80632 -0.43103 
-1.2159 0.763657 -0.383595 
-1.79521 0.765644 -0.620707 
-1.71696 0.74827 -0.530578 
-1.62087 0.715778 -0.601061 
-1.79521 0.765644 -0.620707 
-1.62087 0.715778 -0.601061 
-1.69912 0.733152 -0.69119 
-1.94172 0.256135 -0.621249 
-1.74581 0.256135 -0.395609 
-1.71696 0.74827 -0.530578 
-1.94172 0.256135 -0.621249 
-1.71696 0.74827 -0.530578 
-1.79521 0.765644 -0.620707 
-1.74581 0.256135 -0.395609 
-1.50525 0.256135 -0.572067 
-1.62087 0.715778 -0.601061 
-1.74581 0.256135 -0.395609 
-1.62087 0.715778 -0.601061 
-1.71696 0.74827 -0.530578 
-1.50525 0.256135 -0.572067 
-1.70116 0.256135 -0.797707 
-1.69912 0.733152 -0.69119 
-1.50525 0.256135 -0.572067 
-1.69912 0.733152 -0.69119 
-1.62087 0.715778 -0.601061 
-1.70116 0.256135 -0.797707 
-1.94172 0.256135 -0.621249 
-1.79521 0.765644 -0.620707 
-1.70116 0.256135 -0.797707 
-1.79521 0.765644 -0.620707 
-1.69912 0.733152 -0.69119 
-1.49167 0.768176 -0.672795 
-1.31229 0.795446 -0.655436 
-1.29261 0.778743 -0.818931 
-1.49167 0.768176 -0.672795 
-1.29261 0.778743 -0.818931 
-1.47199 0.751473 -0.83629 
-1.63059 0.256136 -0.555413 
-1.18151 0.256135 -0.511953 
-1.31229 0.795446 -0.655436 
-1.63059 0.256136 -0.555413 
-1.31229 0.795446 -0.655436 
-1.49167 0.768176 -0.672795 
-1.18151 0.256135 -0.511953 
-1.13226 0.256135 -0.921266 
-1.29261 0.778743 -0.818931 
-1.18151 0.256135 -0.511953 
-1.29261 0.778743 -0.818931 
-1.31229 0.795446 -0.655436 
-1.13226 0.256135 -0.921266 
-1.58133 0.256136 -0.964725 
-1.47199 0.751473 -0.83629 
-1.13226 0.256135 -0.921266 
-1.47199 0.751473 -0.83629 
-1.29261 0.778743 -0.818931 
-1.58133 0.256136 -0.964725 
-1.63059 0.256136 -0.555413 
-1.49167 0.768176 -0.672795 
-1.58133 0.256136 -0.964725 
-1.49167 0.768176 -0.672795 
-1.47199 0.751473 -0.83629 
-1.86208 0.614671 -0.9667 
-1.74141 0.613621 -0.936499 
-1.70835 0.594378 -1.04605 
-1.86208 0.614671 -0.9667 
-1.70835 0.594378 -1.04605 
-1.82902 0.595428 -1.07625 
-1.98022 0.256136 -0.900006 
-1.67813 0.256135 -0.824398 
-1.74141 0.613621 -0.936499 
-1.98022 0.256136 -0.900006 
-1.74141 0.613621 -0.936499 
-1.86208 0.614671 -0.9667 
-1.67813 0.256135 -0.824398 
-1.59538 0.256136 -1.09867 
-1.70835 0.594378 -1.04605 
-1.67813 0.256135 -0.824398 
-1.70835 0.594378 -1.04605 
-1.74141 0.613621 -0.936499 
-1.59538 0.256136 -1.09867 
-1.89747 0.256136 -1.17428 
-1.82902 0.595428 -1.07625 
-1.59538 0.256136 -1.09867 
-1.82902 0.595428 -1.07625 
-1.70835 0.594378 -1.04605 
-1.89747 0.256136 -1.17428 
-1.98022 0.256136 -0.900006 
-1.86208 0.614671 -0.9667 
-1.89747 0.256136 -1.17428 
-1.86208 0.614671 -0.9667 
-1.82902 0.595428 -1.07625 
-0.885138 0.692007 -0.347568 
-0.776411 0.69433 -0.435608 
-0.87278 0.722916 -0.534084 
-0.885138 0.692007 -0.347568 
-0.87278 0.722916 -0.534084 
-0.98151 0.720593 -0.446043 
-0.901737 0.256136 -0.216171 
-0.629534 0.256136 -0.436583 
-0.776411 0.69433 -0.435608 
-0.901737 0.256136 -0.216171 
-0.776411 0.69433 -0.435608 
-0.885138 0.692007 -0.347568 
-0.629534 0.256136 -0.436583 
-0.870798 0.256135 -0.683118 
-0.87278 0.722916 -0.534084 
-0.629534 0.256136 -0.436583 
-0.87278 0.722916 -0.534084 
-0.776411 0.69433 -0.435608 
-0.870798 0.256135 -0.683118 
-1.143 0.256135 -0.462706 
-0.98151 0.720593 -0.446043 
-0.870798 0.256135 -0.683118 
-0.98151 0.720593 -0.446043 
-0.87278 0.722916 -0.534084 
-1.143 0.256135 -0.462706 
-0.901737 0.256136 -0.216171 
-0.885138 0.692007 -0.347568 
-1.143 0.256135 -0.462706 
-0.885138 0.692007 -0.347568 
-0.98151 0.720593 -0.446043 
-0.483618 0.637279 -0.422006 
-0.364 0.623425 -0.389063 
-0.327948 0.616269 -0.498107 
-0.483618 0.637279 -0.422006 
-0.327948 0.616269 -0.498107 
-0.447563 0.630123 -0.531051 
-0.607126 0.256136 -0.363698 
-0.307667 0.256136 -0.281226 
-0.364 0.623425 -0.389063 
-0.607126 0.256136 -0.363698 
-0.364 0.623425 -0.389063 
-0.483618 0.637279 -0.422006 
-0.307667 0.256136 -0.281226 
-0.217409 0.256136 -0.554221 
-0.327948 0.616269 -0.498107 
-0.307667 0.256136 -0.281226 
-0.327948 0.616269 -0.498107 
-0.364 0.623425 -0.389063 
-0.217409 0.256136 -0.554221 
-0.51687 0.256136 -0.636693 
-0.447563 0.630123 -0.531051 
-0.217409 0.256136 -0.554221 
-0.447563 0.630123 -0.531051 
-0.327948 0.616269 -0.498107 
-0.51687 0.256136 -0.636693 
-0.607126 0.256136 -0.363698 
-0.483618 0.637279 -0.422006 
-0.51687 0.256136 -0.636693 
-0.483618 0.637279 -0.422006 
-0.447563 0.630123 -0.531051 
-0.586563 0.784776 -0.691314 
-0.471247 0.743346 -0.821117 
-0.610863 0.72181 -0.926445 
-0.586563 0.784776 -0.691314 
-0.610863 0.72181 -0.926445 
-0.726177 0.76324 -0.796641 
-0.567028 0.256136 -0.513907 
-0.278336 0.256136 -0.838873 
-0.471247 0.743346 -0.821117 
-0.567028 0.256136 -0.513907 
-0.471247 0.743346 -0.821117 
-0.586563 0.784776 -0.691314 
-0.278336 0.256136 -0.838873 
-0.627859 0.256136 -1.10256 
-0.610863 0.72181 -0.926445 
-0.278336 0.256136 -0.838873 
-0.610863 0.72181 -0.926445 
-0.471247 0.743346 -0.821117 
-0.627859 0.256136 -1.10256 
-0.916553 0.256135 -0.777596 
-0.726177 0.76324 -0.796641 
-0.627859 0.256136 -1.10256 
-0.726177 0.76324 -0.796641 
-0.610863 0.72181 -0.926445 
-0.916553 0.256135 -0.777596 
-0.567028 0.256136 -0.513907 
-0.586563 0.784776 -0.691314 
-0.916553 0.256135 -0.777596 
-0.586563 0.784776 -0.691314 
-0.726177 0.76324 -0.796641 
3 0 1 2
3 3 4 5
3 6 7 8
3 9 10 11
3 12 13 14
3 15 16 17
3 18 19 20
3 21 22 23
3 24 25 26
3 27 28 29
3 30 31 32
3 33 34 35
3 36 37 38
3 39 40 41
3 42 43 44
3 45 46 47
3 48 49 50
3 51 52 53
3 54 55 56
3 57 58 59
3 60 61 62
3 63 64 65
3 66 67 68
3 69 70 71
3 72 73 74
3 75 76 77
3 78 79 80
3 81 82 83
3 84 85 86
3 87 88 89
3 90 91 92
3 93 94 95
3 96 97 98
3 99 100 101
3 102 103 104
3 105 106 107
3 108 109 110
3 111 112 113
3 114 115 116
3 117 118 119
3 120 121 122
3 123 124 125
3 126 127 128
3 129 130 131
3 132 133 134
3 135 136 137
3 138 139 140
3 141 142 143
3 144 145 146
3 147 148 149
3 150 151 152
3 153 154 155
3 156 157 158
3 159 160 161
3 162 163 164
3 165 166 167
3 168 169 170
3 171 172 173
3 174 175 176
3 177 178 179
3 180 181 182
3 183 184 185
3 186 187 188
3 189 190 191
3 192 193 194
3 195 196 197
3 198 199 200
3 201 202 203
3 204 205 206
3 207 208 209
3 210 211 212
3 213 214 215
3 216 217 218
3 219 220 221
3 222 223 224
3 225 226 227
3 228 229 230
3 231 232 233
3 234 235 236
3 237 238 239
3 240 241 242
3 243 244 245
3 246 247 248
3 249 250 251
3 252 253 254
3 255 256 257
3 258 259 260
3 261 262 263
3 264 265 266
3 267 268 269
3 270 271 272
3 273 274 275
3 276 277 278
3 279 280 281
3 282 283 284
3 285 286 287
3 288 289 290
3 291 292 293
3 294 295 296
3 297 298 299
3 300 301 302
3 303 304 305
3 306 307 308
3 309 310 311
3 312 313 314
3 315 316 317
3 318 319 320
3 321 322 323
3 324 325 326
3 327 328 329
3 330 331 332
3 333 334 335
3 336 337 338
3 339 340 341
3 342 343 344
3 345 346 347
3 348 349 350
3 351 352 353
3 354 355 356
3 357 358 359
3 360 361 362
3 363 364 365
3 366 367 368
3 369 370 371
3 372 373 374
3 375 376 377
3 378 379 380
3 381 382 383
3 384 385 386
3 387 388 389
3 390 391 392
3 393 394 395
3 396 397 398
3 399 400 401
3 402 403 404
3 405 406 407
3 408 409 410
3 411 412 413
3 414 415 416
3 417 418 419
3 420 421 422
3 423 424 425
3 426 427 428
3 429 430 431
3 432 433 434
3 435 436 437
3 438 439 440
3 441 442 443
3 444 445 446
3 447 448 449
3 450 451 452
3 453 454 455
3 456 457 458
3 459 460 461
3 462 463 464
3 465 466 467
3 468 469 470
3 471 472 473
3 474 475 476
3 477 478 479
3 480 481 482
3 483 484 485
3 486 487 488
3 489 490 491
3 492 493 494
3 495 496 497
3 498 499 500
3 501 502 503
3 504 505 506
3 507 508 509
3 510 511 512
3 513 514 515
3 516 517 518
3 519 520 521
3 522 523 524
3 525 526 527
3 528 529 530
3 531 532 533
3 534 535 536
3 537 538 539
3 540 541 542
3 543 544 545
3 546 547 548
3 549 550 551
3 552 553 554
3 555 556 557
3 558 559 560
3 561 562 563
3 564 565 566
3 567 568 569
3 570 571 572
3 573 574 575
3 576 577 578
3 579 580 581
3 582 583 584
3 585 586 587
