ply
format ascii 1.0
comment Feeney's Flatenator generated
comment TextureFile SpaceInteriors_Texture.png
element vertex 318
property float x
property float y
property float z
property float nx
property float ny
property float nz
property uchar red
property uchar green
property uchar blue
property uchar alpha
property float texture_u
property float texture_v
element face 106
property list uchar int vertex_indices
end_header
-0.151155 15.829 -1.06457 0.0624983 0 0 108 105 102 255 0.267492 0.061667 
-0.151155 15.829 -1.68398 0.0624983 0 0 108 105 102 255 0.267492 0.061667 
-0.151155 15.9299 -1.68398 0.0624983 0 0 108 105 102 255 0.267492 0.061667 
-0.151155 15.829 -1.06457 0.0624983 -0 0 108 105 102 255 0.267492 0.061667 
-0.151155 15.9299 -1.68398 0.0624983 -0 0 108 105 102 255 0.267492 0.061667 
-0.151155 15.9299 -1.06457 0.0624983 -0 0 108 105 102 255 0.267492 0.061667 
-0.770573 15.9299 -1.06457 -0.0624983 1.21835e-06 0 58 57 55 255 0.167607 0.061667 
-0.770573 15.9299 -1.68398 -0.0624983 1.21835e-06 0 58 57 55 255 0.167607 0.061667 
-0.770575 15.829 -1.68398 -0.0624983 1.21835e-06 0 58 57 55 255 0.167607 0.061667 
-0.770573 15.9299 -1.06457 -0.0624983 1.21835e-06 0 58 57 55 255 0.167607 0.061667 
-0.770575 15.829 -1.68398 -0.0624983 1.21835e-06 0 58 57 55 255 0.167607 0.061667 
-0.770575 15.829 -1.06457 -0.0624983 1.21835e-06 0 58 57 55 255 0.167607 0.061667 
-0.770575 15.829 -1.68398 0 0 -0.0624991 75 72 70 255 0.200588 0.061667 
-0.770573 15.9299 -1.68398 0 0 -0.0624991 75 72 70 255 0.200588 0.061667 
-0.151155 15.9299 -1.68398 0 0 -0.0624991 75 72 70 255 0.200588 0.061667 
-0.770575 15.829 -1.68398 0 0 -0.0624993 75 72 70 255 0.200588 0.061667 
-0.151155 15.9299 -1.68398 0 0 -0.0624993 75 72 70 255 0.200588 0.061667 
-0.151155 15.829 -1.68398 0 0 -0.0624993 75 72 70 255 0.200588 0.061667 
-0.770573 15.9299 -1.06457 0 0 0.0624993 75 72 70 255 0.200588 0.061667 
-0.770575 15.829 -1.06457 0 0 0.0624993 75 72 70 255 0.200588 0.061667 
-0.151155 15.829 -1.06457 0 0 0.0624993 75 72 70 255 0.200588 0.061667 
-0.770573 15.9299 -1.06457 -0 0 0.0624991 75 72 70 255 0.200588 0.061667 
-0.151155 15.829 -1.06457 -0 0 0.0624991 75 72 70 255 0.200588 0.061667 
-0.151155 15.9299 -1.06457 -0 0 0.0624991 75 72 70 255 0.200588 0.061667 
-0.770575 15.829 -1.06457 0 -0.0825494 0 91 88 86 255 0.232626 0.061667 
-0.770575 15.829 -1.68398 0 -0.0825494 0 91 88 86 255 0.232626 0.061667 
-0.637304 15.829 -1.55071 0 -0.0825494 0 91 88 86 255 0.232626 0.061667 
-0.770575 15.829 -1.06457 0 -0.0470287 0 91 88 86 255 0.232626 0.061667 
-0.637304 15.829 -1.55071 0 -0.0470287 0 91 88 86 255 0.232626 0.061667 
-0.637304 15.829 -1.19783 0 -0.0470287 0 91 88 86 255 0.232626 0.061667 
-0.770575 15.829 -1.68398 0 -0.0825501 0 91 88 86 255 0.232626 0.061667 
-0.151155 15.829 -1.68398 0 -0.0825501 0 91 88 86 255 0.232626 0.061667 
-0.284424 15.829 -1.55071 0 -0.0825501 0 91 88 86 255 0.232626 0.061667 
-0.770575 15.829 -1.68398 0 -0.0470283 0 91 88 86 255 0.232626 0.061667 
-0.284424 15.829 -1.55071 0 -0.0470283 0 91 88 86 255 0.232626 0.061667 
-0.637304 15.829 -1.55071 0 -0.0470283 0 91 88 86 255 0.232626 0.061667 
-0.151155 15.829 -1.68398 0 -0.0825482 0 91 88 86 255 0.232626 0.061667 
-0.151155 15.829 -1.06457 0 -0.0825482 0 91 88 86 255 0.232626 0.061667 
-0.284424 15.829 -1.19783 0 -0.0825482 0 91 88 86 255 0.232626 0.061667 
-0.151155 15.829 -1.68398 0 -0.047028 0 91 88 86 255 0.232626 0.061667 
-0.284424 15.829 -1.19783 0 -0.047028 0 91 88 86 255 0.232626 0.061667 
-0.284424 15.829 -1.55071 0 -0.047028 0 91 88 86 255 0.232626 0.061667 
-0.151155 15.829 -1.06457 -0 -0.0825439 0 91 88 86 255 0.232626 0.061667 
-0.770575 15.829 -1.06457 -0 -0.0825439 0 91 88 86 255 0.232626 0.061667 
-0.637304 15.829 -1.19783 -0 -0.0825439 0 91 88 86 255 0.232626 0.061667 
-0.151155 15.829 -1.06457 0 -0.0470248 0 91 88 86 255 0.232626 0.061667 
-0.637304 15.829 -1.19783 0 -0.0470248 0 91 88 86 255 0.232626 0.061667 
-0.284424 15.829 -1.19783 0 -0.0470248 0 91 88 86 255 0.232626 0.061667 
1.14109 0 1.76735 0 -0 0.0744977 91 88 86 255 0.232626 0.061667 
1.18075 0.444762 1.76735 0 -0 0.0744977 91 88 86 255 0.232626 0.061667 
1.01325 0.444763 1.76735 0 -0 0.0744977 91 88 86 255 0.232626 0.061667 
1.14109 0 1.76735 0 0 0.0757988 91 88 86 255 0.232626 0.061667 
1.01325 0.444763 1.76735 0 0 0.0757988 91 88 86 255 0.232626 0.061667 
0.970665 0 1.76735 0 0 0.0757988 91 88 86 255 0.232626 0.061667 
1.00212 0 1.32259 0 0 -0.0734393 91 88 86 255 0.232626 0.061667 
1.05193 0.444763 1.32259 0 0 -0.0734393 91 88 86 255 0.232626 0.061667 
1.21705 0.444762 1.32259 0 0 -0.0734393 91 88 86 255 0.232626 0.061667 
1.00212 0 1.32259 0 0 -0.0748178 91 88 86 255 0.232626 0.061667 
1.21705 0.444762 1.32259 0 0 -0.0748178 91 88 86 255 0.232626 0.061667 
1.17034 0 1.32259 0 0 -0.0748178 91 88 86 255 0.232626 0.061667 
1.17034 0 1.32259 0.197812 -0.0207747 0.0161448 58 57 55 255 0.167607 0.061667 
1.21705 0.444762 1.32259 0.197812 -0.0207747 0.0161448 58 57 55 255 0.167607 0.061667 
1.18075 0.444762 1.76735 0.197812 -0.0207747 0.0161448 58 57 55 255 0.167607 0.061667 
1.17034 0 1.32259 0.197812 -0.0176392 0.0130092 58 57 55 255 0.167607 0.061667 
1.18075 0.444762 1.76735 0.197812 -0.0176392 0.0130092 58 57 55 255 0.167607 0.061667 
1.14109 0 1.76735 0.197812 -0.0176392 0.0130092 58 57 55 255 0.167607 0.061667 
1.18075 0.444762 1.76735 4.50666e-07 0.0734388 3.6782e-08 75 72 70 255 0.200588 0.061667 
1.21705 0.444762 1.32259 4.50666e-07 0.0734388 3.6782e-08 75 72 70 255 0.200588 0.061667 
1.05193 0.444763 1.32259 4.50666e-07 0.0734388 3.6782e-08 75 72 70 255 0.200588 0.061667 
1.18075 0.444762 1.76735 4.50666e-07 0.0744973 3.91936e-08 75 72 70 255 0.200588 0.061667 
1.05193 0.444763 1.32259 4.50666e-07 0.0744973 3.91936e-08 75 72 70 255 0.200588 0.061667 
1.01325 0.444763 1.76735 4.50666e-07 0.0744973 3.91936e-08 75 72 70 255 0.200588 0.061667 
1.17034 0 1.32259 0 -0.0757982 0 75 72 70 255 0.200588 0.061667 
1.14109 0 1.76735 0 -0.0757982 0 75 72 70 255 0.200588 0.061667 
0.970665 0 1.76735 0 -0.0757982 0 75 72 70 255 0.200588 0.061667 
1.17034 0 1.32259 0 -0.0748175 0 75 72 70 255 0.200588 0.061667 
0.970665 0 1.76735 0 -0.0748175 0 75 72 70 255 0.200588 0.061667 
1.00212 0 1.32259 0 -0.0748175 0 75 72 70 255 0.200588 0.061667 
0.970665 0 1.76735 -0.0404467 0.00387268 -0.00330341 108 105 102 255 0.267492 0.061667 
1.01325 0.444763 1.76735 -0.0404467 0.00387268 -0.00330341 108 105 102 255 0.267492 0.061667 
1.01197 0.353823 1.67641 -0.0404467 0.00387268 -0.00330341 108 105 102 255 0.267492 0.061667 
0.970665 0 1.76735 -0.0239065 0.00237681 -0.00161083 108 105 102 255 0.267492 0.061667 
1.01197 0.353823 1.67641 -0.0239065 0.00237681 -0.00161083 108 105 102 255 0.267492 0.061667 
0.985834 0.090941 1.67641 -0.0239065 0.00237681 -0.00161083 108 105 102 255 0.267492 0.061667 
1.01325 0.444763 1.76735 -0.0404465 0.0044481 -0.00351756 108 105 102 255 0.267492 0.061667 
1.05193 0.444763 1.32259 -0.0404465 0.0044481 -0.00351756 108 105 102 255 0.267492 0.061667 
1.03402 0.353823 1.41353 -0.0404465 0.0044481 -0.00351756 108 105 102 255 0.267492 0.061667 
1.01325 0.444763 1.76735 -0.0239063 0.00234169 -0.00200522 108 105 102 255 0.267492 0.061667 
1.03402 0.353823 1.41353 -0.0239063 0.00234169 -0.00200522 108 105 102 255 0.267492 0.061667 
1.01197 0.353823 1.67641 -0.0239063 0.00234169 -0.00200522 108 105 102 255 0.267492 0.061667 
1.05193 0.444763 1.32259 -0.0404467 0.00452972 -0.00308874 108 105 102 255 0.267492 0.061667 
1.00212 0 1.32259 -0.0404467 0.00452972 -0.00308874 108 105 102 255 0.267492 0.061667 
1.00536 0.090941 1.41353 -0.0404467 0.00452972 -0.00308874 108 105 102 255 0.267492 0.061667 
1.05193 0.444763 1.32259 -0.0239065 0.00260634 -0.00210188 108 105 102 255 0.267492 0.061667 
1.00536 0.090941 1.41353 -0.0239065 0.00260634 -0.00210188 108 105 102 255 0.267492 0.061667 
1.03402 0.353823 1.41353 -0.0239065 0.00260634 -0.00210188 108 105 102 255 0.267492 0.061667 
1.00212 0 1.32259 -0.0404469 0.00388605 -0.00286055 108 105 102 255 0.267492 0.061667 
0.970665 0 1.76735 -0.0404469 0.00388605 -0.00286055 108 105 102 255 0.267492 0.061667 
0.985834 0.090941 1.67641 -0.0404469 0.00388605 -0.00286055 108 105 102 255 0.267492 0.061667 
1.00212 0 1.32259 -0.0239066 0.00262742 -0.00177571 108 105 102 255 0.267492 0.061667 
0.985834 0.090941 1.67641 -0.0239066 0.00262742 -0.00177571 108 105 102 255 0.267492 0.061667 
1.00536 0.090941 1.41353 -0.0239066 0.00262742 -0.00177571 108 105 102 255 0.267492 0.061667 
0.985834 0.090941 1.67641 -0.0189301 0.00188205 0.120621 170 138 30 255 0.202829 0.22105 
1.01197 0.353823 1.67641 -0.0189301 0.00188205 0.120621 170 138 30 255 0.202829 0.22105 
0.556791 0.390656 1.6044 -0.0189301 0.00188205 0.120621 170 138 30 255 0.202829 0.22105 
0.985834 0.090941 1.67641 -0.0144366 0.0054858 0.108847 170 138 30 255 0.202829 0.22105 
0.556791 0.390656 1.6044 -0.0144366 0.0054858 0.108847 170 138 30 255 0.202829 0.22105 
0.564381 0.131656 1.61846 -0.0144366 0.0054858 0.108847 170 138 30 255 0.202829 0.22105 
1.01197 0.353823 1.67641 0.00972183 0.100342 0.00081545 198 165 37 255 0.265046 0.22105 
1.03402 0.353823 1.41353 0.00972183 0.100342 0.00081545 198 165 37 255 0.265046 0.22105 
0.65723 0.390805 1.35495 0.00972183 0.100342 0.00081545 198 165 37 255 0.265046 0.22105 
1.01197 0.353823 1.67641 0.00917726 0.120777 0.00376729 198 165 37 255 0.265046 0.22105 
0.65723 0.390805 1.35495 0.00917726 0.120777 0.00376729 198 165 37 255 0.265046 0.22105 
0.556791 0.390656 1.6044 0.00917726 0.120777 0.00376729 198 165 37 255 0.265046 0.22105 
1.03402 0.353823 1.41353 0.0117035 -0.00127594 -0.0912252 170 138 30 255 0.202829 0.22105 
1.00536 0.090941 1.41353 0.0117035 -0.00127594 -0.0912252 170 138 30 255 0.202829 0.22105 
0.662796 0.131809 1.36901 0.0117035 -0.00127594 -0.0912252 170 138 30 255 0.202829 0.22105 
1.03402 0.353823 1.41353 0.014652 -0.00497162 -0.0973812 170 138 30 255 0.202829 0.22105 
0.662796 0.131809 1.36901 0.014652 -0.00497162 -0.0973812 170 138 30 255 0.202829 0.22105 
0.65723 0.390805 1.35495 0.014652 -0.00497162 -0.0973812 170 138 30 255 0.202829 0.22105 
1.00536 0.090941 1.41353 -0.0107032 -0.111923 -0.000795001 155 122 27 255 0.175737 0.22105 
0.985834 0.090941 1.67641 -0.0107032 -0.111923 -0.000795001 155 122 27 255 0.175737 0.22105 
0.564381 0.131656 1.61846 -0.0107032 -0.111923 -0.000795001 155 122 27 255 0.175737 0.22105 
1.00536 0.090941 1.41353 -0.0101877 -0.089834 -0.00407443 155 122 27 255 0.175737 0.22105 
0.564381 0.131656 1.61846 -0.0101877 -0.089834 -0.00407443 155 122 27 255 0.175737 0.22105 
0.662796 0.131809 1.36901 -0.0101877 -0.089834 -0.00407443 155 122 27 255 0.175737 0.22105 
0.564381 0.131656 1.61846 -0.0847653 0.00716599 0.177764 170 138 30 255 0.202829 0.22105 
0.556791 0.390656 1.6044 -0.0847653 0.00716599 0.177764 170 138 30 255 0.202829 0.22105 
-0.127277 0.312935 1.28134 -0.0847653 0.00716599 0.177764 170 138 30 255 0.202829 0.22105 
0.564381 0.131656 1.61846 -0.0892447 0.0194472 0.193558 170 138 30 255 0.202829 0.22105 
-0.127277 0.312935 1.28134 -0.0892447 0.0194472 0.193558 170 138 30 255 0.202829 0.22105 
-0.204803 0.053408 1.27167 -0.0892447 0.0194472 0.193558 170 138 30 255 0.202829 0.22105 
0.556791 0.390656 1.6044 -0.0198409 0.205688 -0.00786589 198 165 37 255 0.265046 0.22105 
0.65723 0.390805 1.35495 -0.0198409 0.205688 -0.00786589 198 165 37 255 0.265046 0.22105 
-0.035618 0.311462 1.02782 -0.0198409 0.205688 -0.00786589 198 165 37 255 0.265046 0.22105 
0.556791 0.390656 1.6044 -0.019228 0.203036 -0.00813147 198 165 37 255 0.265046 0.22105 
-0.035618 0.311462 1.02782 -0.019228 0.203036 -0.00813147 198 165 37 255 0.265046 0.22105 
-0.127277 0.312935 1.28134 -0.019228 0.203036 -0.00813147 198 165 37 255 0.265046 0.22105 
0.65723 0.390805 1.35495 0.0919917 -0.00898356 -0.201901 170 138 30 255 0.202829 0.22105 
0.662796 0.131809 1.36901 0.0919917 -0.00898356 -0.201901 170 138 30 255 0.202829 0.22105 
-0.11504 0.051939 1.01816 0.0919917 -0.00898356 -0.201901 170 138 30 255 0.202829 0.22105 
0.65723 0.390805 1.35495 0.0841313 -0.0192884 -0.173508 170 138 30 255 0.202829 0.22105 
-0.11504 0.051939 1.01816 0.0841313 -0.0192884 -0.173508 170 138 30 255 0.202829 0.22105 
-0.035618 0.311462 1.02782 0.0841313 -0.0192884 -0.173508 170 138 30 255 0.202829 0.22105 
0.662796 0.131809 1.36901 0.019572 -0.226002 0.0075831 155 122 27 255 0.175737 0.22105 
0.564381 0.131656 1.61846 0.019572 -0.226002 0.0075831 155 122 27 255 0.175737 0.22105 
-0.204803 0.053408 1.27167 0.019572 -0.226002 0.0075831 155 122 27 255 0.175737 0.22105 
0.662796 0.131809 1.36901 0.0197324 -0.228683 0.00831201 155 122 27 255 0.175737 0.22105 
-0.204803 0.053408 1.27167 0.0197324 -0.228683 0.00831201 155 122 27 255 0.175737 0.22105 
-0.11504 0.051939 1.01816 0.0197324 -0.228683 0.00831201 155 122 27 255 0.175737 0.22105 
-0.204803 0.053408 1.27167 -0.0761488 0.0148989 0.210636 170 138 30 255 0.202829 0.22105 
-0.127277 0.312935 1.28134 -0.0761488 0.0148989 0.210636 170 138 30 255 0.202829 0.22105 
-0.836643 0.655229 1.00068 -0.0761488 0.0148989 0.210636 170 138 30 255 0.202829 0.22105 
-0.204803 0.053408 1.27167 -0.0664579 0.00417395 0.164223 170 138 30 255 0.202829 0.22105 
-0.836643 0.655229 1.00068 -0.0664579 0.00417395 0.164223 170 138 30 255 0.202829 0.22105 
-0.837776 0.396396 1.0068 -0.0664579 0.00417395 0.164223 170 138 30 255 0.202829 0.22105 
-0.127277 0.312935 1.28134 0.0898326 0.199873 0.0313173 198 165 37 255 0.265046 0.22105 
-0.035618 0.311462 1.02782 0.0898326 0.199873 0.0313173 198 165 37 255 0.265046 0.22105 
-0.724241 0.6642 0.751865 0.0898326 0.199873 0.0313173 198 165 37 255 0.265046 0.22105 
-0.127277 0.312935 1.28134 0.08265 0.208048 0.0448383 198 165 37 255 0.265046 0.22105 
-0.724241 0.6642 0.751865 0.08265 0.208048 0.0448383 198 165 37 255 0.265046 0.22105 
-0.836643 0.655229 1.00068 0.08265 0.208048 0.0448383 198 165 37 255 0.265046 0.22105 
-0.035618 0.311462 1.02782 0.0709368 -0.0147474 -0.187025 170 138 30 255 0.202829 0.22105 
-0.11504 0.051939 1.01816 0.0709368 -0.0147474 -0.187025 170 138 30 255 0.202829 0.22105 
-0.72753 0.405368 0.75798 0.0709368 -0.0147474 -0.187025 170 138 30 255 0.202829 0.22105 
-0.035618 0.311462 1.02782 0.069269 -0.00511852 -0.179398 170 138 30 255 0.202829 0.22105 
-0.72753 0.405368 0.75798 0.069269 -0.00511852 -0.179398 170 138 30 255 0.202829 0.22105 
-0.724241 0.6642 0.751865 0.069269 -0.00511852 -0.179398 170 138 30 255 0.202829 0.22105 
-0.11504 0.051939 1.01816 -0.08734 -0.184241 -0.0298578 155 122 27 255 0.175737 0.22105 
-0.204803 0.053408 1.27167 -0.08734 -0.184241 -0.0298578 155 122 27 255 0.175737 0.22105 
-0.837776 0.396396 1.0068 -0.08734 -0.184241 -0.0298578 155 122 27 255 0.175737 0.22105 
-0.11504 0.051939 1.01816 -0.0856059 -0.181084 -0.0444594 155 122 27 255 0.175737 0.22105 
-0.837776 0.396396 1.0068 -0.0856059 -0.181084 -0.0444594 155 122 27 255 0.175737 0.22105 
-0.72753 0.405368 0.75798 -0.0856059 -0.181084 -0.0444594 155 122 27 255 0.175737 0.22105 
-0.837776 0.396396 1.0068 -0.231782 0.0027545 0.0735842 170 138 30 255 0.202829 0.22105 
-0.836643 0.655229 1.00068 -0.231782 0.0027545 0.0735842 170 138 30 255 0.202829 0.22105 
-1.11729 1.48793 0.085501 -0.231782 0.0027545 0.0735842 170 138 30 255 0.202829 0.22105 
-0.837776 0.396396 1.0068 -0.467154 0.0310482 0.178516 170 138 30 255 0.202829 0.22105 
-1.11729 1.48793 0.085501 -0.467154 0.0310482 0.178516 170 138 30 255 0.202829 0.22105 
-1.21705 1.23884 -0.132236 -0.467154 0.0310482 0.178516 170 138 30 255 0.202829 0.22105 
-0.836643 0.655229 1.00068 0.198629 0.109725 0.0936868 198 165 37 255 0.265046 0.22105 
-0.724241 0.6642 0.751865 0.198629 0.109725 0.0936868 198 165 37 255 0.265046 0.22105 
-0.845997 1.48798 0.0452 0.198629 0.109725 0.0936868 198 165 37 255 0.265046 0.22105 
-0.836643 0.655229 1.00068 0.033513 0.259592 0.22592 198 165 37 255 0.265046 0.22105 
-0.845997 1.48798 0.0452 0.033513 0.259592 0.22592 198 165 37 255 0.265046 0.22105 
-1.11729 1.48793 0.085501 0.033513 0.259592 0.22592 198 165 37 255 0.265046 0.22105 
-0.724241 0.6642 0.751865 0.236184 -0.00440805 -0.0595488 170 138 30 255 0.202829 0.22105 
-0.72753 0.405368 0.75798 0.236184 -0.00440805 -0.0595488 170 138 30 255 0.202829 0.22105 
-0.947016 1.23808 -0.174194 0.236184 -0.00440805 -0.0595488 170 138 30 255 0.202829 0.22105 
-0.724241 0.6642 0.751865 0.357328 -0.0446741 -0.113644 170 138 30 255 0.202829 0.22105 
-0.947016 1.23808 -0.174194 0.357328 -0.0446741 -0.113644 170 138 30 255 0.202829 0.22105 
-0.845997 1.48798 0.0452 0.357328 -0.0446741 -0.113644 170 138 30 255 0.202829 0.22105 
-0.72753 0.405368 0.75798 -0.199398 -0.219945 -0.0962789 155 122 27 255 0.175737 0.22105 
-0.837776 0.396396 1.0068 -0.199398 -0.219945 -0.0962789 155 122 27 255 0.175737 0.22105 
-1.21705 1.23884 -0.132236 -0.199398 -0.219945 -0.0962789 155 122 27 255 0.175737 0.22105 
-0.72753 0.405368 0.75798 -0.0356473 -0.260928 -0.224694 155 122 27 255 0.175737 0.22105 
-1.21705 1.23884 -0.132236 -0.0356473 -0.260928 -0.224694 155 122 27 255 0.175737 0.22105 
-0.947016 1.23808 -0.174194 -0.0356473 -0.260928 -0.224694 155 122 27 255 0.175737 0.22105 
-1.21705 1.23884 -0.132236 -0.582706 0.205269 0.0321495 170 138 30 255 0.202829 0.22105 
-1.11729 1.48793 0.085501 -0.582706 0.205269 0.0321495 170 138 30 255 0.202829 0.22105 
-0.582205 3.14625 -0.804251 -0.582706 0.205269 0.0321495 170 138 30 255 0.202829 0.22105 
-1.21705 1.23884 -0.132236 -0.4895 0.230059 0.190561 170 138 30 255 0.202829 0.22105 
-0.582205 3.14625 -0.804251 -0.4895 0.230059 0.190561 170 138 30 255 0.202829 0.22105 
-0.756445 2.92291 -0.982195 -0.4895 0.230059 0.190561 170 138 30 255 0.202829 0.22105 
-1.11729 1.48793 0.085501 0.0646279 0.257096 0.435373 198 165 37 255 0.265046 0.22105 
-0.845997 1.48798 0.0452 0.0646279 0.257096 0.435373 198 165 37 255 0.265046 0.22105 
-0.388937 3.09287 -0.970367 0.0646279 0.257096 0.435373 198 165 37 255 0.265046 0.22105 
-1.11729 1.48793 0.085501 0.322968 0.0830744 0.349063 198 165 37 255 0.265046 0.22105 
-0.388937 3.09287 -0.970367 0.322968 0.0830744 0.349063 198 165 37 255 0.265046 0.22105 
-0.582205 3.14625 -0.804251 0.322968 0.0830744 0.349063 198 165 37 255 0.265046 0.22105 
-0.845997 1.48798 0.0452 0.601517 -0.182863 -0.0686768 170 138 30 255 0.202829 0.22105 
-0.947016 1.23808 -0.174194 0.601517 -0.182863 -0.0686768 170 138 30 255 0.202829 0.22105 
-0.561741 2.87101 -1.14763 0.601517 -0.182863 -0.0686768 170 138 30 255 0.202829 0.22105 
-0.845997 1.48798 0.0452 0.509801 -0.256514 -0.175928 170 138 30 255 0.202829 0.22105 
-0.561741 2.87101 -1.14763 0.509801 -0.256514 -0.175928 170 138 30 255 0.202829 0.22105 
-0.388937 3.09287 -0.970367 0.509801 -0.256514 -0.175928 170 138 30 255 0.202829 0.22105 
-0.947016 1.23808 -0.174194 -0.0713061 -0.210192 -0.455106 155 122 27 255 0.175737 0.22105 
-1.21705 1.23884 -0.132236 -0.0713061 -0.210192 -0.455106 155 122 27 255 0.175737 0.22105 
-0.756445 2.92291 -0.982195 -0.0713061 -0.210192 -0.455106 155 122 27 255 0.175737 0.22105 
-0.947016 1.23808 -0.174194 -0.320665 -0.125794 -0.337934 155 122 27 255 0.175737 0.22105 
-0.756445 2.92291 -0.982195 -0.320665 -0.125794 -0.337934 155 122 27 255 0.175737 0.22105 
-0.561741 2.87101 -1.14763 -0.320665 -0.125794 -0.337934 155 122 27 255 0.175737 0.22105 
-0.756445 2.92291 -0.982195 -0.494139 0.0121655 0.468584 170 138 30 255 0.202829 0.22105 
-0.582205 3.14625 -0.804251 -0.494139 0.0121655 0.468584 170 138 30 255 0.202829 0.22105 
-0.643801 5.7566 -0.936977 -0.494139 0.0121655 0.468584 170 138 30 255 0.202829 0.22105 
-0.756445 2.92291 -0.982195 -1.0102 0.027397 0.79965 170 138 30 255 0.202829 0.22105 
-0.643801 5.7566 -0.936977 -1.0102 0.027397 0.79965 170 138 30 255 0.202829 0.22105 
-0.922298 5.8496 -1.29199 -1.0102 0.027397 0.79965 170 138 30 255 0.202829 0.22105 
-0.582205 3.14625 -0.804251 0.45058 0.0506732 0.507945 198 165 37 255 0.265046 0.22105 
-0.388937 3.09287 -0.970367 0.45058 0.0506732 0.507945 198 165 37 255 0.265046 0.22105 
-0.478079 5.74568 -1.15594 0.45058 0.0506732 0.507945 198 165 37 255 0.265046 0.22105 
-0.582205 3.14625 -0.804251 0.57302 0.0354829 0.43192 198 165 37 255 0.265046 0.22105 
-0.478079 5.74568 -1.15594 0.57302 0.0354829 0.43192 198 165 37 255 0.265046 0.22105 
-0.643801 5.7566 -0.936977 0.57302 0.0354829 0.43192 198 165 37 255 0.265046 0.22105 
-0.388937 3.09287 -0.970367 0.605861 -0.0280664 -0.555493 170 138 30 255 0.202829 0.22105 
-0.561741 2.87101 -1.14763 0.605861 -0.0280664 -0.555493 170 138 30 255 0.202829 0.22105 
-0.754675 5.83789 -1.50796 0.605861 -0.0280664 -0.555493 170 138 30 255 0.202829 0.22105 
-0.388937 3.09287 -0.970367 0.91673 -0.019949 -0.725537 170 138 30 255 0.202829 0.22105 
-0.754675 5.83789 -1.50796 0.91673 -0.019949 -0.725537 170 138 30 255 0.202829 0.22105 
-0.478079 5.74568 -1.15594 0.91673 -0.019949 -0.725537 170 138 30 255 0.202829 0.22105 
-0.561741 2.87101 -1.14763 -0.500255 -0.0877562 -0.56123 155 122 27 255 0.175737 0.22105 
-0.756445 2.92291 -0.982195 -0.500255 -0.0877562 -0.56123 155 122 27 255 0.175737 0.22105 
-0.922298 5.8496 -1.29199 -0.500255 -0.0877562 -0.56123 155 122 27 255 0.175737 0.22105 
-0.561741 2.87101 -1.14763 -0.644976 -0.102068 -0.495058 155 122 27 255 0.175737 0.22105 
-0.922298 5.8496 -1.29199 -0.644976 -0.102068 -0.495058 155 122 27 255 0.175737 0.22105 
-0.754675 5.83789 -1.50796 -0.644976 -0.102068 -0.495058 155 122 27 255 0.175737 0.22105 
-0.922298 5.8496 -1.29199 -1.1531 0.226526 0.963916 170 138 30 255 0.202829 0.22105 
-0.643801 5.7566 -0.936977 -1.1531 0.226526 0.963916 170 138 30 255 0.202829 0.22105 
-0.273088 9.09394 -1.2778 -1.1531 0.226526 0.963916 170 138 30 255 0.202829 0.22105 
-0.922298 5.8496 -1.29199 -0.841783 0.165364 0.704556 170 138 30 255 0.202829 0.22105 
-0.273088 9.09394 -1.2778 -0.841783 0.165364 0.704556 170 138 30 255 0.202829 0.22105 
-0.525385 8.91837 -1.53803 -0.841783 0.165364 0.704556 170 138 30 255 0.202829 0.22105 
-0.643801 5.7566 -0.936977 0.746807 -0.0188324 0.566159 198 165 37 255 0.265046 0.22105 
-0.478079 5.74568 -1.15594 0.746807 -0.0188324 0.566159 198 165 37 255 0.265046 0.22105 
-0.134342 9.13935 -1.49647 0.746807 -0.0188324 0.566159 198 165 37 255 0.265046 0.22105 
-0.643801 5.7566 -0.936977 0.714299 -0.033776 0.446208 198 165 37 255 0.265046 0.22105 
-0.134342 9.13935 -1.49647 0.714299 -0.033776 0.446208 198 165 37 255 0.265046 0.22105 
-0.273088 9.09394 -1.2778 0.714299 -0.033776 0.446208 198 165 37 255 0.265046 0.22105 
-0.478079 5.74568 -1.15594 1.07486 -0.199102 -0.896711 170 138 30 255 0.202829 0.22105 
-0.754675 5.83789 -1.50796 1.07486 -0.199102 -0.896711 170 138 30 255 0.202829 0.22105 
-0.392889 8.95923 -1.76735 1.07486 -0.199102 -0.896711 170 138 30 255 0.202829 0.22105 
-0.478079 5.74568 -1.15594 0.980613 -0.181154 -0.81551 170 138 30 255 0.202829 0.22105 
-0.392889 8.95923 -1.76735 0.980613 -0.181154 -0.81551 170 138 30 255 0.202829 0.22105 
-0.134342 9.13935 -1.49647 0.980613 -0.181154 -0.81551 170 138 30 255 0.202829 0.22105 
-0.754675 5.83789 -1.50796 -0.665643 0.0444793 -0.519044 155 122 27 255 0.175737 0.22105 
-0.922298 5.8496 -1.29199 -0.665643 0.0444793 -0.519044 155 122 27 255 0.175737 0.22105 
-0.525385 8.91837 -1.53803 -0.665643 0.0444793 -0.519044 155 122 27 255 0.175737 0.22105 
-0.754675 5.83789 -1.50796 -0.705187 0.0485966 -0.398783 155 122 27 255 0.175737 0.22105 
-0.525385 8.91837 -1.53803 -0.705187 0.0485966 -0.398783 155 122 27 255 0.175737 0.22105 
-0.392889 8.95923 -1.76735 -0.705187 0.0485966 -0.398783 155 122 27 255 0.175737 0.22105 
-0.525385 8.91837 -1.53803 -0.53261 -0.0274431 0.534889 170 138 30 255 0.202829 0.22105 
-0.273088 9.09394 -1.2778 -0.53261 -0.0274431 0.534889 170 138 30 255 0.202829 0.22105 
-0.412643 11.1169 -1.31297 -0.53261 -0.0274431 0.534889 170 138 30 255 0.202829 0.22105 
-0.525385 8.91837 -1.53803 -0.0285432 -0.0683616 0.682098 170 138 30 255 0.202829 0.22105 
-0.412643 11.1169 -1.31297 -0.0285432 -0.0683616 0.682098 170 138 30 255 0.202829 0.22105 
-0.726946 11.0379 -1.33404 -0.0285432 -0.0683616 0.682098 170 138 30 255 0.202829 0.22105 
-0.273088 9.09394 -1.2778 0.438996 0.0739823 0.293906 198 165 37 255 0.265046 0.22105 
-0.134342 9.13935 -1.49647 0.438996 0.0739823 0.293906 198 165 37 255 0.265046 0.22105 
-0.430578 11.1607 -1.56281 0.438996 0.0739823 0.293906 198 165 37 255 0.265046 0.22105 
-0.273088 9.09394 -1.2778 0.503876 0.0342356 -0.0301694 198 165 37 255 0.265046 0.22105 
-0.430578 11.1607 -1.56281 0.503876 0.0342356 -0.0301694 198 165 37 255 0.265046 0.22105 
-0.412643 11.1169 -1.31297 0.503876 0.0342356 -0.0301694 198 165 37 255 0.265046 0.22105 
-0.134342 9.13935 -1.49647 0.541901 0.14275 -0.612149 170 138 30 255 0.202829 0.22105 
-0.392889 8.95923 -1.76735 0.541901 0.14275 -0.612149 170 138 30 255 0.202829 0.22105 
-0.744682 11.0818 -1.5838 0.541901 0.14275 -0.612149 170 138 30 255 0.202829 0.22105 
-0.134342 9.13935 -1.49647 0.0476623 -0.0146197 -0.658287 170 138 30 255 0.202829 0.22105 
-0.744682 11.0818 -1.5838 0.0476623 -0.0146197 -0.658287 170 138 30 255 0.202829 0.22105 
-0.430578 11.1607 -1.56281 0.0476623 -0.0146197 -0.658287 170 138 30 255 0.202829 0.22105 
-0.392889 8.95923 -1.76735 -0.494385 -0.0191941 -0.289065 155 122 27 255 0.175737 0.22105 
-0.525385 8.91837 -1.53803 -0.494385 -0.0191941 -0.289065 155 122 27 255 0.175737 0.22105 
-0.726946 11.0379 -1.33404 -0.494385 -0.0191941 -0.289065 155 122 27 255 0.175737 0.22105 
-0.392889 8.95923 -1.76735 -0.538191 -0.0911192 0.0222021 155 122 27 255 0.175737 0.22105 
-0.726946 11.0379 -1.33404 -0.538191 -0.0911192 0.0222021 155 122 27 255 0.175737 0.22105 
-0.744682 11.0818 -1.5838 -0.538191 -0.0911192 0.0222021 155 122 27 255 0.175737 0.22105 
-0.726946 11.0379 -1.33404 -0.0901878 -0.0334873 1.4709 170 138 30 255 0.202829 0.22105 
-0.412643 11.1169 -1.31297 -0.0901878 -0.0334873 1.4709 170 138 30 255 0.202829 0.22105 
-0.284424 15.829 -1.19783 -0.0901878 -0.0334873 1.4709 170 138 30 255 0.202829 0.22105 
-0.726946 11.0379 -1.33404 0 -0.0480658 1.69068 170 138 30 255 0.202829 0.22105 
-0.284424 15.829 -1.19783 0 -0.0480658 1.69068 170 138 30 255 0.202829 0.22105 
-0.637304 15.829 -1.19783 0 -0.0480658 1.69068 170 138 30 255 0.202829 0.22105 
-0.412643 11.1169 -1.31297 1.16686 -0.0362981 -0.0901275 198 165 37 255 0.265046 0.22105 
-0.430578 11.1607 -1.56281 1.16686 -0.0362981 -0.0901275 198 165 37 255 0.265046 0.22105 
-0.284424 15.829 -1.55071 1.16686 -0.0362981 -0.0901275 198 165 37 255 0.265046 0.22105 
-0.412643 11.1169 -1.31297 1.66281 -0.0452459 0 198 165 37 255 0.265046 0.22105 
-0.284424 15.829 -1.55071 1.66281 -0.0452459 0 198 165 37 255 0.265046 0.22105 
-0.284424 15.829 -1.19783 1.66281 -0.0452459 0 198 165 37 255 0.265046 0.22105 
-0.430578 11.1607 -1.56281 0.097033 0.00813983 -1.48264 170 138 30 255 0.202829 0.22105 
-0.744682 11.0818 -1.5838 0.097033 0.00813983 -1.48264 170 138 30 255 0.202829 0.22105 
-0.637304 15.829 -1.55071 0.097033 0.00813983 -1.48264 170 138 30 255 0.202829 0.22105 
-0.430578 11.1607 -1.56281 0 0.00426984 -1.64735 170 138 30 255 0.202829 0.22105 
-0.637304 15.829 -1.55071 0 0.00426984 -1.64735 170 138 30 255 0.202829 0.22105 
-0.284424 15.829 -1.55071 0 0.00426984 -1.64735 170 138 30 255 0.202829 0.22105 
-0.744682 11.0818 -1.5838 -1.2026 0.0199731 0.0889104 155 122 27 255 0.175737 0.22105 
-0.726946 11.0379 -1.33404 -1.2026 0.0199731 0.0889104 155 122 27 255 0.175737 0.22105 
-0.637304 15.829 -1.19783 -1.2026 0.0199731 0.0889104 155 122 27 255 0.175737 0.22105 
-0.744682 11.0818 -1.5838 -1.67519 0.0378916 0 155 122 27 255 0.175737 0.22105 
-0.637304 15.829 -1.19783 -1.67519 0.0378916 0 155 122 27 255 0.175737 0.22105 
-0.637304 15.829 -1.55071 -1.67519 0.0378916 0 155 122 27 255 0.175737 0.22105 
3 0 1 2
3 3 4 5
3 6 7 8
3 9 10 11
3 12 13 14
3 15 16 17
3 18 19 20
3 21 22 23
3 24 25 26
3 27 28 29
3 30 31 32
3 33 34 35
3 36 37 38
3 39 40 41
3 42 43 44
3 45 46 47
3 48 49 50
3 51 52 53
3 54 55 56
3 57 58 59
3 60 61 62
3 63 64 65
3 66 67 68
3 69 70 71
3 72 73 74
3 75 76 77
3 78 79 80
3 81 82 83
3 84 85 86
3 87 88 89
3 90 91 92
3 93 94 95
3 96 97 98
3 99 100 101
3 102 103 104
3 105 106 107
3 108 109 110
3 111 112 113
3 114 115 116
3 117 118 119
3 120 121 122
3 123 124 125
3 126 127 128
3 129 130 131
3 132 133 134
3 135 136 137
3 138 139 140
3 141 142 143
3 144 145 146
3 147 148 149
3 150 151 152
3 153 154 155
3 156 157 158
3 159 160 161
3 162 163 164
3 165 166 167
3 168 169 170
3 171 172 173
3 174 175 176
3 177 178 179
3 180 181 182
3 183 184 185
3 186 187 188
3 189 190 191
3 192 193 194
3 195 196 197
3 198 199 200
3 201 202 203
3 204 205 206
3 207 208 209
3 210 211 212
3 213 214 215
3 216 217 218
3 219 220 221
3 222 223 224
3 225 226 227
3 228 229 230
3 231 232 233
3 234 235 236
3 237 238 239
3 240 241 242
3 243 244 245
3 246 247 248
3 249 250 251
3 252 253 254
3 255 256 257
3 258 259 260
3 261 262 263
3 264 265 266
3 267 268 269
3 270 271 272
3 273 274 275
3 276 277 278
3 279 280 281
3 282 283 284
3 285 286 287
3 288 289 290
3 291 292 293
3 294 295 296
3 297 298 299
3 300 301 302
3 303 304 305
3 306 307 308
3 309 310 311
3 312 313 314
3 315 316 317
