ply
format ascii 1.0
comment Feeney's Flatenator generated
comment TextureFile SpaceInteriors_Texture.png
element vertex 246
property float x
property float y
property float z
property float nx
property float ny
property float nz
property uchar red
property uchar green
property uchar blue
property uchar alpha
property float texture_u
property float texture_v
element face 82
property list uchar int vertex_indices
end_header
0.148913 1.13069 0.402865 0 0.0457024 0 198 112 53 255 0.262116 0.376093 
0.148913 1.13069 -0.00387 0 0.0457024 0 198 112 53 255 0.262116 0.376093 
0.036549 1.13069 -0.00387 0 0.0457024 0 198 112 53 255 0.262116 0.376093 
0.148913 1.13069 0.402865 0 0.0457024 0 198 112 53 255 0.262116 0.376093 
0.036549 1.13069 -0.00387 0 0.0457024 0 198 112 53 255 0.262116 0.376093 
0.036549 1.13069 0.402865 0 0.0457024 0 198 112 53 255 0.262116 0.376093 
0.370923 1.08238 0.442022 0 0 0 169 91 43 255 0.20256 0.37617 
0.185462 1.08238 0.442022 0 0 0 169 91 43 255 0.20256 0.37617 
0 1.08238 0.442022 0 0 0 169 91 43 255 0.20256 0.37617 
0.370923 1.08238 0.442022 0 0 0 169 91 43 255 0.20256 0.37617 
0 1.08238 0.442022 0 0 0 169 91 43 255 0.20256 0.37617 
-0.185462 1.08238 0.442022 0 0 0 169 91 43 255 0.20256 0.37617 
0.370923 1.08238 0.442022 0 0 0 169 91 43 255 0.20256 0.37617 
-0.185462 1.08238 0.442022 0 0 0 169 91 43 255 0.20256 0.37617 
-0.370923 1.08238 0.442022 0 0 0 169 91 43 255 0.20256 0.37617 
0.370923 1.08238 0.442022 0 0 0.117883 169 91 43 255 0.20256 0.37617 
-0.370923 1.08238 0.442022 0 0 0.117883 169 91 43 255 0.20256 0.37617 
-0.370923 0.923475 0.442022 0 0 0.117883 169 91 43 255 0.20256 0.37617 
0.370923 1.08238 0.442022 0 0 0.117883 169 91 43 255 0.20256 0.37617 
-0.370923 0.923475 0.442022 0 0 0.117883 169 91 43 255 0.20256 0.37617 
0.370923 0.923475 0.442022 0 0 0.117883 169 91 43 255 0.20256 0.37617 
0.370923 0.923475 0.442022 -0 -0.359831 0 139 74 34 255 0.147865 0.376093 
-0.370923 0.923475 0.442022 -0 -0.359831 0 139 74 34 255 0.147865 0.376093 
-0.370923 0.923475 -0.043026 -0 -0.359831 0 139 74 34 255 0.147865 0.376093 
0.370923 0.923475 0.442022 0 -0.359831 -0 139 74 34 255 0.147865 0.376093 
-0.370923 0.923475 -0.043026 0 -0.359831 -0 139 74 34 255 0.147865 0.376093 
0.370923 0.923475 -0.043026 0 -0.359831 -0 139 74 34 255 0.147865 0.376093 
0.370923 0.923475 -0.043026 0 0 -0.117883 169 91 43 255 0.20256 0.37617 
-0.370923 0.923475 -0.043026 0 0 -0.117883 169 91 43 255 0.20256 0.37617 
-0.370923 1.08238 -0.043026 0 0 -0.117883 169 91 43 255 0.20256 0.37617 
0.370923 0.923475 -0.043026 0 0 -0.0294707 169 91 43 255 0.20256 0.37617 
-0.370923 1.08238 -0.043026 0 0 -0.0294707 169 91 43 255 0.20256 0.37617 
-0.185462 1.08238 -0.043026 0 0 -0.0294707 169 91 43 255 0.20256 0.37617 
0.370923 0.923475 -0.043026 0 0 -0.0294708 169 91 43 255 0.20256 0.37617 
-0.185462 1.08238 -0.043026 0 0 -0.0294708 169 91 43 255 0.20256 0.37617 
0 1.08238 -0.043026 0 0 -0.0294708 169 91 43 255 0.20256 0.37617 
0.370923 0.923475 -0.043026 0 0 -0.0294708 169 91 43 255 0.20256 0.37617 
0 1.08238 -0.043026 0 0 -0.0294708 169 91 43 255 0.20256 0.37617 
0.185462 1.08238 -0.043026 0 0 -0.0294708 169 91 43 255 0.20256 0.37617 
0.370923 0.923475 -0.043026 0 0 -0.0294707 169 91 43 255 0.20256 0.37617 
0.185462 1.08238 -0.043026 0 0 -0.0294707 169 91 43 255 0.20256 0.37617 
0.370923 1.08238 -0.043026 0 0 -0.0294707 169 91 43 255 0.20256 0.37617 
-0.370923 1.08238 -0.043026 -0.0770766 0 0 154 83 38 255 0.17308 0.376093 
-0.370923 0.923475 -0.043026 -0.0770766 0 0 154 83 38 255 0.17308 0.376093 
-0.370923 0.923475 0.442022 -0.0770766 0 0 154 83 38 255 0.17308 0.376093 
-0.370923 1.08238 -0.043026 -0.0770766 0 0 154 83 38 255 0.17308 0.376093 
-0.370923 0.923475 0.442022 -0.0770766 0 0 154 83 38 255 0.17308 0.376093 
-0.370923 1.08238 0.442022 -0.0770766 0 0 154 83 38 255 0.17308 0.376093 
0.370923 0.923475 -0.043026 0.0770766 0 0 154 83 38 255 0.17308 0.376093 
0.370923 1.08238 -0.043026 0.0770766 0 0 154 83 38 255 0.17308 0.376093 
0.370923 1.08238 0.442022 0.0770766 0 0 154 83 38 255 0.17308 0.376093 
0.370923 0.923475 -0.043026 0.0770766 0 0 154 83 38 255 0.17308 0.376093 
0.370923 1.08238 0.442022 0.0770766 0 0 154 83 38 255 0.17308 0.376093 
0.370923 0.923475 0.442022 0.0770766 0 0 154 83 38 255 0.17308 0.376093 
-0.157159 0 0.078684 0 -0.0724681 0 108 105 102 255 0.267127 0.063362 
0.15716 0 0.078684 0 -0.0724681 0 108 105 102 255 0.267127 0.063362 
0.15716 0 0.30924 0 -0.0724681 0 108 105 102 255 0.267127 0.063362 
-0.157159 0 0.078684 0 -0.0724681 0 108 105 102 255 0.267127 0.063362 
0.15716 0 0.30924 0 -0.0724681 0 108 105 102 255 0.267127 0.063362 
-0.157159 0 0.30924 0 -0.0724681 0 108 105 102 255 0.267127 0.063362 
-0.157159 0.093404 0.078684 -0.0189226 0.0171618 0 141 137 133 255 0.329936 0.063362 
-0.157159 0.093404 0.309239 -0.0189226 0.0171618 0 141 137 133 255 0.329936 0.063362 
-0.082722 0.175478 0.244743 -0.0189226 0.0171618 0 141 137 133 255 0.329936 0.063362 
-0.157159 0.093404 0.078684 -0.0083356 0.00755997 0 141 137 133 255 0.329936 0.063362 
-0.082722 0.175478 0.244743 -0.0083356 0.00755997 0 141 137 133 255 0.329936 0.063362 
-0.082722 0.175478 0.143181 -0.0083356 0.00755997 0 141 137 133 255 0.329936 0.063362 
-0.157159 0.093404 0.309239 -0 0.0202723 0.0257974 157 152 148 255 0.361975 0.063362 
0.15716 0.093404 0.309239 -0 0.0202723 0.0257974 157 152 148 255 0.361975 0.063362 
0.082722 0.175478 0.244743 -0 0.0202723 0.0257974 157 152 148 255 0.361975 0.063362 
-0.157159 0.093404 0.309239 0 0.0106705 0.0135786 157 152 148 255 0.361975 0.063362 
0.082722 0.175478 0.244743 0 0.0106705 0.0135786 157 152 148 255 0.361975 0.063362 
-0.082722 0.175478 0.244743 0 0.0106705 0.0135786 157 152 148 255 0.361975 0.063362 
0.15716 0.093404 0.309239 0.0189226 0.0171621 0 141 137 133 255 0.329936 0.063362 
0.15716 0.093404 0.078684 0.0189226 0.0171621 0 141 137 133 255 0.329936 0.063362 
0.082722 0.175478 0.143181 0.0189226 0.0171621 0 141 137 133 255 0.329936 0.063362 
0.15716 0.093404 0.309239 0.0083356 0.00756007 0 141 137 133 255 0.329936 0.063362 
0.082722 0.175478 0.143181 0.0083356 0.00756007 0 141 137 133 255 0.329936 0.063362 
0.082722 0.175478 0.244743 0.0083356 0.00756007 0 141 137 133 255 0.329936 0.063362 
-0.082722 0.175478 0.143181 0 0.0106706 -0.0135786 157 152 148 255 0.361975 0.063362 
0.082722 0.175478 0.143181 0 0.0106706 -0.0135786 157 152 148 255 0.361975 0.063362 
0.15716 0.093404 0.078684 0 0.0106706 -0.0135786 157 152 148 255 0.361975 0.063362 
-0.082722 0.175478 0.143181 0 0.0202726 -0.0257974 157 152 148 255 0.361975 0.063362 
0.15716 0.093404 0.078684 0 0.0202726 -0.0257974 157 152 148 255 0.361975 0.063362 
-0.157159 0.093404 0.078684 0 0.0202726 -0.0257974 157 152 148 255 0.361975 0.063362 
-0.222011 1.13069 0.402865 0 0.0457024 0 198 112 53 255 0.262116 0.376093 
-0.222011 1.13069 -0.00387 0 0.0457024 0 198 112 53 255 0.262116 0.376093 
-0.334375 1.13069 -0.00387 0 0.0457024 0 198 112 53 255 0.262116 0.376093 
-0.222011 1.13069 0.402865 0 0.0457024 0 198 112 53 255 0.262116 0.376093 
-0.334375 1.13069 -0.00387 0 0.0457024 0 198 112 53 255 0.262116 0.376093 
-0.334375 1.13069 0.402865 0 0.0457024 0 198 112 53 255 0.262116 0.376093 
-0.036549 1.13069 0.402865 0 0.0457024 0 198 112 53 255 0.262116 0.376093 
-0.036549 1.13069 -0.00387 0 0.0457024 0 198 112 53 255 0.262116 0.376093 
-0.148913 1.13069 -0.00387 0 0.0457024 0 198 112 53 255 0.262116 0.376093 
-0.036549 1.13069 0.402865 0 0.0457024 0 198 112 53 255 0.262116 0.376093 
-0.148913 1.13069 -0.00387 0 0.0457024 0 198 112 53 255 0.262116 0.376093 
-0.148913 1.13069 0.402865 0 0.0457024 0 198 112 53 255 0.262116 0.376093 
0.334375 1.13069 -0.00387 0 0.0457024 0 198 112 53 255 0.262116 0.376093 
0.222011 1.13069 -0.00387 0 0.0457024 0 198 112 53 255 0.262116 0.376093 
0.222011 1.13069 0.402865 0 0.0457024 0 198 112 53 255 0.262116 0.376093 
0.334375 1.13069 -0.00387 0 0.0457024 -0 198 112 53 255 0.262116 0.376093 
0.222011 1.13069 0.402865 0 0.0457024 -0 198 112 53 255 0.262116 0.376093 
0.334375 1.13069 0.402865 0 0.0457024 -0 198 112 53 255 0.262116 0.376093 
0.185462 1.08238 0.442022 0.0234326 0.017728 0 169 91 43 255 0.200571 0.376093 
0.185462 1.08238 -0.043026 0.0234326 0.017728 0 169 91 43 255 0.200571 0.376093 
0.148913 1.13069 -0.00387 0.0234326 0.017728 0 169 91 43 255 0.200571 0.376093 
0.185462 1.08238 0.442022 0.0196493 0.0148658 0 169 91 43 255 0.200571 0.376093 
0.148913 1.13069 -0.00387 0.0196493 0.0148658 0 169 91 43 255 0.200571 0.376093 
0.148913 1.13069 0.402865 0.0196493 0.0148658 0 169 91 43 255 0.200571 0.376093 
0.185462 1.08238 -0.043026 0 0.00726195 -0.00895965 185 102 47 255 0.241929 0.376093 
0 1.08238 -0.043026 0 0.00726195 -0.00895965 185 102 47 255 0.241929 0.376093 
0.036549 1.13069 -0.00387 0 0.00726195 -0.00895965 185 102 47 255 0.241929 0.376093 
0.185462 1.08238 -0.043026 0 0.00439972 -0.0054283 185 102 47 255 0.241929 0.376093 
0.036549 1.13069 -0.00387 0 0.00439972 -0.0054283 185 102 47 255 0.241929 0.376093 
0.148913 1.13069 -0.00387 0 0.00439972 -0.0054283 185 102 47 255 0.241929 0.376093 
0 1.08238 -0.043026 -0.0234326 0.017728 0 169 91 43 255 0.200571 0.376093 
0 1.08238 0.442022 -0.0234326 0.017728 0 169 91 43 255 0.200571 0.376093 
0.036549 1.13069 0.402865 -0.0234326 0.017728 0 169 91 43 255 0.200571 0.376093 
0 1.08238 -0.043026 -0.0196493 0.0148658 0 169 91 43 255 0.200571 0.376093 
0.036549 1.13069 0.402865 -0.0196493 0.0148658 0 169 91 43 255 0.200571 0.376093 
0.036549 1.13069 -0.00387 -0.0196493 0.0148658 0 169 91 43 255 0.200571 0.376093 
0 1.08238 0.442022 -0 0.00726214 0.00895965 185 102 47 255 0.241929 0.376093 
0.185462 1.08238 0.442022 -0 0.00726214 0.00895965 185 102 47 255 0.241929 0.376093 
0.148913 1.13069 0.402865 -0 0.00726214 0.00895965 185 102 47 255 0.241929 0.376093 
0 1.08238 0.442022 0 0.00439984 0.0054283 185 102 47 255 0.241929 0.376093 
0.148913 1.13069 0.402865 0 0.00439984 0.0054283 185 102 47 255 0.241929 0.376093 
0.036549 1.13069 0.402865 0 0.00439984 0.0054283 185 102 47 255 0.241929 0.376093 
-0.185462 1.08238 0.442022 0.0234326 0.017728 0 169 91 43 255 0.200571 0.376093 
-0.185462 1.08238 -0.043026 0.0234326 0.017728 0 169 91 43 255 0.200571 0.376093 
-0.222011 1.13069 -0.00387 0.0234326 0.017728 0 169 91 43 255 0.200571 0.376093 
-0.185462 1.08238 0.442022 0.0196493 0.0148658 0 169 91 43 255 0.200571 0.376093 
-0.222011 1.13069 -0.00387 0.0196493 0.0148658 0 169 91 43 255 0.200571 0.376093 
-0.222011 1.13069 0.402865 0.0196493 0.0148658 0 169 91 43 255 0.200571 0.376093 
-0.185462 1.08238 -0.043026 0 0.00726191 -0.00895961 185 102 47 255 0.241929 0.376093 
-0.370923 1.08238 -0.043026 0 0.00726191 -0.00895961 185 102 47 255 0.241929 0.376093 
-0.334375 1.13069 -0.00387 0 0.00726191 -0.00895961 185 102 47 255 0.241929 0.376093 
-0.185462 1.08238 -0.043026 0 0.00439972 -0.0054283 185 102 47 255 0.241929 0.376093 
-0.334375 1.13069 -0.00387 0 0.00439972 -0.0054283 185 102 47 255 0.241929 0.376093 
-0.222011 1.13069 -0.00387 0 0.00439972 -0.0054283 185 102 47 255 0.241929 0.376093 
-0.370923 1.08238 -0.043026 -0.0234326 0.0177275 0 169 91 43 255 0.200571 0.376093 
-0.370923 1.08238 0.442022 -0.0234326 0.0177275 0 169 91 43 255 0.200571 0.376093 
-0.334375 1.13069 0.402865 -0.0234326 0.0177275 0 169 91 43 255 0.200571 0.376093 
-0.370923 1.08238 -0.043026 -0.0196493 0.0148654 0 169 91 43 255 0.200571 0.376093 
-0.334375 1.13069 0.402865 -0.0196493 0.0148654 0 169 91 43 255 0.200571 0.376093 
-0.334375 1.13069 -0.00387 -0.0196493 0.0148654 0 169 91 43 255 0.200571 0.376093 
-0.370923 1.08238 0.442022 -0 0.0072621 0.00895961 185 102 47 255 0.241929 0.376093 
-0.185462 1.08238 0.442022 -0 0.0072621 0.00895961 185 102 47 255 0.241929 0.376093 
-0.222011 1.13069 0.402865 -0 0.0072621 0.00895961 185 102 47 255 0.241929 0.376093 
-0.370923 1.08238 0.442022 0 0.00439984 0.0054283 185 102 47 255 0.241929 0.376093 
-0.222011 1.13069 0.402865 0 0.00439984 0.0054283 185 102 47 255 0.241929 0.376093 
-0.334375 1.13069 0.402865 0 0.00439984 0.0054283 185 102 47 255 0.241929 0.376093 
0 1.08238 0.442022 0.0234326 0.017728 0 169 91 43 255 0.200571 0.376093 
0 1.08238 -0.043026 0.0234326 0.017728 0 169 91 43 255 0.200571 0.376093 
-0.036549 1.13069 -0.00387 0.0234326 0.017728 0 169 91 43 255 0.200571 0.376093 
0 1.08238 0.442022 0.0196493 0.0148658 0 169 91 43 255 0.200571 0.376093 
-0.036549 1.13069 -0.00387 0.0196493 0.0148658 0 169 91 43 255 0.200571 0.376093 
-0.036549 1.13069 0.402865 0.0196493 0.0148658 0 169 91 43 255 0.200571 0.376093 
0 1.08238 -0.043026 0 0.00726195 -0.00895965 185 102 47 255 0.241929 0.376093 
-0.185462 1.08238 -0.043026 0 0.00726195 -0.00895965 185 102 47 255 0.241929 0.376093 
-0.148913 1.13069 -0.00387 0 0.00726195 -0.00895965 185 102 47 255 0.241929 0.376093 
0 1.08238 -0.043026 0 0.00439972 -0.0054283 185 102 47 255 0.241929 0.376093 
-0.148913 1.13069 -0.00387 0 0.00439972 -0.0054283 185 102 47 255 0.241929 0.376093 
-0.036549 1.13069 -0.00387 0 0.00439972 -0.0054283 185 102 47 255 0.241929 0.376093 
-0.185462 1.08238 -0.043026 -0.0234326 0.017728 0 169 91 43 255 0.200571 0.376093 
-0.185462 1.08238 0.442022 -0.0234326 0.017728 0 169 91 43 255 0.200571 0.376093 
-0.148913 1.13069 0.402865 -0.0234326 0.017728 0 169 91 43 255 0.200571 0.376093 
-0.185462 1.08238 -0.043026 -0.0196493 0.0148658 0 169 91 43 255 0.200571 0.376093 
-0.148913 1.13069 0.402865 -0.0196493 0.0148658 0 169 91 43 255 0.200571 0.376093 
-0.148913 1.13069 -0.00387 -0.0196493 0.0148658 0 169 91 43 255 0.200571 0.376093 
-0.185462 1.08238 0.442022 -0 0.00726214 0.00895965 185 102 47 255 0.241929 0.376093 
0 1.08238 0.442022 -0 0.00726214 0.00895965 185 102 47 255 0.241929 0.376093 
-0.036549 1.13069 0.402865 -0 0.00726214 0.00895965 185 102 47 255 0.241929 0.376093 
-0.185462 1.08238 0.442022 0 0.00439984 0.0054283 185 102 47 255 0.241929 0.376093 
-0.036549 1.13069 0.402865 0 0.00439984 0.0054283 185 102 47 255 0.241929 0.376093 
-0.148913 1.13069 0.402865 0 0.00439984 0.0054283 185 102 47 255 0.241929 0.376093 
0.370923 1.08238 -0.043026 0 0.00726191 -0.00895961 185 102 47 255 0.241929 0.376093 
0.185462 1.08238 -0.043026 0 0.00726191 -0.00895961 185 102 47 255 0.241929 0.376093 
0.222011 1.13069 -0.00387 0 0.00726191 -0.00895961 185 102 47 255 0.241929 0.376093 
0.370923 1.08238 -0.043026 0 0.00439972 -0.0054283 185 102 47 255 0.241929 0.376093 
0.222011 1.13069 -0.00387 0 0.00439972 -0.0054283 185 102 47 255 0.241929 0.376093 
0.334375 1.13069 -0.00387 0 0.00439972 -0.0054283 185 102 47 255 0.241929 0.376093 
0.185462 1.08238 -0.043026 -0.0234326 0.017728 0 169 91 43 255 0.200571 0.376093 
0.185462 1.08238 0.442022 -0.0234326 0.017728 0 169 91 43 255 0.200571 0.376093 
0.222011 1.13069 0.402865 -0.0234326 0.017728 0 169 91 43 255 0.200571 0.376093 
0.185462 1.08238 -0.043026 -0.0196493 0.0148658 0 169 91 43 255 0.200571 0.376093 
0.222011 1.13069 0.402865 -0.0196493 0.0148658 0 169 91 43 255 0.200571 0.376093 
0.222011 1.13069 -0.00387 -0.0196493 0.0148658 0 169 91 43 255 0.200571 0.376093 
0.185462 1.08238 0.442022 -0 0.0072621 0.00895961 185 102 47 255 0.241929 0.376093 
0.370923 1.08238 0.442022 -0 0.0072621 0.00895961 185 102 47 255 0.241929 0.376093 
0.334375 1.13069 0.402865 -0 0.0072621 0.00895961 185 102 47 255 0.241929 0.376093 
0.185462 1.08238 0.442022 0 0.00439984 0.0054283 185 102 47 255 0.241929 0.376093 
0.334375 1.13069 0.402865 0 0.00439984 0.0054283 185 102 47 255 0.241929 0.376093 
0.222011 1.13069 0.402865 0 0.00439984 0.0054283 185 102 47 255 0.241929 0.376093 
0.370923 1.08238 0.442022 0.0234326 0.0177275 0 169 91 43 255 0.200571 0.376093 
0.370923 1.08238 -0.043026 0.0234326 0.0177275 0 169 91 43 255 0.200571 0.376093 
0.334375 1.13069 -0.00387 0.0234326 0.0177275 0 169 91 43 255 0.200571 0.376093 
0.370923 1.08238 0.442022 0.0196493 0.0148654 0 169 91 43 255 0.200571 0.376093 
0.334375 1.13069 -0.00387 0.0196493 0.0148654 0 169 91 43 255 0.200571 0.376093 
0.334375 1.13069 0.402865 0.0196493 0.0148654 0 169 91 43 255 0.200571 0.376093 
-0.157159 0.093404 0.078684 0 0 -0.0293587 141 137 133 255 0.332147 0.063362 
0.15716 0.093404 0.078684 0 0 -0.0293587 141 137 133 255 0.332147 0.063362 
0.15716 0 0.078684 0 0 -0.0293587 141 137 133 255 0.332147 0.063362 
-0.157159 0.093404 0.078684 0 0 -0.0293587 141 137 133 255 0.332147 0.063362 
0.15716 0 0.078684 0 0 -0.0293587 141 137 133 255 0.332147 0.063362 
-0.157159 0 0.078684 0 0 -0.0293587 141 137 133 255 0.332147 0.063362 
-0.157159 0 0.078684 -0.0215349 0 0 125 121 118 255 0.300108 0.063362 
-0.157159 0 0.30924 -0.0215349 0 0 125 121 118 255 0.300108 0.063362 
-0.157159 0.093404 0.309239 -0.0215349 0 0 125 121 118 255 0.300108 0.063362 
-0.157159 0 0.078684 -0.0215348 0 0 125 121 118 255 0.300108 0.063362 
-0.157159 0.093404 0.309239 -0.0215348 0 0 125 121 118 255 0.300108 0.063362 
-0.157159 0.093404 0.078684 -0.0215348 0 0 125 121 118 255 0.300108 0.063362 
-0.157159 0 0.30924 -0 3.18493e-07 0.0293587 141 137 133 255 0.332147 0.063362 
0.15716 0 0.30924 -0 3.18493e-07 0.0293587 141 137 133 255 0.332147 0.063362 
0.15716 0.093404 0.309239 -0 3.18493e-07 0.0293587 141 137 133 255 0.332147 0.063362 
-0.157159 0 0.30924 0 3.18493e-07 0.0293587 141 137 133 255 0.332147 0.063362 
0.15716 0.093404 0.309239 0 3.18493e-07 0.0293587 141 137 133 255 0.332147 0.063362 
-0.157159 0.093404 0.309239 0 3.18493e-07 0.0293587 141 137 133 255 0.332147 0.063362 
0.15716 0 0.30924 0.0215349 0 0 125 121 118 255 0.300108 0.063362 
0.15716 0 0.078684 0.0215349 0 0 125 121 118 255 0.300108 0.063362 
0.15716 0.093404 0.078684 0.0215349 0 0 125 121 118 255 0.300108 0.063362 
0.15716 0 0.30924 0.0215348 0 0 125 121 118 255 0.300108 0.063362 
0.15716 0.093404 0.078684 0.0215348 0 0 125 121 118 255 0.300108 0.063362 
0.15716 0.093404 0.309239 0.0215348 0 0 125 121 118 255 0.300108 0.063362 
-0.082722 0.175478 0.143181 -0.0759681 0 0 125 121 118 255 0.300108 0.063362 
-0.082722 0.175478 0.244743 -0.0759681 0 0 125 121 118 255 0.300108 0.063362 
-0.082722 0.923475 0.244744 -0.0759681 0 0 125 121 118 255 0.300108 0.063362 
-0.082722 0.175478 0.143181 -0.0759688 0 0 125 121 118 255 0.300108 0.063362 
-0.082722 0.923475 0.244744 -0.0759688 0 0 125 121 118 255 0.300108 0.063362 
-0.082722 0.923475 0.143181 -0.0759688 0 0 125 121 118 255 0.300108 0.063362 
-0.082722 0.923475 0.143181 0 0 -0.123752 141 137 133 255 0.332147 0.063362 
0.082722 0.923475 0.143181 0 0 -0.123752 141 137 133 255 0.332147 0.063362 
0.082722 0.175478 0.143181 0 0 -0.123752 141 137 133 255 0.332147 0.063362 
-0.082722 0.923475 0.143181 0 0 -0.123752 141 137 133 255 0.332147 0.063362 
0.082722 0.175478 0.143181 0 0 -0.123752 141 137 133 255 0.332147 0.063362 
-0.082722 0.175478 0.143181 0 0 -0.123752 141 137 133 255 0.332147 0.063362 
0.082722 0.175478 0.244743 0.0759681 0 0 125 121 118 255 0.300108 0.063362 
0.082722 0.175478 0.143181 0.0759681 0 0 125 121 118 255 0.300108 0.063362 
0.082722 0.923475 0.143181 0.0759681 0 0 125 121 118 255 0.300108 0.063362 
0.082722 0.175478 0.244743 0.0759688 -0 0 125 121 118 255 0.300108 0.063362 
0.082722 0.923475 0.143181 0.0759688 -0 0 125 121 118 255 0.300108 0.063362 
0.082722 0.923475 0.244744 0.0759688 -0 0 125 121 118 255 0.300108 0.063362 
-0.082722 0.175478 0.244743 0 -1.65176e-07 0.123752 141 137 133 255 0.332147 0.063362 
0.082722 0.175478 0.244743 0 -1.65176e-07 0.123752 141 137 133 255 0.332147 0.063362 
0.082722 0.923475 0.244744 0 -1.65176e-07 0.123752 141 137 133 255 0.332147 0.063362 
-0.082722 0.175478 0.244743 0 -1.65176e-07 0.123752 141 137 133 255 0.332147 0.063362 
0.082722 0.923475 0.244744 0 -1.65176e-07 0.123752 141 137 133 255 0.332147 0.063362 
-0.082722 0.923475 0.244744 0 -1.65176e-07 0.123752 141 137 133 255 0.332147 0.063362 
3 0 1 2
3 3 4 5
3 6 7 8
3 9 10 11
3 12 13 14
3 15 16 17
3 18 19 20
3 21 22 23
3 24 25 26
3 27 28 29
3 30 31 32
3 33 34 35
3 36 37 38
3 39 40 41
3 42 43 44
3 45 46 47
3 48 49 50
3 51 52 53
3 54 55 56
3 57 58 59
3 60 61 62
3 63 64 65
3 66 67 68
3 69 70 71
3 72 73 74
3 75 76 77
3 78 79 80
3 81 82 83
3 84 85 86
3 87 88 89
3 90 91 92
3 93 94 95
3 96 97 98
3 99 100 101
3 102 103 104
3 105 106 107
3 108 109 110
3 111 112 113
3 114 115 116
3 117 118 119
3 120 121 122
3 123 124 125
3 126 127 128
3 129 130 131
3 132 133 134
3 135 136 137
3 138 139 140
3 141 142 143
3 144 145 146
3 147 148 149
3 150 151 152
3 153 154 155
3 156 157 158
3 159 160 161
3 162 163 164
3 165 166 167
3 168 169 170
3 171 172 173
3 174 175 176
3 177 178 179
3 180 181 182
3 183 184 185
3 186 187 188
3 189 190 191
3 192 193 194
3 195 196 197
3 198 199 200
3 201 202 203
3 204 205 206
3 207 208 209
3 210 211 212
3 213 214 215
3 216 217 218
3 219 220 221
3 222 223 224
3 225 226 227
3 228 229 230
3 231 232 233
3 234 235 236
3 237 238 239
3 240 241 242
3 243 244 245
