ply
format ascii 1.0
comment Feeney's Flatenator generated
comment TextureFile SpaceInteriors_Texture.png
element vertex 204
property float x
property float y
property float z
property float nx
property float ny
property float nz
property float texture_u
property float texture_v
element face 68
property list uchar int vertex_indices
end_header
-0.439156 0.527706 0.470573 0 0 0.478137 0.023672 0.526021 
0.192703 0.527706 0.470573 0 0 0.478137 0.023672 0.526021 
0.192703 1.28442 0.470573 0 0 0.478137 0.023672 0.526021 
-0.439156 0.527706 0.470573 0 0 0.478137 0.023672 0.526021 
0.192703 1.28442 0.470573 0 0 0.478137 0.023672 0.526021 
-0.439156 1.28442 0.470573 0 0 0.478137 0.023672 0.526021 
-0.590382 1.41026 0.470573 -0 0.233597 0 0.359672 0.061705 
0.339043 1.41026 0.470573 -0 0.233597 0 0.359672 0.061705 
0.590382 1.41026 0.219238 -0 0.233597 0 0.359672 0.061705 
-0.590382 1.41026 0.470573 0 0.814504 0 0.359672 0.061705 
0.590382 1.41026 0.219238 0 0.814504 0 0.359672 0.061705 
0.590382 1.41026 -0.470573 0 0.814504 0 0.359672 0.061705 
-0.590382 1.41026 0.470573 0 1.11127 0 0.359672 0.061705 
0.590382 1.41026 -0.470573 0 1.11127 0 0.359672 0.061705 
-0.590382 1.41026 -0.470573 0 1.11127 0 0.359672 0.061705 
-0.590382 1.41026 -0.470573 0 0 -1.42684 0.331311 0.062414 
0.590382 1.41026 -0.470573 0 0 -1.42684 0.331311 0.062414 
0.590382 0.201855 -0.470573 0 0 -1.42684 0.331311 0.062414 
-0.590382 1.41026 -0.470573 0 0 -1.42684 0.331311 0.062414 
0.590382 0.201855 -0.470573 0 0 -1.42684 0.331311 0.062414 
-0.590382 0.201855 -0.470573 0 0 -1.42684 0.331311 0.062414 
0.590382 0 0.219238 0 -0.233597 0 0.263954 0.059578 
0.339043 0 0.470573 0 -0.233597 0 0.263954 0.059578 
-0.590382 0 0.470573 0 -0.233597 0 0.263954 0.059578 
0.590382 0 0.219238 -0 -1.11127 0 0.263954 0.059578 
-0.590382 0 0.470573 -0 -1.11127 0 0.263954 0.059578 
-0.590382 0 -0.470573 -0 -1.11127 0 0.263954 0.059578 
0.590382 0 0.219238 0 -0.814504 -0 0.263954 0.059578 
-0.590382 0 -0.470573 0 -0.814504 -0 0.263954 0.059578 
0.590382 0 -0.470573 0 -0.814504 -0 0.263954 0.059578 
-0.590382 0.201855 0.470573 -1.13729 0 0 0.298696 0.062414 
-0.590382 1.41026 0.470573 -1.13729 0 0 0.298696 0.062414 
-0.590382 1.41026 -0.470573 -1.13729 0 0 0.298696 0.062414 
-0.590382 0.201855 0.470573 -1.13729 0 0 0.298696 0.062414 
-0.590382 1.41026 -0.470573 -1.13729 0 0 0.298696 0.062414 
-0.590382 0.201855 -0.470573 -1.13729 0 0 0.298696 0.062414 
-0.590382 0.201855 0.470573 0 0 0.267503 0.331311 0.062414 
0.339043 0.201855 0.470573 0 0 0.267503 0.331311 0.062414 
0.224464 0.489671 0.470573 0 0 0.267503 0.331311 0.062414 
-0.590382 0.201855 0.470573 0 0 0.200142 0.331311 0.062414 
0.224464 0.489671 0.470573 0 0 0.200142 0.331311 0.062414 
-0.470917 0.489671 0.470573 0 0 0.200142 0.331311 0.062414 
0.339043 0.201855 0.470573 0 -0 0.138458 0.331311 0.062414 
0.339043 1.41026 0.470573 0 -0 0.138458 0.331311 0.062414 
0.224464 1.32245 0.470573 0 -0 0.138458 0.331311 0.062414 
0.339043 0.201855 0.470573 0 0 0.095419 0.331311 0.062414 
0.224464 1.32245 0.470573 0 0 0.095419 0.331311 0.062414 
0.224464 0.489671 0.470573 0 0 0.095419 0.331311 0.062414 
0.339043 1.41026 0.470573 0 0 0.0816127 0.331311 0.062414 
-0.590382 1.41026 0.470573 0 0 0.0816127 0.331311 0.062414 
-0.470917 1.32245 0.470573 0 0 0.0816127 0.331311 0.062414 
0.339043 1.41026 0.470573 0 0 0.0610614 0.331311 0.062414 
-0.470917 1.32245 0.470573 0 0 0.0610614 0.331311 0.062414 
0.224464 1.32245 0.470573 0 0 0.0610614 0.331311 0.062414 
-0.590382 1.41026 0.470573 0 0 0.144362 0.331311 0.062414 
-0.590382 0.201855 0.470573 0 0 0.144362 0.331311 0.062414 
-0.470917 0.489671 0.470573 0 0 0.144362 0.331311 0.062414 
-0.590382 1.41026 0.470573 0 0 0.0994879 0.331311 0.062414 
-0.470917 0.489671 0.470573 0 0 0.0994879 0.331311 0.062414 
-0.470917 1.32245 0.470573 0 0 0.0994879 0.331311 0.062414 
-0.590382 0.201855 -0.470573 0 0 -0.0628261 0.263352 0.064251 
0.590382 0.201855 -0.470573 0 0 -0.0628261 0.263352 0.064251 
0.590382 0.148647 -0.470573 0 0 -0.0628261 0.263352 0.064251 
-0.590382 0.201855 -0.470573 0 0 -0.0628261 0.263352 0.064251 
0.590382 0.148647 -0.470573 0 0 -0.0628261 0.263352 0.064251 
-0.590382 0.148647 -0.470573 0 0 -0.0628261 0.263352 0.064251 
0.590382 0.201855 0.219238 0.013373 0 0.0133732 0.263352 0.064251 
0.339043 0.201855 0.470573 0.013373 0 0.0133732 0.263352 0.064251 
0.339043 0.148647 0.470573 0.013373 0 0.0133732 0.263352 0.064251 
0.590382 0.201855 0.219238 0.013373 0 0.0133732 0.263352 0.064251 
0.339043 0.148647 0.470573 0.013373 0 0.0133732 0.263352 0.064251 
0.590382 0.148647 0.219238 0.013373 0 0.0133732 0.263352 0.064251 
0.339043 0.201855 0.470573 0 0 0.0494529 0.263352 0.064251 
-0.590382 0.201855 0.470573 0 0 0.0494529 0.263352 0.064251 
-0.590382 0.148647 0.470573 0 0 0.0494529 0.263352 0.064251 
0.339043 0.201855 0.470573 0 0 0.0494529 0.263352 0.064251 
-0.590382 0.148647 0.470573 0 0 0.0494529 0.263352 0.064251 
0.339043 0.148647 0.470573 0 0 0.0494529 0.263352 0.064251 
-0.590382 0.148647 0.470573 -0.0500765 0 0 0.230737 0.064251 
-0.590382 0.201855 0.470573 -0.0500765 0 0 0.230737 0.064251 
-0.590382 0.201855 -0.470573 -0.0500765 0 0 0.230737 0.064251 
-0.590382 0.148647 0.470573 -0.0500765 0 0 0.230737 0.064251 
-0.590382 0.201855 -0.470573 -0.0500765 0 0 0.230737 0.064251 
-0.590382 0.148647 -0.470573 -0.0500765 0 0 0.230737 0.064251 
-0.590382 0.148647 -0.470573 0 0 -0.175517 0.331311 0.062414 
0.590382 0.148647 -0.470573 0 0 -0.175517 0.331311 0.062414 
0.590382 0 -0.470573 0 0 -0.175517 0.331311 0.062414 
-0.590382 0.148647 -0.470573 0 0 -0.175517 0.331311 0.062414 
0.590382 0 -0.470573 0 0 -0.175517 0.331311 0.062414 
-0.590382 0 -0.470573 0 0 -0.175517 0.331311 0.062414 
0.590382 0.148647 0.219238 0.0373602 0 0.0373608 0.331311 0.062414 
0.339043 0.148647 0.470573 0.0373602 0 0.0373608 0.331311 0.062414 
0.339043 0 0.470573 0.0373602 0 0.0373608 0.331311 0.062414 
0.590382 0.148647 0.219238 0.0373602 0 0.0373608 0.331311 0.062414 
0.339043 0 0.470573 0.0373602 0 0.0373608 0.331311 0.062414 
0.590382 0 0.219238 0.0373602 0 0.0373608 0.331311 0.062414 
0.339043 0.148647 0.470573 0 0 0.138156 0.331311 0.062414 
-0.590382 0.148647 0.470573 0 0 0.138156 0.331311 0.062414 
-0.590382 0 0.470573 0 0 0.138156 0.331311 0.062414 
0.339043 0.148647 0.470573 0 0 0.138156 0.331311 0.062414 
-0.590382 0 0.470573 0 0 0.138156 0.331311 0.062414 
0.339043 0 0.470573 0 0 0.138156 0.331311 0.062414 
-0.590382 0 0.470573 -0.139899 0 0 0.298696 0.062414 
-0.590382 0.148647 0.470573 -0.139899 0 0 0.298696 0.062414 
-0.590382 0.148647 -0.470573 -0.139899 0 0 0.298696 0.062414 
-0.590382 0 0.470573 -0.139899 0 0 0.298696 0.062414 
-0.590382 0.148647 -0.470573 -0.139899 0 0 0.298696 0.062414 
-0.590382 0 -0.470573 -0.139899 0 0 0.298696 0.062414 
0.590382 0.148647 -0.470573 0.102538 0 -0 0.298696 0.062414 
0.590382 0.148647 0.219238 0.102538 0 -0 0.298696 0.062414 
0.590382 0 0.219238 0.102538 0 -0 0.298696 0.062414 
0.590382 0.148647 -0.470573 0.102538 0 0 0.298696 0.062414 
0.590382 0 0.219238 0.102538 0 0 0.298696 0.062414 
0.590382 0 -0.470573 0.102538 0 0 0.298696 0.062414 
0.590382 0.201855 -0.470573 0.0367035 0 -0 0.230737 0.064251 
0.590382 0.201855 0.219238 0.0367035 0 -0 0.230737 0.064251 
0.590382 0.148647 0.219238 0.0367035 0 -0 0.230737 0.064251 
0.590382 0.201855 -0.470573 0.0367035 0 0 0.230737 0.064251 
0.590382 0.148647 0.219238 0.0367035 0 0 0.230737 0.064251 
0.590382 0.148647 -0.470573 0.0367035 0 0 0.230737 0.064251 
0.590382 1.41026 0.219238 0.833571 0 0 0.298696 0.062414 
0.590382 0.201855 0.219238 0.833571 0 0 0.298696 0.062414 
0.590382 0.201855 -0.470573 0.833571 0 0 0.298696 0.062414 
0.590382 1.41026 0.219238 0.833571 0 0 0.298696 0.062414 
0.590382 0.201855 -0.470573 0.833571 0 0 0.298696 0.062414 
0.590382 1.41026 -0.470573 0.833571 0 0 0.298696 0.062414 
0.355457 0.864728 0.454163 0.106401 0 0.106403 0.516989 0.741526 
0.573961 0.864728 0.235664 0.106401 0 0.106403 0.516989 0.682494 
0.573961 1.35169 0.235664 0.106401 0 0.106403 0.667219 0.682494 
0.355457 0.864728 0.454163 0.106401 -0 0.106403 0.516989 0.741526 
0.573961 1.35169 0.235664 0.106401 -0 0.106403 0.667219 0.682494 
0.355457 1.35169 0.454163 0.106401 -0 0.106403 0.667219 0.741526 
0.367889 0.355129 0.441719 0.0835972 0 0.0836007 0.68005 0.678374 
0.561531 0.355129 0.248085 0.0835972 0 0.0836007 0.742389 0.678374 
0.561531 0.786857 0.248085 0.0835972 0 0.0836007 0.742389 0.740713 
0.367889 0.355129 0.441719 0.0835972 -0 0.0836007 0.68005 0.678374 
0.561531 0.786857 0.248085 0.0835972 -0 0.0836007 0.742389 0.740713 
0.367889 0.786857 0.441719 0.0835972 -0 0.0836007 0.68005 0.740713 
0.590382 0.201855 0.219238 0.0198493 -0 0.0198432 0.329027 0.06446 
0.590382 1.41026 0.219238 0.0198493 -0 0.0198432 0.329027 0.06446 
0.573961 1.35169 0.235664 0.0198493 -0 0.0198432 0.329027 0.06446 
0.590382 0.201855 0.219238 0.00799884 0 0.00799639 0.329027 0.06446 
0.573961 1.35169 0.235664 0.00799884 0 0.00799639 0.329027 0.06446 
0.573961 0.864728 0.235664 0.00799884 0 0.00799639 0.329027 0.06446 
0.590382 1.41026 0.219238 0.0147207 9.42498e-07 0.0147209 0.329027 0.06446 
0.339043 1.41026 0.470573 0.0147207 9.42498e-07 0.0147209 0.329027 0.06446 
0.355457 1.35169 0.454163 0.0147207 9.42498e-07 0.0147209 0.329027 0.06446 
0.590382 1.41026 0.219238 0.0127975 1.18255e-06 0.0127978 0.329027 0.06446 
0.355457 1.35169 0.454163 0.0127975 1.18255e-06 0.0127978 0.329027 0.06446 
0.573961 1.35169 0.235664 0.0127975 1.18255e-06 0.0127978 0.329027 0.06446 
0.339043 1.41026 0.470573 0.0198299 0 0.0198348 0.329027 0.06446 
0.339043 0.201855 0.470573 0.0198299 0 0.0198348 0.329027 0.06446 
0.355457 0.864728 0.454163 0.0198299 0 0.0198348 0.329027 0.06446 
0.339043 1.41026 0.470573 0.00799104 0 0.007993 0.329027 0.06446 
0.355457 0.864728 0.454163 0.00799104 0 0.007993 0.329027 0.06446 
0.355457 1.35169 0.454163 0.00799104 0 0.007993 0.329027 0.06446 
0.339043 0.201855 0.470573 0.0385231 8.75443e-07 0.0385237 0.329027 0.06446 
0.590382 0.201855 0.219238 0.0385231 8.75443e-07 0.0385237 0.329027 0.06446 
0.561531 0.355129 0.248085 0.0385231 8.75443e-07 0.0385237 0.329027 0.06446 
0.339043 0.201855 0.470573 0.0296791 1.78441e-06 0.0296803 0.329027 0.06446 
0.561531 0.355129 0.248085 0.0296791 1.78441e-06 0.0296803 0.329027 0.06446 
0.367889 0.355129 0.441719 0.0296791 1.78441e-06 0.0296803 0.329027 0.06446 
0.590382 0.201855 0.219238 0.00951266 -2.10392e-07 0.00951824 0.329027 0.06446 
0.573961 0.864728 0.235664 0.00951266 -2.10392e-07 0.00951824 0.329027 0.06446 
0.561531 0.786857 0.248085 0.00951266 -2.10392e-07 0.00951824 0.329027 0.06446 
0.590382 0.201855 0.219238 0.0124541 0 0.0124558 0.329027 0.06446 
0.561531 0.786857 0.248085 0.0124541 0 0.0124558 0.329027 0.06446 
0.561531 0.355129 0.248085 0.0124541 0 0.0124558 0.329027 0.06446 
0.573961 0.864728 0.235664 0.0170147 -2.69338e-06 0.0170151 0.329027 0.06446 
0.355457 0.864728 0.454163 0.0170147 -2.69338e-06 0.0170151 0.329027 0.06446 
0.367889 0.786857 0.441719 0.0170147 -2.69338e-06 0.0170151 0.329027 0.06446 
0.573961 0.864728 0.235664 0.0150785 -1.64285e-06 0.0150791 0.329027 0.06446 
0.367889 0.786857 0.441719 0.0150785 -1.64285e-06 0.0150791 0.329027 0.06446 
0.561531 0.786857 0.248085 0.0150785 -1.64285e-06 0.0150791 0.329027 0.06446 
0.355457 0.864728 0.454163 0.0166113 -2.47644e-07 0.0166054 0.329027 0.06446 
0.339043 0.201855 0.470573 0.0166113 -2.47644e-07 0.0166054 0.329027 0.06446 
0.367889 0.355129 0.441719 0.0166113 -2.47644e-07 0.0166054 0.329027 0.06446 
0.355457 0.864728 0.454163 0.00537243 0 0.00536723 0.329027 0.06446 
0.367889 0.355129 0.441719 0.00537243 0 0.00536723 0.329027 0.06446 
0.367889 0.786857 0.441719 0.00537243 0 0.00536723 0.329027 0.06446 
-0.470917 0.489671 0.470573 0 0 0.0264488 0.416731 0.060411 
0.224464 0.489671 0.470573 0 0 0.0264488 0.416731 0.060411 
0.192703 0.527706 0.470573 0 0 0.0264488 0.416731 0.060411 
-0.470917 0.489671 0.470573 0 0 0.0240328 0.416731 0.060411 
0.192703 0.527706 0.470573 0 0 0.0240328 0.416731 0.060411 
-0.439156 0.527706 0.470573 0 0 0.0240328 0.416731 0.060411 
0.224464 0.489671 0.470573 0 -0 0.0264499 0.416731 0.060411 
0.224464 1.32245 0.470573 0 -0 0.0264499 0.416731 0.060411 
0.192703 1.28442 0.470573 0 -0 0.0264499 0.416731 0.060411 
0.224464 0.489671 0.470573 0 0 0.024034 0.416731 0.060411 
0.192703 1.28442 0.470573 0 0 0.024034 0.416731 0.060411 
0.192703 0.527706 0.470573 0 0 0.024034 0.416731 0.060411 
0.224464 1.32245 0.470573 0 0 0.0264454 0.416731 0.060411 
-0.470917 1.32245 0.470573 0 0 0.0264454 0.416731 0.060411 
-0.439156 1.28442 0.470573 0 0 0.0264454 0.416731 0.060411 
0.224464 1.32245 0.470573 0 0 0.0240296 0.416731 0.060411 
-0.439156 1.28442 0.470573 0 0 0.0240296 0.416731 0.060411 
0.192703 1.28442 0.470573 0 0 0.0240296 0.416731 0.060411 
-0.470917 1.32245 0.470573 0 0 0.0264499 0.416731 0.060411 
-0.470917 0.489671 0.470573 0 0 0.0264499 0.416731 0.060411 
-0.439156 0.527706 0.470573 0 0 0.0264499 0.416731 0.060411 
-0.470917 1.32245 0.470573 0 0 0.024034 0.416731 0.060411 
-0.439156 0.527706 0.470573 0 0 0.024034 0.416731 0.060411 
-0.439156 1.28442 0.470573 0 0 0.024034 0.416731 0.060411 
3 0 1 2
3 3 4 5
3 6 7 8
3 9 10 11
3 12 13 14
3 15 16 17
3 18 19 20
3 21 22 23
3 24 25 26
3 27 28 29
3 30 31 32
3 33 34 35
3 36 37 38
3 39 40 41
3 42 43 44
3 45 46 47
3 48 49 50
3 51 52 53
3 54 55 56
3 57 58 59
3 60 61 62
3 63 64 65
3 66 67 68
3 69 70 71
3 72 73 74
3 75 76 77
3 78 79 80
3 81 82 83
3 84 85 86
3 87 88 89
3 90 91 92
3 93 94 95
3 96 97 98
3 99 100 101
3 102 103 104
3 105 106 107
3 108 109 110
3 111 112 113
3 114 115 116
3 117 118 119
3 120 121 122
3 123 124 125
3 126 127 128
3 129 130 131
3 132 133 134
3 135 136 137
3 138 139 140
3 141 142 143
3 144 145 146
3 147 148 149
3 150 151 152
3 153 154 155
3 156 157 158
3 159 160 161
3 162 163 164
3 165 166 167
3 168 169 170
3 171 172 173
3 174 175 176
3 177 178 179
3 180 181 182
3 183 184 185
3 186 187 188
3 189 190 191
3 192 193 194
3 195 196 197
3 198 199 200
3 201 202 203
