ply
format ascii 1.0
comment Feeney's Flatenator generated
comment TextureFile SpaceInteriors_Texture.png
element vertex 36
property float x
property float y
property float z
property float nx
property float ny
property float nz
property uchar red
property uchar green
property uchar blue
property uchar alpha
property float texture_u
property float texture_v
element face 12
property list uchar int vertex_indices
end_header
-0.999998 0 0 0 0 0.278047 108 105 102 255 0.264046 0.062866 
0 0 0 0 0 0.278047 108 105 102 255 0.264046 0.062866 
0 0.278048 0 0 0 0.278047 108 105 102 255 0.264046 0.062866 
-0.999998 0 0 0 0 0.278047 108 105 102 255 0.264046 0.062866 
0 0.278048 0 0 0 0.278047 108 105 102 255 0.264046 0.062866 
-0.999998 0.278048 0 0 0 0.278047 108 105 102 255 0.264046 0.062866 
-0.999998 0.278048 0 -0 0.999998 0 108 105 102 255 0.508712 0.595223 
0 0.278048 0 -0 0.999998 0 108 105 102 255 0.587013 0.595223 
0 0.278048 -1 -0 0.999998 0 108 105 102 255 0.587013 0.674544 
-0.999998 0.278048 0 0 0.999998 0 108 105 102 255 0.508712 0.595223 
0 0.278048 -1 0 0.999998 0 108 105 102 255 0.587013 0.674544 
-0.999998 0.278048 -1 0 0.999998 0 108 105 102 255 0.508712 0.674544 
-0.999998 0.278048 -1 0 0 -0.278047 108 105 102 255 0.264046 0.062866 
0 0.278048 -1 0 0 -0.278047 108 105 102 255 0.264046 0.062866 
0 0 -1 0 0 -0.278047 108 105 102 255 0.264046 0.062866 
-0.999998 0.278048 -1 0 0 -0.278047 108 105 102 255 0.264046 0.062866 
0 0 -1 0 0 -0.278047 108 105 102 255 0.264046 0.062866 
-0.999998 0 -1 0 0 -0.278047 108 105 102 255 0.264046 0.062866 
-0.999998 0 -1 0 -0.999998 0 75 72 70 255 0.199188 0.062866 
0 0 -1 0 -0.999998 0 75 72 70 255 0.199188 0.062866 
0 0 0 0 -0.999998 0 75 72 70 255 0.199188 0.062866 
-0.999998 0 -1 0 -0.999998 0 75 72 70 255 0.199188 0.062866 
0 0 0 0 -0.999998 0 75 72 70 255 0.199188 0.062866 
-0.999998 0 0 0 -0.999998 0 75 72 70 255 0.199188 0.062866 
0 0 0 0.278048 0 0 91 88 86 255 0.233113 0.062866 
0 0 -1 0.278048 0 0 91 88 86 255 0.233113 0.062866 
0 0.278048 -1 0.278048 0 0 91 88 86 255 0.233113 0.062866 
0 0 0 0.278048 -0 0 91 88 86 255 0.233113 0.062866 
0 0.278048 -1 0.278048 -0 0 91 88 86 255 0.233113 0.062866 
0 0.278048 0 0.278048 -0 0 91 88 86 255 0.233113 0.062866 
-0.999998 0 -1 -0.278048 0 0 91 88 86 255 0.233113 0.062866 
-0.999998 0 0 -0.278048 0 0 91 88 86 255 0.233113 0.062866 
-0.999998 0.278048 0 -0.278048 0 0 91 88 86 255 0.233113 0.062866 
-0.999998 0 -1 -0.278048 0 0 91 88 86 255 0.233113 0.062866 
-0.999998 0.278048 0 -0.278048 0 0 91 88 86 255 0.233113 0.062866 
-0.999998 0.278048 -1 -0.278048 0 0 91 88 86 255 0.233113 0.062866 
3 0 1 2
3 3 4 5
3 6 7 8
3 9 10 11
3 12 13 14
3 15 16 17
3 18 19 20
3 21 22 23
3 24 25 26
3 27 28 29
3 30 31 32
3 33 34 35
