ply
format ascii 1.0
comment Feeney's Flatenator generated
comment TextureFile SpaceInteriors_Texture.png
element vertex 48
property float x
property float y
property float z
element face 16
property list uchar int vertex_indices
end_header
-1.63282 0.999063 1.00236 
-1.01714 0.522638 0.996457 
0 0.519194 -0.016974 
-1.63282 0.999063 1.00236 
0 0.519194 -0.016974 
0 1 -0.629269 
-1.63282 0.999063 1.00236 
0 1 -0.629269 
0 1 -0.999999 
-1.63282 0.999063 1.00236 
0 1 -0.999999 
-2.00353 0.996419 1.00512 
-2.00353 0.996419 1.00512 
0 1 -0.999999 
0 0 -0.999999 
-2.00353 0.996419 1.00512 
0 0 -0.999999 
-1.99642 -0.003551 1.00233 
-1.99642 -0.003551 1.00233 
-0.99647 0.003581 0.99488 
-1.01714 0.522638 0.996457 
-1.99642 -0.003551 1.00233 
-1.01714 0.522638 0.996457 
-1.63282 0.999063 1.00236 
-1.99642 -0.003551 1.00233 
-1.63282 0.999063 1.00236 
-2.00353 0.996419 1.00512 
-0.99647 0.003581 0.99488 
0 0 0 
0 0.519194 -0.016974 
-0.99647 0.003581 0.99488 
0 0.519194 -0.016974 
-1.01714 0.522638 0.996457 
-1.99642 -0.003551 1.00233 
0 0 -0.999999 
0 0 0 
-1.99642 -0.003551 1.00233 
0 0 0 
-0.99647 0.003581 0.99488 
0 0 0 
0 0 -0.999999 
0 1 -0.999999 
0 0 0 
0 1 -0.999999 
0 1 -0.629269 
0 0 0 
0 1 -0.629269 
0 0.519194 -0.016974 
3 0 1 2
3 3 4 5
3 6 7 8
3 9 10 11
3 12 13 14
3 15 16 17
3 18 19 20
3 21 22 23
3 24 25 26
3 27 28 29
3 30 31 32
3 33 34 35
3 36 37 38
3 39 40 41
3 42 43 44
3 45 46 47
