ply
format ascii 1.0
comment Feeney's Flatenator generated
comment TextureFile SpaceInteriors_Texture.png
element vertex 84
property float x
property float y
property float z
property float nx
property float ny
property float nz
property uchar red
property uchar green
property uchar blue
property uchar alpha
property float texture_u
property float texture_v
element face 28
property list uchar int vertex_indices
end_header
-0.062344 0 -0.062344 -0.0155471 0 0 85 94 97 255 0.23564 0.266359 
-0.062344 0 0.062344 -0.0155471 0 0 85 94 97 255 0.23564 0.266359 
-0.062344 0.124688 0.062344 -0.0155471 0 0 85 94 97 255 0.23564 0.266359 
-0.062344 0 -0.062344 -0.0155471 0 0 85 94 97 255 0.23564 0.266359 
-0.062344 0.124688 0.062344 -0.0155471 0 0 85 94 97 255 0.23564 0.266359 
-0.062344 0.124688 -0.062344 -0.0155471 0 0 85 94 97 255 0.23564 0.266359 
-0.040537 0.1577 -0.040537 0 0.00657299 0 185 61 58 255 0.984998 0.377375 
-0.040537 0.1577 0.040537 0 0.00657299 0 185 61 58 255 0.984998 0.377375 
0.040537 0.1577 0.040537 0 0.00657299 0 185 61 58 255 0.984998 0.377375 
-0.040537 0.1577 -0.040537 0 0.00657299 0 185 61 58 255 0.984998 0.377375 
0.040537 0.1577 0.040537 0 0.00657299 0 185 61 58 255 0.984998 0.377375 
0.040537 0.1577 -0.040537 0 0.00657299 0 185 61 58 255 0.984998 0.377375 
0.062344 0.124688 -0.062344 0.0155471 0 -0 85 94 97 255 0.23564 0.266359 
0.062344 0.124688 0.062344 0.0155471 0 -0 85 94 97 255 0.23564 0.266359 
0.062344 0 0.062344 0.0155471 0 -0 85 94 97 255 0.23564 0.266359 
0.062344 0.124688 -0.062344 0.0155471 0 0 85 94 97 255 0.23564 0.266359 
0.062344 0 0.062344 0.0155471 0 0 85 94 97 255 0.23564 0.266359 
0.062344 0 -0.062344 0.0155471 0 0 85 94 97 255 0.23564 0.266359 
0.062344 0 -0.062344 0 -0.0155471 0 78 85 87 255 0.202572 0.265746 
0.062344 0 0.062344 0 -0.0155471 0 78 85 87 255 0.202572 0.265746 
-0.062344 0 0.062344 0 -0.0155471 0 78 85 87 255 0.202572 0.265746 
0.062344 0 -0.062344 0 -0.0155471 0 78 85 87 255 0.202572 0.265746 
-0.062344 0 0.062344 0 -0.0155471 0 78 85 87 255 0.202572 0.265746 
-0.062344 0 -0.062344 0 -0.0155471 0 78 85 87 255 0.202572 0.265746 
-0.062344 0 0.062344 0 0 0.0155471 78 85 87 255 0.207471 0.267583 
0.062344 0 0.062344 0 0 0.0155471 78 85 87 255 0.207471 0.267583 
0.062344 0.124688 0.062344 0 0 0.0155471 78 85 87 255 0.207471 0.267583 
-0.062344 0 0.062344 0 0 0.0155471 78 85 87 255 0.207471 0.267583 
0.062344 0.124688 0.062344 0 0 0.0155471 78 85 87 255 0.207471 0.267583 
-0.062344 0.124688 0.062344 0 0 0.0155471 78 85 87 255 0.207471 0.267583 
0.062344 0 -0.062344 0 0 -0.0155471 78 85 87 255 0.207471 0.267583 
-0.062344 0 -0.062344 0 0 -0.0155471 78 85 87 255 0.207471 0.267583 
-0.062344 0.124688 -0.062344 0 0 -0.0155471 78 85 87 255 0.207471 0.267583 
0.062344 0 -0.062344 0 0 -0.0155471 78 85 87 255 0.207471 0.267583 
-0.062344 0.124688 -0.062344 0 0 -0.0155471 78 85 87 255 0.207471 0.267583 
0.062344 0.124688 -0.062344 0 0 -0.0155471 78 85 87 255 0.207471 0.267583 
-0.062344 0.124688 -0.062344 0 0.00271907 0 95 104 105 255 0.26381 0.258398 
-0.062344 0.124688 0.062344 0 0.00271907 0 95 104 105 255 0.26381 0.258398 
-0.040537 0.124688 0.040537 0 0.00271907 0 95 104 105 255 0.26381 0.258398 
-0.062344 0.124688 -0.062344 0 0.00176798 0 95 104 105 255 0.26381 0.258398 
-0.040537 0.124688 0.040537 0 0.00176798 0 95 104 105 255 0.26381 0.258398 
-0.040537 0.124688 -0.040537 0 0.00176798 0 95 104 105 255 0.26381 0.258398 
-0.062344 0.124688 0.062344 -0 0.00271907 0 95 104 105 255 0.26381 0.258398 
0.062344 0.124688 0.062344 -0 0.00271907 0 95 104 105 255 0.26381 0.258398 
0.040537 0.124688 0.040537 -0 0.00271907 0 95 104 105 255 0.26381 0.258398 
-0.062344 0.124688 0.062344 0 0.00176798 0 95 104 105 255 0.26381 0.258398 
0.040537 0.124688 0.040537 0 0.00176798 0 95 104 105 255 0.26381 0.258398 
-0.040537 0.124688 0.040537 0 0.00176798 0 95 104 105 255 0.26381 0.258398 
0.062344 0.124688 0.062344 0 0.00271907 0 95 104 105 255 0.26381 0.258398 
0.062344 0.124688 -0.062344 0 0.00271907 0 95 104 105 255 0.26381 0.258398 
0.040537 0.124688 -0.040537 0 0.00271907 0 95 104 105 255 0.26381 0.258398 
0.062344 0.124688 0.062344 0 0.00176798 0 95 104 105 255 0.26381 0.258398 
0.040537 0.124688 -0.040537 0 0.00176798 0 95 104 105 255 0.26381 0.258398 
0.040537 0.124688 0.040537 0 0.00176798 0 95 104 105 255 0.26381 0.258398 
0.062344 0.124688 -0.062344 0 0.00271907 0 95 104 105 255 0.26381 0.258398 
-0.062344 0.124688 -0.062344 0 0.00271907 0 95 104 105 255 0.26381 0.258398 
-0.040537 0.124688 -0.040537 0 0.00271907 0 95 104 105 255 0.26381 0.258398 
0.062344 0.124688 -0.062344 0 0.00176798 0 95 104 105 255 0.26381 0.258398 
-0.040537 0.124688 -0.040537 0 0.00176798 0 95 104 105 255 0.26381 0.258398 
0.040537 0.124688 -0.040537 0 0.00176798 0 95 104 105 255 0.26381 0.258398 
-0.040537 0.124688 -0.040537 -0.00267642 0 0 156 49 49 255 0.919093 0.378173 
-0.040537 0.124688 0.040537 -0.00267642 0 0 156 49 49 255 0.919093 0.378173 
-0.040537 0.1577 0.040537 -0.00267642 0 0 156 49 49 255 0.919093 0.378173 
-0.040537 0.124688 -0.040537 -0.00267642 0 0 156 49 49 255 0.919093 0.378173 
-0.040537 0.1577 0.040537 -0.00267642 0 0 156 49 49 255 0.919093 0.378173 
-0.040537 0.1577 -0.040537 -0.00267642 0 0 156 49 49 255 0.919093 0.378173 
-0.040537 0.124688 0.040537 0 0 0.00267642 156 49 49 255 0.919093 0.378173 
0.040537 0.124688 0.040537 0 0 0.00267642 156 49 49 255 0.919093 0.378173 
0.040537 0.1577 0.040537 0 0 0.00267642 156 49 49 255 0.919093 0.378173 
-0.040537 0.124688 0.040537 0 0 0.00267642 156 49 49 255 0.919093 0.378173 
0.040537 0.1577 0.040537 0 0 0.00267642 156 49 49 255 0.919093 0.378173 
-0.040537 0.1577 0.040537 0 0 0.00267642 156 49 49 255 0.919093 0.378173 
0.040537 0.124688 0.040537 0.00267642 0 0 156 49 49 255 0.919093 0.378173 
0.040537 0.124688 -0.040537 0.00267642 0 0 156 49 49 255 0.919093 0.378173 
0.040537 0.1577 -0.040537 0.00267642 0 0 156 49 49 255 0.919093 0.378173 
0.040537 0.124688 0.040537 0.00267642 -0 0 156 49 49 255 0.919093 0.378173 
0.040537 0.1577 -0.040537 0.00267642 -0 0 156 49 49 255 0.919093 0.378173 
0.040537 0.1577 0.040537 0.00267642 -0 0 156 49 49 255 0.919093 0.378173 
0.040537 0.124688 -0.040537 0 0 -0.00267642 156 49 49 255 0.919093 0.378173 
-0.040537 0.124688 -0.040537 0 0 -0.00267642 156 49 49 255 0.919093 0.378173 
-0.040537 0.1577 -0.040537 0 0 -0.00267642 156 49 49 255 0.919093 0.378173 
0.040537 0.124688 -0.040537 0 0 -0.00267642 156 49 49 255 0.919093 0.378173 
-0.040537 0.1577 -0.040537 0 0 -0.00267642 156 49 49 255 0.919093 0.378173 
0.040537 0.1577 -0.040537 0 0 -0.00267642 156 49 49 255 0.919093 0.378173 
3 0 1 2
3 3 4 5
3 6 7 8
3 9 10 11
3 12 13 14
3 15 16 17
3 18 19 20
3 21 22 23
3 24 25 26
3 27 28 29
3 30 31 32
3 33 34 35
3 36 37 38
3 39 40 41
3 42 43 44
3 45 46 47
3 48 49 50
3 51 52 53
3 54 55 56
3 57 58 59
3 60 61 62
3 63 64 65
3 66 67 68
3 69 70 71
3 72 73 74
3 75 76 77
3 78 79 80
3 81 82 83
