ply
format ascii 1.0
comment Feeney's Flatenator generated
comment TextureFile SpaceInteriors_Texture.png
element vertex 96
property float x
property float y
property float z
property float nx
property float ny
property float nz
property uchar red
property uchar green
property uchar blue
property uchar alpha
element face 32
property list uchar int vertex_indices
end_header
0 0 0 0 -0.999999 0 75 72 70 255 
0 0 -1 0 -0.999999 0 75 72 70 255 
0.999999 0 -1 0 -0.999999 0 75 72 70 255 
0 0 0 0 -0.999999 0 75 72 70 255 
0.999999 0 -1 0 -0.999999 0 75 72 70 255 
0.999999 0 0 0 -0.999999 0 75 72 70 255 
0.999999 0 -1 0.379218 0 0 91 88 86 255 
0.999999 1 -1 0.379218 0 0 91 88 86 255 
0.999999 1 -0.620782 0.379218 0 0 91 88 86 255 
0.999999 0 -1 0.803112 0 0 91 88 86 255 
0.999999 1 -0.620782 0.803112 0 0 91 88 86 255 
0.999999 0.519194 0 0.803112 0 0 91 88 86 255 
0.999999 0 -1 0.519194 0 0 91 88 86 255 
0.999999 0.519194 0 0.519194 0 0 91 88 86 255 
0.999999 0 0 0.519194 0 0 91 88 86 255 
0.611933 0.429729 -0.070874 0 0 0.100904 91 88 86 255 
0.611933 0.089466 -0.070874 0 0 0.100904 91 88 86 255 
0.908481 0.089466 -0.070874 0 0 0.100904 91 88 86 255 
0.611933 0.429729 -0.070874 -0 0 0.100904 91 88 86 255 
0.908481 0.089466 -0.070874 -0 0 0.100904 91 88 86 255 
0.908481 0.429729 -0.070874 -0 0 0.100904 91 88 86 255 
0 1 -0.629269 0 0.629268 0.480806 143 136 130 255 
0 0.519194 0 0 0.629268 0.480806 108 105 102 255 
0.999999 0.519194 0 0 0.629268 0.480806 108 105 102 255 
0 1 -0.629269 -0.00408059 0.620781 0.480806 143 136 130 255 
0.999999 0.519194 0 -0.00408059 0.620781 0.480806 108 105 102 255 
0.999999 1 -0.620782 -0.00408059 0.620781 0.480806 143 136 130 255 
0 1 -1 0 0.370731 0 125 121 118 255 
0 1 -0.629269 0 0.370731 0 125 121 118 255 
0.999999 1 -0.620782 0 0.370731 0 125 121 118 255 
0 1 -1 0 0.379218 0 125 121 118 255 
0.999999 1 -0.620782 0 0.379218 0 125 121 118 255 
0.999999 1 -1 0 0.379218 0 125 121 118 255 
0 0 -1 0 0 -0.999999 108 105 102 255 
0 1 -1 0 0 -0.999999 108 105 102 255 
0.999999 1 -1 0 0 -0.999999 108 105 102 255 
0 0 -1 0 0 -0.999999 108 105 102 255 
0.999999 1 -1 0 0 -0.999999 108 105 102 255 
0.999999 0 -1 0 0 -0.999999 108 105 102 255 
0 1 -0.629269 -0.370731 0 -0 91 88 86 255 
0 1 -1 -0.370731 0 -0 91 88 86 255 
0 0 -1 -0.370731 0 -0 91 88 86 255 
0 1 -0.629269 -1 -0 0 91 88 86 255 
0 0 -1 -1 -0 0 91 88 86 255 
0 0 0 -1 -0 0 91 88 86 255 
0 1 -0.629269 -0.326713 0 0 91 88 86 255 
0 0 0 -0.326713 0 0 91 88 86 255 
0 0.519194 0 -0.326713 0 0 91 88 86 255 
0 0.519194 0 0 0 0.317712 108 105 102 255 
0 0 0 0 0 0.317712 108 105 102 255 
0.611933 0.089466 0 0 0 0.317712 108 105 102 255 
0 0.519194 0 0 0 0.208218 108 105 102 255 
0.611933 0.089466 0 0 0 0.208218 108 105 102 255 
0.611933 0.429729 0 0 0 0.208218 108 105 102 255 
0 0 0 0 0 0.0894659 108 105 102 255 
0.999999 0 0 0 0 0.0894659 108 105 102 255 
0.908481 0.089466 0 0 0 0.0894659 108 105 102 255 
0 0 0 0 0 0.026531 108 105 102 255 
0.908481 0.089466 0 0 0 0.026531 108 105 102 255 
0.611933 0.089466 0 0 0 0.026531 108 105 102 255 
0.999999 0 0 0 -0 0.0475156 108 105 102 255 
0.999999 0.519194 0 0 -0 0.0475156 108 105 102 255 
0.908481 0.429729 0 0 -0 0.0475156 108 105 102 255 
0.999999 0 0 0 0 0.0311402 108 105 102 255 
0.908481 0.429729 0 0 0 0.0311402 108 105 102 255 
0.908481 0.089466 0 0 0 0.0311402 108 105 102 255 
0.999999 0.519194 0 0 0 0.0894649 108 105 102 255 
0 0.519194 0 0 0 0.0894649 108 105 102 255 
0.611933 0.429729 0 0 0 0.0894649 108 105 102 255 
0.999999 0.519194 0 0 0 0.0265307 108 105 102 255 
0.611933 0.429729 0 0 0 0.0265307 108 105 102 255 
0.908481 0.429729 0 0 0 0.0265307 108 105 102 255 
0.611933 0.429729 0 0.0241158 0 0 75 72 70 255 
0.611933 0.089466 0 0.0241158 0 0 75 72 70 255 
0.611933 0.089466 -0.070874 0.0241158 0 0 75 72 70 255 
0.611933 0.429729 0 0.0241158 0 0 75 72 70 255 
0.611933 0.089466 -0.070874 0.0241158 0 0 75 72 70 255 
0.611933 0.429729 -0.070874 0.0241158 0 0 75 72 70 255 
0.611933 0.089466 0 -0 0.0210175 0 125 121 118 255 
0.908481 0.089466 0 -0 0.0210175 0 125 121 118 255 
0.908481 0.089466 -0.070874 -0 0.0210175 0 125 121 118 255 
0.611933 0.089466 0 0 0.0210175 0 125 121 118 255 
0.908481 0.089466 -0.070874 0 0.0210175 0 125 121 118 255 
0.611933 0.089466 -0.070874 0 0.0210175 0 125 121 118 255 
0.908481 0.089466 0 -0.0241158 0 0 75 72 70 255 
0.908481 0.429729 0 -0.0241158 0 0 75 72 70 255 
0.908481 0.429729 -0.070874 -0.0241158 0 0 75 72 70 255 
0.908481 0.089466 0 -0.0241158 0 0 75 72 70 255 
0.908481 0.429729 -0.070874 -0.0241158 0 0 75 72 70 255 
0.908481 0.089466 -0.070874 -0.0241158 0 0 75 72 70 255 
0.908481 0.429729 0 -0 -0.0210175 0 58 57 55 255 
0.611933 0.429729 0 -0 -0.0210175 0 58 57 55 255 
0.611933 0.429729 -0.070874 -0 -0.0210175 0 58 57 55 255 
0.908481 0.429729 0 0 -0.0210175 -0 58 57 55 255 
0.611933 0.429729 -0.070874 0 -0.0210175 -0 58 57 55 255 
0.908481 0.429729 -0.070874 0 -0.0210175 -0 58 57 55 255 
3 0 1 2
3 3 4 5
3 6 7 8
3 9 10 11
3 12 13 14
3 15 16 17
3 18 19 20
3 21 22 23
3 24 25 26
3 27 28 29
3 30 31 32
3 33 34 35
3 36 37 38
3 39 40 41
3 42 43 44
3 45 46 47
3 48 49 50
3 51 52 53
3 54 55 56
3 57 58 59
3 60 61 62
3 63 64 65
3 66 67 68
3 69 70 71
3 72 73 74
3 75 76 77
3 78 79 80
3 81 82 83
3 84 85 86
3 87 88 89
3 90 91 92
3 93 94 95
