ply
format ascii 1.0
comment Feeney's Flatenator generated
comment TextureFile SpaceInteriors_Texture.png
element vertex 174
property float x
property float y
property float z
property float nx
property float ny
property float nz
property float texture_u
property float texture_v
element face 58
property list uchar int vertex_indices
end_header
1.00001 1.32771 0.099625 0.277494 0.230624 0 0.361595 0.061667 
1.00001 1.32771 0 0.277494 0.230624 0 0.361595 0.061667 
-1.31491 4.1131 0 0.277494 0.230624 0 0.361595 0.061667 
1.00001 1.32771 0.099625 0.277494 0.230624 0 0.361595 0.061667 
-1.31491 4.1131 0 0.277494 0.230624 0 0.361595 0.061667 
-1.31491 4.1131 0.099625 0.277494 0.230624 0 0.361595 0.061667 
-2.24042 5 0 0 0.0654341 0 0.29916 0.086662 
-2.24042 5 0.076889 0 0.0654341 0 0.29916 0.086662 
-1.3894 5 0.076889 0 0.0654341 0 0.29916 0.086662 
-2.24042 5 0 0 0.0654341 0 0.29916 0.086662 
-1.3894 5 0.076889 0 0.0654341 0 0.29916 0.086662 
-1.3894 5 0 0 0.0654341 0 0.29916 0.086662 
-2.31491 3.7643 0.099625 -0.277495 -0.230624 -0 0.361595 0.061667 
-2.31491 3.7643 0 -0.277495 -0.230624 -0 0.361595 0.061667 
8e-06 0.978907 0 -0.277495 -0.230624 -0 0.361595 0.061667 
-2.31491 3.7643 0.099625 -0.277495 -0.230624 0 0.361595 0.061667 
8e-06 0.978907 0 -0.277495 -0.230624 0 0.361595 0.061667 
8e-06 0.978907 0.099625 -0.277495 -0.230624 0 0.361595 0.061667 
0.074501 0 0.076889 0 -0.0654335 0 0.199275 0.086662 
0.074501 0 0 0 -0.0654335 0 0.199275 0.086662 
0.925514 0 0 0 -0.0654335 0 0.199275 0.086662 
0.074501 0 0.076889 0 -0.0654335 0 0.199275 0.086662 
0.925514 0 0 0 -0.0654335 0 0.199275 0.086662 
0.925514 0 0.076889 0 -0.0654335 0 0.199275 0.086662 
-1.3894 4.1131 0.076889 0 0 3.17787 0.64553 0.504446 
-2.24042 3.7643 0.076889 0 0 3.17787 0.57737 0.504245 
0.074501 0.978907 0.076889 0 0 3.17787 0.577312 0.502637 
-1.3894 4.1131 0.076889 0 0 3.17785 0.64553 0.504446 
0.074501 0.978907 0.076889 0 0 3.17785 0.577312 0.502637 
0.925514 1.32771 0.076889 0 0 3.17785 0.645541 0.502838 
-1.31491 4.1131 0.099625 0 0 0.207484 0.329556 0.061667 
-1.3894 4.1131 0.099625 0 0 0.207484 0.329556 0.061667 
0.925514 1.32771 0.099625 0 0 0.207484 0.329556 0.061667 
-1.31491 4.1131 0.099625 0 0 0.2075 0.329556 0.061667 
0.925514 1.32771 0.099625 0 0 0.2075 0.329556 0.061667 
1.00001 1.32771 0.099625 0 0 0.2075 0.329556 0.061667 
8e-06 0.978907 0.099625 0 -0 0.207492 0.329556 0.061667 
0.074501 0.978907 0.099625 0 -0 0.207492 0.329556 0.061667 
-2.24042 3.7643 0.099625 0 -0 0.207492 0.329556 0.061667 
8e-06 0.978907 0.099625 0 0 0.207483 0.329556 0.061667 
-2.24042 3.7643 0.099625 0 0 0.207483 0.329556 0.061667 
-2.31491 3.7643 0.099625 0 0 0.207483 0.329556 0.061667 
-2.31491 5 0.099625 -0 0.0016936 0 0.39646 0.061667 
-2.24042 5 0.099625 -0 0.0016936 0 0.39646 0.061667 
-2.24042 5 0.076889 -0 0.0016936 0 0.39646 0.061667 
-2.31491 5 0.099625 0 0.00572745 0 0.39646 0.061667 
-2.24042 5 0.076889 0 0.00572745 0 0.39646 0.061667 
-2.24042 5 0 0 0.00572745 0 0.39646 0.061667 
-2.31491 5 0.099625 0 0.00742105 0 0.39646 0.061667 
-2.24042 5 0 0 0.00742105 0 0.39646 0.061667 
-2.31491 5 0 0 0.00742105 0 0.39646 0.061667 
0.074501 0 0.076889 0 -0.00169367 0 0.296575 0.061667 
0.074501 0 0.099625 0 -0.00169367 0 0.296575 0.061667 
8e-06 0 0.099625 0 -0.00169367 0 0.296575 0.061667 
0.074501 0 0.076889 -0 -0.00742136 0 0.296575 0.061667 
8e-06 0 0.099625 -0 -0.00742136 0 0.296575 0.061667 
8e-06 0 0 -0 -0.00742136 0 0.296575 0.061667 
0.074501 0 0.076889 0 -0.00572769 -0 0.296575 0.061667 
8e-06 0 0 0 -0.00572769 -0 0.296575 0.061667 
0.074501 0 0 0 -0.00572769 -0 0.296575 0.061667 
-2.24042 3.7643 0.076889 0.0633287 0.052632 -0 0.269081 0.061667 
-2.24042 3.7643 0.099625 0.0633287 0.052632 -0 0.269081 0.061667 
0.074501 0.978907 0.099625 0.0633287 0.052632 -0 0.269081 0.061667 
-2.24042 3.7643 0.076889 0.0633287 0.052632 0 0.269081 0.061667 
0.074501 0.978907 0.099625 0.0633287 0.052632 0 0.269081 0.061667 
0.074501 0.978907 0.076889 0.0633287 0.052632 0 0.269081 0.061667 
-1.3894 5 0.076889 0 0.0016936 0 0.39646 0.061667 
-1.3894 5 0.099625 0 0.0016936 0 0.39646 0.061667 
-1.31491 5 0.099625 0 0.0016936 0 0.39646 0.061667 
-1.3894 5 0.076889 -0 0.00742106 0 0.39646 0.061667 
-1.31491 5 0.099625 -0 0.00742106 0 0.39646 0.061667 
-1.31491 5 0 -0 0.00742106 0 0.39646 0.061667 
-1.3894 5 0.076889 0 0.00572746 0 0.39646 0.061667 
-1.31491 5 0 0 0.00572746 0 0.39646 0.061667 
-1.3894 5 0 0 0.00572746 0 0.39646 0.061667 
1.00001 0 0.099625 -0 -0.00169374 0 0.296575 0.061667 
0.925514 0 0.099625 -0 -0.00169374 0 0.296575 0.061667 
0.925514 0 0.076889 -0 -0.00169374 0 0.296575 0.061667 
1.00001 0 0.099625 0 -0.00572793 0 0.296575 0.061667 
0.925514 0 0.076889 0 -0.00572793 0 0.296575 0.061667 
0.925514 0 0 0 -0.00572793 0 0.296575 0.061667 
1.00001 0 0.099625 0 -0.00742167 -0 0.296575 0.061667 
0.925514 0 0 0 -0.00742167 -0 0.296575 0.061667 
1.00001 0 0 0 -0.00742167 -0 0.296575 0.061667 
0.925514 1.32771 0.076889 -0.0633286 -0.0526319 0 0.269081 0.061667 
0.925514 1.32771 0.099625 -0.0633286 -0.0526319 0 0.269081 0.061667 
-1.3894 4.1131 0.099625 -0.0633286 -0.0526319 0 0.269081 0.061667 
0.925514 1.32771 0.076889 -0.0633286 -0.0526319 0 0.269081 0.061667 
-1.3894 4.1131 0.099625 -0.0633286 -0.0526319 0 0.269081 0.061667 
-1.3894 4.1131 0.076889 -0.0633286 -0.0526319 0 0.269081 0.061667 
-1.31491 4.1131 0.099625 0.0883574 0 0 0.361595 0.061667 
-1.31491 4.1131 0 0.0883574 0 0 0.361595 0.061667 
-1.31491 5 0 0.0883574 0 0 0.361595 0.061667 
-1.31491 4.1131 0.099625 0.0883574 -0 0 0.361595 0.061667 
-1.31491 5 0 0.0883574 -0 0 0.361595 0.061667 
-1.31491 5 0.099625 0.0883574 -0 0 0.361595 0.061667 
-1.3894 5 0.099625 0 0 0.0660651 0.329556 0.061667 
-1.3894 4.1131 0.099625 0 0 0.0660651 0.329556 0.061667 
-1.31491 4.1131 0.099625 0 0 0.0660651 0.329556 0.061667 
-1.3894 5 0.099625 -0 0 0.0660651 0.329556 0.061667 
-1.31491 4.1131 0.099625 -0 0 0.0660651 0.329556 0.061667 
-1.31491 5 0.099625 -0 0 0.0660651 0.329556 0.061667 
-1.3894 4.1131 0.076889 -0.0201646 0 0 0.269081 0.061667 
-1.3894 4.1131 0.099625 -0.0201646 0 0 0.269081 0.061667 
-1.3894 5 0.099625 -0.0201646 0 0 0.269081 0.061667 
-1.3894 4.1131 0.076889 -0.0201646 0 0 0.269081 0.061667 
-1.3894 5 0.099625 -0.0201646 0 0 0.269081 0.061667 
-1.3894 5 0.076889 -0.0201646 0 0 0.269081 0.061667 
-2.24042 5 0.076889 0 0 1.05161 0.57737 0.504958 
-2.24042 3.7643 0.076889 0 0 1.05161 0.57737 0.504245 
-1.3894 4.1131 0.076889 0 0 1.05161 0.64553 0.504446 
-2.24042 5 0.076889 -0 0 0.75477 0.57737 0.504958 
-1.3894 4.1131 0.076889 -0 0 0.75477 0.64553 0.504446 
-1.3894 5 0.076889 -0 0 0.75477 0.64553 0.504958 
-2.24042 5 0.099625 0.0280949 0 0 0.269081 0.061667 
-2.24042 3.7643 0.099625 0.0280949 0 0 0.269081 0.061667 
-2.24042 3.7643 0.076889 0.0280949 0 0 0.269081 0.061667 
-2.24042 5 0.099625 0.0280949 0 0 0.269081 0.061667 
-2.24042 3.7643 0.076889 0.0280949 0 0 0.269081 0.061667 
-2.24042 5 0.076889 0.0280949 0 0 0.269081 0.061667 
-2.31491 3.7643 0.099625 0 0 0.0920471 0.329556 0.061667 
-2.24042 3.7643 0.099625 0 0 0.0920471 0.329556 0.061667 
-2.24042 5 0.099625 0 0 0.0920471 0.329556 0.061667 
-2.31491 3.7643 0.099625 0 0 0.0920471 0.329556 0.061667 
-2.24042 5 0.099625 0 0 0.0920471 0.329556 0.061667 
-2.31491 5 0.099625 0 0 0.0920471 0.329556 0.061667 
-2.31491 5 0.099625 -0.123107 0 -0 0.361595 0.061667 
-2.31491 5 0 -0.123107 0 -0 0.361595 0.061667 
-2.31491 3.7643 0 -0.123107 0 -0 0.361595 0.061667 
-2.31491 5 0.099625 -0.123107 -0 0 0.361595 0.061667 
-2.31491 3.7643 0 -0.123107 -0 0 0.361595 0.061667 
-2.31491 3.7643 0.099625 -0.123107 -0 0 0.361595 0.061667 
8e-06 0.978907 0.099625 -0.0975236 0 -0 0.361595 0.061667 
8e-06 0.978907 0 -0.0975236 0 -0 0.361595 0.061667 
8e-06 0 0 -0.0975236 0 -0 0.361595 0.061667 
8e-06 0.978907 0.099625 -0.0975236 -0 0 0.361595 0.061667 
8e-06 0 0 -0.0975236 -0 0 0.361595 0.061667 
8e-06 0 0.099625 -0.0975236 -0 0 0.361595 0.061667 
8e-06 0 0.099625 0 0 0.0729217 0.329556 0.061667 
0.074501 0 0.099625 0 0 0.0729217 0.329556 0.061667 
0.074501 0.978907 0.099625 0 0 0.0729217 0.329556 0.061667 
8e-06 0 0.099625 0 0 0.0729217 0.329556 0.061667 
0.074501 0.978907 0.099625 0 0 0.0729217 0.329556 0.061667 
8e-06 0.978907 0.099625 0 0 0.0729217 0.329556 0.061667 
0.074501 0.978907 0.076889 0.0222564 0 -0 0.269081 0.061667 
0.074501 0.978907 0.099625 0.0222564 0 -0 0.269081 0.061667 
0.074501 0 0.099625 0.0222564 0 -0 0.269081 0.061667 
0.074501 0.978907 0.076889 0.0222564 0 0 0.269081 0.061667 
0.074501 0 0.099625 0.0222564 0 0 0.269081 0.061667 
0.074501 0 0.076889 0.0222564 0 0 0.269081 0.061667 
0.925514 1.32771 0.076889 0 0 0.833063 0.645541 0.502838 
0.074501 0.978907 0.076889 0 0 0.833063 0.577312 0.502637 
0.074501 0 0.076889 0 0 0.833063 0.577312 0.502072 
0.925514 1.32771 0.076889 0 0 1.1299 0.645541 0.502838 
0.074501 0 0.076889 0 0 1.1299 0.577312 0.502072 
0.925514 0 0.076889 0 0 1.1299 0.645541 0.502072 
0.925514 0 0.099625 -0.0301868 0 0 0.269081 0.061667 
0.925514 1.32771 0.099625 -0.0301868 0 0 0.269081 0.061667 
0.925514 1.32771 0.076889 -0.0301868 0 0 0.269081 0.061667 
0.925514 0 0.099625 -0.0301868 0 0 0.269081 0.061667 
0.925514 1.32771 0.076889 -0.0301868 0 0 0.269081 0.061667 
0.925514 0 0.076889 -0.0301868 0 0 0.269081 0.061667 
1.00001 1.32771 0.099625 0 0 0.0989091 0.329556 0.061667 
0.925514 1.32771 0.099625 0 0 0.0989091 0.329556 0.061667 
0.925514 0 0.099625 0 0 0.0989091 0.329556 0.061667 
1.00001 1.32771 0.099625 0 0 0.0989091 0.329556 0.061667 
0.925514 0 0.099625 0 0 0.0989091 0.329556 0.061667 
1.00001 0 0.099625 0 0 0.0989091 0.329556 0.061667 
1.00001 0 0.099625 0.132273 0 0 0.361595 0.061667 
1.00001 0 0 0.132273 0 0 0.361595 0.061667 
1.00001 1.32771 0 0.132273 0 0 0.361595 0.061667 
1.00001 0 0.099625 0.132273 -0 0 0.361595 0.061667 
1.00001 1.32771 0 0.132273 -0 0 0.361595 0.061667 
1.00001 1.32771 0.099625 0.132273 -0 0 0.361595 0.061667 
3 0 1 2
3 3 4 5
3 6 7 8
3 9 10 11
3 12 13 14
3 15 16 17
3 18 19 20
3 21 22 23
3 24 25 26
3 27 28 29
3 30 31 32
3 33 34 35
3 36 37 38
3 39 40 41
3 42 43 44
3 45 46 47
3 48 49 50
3 51 52 53
3 54 55 56
3 57 58 59
3 60 61 62
3 63 64 65
3 66 67 68
3 69 70 71
3 72 73 74
3 75 76 77
3 78 79 80
3 81 82 83
3 84 85 86
3 87 88 89
3 90 91 92
3 93 94 95
3 96 97 98
3 99 100 101
3 102 103 104
3 105 106 107
3 108 109 110
3 111 112 113
3 114 115 116
3 117 118 119
3 120 121 122
3 123 124 125
3 126 127 128
3 129 130 131
3 132 133 134
3 135 136 137
3 138 139 140
3 141 142 143
3 144 145 146
3 147 148 149
3 150 151 152
3 153 154 155
3 156 157 158
3 159 160 161
3 162 163 164
3 165 166 167
3 168 169 170
3 171 172 173
