ply
format ascii 1.0
comment Feeney's Flatenator generated
comment TextureFile SpaceInteriors_Texture.png
element vertex 318
property float x
property float y
property float z
property float nx
property float ny
property float nz
property float texture_u
property float texture_v
element face 106
property list uchar int vertex_indices
end_header
-4.89905 1.8744 -3.3985 0 0.0625293 0 0.267492 0.061667 
-4.89905 1.8744 -4.01791 0 0.0625293 0 0.267492 0.061667 
-5 1.8744 -4.01791 0 0.0625293 0 0.267492 0.061667 
-4.89905 1.8744 -3.3985 0 0.0625293 0 0.267492 0.061667 
-5 1.8744 -4.01791 0 0.0625293 0 0.267492 0.061667 
-5 1.8744 -3.3985 0 0.0625293 0 0.267492 0.061667 
-5 1.25498 -3.3985 0 -0.0625293 0 0.167607 0.061667 
-5 1.25498 -4.01791 0 -0.0625293 0 0.167607 0.061667 
-4.89905 1.25498 -4.01791 0 -0.0625293 0 0.167607 0.061667 
-5 1.25498 -3.3985 0 -0.0625293 0 0.167607 0.061667 
-4.89905 1.25498 -4.01791 0 -0.0625293 0 0.167607 0.061667 
-4.89905 1.25498 -3.3985 0 -0.0625293 0 0.167607 0.061667 
-4.89905 1.25498 -4.01791 0 0 -0.0625303 0.200588 0.061667 
-5 1.25498 -4.01791 0 0 -0.0625303 0.200588 0.061667 
-5 1.8744 -4.01791 0 0 -0.0625303 0.200588 0.061667 
-4.89905 1.25498 -4.01791 0 0 -0.0625303 0.200588 0.061667 
-5 1.8744 -4.01791 0 0 -0.0625303 0.200588 0.061667 
-4.89905 1.8744 -4.01791 0 0 -0.0625303 0.200588 0.061667 
-5 1.25498 -3.3985 0 0 0.0625303 0.200588 0.061667 
-4.89905 1.25498 -3.3985 0 0 0.0625303 0.200588 0.061667 
-4.89905 1.8744 -3.3985 0 0 0.0625303 0.200588 0.061667 
-5 1.25498 -3.3985 0 0 0.0625303 0.200588 0.061667 
-4.89905 1.8744 -3.3985 0 0 0.0625303 0.200588 0.061667 
-5 1.8744 -3.3985 0 0 0.0625303 0.200588 0.061667 
-4.89905 1.25498 -3.3985 0.0825488 -6.20251e-06 0 0.232626 0.061667 
-4.89905 1.25498 -4.01791 0.0825488 -6.20251e-06 0 0.232626 0.061667 
-4.89904 1.38825 -3.88464 0.0825488 -6.20251e-06 0 0.232626 0.061667 
-4.89905 1.25498 -3.3985 0.0470283 -3.53359e-06 0 0.232626 0.061667 
-4.89904 1.38825 -3.88464 0.0470283 -3.53359e-06 0 0.232626 0.061667 
-4.89904 1.38825 -3.53176 0.0470283 -3.53359e-06 0 0.232626 0.061667 
-4.89905 1.25498 -4.01791 0.0825501 0 -6.20261e-06 0.232626 0.061667 
-4.89905 1.8744 -4.01791 0.0825501 0 -6.20261e-06 0.232626 0.061667 
-4.89904 1.74113 -3.88464 0.0825501 0 -6.20261e-06 0.232626 0.061667 
-4.89905 1.25498 -4.01791 0.0470283 0 -3.53359e-06 0.232626 0.061667 
-4.89904 1.74113 -3.88464 0.0470283 0 -3.53359e-06 0.232626 0.061667 
-4.89904 1.38825 -3.88464 0.0470283 0 -3.53359e-06 0.232626 0.061667 
-4.89905 1.8744 -4.01791 0.0825488 6.20251e-06 -0 0.232626 0.061667 
-4.89905 1.8744 -3.3985 0.0825488 6.20251e-06 -0 0.232626 0.061667 
-4.89904 1.74113 -3.53176 0.0825488 6.20251e-06 -0 0.232626 0.061667 
-4.89905 1.8744 -4.01791 0.0470283 3.53359e-06 0 0.232626 0.061667 
-4.89904 1.74113 -3.53176 0.0470283 3.53359e-06 0 0.232626 0.061667 
-4.89904 1.74113 -3.88464 0.0470283 3.53359e-06 0 0.232626 0.061667 
-4.89905 1.8744 -3.3985 0.0825439 0 6.20261e-06 0.232626 0.061667 
-4.89905 1.25498 -3.3985 0.0825439 0 6.20261e-06 0.232626 0.061667 
-4.89904 1.38825 -3.53176 0.0825439 0 6.20261e-06 0.232626 0.061667 
-4.89905 1.8744 -3.3985 0.0470248 0 3.53359e-06 0.232626 0.061667 
-4.89904 1.38825 -3.53176 0.0470248 0 3.53359e-06 0.232626 0.061667 
-4.89904 1.74113 -3.53176 0.0470248 0 3.53359e-06 0.232626 0.061667 
-0.444763 0 0 0 0 0.0810251 0.232626 0.061667 
0 0 0 0 0 0.0810251 0.232626 0.061667 
0 0.182176 0 0 0 0.0810251 0.232626 0.061667 
-0.444763 0 0 0 0 0.0810251 0.232626 0.061667 
0 0.182176 0 0 0 0.0810251 0.232626 0.061667 
-0.444763 0.182176 0 0 0 0.0810251 0.232626 0.061667 
-0.444763 0.182176 -0.444765 0 0 -0.0810251 0.232626 0.061667 
0 0.182176 -0.444765 0 0 -0.0810251 0.232626 0.061667 
0 0 -0.444765 0 0 -0.0810251 0.232626 0.061667 
-0.444763 0.182176 -0.444765 0 0 -0.0810251 0.232626 0.061667 
0 0 -0.444765 0 0 -0.0810251 0.232626 0.061667 
-0.444763 0 -0.444765 0 0 -0.0810251 0.232626 0.061667 
-0.444763 0 -0.444765 0 -0.197815 0 0.167607 0.061667 
0 0 -0.444765 0 -0.197815 0 0.167607 0.061667 
0 0 0 0 -0.197815 0 0.167607 0.061667 
-0.444763 0 -0.444765 0 -0.197815 0 0.167607 0.061667 
0 0 0 0 -0.197815 0 0.167607 0.061667 
-0.444763 0 0 0 -0.197815 0 0.167607 0.061667 
0 0 0 0.0810255 0 0 0.200588 0.061667 
0 0 -0.444765 0.0810255 0 0 0.200588 0.061667 
0 0.182176 -0.444765 0.0810255 0 0 0.200588 0.061667 
0 0 0 0.0810255 -0 0 0.200588 0.061667 
0 0.182176 -0.444765 0.0810255 -0 0 0.200588 0.061667 
0 0.182176 0 0.0810255 -0 0 0.200588 0.061667 
-0.444763 0 -0.444765 -0.0810255 0 0 0.200588 0.061667 
-0.444763 0 0 -0.0810255 0 0 0.200588 0.061667 
-0.444763 0.182176 0 -0.0810255 0 0 0.200588 0.061667 
-0.444763 0 -0.444765 -0.0810255 0 0 0.200588 0.061667 
-0.444763 0.182176 0 -0.0810255 0 0 0.200588 0.061667 
-0.444763 0.182176 -0.444765 -0.0810255 0 0 0.200588 0.061667 
-0.444763 0.182176 0 -0 0.0404476 0 0.267492 0.061667 
0 0.182176 0 -0 0.0404476 0 0.267492 0.061667 
-0.09094 0.182176 -0.090942 -0 0.0404476 0 0.267492 0.061667 
-0.444763 0.182176 0 0 0.0239071 0 0.267492 0.061667 
-0.09094 0.182176 -0.090942 0 0.0239071 0 0.267492 0.061667 
-0.353823 0.182176 -0.090942 0 0.0239071 0 0.267492 0.061667 
0 0.182176 0 0 0.0404469 0 0.267492 0.061667 
0 0.182176 -0.444765 0 0.0404469 0 0.267492 0.061667 
-0.09094 0.182176 -0.353822 0 0.0404469 0 0.267492 0.061667 
0 0.182176 0 0 0.0239063 0 0.267492 0.061667 
-0.09094 0.182176 -0.353822 0 0.0239063 0 0.267492 0.061667 
-0.09094 0.182176 -0.090942 0 0.0239063 0 0.267492 0.061667 
0 0.182176 -0.444765 0 0.0404481 0 0.267492 0.061667 
-0.444763 0.182176 -0.444765 0 0.0404481 0 0.267492 0.061667 
-0.353823 0.182176 -0.353822 0 0.0404481 0 0.267492 0.061667 
0 0.182176 -0.444765 0 0.0239074 0 0.267492 0.061667 
-0.353823 0.182176 -0.353822 0 0.0239074 0 0.267492 0.061667 
-0.09094 0.182176 -0.353822 0 0.0239074 0 0.267492 0.061667 
-0.444763 0.182176 -0.444765 0 0.0404469 0 0.267492 0.061667 
-0.444763 0.182176 0 0 0.0404469 0 0.267492 0.061667 
-0.353823 0.182176 -0.090942 0 0.0404469 0 0.267492 0.061667 
-0.444763 0.182176 -0.444765 0 0.0239063 0 0.267492 0.061667 
-0.353823 0.182176 -0.090942 0 0.0239063 0 0.267492 0.061667 
-0.353823 0.182176 -0.353822 0 0.0239063 0 0.267492 0.061667 
-0.353823 0.182176 -0.090942 -0 0.0189292 0.0999421 0.202829 0.22105 
-0.09094 0.182176 -0.090942 -0 0.0189292 0.0999421 0.202829 0.22105 
-0.293041 0.562353 -0.162948 -0 0.0189292 0.0999421 0.202829 0.22105 
-0.353823 0.182176 -0.090942 -0.00912187 0.0113107 0.0520184 0.202829 0.22105 
-0.293041 0.562353 -0.162948 -0.00912187 0.0113107 0.0520184 0.202829 0.22105 
-0.46199 0.361437 -0.148888 -0.00912187 0.0113107 0.0520184 0.202829 0.22105 
-0.09094 0.182176 -0.090942 0.0834068 0.0389236 0 0.265046 0.22105 
-0.09094 0.182176 -0.353822 0.0834068 0.0389236 0 0.265046 0.22105 
-0.239006 0.499457 -0.412408 0.0834068 0.0389236 0 0.265046 0.22105 
-0.09094 0.182176 -0.090942 0.0993679 0.054307 0.00783151 0.265046 0.22105 
-0.239006 0.499457 -0.412408 0.0993679 0.054307 0.00783151 0.265046 0.22105 
-0.293041 0.562353 -0.162948 0.0993679 0.054307 0.00783151 0.265046 0.22105 
-0.09094 0.182176 -0.353822 -0 -0.0117046 -0.0305904 0.202829 0.22105 
-0.353823 0.182176 -0.353822 -0 -0.0117046 -0.0305904 0.202829 0.22105 
-0.407949 0.298541 -0.398346 -0 -0.0117046 -0.0305904 0.202829 0.22105 
-0.09094 0.182176 -0.353822 0.00730926 -0.0119798 -0.0833512 0.202829 0.22105 
-0.407949 0.298541 -0.398346 0.00730926 -0.0119798 -0.0833512 0.202829 0.22105 
-0.239006 0.499457 -0.412408 0.00730926 -0.0119798 -0.0833512 0.202829 0.22105 
-0.353823 0.182176 -0.353822 -0.0471241 -0.0284349 0 0.175737 0.22105 
-0.353823 0.182176 -0.090942 -0.0471241 -0.0284349 0 0.175737 0.22105 
-0.46199 0.361437 -0.148888 -0.0471241 -0.0284349 0 0.175737 0.22105 
-0.353823 0.182176 -0.353822 -0.0318286 -0.0159083 -0.00288417 0.175737 0.22105 
-0.46199 0.361437 -0.148888 -0.0318286 -0.0159083 -0.00288417 0.175737 0.22105 
-0.407949 0.298541 -0.398346 -0.0318286 -0.0159083 -0.00288417 0.175737 0.22105 
-0.46199 0.361437 -0.148888 -0.0307352 0.0328704 0.100392 0.202829 0.22105 
-0.293041 0.562353 -0.162948 -0.0307352 0.0328704 0.100392 0.202829 0.22105 
-0.779175 0.578454 -0.31705 -0.0307352 0.0328704 0.100392 0.202829 0.22105 
-0.46199 0.361437 -0.148888 -0.0490025 -0.0110529 0.0781638 0.202829 0.22105 
-0.779175 0.578454 -0.31705 -0.0490025 -0.0110529 0.0781638 0.202829 0.22105 
-0.757935 0.317492 -0.340636 -0.0490025 -0.0110529 0.0781638 0.202829 0.22105 
-0.293041 0.562353 -0.162948 0.0366276 0.124823 -0.0235376 0.265046 0.22105 
-0.239006 0.499457 -0.412408 0.0366276 0.124823 -0.0235376 0.265046 0.22105 
-0.705713 0.607099 -0.567827 0.0366276 0.124823 -0.0235376 0.265046 0.22105 
-0.293041 0.562353 -0.162948 -0.000376488 0.133232 0.0151081 0.265046 0.22105 
-0.705713 0.607099 -0.567827 -0.000376488 0.133232 0.0151081 0.265046 0.22105 
-0.779175 0.578454 -0.31705 -0.000376488 0.133232 0.0151081 0.265046 0.22105 
-0.239006 0.499457 -0.412408 0.0381205 -0.0365054 -0.0635994 0.202829 0.22105 
-0.407949 0.298541 -0.398346 0.0381205 -0.0365054 -0.0635994 0.202829 0.22105 
-0.684471 0.346141 -0.591411 0.0381205 -0.0365054 -0.0635994 0.202829 0.22105 
-0.239006 0.499457 -0.412408 0.0430965 0.0143082 -0.119504 0.202829 0.22105 
-0.684471 0.346141 -0.591411 0.0430965 0.0143082 -0.119504 0.202829 0.22105 
-0.705713 0.607099 -0.567827 0.0430965 0.0143082 -0.119504 0.202829 0.22105 
-0.407949 0.298541 -0.398346 -0.00109775 -0.0841881 0.0209886 0.175737 0.22105 
-0.46199 0.361437 -0.148888 -0.00109775 -0.0841881 0.0209886 0.175737 0.22105 
-0.757935 0.317492 -0.340636 -0.00109775 -0.0841881 0.0209886 0.175737 0.22105 
-0.407949 0.298541 -0.398346 -0.00640577 -0.0835281 -0.011419 0.175737 0.22105 
-0.757935 0.317492 -0.340636 -0.00640577 -0.0835281 -0.011419 0.175737 0.22105 
-0.684471 0.346141 -0.591411 -0.00640577 -0.0835281 -0.011419 0.175737 0.22105 
-0.757935 0.317492 -0.340636 -0.0376487 -0.0179177 0.164343 0.202829 0.22105 
-0.779175 0.578454 -0.31705 -0.0376487 -0.0179177 0.164343 0.202829 0.22105 
-1.38418 0.274341 -0.488805 -0.0376487 -0.0179177 0.164343 0.202829 0.22105 
-0.757935 0.317492 -0.340636 -0.0386149 -0.00292256 0.164059 0.202829 0.22105 
-1.38418 0.274341 -0.488805 -0.0386149 -0.00292256 0.164059 0.202829 0.22105 
-1.33861 0.015508 -0.48269 -0.0386149 -0.00292256 0.164059 0.202829 0.22105 
-0.779175 0.578454 -0.31705 -0.0860623 0.161464 -0.00676765 0.265046 0.22105 
-0.705713 0.607099 -0.567827 -0.0860623 0.161464 -0.00676765 0.265046 0.22105 
-1.29983 0.283311 -0.737622 -0.0860623 0.161464 -0.00676765 0.265046 0.22105 
-0.779175 0.578454 -0.31705 -0.0772092 0.165023 -0.020225 0.265046 0.22105 
-1.29983 0.283311 -0.737622 -0.0772092 0.165023 -0.020225 0.265046 0.22105 
-1.38418 0.274341 -0.488805 -0.0772092 0.165023 -0.020225 0.265046 0.22105 
-0.705713 0.607099 -0.567827 0.0289734 0.0164138 -0.155524 0.202829 0.22105 
-0.684471 0.346141 -0.591411 0.0289734 0.0164138 -0.155524 0.202829 0.22105 
-1.25426 0.02448 -0.731508 0.0289734 0.0164138 -0.155524 0.202829 0.22105 
-0.705713 0.607099 -0.567827 0.0459279 0.00410513 -0.168531 0.202829 0.22105 
-1.25426 0.02448 -0.731508 0.0459279 0.00410513 -0.168531 0.202829 0.22105 
-1.29983 0.283311 -0.737622 0.0459279 0.00410513 -0.168531 0.202829 0.22105 
-0.684471 0.346141 -0.591411 0.0797997 -0.156055 0.00554918 0.175737 0.22105 
-0.757935 0.317492 -0.340636 0.0797997 -0.156055 0.00554918 0.175737 0.22105 
-1.33861 0.015508 -0.48269 0.0797997 -0.156055 0.00554918 0.175737 0.22105 
-0.684471 0.346141 -0.591411 0.081292 -0.153591 0.02202 0.175737 0.22105 
-1.33861 0.015508 -0.48269 0.081292 -0.153591 0.02202 0.175737 0.22105 
-1.25426 0.02448 -0.731508 0.081292 -0.153591 0.02202 0.175737 0.22105 
-1.33861 0.015508 -0.48269 -0.255206 -0.0383127 0.280152 0.202829 0.22105 
-1.38418 0.274341 -0.488805 -0.255206 -0.0383127 0.280152 0.202829 0.22105 
-2.47077 0.298332 -1.47536 -0.255206 -0.0383127 0.280152 0.202829 0.22105 
-1.33861 0.015508 -0.48269 -0.261789 0.02282 0.305077 0.202829 0.22105 
-2.47077 0.298332 -1.47536 -0.261789 0.02282 0.305077 0.202829 0.22105 
-2.52153 0.041548 -1.49971 -0.261789 0.02282 0.305077 0.202829 0.22105 
-1.38418 0.274341 -0.488805 -0.0103862 0.317332 0.00791906 0.265046 0.22105 
-1.29983 0.283311 -0.737622 -0.0103862 0.317332 0.00791906 0.265046 0.22105 
-2.26869 0.274163 -1.64175 -0.0103862 0.317332 0.00791906 0.265046 0.22105 
-1.38418 0.274341 -0.488805 0.0278359 0.380161 -0.0214137 0.265046 0.22105 
-2.26869 0.274163 -1.64175 0.0278359 0.380161 -0.0214137 0.265046 0.22105 
-2.47077 0.298332 -1.47536 0.0278359 0.380161 -0.0214137 0.265046 0.22105 
-1.29983 0.283311 -0.737622 0.241947 0.0360772 -0.27603 0.202829 0.22105 
-1.25426 0.02448 -0.731508 0.241947 0.0360772 -0.27603 0.202829 0.22105 
-2.31946 0.017381 -1.66611 0.241947 0.0360772 -0.27603 0.202829 0.22105 
-1.29983 0.283311 -0.737622 0.231941 -0.0223009 -0.248321 0.202829 0.22105 
-2.31946 0.017381 -1.66611 0.231941 -0.0223009 -0.248321 0.202829 0.22105 
-2.26869 0.274163 -1.64175 0.231941 -0.0223009 -0.248321 0.202829 0.22105 
-1.25426 0.02448 -0.731508 0.00264548 -0.380118 -0.0128096 0.175737 0.22105 
-1.33861 0.015508 -0.48269 0.00264548 -0.380118 -0.0128096 0.175737 0.22105 
-2.52153 0.041548 -1.49971 0.00264548 -0.380118 -0.0128096 0.175737 0.22105 
-1.25426 0.02448 -0.731508 -0.0214053 -0.366104 0.0271772 0.175737 0.22105 
-2.52153 0.041548 -1.49971 -0.0214053 -0.366104 0.0271772 0.175737 0.22105 
-2.31946 0.017381 -1.66611 -0.0214053 -0.366104 0.0271772 0.175737 0.22105 
-2.52153 0.041548 -1.49971 -0.345794 0.0564754 0.125279 0.202829 0.22105 
-2.47077 0.298332 -1.47536 -0.345794 0.0564754 0.125279 0.202829 0.22105 
-2.96087 0.287086 -2.82306 -0.345794 0.0564754 0.125279 0.202829 0.22105 
-2.52153 0.041548 -1.49971 -0.350077 0.0315391 0.122074 0.202829 0.22105 
-2.96087 0.287086 -2.82306 -0.350077 0.0315391 0.122074 0.202829 0.22105 
-2.99858 0.030303 -2.86486 -0.350077 0.0315391 0.122074 0.202829 0.22105 
-2.47077 0.298332 -1.47536 0.0285452 0.327868 -0.0129565 0.265046 0.22105 
-2.26869 0.274163 -1.64175 0.0285452 0.327868 -0.0129565 0.265046 0.22105 
-2.71074 0.262917 -2.90024 0.0285452 0.327868 -0.0129565 0.265046 0.22105 
-2.47077 0.298332 -1.47536 0.0317046 0.374926 -0.0146582 0.265046 0.22105 
-2.71074 0.262917 -2.90024 0.0317046 0.374926 -0.0146582 0.265046 0.22105 
-2.96087 0.287086 -2.82306 0.0317046 0.374926 -0.0146582 0.265046 0.22105 
-2.26869 0.274163 -1.64175 0.327364 -0.054329 -0.109586 0.202829 0.22105 
-2.31946 0.017381 -1.66611 0.327364 -0.054329 -0.109586 0.202829 0.22105 
-2.74845 0.006135 -2.94205 0.327364 -0.054329 -0.109586 0.202829 0.22105 
-2.26869 0.274163 -1.64175 0.322687 -0.0289755 -0.113086 0.202829 0.22105 
-2.74845 0.006135 -2.94205 0.322687 -0.0289755 -0.113086 0.202829 0.22105 
-2.71074 0.262917 -2.90024 0.322687 -0.0289755 -0.113086 0.202829 0.22105 
-2.31946 0.017381 -1.66611 -0.0311204 -0.355237 0.0138011 0.175737 0.22105 
-2.52153 0.041548 -1.49971 -0.0311204 -0.355237 0.0138011 0.175737 0.22105 
-2.99858 0.030303 -2.86486 -0.0311204 -0.355237 0.0138011 0.175737 0.22105 
-2.31946 0.017381 -1.66611 -0.0299688 -0.352264 0.0131808 0.175737 0.22105 
-2.99858 0.030303 -2.86486 -0.0299688 -0.352264 0.0131808 0.175737 0.22105 
-2.74845 0.006135 -2.94205 -0.0299688 -0.352264 0.0131808 0.175737 0.22105 
-2.99858 0.030303 -2.86486 -0.165704 -0.00813 0.199433 0.202829 0.22105 
-2.96087 0.287086 -2.82306 -0.165704 -0.00813 0.199433 0.202829 0.22105 
-3.72458 0.375277 -3.45401 -0.165704 -0.00813 0.199433 0.202829 0.22105 
-2.99858 0.030303 -2.86486 -0.15273 0.0300329 0.205792 0.202829 0.22105 
-3.72458 0.375277 -3.45401 -0.15273 0.0300329 0.205792 0.202829 0.22105 
-3.78072 0.118493 -3.4582 -0.15273 0.0300329 0.205792 0.202829 0.22105 
-2.96087 0.287086 -2.82306 0.0257145 0.264081 0.000639919 0.265046 0.22105 
-2.71074 0.262917 -2.90024 0.0257145 0.264081 0.000639919 0.265046 0.22105 
-3.59697 0.351108 -3.68256 0.0257145 0.264081 0.000639919 0.265046 0.22105 
-2.96087 0.287086 -2.82306 0.0354055 0.255061 -0.00720406 0.265046 0.22105 
-3.59697 0.351108 -3.68256 0.0354055 0.255061 -0.00720406 0.265046 0.22105 
-3.72458 0.375277 -3.45401 0.0354055 0.255061 -0.00720406 0.265046 0.22105 
-2.71074 0.262917 -2.90024 0.194915 0.00974131 -0.235629 0.202829 0.22105 
-2.74845 0.006135 -2.94205 0.194915 0.00974131 -0.235629 0.202829 0.22105 
-3.65312 0.094326 -3.68676 0.194915 0.00974131 -0.235629 0.202829 0.22105 
-2.71074 0.262917 -2.90024 0.201256 -0.0402051 -0.23252 0.202829 0.22105 
-3.65312 0.094326 -3.68676 0.201256 -0.0402051 -0.23252 0.202829 0.22105 
-3.59697 0.351108 -3.68256 0.201256 -0.0402051 -0.23252 0.202829 0.22105 
-2.74845 0.006135 -2.94205 -0.0211472 -0.208785 -0.0031562 0.175737 0.22105 
-2.99858 0.030303 -2.86486 -0.0211472 -0.208785 -0.0031562 0.175737 0.22105 
-3.78072 0.118493 -3.4582 -0.0211472 -0.208785 -0.0031562 0.175737 0.22105 
-2.74845 0.006135 -2.94205 -0.0381543 -0.301796 0.01061 0.175737 0.22105 
-3.78072 0.118493 -3.4582 -0.0381543 -0.301796 0.01061 0.175737 0.22105 
-3.65312 0.094326 -3.68676 -0.0381543 -0.301796 0.01061 0.175737 0.22105 
-3.78072 0.118493 -3.4582 -0.0409006 0.00643972 0.153353 0.202829 0.22105 
-3.72458 0.375277 -3.45401 -0.0409006 0.00643972 0.153353 0.202829 0.22105 
-4.23201 0.785909 -3.60659 -0.0409006 0.00643972 0.153353 0.202829 0.22105 
-3.78072 0.118493 -3.4582 -0.0145417 0.03267 0.191165 0.202829 0.22105 
-4.23201 0.785909 -3.60659 -0.0145417 0.03267 0.191165 0.202829 0.22105 
-4.36714 0.562156 -3.57863 -0.0145417 0.03267 0.191165 0.202829 0.22105 
-3.72458 0.375277 -3.45401 0.0995691 0.174041 0.0371893 0.265046 0.22105 
-3.59697 0.351108 -3.68256 0.0995691 0.174041 0.0371893 0.265046 0.22105 
-4.25505 0.767176 -3.86779 0.0995691 0.174041 0.0371893 0.265046 0.22105 
-3.72458 0.375277 -3.45401 0.110115 0.129025 -0.0189668 0.265046 0.22105 
-4.25505 0.767176 -3.86779 0.110115 0.129025 -0.0189668 0.265046 0.22105 
-4.23201 0.785909 -3.60659 0.110115 0.129025 -0.0189668 0.265046 0.22105 
-3.59697 0.351108 -3.68256 0.0411893 -0.00549867 -0.214481 0.202829 0.22105 
-3.65312 0.094326 -3.68676 0.0411893 -0.00549867 -0.214481 0.202829 0.22105 
-4.39018 0.543425 -3.83982 0.0411893 -0.00549867 -0.214481 0.202829 0.22105 
-3.59697 0.351108 -3.68256 0.0298079 -0.0434367 -0.203469 0.202829 0.22105 
-4.39018 0.543425 -3.83982 0.0298079 -0.0434367 -0.203469 0.202829 0.22105 
-4.25505 0.767176 -3.86779 0.0298079 -0.0434367 -0.203469 0.202829 0.22105 
-3.65312 0.094326 -3.68676 -0.104314 -0.149399 -0.0424394 0.175737 0.22105 
-3.78072 0.118493 -3.4582 -0.104314 -0.149399 -0.0424394 0.175737 0.22105 
-4.36714 0.562156 -3.57863 -0.104314 -0.149399 -0.0424394 0.175737 0.22105 
-3.65312 0.094326 -3.68676 -0.120167 -0.188986 0.0241532 0.175737 0.22105 
-4.36714 0.562156 -3.57863 -0.120167 -0.188986 0.0241532 0.175737 0.22105 
-4.39018 0.543425 -3.83982 -0.120167 -0.188986 0.0241532 0.175737 0.22105 
-4.36714 0.562156 -3.57863 0.0216189 0.00307448 0.129087 0.202829 0.22105 
-4.23201 0.785909 -3.60659 0.0216189 0.00307448 0.129087 0.202829 0.22105 
-4.40475 1.45516 -3.5936 0.0216189 0.00307448 0.129087 0.202829 0.22105 
-4.36714 0.562156 -3.57863 0.0249773 0.00472333 0.219008 0.202829 0.22105 
-4.40475 1.45516 -3.5936 0.0249773 0.00472333 0.219008 0.202829 0.22105 
-4.64334 1.29707 -3.56298 0.0249773 0.00472333 0.219008 0.202829 0.22105 
-4.23201 0.785909 -3.60659 0.177904 0.0470779 -0.0190692 0.265046 0.22105 
-4.25505 0.767176 -3.86779 0.177904 0.0470779 -0.0190692 0.265046 0.22105 
-4.43633 1.44743 -3.87961 0.177904 0.0470779 -0.0190692 0.265046 0.22105 
-4.23201 0.785909 -3.60659 0.191312 0.0498156 -0.0224702 0.265046 0.22105 
-4.43633 1.44743 -3.87961 0.191312 0.0498156 -0.0224702 0.265046 0.22105 
-4.40475 1.45516 -3.5936 0.191312 0.0498156 -0.0224702 0.265046 0.22105 
-4.25505 0.767176 -3.86779 -0.0188134 -0.00920199 -0.164505 0.202829 0.22105 
-4.39018 0.543425 -3.83982 -0.0188134 -0.00920199 -0.164505 0.202829 0.22105 
-4.67492 1.28933 -3.84898 -0.0188134 -0.00920199 -0.164505 0.202829 0.22105 
-4.25505 0.767176 -3.86779 -0.0189675 -0.00837277 -0.190962 0.202829 0.22105 
-4.67492 1.28933 -3.84898 -0.0189675 -0.00837277 -0.190962 0.202829 0.22105 
-4.43633 1.44743 -3.87961 -0.0189675 -0.00837277 -0.190962 0.202829 0.22105 
-4.39018 0.543425 -3.83982 -0.191659 -0.0725013 0.0221061 0.175737 0.22105 
-4.36714 0.562156 -3.57863 -0.191659 -0.0725013 0.0221061 0.175737 0.22105 
-4.64334 1.29707 -3.56298 -0.191659 -0.0725013 0.0221061 0.175737 0.22105 
-4.39018 0.543425 -3.83982 -0.2134 -0.0811464 0.0257595 0.175737 0.22105 
-4.64334 1.29707 -3.56298 -0.2134 -0.0811464 0.0257595 0.175737 0.22105 
-4.67492 1.28933 -3.84898 -0.2134 -0.0811464 0.0257595 0.175737 0.22105 
-4.64334 1.29707 -3.56298 0.0185327 0.000380785 0.146372 0.202829 0.22105 
-4.40475 1.45516 -3.5936 0.0185327 0.000380785 0.146372 0.202829 0.22105 
-4.89904 1.74113 -3.53176 0.0185327 0.000380785 0.146372 0.202829 0.22105 
-4.64334 1.29707 -3.56298 0.0110169 0 0.0902315 0.202829 0.22105 
-4.89904 1.74113 -3.53176 0.0110169 0 0.0902315 0.202829 0.22105 
-4.89904 1.38825 -3.53176 0.0110169 0 0.0902315 0.202829 0.22105 
-4.40475 1.45516 -3.5936 0.08404 0.132181 -0.0128518 0.265046 0.22105 
-4.43633 1.44743 -3.87961 0.08404 0.132181 -0.0128518 0.265046 0.22105 
-4.89904 1.74113 -3.88464 0.08404 0.132181 -0.0128518 0.265046 0.22105 
-4.40475 1.45516 -3.5936 0.100913 0.174425 0 0.265046 0.22105 
-4.89904 1.74113 -3.88464 0.100913 0.174425 0 0.265046 0.22105 
-4.89904 1.74113 -3.53176 0.100913 0.174425 0 0.265046 0.22105 
-4.43633 1.44743 -3.87961 0.00260792 -0.015373 -0.0590347 0.202829 0.22105 
-4.67492 1.28933 -3.84898 0.00260792 -0.015373 -0.0590347 0.202829 0.22105 
-4.89904 1.38825 -3.88464 0.00260792 -0.015373 -0.0590347 0.202829 0.22105 
-4.43633 1.44743 -3.87961 0.00177496 0 -0.163281 0.202829 0.22105 
-4.89904 1.38825 -3.88464 0.00177496 0 -0.163281 0.202829 0.22105 
-4.89904 1.74113 -3.88464 0.00177496 0 -0.163281 0.202829 0.22105 
-4.67492 1.28933 -3.84898 -0.0258358 -0.0741162 0.00485859 0.175737 0.22105 
-4.64334 1.29707 -3.56298 -0.0258358 -0.0741162 0.00485859 0.175737 0.22105 
-4.89904 1.38825 -3.53176 -0.0258358 -0.0741162 0.00485859 0.175737 0.22105 
-4.67492 1.28933 -3.84898 -0.0349069 -0.0790875 0 0.175737 0.22105 
-4.89904 1.38825 -3.53176 -0.0349069 -0.0790875 0 0.175737 0.22105 
-4.89904 1.38825 -3.88464 -0.0349069 -0.0790875 0 0.175737 0.22105 
3 0 1 2
3 3 4 5
3 6 7 8
3 9 10 11
3 12 13 14
3 15 16 17
3 18 19 20
3 21 22 23
3 24 25 26
3 27 28 29
3 30 31 32
3 33 34 35
3 36 37 38
3 39 40 41
3 42 43 44
3 45 46 47
3 48 49 50
3 51 52 53
3 54 55 56
3 57 58 59
3 60 61 62
3 63 64 65
3 66 67 68
3 69 70 71
3 72 73 74
3 75 76 77
3 78 79 80
3 81 82 83
3 84 85 86
3 87 88 89
3 90 91 92
3 93 94 95
3 96 97 98
3 99 100 101
3 102 103 104
3 105 106 107
3 108 109 110
3 111 112 113
3 114 115 116
3 117 118 119
3 120 121 122
3 123 124 125
3 126 127 128
3 129 130 131
3 132 133 134
3 135 136 137
3 138 139 140
3 141 142 143
3 144 145 146
3 147 148 149
3 150 151 152
3 153 154 155
3 156 157 158
3 159 160 161
3 162 163 164
3 165 166 167
3 168 169 170
3 171 172 173
3 174 175 176
3 177 178 179
3 180 181 182
3 183 184 185
3 186 187 188
3 189 190 191
3 192 193 194
3 195 196 197
3 198 199 200
3 201 202 203
3 204 205 206
3 207 208 209
3 210 211 212
3 213 214 215
3 216 217 218
3 219 220 221
3 222 223 224
3 225 226 227
3 228 229 230
3 231 232 233
3 234 235 236
3 237 238 239
3 240 241 242
3 243 244 245
3 246 247 248
3 249 250 251
3 252 253 254
3 255 256 257
3 258 259 260
3 261 262 263
3 264 265 266
3 267 268 269
3 270 271 272
3 273 274 275
3 276 277 278
3 279 280 281
3 282 283 284
3 285 286 287
3 288 289 290
3 291 292 293
3 294 295 296
3 297 298 299
3 300 301 302
3 303 304 305
3 306 307 308
3 309 310 311
3 312 313 314
3 315 316 317
