ply
format ascii 1.0
comment Feeney's Flatenator generated
comment TextureFile SpaceInteriors_Texture.png
element vertex 48
property float x
property float y
property float z
property float nx
property float ny
property float nz
property uchar red
property uchar green
property uchar blue
property uchar alpha
property float texture_u
property float texture_v
element face 16
property list uchar int vertex_indices
end_header
-1.63282 0.999063 1.00236 0.482803 0.617945 0.482471 108 105 102 255 0.759359 0.701777 
-1.01714 0.522638 0.996457 0.482803 0.617945 0.482471 143 136 130 255 0.788052 0.635503 
0 0.519194 -0.016974 0.482803 0.617945 0.482471 143 136 130 255 0.881786 0.635024 
-1.63282 0.999063 1.00236 0.783923 0.999768 0.78507 108 105 102 255 0.759359 0.701777 
0 0.519194 -0.016974 0.783923 0.999768 0.78507 143 136 130 255 0.881786 0.635024 
0 1 -0.629269 0.783923 0.999768 0.78507 108 105 102 255 0.91005 0.701908 
-1.63282 0.999063 1.00236 -0.000347368 0.605335 0 125 121 118 255 0.300052 0.061667 
0 1 -0.629269 -0.000347368 0.605335 0 125 121 118 255 0.300052 0.061667 
0 1 -0.999999 -0.000347368 0.605335 0 125 121 118 255 0.300052 0.061667 
-1.63282 0.999063 1.00236 -0.00529166 0.737788 -0.00396983 125 121 118 255 0.300052 0.061667 
0 1 -0.999999 -0.00529166 0.737788 -0.00396983 125 121 118 255 0.300052 0.061667 
-2.00353 0.996419 1.00512 -0.00529166 0.737788 -0.00396983 125 121 118 255 0.300052 0.061667 
-2.00353 0.996419 1.00512 -2.00512 0 -2.00353 108 105 102 255 0.265187 0.061667 
0 1 -0.999999 -2.00512 0 -2.00353 108 105 102 255 0.265187 0.061667 
0 0 -0.999999 -2.00512 0 -2.00353 108 105 102 255 0.265187 0.061667 
-2.00353 0.996419 1.00512 -2.00228 -0.00866636 -1.99639 108 105 102 255 0.265187 0.061667 
0 0 -0.999999 -2.00228 -0.00866636 -1.99639 108 105 102 255 0.265187 0.061667 
-1.99642 -0.003551 1.00233 -2.00228 -0.00866636 -1.99639 108 105 102 255 0.265187 0.061667 
-1.99642 -0.003551 1.00233 0.00387818 -0.00142289 0.519179 91 88 86 255 0.233148 0.061667 
-0.99647 0.003581 0.99488 0.00387818 -0.00142289 0.519179 91 88 86 255 0.233148 0.061667 
-1.01714 0.522638 0.996457 0.00387818 -0.00142289 0.519179 91 88 86 255 0.233148 0.061667 
-1.99642 -0.003551 1.00233 0.00590412 -0.00216483 0.790518 91 88 86 255 0.233148 0.061667 
-1.01714 0.522638 0.996457 0.00590412 -0.00216483 0.790518 91 88 86 255 0.233148 0.061667 
-1.63282 0.999063 1.00236 0.00590412 -0.00216483 0.790518 91 88 86 255 0.233148 0.061667 
-1.99642 -0.003551 1.00233 0.00276735 -0.00101469 0.370718 91 88 86 255 0.233148 0.061667 
-1.63282 0.999063 1.00236 0.00276735 -0.00101469 0.370718 91 88 86 255 0.233148 0.061667 
-2.00353 0.996419 1.00512 0.00276735 -0.00101469 0.370718 91 88 86 255 0.233148 0.061667 
-0.99647 0.003581 0.99488 0.516596 0.0169141 0.517361 108 105 102 255 0.265187 0.061667 
0 0 0 0.516596 0.0169141 0.517361 108 105 102 255 0.265187 0.061667 
0 0.519194 -0.016974 0.516596 0.0169141 0.517361 108 105 102 255 0.265187 0.061667 
-0.99647 0.003581 0.99488 0.526023 0.0193437 0.527882 108 105 102 255 0.265187 0.061667 
0 0.519194 -0.016974 0.526023 0.0193437 0.527882 108 105 102 255 0.265187 0.061667 
-1.01714 0.522638 0.996457 0.526023 0.0193437 0.527882 108 105 102 255 0.265187 0.061667 
-1.99642 -0.003551 1.00233 0.003551 -1.99642 0 75 72 70 255 0.200168 0.061667 
0 0 -0.999999 0.003551 -1.99642 0 75 72 70 255 0.200168 0.061667 
0 0 0 0.003551 -1.99642 0 75 72 70 255 0.200168 0.061667 
-1.99642 -0.003551 1.00233 0.00712216 -0.987407 0.0106876 75 72 70 255 0.200168 0.061667 
0 0 0 0.00712216 -0.987407 0.0106876 75 72 70 255 0.200168 0.061667 
-0.99647 0.003581 0.99488 0.00712216 -0.987407 0.0106876 75 72 70 255 0.200168 0.061667 
0 0 0 0.999999 0 0 91 88 86 255 0.234998 0.059727 
0 0 -0.999999 0.999999 0 0 91 88 86 255 0.234998 0.059727 
0 1 -0.999999 0.999999 0 0 91 88 86 255 0.234998 0.059727 
0 0 0 0.37073 0 0 91 88 86 255 0.234998 0.059727 
0 1 -0.999999 0.37073 0 0 91 88 86 255 0.234998 0.059727 
0 1 -0.629269 0.37073 0 0 91 88 86 255 0.234998 0.059727 
0 0 0 0.309739 0 0 91 88 86 255 0.234998 0.059727 
0 1 -0.629269 0.309739 0 0 91 88 86 255 0.234998 0.059727 
0 0.519194 -0.016974 0.309739 0 0 91 88 86 255 0.234998 0.059727 
3 0 1 2
3 3 4 5
3 6 7 8
3 9 10 11
3 12 13 14
3 15 16 17
3 18 19 20
3 21 22 23
3 24 25 26
3 27 28 29
3 30 31 32
3 33 34 35
3 36 37 38
3 39 40 41
3 42 43 44
3 45 46 47
