ply
format ascii 1.0
comment Feeney's Flatenator generated
comment TextureFile SpaceInteriors_Texture.png
element vertex 204
property float x
property float y
property float z
property float nx
property float ny
property float nz
property uchar red
property uchar green
property uchar blue
property uchar alpha
element face 68
property list uchar int vertex_indices
end_header
0.313341 0.211131 0.764502 -0 0 0.38931 121 131 134 255 
0.534798 0 0.764502 -0 0 0.38931 121 131 134 255 
0.534798 1.75795 0.764502 -0 0 0.38931 121 131 134 255 
0.313341 0.211131 0.764502 0 0 0.342554 121 131 134 255 
0.534798 1.75795 0.764502 0 0 0.342554 121 131 134 255 
0.313341 1.75795 0.764502 0 0 0.342554 121 131 134 255 
-0.534798 1.75795 0.764502 -0 0.0582707 0 128 139 142 255 
-0.31334 1.75795 0.764502 -0 0.0582707 0 128 139 142 255 
-0.31334 1.75795 0.501379 -0 0.0582707 0 128 139 142 255 
-0.534798 1.75795 0.764502 0 0.362101 0 128 139 142 255 
-0.31334 1.75795 0.501379 0 0.362101 0 128 139 142 255 
-0.534798 1.75795 -0.870577 0 0.362101 0 128 139 142 255 
-0.534798 0 -0.870577 0 0 -1.8803 121 131 134 255 
-0.534798 1.75795 -0.870577 0 0 -1.8803 121 131 134 255 
0.534798 1.75795 -0.870577 0 0 -1.8803 121 131 134 255 
-0.534798 0 -0.870577 0 0 -1.8803 121 131 134 255 
0.534798 1.75795 -0.870577 0 0 -1.8803 121 131 134 255 
0.534798 0 -0.870577 0 0 -1.8803 121 131 134 255 
0.534798 0 0.764502 -0 -1.74887 0 112 122 125 255 
-0.534798 0 0.764502 -0 -1.74887 0 112 122 125 255 
-0.534798 0 -0.870577 -0 -1.74887 0 112 122 125 255 
0.534798 0 0.764502 0 -1.74887 -0 112 122 125 255 
-0.534798 0 -0.870577 0 -1.74887 -0 112 122 125 255 
0.534798 0 -0.870577 0 -1.74887 -0 112 122 125 255 
0.534798 1.61988 -0.742158 2.0423 0 -0 128 139 142 255 
0.534798 1.61988 0.636083 2.0423 0 -0 128 139 142 255 
0.534798 0.138067 0.636083 2.0423 0 -0 128 139 142 255 
0.534798 1.61988 -0.742158 2.0423 0 0 128 139 142 255 
0.534798 0.138067 0.636083 2.0423 0 0 128 139 142 255 
0.534798 0.138067 -0.742158 2.0423 0 0 128 139 142 255 
-0.534798 0.138067 0.636083 -2.0423 0 0 128 139 142 255 
-0.534798 1.61988 0.636083 -2.0423 0 0 128 139 142 255 
-0.534798 1.61988 -0.742158 -2.0423 0 0 128 139 142 255 
-0.534798 0.138067 0.636083 -2.0423 0 0 128 139 142 255 
-0.534798 1.61988 -0.742158 -2.0423 0 0 128 139 142 255 
-0.534798 0.138067 -0.742158 -2.0423 0 0 128 139 142 255 
-0.31334 1.86402 0.870577 -0 0.231369 0 69 69 69 255 
0.313341 1.86402 0.870577 -0 0.231369 0 69 69 69 255 
0.313341 1.86402 0.501379 -0 0.231369 0 69 69 69 255 
-0.31334 1.86402 0.870577 0 0.231369 0 69 69 69 255 
0.313341 1.86402 0.501379 0 0.231369 0 69 69 69 255 
-0.31334 1.86402 0.501379 0 0.231369 0 69 69 69 255 
-0.185396 1.7502 0.870577 0 0 0.259948 26 87 129 255 
-0.185396 1.04914 0.870577 0 0 0.259948 26 87 129 255 
0.185397 1.04914 0.870577 0 0 0.259948 26 87 129 255 
-0.185396 1.7502 0.870577 -0 0 0.259948 26 87 129 255 
0.185397 1.04914 0.870577 -0 0 0.259948 26 87 129 255 
0.185397 1.7502 0.870577 -0 0 0.259948 26 87 129 255 
0.313341 1.75795 0.764502 0.0279095 0 0 35 35 35 255 
0.313341 1.75795 0.501379 0.0279095 0 0 35 35 35 255 
0.313341 1.86402 0.501379 0.0279095 0 0 35 35 35 255 
0.313341 1.75795 0.764502 0.0391608 -0 0 35 35 35 255 
0.313341 1.86402 0.501379 0.0391608 -0 0 35 35 35 255 
0.313341 1.86402 0.870577 0.0391608 -0 0 35 35 35 255 
0.313341 1.75795 0.501379 0 0 -0.0664721 52 52 52 255 
-0.31334 1.75795 0.501379 0 0 -0.0664721 52 52 52 255 
-0.31334 1.86402 0.501379 0 0 -0.0664721 52 52 52 255 
0.313341 1.75795 0.501379 0 0 -0.0664721 52 52 52 255 
-0.31334 1.86402 0.501379 0 0 -0.0664721 52 52 52 255 
0.313341 1.86402 0.501379 0 0 -0.0664721 52 52 52 255 
-0.31334 1.75795 0.501379 -0.0279095 0 0 35 35 35 255 
-0.31334 1.75795 0.764502 -0.0279095 0 0 35 35 35 255 
-0.31334 1.86402 0.870577 -0.0279095 0 0 35 35 35 255 
-0.31334 1.75795 0.501379 -0.0391608 0 0 35 35 35 255 
-0.31334 1.86402 0.870577 -0.0391608 0 0 35 35 35 255 
-0.31334 1.86402 0.501379 -0.0391608 0 0 35 35 35 255 
-0.31334 1.75795 0.764502 -0.164079 0 0 35 35 35 255 
-0.31334 0.211131 0.764502 -0.164079 0 0 35 35 35 255 
-0.31334 0.211131 0.870577 -0.164079 0 0 35 35 35 255 
-0.31334 1.75795 0.764502 -0.17533 0 0 35 35 35 255 
-0.31334 0.211131 0.870577 -0.17533 0 0 35 35 35 255 
-0.31334 1.86402 0.870577 -0.17533 0 0 35 35 35 255 
-0.31334 0.211131 0.764502 0 -0.0664752 0 35 35 35 255 
0.313341 0.211131 0.764502 0 -0.0664752 0 35 35 35 255 
0.313341 0.211131 0.870577 0 -0.0664752 0 35 35 35 255 
-0.31334 0.211131 0.764502 0 -0.0664752 0 35 35 35 255 
0.313341 0.211131 0.870577 0 -0.0664752 0 35 35 35 255 
-0.31334 0.211131 0.870577 0 -0.0664752 0 35 35 35 255 
0.313341 0.211131 0.764502 0.164079 0 0 35 35 35 255 
0.313341 1.75795 0.764502 0.164079 0 0 35 35 35 255 
0.313341 1.86402 0.870577 0.164079 0 0 35 35 35 255 
0.313341 0.211131 0.764502 0.17533 0 0 35 35 35 255 
0.313341 1.86402 0.870577 0.17533 0 0 35 35 35 255 
0.313341 0.211131 0.870577 0.17533 0 0 35 35 35 255 
-0.31334 1.86402 0.870577 0 0 0.211477 52 52 52 255 
-0.31334 0.211131 0.870577 0 0 0.211477 52 52 52 255 
-0.185396 1.04914 0.870577 0 0 0.211477 52 52 52 255 
-0.31334 1.86402 0.870577 0 0 0.0896964 52 52 52 255 
-0.185396 1.04914 0.870577 0 0 0.0896964 52 52 52 255 
-0.185396 1.7502 0.870577 0 0 0.0896964 52 52 52 255 
0.074933 0.901932 0.870577 0 0 0.00680869 156 49 49 255 
0.164716 0.901932 0.870577 0 0 0.00680869 156 49 49 255 
0.164716 0.977767 0.870577 0 0 0.00680869 156 49 49 255 
0.074933 0.901932 0.870577 0 0 0.00680869 156 49 49 255 
0.164716 0.977767 0.870577 0 0 0.00680869 156 49 49 255 
0.074933 0.977767 0.870577 0 0 0.00680869 156 49 49 255 
0.313341 0.211131 0.870577 0 -0 0.211477 52 52 52 255 
0.313341 1.86402 0.870577 0 -0 0.211477 52 52 52 255 
0.185397 1.7502 0.870577 0 -0 0.211477 52 52 52 255 
0.313341 0.211131 0.870577 0 0 0.0896964 52 52 52 255 
0.185397 1.7502 0.870577 0 0 0.0896964 52 52 52 255 
0.185397 1.04914 0.870577 0 0 0.0896964 52 52 52 255 
0.313341 1.86402 0.870577 0 0 0.0713288 52 52 52 255 
-0.31334 1.86402 0.870577 0 0 0.0713288 52 52 52 255 
-0.185396 1.7502 0.870577 0 0 0.0713288 52 52 52 255 
0.313341 1.86402 0.870577 0 0 0.0422036 52 52 52 255 
-0.185396 1.7502 0.870577 0 0 0.0422036 52 52 52 255 
0.185397 1.7502 0.870577 0 0 0.0422036 52 52 52 255 
-0.31334 0.211131 0.764502 0 -0 0.342555 121 131 134 255 
-0.31334 1.75795 0.764502 0 -0 0.342555 121 131 134 255 
-0.534798 1.75795 0.764502 0 -0 0.342555 121 131 134 255 
-0.31334 0.211131 0.764502 0 0 0.389312 121 131 134 255 
-0.534798 1.75795 0.764502 0 0 0.389312 121 131 134 255 
-0.534798 0 0.764502 0 0 0.389312 121 131 134 255 
-0.31334 0.211131 0.764502 0 0 0.225825 121 131 134 255 
-0.534798 0 0.764502 0 0 0.225825 121 131 134 255 
0.534798 0 0.764502 0 0 0.225825 121 131 134 255 
-0.31334 0.211131 0.764502 -0 0 0.132312 121 131 134 255 
0.534798 0 0.764502 -0 0 0.132312 121 131 134 255 
0.313341 0.211131 0.764502 -0 0 0.132312 121 131 134 255 
0.534798 1.75795 -0.870577 0 0.0582704 0 128 139 142 255 
0.313341 1.75795 0.501379 0 0.0582704 0 128 139 142 255 
0.313341 1.75795 0.764502 0 0.0582704 0 128 139 142 255 
0.534798 1.75795 -0.870577 0 0.3621 -0 128 139 142 255 
0.313341 1.75795 0.764502 0 0.3621 -0 128 139 142 255 
0.534798 1.75795 0.764502 0 0.3621 -0 128 139 142 255 
-0.534798 1.75795 -0.870577 0 0.859779 0 128 139 142 255 
-0.31334 1.75795 0.501379 0 0.859779 0 128 139 142 255 
0.313341 1.75795 0.501379 0 0.859779 0 128 139 142 255 
-0.534798 1.75795 -0.870577 0 1.46744 0 128 139 142 255 
0.313341 1.75795 0.501379 0 1.46744 0 128 139 142 255 
0.534798 1.75795 -0.870577 0 1.46744 0 128 139 142 255 
0.534798 1.75795 -0.870577 0.225755 0 -0 112 122 125 255 
0.534798 1.75795 0.764502 0.225755 0 -0 112 122 125 255 
0.534798 1.61988 0.636083 0.225755 0 -0 112 122 125 255 
0.534798 1.75795 -0.870577 0.190294 0 0 112 122 125 255 
0.534798 1.61988 0.636083 0.190294 0 0 112 122 125 255 
0.534798 1.61988 -0.742158 0.190294 0 0 112 122 125 255 
0.534798 1.75795 0.764502 0.225754 0 0 112 122 125 255 
0.534798 0 0.764502 0.225754 0 0 112 122 125 255 
0.534798 0.138067 0.636083 0.225754 0 0 112 122 125 255 
0.534798 1.75795 0.764502 0.190293 0 0 112 122 125 255 
0.534798 0.138067 0.636083 0.190293 0 0 112 122 125 255 
0.534798 1.61988 0.636083 0.190293 0 0 112 122 125 255 
0.534798 0 0.764502 0.22575 0 0 112 122 125 255 
0.534798 0 -0.870577 0.22575 0 0 112 122 125 255 
0.534798 0.138067 -0.742158 0.22575 0 0 112 122 125 255 
0.534798 0 0.764502 0.19029 0 0 112 122 125 255 
0.534798 0.138067 -0.742158 0.19029 0 0 112 122 125 255 
0.534798 0.138067 0.636083 0.19029 0 0 112 122 125 255 
0.534798 0 -0.870577 0.225754 0 0 112 122 125 255 
0.534798 1.75795 -0.870577 0.225754 0 0 112 122 125 255 
0.534798 1.61988 -0.742158 0.225754 0 0 112 122 125 255 
0.534798 0 -0.870577 0.190293 0 0 112 122 125 255 
0.534798 1.61988 -0.742158 0.190293 0 0 112 122 125 255 
0.534798 0.138067 -0.742158 0.190293 0 0 112 122 125 255 
-0.534798 0 0.764502 -0.225754 0 0 112 122 125 255 
-0.534798 1.75795 0.764502 -0.225754 0 0 112 122 125 255 
-0.534798 1.61988 0.636083 -0.225754 0 0 112 122 125 255 
-0.534798 0 0.764502 -0.190293 0 0 112 122 125 255 
-0.534798 1.61988 0.636083 -0.190293 0 0 112 122 125 255 
-0.534798 0.138067 0.636083 -0.190293 0 0 112 122 125 255 
-0.534798 1.75795 0.764502 -0.225755 0 -0 112 122 125 255 
-0.534798 1.75795 -0.870577 -0.225755 0 -0 112 122 125 255 
-0.534798 1.61988 -0.742158 -0.225755 0 -0 112 122 125 255 
-0.534798 1.75795 0.764502 -0.190294 0 0 112 122 125 255 
-0.534798 1.61988 -0.742158 -0.190294 0 0 112 122 125 255 
-0.534798 1.61988 0.636083 -0.190294 0 0 112 122 125 255 
-0.534798 1.75795 -0.870577 -0.225754 0 0 112 122 125 255 
-0.534798 0 -0.870577 -0.225754 0 0 112 122 125 255 
-0.534798 0.138067 -0.742158 -0.225754 0 0 112 122 125 255 
-0.534798 1.75795 -0.870577 -0.190293 0 0 112 122 125 255 
-0.534798 0.138067 -0.742158 -0.190293 0 0 112 122 125 255 
-0.534798 1.61988 -0.742158 -0.190293 0 0 112 122 125 255 
-0.534798 0 -0.870577 -0.22575 0 0 112 122 125 255 
-0.534798 0 0.764502 -0.22575 0 0 112 122 125 255 
-0.534798 0.138067 0.636083 -0.22575 0 0 112 122 125 255 
-0.534798 0 -0.870577 -0.19029 0 0 112 122 125 255 
-0.534798 0.138067 0.636083 -0.19029 0 0 112 122 125 255 
-0.534798 0.138067 -0.742158 -0.19029 0 0 112 122 125 255 
-0.31334 0.211131 0.870577 0 0 0.432912 52 52 52 255 
0.313341 0.211131 0.870577 0 0 0.432912 52 52 52 255 
0.164716 0.901932 0.870577 0 0 0.432912 52 52 52 255 
-0.31334 0.211131 0.870577 0 0 0.0620222 52 52 52 255 
0.164716 0.901932 0.870577 0 0 0.0620222 52 52 52 255 
0.074933 0.901932 0.870577 0 0 0.0620222 52 52 52 255 
0.313341 0.211131 0.870577 0 0 0.0264626 52 52 52 255 
0.185397 1.04914 0.870577 0 0 0.0264626 52 52 52 255 
0.164716 0.977767 0.870577 0 0 0.0264626 52 52 52 255 
0.313341 0.211131 0.870577 0 0 0.011271 52 52 52 255 
0.164716 0.977767 0.870577 0 0 0.011271 52 52 52 255 
0.164716 0.901932 0.870577 0 0 0.011271 52 52 52 255 
0.185397 1.04914 0.870577 0 0 0.0264646 52 52 52 255 
-0.185396 1.04914 0.870577 0 0 0.0264646 52 52 52 255 
0.074933 0.977767 0.870577 0 0 0.0264646 52 52 52 255 
0.185397 1.04914 0.870577 0 0 0.00640808 52 52 52 255 
0.074933 0.977767 0.870577 0 0 0.00640808 52 52 52 255 
0.164716 0.977767 0.870577 0 0 0.00640808 52 52 52 255 
-0.185396 1.04914 0.870577 0 0 0.236992 52 52 52 255 
-0.31334 0.211131 0.870577 0 0 0.236992 52 52 52 255 
0.074933 0.901932 0.870577 0 0 0.236992 52 52 52 255 
-0.185396 1.04914 0.870577 0 0 0.019742 52 52 52 255 
0.074933 0.901932 0.870577 0 0 0.019742 52 52 52 255 
0.074933 0.977767 0.870577 0 0 0.019742 52 52 52 255 
3 0 1 2
3 3 4 5
3 6 7 8
3 9 10 11
3 12 13 14
3 15 16 17
3 18 19 20
3 21 22 23
3 24 25 26
3 27 28 29
3 30 31 32
3 33 34 35
3 36 37 38
3 39 40 41
3 42 43 44
3 45 46 47
3 48 49 50
3 51 52 53
3 54 55 56
3 57 58 59
3 60 61 62
3 63 64 65
3 66 67 68
3 69 70 71
3 72 73 74
3 75 76 77
3 78 79 80
3 81 82 83
3 84 85 86
3 87 88 89
3 90 91 92
3 93 94 95
3 96 97 98
3 99 100 101
3 102 103 104
3 105 106 107
3 108 109 110
3 111 112 113
3 114 115 116
3 117 118 119
3 120 121 122
3 123 124 125
3 126 127 128
3 129 130 131
3 132 133 134
3 135 136 137
3 138 139 140
3 141 142 143
3 144 145 146
3 147 148 149
3 150 151 152
3 153 154 155
3 156 157 158
3 159 160 161
3 162 163 164
3 165 166 167
3 168 169 170
3 171 172 173
3 174 175 176
3 177 178 179
3 180 181 182
3 183 184 185
3 186 187 188
3 189 190 191
3 192 193 194
3 195 196 197
3 198 199 200
3 201 202 203
