ply
format ascii 1.0
comment Feeney's Flatenator generated
comment TextureFile SpaceInteriors_Texture.png
element vertex 30
property float x
property float y
property float z
element face 10
property list uchar int vertex_indices
end_header
0.292953 0.123591 -0.275558 
-0.292953 0.123591 -0.275558 
-0.292955 0.123591 0.275558 
0.292953 0.123591 -0.275558 
-0.292955 0.123591 0.275558 
0.292955 0.123591 0.275558 
-0.292953 0.123591 -0.275558 
0.292953 0.123591 -0.275558 
0.292953 0 -0.275558 
-0.292953 0.123591 -0.275558 
0.292953 0 -0.275558 
-0.292953 0 -0.275558 
-0.292955 0.123591 0.275558 
-0.292953 0.123591 -0.275558 
-0.292953 0 -0.275558 
-0.292955 0.123591 0.275558 
-0.292953 0 -0.275558 
-0.292955 0 0.275558 
0.292955 0.123591 0.275558 
-0.292955 0.123591 0.275558 
-0.292955 0 0.275558 
0.292955 0.123591 0.275558 
-0.292955 0 0.275558 
0.292955 0 0.275558 
0.292953 0.123591 -0.275558 
0.292955 0.123591 0.275558 
0.292955 0 0.275558 
0.292953 0.123591 -0.275558 
0.292955 0 0.275558 
0.292953 0 -0.275558 
3 0 1 2
3 3 4 5
3 6 7 8
3 9 10 11
3 12 13 14
3 15 16 17
3 18 19 20
3 21 22 23
3 24 25 26
3 27 28 29
