ply
format ascii 1.0
comment Feeney's Flatenator generated
comment TextureFile SpaceInteriors_Texture.png
element vertex 228
property float x
property float y
property float z
property float nx
property float ny
property float nz
property uchar red
property uchar green
property uchar blue
property uchar alpha
property float texture_u
property float texture_v
element face 76
property list uchar int vertex_indices
end_header
-0.657035 0.562841 0.751952 0 0 0.824593 75 72 70 255 0.502286 0.010729 
0.657039 0.562841 0.751952 0 0 0.824593 75 72 70 255 0.685675 0.010729 
0.657039 1.19035 0.751952 0 0 0.824593 75 72 70 255 0.685675 0.079146 
-0.657035 0.562841 0.751952 0 0 0.824593 75 72 70 255 0.502286 0.010729 
0.657039 1.19035 0.751952 0 0 0.824593 75 72 70 255 0.685675 0.079146 
-0.657035 1.19035 0.751952 0 0 0.824593 75 72 70 255 0.502286 0.079146 
-0.567097 3.84438 0.247618 -0 0.561702 0 112 122 125 255 0.333173 0.265206 
0.567099 3.84438 0.247618 -0 0.561702 0 112 122 125 255 0.333173 0.265206 
0.567099 3.84438 -0.247624 -0 0.561702 0 112 122 125 255 0.333173 0.265206 
-0.567097 3.84438 0.247618 0 0.561702 0 112 122 125 255 0.333173 0.265206 
0.567099 3.84438 -0.247624 0 0.561702 0 112 122 125 255 0.333173 0.265206 
-0.567097 3.84438 -0.247624 0 0.561702 0 112 122 125 255 0.333173 0.265206 
-0.751954 3.42906 -0.751952 0 0 -4.54662 185 185 185 255 0.355224 0.478355 
0.751952 3.42906 -0.751952 0 0 -4.54662 185 185 185 255 0.355224 0.478355 
0.751952 0.40585 -0.751952 0 0 -4.54662 185 185 185 255 0.355224 0.478355 
-0.751954 3.42906 -0.751952 0 0 -4.54662 185 185 185 255 0.355224 0.478355 
0.751952 0.40585 -0.751952 0 0 -4.54662 185 185 185 255 0.355224 0.478355 
-0.751954 0.40585 -0.751952 0 0 -4.54662 185 185 185 255 0.355224 0.478355 
-0.621543 0 -0.621543 0 -1.54526 0 35 35 35 255 0.106332 0.481206 
0.621541 0 -0.621543 0 -1.54526 0 35 35 35 255 0.106332 0.481206 
0.621541 0 0.621543 0 -1.54526 0 35 35 35 255 0.106332 0.481206 
-0.621543 0 -0.621543 0 -1.54526 0 35 35 35 255 0.106332 0.481206 
0.621541 0 0.621543 0 -1.54526 0 35 35 35 255 0.106332 0.481206 
-0.621543 0 0.621543 0 -1.54526 0 35 35 35 255 0.106332 0.481206 
0.751952 0.40585 0.751952 4.54662 0 0 166 166 166 255 0.325461 0.480532 
0.751952 0.40585 -0.751952 4.54662 0 0 166 166 166 255 0.325461 0.480532 
0.751952 3.42906 -0.751952 4.54662 0 0 166 166 166 255 0.325461 0.480532 
0.751952 0.40585 0.751952 4.54662 -0 0 166 166 166 255 0.325461 0.480532 
0.751952 3.42906 -0.751952 4.54662 -0 0 166 166 166 255 0.325461 0.480532 
0.751952 3.42906 0.751952 4.54662 -0 0 166 166 166 255 0.325461 0.480532 
-0.751954 0.40585 -0.751952 -4.54662 0 0 166 166 166 255 0.325461 0.480532 
-0.751954 0.40585 0.751952 -4.54662 0 0 166 166 166 255 0.325461 0.480532 
-0.751954 3.42906 0.751952 -4.54662 0 0 166 166 166 255 0.325461 0.480532 
-0.751954 0.40585 -0.751952 -4.54662 0 0 166 166 166 255 0.325461 0.480532 
-0.751954 3.42906 0.751952 -4.54662 0 0 166 166 166 255 0.325461 0.480532 
-0.751954 3.42906 -0.751952 -4.54662 0 0 166 166 166 255 0.325461 0.480532 
-0.751954 0.40585 -0.751952 0 -0.196123 0 185 185 185 255 0.355224 0.478355 
0.751952 0.40585 -0.751952 0 -0.196123 0 185 185 185 255 0.355224 0.478355 
0.621541 0.40585 -0.621543 0 -0.196123 0 185 185 185 255 0.355224 0.478355 
-0.751954 0.40585 -0.751952 0 -0.162109 0 185 185 185 255 0.355224 0.478355 
0.621541 0.40585 -0.621543 0 -0.162109 0 185 185 185 255 0.355224 0.478355 
-0.621543 0.40585 -0.621543 0 -0.162109 0 185 185 185 255 0.355224 0.478355 
0.751952 0.40585 -0.751952 0 -0.196126 0 185 185 185 255 0.355224 0.478355 
0.751952 0.40585 0.751952 0 -0.196126 0 185 185 185 255 0.355224 0.478355 
0.621541 0.40585 0.621543 0 -0.196126 0 185 185 185 255 0.355224 0.478355 
0.751952 0.40585 -0.751952 0 -0.162112 0 185 185 185 255 0.355224 0.478355 
0.621541 0.40585 0.621543 0 -0.162112 0 185 185 185 255 0.355224 0.478355 
0.621541 0.40585 -0.621543 0 -0.162112 0 185 185 185 255 0.355224 0.478355 
0.751952 0.40585 0.751952 -0 -0.196123 0 185 185 185 255 0.355224 0.478355 
-0.751954 0.40585 0.751952 -0 -0.196123 0 185 185 185 255 0.355224 0.478355 
-0.621543 0.40585 0.621543 -0 -0.196123 0 185 185 185 255 0.355224 0.478355 
0.751952 0.40585 0.751952 0 -0.162109 0 185 185 185 255 0.355224 0.478355 
-0.621543 0.40585 0.621543 0 -0.162109 0 185 185 185 255 0.355224 0.478355 
0.621541 0.40585 0.621543 0 -0.162109 0 185 185 185 255 0.355224 0.478355 
-0.751954 0.40585 0.751952 0 -0.196126 0 185 185 185 255 0.355224 0.478355 
-0.751954 0.40585 -0.751952 0 -0.196126 0 185 185 185 255 0.355224 0.478355 
-0.621543 0.40585 -0.621543 0 -0.196126 0 185 185 185 255 0.355224 0.478355 
-0.751954 0.40585 0.751952 0 -0.162112 0 185 185 185 255 0.355224 0.478355 
-0.621543 0.40585 -0.621543 0 -0.162112 0 185 185 185 255 0.355224 0.478355 
-0.621543 0.40585 0.621543 0 -0.162112 0 185 185 185 255 0.355224 0.478355 
-0.621543 0.40585 -0.621543 0 0 -0.504506 35 35 35 255 0.106332 0.481206 
0.621541 0.40585 -0.621543 0 0 -0.504506 35 35 35 255 0.106332 0.481206 
0.621541 0 -0.621543 0 0 -0.504506 35 35 35 255 0.106332 0.481206 
-0.621543 0.40585 -0.621543 0 0 -0.504506 35 35 35 255 0.106332 0.481206 
0.621541 0 -0.621543 0 0 -0.504506 35 35 35 255 0.106332 0.481206 
-0.621543 0 -0.621543 0 0 -0.504506 35 35 35 255 0.106332 0.481206 
0.621541 0.40585 -0.621543 0.504506 0 -0 21 21 21 255 0.076568 0.483383 
0.621541 0.40585 0.621543 0.504506 0 -0 21 21 21 255 0.076568 0.483383 
0.621541 0 0.621543 0.504506 0 -0 21 21 21 255 0.076568 0.483383 
0.621541 0.40585 -0.621543 0.504506 0 0 21 21 21 255 0.076568 0.483383 
0.621541 0 0.621543 0.504506 0 0 21 21 21 255 0.076568 0.483383 
0.621541 0 -0.621543 0.504506 0 0 21 21 21 255 0.076568 0.483383 
0.621541 0.40585 0.621543 0 0 0.504506 35 35 35 255 0.106332 0.481206 
-0.621543 0.40585 0.621543 0 0 0.504506 35 35 35 255 0.106332 0.481206 
-0.621543 0 0.621543 0 0 0.504506 35 35 35 255 0.106332 0.481206 
0.621541 0.40585 0.621543 0 0 0.504506 35 35 35 255 0.106332 0.481206 
-0.621543 0 0.621543 0 0 0.504506 35 35 35 255 0.106332 0.481206 
0.621541 0 0.621543 0 0 0.504506 35 35 35 255 0.106332 0.481206 
-0.621543 0.40585 0.621543 -0.504506 0 -0 21 21 21 255 0.076568 0.483383 
-0.621543 0.40585 -0.621543 -0.504506 0 -0 21 21 21 255 0.076568 0.483383 
-0.621543 0 -0.621543 -0.504506 0 -0 21 21 21 255 0.076568 0.483383 
-0.621543 0.40585 0.621543 -0.504506 -0 0 21 21 21 255 0.076568 0.483383 
-0.621543 0 -0.621543 -0.504506 -0 0 21 21 21 255 0.076568 0.483383 
-0.621543 0 0.621543 -0.504506 -0 0 21 21 21 255 0.076568 0.483383 
-0.751954 0.40585 0.751952 0 0 0.2361 185 185 185 255 0.355224 0.478355 
0.751952 0.40585 0.751952 0 0 0.2361 185 185 185 255 0.355224 0.478355 
0.657039 0.562841 0.751952 0 0 0.2361 185 185 185 255 0.355224 0.478355 
-0.751954 0.40585 0.751952 0 0 0.206298 185 185 185 255 0.355224 0.478355 
0.657039 0.562841 0.751952 0 0 0.206298 185 185 185 255 0.355224 0.478355 
-0.657035 0.562841 0.751952 0 0 0.206298 185 185 185 255 0.355224 0.478355 
0.751952 0.40585 0.751952 0 -0 0.198858 185 185 185 255 0.355224 0.478355 
0.751952 3.42906 0.751952 0 -0 0.198858 185 185 185 255 0.355224 0.478355 
0.686175 1.86152 0.751952 0 -0 0.198858 185 185 185 255 0.355224 0.478355 
0.751952 0.40585 0.751952 0 0 0.00636065 185 185 185 255 0.355224 0.478355 
0.686175 1.86152 0.751952 0 0 0.00636065 185 185 185 255 0.355224 0.478355 
0.686175 1.76482 0.751952 0 0 0.00636065 185 185 185 255 0.355224 0.478355 
0.751952 0.40585 0.751952 0 0 0.0048254 185 185 185 255 0.355224 0.478355 
0.686175 1.76482 0.751952 0 0 0.0048254 185 185 185 255 0.355224 0.478355 
0.686175 1.69146 0.751952 0 0 0.0048254 185 185 185 255 0.355224 0.478355 
0.751952 0.40585 0.751952 0 0 0.00660137 185 185 185 255 0.355224 0.478355 
0.686175 1.69146 0.751952 0 0 0.00660137 185 185 185 255 0.355224 0.478355 
0.686175 1.5911 0.751952 0 0 0.00660137 185 185 185 255 0.355224 0.478355 
0.751952 0.40585 0.751952 0 0 0.0608936 185 185 185 255 0.355224 0.478355 
0.686175 1.5911 0.751952 0 0 0.0608936 185 185 185 255 0.355224 0.478355 
0.657039 1.19035 0.751952 0 0 0.0608936 185 185 185 255 0.355224 0.478355 
0.545676 3.24473 0.751952 0 0 2.04088 166 166 166 255 0.333036 0.481933 
-0.545678 3.24473 0.751952 0 0 2.04088 166 166 166 255 0.333036 0.481933 
-0.545678 1.37469 0.751952 0 0 2.04088 166 166 166 255 0.333036 0.481933 
0.545676 3.24473 0.751952 0 0 2.04088 166 166 166 255 0.333036 0.481933 
-0.545678 1.37469 0.751952 0 0 2.04088 166 166 166 255 0.333036 0.481933 
0.545676 1.37469 0.751952 0 0 2.04088 166 166 166 255 0.333036 0.481933 
-0.751954 3.42906 0.751952 0 0 0.28696 185 185 185 255 0.355224 0.478355 
-0.751954 0.40585 0.751952 0 0 0.28696 185 185 185 255 0.355224 0.478355 
-0.657035 0.562841 0.751952 0 0 0.28696 185 185 185 255 0.355224 0.478355 
-0.751954 3.42906 0.751952 0 0 0.0595626 185 185 185 255 0.355224 0.478355 
-0.657035 0.562841 0.751952 0 0 0.0595626 185 185 185 255 0.355224 0.478355 
-0.657035 1.19035 0.751952 0 0 0.0595626 185 185 185 255 0.355224 0.478355 
0.751952 3.42906 0.751952 0 0 0.277215 185 185 185 255 0.355224 0.478355 
-0.751954 3.42906 0.751952 0 0 0.277215 185 185 185 255 0.355224 0.478355 
-0.545678 3.24473 0.751952 0 0 0.277215 185 185 185 255 0.355224 0.478355 
0.751952 3.42906 0.751952 0 0 0.201169 185 185 185 255 0.355224 0.478355 
-0.545678 3.24473 0.751952 0 0 0.201169 185 185 185 255 0.355224 0.478355 
0.545676 3.24473 0.751952 0 0 0.201169 185 185 185 255 0.355224 0.478355 
-0.751954 3.42906 0.751952 0 0 0.266793 185 185 185 255 0.355224 0.478355 
-0.657035 1.19035 0.751952 0 0 0.266793 185 185 185 255 0.355224 0.478355 
-0.545678 1.37469 0.751952 0 0 0.266793 185 185 185 255 0.355224 0.478355 
-0.751954 3.42906 0.751952 0 0 0.385744 185 185 185 255 0.355224 0.478355 
-0.545678 1.37469 0.751952 0 0 0.385744 185 185 185 255 0.355224 0.478355 
-0.545678 3.24473 0.751952 0 0 0.385744 185 185 185 255 0.355224 0.478355 
-0.657035 1.19035 0.751952 0 0 0.242236 185 185 185 255 0.355224 0.478355 
0.657039 1.19035 0.751952 0 0 0.242236 185 185 185 255 0.355224 0.478355 
0.545676 1.37469 0.751952 0 0 0.242236 185 185 185 255 0.355224 0.478355 
-0.657035 1.19035 0.751952 0 0 0.20118 185 185 185 255 0.355224 0.478355 
0.545676 1.37469 0.751952 0 0 0.20118 185 185 185 255 0.355224 0.478355 
-0.545678 1.37469 0.751952 0 0 0.20118 185 185 185 255 0.355224 0.478355 
0.59514 1.76482 0.751952 0 0 0.00880309 26 87 129 255 0.980461 0.392608 
0.686175 1.76482 0.751952 0 0 0.00880309 26 87 129 255 0.980461 0.392608 
0.686175 1.86152 0.751952 0 0 0.00880309 26 87 129 255 0.980461 0.392608 
0.59514 1.76482 0.751952 0 0 0.00880309 26 87 129 255 0.980461 0.392608 
0.686175 1.86152 0.751952 0 0 0.00880309 26 87 129 255 0.980461 0.392608 
0.59514 1.86152 0.751952 0 0 0.00880309 26 87 129 255 0.980461 0.392608 
-0.751954 3.42906 0.751952 -0 0.758471 0 203 203 203 255 0.387891 0.478355 
0.751952 3.42906 0.751952 -0 0.758471 0 203 203 203 255 0.387891 0.478355 
0.567099 3.42906 0.247618 -0 0.758471 0 203 203 203 255 0.387891 0.478355 
-0.751954 3.42906 0.751952 0 0.572014 0 203 203 203 255 0.387891 0.478355 
0.567099 3.42906 0.247618 0 0.572014 0 203 203 203 255 0.387891 0.478355 
-0.567097 3.42906 0.247618 0 0.572014 0 203 203 203 255 0.387891 0.478355 
0.751952 3.42906 0.751952 0 0.278001 0 203 203 203 255 0.387891 0.478355 
0.751952 3.42906 -0.751952 0 0.278001 0 203 203 203 255 0.387891 0.478355 
0.567099 3.42906 -0.247624 0 0.278001 0 203 203 203 255 0.387891 0.478355 
0.751952 3.42906 0.751952 0 0.091547 0 203 203 203 255 0.387891 0.478355 
0.567099 3.42906 -0.247624 0 0.091547 0 203 203 203 255 0.387891 0.478355 
0.567099 3.42906 0.247618 0 0.091547 0 203 203 203 255 0.387891 0.478355 
0.751952 3.42906 -0.751952 0 0.758462 0 203 203 203 255 0.387891 0.478355 
-0.751954 3.42906 -0.751952 0 0.758462 0 203 203 203 255 0.387891 0.478355 
-0.567097 3.42906 -0.247624 0 0.758462 0 203 203 203 255 0.387891 0.478355 
0.751952 3.42906 -0.751952 0 0.572007 0 203 203 203 255 0.387891 0.478355 
-0.567097 3.42906 -0.247624 0 0.572007 0 203 203 203 255 0.387891 0.478355 
0.567099 3.42906 -0.247624 0 0.572007 0 203 203 203 255 0.387891 0.478355 
-0.751954 3.42906 -0.751952 0 0.278007 0 203 203 203 255 0.387891 0.478355 
-0.751954 3.42906 0.751952 0 0.278007 0 203 203 203 255 0.387891 0.478355 
-0.567097 3.42906 0.247618 0 0.278007 0 203 203 203 255 0.387891 0.478355 
-0.751954 3.42906 -0.751952 0 0.091549 0 203 203 203 255 0.387891 0.478355 
-0.567097 3.42906 0.247618 0 0.091549 0 203 203 203 255 0.387891 0.478355 
-0.567097 3.42906 -0.247624 0 0.091549 0 203 203 203 255 0.387891 0.478355 
-0.567097 3.42906 0.247618 0 0 0.471054 104 114 115 255 0.300506 0.265206 
0.567099 3.42906 0.247618 0 0 0.471054 104 114 115 255 0.300506 0.265206 
0.567099 3.84438 0.247618 0 0 0.471054 104 114 115 255 0.300506 0.265206 
-0.567097 3.42906 0.247618 0 0 0.471054 104 114 115 255 0.300506 0.265206 
0.567099 3.84438 0.247618 0 0 0.471054 104 114 115 255 0.300506 0.265206 
-0.567097 3.84438 0.247618 0 0 0.471054 104 114 115 255 0.300506 0.265206 
0.567099 3.42906 0.247618 0.205684 0 0 95 104 105 255 0.270742 0.267384 
0.567099 3.42906 -0.247624 0.205684 0 0 95 104 105 255 0.270742 0.267384 
0.567099 3.84438 -0.247624 0.205684 0 0 95 104 105 255 0.270742 0.267384 
0.567099 3.42906 0.247618 0.205684 -0 0 95 104 105 255 0.270742 0.267384 
0.567099 3.84438 -0.247624 0.205684 -0 0 95 104 105 255 0.270742 0.267384 
0.567099 3.84438 0.247618 0.205684 -0 0 95 104 105 255 0.270742 0.267384 
0.567099 3.42906 -0.247624 0 0 -0.471054 104 114 115 255 0.300506 0.265206 
-0.567097 3.42906 -0.247624 0 0 -0.471054 104 114 115 255 0.300506 0.265206 
-0.567097 3.84438 -0.247624 0 0 -0.471054 104 114 115 255 0.300506 0.265206 
0.567099 3.42906 -0.247624 0 0 -0.471054 104 114 115 255 0.300506 0.265206 
-0.567097 3.84438 -0.247624 0 0 -0.471054 104 114 115 255 0.300506 0.265206 
0.567099 3.84438 -0.247624 0 0 -0.471054 104 114 115 255 0.300506 0.265206 
-0.567097 3.42906 -0.247624 -0.205684 0 0 95 104 105 255 0.270742 0.267384 
-0.567097 3.42906 0.247618 -0.205684 0 0 95 104 105 255 0.270742 0.267384 
-0.567097 3.84438 0.247618 -0.205684 0 0 95 104 105 255 0.270742 0.267384 
-0.567097 3.42906 -0.247624 -0.205684 0 0 95 104 105 255 0.270742 0.267384 
-0.567097 3.84438 0.247618 -0.205684 0 0 95 104 105 255 0.270742 0.267384 
-0.567097 3.84438 -0.247624 -0.205684 0 0 95 104 105 255 0.270742 0.267384 
0.751952 3.42906 0.751952 0 0 0.294441 185 185 185 255 0.355224 0.478355 
0.545676 3.24473 0.751952 0 0 0.294441 185 185 185 255 0.355224 0.478355 
0.59514 1.86152 0.751952 0 0 0.294441 185 185 185 255 0.355224 0.478355 
0.751952 3.42906 0.751952 0 0 0.142701 185 185 185 255 0.355224 0.478355 
0.59514 1.86152 0.751952 0 0 0.142701 185 185 185 255 0.355224 0.478355 
0.686175 1.86152 0.751952 0 0 0.142701 185 185 185 255 0.355224 0.478355 
0.545676 3.24473 0.751952 0 0 0.0924996 185 185 185 255 0.355224 0.478355 
0.545676 1.37469 0.751952 0 0 0.0924996 185 185 185 255 0.355224 0.478355 
0.59514 1.5911 0.751952 0 0 0.0924996 185 185 185 255 0.355224 0.478355 
0.545676 3.24473 0.751952 0 0 0.00496421 185 185 185 255 0.355224 0.478355 
0.59514 1.5911 0.751952 0 0 0.00496421 185 185 185 255 0.355224 0.478355 
0.59514 1.69146 0.751952 0 0 0.00496421 185 185 185 255 0.355224 0.478355 
0.545676 3.24473 0.751952 0 0 0.00362867 185 185 185 255 0.355224 0.478355 
0.59514 1.69146 0.751952 0 0 0.00362867 185 185 185 255 0.355224 0.478355 
0.59514 1.76482 0.751952 0 0 0.00362867 185 185 185 255 0.355224 0.478355 
0.545676 3.24473 0.751952 0 0 0.00478318 185 185 185 255 0.355224 0.478355 
0.59514 1.76482 0.751952 0 0 0.00478318 185 185 185 255 0.355224 0.478355 
0.59514 1.86152 0.751952 0 0 0.00478318 185 185 185 255 0.355224 0.478355 
0.545676 1.37469 0.751952 -0 0 0.0499996 185 185 185 255 0.355224 0.478355 
0.657039 1.19035 0.751952 -0 0 0.0499996 185 185 185 255 0.355224 0.478355 
0.686175 1.5911 0.751952 -0 0 0.0499996 185 185 185 255 0.355224 0.478355 
0.545676 1.37469 0.751952 0 0 0.0197009 185 185 185 255 0.355224 0.478355 
0.686175 1.5911 0.751952 0 0 0.0197009 185 185 185 255 0.355224 0.478355 
0.59514 1.5911 0.751952 0 0 0.0197009 185 185 185 255 0.355224 0.478355 
0.657039 1.19035 0.751952 0 0 0.0595588 185 185 185 255 0.355224 0.478355 
0.657039 0.562841 0.751952 0 0 0.0595588 185 185 185 255 0.355224 0.478355 
0.751952 0.40585 0.751952 0 0 0.0595588 185 185 185 255 0.355224 0.478355 
0.59514 1.69146 0.751952 0 0 0.00667833 185 185 185 255 0.355224 0.478355 
0.686175 1.69146 0.751952 0 0 0.00667833 185 185 185 255 0.355224 0.478355 
0.686175 1.76482 0.751952 0 0 0.00667833 185 185 185 255 0.355224 0.478355 
0.59514 1.69146 0.751952 0 0 0.00667833 185 185 185 255 0.355224 0.478355 
0.686175 1.76482 0.751952 0 0 0.00667833 185 185 185 255 0.355224 0.478355 
0.59514 1.76482 0.751952 0 0 0.00667833 185 185 185 255 0.355224 0.478355 
0.686175 1.5911 0.751952 0 -0 0.00913628 171 53 53 255 0.954695 0.379725 
0.686175 1.69146 0.751952 0 -0 0.00913628 171 53 53 255 0.954695 0.379725 
0.59514 1.69146 0.751952 0 -0 0.00913628 171 53 53 255 0.954695 0.379725 
0.686175 1.5911 0.751952 0 0 0.00913628 171 53 53 255 0.954695 0.379725 
0.59514 1.69146 0.751952 0 0 0.00913628 171 53 53 255 0.954695 0.379725 
0.59514 1.5911 0.751952 0 0 0.00913628 171 53 53 255 0.954695 0.379725 
3 0 1 2
3 3 4 5
3 6 7 8
3 9 10 11
3 12 13 14
3 15 16 17
3 18 19 20
3 21 22 23
3 24 25 26
3 27 28 29
3 30 31 32
3 33 34 35
3 36 37 38
3 39 40 41
3 42 43 44
3 45 46 47
3 48 49 50
3 51 52 53
3 54 55 56
3 57 58 59
3 60 61 62
3 63 64 65
3 66 67 68
3 69 70 71
3 72 73 74
3 75 76 77
3 78 79 80
3 81 82 83
3 84 85 86
3 87 88 89
3 90 91 92
3 93 94 95
3 96 97 98
3 99 100 101
3 102 103 104
3 105 106 107
3 108 109 110
3 111 112 113
3 114 115 116
3 117 118 119
3 120 121 122
3 123 124 125
3 126 127 128
3 129 130 131
3 132 133 134
3 135 136 137
3 138 139 140
3 141 142 143
3 144 145 146
3 147 148 149
3 150 151 152
3 153 154 155
3 156 157 158
3 159 160 161
3 162 163 164
3 165 166 167
3 168 169 170
3 171 172 173
3 174 175 176
3 177 178 179
3 180 181 182
3 183 184 185
3 186 187 188
3 189 190 191
3 192 193 194
3 195 196 197
3 198 199 200
3 201 202 203
3 204 205 206
3 207 208 209
3 210 211 212
3 213 214 215
3 216 217 218
3 219 220 221
3 222 223 224
3 225 226 227
