ply
format ascii 1.0
comment Feeney's Flatenator generated
comment TextureFile SpaceInteriors_Texture.png
element vertex 36
property float x
property float y
property float z
property float nx
property float ny
property float nz
property float texture_u
property float texture_v
element face 12
property list uchar int vertex_indices
end_header
-1 0 0 0 0 0.278048 0.264046 0.062866 
0 0 0 0 0 0.278048 0.264046 0.062866 
0 0.278048 0 0 0 0.278048 0.264046 0.062866 
-1 0 0 0 0 0.278048 0.264046 0.062866 
0 0.278048 0 0 0 0.278048 0.264046 0.062866 
-1 0.278048 0 0 0 0.278048 0.264046 0.062866 
-1 0.278048 0 -0 1 0 0.524748 0.778623 
0 0.278048 0 -0 1 0 0.601678 0.778623 
0 0.278048 -1 -0 1 0 0.601678 0.867482 
-1 0.278048 0 0 1 0 0.524748 0.778623 
0 0.278048 -1 0 1 0 0.601678 0.867482 
-1 0.278048 -1 0 1 0 0.524748 0.867482 
-1 0.278048 -1 0 0 -0.278048 0.264046 0.062866 
0 0.278048 -1 0 0 -0.278048 0.264046 0.062866 
0 0 -1 0 0 -0.278048 0.264046 0.062866 
-1 0.278048 -1 0 0 -0.278048 0.264046 0.062866 
0 0 -1 0 0 -0.278048 0.264046 0.062866 
-1 0 -1 0 0 -0.278048 0.264046 0.062866 
-1 0 -1 0 -1 0 0.199188 0.062866 
0 0 -1 0 -1 0 0.199188 0.062866 
0 0 0 0 -1 0 0.199188 0.062866 
-1 0 -1 0 -1 0 0.199188 0.062866 
0 0 0 0 -1 0 0.199188 0.062866 
-1 0 0 0 -1 0 0.199188 0.062866 
0 0 0 0.278048 0 0 0.233113 0.062866 
0 0 -1 0.278048 0 0 0.233113 0.062866 
0 0.278048 -1 0.278048 0 0 0.233113 0.062866 
0 0 0 0.278048 -0 0 0.233113 0.062866 
0 0.278048 -1 0.278048 -0 0 0.233113 0.062866 
0 0.278048 0 0.278048 -0 0 0.233113 0.062866 
-1 0 -1 -0.278048 0 0 0.233113 0.062866 
-1 0 0 -0.278048 0 0 0.233113 0.062866 
-1 0.278048 0 -0.278048 0 0 0.233113 0.062866 
-1 0 -1 -0.278048 0 0 0.233113 0.062866 
-1 0.278048 0 -0.278048 0 0 0.233113 0.062866 
-1 0.278048 -1 -0.278048 0 0 0.233113 0.062866 
3 0 1 2
3 3 4 5
3 6 7 8
3 9 10 11
3 12 13 14
3 15 16 17
3 18 19 20
3 21 22 23
3 24 25 26
3 27 28 29
3 30 31 32
3 33 34 35
