ply
format ascii 1.0
comment Feeney's Flatenator generated
comment TextureFile SpaceInteriors_Texture.png
element vertex 456
property float x
property float y
property float z
property float nx
property float ny
property float nz
property uchar red
property uchar green
property uchar blue
property uchar alpha
element face 152
property list uchar int vertex_indices
end_header
-0.018126 1.16455 0.5 0 0 0.07447 75 72 70 255 
0.981874 1.16455 0.5 0 0 0.07447 75 72 70 255 
0.981874 1.23902 0.5 0 0 0.07447 75 72 70 255 
-0.018126 1.16455 0.5 0 0 0.07447 75 72 70 255 
0.981874 1.23902 0.5 0 0 0.07447 75 72 70 255 
-0.018126 1.23902 0.5 0 0 0.07447 75 72 70 255 
-0.018126 1.23902 0.5 -0 1 0 91 88 86 255 
0.981874 1.23902 0.5 -0 1 0 91 88 86 255 
0.981874 1.23902 -0.5 -0 1 0 91 88 86 255 
-0.018126 1.23902 0.5 0 1 0 91 88 86 255 
0.981874 1.23902 -0.5 0 1 0 91 88 86 255 
-0.018126 1.23902 -0.5 0 1 0 91 88 86 255 
-0.018126 1.23902 -0.5 0 0 -0.07447 75 72 70 255 
0.981874 1.23902 -0.5 0 0 -0.07447 75 72 70 255 
0.981874 1.16455 -0.5 0 0 -0.07447 75 72 70 255 
-0.018126 1.23902 -0.5 0 0 -0.07447 75 72 70 255 
0.981874 1.16455 -0.5 0 0 -0.07447 75 72 70 255 
-0.018126 1.16455 -0.5 0 0 -0.07447 75 72 70 255 
-0.018126 1.16455 -0.5 0 -1 0 44 43 42 255 
0.981874 1.16455 -0.5 0 -1 0 44 43 42 255 
0.981874 1.16455 0.5 0 -1 0 44 43 42 255 
-0.018126 1.16455 -0.5 0 -1 0 44 43 42 255 
0.981874 1.16455 0.5 0 -1 0 44 43 42 255 
-0.018126 1.16455 0.5 0 -1 0 44 43 42 255 
0.981874 1.16455 0.5 0.07447 0 0 58 57 55 255 
0.981874 1.16455 -0.5 0.07447 0 0 58 57 55 255 
0.981874 1.23902 -0.5 0.07447 0 0 58 57 55 255 
0.981874 1.16455 0.5 0.07447 -0 0 58 57 55 255 
0.981874 1.23902 -0.5 0.07447 -0 0 58 57 55 255 
0.981874 1.23902 0.5 0.07447 -0 0 58 57 55 255 
-0.018126 1.16455 -0.5 -0.07447 0 0 58 57 55 255 
-0.018126 1.16455 0.5 -0.07447 0 0 58 57 55 255 
-0.018126 1.23902 0.5 -0.07447 0 0 58 57 55 255 
-0.018126 1.16455 -0.5 -0.07447 0 0 58 57 55 255 
-0.018126 1.23902 0.5 -0.07447 0 0 58 57 55 255 
-0.018126 1.23902 -0.5 -0.07447 0 0 58 57 55 255 
-0.018126 0.664555 0.5 0 0 0.074466 75 72 70 255 
0.981874 0.664555 0.5 0 0 0.074466 75 72 70 255 
0.981874 0.739021 0.5 0 0 0.074466 75 72 70 255 
-0.018126 0.664555 0.5 0 0 0.074466 75 72 70 255 
0.981874 0.739021 0.5 0 0 0.074466 75 72 70 255 
-0.018126 0.739021 0.5 0 0 0.074466 75 72 70 255 
-0.018126 0.739021 0.5 -0 1 0 91 88 86 255 
0.981874 0.739021 0.5 -0 1 0 91 88 86 255 
0.981874 0.739021 -0.5 -0 1 0 91 88 86 255 
-0.018126 0.739021 0.5 0 1 0 91 88 86 255 
0.981874 0.739021 -0.5 0 1 0 91 88 86 255 
-0.018126 0.739021 -0.5 0 1 0 91 88 86 255 
-0.018126 0.739021 -0.5 0 0 -0.074466 75 72 70 255 
0.981874 0.739021 -0.5 0 0 -0.074466 75 72 70 255 
0.981874 0.664555 -0.5 0 0 -0.074466 75 72 70 255 
-0.018126 0.739021 -0.5 0 0 -0.074466 75 72 70 255 
0.981874 0.664555 -0.5 0 0 -0.074466 75 72 70 255 
-0.018126 0.664555 -0.5 0 0 -0.074466 75 72 70 255 
-0.018126 0.664555 -0.5 0 -1 0 44 43 42 255 
0.981874 0.664555 -0.5 0 -1 0 44 43 42 255 
0.981874 0.664555 0.5 0 -1 0 44 43 42 255 
-0.018126 0.664555 -0.5 0 -1 0 44 43 42 255 
0.981874 0.664555 0.5 0 -1 0 44 43 42 255 
-0.018126 0.664555 0.5 0 -1 0 44 43 42 255 
0.981874 0.664555 0.5 0.074466 0 0 58 57 55 255 
0.981874 0.664555 -0.5 0.074466 0 0 58 57 55 255 
0.981874 0.739021 -0.5 0.074466 0 0 58 57 55 255 
0.981874 0.664555 0.5 0.074466 -0 0 58 57 55 255 
0.981874 0.739021 -0.5 0.074466 -0 0 58 57 55 255 
0.981874 0.739021 0.5 0.074466 -0 0 58 57 55 255 
-0.018126 0.664555 -0.5 -0.074466 0 0 58 57 55 255 
-0.018126 0.664555 0.5 -0.074466 0 0 58 57 55 255 
-0.018126 0.739021 0.5 -0.074466 0 0 58 57 55 255 
-0.018126 0.664555 -0.5 -0.074466 0 0 58 57 55 255 
-0.018126 0.739021 0.5 -0.074466 0 0 58 57 55 255 
-0.018126 0.739021 -0.5 -0.074466 0 0 58 57 55 255 
-0.018126 0.164555 0.5 0 0 0.074466 75 72 70 255 
0.981874 0.164555 0.5 0 0 0.074466 75 72 70 255 
0.981874 0.239021 0.5 0 0 0.074466 75 72 70 255 
-0.018126 0.164555 0.5 0 0 0.074466 75 72 70 255 
0.981874 0.239021 0.5 0 0 0.074466 75 72 70 255 
-0.018126 0.239021 0.5 0 0 0.074466 75 72 70 255 
-0.018126 0.239021 0.5 -0 1 0 91 88 86 255 
0.981874 0.239021 0.5 -0 1 0 91 88 86 255 
0.981874 0.239021 -0.5 -0 1 0 91 88 86 255 
-0.018126 0.239021 0.5 0 1 0 91 88 86 255 
0.981874 0.239021 -0.5 0 1 0 91 88 86 255 
-0.018126 0.239021 -0.5 0 1 0 91 88 86 255 
-0.018126 0.239021 -0.5 0 0 -0.074466 75 72 70 255 
0.981874 0.239021 -0.5 0 0 -0.074466 75 72 70 255 
0.981874 0.164555 -0.5 0 0 -0.074466 75 72 70 255 
-0.018126 0.239021 -0.5 0 0 -0.074466 75 72 70 255 
0.981874 0.164555 -0.5 0 0 -0.074466 75 72 70 255 
-0.018126 0.164555 -0.5 0 0 -0.074466 75 72 70 255 
-0.018126 0.164555 -0.5 0 -1 0 44 43 42 255 
0.981874 0.164555 -0.5 0 -1 0 44 43 42 255 
0.981874 0.164555 0.5 0 -1 0 44 43 42 255 
-0.018126 0.164555 -0.5 0 -1 0 44 43 42 255 
0.981874 0.164555 0.5 0 -1 0 44 43 42 255 
-0.018126 0.164555 0.5 0 -1 0 44 43 42 255 
0.981874 0.164555 0.5 0.074466 0 0 58 57 55 255 
0.981874 0.164555 -0.5 0.074466 0 0 58 57 55 255 
0.981874 0.239021 -0.5 0.074466 0 0 58 57 55 255 
0.981874 0.164555 0.5 0.074466 -0 0 58 57 55 255 
0.981874 0.239021 -0.5 0.074466 -0 0 58 57 55 255 
0.981874 0.239021 0.5 0.074466 -0 0 58 57 55 255 
-0.018126 0.164555 -0.5 -0.074466 0 0 58 57 55 255 
-0.018126 0.164555 0.5 -0.074466 0 0 58 57 55 255 
-0.018126 0.239021 0.5 -0.074466 0 0 58 57 55 255 
-0.018126 0.164555 -0.5 -0.074466 0 0 58 57 55 255 
-0.018126 0.239021 0.5 -0.074466 0 0 58 57 55 255 
-0.018126 0.239021 -0.5 -0.074466 0 0 58 57 55 255 
-0.977076 1.66455 0.5 0 0 0.145883 75 72 70 255 
0.981874 1.66455 0.5 0 0 0.145883 75 72 70 255 
0.981874 1.73902 0.5 0 0 0.145883 75 72 70 255 
-0.977076 1.66455 0.5 0 0 0.145883 75 72 70 255 
0.981874 1.73902 0.5 0 0 0.145883 75 72 70 255 
-0.977076 1.73902 0.5 0 0 0.145883 75 72 70 255 
-0.977076 1.73902 0.5 -0 1.95895 0 91 88 86 255 
0.981874 1.73902 0.5 -0 1.95895 0 91 88 86 255 
0.981874 1.73902 -0.5 -0 1.95895 0 91 88 86 255 
-0.977076 1.73902 0.5 0 1.95895 0 91 88 86 255 
0.981874 1.73902 -0.5 0 1.95895 0 91 88 86 255 
-0.977076 1.73902 -0.5 0 1.95895 0 91 88 86 255 
-0.977076 1.73902 -0.5 0 0 -0.145883 75 72 70 255 
0.981874 1.73902 -0.5 0 0 -0.145883 75 72 70 255 
0.981874 1.66455 -0.5 0 0 -0.145883 75 72 70 255 
-0.977076 1.73902 -0.5 0 0 -0.145883 75 72 70 255 
0.981874 1.66455 -0.5 0 0 -0.145883 75 72 70 255 
-0.977076 1.66455 -0.5 0 0 -0.145883 75 72 70 255 
-0.977076 1.66455 -0.5 0 -1.95895 0 44 43 42 255 
0.981874 1.66455 -0.5 0 -1.95895 0 44 43 42 255 
0.981874 1.66455 0.5 0 -1.95895 0 44 43 42 255 
-0.977076 1.66455 -0.5 0 -1.95895 0 44 43 42 255 
0.981874 1.66455 0.5 0 -1.95895 0 44 43 42 255 
-0.977076 1.66455 0.5 0 -1.95895 0 44 43 42 255 
0.981874 1.66455 0.5 0.07447 0 0 58 57 55 255 
0.981874 1.66455 -0.5 0.07447 0 0 58 57 55 255 
0.981874 1.73902 -0.5 0.07447 0 0 58 57 55 255 
0.981874 1.66455 0.5 0.07447 -0 0 58 57 55 255 
0.981874 1.73902 -0.5 0.07447 -0 0 58 57 55 255 
0.981874 1.73902 0.5 0.07447 -0 0 58 57 55 255 
-0.977076 1.66455 -0.5 -0.07447 0 0 58 57 55 255 
-0.977076 1.66455 0.5 -0.07447 0 0 58 57 55 255 
-0.977076 1.73902 0.5 -0.07447 0 0 58 57 55 255 
-0.977076 1.66455 -0.5 -0.07447 0 0 58 57 55 255 
-0.977076 1.73902 0.5 -0.07447 0 0 58 57 55 255 
-0.977076 1.73902 -0.5 -0.07447 0 0 58 57 55 255 
0.901169 0 -0.419291 0 0 0.22479 157 152 148 255 
1.02633 0 -0.419291 0 0 0.22479 157 152 148 255 
1.02633 1.79601 -0.419291 0 0 0.22479 157 152 148 255 
0.901169 0 -0.419291 0 0 0.22479 157 152 148 255 
1.02633 1.79601 -0.419291 0 0 0.22479 157 152 148 255 
0.901169 1.79601 -0.419291 0 0 0.22479 157 152 148 255 
0.901169 1.79601 -0.419291 -0 0.0156658 0 172 167 162 255 
1.02633 1.79601 -0.419291 -0 0.0156658 0 172 167 162 255 
1.02633 1.79601 -0.544456 -0 0.0156658 0 172 167 162 255 
0.901169 1.79601 -0.419291 0 0.0156658 0 172 167 162 255 
1.02633 1.79601 -0.544456 0 0.0156658 0 172 167 162 255 
0.901169 1.79601 -0.544456 0 0.0156658 0 172 167 162 255 
0.901169 1.79601 -0.544456 0 0 -0.22479 157 152 148 255 
1.02633 1.79601 -0.544456 0 0 -0.22479 157 152 148 255 
1.02633 0 -0.544456 0 0 -0.22479 157 152 148 255 
0.901169 1.79601 -0.544456 0 0 -0.22479 157 152 148 255 
1.02633 0 -0.544456 0 0 -0.22479 157 152 148 255 
0.901169 0 -0.544456 0 0 -0.22479 157 152 148 255 
0.901169 0 -0.544456 0 -0.0156658 0 125 121 118 255 
1.02633 0 -0.544456 0 -0.0156658 0 125 121 118 255 
1.02633 0 -0.419291 0 -0.0156658 0 125 121 118 255 
0.901169 0 -0.544456 0 -0.0156658 0 125 121 118 255 
1.02633 0 -0.419291 0 -0.0156658 0 125 121 118 255 
0.901169 0 -0.419291 0 -0.0156658 0 125 121 118 255 
1.02633 0 -0.419291 0.224798 0 0 141 137 133 255 
1.02633 0 -0.544456 0.224798 0 0 141 137 133 255 
1.02633 1.79601 -0.544456 0.224798 0 0 141 137 133 255 
1.02633 0 -0.419291 0.224798 -0 0 141 137 133 255 
1.02633 1.79601 -0.544456 0.224798 -0 0 141 137 133 255 
1.02633 1.79601 -0.419291 0.224798 -0 0 141 137 133 255 
0.901169 0 -0.544456 -0.224798 0 0 141 137 133 255 
0.901169 0 -0.419291 -0.224798 0 0 141 137 133 255 
0.901169 1.79601 -0.419291 -0.224798 0 0 141 137 133 255 
0.901169 0 -0.544456 -0.224798 0 0 141 137 133 255 
0.901169 1.79601 -0.419291 -0.224798 0 0 141 137 133 255 
0.901169 1.79601 -0.544456 -0.224798 0 0 141 137 133 255 
-0.062582 0 -0.419291 0 0 0.224799 157 152 148 255 
0.062584 0 -0.419291 0 0 0.224799 157 152 148 255 
0.062584 1.79601 -0.419291 0 0 0.224799 157 152 148 255 
-0.062582 0 -0.419291 0 0 0.224799 157 152 148 255 
0.062584 1.79601 -0.419291 0 0 0.224799 157 152 148 255 
-0.062582 1.79601 -0.419291 0 0 0.224799 157 152 148 255 
-0.062582 1.79601 -0.419291 -0 0.0156664 0 172 167 162 255 
0.062584 1.79601 -0.419291 -0 0.0156664 0 172 167 162 255 
0.062584 1.79601 -0.544456 -0 0.0156664 0 172 167 162 255 
-0.062582 1.79601 -0.419291 0 0.0156664 0 172 167 162 255 
0.062584 1.79601 -0.544456 0 0.0156664 0 172 167 162 255 
-0.062582 1.79601 -0.544456 0 0.0156664 0 172 167 162 255 
-0.062582 1.79601 -0.544456 0 0 -0.224799 157 152 148 255 
0.062584 1.79601 -0.544456 0 0 -0.224799 157 152 148 255 
0.062584 0 -0.544456 0 0 -0.224799 157 152 148 255 
-0.062582 1.79601 -0.544456 0 0 -0.224799 157 152 148 255 
0.062584 0 -0.544456 0 0 -0.224799 157 152 148 255 
-0.062582 0 -0.544456 0 0 -0.224799 157 152 148 255 
-0.062582 0 -0.544456 0 -0.0156664 0 125 121 118 255 
0.062584 0 -0.544456 0 -0.0156664 0 125 121 118 255 
0.062584 0 -0.419291 0 -0.0156664 0 125 121 118 255 
-0.062582 0 -0.544456 0 -0.0156664 0 125 121 118 255 
0.062584 0 -0.419291 0 -0.0156664 0 125 121 118 255 
-0.062582 0 -0.419291 0 -0.0156664 0 125 121 118 255 
0.062584 0 -0.419291 0.224798 0 0 141 137 133 255 
0.062584 0 -0.544456 0.224798 0 0 141 137 133 255 
0.062584 1.79601 -0.544456 0.224798 0 0 141 137 133 255 
0.062584 0 -0.419291 0.224798 -0 0 141 137 133 255 
0.062584 1.79601 -0.544456 0.224798 -0 0 141 137 133 255 
0.062584 1.79601 -0.419291 0.224798 -0 0 141 137 133 255 
-0.062582 0 -0.544456 -0.224798 0 0 141 137 133 255 
-0.062582 0 -0.419291 -0.224798 0 0 141 137 133 255 
-0.062582 1.79601 -0.419291 -0.224798 0 0 141 137 133 255 
-0.062582 0 -0.544456 -0.224798 0 0 141 137 133 255 
-0.062582 1.79601 -0.419291 -0.224798 0 0 141 137 133 255 
-0.062582 1.79601 -0.544456 -0.224798 0 0 141 137 133 255 
0.901169 0 0.544456 0 0 0.22479 157 152 148 255 
1.02633 0 0.544456 0 0 0.22479 157 152 148 255 
1.02633 1.79601 0.544456 0 0 0.22479 157 152 148 255 
0.901169 0 0.544456 0 0 0.22479 157 152 148 255 
1.02633 1.79601 0.544456 0 0 0.22479 157 152 148 255 
0.901169 1.79601 0.544456 0 0 0.22479 157 152 148 255 
0.901169 1.79601 0.544456 -0 0.0156658 0 172 167 162 255 
1.02633 1.79601 0.544456 -0 0.0156658 0 172 167 162 255 
1.02633 1.79601 0.419291 -0 0.0156658 0 172 167 162 255 
0.901169 1.79601 0.544456 0 0.0156658 0 172 167 162 255 
1.02633 1.79601 0.419291 0 0.0156658 0 172 167 162 255 
0.901169 1.79601 0.419291 0 0.0156658 0 172 167 162 255 
0.901169 1.79601 0.419291 0 0 -0.22479 157 152 148 255 
1.02633 1.79601 0.419291 0 0 -0.22479 157 152 148 255 
1.02633 0 0.419291 0 0 -0.22479 157 152 148 255 
0.901169 1.79601 0.419291 0 0 -0.22479 157 152 148 255 
1.02633 0 0.419291 0 0 -0.22479 157 152 148 255 
0.901169 0 0.419291 0 0 -0.22479 157 152 148 255 
0.901169 0 0.419291 0 -0.0156658 0 125 121 118 255 
1.02633 0 0.419291 0 -0.0156658 0 125 121 118 255 
1.02633 0 0.544456 0 -0.0156658 0 125 121 118 255 
0.901169 0 0.419291 0 -0.0156658 0 125 121 118 255 
1.02633 0 0.544456 0 -0.0156658 0 125 121 118 255 
0.901169 0 0.544456 0 -0.0156658 0 125 121 118 255 
1.02633 0 0.544456 0.224798 0 0 141 137 133 255 
1.02633 0 0.419291 0.224798 0 0 141 137 133 255 
1.02633 1.79601 0.419291 0.224798 0 0 141 137 133 255 
1.02633 0 0.544456 0.224798 -0 0 141 137 133 255 
1.02633 1.79601 0.419291 0.224798 -0 0 141 137 133 255 
1.02633 1.79601 0.544456 0.224798 -0 0 141 137 133 255 
0.901169 0 0.419291 -0.224798 0 0 141 137 133 255 
0.901169 0 0.544456 -0.224798 0 0 141 137 133 255 
0.901169 1.79601 0.544456 -0.224798 0 0 141 137 133 255 
0.901169 0 0.419291 -0.224798 0 0 141 137 133 255 
0.901169 1.79601 0.544456 -0.224798 0 0 141 137 133 255 
0.901169 1.79601 0.419291 -0.224798 0 0 141 137 133 255 
-0.062582 0 0.544456 0 0 0.224799 157 152 148 255 
0.062584 0 0.544456 0 0 0.224799 157 152 148 255 
0.062584 1.79601 0.544456 0 0 0.224799 157 152 148 255 
-0.062582 0 0.544456 0 0 0.224799 157 152 148 255 
0.062584 1.79601 0.544456 0 0 0.224799 157 152 148 255 
-0.062582 1.79601 0.544456 0 0 0.224799 157 152 148 255 
-0.062582 1.79601 0.544456 -0 0.0156664 0 172 167 162 255 
0.062584 1.79601 0.544456 -0 0.0156664 0 172 167 162 255 
0.062584 1.79601 0.419291 -0 0.0156664 0 172 167 162 255 
-0.062582 1.79601 0.544456 0 0.0156664 0 172 167 162 255 
0.062584 1.79601 0.419291 0 0.0156664 0 172 167 162 255 
-0.062582 1.79601 0.419291 0 0.0156664 0 172 167 162 255 
-0.062582 1.79601 0.419291 0 0 -0.224799 157 152 148 255 
0.062584 1.79601 0.419291 0 0 -0.224799 157 152 148 255 
0.062584 0 0.419291 0 0 -0.224799 157 152 148 255 
-0.062582 1.79601 0.419291 0 0 -0.224799 157 152 148 255 
0.062584 0 0.419291 0 0 -0.224799 157 152 148 255 
-0.062582 0 0.419291 0 0 -0.224799 157 152 148 255 
-0.062582 0 0.419291 0 -0.0156664 0 125 121 118 255 
0.062584 0 0.419291 0 -0.0156664 0 125 121 118 255 
0.062584 0 0.544456 0 -0.0156664 0 125 121 118 255 
-0.062582 0 0.419291 0 -0.0156664 0 125 121 118 255 
0.062584 0 0.544456 0 -0.0156664 0 125 121 118 255 
-0.062582 0 0.544456 0 -0.0156664 0 125 121 118 255 
0.062584 0 0.544456 0.224798 0 0 141 137 133 255 
0.062584 0 0.419291 0.224798 0 0 141 137 133 255 
0.062584 1.79601 0.419291 0.224798 0 0 141 137 133 255 
0.062584 0 0.544456 0.224798 -0 0 141 137 133 255 
0.062584 1.79601 0.419291 0.224798 -0 0 141 137 133 255 
0.062584 1.79601 0.544456 0.224798 -0 0 141 137 133 255 
-0.062582 0 0.419291 -0.224798 0 0 141 137 133 255 
-0.062582 0 0.544456 -0.224798 0 0 141 137 133 255 
-0.062582 1.79601 0.544456 -0.224798 0 0 141 137 133 255 
-0.062582 0 0.419291 -0.224798 0 0 141 137 133 255 
-0.062582 1.79601 0.544456 -0.224798 0 0 141 137 133 255 
-0.062582 1.79601 0.419291 -0.224798 0 0 141 137 133 255 
-1.02633 0 -0.419291 0 0 0.224798 157 152 148 255 
-0.901165 0 -0.419291 0 0 0.224798 157 152 148 255 
-0.901165 1.79601 -0.419291 0 0 0.224798 157 152 148 255 
-1.02633 0 -0.419291 0 0 0.224798 157 152 148 255 
-0.901165 1.79601 -0.419291 0 0 0.224798 157 152 148 255 
-1.02633 1.79601 -0.419291 0 0 0.224798 157 152 148 255 
-1.02633 1.79601 -0.419291 -0 0.0156663 0 172 167 162 255 
-0.901165 1.79601 -0.419291 -0 0.0156663 0 172 167 162 255 
-0.901165 1.79601 -0.544456 -0 0.0156663 0 172 167 162 255 
-1.02633 1.79601 -0.419291 0 0.0156663 0 172 167 162 255 
-0.901165 1.79601 -0.544456 0 0.0156663 0 172 167 162 255 
-1.02633 1.79601 -0.544456 0 0.0156663 0 172 167 162 255 
-1.02633 1.79601 -0.544456 0 0 -0.224798 157 152 148 255 
-0.901165 1.79601 -0.544456 0 0 -0.224798 157 152 148 255 
-0.901165 0 -0.544456 0 0 -0.224798 157 152 148 255 
-1.02633 1.79601 -0.544456 0 0 -0.224798 157 152 148 255 
-0.901165 0 -0.544456 0 0 -0.224798 157 152 148 255 
-1.02633 0 -0.544456 0 0 -0.224798 157 152 148 255 
-1.02633 0 -0.544456 0 -0.0156663 0 125 121 118 255 
-0.901165 0 -0.544456 0 -0.0156663 0 125 121 118 255 
-0.901165 0 -0.419291 0 -0.0156663 0 125 121 118 255 
-1.02633 0 -0.544456 0 -0.0156663 0 125 121 118 255 
-0.901165 0 -0.419291 0 -0.0156663 0 125 121 118 255 
-1.02633 0 -0.419291 0 -0.0156663 0 125 121 118 255 
-0.901165 0 -0.419291 0.224798 0 0 141 137 133 255 
-0.901165 0 -0.544456 0.224798 0 0 141 137 133 255 
-0.901165 1.79601 -0.544456 0.224798 0 0 141 137 133 255 
-0.901165 0 -0.419291 0.224798 -0 0 141 137 133 255 
-0.901165 1.79601 -0.544456 0.224798 -0 0 141 137 133 255 
-0.901165 1.79601 -0.419291 0.224798 -0 0 141 137 133 255 
-1.02633 0 -0.544456 -0.224798 0 0 141 137 133 255 
-1.02633 0 -0.419291 -0.224798 0 0 141 137 133 255 
-1.02633 1.79601 -0.419291 -0.224798 0 0 141 137 133 255 
-1.02633 0 -0.544456 -0.224798 0 0 141 137 133 255 
-1.02633 1.79601 -0.419291 -0.224798 0 0 141 137 133 255 
-1.02633 1.79601 -0.544456 -0.224798 0 0 141 137 133 255 
-1.02633 0 0.544456 0 0 0.224798 157 152 148 255 
-0.901165 0 0.544456 0 0 0.224798 157 152 148 255 
-0.901165 1.79601 0.544456 0 0 0.224798 157 152 148 255 
-1.02633 0 0.544456 0 0 0.224798 157 152 148 255 
-0.901165 1.79601 0.544456 0 0 0.224798 157 152 148 255 
-1.02633 1.79601 0.544456 0 0 0.224798 157 152 148 255 
-1.02633 1.79601 0.544456 -0 0.0156663 0 172 167 162 255 
-0.901165 1.79601 0.544456 -0 0.0156663 0 172 167 162 255 
-0.901165 1.79601 0.419291 -0 0.0156663 0 172 167 162 255 
-1.02633 1.79601 0.544456 0 0.0156663 0 172 167 162 255 
-0.901165 1.79601 0.419291 0 0.0156663 0 172 167 162 255 
-1.02633 1.79601 0.419291 0 0.0156663 0 172 167 162 255 
-1.02633 1.79601 0.419291 0 0 -0.224798 157 152 148 255 
-0.901165 1.79601 0.419291 0 0 -0.224798 157 152 148 255 
-0.901165 0 0.419291 0 0 -0.224798 157 152 148 255 
-1.02633 1.79601 0.419291 0 0 -0.224798 157 152 148 255 
-0.901165 0 0.419291 0 0 -0.224798 157 152 148 255 
-1.02633 0 0.419291 0 0 -0.224798 157 152 148 255 
-1.02633 0 0.419291 0 -0.0156663 0 125 121 118 255 
-0.901165 0 0.419291 0 -0.0156663 0 125 121 118 255 
-0.901165 0 0.544456 0 -0.0156663 0 125 121 118 255 
-1.02633 0 0.419291 0 -0.0156663 0 125 121 118 255 
-0.901165 0 0.544456 0 -0.0156663 0 125 121 118 255 
-1.02633 0 0.544456 0 -0.0156663 0 125 121 118 255 
-0.901165 0 0.544456 0.224798 0 0 141 137 133 255 
-0.901165 0 0.419291 0.224798 0 0 141 137 133 255 
-0.901165 1.79601 0.419291 0.224798 0 0 141 137 133 255 
-0.901165 0 0.544456 0.224798 -0 0 141 137 133 255 
-0.901165 1.79601 0.419291 0.224798 -0 0 141 137 133 255 
-0.901165 1.79601 0.544456 0.224798 -0 0 141 137 133 255 
-1.02633 0 0.419291 -0.224798 0 0 141 137 133 255 
-1.02633 0 0.544456 -0.224798 0 0 141 137 133 255 
-1.02633 1.79601 0.544456 -0.224798 0 0 141 137 133 255 
-1.02633 0 0.419291 -0.224798 0 0 141 137 133 255 
-1.02633 1.79601 0.544456 -0.224798 0 0 141 137 133 255 
-1.02633 1.79601 0.419291 -0.224798 0 0 141 137 133 255 
-0.928909 0.575087 0.447035 0 0 0.183523 108 105 102 255 
-0.481873 0.575087 0.447035 0 0 0.183523 108 105 102 255 
-0.481873 0.985619 0.447035 0 0 0.183523 108 105 102 255 
-0.928909 0.575087 0.447035 0 0 0.183523 108 105 102 255 
-0.481873 0.985619 0.447035 0 0 0.183523 108 105 102 255 
-0.928909 0.985619 0.447035 0 0 0.183523 108 105 102 255 
-0.132816 1.06228 0.34906 0 0.487366 0 91 88 86 255 
-0.132816 1.06228 -0.349055 0 0.487366 0 91 88 86 255 
-0.830933 1.06228 -0.349055 0 0.487366 0 91 88 86 255 
-0.132816 1.06228 0.34906 0 0.487366 0 91 88 86 255 
-0.830933 1.06228 -0.349055 0 0.487366 0 91 88 86 255 
-0.830933 1.06228 0.34906 0 0.487366 0 91 88 86 255 
-0.928909 1.06228 -0.447032 0 0 -0.802628 108 105 102 255 
-0.03484 1.06228 -0.447032 0 0 -0.802628 108 105 102 255 
-0.03484 0.164555 -0.447032 0 0 -0.802628 108 105 102 255 
-0.928909 1.06228 -0.447032 0 0 -0.802628 108 105 102 255 
-0.03484 0.164555 -0.447032 0 0 -0.802628 108 105 102 255 
-0.928909 0.164555 -0.447032 0 0 -0.802628 108 105 102 255 
-0.928909 0.164555 -0.447032 0 -0.799358 0 75 72 70 255 
-0.03484 0.164555 -0.447032 0 -0.799358 0 75 72 70 255 
-0.03484 0.164555 0.447035 0 -0.799358 0 75 72 70 255 
-0.928909 0.164555 -0.447032 0 -0.799358 0 75 72 70 255 
-0.03484 0.164555 0.447035 0 -0.799358 0 75 72 70 255 
-0.928909 0.164555 0.447035 0 -0.799358 0 75 72 70 255 
-0.928909 0.985619 0.447035 -0.802626 0 -0 91 88 86 255 
-0.928909 1.06228 -0.447032 -0.802626 0 -0 91 88 86 255 
-0.928909 0.164555 -0.447032 -0.802626 0 -0 91 88 86 255 
-0.928909 0.985619 0.447035 -0.734086 -0 0 91 88 86 255 
-0.928909 0.164555 -0.447032 -0.734086 -0 0 91 88 86 255 
-0.928909 0.164555 0.447035 -0.734086 -0 0 91 88 86 255 
-0.928909 0.985619 0.447035 0 0 0 91 88 86 255 
-0.928909 0.164555 0.447035 0 0 0 91 88 86 255 
-0.928909 0.575087 0.447035 0 0 0 91 88 86 255 
-0.03484 0.985619 0.447035 0 0 0 91 88 86 255 
-0.03484 0.575087 0.447035 0 0 0 91 88 86 255 
-0.03484 0.164555 0.447035 0 0 0 91 88 86 255 
-0.03484 0.985619 0.447035 0.734086 0 0 91 88 86 255 
-0.03484 0.164555 0.447035 0.734086 0 0 91 88 86 255 
-0.03484 0.164555 -0.447032 0.734086 0 0 91 88 86 255 
-0.03484 0.985619 0.447035 0.802626 0 0 91 88 86 255 
-0.03484 0.164555 -0.447032 0.802626 0 0 91 88 86 255 
-0.03484 1.06228 -0.447032 0.802626 0 0 91 88 86 255 
-0.928909 0.164555 0.447035 0 0 0.367044 108 105 102 255 
-0.03484 0.164555 0.447035 0 0 0.367044 108 105 102 255 
-0.03484 0.575087 0.447035 0 0 0.367044 108 105 102 255 
-0.928909 0.164555 0.447035 0 0 0.183521 108 105 102 255 
-0.03484 0.575087 0.447035 0 0 0.183521 108 105 102 255 
-0.481873 0.575087 0.447035 0 0 0.183521 108 105 102 255 
-0.928909 0.164555 0.447035 0 0 0.183523 108 105 102 255 
-0.481873 0.575087 0.447035 0 0 0.183523 108 105 102 255 
-0.928909 0.575087 0.447035 0 0 0.183523 108 105 102 255 
-0.481873 0.985619 0.447035 0 0 0.183521 108 105 102 255 
-0.481873 0.575087 0.447035 0 0 0.183521 108 105 102 255 
-0.03484 0.575087 0.447035 0 0 0.183521 108 105 102 255 
-0.481873 0.985619 0.447035 -0 0 0.183521 108 105 102 255 
-0.03484 0.575087 0.447035 -0 0 0.183521 108 105 102 255 
-0.03484 0.985619 0.447035 -0 0 0.183521 108 105 102 255 
-0.03484 0.985619 0.447035 0.0685401 -0 0 91 88 86 255 
-0.03484 1.06228 -0.447032 0.0685401 -0 0 91 88 86 255 
-0.03484 1.06228 0.447035 0.0685401 -0 0 91 88 86 255 
-0.928909 1.06228 -0.447032 -0.0685401 0 0 91 88 86 255 
-0.928909 0.985619 0.447035 -0.0685401 0 0 91 88 86 255 
-0.928909 1.06228 0.447035 -0.0685401 0 0 91 88 86 255 
-0.928909 1.06228 0.447035 0 0 0.0342702 108 105 102 255 
-0.928909 0.985619 0.447035 0 0 0.0342702 108 105 102 255 
-0.481873 0.985619 0.447035 0 0 0.0342702 108 105 102 255 
-0.928909 1.06228 0.447035 0 0 0.03427 108 105 102 255 
-0.481873 0.985619 0.447035 0 0 0.03427 108 105 102 255 
-0.03484 0.985619 0.447035 0 0 0.03427 108 105 102 255 
-0.928909 1.06228 0.447035 -0 0 0.0685403 108 105 102 255 
-0.03484 0.985619 0.447035 -0 0 0.0685403 108 105 102 255 
-0.03484 1.06228 0.447035 -0 0 0.0685403 108 105 102 255 
-0.03484 1.06228 0.447035 0 0.0875971 0 125 121 118 255 
-0.03484 1.06228 -0.447032 0 0.0875971 0 125 121 118 255 
-0.132816 1.06228 -0.349055 0 0.0875971 0 125 121 118 255 
-0.03484 1.06228 0.447035 0 0.0683985 0 125 121 118 255 
-0.132816 1.06228 -0.349055 0 0.0683985 0 125 121 118 255 
-0.132816 1.06228 0.34906 0 0.0683985 0 125 121 118 255 
-0.03484 1.06228 -0.447032 0 0.0875982 0 125 121 118 255 
-0.928909 1.06228 -0.447032 0 0.0875982 0 125 121 118 255 
-0.830933 1.06228 -0.349055 0 0.0875982 0 125 121 118 255 
-0.03484 1.06228 -0.447032 0 0.0683994 0 125 121 118 255 
-0.830933 1.06228 -0.349055 0 0.0683994 0 125 121 118 255 
-0.132816 1.06228 -0.349055 0 0.0683994 0 125 121 118 255 
-0.928909 1.06228 -0.447032 0 0.0875971 0 125 121 118 255 
-0.928909 1.06228 0.447035 0 0.0875971 0 125 121 118 255 
-0.830933 1.06228 0.34906 0 0.0875971 0 125 121 118 255 
-0.928909 1.06228 -0.447032 0 0.0683985 0 125 121 118 255 
-0.830933 1.06228 0.34906 0 0.0683985 0 125 121 118 255 
-0.830933 1.06228 -0.349055 0 0.0683985 0 125 121 118 255 
-0.830933 1.06228 0.34906 0 0.0875964 -0 125 121 118 255 
-0.928909 1.06228 0.447035 0 0.0875964 -0 125 121 118 255 
-0.03484 1.06228 0.447035 0 0.0875964 -0 125 121 118 255 
-0.830933 1.06228 0.34906 0 0.068398 0 125 121 118 255 
-0.03484 1.06228 0.447035 0 0.068398 0 125 121 118 255 
-0.132816 1.06228 0.34906 0 0.068398 0 125 121 118 255 
3 0 1 2
3 3 4 5
3 6 7 8
3 9 10 11
3 12 13 14
3 15 16 17
3 18 19 20
3 21 22 23
3 24 25 26
3 27 28 29
3 30 31 32
3 33 34 35
3 36 37 38
3 39 40 41
3 42 43 44
3 45 46 47
3 48 49 50
3 51 52 53
3 54 55 56
3 57 58 59
3 60 61 62
3 63 64 65
3 66 67 68
3 69 70 71
3 72 73 74
3 75 76 77
3 78 79 80
3 81 82 83
3 84 85 86
3 87 88 89
3 90 91 92
3 93 94 95
3 96 97 98
3 99 100 101
3 102 103 104
3 105 106 107
3 108 109 110
3 111 112 113
3 114 115 116
3 117 118 119
3 120 121 122
3 123 124 125
3 126 127 128
3 129 130 131
3 132 133 134
3 135 136 137
3 138 139 140
3 141 142 143
3 144 145 146
3 147 148 149
3 150 151 152
3 153 154 155
3 156 157 158
3 159 160 161
3 162 163 164
3 165 166 167
3 168 169 170
3 171 172 173
3 174 175 176
3 177 178 179
3 180 181 182
3 183 184 185
3 186 187 188
3 189 190 191
3 192 193 194
3 195 196 197
3 198 199 200
3 201 202 203
3 204 205 206
3 207 208 209
3 210 211 212
3 213 214 215
3 216 217 218
3 219 220 221
3 222 223 224
3 225 226 227
3 228 229 230
3 231 232 233
3 234 235 236
3 237 238 239
3 240 241 242
3 243 244 245
3 246 247 248
3 249 250 251
3 252 253 254
3 255 256 257
3 258 259 260
3 261 262 263
3 264 265 266
3 267 268 269
3 270 271 272
3 273 274 275
3 276 277 278
3 279 280 281
3 282 283 284
3 285 286 287
3 288 289 290
3 291 292 293
3 294 295 296
3 297 298 299
3 300 301 302
3 303 304 305
3 306 307 308
3 309 310 311
3 312 313 314
3 315 316 317
3 318 319 320
3 321 322 323
3 324 325 326
3 327 328 329
3 330 331 332
3 333 334 335
3 336 337 338
3 339 340 341
3 342 343 344
3 345 346 347
3 348 349 350
3 351 352 353
3 354 355 356
3 357 358 359
3 360 361 362
3 363 364 365
3 366 367 368
3 369 370 371
3 372 373 374
3 375 376 377
3 378 379 380
3 381 382 383
3 384 385 386
3 387 388 389
3 390 391 392
3 393 394 395
3 396 397 398
3 399 400 401
3 402 403 404
3 405 406 407
3 408 409 410
3 411 412 413
3 414 415 416
3 417 418 419
3 420 421 422
3 423 424 425
3 426 427 428
3 429 430 431
3 432 433 434
3 435 436 437
3 438 439 440
3 441 442 443
3 444 445 446
3 447 448 449
3 450 451 452
3 453 454 455
