ply
format ascii 1.0
comment Feeney's Flatenator generated
comment TextureFile SpaceInteriors_Texture.png
element vertex 510
property float x
property float y
property float z
property float nx
property float ny
property float nz
property float texture_u
property float texture_v
element face 170
property list uchar int vertex_indices
end_header
-0.613768 0.808742 0.450862 -0 0.00406968 0.0041231 0.240323 0.44366 
-0.502693 0.808742 0.450862 -0 0.00406968 0.0041231 0.240323 0.44366 
-0.528707 0.845862 0.414223 -0 0.00406968 0.0041231 0.240323 0.44366 
-0.613768 0.808742 0.450862 0 0.00216346 0.00219186 0.240323 0.44366 
-0.528707 0.845862 0.414223 0 0.00216346 0.00219186 0.240323 0.44366 
-0.587755 0.845862 0.414223 0 0.00216346 0.00219186 0.240323 0.44366 
-0.578876 1.11275 0.31284 0 0.00145938 -0.000441929 0.2598 0.062866 
-0.536178 1.11275 0.31284 0 0.00145938 -0.000441929 0.2598 0.062866 
-0.536178 1.1024 0.278661 0 0.00145938 -0.000441929 0.2598 0.062866 
-0.578876 1.11275 0.31284 0 0.00145938 -0.000441929 0.2598 0.062866 
-0.536178 1.1024 0.278661 0 0.00145938 -0.000441929 0.2598 0.062866 
-0.578876 1.1024 0.278661 0 0.00145938 -0.000441929 0.2598 0.062866 
-0.587755 0.828745 0.35771 0 0.00105826 -0.00118114 0.240323 0.44366 
-0.528707 0.828745 0.35771 0 0.00105826 -0.00118114 0.240323 0.44366 
-0.502693 0.808742 0.339788 0 0.00105826 -0.00118114 0.240323 0.44366 
-0.587755 0.828745 0.35771 0 0.00199069 -0.00222184 0.240323 0.44366 
-0.502693 0.808742 0.339788 0 0.00199069 -0.00222184 0.240323 0.44366 
-0.613768 0.808742 0.339788 0 0.00199069 -0.00222184 0.240323 0.44366 
-0.653639 0.602227 0.269035 0 -0.0481966 0 0.177277 0.06 
-0.462822 0.602227 0.269035 0 -0.0481966 0 0.177277 0.06 
-0.462822 0.602227 0.521615 0 -0.0481966 0 0.177277 0.06 
-0.653639 0.602227 0.269035 0 -0.0481966 0 0.177277 0.06 
-0.462822 0.602227 0.521615 0 -0.0481966 0 0.177277 0.06 
-0.653639 0.602227 0.521615 0 -0.0481966 0 0.177277 0.06 
-0.502693 0.808742 0.450862 0.00222182 0.00288948 0 0.209391 0.44366 
-0.502693 0.808742 0.339788 0.00222182 0.00288948 0 0.209391 0.44366 
-0.528707 0.828745 0.35771 0.00222182 0.00288948 0 0.209391 0.44366 
-0.502693 0.808742 0.450862 0.00272491 0.00147013 -0.000445281 0.209391 0.44366 
-0.528707 0.828745 0.35771 0.00272491 0.00147013 -0.000445281 0.209391 0.44366 
-0.528707 0.845862 0.414223 0.00272491 0.00147013 -0.000445281 0.209391 0.44366 
-0.613768 0.808742 0.339788 -0.00412307 0.00288936 0 0.209391 0.44366 
-0.613768 0.808742 0.450862 -0.00412307 0.00288936 0 0.209391 0.44366 
-0.587755 0.845862 0.414223 -0.00412307 0.00288936 0 0.209391 0.44366 
-0.613768 0.808742 0.339788 -0.00082366 0.00147007 -0.000445263 0.209391 0.44366 
-0.587755 0.845862 0.414223 -0.00082366 0.00147007 -0.000445263 0.209391 0.44366 
-0.587755 0.828745 0.35771 -0.00082366 0.00147007 -0.000445263 0.209391 0.44366 
-0.615105 0.782263 0.33845 -0.00150594 0.000761668 0 0.202035 0.44366 
-0.615105 0.782263 0.4522 -0.00150594 0.000761668 0 0.202035 0.44366 
-0.608409 0.795502 0.445503 -0.00150594 0.000761668 0 0.202035 0.44366 
-0.615105 0.782263 0.33845 -0.00132863 0.000671989 0 0.202035 0.44366 
-0.608409 0.795502 0.445503 -0.00132863 0.000671989 0 0.202035 0.44366 
-0.608409 0.795502 0.345146 -0.00132863 0.000671989 0 0.202035 0.44366 
-0.615105 0.782263 0.4522 -0 0.000761777 0.00150593 0.232967 0.44366 
-0.501356 0.782263 0.4522 -0 0.000761777 0.00150593 0.232967 0.44366 
-0.508052 0.795502 0.445503 -0 0.000761777 0.00150593 0.232967 0.44366 
-0.615105 0.782263 0.4522 0 0.000672091 0.00132863 0.232967 0.44366 
-0.508052 0.795502 0.445503 0 0.000672091 0.00132863 0.232967 0.44366 
-0.608409 0.795502 0.445503 0 0.000672091 0.00132863 0.232967 0.44366 
-0.501356 0.782263 0.4522 0.00150594 0.000761668 0 0.202035 0.44366 
-0.501356 0.782263 0.33845 0.00150594 0.000761668 0 0.202035 0.44366 
-0.508052 0.795502 0.345146 0.00150594 0.000761668 0 0.202035 0.44366 
-0.501356 0.782263 0.4522 0.00132863 0.000671989 0 0.202035 0.44366 
-0.508052 0.795502 0.345146 0.00132863 0.000671989 0 0.202035 0.44366 
-0.508052 0.795502 0.445503 0.00132863 0.000671989 0 0.202035 0.44366 
-0.608409 0.795502 0.345146 0 0.000671989 -0.00132863 0.232967 0.44366 
-0.508052 0.795502 0.345146 0 0.000671989 -0.00132863 0.232967 0.44366 
-0.501356 0.782263 0.33845 0 0.000671989 -0.00132863 0.232967 0.44366 
-0.608409 0.795502 0.345146 0 0.000761661 -0.00150593 0.232967 0.44366 
-0.501356 0.782263 0.33845 0 0.000761661 -0.00150593 0.232967 0.44366 
-0.615105 0.782263 0.33845 0 0.000761661 -0.00150593 0.232967 0.44366 
-0.587755 1.00187 0.366972 0 -0.000222139 0.00122347 0.199028 0.062866 
-0.528707 1.00187 0.366972 0 -0.000222139 0.00122347 0.199028 0.062866 
-0.519099 1.02259 0.370734 0 -0.000222139 0.00122347 0.199028 0.062866 
-0.587755 1.00187 0.366972 0 -0.000434256 0.00239175 0.199028 0.062866 
-0.519099 1.02259 0.370734 0 -0.000434256 0.00239175 0.199028 0.062866 
-0.634531 1.02259 0.370734 0 -0.000434256 0.00239175 0.199028 0.062866 
-0.587755 0.984751 0.310459 -0.00110655 -0.00264345 0.000800761 0.168096 0.062866 
-0.587755 1.00187 0.366972 -0.00110655 -0.00264345 0.000800761 0.168096 0.062866 
-0.634531 1.02259 0.370734 -0.00110655 -0.00264345 0.000800761 0.168096 0.062866 
-0.587755 0.984751 0.310459 -0.00146686 -0.00350366 0.00106116 0.168096 0.062866 
-0.634531 1.02259 0.370734 -0.00146686 -0.00350366 0.00106116 0.168096 0.062866 
-0.634531 0.999904 0.295831 -0.00146686 -0.00350366 0.00106116 0.168096 0.062866 
-0.634531 0.999904 0.295831 0 -0.00168854 -0.00174914 0.199028 0.062866 
-0.519099 0.999904 0.295831 0 -0.00168854 -0.00174914 0.199028 0.062866 
-0.528707 0.984751 0.310459 0 -0.00168854 -0.00174914 0.199028 0.062866 
-0.634531 0.999904 0.295831 0 -0.000863754 -0.000894754 0.199028 0.062866 
-0.528707 0.984751 0.310459 0 -0.000863754 -0.000894754 0.199028 0.062866 
-0.587755 0.984751 0.310459 0 -0.000863754 -0.000894754 0.199028 0.062866 
-0.528707 1.00187 0.366972 0.00110676 -0.000542979 0.00016448 0.168096 0.062866 
-0.528707 0.984751 0.310459 0.00110676 -0.000542979 0.00016448 0.168096 0.062866 
-0.519099 0.999904 0.295831 0.00110676 -0.000542979 0.00016448 0.168095 0.062866 
-0.528707 1.00187 0.366972 0.00146665 -0.00071967 0.000217968 0.168096 0.062866 
-0.519099 0.999904 0.295831 0.00146665 -0.00071967 0.000217968 0.168095 0.062866 
-0.519099 1.02259 0.370734 0.00146665 -0.00071967 0.000217968 0.168096 0.062866 
-0.634531 1.02259 0.370734 -0 0.00169373 0.00559268 0.230864 0.062866 
-0.519099 1.02259 0.370734 -0 0.00169373 0.00559268 0.230864 0.062866 
-0.519099 1.07104 0.356061 -0 0.00169373 0.00559268 0.230864 0.062866 
-0.634531 1.02259 0.370734 0 0.00169373 0.00559268 0.230864 0.062866 
-0.519099 1.07104 0.356061 0 0.00169373 0.00559268 0.230864 0.062866 
-0.634531 1.07104 0.356061 0 0.00169373 0.00559268 0.230864 0.062866 
-0.634531 0.999904 0.295831 -0.00396192 0 0 0.199932 0.062866 
-0.634531 1.02259 0.370734 -0.00396192 0 0 0.199932 0.062866 
-0.634531 1.07104 0.356061 -0.00396192 0 0 0.199932 0.062866 
-0.634531 0.999904 0.295831 -0.00396168 0 0 0.199932 0.062866 
-0.634531 1.07104 0.356061 -0.00396168 0 0 0.199932 0.062866 
-0.634531 1.04835 0.281158 -0.00396168 0 0 0.199932 0.062866 
-0.634531 1.04835 0.281158 0 -0.00169373 -0.00559222 0.230864 0.062866 
-0.519099 1.04835 0.281158 0 -0.00169373 -0.00559222 0.230864 0.062866 
-0.519099 0.999904 0.295831 0 -0.00169373 -0.00559222 0.230864 0.062866 
-0.634531 1.04835 0.281158 0 -0.00169373 -0.00559222 0.230864 0.062866 
-0.519099 0.999904 0.295831 0 -0.00169373 -0.00559222 0.230864 0.062866 
-0.634531 0.999904 0.295831 0 -0.00169373 -0.00559222 0.230864 0.062866 
-0.519099 1.02259 0.370734 0.00396162 0 0 0.199932 0.062866 
-0.519099 0.999904 0.295831 0.00396162 0 0 0.199932 0.062866 
-0.519099 1.04835 0.281158 0.00396162 0 0 0.199932 0.062866 
-0.519099 1.02259 0.370734 0.00396198 0 0 0.199932 0.062866 
-0.519099 1.04835 0.281158 0.00396198 0 0 0.199932 0.062866 
-0.519099 1.07104 0.356061 0.00396198 0 0 0.199932 0.062866 
-0.587755 0.844638 0.352896 -0.00864471 0 0 0.199932 0.062866 
-0.587755 0.861755 0.409409 -0.00864471 0 0 0.199932 0.062866 
-0.587755 1.00187 0.366972 -0.00864471 0 0 0.199932 0.062866 
-0.587755 0.844638 0.352896 -0.00864469 0 0 0.199932 0.062866 
-0.587755 1.00187 0.366972 -0.00864469 0 0 0.199932 0.062866 
-0.587755 0.984751 0.310459 -0.00864469 0 0 0.199932 0.062866 
-0.587755 0.861755 0.409409 -0 0.00250582 0.00827351 0.230864 0.062866 
-0.528707 0.861755 0.409409 -0 0.00250582 0.00827351 0.230864 0.062866 
-0.528707 1.00187 0.366972 -0 0.00250582 0.00827351 0.230864 0.062866 
-0.587755 0.861755 0.409409 0 0.00250582 0.00827351 0.230864 0.062866 
-0.528707 1.00187 0.366972 0 0.00250582 0.00827351 0.230864 0.062866 
-0.587755 1.00187 0.366972 0 0.00250582 0.00827351 0.230864 0.062866 
-0.528707 0.861755 0.409409 0.0086446 0 0 0.199932 0.062866 
-0.528707 0.844638 0.352896 0.0086446 0 0 0.199932 0.062866 
-0.528707 0.984751 0.310459 0.0086446 0 0 0.199932 0.062866 
-0.528707 0.861755 0.409409 0.0086448 0 0 0.199932 0.062866 
-0.528707 0.984751 0.310459 0.0086448 0 0 0.199932 0.062866 
-0.528707 1.00187 0.366972 0.0086448 0 0 0.199932 0.062866 
-0.587755 0.984751 0.310459 0 -0.00250582 -0.00827339 0.230864 0.062866 
-0.528707 0.984751 0.310459 0 -0.00250582 -0.00827339 0.230864 0.062866 
-0.528707 0.844638 0.352896 0 -0.00250582 -0.00827339 0.230864 0.062866 
-0.587755 0.984751 0.310459 0 -0.00250582 -0.00827339 0.230864 0.062866 
-0.528707 0.844638 0.352896 0 -0.00250582 -0.00827339 0.230864 0.062866 
-0.587755 0.844638 0.352896 0 -0.00250582 -0.00827339 0.230864 0.062866 
-0.634531 1.07104 0.356061 0 0.00179058 -0.000542538 0.2598 0.062866 
-0.519099 1.07104 0.356061 0 0.00179058 -0.000542538 0.2598 0.062866 
-0.525526 1.06634 0.340549 0 0.00179058 -0.000542538 0.2598 0.062866 
-0.634531 1.07104 0.356061 0 0.000992801 -0.000300814 0.2598 0.062866 
-0.525526 1.06634 0.340549 0 0.000992801 -0.000300814 0.2598 0.062866 
-0.589528 1.06634 0.340549 0 0.000992801 -0.000300814 0.2598 0.062866 
-0.519099 1.07104 0.356061 -1.62167e-07 0.000481401 -0.000145829 0.2598 0.062866 
-0.519099 1.04835 0.281158 -1.62167e-07 0.000481401 -0.000145829 0.2598 0.062866 
-0.525526 1.05082 0.289319 -1.62167e-07 0.000481401 -0.000145829 0.2598 0.062866 
-0.519099 1.07104 0.356061 -3.80678e-08 0.000329255 -9.97467e-05 0.2598 0.062866 
-0.525526 1.05082 0.289319 -3.80678e-08 0.000329255 -9.97467e-05 0.2598 0.062866 
-0.525526 1.06634 0.340549 -3.80678e-08 0.000329255 -9.97467e-05 0.2598 0.062866 
-0.519099 1.04835 0.281158 0 0.000942042 -0.000285119 0.2598 0.062866 
-0.634531 1.04835 0.281158 0 0.000942042 -0.000285119 0.2598 0.062866 
-0.589528 1.05082 0.289319 0 0.000942042 -0.000285119 0.2598 0.062866 
-0.519099 1.04835 0.281158 0 0.000522321 -0.000158086 0.2598 0.062866 
-0.589528 1.05082 0.289319 0 0.000522321 -0.000158086 0.2598 0.062866 
-0.525526 1.05082 0.289319 0 0.000522321 -0.000158086 0.2598 0.062866 
-0.634531 1.04835 0.281158 8.03266e-08 0.00337086 -0.00102112 0.2598 0.062866 
-0.634531 1.07104 0.356061 8.03266e-08 0.00337086 -0.00102112 0.2598 0.062866 
-0.589528 1.06634 0.340549 8.03266e-08 0.00337086 -0.00102112 0.2598 0.062866 
-0.634531 1.04835 0.281158 1.19762e-07 0.0023055 -0.000698445 0.2598 0.062866 
-0.589528 1.06634 0.340549 1.19762e-07 0.0023055 -0.000698445 0.2598 0.062866 
-0.589528 1.05082 0.289319 1.19762e-07 0.0023055 -0.000698445 0.2598 0.062866 
-0.568171 1.07891 0.33304 -0 0.000235361 0.000394254 0.265504 0.169691 
-0.546883 1.07891 0.33304 -0 0.000235361 0.000394254 0.265504 0.169691 
-0.546883 1.09743 0.321984 -0 0.000235361 0.000394254 0.265504 0.169691 
-0.568171 1.07891 0.33304 0 0.000235361 0.000394254 0.265504 0.169691 
-0.546883 1.09743 0.321984 0 0.000235361 0.000394254 0.265504 0.169691 
-0.568171 1.09743 0.321984 0 0.000235361 0.000394254 0.265504 0.169691 
-0.525526 1.06634 0.340549 0.00280785 0.000545702 -0.000165319 0.198324 0.062866 
-0.525526 1.05082 0.289319 0.00280785 0.000545702 -0.000165319 0.198324 0.062866 
-0.536178 1.1024 0.278661 0.00280785 0.000545702 -0.000165319 0.198324 0.062866 
-0.525526 1.06634 0.340549 0.00187304 0.000364075 -0.000110249 0.198324 0.062866 
-0.536178 1.1024 0.278661 0.00187304 0.000364075 -0.000110249 0.198324 0.062866 
-0.536178 1.11275 0.31284 0.00187304 0.000364075 -0.000110249 0.198324 0.062866 
-0.525526 1.05082 0.289319 -0 -0.000682133 -0.00330122 0.232356 0.062866 
-0.589528 1.05082 0.289319 -0 -0.000682133 -0.00330122 0.232356 0.062866 
-0.578876 1.1024 0.278661 -0 -0.000682133 -0.00330122 0.232356 0.062866 
-0.525526 1.05082 0.289319 0 -0.000455075 -0.00220236 0.232356 0.062866 
-0.578876 1.1024 0.278661 0 -0.000455075 -0.00220236 0.232356 0.062866 
-0.536178 1.1024 0.278661 0 -0.000455075 -0.00220236 0.232356 0.062866 
-0.589528 1.05082 0.289319 -0.00280763 0.000545702 -0.000165319 0.198324 0.062866 
-0.589528 1.06634 0.340549 -0.00280763 0.000545702 -0.000165319 0.198324 0.062866 
-0.578876 1.11275 0.31284 -0.00280763 0.000545702 -0.000165319 0.198324 0.062866 
-0.589528 1.05082 0.289319 -0.00187326 0.000364075 -0.000110249 0.198324 0.062866 
-0.578876 1.11275 0.31284 -0.00187326 0.000364075 -0.000110249 0.198324 0.062866 
-0.578876 1.1024 0.278661 -0.00187326 0.000364075 -0.000110249 0.198324 0.062866 
-0.589528 1.06634 0.340549 -0 0.000480591 0.000804507 0.232356 0.062866 
-0.525526 1.06634 0.340549 -0 0.000480591 0.000804507 0.232356 0.062866 
-0.546883 1.07891 0.33304 -0 0.000480591 0.000804507 0.232356 0.062866 
-0.589528 1.06634 0.340549 0 0.000159852 0.000267591 0.232356 0.062866 
-0.546883 1.07891 0.33304 0 0.000159852 0.000267591 0.232356 0.062866 
-0.568171 1.07891 0.33304 0 0.000159852 0.000267591 0.232356 0.062866 
-0.525526 1.06634 0.340549 -1.30502e-07 0.000394026 0.000660009 0.232356 0.062866 
-0.536178 1.11275 0.31284 -1.30502e-07 0.000394026 0.000660009 0.232356 0.062866 
-0.546883 1.09743 0.321984 -1.30502e-07 0.000394026 0.000660009 0.232356 0.062866 
-0.525526 1.06634 0.340549 -9.22882e-08 0.000236123 0.000395532 0.232356 0.062866 
-0.546883 1.09743 0.321984 -9.22882e-08 0.000236123 0.000395532 0.232356 0.062866 
-0.546883 1.07891 0.33304 -9.22882e-08 0.000236123 0.000395532 0.232356 0.062866 
-0.536178 1.11275 0.31284 0 0.00039043 0.000654136 0.232356 0.062866 
-0.578876 1.11275 0.31284 0 0.00039043 0.000654136 0.232356 0.062866 
-0.568171 1.09743 0.321984 0 0.00039043 0.000654136 0.232356 0.062866 
-0.536178 1.11275 0.31284 0 0.000194657 0.000326134 0.232356 0.062866 
-0.568171 1.09743 0.321984 0 0.000194657 0.000326134 0.232356 0.062866 
-0.546883 1.09743 0.321984 0 0.000194657 0.000326134 0.232356 0.062866 
-0.578876 1.11275 0.31284 1.90455e-07 0.000511795 0.000857284 0.232356 0.062866 
-0.589528 1.06634 0.340549 1.90455e-07 0.000511795 0.000857284 0.232356 0.062866 
-0.568171 1.07891 0.33304 1.90455e-07 0.000511795 0.000857284 0.232356 0.062866 
-0.578876 1.11275 0.31284 3.2247e-08 0.000118354 0.000198256 0.232356 0.062866 
-0.568171 1.07891 0.33304 3.2247e-08 0.000118354 0.000198256 0.232356 0.062866 
-0.568171 1.09743 0.321984 3.2247e-08 0.000118354 0.000198256 0.232356 0.062866 
-0.599861 0.825236 0.346124 -0.00138262 0 0 0.199932 0.062866 
-0.599861 0.849371 0.425809 -0.00138262 0 0 0.199932 0.062866 
-0.599861 0.865264 0.420995 -0.00138262 0 0 0.199932 0.062866 
-0.599861 0.825236 0.346124 -0.00138262 0 0 0.199932 0.062866 
-0.599861 0.865264 0.420995 -0.00138262 0 0 0.199932 0.062866 
-0.599861 0.841129 0.34131 -0.00138262 0 0 0.199932 0.062866 
-0.599861 0.849371 0.425809 -0 0.000400814 0.00132325 0.230864 0.062866 
-0.516601 0.849371 0.425809 -0 0.000400814 0.00132325 0.230864 0.062866 
-0.516601 0.865264 0.420995 -0 0.000400814 0.00132325 0.230864 0.062866 
-0.599861 0.849371 0.425809 0 0.000400814 0.00132325 0.230864 0.062866 
-0.516601 0.865264 0.420995 0 0.000400814 0.00132325 0.230864 0.062866 
-0.599861 0.865264 0.420995 0 0.000400814 0.00132325 0.230864 0.062866 
-0.516601 0.849371 0.425809 0.00138262 0 0 0.199932 0.062866 
-0.516601 0.825236 0.346124 0.00138262 0 0 0.199932 0.062866 
-0.516601 0.841129 0.34131 0.00138262 0 0 0.199932 0.062866 
-0.516601 0.849371 0.425809 0.00138262 0 0 0.199932 0.062866 
-0.516601 0.841129 0.34131 0.00138262 0 0 0.199932 0.062866 
-0.516601 0.865264 0.420995 0.00138262 0 0 0.199932 0.062866 
-0.599861 0.841129 0.34131 0 -0.000400814 -0.00132325 0.230864 0.062866 
-0.516601 0.841129 0.34131 0 -0.000400814 -0.00132325 0.230864 0.062866 
-0.516601 0.825236 0.346124 0 -0.000400814 -0.00132325 0.230864 0.062866 
-0.599861 0.841129 0.34131 0 -0.000400814 -0.00132325 0.230864 0.062866 
-0.516601 0.825236 0.346124 0 -0.000400814 -0.00132325 0.230864 0.062866 
-0.599861 0.825236 0.346124 0 -0.000400814 -0.00132325 0.230864 0.062866 
-0.587755 0.828745 0.35771 1.07102e-08 -0.000684146 0.000207218 0.173085 0.063085 
-0.587755 0.845862 0.414223 1.07102e-08 -0.000684146 0.000207218 0.173085 0.063085 
-0.599861 0.849371 0.425809 1.07102e-08 -0.000684146 0.000207218 0.173085 0.063085 
-0.587755 0.828745 0.35771 -1.48138e-08 -0.000964667 0.000292178 0.173085 0.063085 
-0.599861 0.849371 0.425809 -1.48138e-08 -0.000964667 0.000292178 0.173085 0.063085 
-0.599861 0.825236 0.346124 -1.48138e-08 -0.000964667 0.000292178 0.173085 0.063085 
-0.587755 0.861755 0.409409 1.47847e-08 0.000684146 -0.000207219 0.270356 0.063085 
-0.587755 0.844638 0.352896 1.47847e-08 0.000684146 -0.000207219 0.270356 0.063085 
-0.599861 0.841129 0.34131 1.47847e-08 0.000684146 -0.000207219 0.270356 0.063085 
-0.587755 0.861755 0.409409 -1.48138e-08 0.000964667 -0.000292178 0.270356 0.063085 
-0.599861 0.841129 0.34131 -1.48138e-08 0.000964667 -0.000292178 0.270356 0.063085 
-0.599861 0.865264 0.420995 -1.48138e-08 0.000964667 -0.000292178 0.270356 0.063085 
-0.587755 0.845862 0.414223 0 -0.000684131 0.000207202 0.173085 0.063085 
-0.528707 0.845862 0.414223 0 -0.000684131 0.000207202 0.173085 0.063085 
-0.516601 0.849371 0.425809 0 -0.000684131 0.000207202 0.173085 0.063085 
-0.587755 0.845862 0.414223 0 -0.000964651 0.000292163 0.173085 0.063085 
-0.516601 0.849371 0.425809 0 -0.000964651 0.000292163 0.173085 0.063085 
-0.599861 0.849371 0.425809 0 -0.000964651 0.000292163 0.173085 0.063085 
-0.528707 0.861755 0.409409 0 0.000684131 -0.000207199 0.270356 0.063085 
-0.587755 0.861755 0.409409 0 0.000684131 -0.000207199 0.270356 0.063085 
-0.599861 0.865264 0.420995 0 0.000684131 -0.000207199 0.270356 0.063085 
-0.528707 0.861755 0.409409 0 0.000964651 -0.000292158 0.270356 0.063085 
-0.599861 0.865264 0.420995 0 0.000964651 -0.000292158 0.270356 0.063085 
-0.516601 0.865264 0.420995 0 0.000964651 -0.000292158 0.270356 0.063085 
-0.528707 0.845862 0.414223 1.40863e-08 -0.000684146 0.000207218 0.173085 0.063085 
-0.528707 0.828745 0.35771 1.40863e-08 -0.000684146 0.000207218 0.173085 0.063085 
-0.516601 0.825236 0.346124 1.40863e-08 -0.000684146 0.000207218 0.173085 0.063085 
-0.528707 0.845862 0.414223 -1.00554e-08 -0.000964667 0.000292178 0.173085 0.063085 
-0.516601 0.825236 0.346124 -1.00554e-08 -0.000964667 0.000292178 0.173085 0.063085 
-0.516601 0.849371 0.425809 -1.00554e-08 -0.000964667 0.000292178 0.173085 0.063085 
-0.528707 0.844638 0.352896 1.47847e-08 0.000684146 -0.000207219 0.270356 0.063085 
-0.528707 0.861755 0.409409 1.47847e-08 0.000684146 -0.000207219 0.270356 0.063085 
-0.516601 0.865264 0.420995 1.47847e-08 0.000684146 -0.000207219 0.270356 0.063085 
-0.528707 0.844638 0.352896 -1.48138e-08 0.000964667 -0.000292178 0.270356 0.063085 
-0.516601 0.865264 0.420995 -1.48138e-08 0.000964667 -0.000292178 0.270356 0.063085 
-0.516601 0.841129 0.34131 -1.48138e-08 0.000964667 -0.000292178 0.270356 0.063085 
-0.587755 0.844638 0.352896 0 0.000684131 -0.000207199 0.270356 0.063085 
-0.528707 0.844638 0.352896 0 0.000684131 -0.000207199 0.270356 0.063085 
-0.516601 0.841129 0.34131 0 0.000684131 -0.000207199 0.270356 0.063085 
-0.587755 0.844638 0.352896 0 0.000964651 -0.000292158 0.270356 0.063085 
-0.516601 0.841129 0.34131 0 0.000964651 -0.000292158 0.270356 0.063085 
-0.599861 0.841129 0.34131 0 0.000964651 -0.000292158 0.270356 0.063085 
-0.528707 0.828745 0.35771 0 -0.000684131 0.000207199 0.173085 0.063085 
-0.587755 0.828745 0.35771 0 -0.000684131 0.000207199 0.173085 0.063085 
-0.599861 0.825236 0.346124 0 -0.000684131 0.000207199 0.173085 0.063085 
-0.528707 0.828745 0.35771 0 -0.000964651 0.000292158 0.173085 0.063085 
-0.599861 0.825236 0.346124 0 -0.000964651 0.000292158 0.173085 0.063085 
-0.516601 0.825236 0.346124 0 -0.000964651 0.000292158 0.173085 0.063085 
-0.608409 0.769024 0.345146 -0.00132862 -0.000671989 0 0.141754 0.44366 
-0.608409 0.769024 0.445503 -0.00132862 -0.000671989 0 0.141754 0.44366 
-0.615105 0.782263 0.4522 -0.00132862 -0.000671989 0 0.141754 0.44366 
-0.608409 0.769024 0.345146 -0.00150593 -0.000761668 0 0.141754 0.44366 
-0.615105 0.782263 0.4522 -0.00150593 -0.000761668 0 0.141754 0.44366 
-0.615105 0.782263 0.33845 -0.00150593 -0.000761668 0 0.141754 0.44366 
-0.608409 0.769024 0.445503 0 -0.000672091 0.00132862 0.172687 0.44366 
-0.508052 0.769024 0.445503 0 -0.000672091 0.00132862 0.172687 0.44366 
-0.501356 0.782263 0.4522 0 -0.000672091 0.00132862 0.172687 0.44366 
-0.608409 0.769024 0.445503 0 -0.000761777 0.00150592 0.172687 0.44366 
-0.501356 0.782263 0.4522 0 -0.000761777 0.00150592 0.172687 0.44366 
-0.615105 0.782263 0.4522 0 -0.000761777 0.00150592 0.172687 0.44366 
-0.508052 0.769024 0.445503 0.00132862 -0.000671989 0 0.141754 0.44366 
-0.508052 0.769024 0.345146 0.00132862 -0.000671989 0 0.141754 0.44366 
-0.501356 0.782263 0.33845 0.00132862 -0.000671989 0 0.141754 0.44366 
-0.508052 0.769024 0.445503 0.00150593 -0.000761668 0 0.141754 0.44366 
-0.501356 0.782263 0.33845 0.00150593 -0.000761668 0 0.141754 0.44366 
-0.501356 0.782263 0.4522 0.00150593 -0.000761668 0 0.141754 0.44366 
-0.615105 0.782263 0.33845 0 -0.000761661 -0.00150592 0.172687 0.44366 
-0.501356 0.782263 0.33845 0 -0.000761661 -0.00150592 0.172687 0.44366 
-0.508052 0.769024 0.345146 0 -0.000761661 -0.00150592 0.172687 0.44366 
-0.615105 0.782263 0.33845 0 -0.000671989 -0.00132862 0.172687 0.44366 
-0.508052 0.769024 0.345146 0 -0.000671989 -0.00132862 0.172687 0.44366 
-0.608409 0.769024 0.345146 0 -0.000671989 -0.00132862 0.172687 0.44366 
-0.608409 0.795502 0.445503 0 -0.000537813 0.00132872 0.172687 0.44366 
-0.508052 0.795502 0.445503 0 -0.000537813 0.00132872 0.172687 0.44366 
-0.502693 0.808742 0.450862 0 -0.000537813 0.00132872 0.172687 0.44366 
-0.608409 0.795502 0.445503 0 -0.00059525 0.00147063 0.172687 0.44366 
-0.502693 0.808742 0.450862 0 -0.00059525 0.00147063 0.172687 0.44366 
-0.613768 0.808742 0.450862 0 -0.00059525 0.00147063 0.172687 0.44366 
-0.608409 0.795502 0.345146 -0.00132872 -0.000537813 0 0.141754 0.44366 
-0.608409 0.795502 0.445503 -0.00132872 -0.000537813 0 0.141754 0.44366 
-0.613768 0.808742 0.450862 -0.00132872 -0.000537813 0 0.141754 0.44366 
-0.608409 0.795502 0.345146 -0.00147062 -0.000595245 0 0.141754 0.44366 
-0.613768 0.808742 0.450862 -0.00147062 -0.000595245 0 0.141754 0.44366 
-0.613768 0.808742 0.339788 -0.00147062 -0.000595245 0 0.141754 0.44366 
-0.613768 0.808742 0.339788 0 -0.000595141 -0.00147063 0.172687 0.44366 
-0.502693 0.808742 0.339788 0 -0.000595141 -0.00147063 0.172687 0.44366 
-0.508052 0.795502 0.345146 0 -0.000595141 -0.00147063 0.172687 0.44366 
-0.613768 0.808742 0.339788 0 -0.000537714 -0.00132872 0.172687 0.44366 
-0.508052 0.795502 0.345146 0 -0.000537714 -0.00132872 0.172687 0.44366 
-0.608409 0.795502 0.345146 0 -0.000537714 -0.00132872 0.172687 0.44366 
-0.508052 0.795502 0.445503 0.00132872 -0.000537813 0 0.141754 0.44366 
-0.508052 0.795502 0.345146 0.00132872 -0.000537813 0 0.141754 0.44366 
-0.502693 0.808742 0.339788 0.00132872 -0.000537813 0 0.141754 0.44366 
-0.508052 0.795502 0.445503 0.00147062 -0.000595245 0 0.141754 0.44366 
-0.502693 0.808742 0.339788 0.00147062 -0.000595245 0 0.141754 0.44366 
-0.502693 0.808742 0.450862 0.00147062 -0.000595245 0 0.141754 0.44366 
-0.615793 0.755785 0.337763 -0.00152413 0.000850076 0 0.202035 0.44366 
-0.615793 0.755785 0.452887 -0.00152413 0.000850076 0 0.202035 0.44366 
-0.608409 0.769024 0.445503 -0.00152413 0.000850076 0 0.202035 0.44366 
-0.615793 0.755785 0.337763 -0.00132863 0.000741036 0 0.202035 0.44366 
-0.608409 0.769024 0.445503 -0.00132863 0.000741036 0 0.202035 0.44366 
-0.608409 0.769024 0.345146 -0.00132863 0.000741036 0 0.202035 0.44366 
-0.615793 0.755785 0.452887 -0 0.000850076 0.00152413 0.232967 0.44366 
-0.500669 0.755785 0.452887 -0 0.000850076 0.00152413 0.232967 0.44366 
-0.508052 0.769024 0.445503 -0 0.000850076 0.00152413 0.232967 0.44366 
-0.615793 0.755785 0.452887 0 0.000741036 0.00132863 0.232967 0.44366 
-0.508052 0.769024 0.445503 0 0.000741036 0.00132863 0.232967 0.44366 
-0.608409 0.769024 0.445503 0 0.000741036 0.00132863 0.232967 0.44366 
-0.500669 0.755785 0.452887 0.00152413 0.000849959 0 0.202035 0.44366 
-0.500669 0.755785 0.337763 0.00152413 0.000849959 0 0.202035 0.44366 
-0.508052 0.769024 0.345146 0.00152413 0.000849959 0 0.202035 0.44366 
-0.500669 0.755785 0.452887 0.00132863 0.000740935 0 0.202035 0.44366 
-0.508052 0.769024 0.345146 0.00132863 0.000740935 0 0.202035 0.44366 
-0.508052 0.769024 0.445503 0.00132863 0.000740935 0 0.202035 0.44366 
-0.608409 0.769024 0.345146 0 0.000740935 -0.00132863 0.232967 0.44366 
-0.508052 0.769024 0.345146 0 0.000740935 -0.00132863 0.232967 0.44366 
-0.500669 0.755785 0.337763 0 0.000740935 -0.00132863 0.232967 0.44366 
-0.608409 0.769024 0.345146 0 0.000849959 -0.00152413 0.232967 0.44366 
-0.500669 0.755785 0.337763 0 0.000849959 -0.00152413 0.232967 0.44366 
-0.615793 0.755785 0.337763 0 0.000849959 -0.00152413 0.232967 0.44366 
-0.615793 0.755785 0.337763 -0 0.00791224 0 0.265343 0.06 
-0.500669 0.755785 0.337763 -0 0.00791224 0 0.265343 0.06 
-0.462822 0.755785 0.269035 -0 0.00791224 0 0.265343 0.06 
-0.615793 0.755785 0.337763 0 0.0131145 0 0.265343 0.06 
-0.462822 0.755785 0.269035 0 0.0131145 0 0.265343 0.06 
-0.653639 0.755785 0.269035 0 0.0131145 0 0.265343 0.06 
-0.500669 0.755785 0.337763 0 0.0043571 0 0.265343 0.06 
-0.500669 0.755785 0.452887 0 0.0043571 0 0.265343 0.06 
-0.462822 0.755785 0.521615 0 0.0043571 0 0.265343 0.06 
-0.500669 0.755785 0.337763 -0 0.0095594 0 0.265343 0.06 
-0.462822 0.755785 0.521615 -0 0.0095594 0 0.265343 0.06 
-0.462822 0.755785 0.269035 -0 0.0095594 0 0.265343 0.06 
-0.500669 0.755785 0.452887 0 0.00791224 0 0.265343 0.06 
-0.615793 0.755785 0.452887 0 0.00791224 0 0.265343 0.06 
-0.653639 0.755785 0.521615 0 0.00791224 0 0.265343 0.06 
-0.500669 0.755785 0.452887 0 0.0131145 -0 0.265343 0.06 
-0.653639 0.755785 0.521615 0 0.0131145 -0 0.265343 0.06 
-0.462822 0.755785 0.521615 0 0.0131145 -0 0.265343 0.06 
-0.615793 0.755785 0.452887 0 0.00435699 0 0.265343 0.06 
-0.615793 0.755785 0.337763 0 0.00435699 0 0.265343 0.06 
-0.653639 0.755785 0.269035 0 0.00435699 0 0.265343 0.06 
-0.615793 0.755785 0.452887 0 0.00955915 0 0.265343 0.06 
-0.653639 0.755785 0.269035 0 0.00955915 0 0.265343 0.06 
-0.653639 0.755785 0.521615 0 0.00955915 0 0.265343 0.06 
-0.653639 0.755785 0.269035 0 0 -0.0293015 0.236257 0.06 
-0.462822 0.755785 0.269035 0 0 -0.0293015 0.236257 0.06 
-0.462822 0.602227 0.269035 0 0 -0.0293015 0.236257 0.06 
-0.653639 0.755785 0.269035 0 0 -0.0293015 0.236257 0.06 
-0.462822 0.602227 0.269035 0 0 -0.0293015 0.236257 0.06 
-0.653639 0.602227 0.269035 0 0 -0.0293015 0.236257 0.06 
-0.462822 0.755785 0.269035 0.0387857 0 -0 0.207979 0.06 
-0.462822 0.755785 0.521615 0.0387857 0 -0 0.207979 0.06 
-0.462822 0.602227 0.521615 0.0387857 0 -0 0.207979 0.06 
-0.462822 0.755785 0.269035 0.0387857 0 0 0.207979 0.06 
-0.462822 0.602227 0.521615 0.0387857 0 0 0.207979 0.06 
-0.462822 0.602227 0.269035 0.0387857 0 0 0.207979 0.06 
-0.462822 0.755785 0.521615 0 0 0.0293015 0.236257 0.06 
-0.653639 0.755785 0.521615 0 0 0.0293015 0.236257 0.06 
-0.653639 0.602227 0.521615 0 0 0.0293015 0.236257 0.06 
-0.462822 0.755785 0.521615 0 0 0.0293015 0.236257 0.06 
-0.653639 0.602227 0.521615 0 0 0.0293015 0.236257 0.06 
-0.462822 0.602227 0.521615 0 0 0.0293015 0.236257 0.06 
-0.653639 0.755785 0.521615 -0.0387857 0 -0 0.207979 0.06 
-0.653639 0.755785 0.269035 -0.0387857 0 -0 0.207979 0.06 
-0.653639 0.602227 0.269035 -0.0387857 0 -0 0.207979 0.06 
-0.653639 0.755785 0.521615 -0.0387857 -0 0 0.207979 0.06 
-0.653639 0.602227 0.269035 -0.0387857 -0 0 0.207979 0.06 
-0.653639 0.602227 0.521615 -0.0387857 -0 0 0.207979 0.06 
-0.88929 0.222791 0.91279 0 0 0.270858 0.509127 0.673526 
-0.11071 0.222791 0.91279 0 0 0.270858 0.75032 0.673526 
-0.11071 0.570678 0.91279 0 0 0.270858 0.75032 0.746468 
-0.88929 0.222791 0.91279 0 0 0.270858 0.509127 0.673526 
-0.11071 0.570678 0.91279 0 0 0.270858 0.75032 0.746468 
-0.88929 0.570678 0.91279 0 0 0.270858 0.509127 0.746468 
-1 0.704394 0 -0 0.600215 0.295606 0.508027 0.880205 
0 0.704394 0 -0 0.600215 0.295606 0.751677 0.880205 
0 1 -0.600215 -0 0.600215 0.295606 0.751677 0.993889 
-1 0.704394 0 0 0.600215 0.295606 0.508027 0.880205 
0 1 -0.600215 0 0.600215 0.295606 0.751677 0.993889 
-1 1 -0.600215 0 0.600215 0.295606 0.508027 0.993889 
-1 1 -1 0 0 -1 0.268278 0.064882 
0 1 -1 0 0 -1 0.268278 0.064882 
0 0 -1 0 0 -1 0.268278 0.064882 
-1 1 -1 0 0 -1 0.268278 0.064882 
0 0 -1 0 0 -1 0.268278 0.064882 
-1 0 -1 0 0 -1 0.268278 0.064882 
0 0.704394 0 0.422788 0 0 0.237346 0.064882 
0 0 0 0.422788 0 0 0.237346 0.064882 
0 0 -0.600215 0.422788 0 0 0.237346 0.064882 
0 0.704394 0 0.600215 0 0 0.237346 0.064882 
0 0 -0.600215 0.600215 0 0 0.237346 0.064882 
0 1 -0.600215 0.600215 0 0 0.237346 0.064882 
-1 1 -0.600215 -0.600215 0 0 0.237346 0.064882 
-1 0 -0.600215 -0.600215 0 0 0.237346 0.064882 
-1 0 0 -0.600215 0 0 0.237346 0.064882 
-1 1 -0.600215 -0.422788 0 0 0.237346 0.064882 
-1 0 0 -0.422788 0 0 0.237346 0.064882 
-1 0.704394 0 -0.422788 0 0 0.237346 0.064882 
-1 0.704394 0 -0.704394 0 0 0.237346 0.064882 
-1 0 0 -0.704394 0 0 0.237346 0.064882 
-1 0 1 -0.704394 0 0 0.237346 0.064882 
-1 0.704394 0 -0.704394 0 0 0.237346 0.064882 
-1 0 1 -0.704394 0 0 0.237346 0.064882 
-1 0.704394 1 -0.704394 0 0 0.237346 0.064882 
-1 0.704394 1 -0 1 0 0.749867 0.789385 
0 0.704394 1 -0 1 0 0.992083 0.789385 
0 0.704394 0 -0 1 0 0.992083 0.993949 
-1 0.704394 1 0 1 0 0.749867 0.789385 
0 0.704394 0 0 1 0 0.992083 0.993949 
-1 0.704394 0 0 1 0 0.749867 0.993949 
0 0 1 0.704394 0 0 0.237346 0.064882 
0 0 0 0.704394 0 0 0.237346 0.064882 
0 0.704394 0 0.704394 0 0 0.237346 0.064882 
0 0 1 0.704394 -0 0 0.237346 0.064882 
0 0.704394 0 0.704394 -0 0 0.237346 0.064882 
0 0.704394 1 0.704394 -0 0 0.237346 0.064882 
-1 1 -0.600215 -0 0.399785 0 0.750601 0.704327 
0 1 -0.600215 -0 0.399785 0 0.990486 0.704327 
0 1 -1 -0 0.399785 0 0.990486 0.791017 
-1 1 -0.600215 0 0.399785 0 0.750601 0.704327 
0 1 -1 0 0.399785 0 0.990486 0.791017 
-1 1 -1 0 0.399785 0 0.750601 0.791017 
-1 0 -1 -0.399785 0 0 0.237346 0.064882 
-1 0 -0.600215 -0.399785 0 0 0.237346 0.064882 
-1 1 -0.600215 -0.399785 0 0 0.237346 0.064882 
-1 0 -1 -0.399785 0 0 0.237346 0.064882 
-1 1 -0.600215 -0.399785 0 0 0.237346 0.064882 
-1 1 -1 -0.399785 0 0 0.237346 0.064882 
0 1 -0.600215 0.399785 0 0 0.237346 0.064882 
0 0 -0.600215 0.399785 0 0 0.237346 0.064882 
0 0 -1 0.399785 0 0 0.237346 0.064882 
0 1 -0.600215 0.399785 0 0 0.237346 0.064882 
0 0 -1 0.399785 0 0 0.237346 0.064882 
0 1 -1 0.399785 0 0 0.237346 0.064882 
-1 0 1 0 0 0.222791 0.268278 0.064882 
0 0 1 0 0 0.222791 0.268278 0.064882 
-0.11071 0.222791 1 0 0 0.222791 0.268278 0.064882 
-1 0 1 0 0 0.173461 0.268278 0.064882 
-0.11071 0.222791 1 0 0 0.173461 0.268278 0.064882 
-0.88929 0.222791 1 0 0 0.173461 0.268278 0.064882 
0 0 1 0 -0 0.0779835 0.268278 0.064882 
0 0.704394 1 0 -0 0.0779835 0.268278 0.064882 
-0.11071 0.570678 1 0 -0 0.0779835 0.268278 0.064882 
0 0 1 0 0 0.0385146 0.268278 0.064882 
-0.11071 0.570678 1 0 0 0.0385146 0.268278 0.064882 
-0.11071 0.222791 1 0 0 0.0385146 0.268278 0.064882 
0 0.704394 1 0 0 0.133716 0.268278 0.064882 
-1 0.704394 1 0 0 0.133716 0.268278 0.064882 
-0.88929 0.570678 1 0 0 0.133716 0.268278 0.064882 
0 0.704394 1 0 0 0.104109 0.268278 0.064882 
-0.88929 0.570678 1 0 0 0.104109 0.268278 0.064882 
-0.11071 0.570678 1 0 0 0.104109 0.268278 0.064882 
-1 0.704394 1 0 0 0.0779835 0.268278 0.064882 
-1 0 1 0 0 0.0779835 0.268278 0.064882 
-0.88929 0.222791 1 0 0 0.0779835 0.268278 0.064882 
-1 0.704394 1 0 0 0.0385146 0.268278 0.064882 
-0.88929 0.222791 1 0 0 0.0385146 0.268278 0.064882 
-0.88929 0.570678 1 0 0 0.0385146 0.268278 0.064882 
-0.88929 0.222791 1 -0 0.0679 0 0.301813 0.064882 
-0.11071 0.222791 1 -0 0.0679 0 0.301813 0.064882 
-0.11071 0.222791 0.91279 -0 0.0679 0 0.301813 0.064882 
-0.88929 0.222791 1 0 0.0679 0 0.301813 0.064882 
-0.11071 0.222791 0.91279 0 0.0679 0 0.301813 0.064882 
-0.88929 0.222791 0.91279 0 0.0679 0 0.301813 0.064882 
-0.11071 0.222791 1 -0.0303392 0 0 0.234743 0.064882 
-0.11071 0.570678 1 -0.0303392 0 0 0.234743 0.064882 
-0.11071 0.570678 0.91279 -0.0303392 0 0 0.234743 0.064882 
-0.11071 0.222791 1 -0.0303392 0 0 0.234743 0.064882 
-0.11071 0.570678 0.91279 -0.0303392 0 0 0.234743 0.064882 
-0.11071 0.222791 0.91279 -0.0303392 0 0 0.234743 0.064882 
-0.11071 0.570678 1 -0 -0.0679 0 0.199155 0.064882 
-0.88929 0.570678 1 -0 -0.0679 0 0.199155 0.064882 
-0.88929 0.570678 0.91279 -0 -0.0679 0 0.199155 0.064882 
-0.11071 0.570678 1 0 -0.0679 -0 0.199155 0.064882 
-0.88929 0.570678 0.91279 0 -0.0679 -0 0.199155 0.064882 
-0.11071 0.570678 0.91279 0 -0.0679 -0 0.199155 0.064882 
-0.88929 0.570678 1 0.0303392 0 0 0.234743 0.064882 
-0.88929 0.222791 1 0.0303392 0 0 0.234743 0.064882 
-0.88929 0.222791 0.91279 0.0303392 0 0 0.234743 0.064882 
-0.88929 0.570678 1 0.0303392 0 0 0.234743 0.064882 
-0.88929 0.222791 0.91279 0.0303392 0 0 0.234743 0.064882 
-0.88929 0.570678 0.91279 0.0303392 0 0 0.234743 0.064882 
3 0 1 2
3 3 4 5
3 6 7 8
3 9 10 11
3 12 13 14
3 15 16 17
3 18 19 20
3 21 22 23
3 24 25 26
3 27 28 29
3 30 31 32
3 33 34 35
3 36 37 38
3 39 40 41
3 42 43 44
3 45 46 47
3 48 49 50
3 51 52 53
3 54 55 56
3 57 58 59
3 60 61 62
3 63 64 65
3 66 67 68
3 69 70 71
3 72 73 74
3 75 76 77
3 78 79 80
3 81 82 83
3 84 85 86
3 87 88 89
3 90 91 92
3 93 94 95
3 96 97 98
3 99 100 101
3 102 103 104
3 105 106 107
3 108 109 110
3 111 112 113
3 114 115 116
3 117 118 119
3 120 121 122
3 123 124 125
3 126 127 128
3 129 130 131
3 132 133 134
3 135 136 137
3 138 139 140
3 141 142 143
3 144 145 146
3 147 148 149
3 150 151 152
3 153 154 155
3 156 157 158
3 159 160 161
3 162 163 164
3 165 166 167
3 168 169 170
3 171 172 173
3 174 175 176
3 177 178 179
3 180 181 182
3 183 184 185
3 186 187 188
3 189 190 191
3 192 193 194
3 195 196 197
3 198 199 200
3 201 202 203
3 204 205 206
3 207 208 209
3 210 211 212
3 213 214 215
3 216 217 218
3 219 220 221
3 222 223 224
3 225 226 227
3 228 229 230
3 231 232 233
3 234 235 236
3 237 238 239
3 240 241 242
3 243 244 245
3 246 247 248
3 249 250 251
3 252 253 254
3 255 256 257
3 258 259 260
3 261 262 263
3 264 265 266
3 267 268 269
3 270 271 272
3 273 274 275
3 276 277 278
3 279 280 281
3 282 283 284
3 285 286 287
3 288 289 290
3 291 292 293
3 294 295 296
3 297 298 299
3 300 301 302
3 303 304 305
3 306 307 308
3 309 310 311
3 312 313 314
3 315 316 317
3 318 319 320
3 321 322 323
3 324 325 326
3 327 328 329
3 330 331 332
3 333 334 335
3 336 337 338
3 339 340 341
3 342 343 344
3 345 346 347
3 348 349 350
3 351 352 353
3 354 355 356
3 357 358 359
3 360 361 362
3 363 364 365
3 366 367 368
3 369 370 371
3 372 373 374
3 375 376 377
3 378 379 380
3 381 382 383
3 384 385 386
3 387 388 389
3 390 391 392
3 393 394 395
3 396 397 398
3 399 400 401
3 402 403 404
3 405 406 407
3 408 409 410
3 411 412 413
3 414 415 416
3 417 418 419
3 420 421 422
3 423 424 425
3 426 427 428
3 429 430 431
3 432 433 434
3 435 436 437
3 438 439 440
3 441 442 443
3 444 445 446
3 447 448 449
3 450 451 452
3 453 454 455
3 456 457 458
3 459 460 461
3 462 463 464
3 465 466 467
3 468 469 470
3 471 472 473
3 474 475 476
3 477 478 479
3 480 481 482
3 483 484 485
3 486 487 488
3 489 490 491
3 492 493 494
3 495 496 497
3 498 499 500
3 501 502 503
3 504 505 506
3 507 508 509
