ply
format ascii 1.0
comment Feeney's Flatenator generated
comment TextureFile SpaceInteriors_Texture.png
element vertex 1068
property float x
property float y
property float z
element face 356
property list uchar int vertex_indices
end_header
-1.23304 0.076337 0 
-0.988018 0.076337 0 
-0.988018 0.411726 0 
-1.23304 0.076337 0 
-0.988018 0.411726 0 
-1.23304 0.411726 0 
-0.180452 0.278218 -0.172706 
-0.180452 0.278218 -1.24615 
-2.04061 0.278218 -1.24615 
-0.180452 0.278218 -0.172706 
-2.04061 0.278218 -1.24615 
-2.04061 0.278218 -0.172706 
-1.23304 0.076337 -1.41886 
-1.23304 0.411726 -1.41886 
-0.988018 0.411726 -1.41886 
-1.23304 0.076337 -1.41886 
-0.988018 0.411726 -1.41886 
-0.988018 0.076337 -1.41886 
2e-06 0 -1.41886 
2e-06 0 0 
-2.22106 0 0 
2e-06 0 -1.41886 
-2.22106 0 0 
-2.22106 0 -1.41886 
-2.22106 0 0 
-2.22106 0.488063 0 
-2.22106 0.488063 -1.41886 
-2.22106 0 0 
-2.22106 0.488063 -1.41886 
-2.22106 0 -1.41886 
2e-06 0 -1.41886 
2e-06 0.488063 -1.41886 
2e-06 0.488063 0 
2e-06 0 -1.41886 
2e-06 0.488063 0 
2e-06 0 0 
2e-06 0.488063 0 
-0.180452 0.488063 -0.172706 
-2.04061 0.488063 -0.172706 
2e-06 0.488063 0 
-2.04061 0.488063 -0.172706 
-2.22106 0.488063 0 
-2.22106 0.488063 0 
-2.04061 0.488063 -0.172706 
-2.04061 0.488063 -1.24615 
-2.22106 0.488063 0 
-2.04061 0.488063 -1.24615 
-2.22106 0.488063 -1.41886 
-2.22106 0.488063 -1.41886 
-2.04061 0.488063 -1.24615 
-0.180452 0.488063 -1.24615 
-2.22106 0.488063 -1.41886 
-0.180452 0.488063 -1.24615 
2e-06 0.488063 -1.41886 
2e-06 0.488063 -1.41886 
-0.180452 0.488063 -1.24615 
-0.180452 0.488063 -0.172706 
2e-06 0.488063 -1.41886 
-0.180452 0.488063 -0.172706 
2e-06 0.488063 0 
-0.180452 0.488063 -0.172706 
-0.180452 0.278218 -0.172706 
-2.04061 0.278218 -0.172706 
-0.180452 0.488063 -0.172706 
-2.04061 0.278218 -0.172706 
-2.04061 0.488063 -0.172706 
-2.04061 0.488063 -0.172706 
-2.04061 0.278218 -0.172706 
-2.04061 0.278218 -1.24615 
-2.04061 0.488063 -0.172706 
-2.04061 0.278218 -1.24615 
-2.04061 0.488063 -1.24615 
-2.04061 0.488063 -1.24615 
-2.04061 0.278218 -1.24615 
-0.180452 0.278218 -1.24615 
-2.04061 0.488063 -1.24615 
-0.180452 0.278218 -1.24615 
-0.180452 0.488063 -1.24615 
-0.180452 0.488063 -1.24615 
-0.180452 0.278218 -1.24615 
-0.180452 0.278218 -0.172706 
-0.180452 0.488063 -1.24615 
-0.180452 0.278218 -0.172706 
-0.180452 0.488063 -0.172706 
2e-06 0 0 
-0.130436 0.076337 0 
-0.375462 0.076337 0 
2e-06 0 0 
-0.375462 0.076337 0 
-0.988018 0.076337 0 
2e-06 0 0 
-0.988018 0.076337 0 
-1.23304 0.076337 0 
2e-06 0 0 
-1.23304 0.076337 0 
-1.8456 0.076337 0 
2e-06 0 0 
-1.8456 0.076337 0 
-2.09062 0.076337 0 
2e-06 0 0 
-2.09062 0.076337 0 
-2.22106 0 0 
-2.22106 0 0 
-2.09062 0.076337 0 
-2.09062 0.411726 0 
-2.22106 0 0 
-2.09062 0.411726 0 
-2.22106 0.488063 0 
-2.22106 0.488063 0 
-2.09062 0.411726 0 
-1.8456 0.411726 0 
-2.22106 0.488063 0 
-1.8456 0.411726 0 
-1.23304 0.411726 0 
-2.22106 0.488063 0 
-1.23304 0.411726 0 
-0.988018 0.411726 0 
-2.22106 0.488063 0 
-0.988018 0.411726 0 
-0.375462 0.411726 0 
-2.22106 0.488063 0 
-0.375462 0.411726 0 
-0.130436 0.411726 0 
-2.22106 0.488063 0 
-0.130436 0.411726 0 
2e-06 0.488063 0 
2e-06 0.488063 0 
-0.130436 0.411726 0 
-0.130436 0.076337 0 
2e-06 0.488063 0 
-0.130436 0.076337 0 
2e-06 0 0 
2e-06 0.488063 -1.41886 
-0.130436 0.411726 -1.41886 
-0.375462 0.411726 -1.41886 
2e-06 0.488063 -1.41886 
-0.375462 0.411726 -1.41886 
-0.988018 0.411726 -1.41886 
2e-06 0.488063 -1.41886 
-0.988018 0.411726 -1.41886 
-1.23304 0.411726 -1.41886 
2e-06 0.488063 -1.41886 
-1.23304 0.411726 -1.41886 
-1.8456 0.411726 -1.41886 
2e-06 0.488063 -1.41886 
-1.8456 0.411726 -1.41886 
-2.09062 0.411726 -1.41886 
2e-06 0.488063 -1.41886 
-2.09062 0.411726 -1.41886 
-2.22106 0.488063 -1.41886 
-2.22106 0.488063 -1.41886 
-2.09062 0.411726 -1.41886 
-2.09062 0.076337 -1.41886 
-2.22106 0.488063 -1.41886 
-2.09062 0.076337 -1.41886 
-2.22106 0 -1.41886 
-2.22106 0 -1.41886 
-2.09062 0.076337 -1.41886 
-1.8456 0.076337 -1.41886 
-2.22106 0 -1.41886 
-1.8456 0.076337 -1.41886 
-1.23304 0.076337 -1.41886 
-2.22106 0 -1.41886 
-1.23304 0.076337 -1.41886 
-0.988018 0.076337 -1.41886 
-2.22106 0 -1.41886 
-0.988018 0.076337 -1.41886 
-0.375462 0.076337 -1.41886 
-2.22106 0 -1.41886 
-0.375462 0.076337 -1.41886 
-0.130436 0.076337 -1.41886 
-2.22106 0 -1.41886 
-0.130436 0.076337 -1.41886 
2e-06 0 -1.41886 
2e-06 0 -1.41886 
-0.130436 0.076337 -1.41886 
-0.130436 0.411726 -1.41886 
2e-06 0 -1.41886 
-0.130436 0.411726 -1.41886 
2e-06 0.488063 -1.41886 
-0.130436 0.076337 0 
-0.130436 0.411726 0 
-0.375462 0.411726 0 
-0.130436 0.076337 0 
-0.375462 0.411726 0 
-0.375462 0.076337 0 
-1.8456 0.076337 -1.41886 
-2.09062 0.076337 -1.41886 
-2.09062 0.411726 -1.41886 
-1.8456 0.076337 -1.41886 
-2.09062 0.411726 -1.41886 
-1.8456 0.411726 -1.41886 
-1.8456 0.411726 -1.41886 
-1.23304 0.411726 -1.41886 
-1.23304 0.076337 -1.41886 
-1.8456 0.411726 -1.41886 
-1.23304 0.076337 -1.41886 
-1.8456 0.076337 -1.41886 
-0.375462 0.411726 -1.41886 
-0.375462 0.076337 -1.41886 
-0.988018 0.076337 -1.41886 
-0.375462 0.411726 -1.41886 
-0.988018 0.076337 -1.41886 
-0.988018 0.411726 -1.41886 
-0.130436 0.411726 -1.41886 
-0.130436 0.076337 -1.41886 
-0.375462 0.076337 -1.41886 
-0.130436 0.411726 -1.41886 
-0.375462 0.076337 -1.41886 
-0.375462 0.411726 -1.41886 
-1.8456 0.411726 0 
-2.09062 0.411726 0 
-2.09062 0.076337 0 
-1.8456 0.411726 0 
-2.09062 0.076337 0 
-1.8456 0.076337 0 
-0.375462 0.411726 0 
-0.988018 0.411726 0 
-0.988018 0.076337 0 
-0.375462 0.411726 0 
-0.988018 0.076337 0 
-0.375462 0.076337 0 
-1.8456 0.411726 0 
-1.8456 0.076337 0 
-1.23304 0.076337 0 
-1.8456 0.411726 0 
-1.23304 0.076337 0 
-1.23304 0.411726 0 
-1.7222 0.665315 -0.162638 
-1.71159 0.685636 -0.350368 
-1.8246 0.689135 -0.338061 
-1.7222 0.665315 -0.162638 
-1.8246 0.689135 -0.338061 
-1.76721 0.666709 -0.157735 
-1.68511 0.605055 -0.094573 
-1.7222 0.665315 -0.162638 
-1.76721 0.666709 -0.157735 
-1.68511 0.605055 -0.094573 
-1.76721 0.666709 -0.157735 
-1.78998 0.608303 -0.083153 
-1.78998 0.608303 -0.083153 
-1.76721 0.666709 -0.157735 
-1.8246 0.689135 -0.338061 
-1.78998 0.608303 -0.083153 
-1.8246 0.689135 -0.338061 
-1.88405 0.645168 -0.379675 
-1.88405 0.645168 -0.379675 
-1.8246 0.689135 -0.338061 
-1.71159 0.685636 -0.350368 
-1.88405 0.645168 -0.379675 
-1.71159 0.685636 -0.350368 
-1.66795 0.638476 -0.40321 
-1.66795 0.638476 -0.40321 
-1.71159 0.685636 -0.350368 
-1.7222 0.665315 -0.162638 
-1.66795 0.638476 -0.40321 
-1.7222 0.665315 -0.162638 
-1.68511 0.605055 -0.094573 
-2.03631 0.558607 -0.305862 
-1.84233 0.625275 -0.317007 
-1.87133 0.629972 -0.41714 
-2.03631 0.558607 -0.305862 
-1.87133 0.629972 -0.41714 
-2.04786 0.560478 -0.34575 
-2.08694 0.481707 -0.268901 
-2.03631 0.558607 -0.305862 
-2.04786 0.560478 -0.34575 
-2.08694 0.481707 -0.268901 
-2.04786 0.560478 -0.34575 
-2.11385 0.486066 -0.36182 
-2.11385 0.486066 -0.36182 
-2.04786 0.560478 -0.34575 
-1.87133 0.629972 -0.41714 
-2.11385 0.486066 -0.36182 
-1.87133 0.629972 -0.41714 
-1.82353 0.600318 -0.478956 
-1.82353 0.600318 -0.478956 
-1.87133 0.629972 -0.41714 
-1.84233 0.625275 -0.317007 
-1.82353 0.600318 -0.478956 
-1.84233 0.625275 -0.317007 
-1.76806 0.591336 -0.287474 
-1.76806 0.591336 -0.287474 
-1.84233 0.625275 -0.317007 
-2.03631 0.558607 -0.305862 
-1.76806 0.591336 -0.287474 
-2.03631 0.558607 -0.305862 
-2.08694 0.481707 -0.268901 
-1.91865 0.848232 -0.558134 
-1.84206 0.885548 -0.408834 
-1.75764 0.876456 -0.459739 
-1.91865 0.848232 -0.558134 
-1.75764 0.876456 -0.459739 
-1.88502 0.84461 -0.578413 
-1.98188 0.792038 -0.590355 
-1.91865 0.848232 -0.558134 
-1.88502 0.84461 -0.578413 
-1.98188 0.792038 -0.590355 
-1.88502 0.84461 -0.578413 
-1.90354 0.783601 -0.637592 
-1.90354 0.783601 -0.637592 
-1.88502 0.84461 -0.578413 
-1.75764 0.876456 -0.459739 
-1.90354 0.783601 -0.637592 
-1.75764 0.876456 -0.459739 
-1.69429 0.835985 -0.442343 
-1.69429 0.835985 -0.442343 
-1.75764 0.876456 -0.459739 
-1.84206 0.885548 -0.408834 
-1.69429 0.835985 -0.442343 
-1.84206 0.885548 -0.408834 
-1.85574 0.853372 -0.345001 
-1.85574 0.853372 -0.345001 
-1.84206 0.885548 -0.408834 
-1.91865 0.848232 -0.558134 
-1.85574 0.853372 -0.345001 
-1.91865 0.848232 -0.558134 
-1.98188 0.792038 -0.590355 
-1.63489 0.594691 -0.624052 
-1.76298 0.617745 -0.484148 
-1.66781 0.613679 -0.433067 
-1.63489 0.594691 -0.624052 
-1.66781 0.613679 -0.433067 
-1.59698 0.593071 -0.603704 
-1.62372 0.537756 -0.698346 
-1.63489 0.594691 -0.624052 
-1.59698 0.593071 -0.603704 
-1.62372 0.537756 -0.698346 
-1.59698 0.593071 -0.603704 
-1.53541 0.533983 -0.650945 
-1.53541 0.533983 -0.650945 
-1.59698 0.593071 -0.603704 
-1.66781 0.613679 -0.433067 
-1.53541 0.533983 -0.650945 
-1.66781 0.613679 -0.433067 
-1.6521 0.567877 -0.370506 
-1.6521 0.567877 -0.370506 
-1.66781 0.613679 -0.433067 
-1.76298 0.617745 -0.484148 
-1.6521 0.567877 -0.370506 
-1.76298 0.617745 -0.484148 
-1.83408 0.575652 -0.468185 
-1.83408 0.575652 -0.468185 
-1.76298 0.617745 -0.484148 
-1.63489 0.594691 -0.624052 
-1.83408 0.575652 -0.468185 
-1.63489 0.594691 -0.624052 
-1.62372 0.537756 -0.698346 
-1.54882 0.935474 -0.428015 
-1.72188 0.989903 -0.432703 
-1.70999 0.982824 -0.342203 
-1.54882 0.935474 -0.428015 
-1.70999 0.982824 -0.342203 
-1.54408 0.932655 -0.391965 
-1.49715 0.873191 -0.462966 
-1.54882 0.935474 -0.428015 
-1.54408 0.932655 -0.391965 
-1.49715 0.873191 -0.462966 
-1.54408 0.932655 -0.391965 
-1.48611 0.866622 -0.378989 
-1.48611 0.866622 -0.378989 
-1.54408 0.932655 -0.391965 
-1.70999 0.982824 -0.342203 
-1.48611 0.866622 -0.378989 
-1.70999 0.982824 -0.342203 
-1.75893 0.949129 -0.29739 
-1.75893 0.949129 -0.29739 
-1.70999 0.982824 -0.342203 
-1.72188 0.989903 -0.432703 
-1.75893 0.949129 -0.29739 
-1.72188 0.989903 -0.432703 
-1.78167 0.962665 -0.470445 
-1.78167 0.962665 -0.470445 
-1.72188 0.989903 -0.432703 
-1.54882 0.935474 -0.428015 
-1.78167 0.962665 -0.470445 
-1.54882 0.935474 -0.428015 
-1.49715 0.873191 -0.462966 
-1.84941 1.07133 -0.200416 
-1.75338 1.11282 -0.328566 
-1.84141 1.11282 -0.36503 
-1.84941 1.07133 -0.200416 
-1.84141 1.11282 -0.36503 
-1.88447 1.07133 -0.214941 
-1.85002 1.01238 -0.142906 
-1.84941 1.07133 -0.200416 
-1.88447 1.07133 -0.214941 
-1.85002 1.01238 -0.142906 
-1.88447 1.07133 -0.214941 
-1.9317 1.01238 -0.176742 
-1.9317 1.01238 -0.176742 
-1.88447 1.07133 -0.214941 
-1.84141 1.11282 -0.36503 
-1.9317 1.01238 -0.176742 
-1.84141 1.11282 -0.36503 
-1.86068 1.0806 -0.42343 
-1.86068 1.0806 -0.42343 
-1.84141 1.11282 -0.36503 
-1.75338 1.11282 -0.328566 
-1.86068 1.0806 -0.42343 
-1.75338 1.11282 -0.328566 
-1.69234 1.0806 -0.353702 
-1.69234 1.0806 -0.353702 
-1.75338 1.11282 -0.328566 
-1.84941 1.07133 -0.200416 
-1.69234 1.0806 -0.353702 
-1.84941 1.07133 -0.200416 
-1.85002 1.01238 -0.142906 
-1.74375 0.278218 -0.329364 
-1.75835 1.1527 -0.364832 
-1.79021 1.1527 -0.378029 
-1.74375 0.278218 -0.329364 
-1.79021 1.1527 -0.378029 
-1.82918 0.278218 -0.364746 
-1.75835 1.1527 -0.364832 
-1.74385 1.1527 -0.393836 
-1.77571 1.1527 -0.407033 
-1.75835 1.1527 -0.364832 
-1.77571 1.1527 -0.407033 
-1.79021 1.1527 -0.378029 
-1.74385 1.1527 -0.393836 
-1.70489 0.278218 -0.407119 
-1.79031 0.278218 -0.442501 
-1.74385 1.1527 -0.393836 
-1.79031 0.278218 -0.442501 
-1.77571 1.1527 -0.407033 
-1.82918 0.278218 -0.364746 
-1.79021 1.1527 -0.378029 
-1.77571 1.1527 -0.407033 
-1.82918 0.278218 -0.364746 
-1.77571 1.1527 -0.407033 
-1.79031 0.278218 -0.442501 
-1.70489 0.278218 -0.407119 
-1.74385 1.1527 -0.393836 
-1.75835 1.1527 -0.364832 
-1.70489 0.278218 -0.407119 
-1.75835 1.1527 -0.364832 
-1.74375 0.278218 -0.329364 
-0.514172 0.627106 -0.443526 
-0.687359 0.645421 -0.505582 
-0.708191 0.648575 -0.41415 
-0.514172 0.627106 -0.443526 
-0.708191 0.648575 -0.41415 
-0.52247 0.628363 -0.407107 
-0.439651 0.572794 -0.452864 
-0.514172 0.627106 -0.443526 
-0.52247 0.628363 -0.407107 
-0.439651 0.572794 -0.452864 
-0.52247 0.628363 -0.407107 
-0.458982 0.575721 -0.368021 
-0.458982 0.575721 -0.368021 
-0.52247 0.628363 -0.407107 
-0.708191 0.648575 -0.41415 
-0.458982 0.575721 -0.368021 
-0.708191 0.648575 -0.41415 
-0.764296 0.608947 -0.379828 
-0.764296 0.608947 -0.379828 
-0.708191 0.648575 -0.41415 
-0.687359 0.645421 -0.505582 
-0.764296 0.608947 -0.379828 
-0.687359 0.645421 -0.505582 
-0.724455 0.602916 -0.554668 
-0.724455 0.602916 -0.554668 
-0.687359 0.645421 -0.505582 
-0.514172 0.627106 -0.443526 
-0.724455 0.602916 -0.554668 
-0.514172 0.627106 -0.443526 
-0.439651 0.572794 -0.452864 
-0.738642 0.53093 -0.24024 
-0.693512 0.591018 -0.39432 
-0.795822 0.595252 -0.400458 
-0.738642 0.53093 -0.24024 
-0.795822 0.595252 -0.400458 
-0.779394 0.532617 -0.242685 
-0.718454 0.461621 -0.190267 
-0.738642 0.53093 -0.24024 
-0.779394 0.532617 -0.242685 
-0.718454 0.461621 -0.190267 
-0.779394 0.532617 -0.242685 
-0.813395 0.46555 -0.19596 
-0.813395 0.46555 -0.19596 
-0.779394 0.532617 -0.242685 
-0.795822 0.595252 -0.400458 
-0.813395 0.46555 -0.19596 
-0.795822 0.595252 -0.400458 
-0.840149 0.568525 -0.45536 
-0.840149 0.568525 -0.45536 
-0.795822 0.595252 -0.400458 
-0.693512 0.591018 -0.39432 
-0.840149 0.568525 -0.45536 
-0.693512 0.591018 -0.39432 
-0.644505 0.560429 -0.443626 
-0.644505 0.560429 -0.443626 
-0.693512 0.591018 -0.39432 
-0.738642 0.53093 -0.24024 
-0.644505 0.560429 -0.443626 
-0.738642 0.53093 -0.24024 
-0.718454 0.461621 -0.190267 
-0.941736 0.791968 -0.404058 
-0.779636 0.825601 -0.420845 
-0.803226 0.817406 -0.501106 
-0.941736 0.791968 -0.404058 
-0.803226 0.817406 -0.501106 
-0.951136 0.788703 -0.436029 
-0.990105 0.741321 -0.364112 
-0.941736 0.791968 -0.404058 
-0.951136 0.788703 -0.436029 
-0.990105 0.741321 -0.364112 
-0.951136 0.788703 -0.436029 
-1.01199 0.733716 -0.438588 
-1.01199 0.733716 -0.438588 
-0.951136 0.788703 -0.436029 
-0.803226 0.817406 -0.501106 
-1.01199 0.733716 -0.438588 
-0.803226 0.817406 -0.501106 
-0.768742 0.780929 -0.545392 
-0.768742 0.780929 -0.545392 
-0.803226 0.817406 -0.501106 
-0.779636 0.825601 -0.420845 
-0.768742 0.780929 -0.545392 
-0.779636 0.825601 -0.420845 
-0.723633 0.7966 -0.391914 
-0.723633 0.7966 -0.391914 
-0.779636 0.825601 -0.420845 
-0.941736 0.791968 -0.404058 
-0.723633 0.7966 -0.391914 
-0.941736 0.791968 -0.404058 
-0.990105 0.741321 -0.364112 
-0.922291 0.563453 -0.643677 
-0.827667 0.584232 -0.503949 
-0.752445 0.580567 -0.563334 
-0.922291 0.563453 -0.643677 
-0.752445 0.580567 -0.563334 
-0.892328 0.561993 -0.667331 
-0.988831 0.512138 -0.673659 
-0.922291 0.563453 -0.643677 
-0.892328 0.561993 -0.667331 
-0.988831 0.512138 -0.673659 
-0.892328 0.561993 -0.667331 
-0.919027 0.508737 -0.728765 
-0.919027 0.508737 -0.728765 
-0.892328 0.561993 -0.667331 
-0.752445 0.580567 -0.563334 
-0.919027 0.508737 -0.728765 
-0.752445 0.580567 -0.563334 
-0.689217 0.539286 -0.557621 
-0.689217 0.539286 -0.557621 
-0.752445 0.580567 -0.563334 
-0.827667 0.584232 -0.503949 
-0.689217 0.539286 -0.557621 
-0.827667 0.584232 -0.503949 
-0.833065 0.546294 -0.444064 
-0.833065 0.546294 -0.444064 
-0.827667 0.584232 -0.503949 
-0.922291 0.563453 -0.643677 
-0.833065 0.546294 -0.444064 
-0.922291 0.563453 -0.643677 
-0.988831 0.512138 -0.673659 
-0.713602 0.870598 -0.654444 
-0.767599 0.919655 -0.521171 
-0.679237 0.913275 -0.504481 
-0.713602 0.870598 -0.654444 
-0.679237 0.913275 -0.504481 
-0.678404 0.868057 -0.647796 
-0.7316 0.814463 -0.704654 
-0.713602 0.870598 -0.654444 
-0.678404 0.868057 -0.647796 
-0.7316 0.814463 -0.704654 
-0.678404 0.868057 -0.647796 
-0.649607 0.808543 -0.689168 
-0.649607 0.808543 -0.689168 
-0.678404 0.868057 -0.647796 
-0.679237 0.913275 -0.504481 
-0.649607 0.808543 -0.689168 
-0.679237 0.913275 -0.504481 
-0.651196 0.882906 -0.45357 
-0.651196 0.882906 -0.45357 
-0.679237 0.913275 -0.504481 
-0.767599 0.919655 -0.521171 
-0.651196 0.882906 -0.45357 
-0.767599 0.919655 -0.521171 
-0.820162 0.895106 -0.485482 
-0.820162 0.895106 -0.485482 
-0.767599 0.919655 -0.521171 
-0.713602 0.870598 -0.654444 
-0.820162 0.895106 -0.485482 
-0.713602 0.870598 -0.654444 
-0.7316 0.814463 -0.704654 
-0.586094 0.993041 -0.355403 
-0.678869 1.03044 -0.466825 
-0.738327 1.03044 -0.408801 
-0.586094 0.993041 -0.355403 
-0.738327 1.03044 -0.408801 
-0.609777 0.993041 -0.332291 
-0.532282 0.939911 -0.338447 
-0.586094 0.993041 -0.355403 
-0.609777 0.993041 -0.332291 
-0.532282 0.939911 -0.338447 
-0.609777 0.993041 -0.332291 
-0.587456 0.939911 -0.284601 
-0.587456 0.939911 -0.284601 
-0.609777 0.993041 -0.332291 
-0.738327 1.03044 -0.408801 
-0.587456 0.939911 -0.284601 
-0.738327 1.03044 -0.408801 
-0.798672 1.0014 -0.410544 
-0.798672 1.0014 -0.410544 
-0.738327 1.03044 -0.408801 
-0.678869 1.03044 -0.466825 
-0.798672 1.0014 -0.410544 
-0.678869 1.03044 -0.466825 
-0.684971 1.0014 -0.521503 
-0.684971 1.0014 -0.521503 
-0.678869 1.03044 -0.466825 
-0.586094 0.993041 -0.355403 
-0.684971 1.0014 -0.521503 
-0.586094 0.993041 -0.355403 
-0.532282 0.939911 -0.338447 
-0.676861 0.278218 -0.474539 
-0.71434 1.06638 -0.473351 
-0.735859 1.06638 -0.452351 
-0.676861 0.278218 -0.474539 
-0.735859 1.06638 -0.452351 
-0.734554 0.278218 -0.418235 
-0.71434 1.06638 -0.473351 
-0.73741 1.06638 -0.492942 
-0.75893 1.06638 -0.47194 
-0.71434 1.06638 -0.473351 
-0.75893 1.06638 -0.47194 
-0.735859 1.06638 -0.452351 
-0.73741 1.06638 -0.492942 
-0.738712 0.278218 -0.527057 
-0.796408 0.278218 -0.470753 
-0.73741 1.06638 -0.492942 
-0.796408 0.278218 -0.470753 
-0.75893 1.06638 -0.47194 
-0.734554 0.278218 -0.418235 
-0.735859 1.06638 -0.452351 
-0.75893 1.06638 -0.47194 
-0.734554 0.278218 -0.418235 
-0.75893 1.06638 -0.47194 
-0.796408 0.278218 -0.470753 
-0.738712 0.278218 -0.527057 
-0.73741 1.06638 -0.492942 
-0.71434 1.06638 -0.473351 
-0.738712 0.278218 -0.527057 
-0.71434 1.06638 -0.473351 
-0.676861 0.278218 -0.474539 
-0.354889 0.671672 -1.15931 
-0.513836 0.692326 -1.03452 
-0.424517 0.695883 -0.967601 
-0.354889 0.671672 -1.15931 
-0.424517 0.695883 -0.967601 
-0.319311 0.673089 -1.13265 
-0.326014 0.610422 -1.23192 
-0.354889 0.671672 -1.15931 
-0.319311 0.673089 -1.13265 
-0.326014 0.610422 -1.23192 
-0.319311 0.673089 -1.13265 
-0.24313 0.613723 -1.16982 
-0.24313 0.613723 -1.16982 
-0.319311 0.673089 -1.13265 
-0.424517 0.695883 -0.967601 
-0.24313 0.613723 -1.16982 
-0.424517 0.695883 -0.967601 
-0.416332 0.651193 -0.89861 
-0.416332 0.651193 -0.89861 
-0.424517 0.695883 -0.967601 
-0.513836 0.692326 -1.03452 
-0.416332 0.651193 -0.89861 
-0.513836 0.692326 -1.03452 
-0.587133 0.644392 -1.02658 
-0.587133 0.644392 -1.02658 
-0.513836 0.692326 -1.03452 
-0.354889 0.671672 -1.15931 
-0.587133 0.644392 -1.02658 
-0.354889 0.671672 -1.15931 
-0.326014 0.610422 -1.23192 
-0.249805 0.563211 -0.848653 
-0.395067 0.630974 -0.970534 
-0.4555 0.635748 -0.880794 
-0.249805 0.563211 -0.848653 
-0.4555 0.635748 -0.880794 
-0.273878 0.565112 -0.812907 
-0.184414 0.485048 -0.840762 
-0.249805 0.563211 -0.848653 
-0.273878 0.565112 -0.812907 
-0.184414 0.485048 -0.840762 
-0.273878 0.565112 -0.812907 
-0.240488 0.489479 -0.757491 
-0.240488 0.489479 -0.757491 
-0.273878 0.565112 -0.812907 
-0.4555 0.635748 -0.880794 
-0.240488 0.489479 -0.757491 
-0.4555 0.635748 -0.880794 
-0.538965 0.605607 -0.869336 
-0.538965 0.605607 -0.869336 
-0.4555 0.635748 -0.880794 
-0.395067 0.630974 -0.970534 
-0.538965 0.605607 -0.869336 
-0.395067 0.630974 -0.970534 
-0.423409 0.596477 -1.04094 
-0.423409 0.596477 -1.04094 
-0.395067 0.630974 -0.970534 
-0.249805 0.563211 -0.848653 
-0.423409 0.596477 -1.04094 
-0.249805 0.563211 -0.848653 
-0.184414 0.485048 -0.840762 
-0.536036 0.857592 -0.750106 
-0.469358 0.895521 -0.906203 
-0.569746 0.886279 -0.926898 
-0.536036 0.857592 -0.750106 
-0.569746 0.886279 -0.926898 
-0.576025 0.85391 -0.758349 
-0.517622 0.800476 -0.685191 
-0.536036 0.857592 -0.750106 
-0.576025 0.85391 -0.758349 
-0.517622 0.800476 -0.685191 
-0.576025 0.85391 -0.758349 
-0.610777 0.791899 -0.704396 
-0.610777 0.791899 -0.704396 
-0.576025 0.85391 -0.758349 
-0.569746 0.886279 -0.926898 
-0.610777 0.791899 -0.704396 
-0.569746 0.886279 -0.926898 
-0.600206 0.845143 -0.981473 
-0.600206 0.845143 -0.981473 
-0.569746 0.886279 -0.926898 
-0.469358 0.895521 -0.906203 
-0.600206 0.845143 -0.981473 
-0.469358 0.895521 -0.906203 
-0.408239 0.862816 -0.941903 
-0.408239 0.862816 -0.941903 
-0.469358 0.895521 -0.906203 
-0.536036 0.857592 -0.750106 
-0.408239 0.862816 -0.941903 
-0.536036 0.857592 -0.750106 
-0.517622 0.800476 -0.685191 
-0.788572 0.599887 -0.893546 
-0.585693 0.62332 -0.90618 
-0.611324 0.619188 -1.0057 
-0.788572 0.599887 -0.893546 
-0.611324 0.619188 -1.0057 
-0.79878 0.598241 -0.933188 
-0.856375 0.542018 -0.848825 
-0.788572 0.599887 -0.893546 
-0.79878 0.598241 -0.933188 
-0.856375 0.542018 -0.848825 
-0.79878 0.598241 -0.933188 
-0.880159 0.538183 -0.941173 
-0.880159 0.538183 -0.941173 
-0.79878 0.598241 -0.933188 
-0.611324 0.619188 -1.0057 
-0.880159 0.538183 -0.941173 
-0.611324 0.619188 -1.0057 
-0.571875 0.572633 -1.06015 
-0.571875 0.572633 -1.06015 
-0.611324 0.619188 -1.0057 
-0.585693 0.62332 -0.90618 
-0.571875 0.572633 -1.06015 
-0.585693 0.62332 -0.90618 
-0.522861 0.580536 -0.869845 
-0.522861 0.580536 -0.869845 
-0.585693 0.62332 -0.90618 
-0.788572 0.599887 -0.893546 
-0.522861 0.580536 -0.869845 
-0.788572 0.599887 -0.893546 
-0.856375 0.542018 -0.848825 
-0.69084 0.946267 -1.08881 
-0.573048 1.00159 -0.9698 
-0.508368 0.994394 -1.04132 
-0.69084 0.946267 -1.08881 
-0.508368 0.994394 -1.04132 
-0.665073 0.943401 -1.11731 
-0.755342 0.882961 -1.09881 
-0.69084 0.946267 -1.08881 
-0.665073 0.943401 -1.11731 
-0.755342 0.882961 -1.09881 
-0.665073 0.943401 -1.11731 
-0.695326 0.876284 -1.16518 
-0.695326 0.876284 -1.16518 
-0.665073 0.943401 -1.11731 
-0.508368 0.994394 -1.04132 
-0.695326 0.876284 -1.16518 
-0.508368 0.994394 -1.04132 
-0.437824 0.960146 -1.04008 
-0.437824 0.960146 -1.04008 
-0.508368 0.994394 -1.04132 
-0.573048 1.00159 -0.9698 
-0.437824 0.960146 -1.04008 
-0.573048 1.00159 -0.9698 
-0.561504 0.973904 -0.903308 
-0.561504 0.973904 -0.903308 
-0.573048 1.00159 -0.9698 
-0.69084 0.946267 -1.08881 
-0.561504 0.973904 -0.903308 
-0.69084 0.946267 -1.08881 
-0.755342 0.882961 -1.09881 
-0.296013 1.08435 -1.04771 
-0.466885 1.12653 -1.02189 
-0.434467 1.12653 -0.937413 
-0.296013 1.08435 -1.04771 
-0.434467 1.12653 -0.937413 
-0.2831 1.08435 -1.01406 
-0.249174 1.02443 -1.0877 
-0.296013 1.08435 -1.04771 
-0.2831 1.08435 -1.01406 
-0.249174 1.02443 -1.0877 
-0.2831 1.08435 -1.01406 
-0.219091 1.02443 -1.0093 
-0.219091 1.02443 -1.0093 
-0.2831 1.08435 -1.01406 
-0.434467 1.12653 -0.937413 
-0.219091 1.02443 -1.0093 
-0.434467 1.12653 -0.937413 
-0.468056 1.09378 -0.883498 
-0.468056 1.09378 -0.883498 
-0.434467 1.12653 -0.937413 
-0.466885 1.12653 -1.02189 
-0.468056 1.09378 -0.883498 
-0.466885 1.12653 -1.02189 
-0.530043 1.09378 -1.04505 
-0.530043 1.09378 -1.04505 
-0.466885 1.12653 -1.02189 
-0.296013 1.08435 -1.04771 
-0.530043 1.09378 -1.04505 
-0.296013 1.08435 -1.04771 
-0.249174 1.02443 -1.0877 
-0.474287 0.278218 -1.02777 
-0.492659 1.16706 -0.993093 
-0.480925 1.16706 -0.962516 
-0.474287 0.278218 -1.02777 
-0.480925 1.16706 -0.962516 
-0.442835 0.278218 -0.945794 
-0.492659 1.16706 -0.993093 
-0.526249 1.16706 -0.982411 
-0.514515 1.16706 -0.951835 
-0.492659 1.16706 -0.993093 
-0.514515 1.16706 -0.951835 
-0.480925 1.16706 -0.962516 
-0.526249 1.16706 -0.982411 
-0.564339 0.278218 -0.999135 
-0.532885 0.278218 -0.917161 
-0.526249 1.16706 -0.982411 
-0.532885 0.278218 -0.917161 
-0.514515 1.16706 -0.951835 
-0.442835 0.278218 -0.945794 
-0.480925 1.16706 -0.962516 
-0.514515 1.16706 -0.951835 
-0.442835 0.278218 -0.945794 
-0.514515 1.16706 -0.951835 
-0.532885 0.278218 -0.917161 
-0.564339 0.278218 -0.999135 
-0.526249 1.16706 -0.982411 
-0.492659 1.16706 -0.993093 
-0.564339 0.278218 -0.999135 
-0.492659 1.16706 -0.993093 
-0.474287 0.278218 -1.02777 
-1.62229 0.747465 -0.688659 
-1.379 0.772098 -0.742314 
-1.43376 0.77634 -0.857587 
-1.62229 0.747465 -0.688659 
-1.43376 0.77634 -0.857587 
-1.6441 0.749155 -0.734576 
-1.69636 0.674416 -0.625918 
-1.62229 0.747465 -0.688659 
-1.6441 0.749155 -0.734576 
-1.69636 0.674416 -0.625918 
-1.6441 0.749155 -0.734576 
-1.74717 0.678353 -0.732884 
-1.74717 0.678353 -0.732884 
-1.6441 0.749155 -0.734576 
-1.43376 0.77634 -0.857587 
-1.74717 0.678353 -0.732884 
-1.43376 0.77634 -0.857587 
-1.40119 0.723041 -0.934854 
-1.40119 0.723041 -0.934854 
-1.43376 0.77634 -0.857587 
-1.379 0.772098 -0.742314 
-1.40119 0.723041 -0.934854 
-1.379 0.772098 -0.742314 
-1.29647 0.71493 -0.714421 
-1.29647 0.71493 -0.714421 
-1.379 0.772098 -0.742314 
-1.62229 0.747465 -0.688659 
-1.29647 0.71493 -0.714421 
-1.62229 0.747465 -0.688659 
-1.69636 0.674416 -0.625918 
-1.54803 0.61811 -1.07038 
-1.46677 0.698927 -0.869069 
-1.34898 0.704622 -0.93435 
-1.54803 0.61811 -1.07038 
-1.34898 0.704622 -0.93435 
-1.50111 0.620379 -1.09639 
-1.6127 0.524891 -1.11116 
-1.54803 0.61811 -1.07038 
-1.50111 0.620379 -1.09639 
-1.6127 0.524891 -1.11116 
-1.50111 0.620379 -1.09639 
-1.5034 0.530175 -1.17174 
-1.5034 0.530175 -1.17174 
-1.50111 0.620379 -1.09639 
-1.34898 0.704622 -0.93435 
-1.5034 0.530175 -1.17174 
-1.34898 0.704622 -0.93435 
-1.25355 0.668674 -0.905149 
-1.25355 0.668674 -0.905149 
-1.34898 0.704622 -0.93435 
-1.46677 0.698927 -0.869069 
-1.25355 0.668674 -0.905149 
-1.46677 0.698927 -0.869069 
-1.4788 0.657786 -0.780313 
-1.4788 0.657786 -0.780313 
-1.46677 0.698927 -0.869069 
-1.54803 0.61811 -1.07038 
-1.4788 0.657786 -0.780313 
-1.54803 0.61811 -1.07038 
-1.6127 0.524891 -1.11116 
-1.18536 0.9692 -1.03312 
-1.34946 1.01444 -0.900521 
-1.25531 1.00341 -0.828816 
-1.18536 0.9692 -1.03312 
-1.25531 1.00341 -0.828816 
-1.14786 0.964809 -1.00456 
-1.16608 0.901081 -1.11113 
-1.18536 0.9692 -1.03312 
-1.14786 0.964809 -1.00456 
-1.16608 0.901081 -1.11113 
-1.14786 0.964809 -1.00456 
-1.07872 0.890853 -1.04459 
-1.07872 0.890853 -1.04459 
-1.14786 0.964809 -1.00456 
-1.25531 1.00341 -0.828816 
-1.07872 0.890853 -1.04459 
-1.25531 1.00341 -0.828816 
-1.25563 0.954354 -0.755809 
-1.25563 0.954354 -0.755809 
-1.25531 1.00341 -0.828816 
-1.34946 1.01444 -0.900521 
-1.25563 0.954354 -0.755809 
-1.34946 1.01444 -0.900521 
-1.43567 0.975431 -0.892924 
-1.43567 0.975431 -0.892924 
-1.34946 1.01444 -0.900521 
-1.18536 0.9692 -1.03312 
-1.43567 0.975431 -0.892924 
-1.18536 0.9692 -1.03312 
-1.16608 0.901081 -1.11113 
-1.00316 0.661852 -0.755773 
-1.226 0.689799 -0.842898 
-1.25832 0.68487 -0.724591 
-1.00316 0.661852 -0.755773 
-1.25832 0.68487 -0.724591 
-1.01603 0.659889 -0.708646 
-0.904469 0.592835 -0.769629 
-1.00316 0.661852 -0.755773 
-1.01603 0.659889 -0.708646 
-0.904469 0.592835 -0.769629 
-1.01603 0.659889 -0.708646 
-0.934456 0.588261 -0.65985 
-0.934456 0.588261 -0.65985 
-1.01603 0.659889 -0.708646 
-1.25832 0.68487 -0.724591 
-0.934456 0.588261 -0.65985 
-1.25832 0.68487 -0.724591 
-1.33274 0.629348 -0.68636 
-1.33274 0.629348 -0.68636 
-1.25832 0.68487 -0.724591 
-1.226 0.689799 -0.842898 
-1.33274 0.629348 -0.68636 
-1.226 0.689799 -0.842898 
-1.27095 0.638774 -0.912589 
-1.27095 0.638774 -0.912589 
-1.226 0.689799 -0.842898 
-1.00316 0.661852 -0.755773 
-1.27095 0.638774 -0.912589 
-1.00316 0.661852 -0.755773 
-0.904469 0.592835 -0.769629 
-1.22364 1.07496 -0.596992 
-1.27747 1.14094 -0.781655 
-1.38887 1.13235 -0.737807 
-1.22364 1.07496 -0.596992 
-1.38887 1.13235 -0.737807 
-1.26802 1.07154 -0.579526 
-1.16117 0.999456 -0.554418 
-1.22364 1.07496 -0.596992 
-1.26802 1.07154 -0.579526 
-1.16117 0.999456 -0.554418 
-1.26802 1.07154 -0.579526 
-1.26455 0.991493 -0.513728 
-1.26455 0.991493 -0.513728 
-1.26802 1.07154 -0.579526 
-1.38887 1.13235 -0.737807 
-1.26455 0.991493 -0.513728 
-1.38887 1.13235 -0.737807 
-1.46299 1.09151 -0.774083 
-1.46299 1.09151 -0.774083 
-1.38887 1.13235 -0.737807 
-1.27747 1.14094 -0.781655 
-1.46299 1.09151 -0.774083 
-1.27747 1.14094 -0.781655 
-1.24995 1.10792 -0.857932 
-1.24995 1.10792 -0.857932 
-1.27747 1.14094 -0.781655 
-1.22364 1.07496 -0.596992 
-1.24995 1.10792 -0.857932 
-1.22364 1.07496 -0.596992 
-1.16117 0.999456 -0.554418 
-1.61803 1.23964 -0.836265 
-1.42127 1.28994 -0.778981 
-1.40515 1.28994 -0.884692 
-1.61803 1.23964 -0.836265 
-1.40515 1.28994 -0.884692 
-1.61161 1.23964 -0.878369 
-1.69165 1.16818 -0.817033 
-1.61803 1.23964 -0.836265 
-1.61161 1.23964 -0.878369 
-1.69165 1.16818 -0.817033 
-1.61161 1.23964 -0.878369 
-1.67669 1.16818 -0.915128 
-1.67669 1.16818 -0.915128 
-1.61161 1.23964 -0.878369 
-1.40515 1.28994 -0.884692 
-1.67669 1.16818 -0.915128 
-1.40515 1.28994 -0.884692 
-1.33727 1.25089 -0.925261 
-1.33727 1.25089 -0.925261 
-1.40515 1.28994 -0.884692 
-1.42127 1.28994 -0.778981 
-1.33727 1.25089 -0.925261 
-1.42127 1.28994 -0.778981 
-1.3681 1.25089 -0.723115 
-1.3681 1.25089 -0.723115 
-1.42127 1.28994 -0.778981 
-1.61803 1.23964 -0.836265 
-1.3681 1.25089 -0.723115 
-1.61803 1.23964 -0.836265 
-1.69165 1.16818 -0.817033 
-1.41693 0.278218 -0.76908 
-1.3767 1.33828 -0.796773 
-1.37086 1.33828 -0.835032 
-1.41693 0.278218 -0.76908 
-1.37086 1.33828 -0.835032 
-1.40129 0.278218 -0.871652 
-1.3767 1.33828 -0.796773 
-1.33467 1.33828 -0.791461 
-1.32884 1.33828 -0.82972 
-1.3767 1.33828 -0.796773 
-1.32884 1.33828 -0.82972 
-1.37086 1.33828 -0.835032 
-1.33467 1.33828 -0.791461 
-1.30425 0.278218 -0.754842 
-1.2886 0.278218 -0.857413 
-1.33467 1.33828 -0.791461 
-1.2886 0.278218 -0.857413 
-1.32884 1.33828 -0.82972 
-1.40129 0.278218 -0.871652 
-1.37086 1.33828 -0.835032 
-1.32884 1.33828 -0.82972 
-1.40129 0.278218 -0.871652 
-1.32884 1.33828 -0.82972 
-1.2886 0.278218 -0.857413 
-1.30425 0.278218 -0.754842 
-1.33467 1.33828 -0.791461 
-1.3767 1.33828 -0.796773 
-1.30425 0.278218 -0.754842 
-1.3767 1.33828 -0.796773 
-1.41693 0.278218 -0.76908 
3 0 1 2
3 3 4 5
3 6 7 8
3 9 10 11
3 12 13 14
3 15 16 17
3 18 19 20
3 21 22 23
3 24 25 26
3 27 28 29
3 30 31 32
3 33 34 35
3 36 37 38
3 39 40 41
3 42 43 44
3 45 46 47
3 48 49 50
3 51 52 53
3 54 55 56
3 57 58 59
3 60 61 62
3 63 64 65
3 66 67 68
3 69 70 71
3 72 73 74
3 75 76 77
3 78 79 80
3 81 82 83
3 84 85 86
3 87 88 89
3 90 91 92
3 93 94 95
3 96 97 98
3 99 100 101
3 102 103 104
3 105 106 107
3 108 109 110
3 111 112 113
3 114 115 116
3 117 118 119
3 120 121 122
3 123 124 125
3 126 127 128
3 129 130 131
3 132 133 134
3 135 136 137
3 138 139 140
3 141 142 143
3 144 145 146
3 147 148 149
3 150 151 152
3 153 154 155
3 156 157 158
3 159 160 161
3 162 163 164
3 165 166 167
3 168 169 170
3 171 172 173
3 174 175 176
3 177 178 179
3 180 181 182
3 183 184 185
3 186 187 188
3 189 190 191
3 192 193 194
3 195 196 197
3 198 199 200
3 201 202 203
3 204 205 206
3 207 208 209
3 210 211 212
3 213 214 215
3 216 217 218
3 219 220 221
3 222 223 224
3 225 226 227
3 228 229 230
3 231 232 233
3 234 235 236
3 237 238 239
3 240 241 242
3 243 244 245
3 246 247 248
3 249 250 251
3 252 253 254
3 255 256 257
3 258 259 260
3 261 262 263
3 264 265 266
3 267 268 269
3 270 271 272
3 273 274 275
3 276 277 278
3 279 280 281
3 282 283 284
3 285 286 287
3 288 289 290
3 291 292 293
3 294 295 296
3 297 298 299
3 300 301 302
3 303 304 305
3 306 307 308
3 309 310 311
3 312 313 314
3 315 316 317
3 318 319 320
3 321 322 323
3 324 325 326
3 327 328 329
3 330 331 332
3 333 334 335
3 336 337 338
3 339 340 341
3 342 343 344
3 345 346 347
3 348 349 350
3 351 352 353
3 354 355 356
3 357 358 359
3 360 361 362
3 363 364 365
3 366 367 368
3 369 370 371
3 372 373 374
3 375 376 377
3 378 379 380
3 381 382 383
3 384 385 386
3 387 388 389
3 390 391 392
3 393 394 395
3 396 397 398
3 399 400 401
3 402 403 404
3 405 406 407
3 408 409 410
3 411 412 413
3 414 415 416
3 417 418 419
3 420 421 422
3 423 424 425
3 426 427 428
3 429 430 431
3 432 433 434
3 435 436 437
3 438 439 440
3 441 442 443
3 444 445 446
3 447 448 449
3 450 451 452
3 453 454 455
3 456 457 458
3 459 460 461
3 462 463 464
3 465 466 467
3 468 469 470
3 471 472 473
3 474 475 476
3 477 478 479
3 480 481 482
3 483 484 485
3 486 487 488
3 489 490 491
3 492 493 494
3 495 496 497
3 498 499 500
3 501 502 503
3 504 505 506
3 507 508 509
3 510 511 512
3 513 514 515
3 516 517 518
3 519 520 521
3 522 523 524
3 525 526 527
3 528 529 530
3 531 532 533
3 534 535 536
3 537 538 539
3 540 541 542
3 543 544 545
3 546 547 548
3 549 550 551
3 552 553 554
3 555 556 557
3 558 559 560
3 561 562 563
3 564 565 566
3 567 568 569
3 570 571 572
3 573 574 575
3 576 577 578
3 579 580 581
3 582 583 584
3 585 586 587
3 588 589 590
3 591 592 593
3 594 595 596
3 597 598 599
3 600 601 602
3 603 604 605
3 606 607 608
3 609 610 611
3 612 613 614
3 615 616 617
3 618 619 620
3 621 622 623
3 624 625 626
3 627 628 629
3 630 631 632
3 633 634 635
3 636 637 638
3 639 640 641
3 642 643 644
3 645 646 647
3 648 649 650
3 651 652 653
3 654 655 656
3 657 658 659
3 660 661 662
3 663 664 665
3 666 667 668
3 669 670 671
3 672 673 674
3 675 676 677
3 678 679 680
3 681 682 683
3 684 685 686
3 687 688 689
3 690 691 692
3 693 694 695
3 696 697 698
3 699 700 701
3 702 703 704
3 705 706 707
3 708 709 710
3 711 712 713
3 714 715 716
3 717 718 719
3 720 721 722
3 723 724 725
3 726 727 728
3 729 730 731
3 732 733 734
3 735 736 737
3 738 739 740
3 741 742 743
3 744 745 746
3 747 748 749
3 750 751 752
3 753 754 755
3 756 757 758
3 759 760 761
3 762 763 764
3 765 766 767
3 768 769 770
3 771 772 773
3 774 775 776
3 777 778 779
3 780 781 782
3 783 784 785
3 786 787 788
3 789 790 791
3 792 793 794
3 795 796 797
3 798 799 800
3 801 802 803
3 804 805 806
3 807 808 809
3 810 811 812
3 813 814 815
3 816 817 818
3 819 820 821
3 822 823 824
3 825 826 827
3 828 829 830
3 831 832 833
3 834 835 836
3 837 838 839
3 840 841 842
3 843 844 845
3 846 847 848
3 849 850 851
3 852 853 854
3 855 856 857
3 858 859 860
3 861 862 863
3 864 865 866
3 867 868 869
3 870 871 872
3 873 874 875
3 876 877 878
3 879 880 881
3 882 883 884
3 885 886 887
3 888 889 890
3 891 892 893
3 894 895 896
3 897 898 899
3 900 901 902
3 903 904 905
3 906 907 908
3 909 910 911
3 912 913 914
3 915 916 917
3 918 919 920
3 921 922 923
3 924 925 926
3 927 928 929
3 930 931 932
3 933 934 935
3 936 937 938
3 939 940 941
3 942 943 944
3 945 946 947
3 948 949 950
3 951 952 953
3 954 955 956
3 957 958 959
3 960 961 962
3 963 964 965
3 966 967 968
3 969 970 971
3 972 973 974
3 975 976 977
3 978 979 980
3 981 982 983
3 984 985 986
3 987 988 989
3 990 991 992
3 993 994 995
3 996 997 998
3 999 1000 1001
3 1002 1003 1004
3 1005 1006 1007
3 1008 1009 1010
3 1011 1012 1013
3 1014 1015 1016
3 1017 1018 1019
3 1020 1021 1022
3 1023 1024 1025
3 1026 1027 1028
3 1029 1030 1031
3 1032 1033 1034
3 1035 1036 1037
3 1038 1039 1040
3 1041 1042 1043
3 1044 1045 1046
3 1047 1048 1049
3 1050 1051 1052
3 1053 1054 1055
3 1056 1057 1058
3 1059 1060 1061
3 1062 1063 1064
3 1065 1066 1067
